<?xml version="1.0" encoding="utf-8"?>
<!-- Generator: Adobe Illustrator 25.0.1, SVG Export Plug-In . SVG Version: 6.00 Build 0)  -->
<svg version="1.1" id="quote" xmlns="http://www.w3.org/2000/svg" xmlns:xlink="http://www.w3.org/1999/xlink" x="0px" y="0px"
	 viewBox="0 0 35.4 25.3" style="enable-background:new 0 0 35.4 25.3;" xml:space="preserve">
<style type="text/css">
	.st0{fill:#98DAFF;}
</style>
<g id="quote_1_" transform="translate(35.392 67.947) rotate(180)">
	<g id="Grupo_11051" transform="translate(0 42.667)">
		<g id="Grupo_11050" transform="translate(0 0)">
			<path id="Trazado_9761" class="st0" d="M34.4,10.1h-5c-0.7,0-1.2-0.8-0.9-1.4l1.6-7.2C30.5,0.8,30,0,29.2,0h-3.3
				c-0.4,0-0.7,0.2-0.9,0.6l-4.7,9.3c-0.1,0.1-0.1,0.3-0.1,0.4v13.9c0,0.6,0.4,1,1,1h13.2c0.6,0,1-0.4,1-1V11.1
				C35.4,10.6,34.9,10.1,34.4,10.1z"/>
			<path id="Trazado_9762" class="st0" d="M15.2,24.3V11.1c0-0.6-0.4-1-1-1h-5c-0.7,0-1.2-0.8-0.9-1.4l1.6-7.2C10.2,0.8,9.8,0,9,0
				H5.7C5.3,0,4.9,0.2,4.8,0.6L0.1,9.9C0,10,0,10.2,0,10.3v13.9c0,0.6,0.4,1,1,1h13.2C14.7,25.3,15.2,24.8,15.2,24.3z"/>
		</g>
	</g>
</g>
</svg>
