<svg xmlns="http://www.w3.org/2000/svg" width="721.192" height="575.867" viewBox="0 0 721.192 575.867">
  <g id="Grupo_9450" data-name="Grupo 9450" transform="translate(-1749.19 -7267.483)">
    <path id="Trazado_9684" data-name="Trazado 9684" d="M2082.577,7267.483l241.43,575.867-574.817-23.308Z" fill="#0b92dd"/>
    <path id="Trazado_9685" data-name="Trazado 9685" d="M2470.382,7643.35l-146.375,200-241.43-575.867Z" fill="#086ea6"/>
    <path id="Trazado_9686" data-name="Trazado 9686" d="M2281.99,7743.131l-199.413-475.647-275.367,456.4Z" fill="#7ac943"/>
    <path id="Trazado_9687" data-name="Trazado 9687" d="M2402.891,7577.937l-320.314-310.454,199.413,475.647Z" fill="#5c9732"/>
    <path id="Trazado_9688" data-name="Trazado 9688" d="M2237.4,7636.765l-154.819-369.281-213.788,354.334Z" fill="#fcee21"/>
    <path id="Trazado_9689" data-name="Trazado 9689" d="M2331.261,7508.512l-248.684-241.028L2237.4,7636.764Z" fill="#d4ab01"/>
    <path id="Trazado_9690" data-name="Trazado 9690" d="M2195.373,7536.528l-112.8-269.044-155.758,258.155Z" fill="#f7931e"/>
    <path id="Trazado_9691" data-name="Trazado 9691" d="M2082.577,7267.483l68.645,163.734,44.151,105.31,68.386-93.44Z" fill="#b96e16"/>
    <path id="Trazado_9692" data-name="Trazado 9692" d="M2150.868,7430.373l-68.291-162.89-94.3,156.3Z" fill="#f1354b"/>
    <path id="Trazado_9693" data-name="Trazado 9693" d="M2082.577,7267.483l42.458,101.272,25.833,61.618,41.4-56.572Z" fill="#b52838"/>
    <g id="Grupo_9372" data-name="Grupo 9372">
      <g id="Grupo_9357" data-name="Grupo 9357">
        <path id="Trazado_9694" data-name="Trazado 9694" d="M2030.964,7364l-.686,13.394,7.132.374-.08,1.572-9.009-.472.766-14.965Z"/>
      </g>
      <g id="Grupo_9358" data-name="Grupo 9358">
        <path id="Trazado_9695" data-name="Trazado 9695" d="M2049.684,7373.59l-.055,1.078-8.345-.438a4.245,4.245,0,0,0,.925,3.057,3.909,3.909,0,0,0,2.831,1.175,10.285,10.285,0,0,0,3.9-.561l-.078,1.518a9.683,9.683,0,0,1-1.87.461,10.882,10.882,0,0,1-2.1.061,5.787,5.787,0,0,1-4.153-1.74,5.582,5.582,0,0,1-1.339-4.286,6.209,6.209,0,0,1,1.658-4.236,4.971,4.971,0,0,1,3.953-1.387,4.749,4.749,0,0,1,3.531,1.572A5.076,5.076,0,0,1,2049.684,7373.59Zm-8.284-.741,6.333.332a3.592,3.592,0,0,0-.647-2.5,2.852,2.852,0,0,0-2.166-.969,3.126,3.126,0,0,0-2.371.759,3.938,3.938,0,0,0-1.149,2.38"/>
      </g>
      <g id="Grupo_9359" data-name="Grupo 9359">
        <path id="Trazado_9696" data-name="Trazado 9696" d="M2056.8,7368.91a10.24,10.24,0,0,1,3.779.937l-.717,1.34a9.552,9.552,0,0,0-3.27-.865,4.078,4.078,0,0,0-1.987.274,1.162,1.162,0,0,0-.717,1.008,1.242,1.242,0,0,0,.212.785,2.392,2.392,0,0,0,.768.644,19.02,19.02,0,0,0,2.078.937,8.233,8.233,0,0,1,2.835,1.617,2.476,2.476,0,0,1,.669,1.891,2.734,2.734,0,0,1-1.39,2.35,6.253,6.253,0,0,1-3.574.668,8.14,8.14,0,0,1-3.719-.906l.081-1.572a10.02,10.02,0,0,0,1.835.744,8.623,8.623,0,0,0,1.919.335,4.758,4.758,0,0,0,2.231-.306,1.4,1.4,0,0,0,.84-1.262,1.374,1.374,0,0,0-.554-1.146,9.967,9.967,0,0,0-2.342-1.231,13.55,13.55,0,0,1-2.346-1.141,3.162,3.162,0,0,1-1.009-1.043,2.417,2.417,0,0,1-.283-1.339,2.473,2.473,0,0,1,1.315-2.1A5.945,5.945,0,0,1,2056.8,7368.91Z"/>
      </g>
      <g id="Grupo_9360" data-name="Grupo 9360">
        <path id="Trazado_9697" data-name="Trazado 9697" d="M2063.28,7380.7l.574-11.22,1.832.1-.574,11.219Z"/>
      </g>
      <g id="Grupo_9361" data-name="Grupo 9361">
        <path id="Trazado_9698" data-name="Trazado 9698" d="M2064.118,7367.3a1.1,1.1,0,0,1-.261-.87,1.076,1.076,0,0,1,.349-.837,1.137,1.137,0,0,1,.786-.229,1.152,1.152,0,0,1,.75.31,1.287,1.287,0,0,1-.088,1.706,1.2,1.2,0,0,1-1.536-.08Z"/>
      </g>
      <g id="Grupo_9362" data-name="Grupo 9362">
        <path id="Trazado_9699" data-name="Trazado 9699" d="M2078.461,7371.612a6.8,6.8,0,0,1-.436,8.516,5.426,5.426,0,0,1-4.193,1.329,5.737,5.737,0,0,1-2.847-.861,4.771,4.771,0,0,1-1.845-2.123,6.631,6.631,0,0,1-.525-3.126,5.9,5.9,0,0,1,1.7-4.2,5.434,5.434,0,0,1,4.183-1.312A5.344,5.344,0,0,1,2078.461,7371.612Zm-1.723,7.449a5.025,5.025,0,0,0,1.1-3.23,4.957,4.957,0,0,0-.768-3.3,3.392,3.392,0,0,0-2.7-1.258,3.337,3.337,0,0,0-2.769.953,4.952,4.952,0,0,0-1.092,3.222,5.023,5.023,0,0,0,.766,3.318,3.9,3.9,0,0,0,5.461.3"/>
      </g>
      <g id="Grupo_9363" data-name="Grupo 9363">
        <path id="Trazado_9700" data-name="Trazado 9700" d="M2088.979,7370.6a4.859,4.859,0,0,1,3.237,1.143,3.992,3.992,0,0,1,.945,3.183l-.375,7.321-1.832-.1.372-7.258a2.825,2.825,0,0,0-.569-2.083,2.882,2.882,0,0,0-2.077-.784,3.661,3.661,0,0,0-2.833.806,4.542,4.542,0,0,0-1.041,3.1l-.3,5.883-1.842-.1.575-11.22,1.491.079.227,1.552.089,0a3.683,3.683,0,0,1,1.638-1.2A5.647,5.647,0,0,1,2088.979,7370.6Z"/>
      </g>
      <g id="Grupo_9364" data-name="Grupo 9364">
        <path id="Trazado_9701" data-name="Trazado 9701" d="M2106.452,7376.565l-.056,1.078-8.344-.438a4.24,4.24,0,0,0,.924,3.057,3.9,3.9,0,0,0,2.822,1.175,10.318,10.318,0,0,0,3.911-.561l-.078,1.518a9.863,9.863,0,0,1-1.87.461,10.889,10.889,0,0,1-2.1.061,5.808,5.808,0,0,1-4.161-1.741,5.608,5.608,0,0,1-1.339-4.285,6.214,6.214,0,0,1,1.666-4.236,4.974,4.974,0,0,1,3.953-1.387,4.753,4.753,0,0,1,3.531,1.572A5.109,5.109,0,0,1,2106.452,7376.565Zm-8.284-.741,6.332.332a3.588,3.588,0,0,0-.646-2.5,2.864,2.864,0,0,0-2.166-.969,3.118,3.118,0,0,0-2.372.759,3.842,3.842,0,0,0-1.148,2.38"/>
      </g>
      <g id="Grupo_9365" data-name="Grupo 9365">
        <path id="Trazado_9702" data-name="Trazado 9702" d="M2113.572,7371.885a10.26,10.26,0,0,1,3.779.937l-.717,1.34a9.541,9.541,0,0,0-3.27-.865,4.074,4.074,0,0,0-1.986.274,1.167,1.167,0,0,0-.718,1.008,1.187,1.187,0,0,0,.212.785,2.409,2.409,0,0,0,.768.644,19.1,19.1,0,0,0,2.078.938,8.223,8.223,0,0,1,2.835,1.616,2.5,2.5,0,0,1,.66,1.89,2.725,2.725,0,0,1-1.381,2.351,6.28,6.28,0,0,1-3.574.668,8.172,8.172,0,0,1-3.727-.907l.08-1.572a10.245,10.245,0,0,0,1.845.745,8.6,8.6,0,0,0,1.91.335,4.7,4.7,0,0,0,2.231-.307,1.4,1.4,0,0,0,.848-1.261,1.364,1.364,0,0,0-.563-1.147,9.657,9.657,0,0,0-2.332-1.23,13.364,13.364,0,0,1-2.346-1.14,3.189,3.189,0,0,1-1.019-1.045,2.5,2.5,0,0,1-.274-1.338,2.455,2.455,0,0,1,1.315-2.1A5.948,5.948,0,0,1,2113.572,7371.885Z"/>
      </g>
      <g id="Grupo_9366" data-name="Grupo 9366">
        <path id="Trazado_9703" data-name="Trazado 9703" d="M2048.429,7399.7l-.055,1.069-2.259.134a3.373,3.373,0,0,1,.5.963,3.332,3.332,0,0,1,.175,1.315,3.2,3.2,0,0,1-1.347,2.568,5.152,5.152,0,0,1-3.382.8,6.035,6.035,0,0,1-1.011-.134c-.8.345-1.221.8-1.251,1.384a.729.729,0,0,0,.378.7,3.216,3.216,0,0,0,1.391.289l2.146.113a5.087,5.087,0,0,1,2.979.931,2.588,2.588,0,0,1,.937,2.282,3.117,3.117,0,0,1-1.754,2.755,9.17,9.17,0,0,1-4.756.732,6.834,6.834,0,0,1-3.623-1.009,2.617,2.617,0,0,1-1.166-2.385,2.506,2.506,0,0,1,.791-1.733,3.7,3.7,0,0,1,2.046-.9,1.921,1.921,0,0,1-.75-.651,1.523,1.523,0,0,1-.266-.969,1.723,1.723,0,0,1,.405-1.051,3.781,3.781,0,0,1,1.168-.83,3.261,3.261,0,0,1-1.473-1.3,3.451,3.451,0,0,1-.483-2A3.506,3.506,0,0,1,2039.1,7400a5.141,5.141,0,0,1,3.437-.82,6.628,6.628,0,0,1,1.7.3Zm-7.576,10.591a3.067,3.067,0,0,0-1.978.455,1.883,1.883,0,0,0-.773,1.545,1.5,1.5,0,0,0,.756,1.426,4.847,4.847,0,0,0,2.348.592,7,7,0,0,0,3.454-.459,1.944,1.944,0,0,0,1.2-1.675,1.353,1.353,0,0,0-.546-1.3,5.116,5.116,0,0,0-2.273-.47l-2.191-.115m1.324-4.929c1.787.093,2.727-.659,2.809-2.276q.129-2.52-2.592-2.667a2.8,2.8,0,0,0-2.019.543,2.478,2.478,0,0,0-.8,1.877,2.211,2.211,0,0,0,.627,1.816,3.037,3.037,0,0,0,1.973.707"/>
      </g>
      <g id="Grupo_9367" data-name="Grupo 9367">
        <path id="Trazado_9704" data-name="Trazado 9704" d="M2056.442,7399.911a7.722,7.722,0,0,1,1.44.2l-.332,1.559a7.051,7.051,0,0,0-1.313-.222,3.334,3.334,0,0,0-2.571.973,3.833,3.833,0,0,0-1.183,2.7l-.308,6.019-1.841-.1.574-11.219,1.518.079.1,2.086.09,0a5.067,5.067,0,0,1,1.712-1.6A3.854,3.854,0,0,1,2056.442,7399.911Z"/>
      </g>
      <g id="Grupo_9368" data-name="Grupo 9368">
        <path id="Trazado_9705" data-name="Trazado 9705" d="M2067.875,7401.419a3.6,3.6,0,0,1,.9,2.912l-.392,7.662-1.357-.071-.286-1.618-.09-.005a5.04,5.04,0,0,1-1.879,1.334,6.007,6.007,0,0,1-2.264.25,4.272,4.272,0,0,1-2.776-1,3.034,3.034,0,0,1-.9-2.506c.116-2.264,2.126-3.347,6.048-3.25l2.06.045.035-.692a2.718,2.718,0,0,0-.519-1.99,2.663,2.663,0,0,0-1.926-.732,8.5,8.5,0,0,0-3.467.683l-.5-1.332a9.531,9.531,0,0,1,4.145-.746A4.9,4.9,0,0,1,2067.875,7401.419Zm-1.1,5.969.052-1.016-1.836-.024a7.289,7.289,0,0,0-3.194.463,1.882,1.882,0,0,0-1.05,1.693,1.691,1.691,0,0,0,.53,1.433,2.661,2.661,0,0,0,1.655.564,3.894,3.894,0,0,0,2.739-.73,3.1,3.1,0,0,0,1.1-2.383"/>
      </g>
      <g id="Grupo_9369" data-name="Grupo 9369">
        <path id="Trazado_9706" data-name="Trazado 9706" d="M2082.121,7401.464l-5.173,10.978-2.138-.112-4.024-11.461,1.966.1,2.265,6.783a31.137,31.137,0,0,1,.887,3.091l.089,0a20.445,20.445,0,0,1,.879-2.206q.734-1.677,3.282-7.286Z"/>
      </g>
      <g id="Grupo_9370" data-name="Grupo 9370">
        <path id="Trazado_9707" data-name="Trazado 9707" d="M2093.388,7406.909l-.054,1.069-8.345-.438a4.24,4.24,0,0,0,.924,3.057,3.9,3.9,0,0,0,2.822,1.175,10.49,10.49,0,0,0,3.91-.552l-.077,1.509a10.5,10.5,0,0,1-1.87.47,11.783,11.783,0,0,1-2.1.052,5.856,5.856,0,0,1-4.162-1.732,5.642,5.642,0,0,1-1.329-4.294,6.168,6.168,0,0,1,1.657-4.227,4.949,4.949,0,0,1,3.953-1.4,4.787,4.787,0,0,1,3.532,1.572A5.081,5.081,0,0,1,2093.388,7406.909Zm-8.284-.741,6.333.332a3.551,3.551,0,0,0-.647-2.5,2.835,2.835,0,0,0-2.165-.978,3.12,3.12,0,0,0-2.372.759,3.87,3.87,0,0,0-1.149,2.389"/>
      </g>
      <g id="Grupo_9371" data-name="Grupo 9371">
        <path id="Trazado_9708" data-name="Trazado 9708" d="M2100.509,7402.22a10.246,10.246,0,0,1,3.78.937l-.718,1.349a9.382,9.382,0,0,0-3.269-.874,3.96,3.96,0,0,0-1.987.283,1.157,1.157,0,0,0-.718,1.008,1.17,1.17,0,0,0,.212.776,2.3,2.3,0,0,0,.769.644,18.575,18.575,0,0,0,2.077.947,8.091,8.091,0,0,1,2.835,1.616,2.474,2.474,0,0,1,.66,1.89,2.737,2.737,0,0,1-1.381,2.351,6.256,6.256,0,0,1-3.574.659,8.306,8.306,0,0,1-3.727-.9l.081-1.581a9.043,9.043,0,0,0,1.844.745,8.635,8.635,0,0,0,1.919.335,4.767,4.767,0,0,0,2.232-.306,1.4,1.4,0,0,0,.838-1.253,1.378,1.378,0,0,0-.562-1.156,10.144,10.144,0,0,0-2.333-1.221,13.243,13.243,0,0,1-2.346-1.149,3.189,3.189,0,0,1-1.019-1.045,2.49,2.49,0,0,1-.273-1.338,2.465,2.465,0,0,1,1.314-2.1A5.948,5.948,0,0,1,2100.509,7402.22Z"/>
      </g>
    </g>
    <g id="Grupo_9373" data-name="Grupo 9373">
      <path id="Trazado_9709" data-name="Trazado 9709" d="M2146.751,7358.016,2157,7371.808l-1.978,3.165-5.93-7.981-.963-1.341-1.033-1.482c.035,1.013.04,1.694.026,2.043l-.13,3-2.257-.231.387-8.357Z"/>
    </g>
    <g id="Grupo_9376" data-name="Grupo 9376">
      <g id="Grupo_9374" data-name="Grupo 9374">
        <path id="Trazado_9710" data-name="Trazado 9710" d="M2210.828,7429.705c1.45.326,3.042,1.64,4.771,3.966a15.707,15.707,0,0,1,3.167,6.638,8.013,8.013,0,0,1-1.181,5.695q-1.623,2.6-3.776,2.109c-1.437-.309-3.019-1.639-4.753-3.974a15.881,15.881,0,0,1-3.2-6.655,8.017,8.017,0,0,1,1.181-5.677Q2208.651,7429.219,2210.828,7429.705Zm5.185,11.24a15.789,15.789,0,0,0-2.387-4.118,11.485,11.485,0,0,0-3.019-3.143,1.225,1.225,0,0,0-1.819.482,3.08,3.08,0,0,0-.175,2.708,15.865,15.865,0,0,0,2.405,4.126,11.991,11.991,0,0,0,3,3.159,1.217,1.217,0,0,0,1.823-.506,3.137,3.137,0,0,0,.175-2.708"/>
      </g>
      <g id="Grupo_9375" data-name="Grupo 9375">
        <path id="Trazado_9711" data-name="Trazado 9711" d="M2201.386,7441.316l10.249,13.792-1.978,3.164-5.93-7.98-.951-1.341-1.034-1.482c.029,1,.034,1.685.021,2.051l-.125,2.99-2.262-.222.386-8.374Z"/>
      </g>
    </g>
    <g id="Grupo_9379" data-name="Grupo 9379">
      <g id="Grupo_9377" data-name="Grupo 9377">
        <path id="Trazado_9712" data-name="Trazado 9712" d="M2255.041,7522.689a6.1,6.1,0,0,1,2.941-2.8,2.254,2.254,0,0,1,2.634,1.06,5.763,5.763,0,0,1,1.1,3.06,8.241,8.241,0,0,1-.566,3.623l.043.058a4.038,4.038,0,0,1,2.474-1.73,2.45,2.45,0,0,1,2.19,1.245,6.867,6.867,0,0,1,1.322,4.662,11.808,11.808,0,0,1-1.971,5.581,11.443,11.443,0,0,1-3.255,3.577l-1.839-2.475a8.365,8.365,0,0,0,1.683-1.261,8.763,8.763,0,0,0,1.481-1.809,6.526,6.526,0,0,0,1.084-2.8,3.336,3.336,0,0,0-.7-2.322c-.486-.654-1.006-.818-1.563-.525a6.927,6.927,0,0,0-2.019,2.343l-.713,1.141-1.661-2.235.723-1.158a8.489,8.489,0,0,0,1.285-2.962,2.912,2.912,0,0,0-.565-2.249c-.776-1.043-1.611-.848-2.5.568a7.428,7.428,0,0,0-.77,1.722,13.362,13.362,0,0,0-.478,2.486l-2.411-.546A13.7,13.7,0,0,1,2255.041,7522.689Z"/>
      </g>
      <g id="Grupo_9378" data-name="Grupo 9378">
        <path id="Trazado_9713" data-name="Trazado 9713" d="M2266.473,7508.312c1.455.317,3.047,1.648,4.776,3.974a15.7,15.7,0,0,1,3.167,6.639,8.029,8.029,0,0,1-1.187,5.685q-1.623,2.6-3.77,2.118c-1.437-.309-3.024-1.648-4.753-3.974a15.854,15.854,0,0,1-3.2-6.655,7.982,7.982,0,0,1,1.181-5.678C2263.762,7508.7,2265.029,7507.994,2266.473,7508.312Zm5.184,11.239a15.679,15.679,0,0,0-2.381-4.109,11.556,11.556,0,0,0-3.025-3.151,1.225,1.225,0,0,0-1.819.481,3.115,3.115,0,0,0-.175,2.709,15.921,15.921,0,0,0,2.411,4.133,12.058,12.058,0,0,0,3,3.16,1.229,1.229,0,0,0,1.823-.506,3.118,3.118,0,0,0,.169-2.717"/>
      </g>
    </g>
    <g id="Grupo_9383" data-name="Grupo 9383">
      <g id="Grupo_9380" data-name="Grupo 9380">
        <path id="Trazado_9714" data-name="Trazado 9714" d="M2316.776,7598.565c1.455.317,3.047,1.648,4.776,3.974a15.7,15.7,0,0,1,3.167,6.638,8.034,8.034,0,0,1-1.187,5.687q-1.623,2.6-3.769,2.117c-1.438-.309-3.019-1.639-4.754-3.974a15.866,15.866,0,0,1-3.2-6.655,7.984,7.984,0,0,1,1.181-5.677Q2314.6,7598.089,2316.776,7598.565Zm5.184,11.239a15.662,15.662,0,0,0-2.381-4.109,11.542,11.542,0,0,0-3.025-3.151,1.225,1.225,0,0,0-1.819.482,3.111,3.111,0,0,0-.175,2.708,16.23,16.23,0,0,0,2.411,4.134,12.056,12.056,0,0,0,3,3.159,1.228,1.228,0,0,0,1.822-.506,3.118,3.118,0,0,0,.169-2.717"/>
      </g>
      <g id="Grupo_9381" data-name="Grupo 9381">
        <path id="Trazado_9715" data-name="Trazado 9715" d="M2324.261,7586.589c1.449.326,3.047,1.648,4.776,3.974a15.7,15.7,0,0,1,3.167,6.639,8.038,8.038,0,0,1-1.186,5.686q-1.625,2.6-3.771,2.118-2.156-.465-4.758-3.966a15.859,15.859,0,0,1-3.2-6.664,7.984,7.984,0,0,1,1.181-5.677Q2322.09,7586.113,2324.261,7586.589Zm5.184,11.239a15.653,15.653,0,0,0-2.381-4.108,11.553,11.553,0,0,0-3.025-3.151,1.225,1.225,0,0,0-1.819.481,3.081,3.081,0,0,0-.175,2.708,15.934,15.934,0,0,0,2.411,4.134,12.057,12.057,0,0,0,3,3.16,1.225,1.225,0,0,0,1.823-.507,3.135,3.135,0,0,0,.168-2.717"/>
      </g>
      <g id="Grupo_9382" data-name="Grupo 9382">
        <path id="Trazado_9716" data-name="Trazado 9716" d="M2312.729,7614.661c1.052.021,2.085.706,3.1,2.072a8.566,8.566,0,0,1,.359,9.881,5.143,5.143,0,0,1-2.329,2.187,3.24,3.24,0,0,1-2.73-.163,8.141,8.141,0,0,1-2.851-2.6,15.617,15.617,0,0,1-3.352-7.975,12.3,12.3,0,0,1,2.03-7.633,11.494,11.494,0,0,1,1.365-1.858l1.729,2.326a10.32,10.32,0,0,0-2.593,4.729,6.45,6.45,0,0,0,.033,2.881,9.91,9.91,0,0,0,1.5,3.117l.083-.134a6.34,6.34,0,0,1,.837-4.854C2310.739,7615.31,2311.683,7614.65,2312.729,7614.661Zm2.2,7.5a4.794,4.794,0,0,0-.99-2.33,2.3,2.3,0,0,0-1.5-1.081c-.5-.039-.962.27-1.389.953a4.031,4.031,0,0,0-.594,2.22,3.278,3.278,0,0,0,.569,2.024,2.828,2.828,0,0,0,1.81,1.254,1.548,1.548,0,0,0,1.587-.854,3.328,3.328,0,0,0,.506-2.186"/>
      </g>
    </g>
    <g id="Grupo_9388" data-name="Grupo 9388">
      <g id="Grupo_9384" data-name="Grupo 9384">
        <path id="Trazado_9717" data-name="Trazado 9717" d="M2386.585,7664.537q2.175.489,4.765,3.974a15.69,15.69,0,0,1,3.172,6.631,8.006,8.006,0,0,1-1.18,5.694c-1.083,1.732-2.338,2.435-3.781,2.118s-3.019-1.64-4.754-3.974a15.867,15.867,0,0,1-3.2-6.664,8.01,8.01,0,0,1,1.181-5.677Q2384.408,7664.052,2386.585,7664.537Zm5.185,11.24a15.805,15.805,0,0,0-2.388-4.118,11.478,11.478,0,0,0-3.019-3.143,1.222,1.222,0,0,0-1.818.482,3.054,3.054,0,0,0-.175,2.708,15.826,15.826,0,0,0,2.4,4.126,12.043,12.043,0,0,0,3,3.159,1.219,1.219,0,0,0,1.823-.506,3.141,3.141,0,0,0,.175-2.708"/>
      </g>
      <g id="Grupo_9385" data-name="Grupo 9385">
        <path id="Trazado_9718" data-name="Trazado 9718" d="M2379.1,7676.513c1.45.326,3.041,1.639,4.77,3.966a15.7,15.7,0,0,1,3.167,6.638,8.008,8.008,0,0,1-1.18,5.695c-1.083,1.732-2.337,2.435-3.776,2.109-1.438-.31-3.019-1.64-4.754-3.974a15.865,15.865,0,0,1-3.2-6.655,8.026,8.026,0,0,1,1.182-5.678Q2376.923,7676.028,2379.1,7676.513Zm5.185,11.239a15.8,15.8,0,0,0-2.388-4.117,11.466,11.466,0,0,0-3.019-3.143,1.218,1.218,0,0,0-1.818.481,3.071,3.071,0,0,0-.175,2.709,15.835,15.835,0,0,0,2.405,4.125,12.018,12.018,0,0,0,3,3.16,1.218,1.218,0,0,0,1.823-.507,3.14,3.14,0,0,0,.175-2.708"/>
      </g>
      <g id="Grupo_9386" data-name="Grupo 9386">
        <path id="Trazado_9719" data-name="Trazado 9719" d="M2371.615,7688.489q2.183.476,4.77,3.965a15.689,15.689,0,0,1,3.168,6.639,8.013,8.013,0,0,1-1.181,5.694c-1.077,1.724-2.337,2.435-3.776,2.11-1.438-.309-3.019-1.64-4.753-3.974a15.858,15.858,0,0,1-3.2-6.656,8.024,8.024,0,0,1,1.182-5.677Q2369.437,7688,2371.615,7688.489Zm5.185,11.239a15.831,15.831,0,0,0-2.387-4.117,11.469,11.469,0,0,0-3.02-3.143,1.218,1.218,0,0,0-1.818.481,3.087,3.087,0,0,0-.175,2.708,16.145,16.145,0,0,0,2.405,4.126,11.743,11.743,0,0,0,3,3.151,1.21,1.21,0,0,0,1.818-.5,3.109,3.109,0,0,0,.175-2.708"/>
      </g>
      <g id="Grupo_9387" data-name="Grupo 9387">
        <path id="Trazado_9720" data-name="Trazado 9720" d="M2360.177,7702.857a6.115,6.115,0,0,1,2.942-2.8,2.258,2.258,0,0,1,2.639,1.069,5.769,5.769,0,0,1,1.1,3.043,8.474,8.474,0,0,1-.565,3.64l.037.05a4.03,4.03,0,0,1,2.474-1.73,2.464,2.464,0,0,1,2.2,1.244,6.889,6.889,0,0,1,1.317,4.67,11.908,11.908,0,0,1-1.971,5.582,11.446,11.446,0,0,1-3.255,3.577l-1.845-2.484a8.3,8.3,0,0,0,1.689-1.253,9.152,9.152,0,0,0,1.481-1.808,6.422,6.422,0,0,0,1.078-2.812,3.321,3.321,0,0,0-.7-2.323c-.48-.645-1-.826-1.557-.516a6.791,6.791,0,0,0-2.02,2.343l-.713,1.14-1.661-2.235.724-1.157a8.312,8.312,0,0,0,1.279-2.971,2.906,2.906,0,0,0-.566-2.248c-.775-1.043-1.61-.849-2.495.567a7.5,7.5,0,0,0-.771,1.723,14.33,14.33,0,0,0-.477,2.485l-2.411-.546A13.71,13.71,0,0,1,2360.177,7702.857Z"/>
      </g>
    </g>
    <g id="Grupo_9403" data-name="Grupo 9403">
      <g id="Grupo_9389" data-name="Grupo 9389">
        <path id="Trazado_9721" data-name="Trazado 9721" d="M2013.363,7456.4l-.685,13.384,7.123.374-.081,1.581-9-.472.766-14.965Z"/>
      </g>
      <g id="Grupo_9390" data-name="Grupo 9390">
        <path id="Trazado_9722" data-name="Trazado 9722" d="M2032.082,7465.988l-.055,1.078-8.345-.437a4.233,4.233,0,0,0,.925,3.047,3.9,3.9,0,0,0,2.822,1.175,10.441,10.441,0,0,0,3.91-.552l-.077,1.518a10.329,10.329,0,0,1-1.87.461,11.47,11.47,0,0,1-2.1.061,5.863,5.863,0,0,1-4.162-1.74,5.629,5.629,0,0,1-1.33-4.285,6.192,6.192,0,0,1,1.658-4.237,4.984,4.984,0,0,1,3.953-1.4,4.758,4.758,0,0,1,3.531,1.581A5.053,5.053,0,0,1,2032.082,7465.988Zm-8.284-.74,6.333.332a3.572,3.572,0,0,0-.647-2.5,2.83,2.83,0,0,0-2.166-.969,3.093,3.093,0,0,0-2.371.758,3.922,3.922,0,0,0-1.149,2.381"/>
      </g>
      <g id="Grupo_9391" data-name="Grupo 9391">
        <path id="Trazado_9723" data-name="Trazado 9723" d="M2039.2,7461.3a10.466,10.466,0,0,1,3.78.937l-.718,1.349a9.319,9.319,0,0,0-3.27-.864,4.044,4.044,0,0,0-1.986.274,1.161,1.161,0,0,0-.718,1.007,1.173,1.173,0,0,0,.212.777,2.413,2.413,0,0,0,.768.652,19.168,19.168,0,0,0,2.078.938,8.064,8.064,0,0,1,2.835,1.617,2.49,2.49,0,0,1,.669,1.89,2.742,2.742,0,0,1-1.39,2.35,6.253,6.253,0,0,1-3.574.668,8.306,8.306,0,0,1-3.727-.907l.08-1.571a9.69,9.69,0,0,0,1.845.736,8.134,8.134,0,0,0,1.919.334,4.648,4.648,0,0,0,2.231-.306,1.4,1.4,0,0,0,.277-2.408,10.07,10.07,0,0,0-2.334-1.221,12.874,12.874,0,0,1-2.345-1.15,3.053,3.053,0,0,1-1.01-1.035,2.42,2.42,0,0,1-.283-1.339,2.46,2.46,0,0,1,1.315-2.1A5.937,5.937,0,0,1,2039.2,7461.3Z"/>
      </g>
      <g id="Grupo_9392" data-name="Grupo 9392">
        <path id="Trazado_9724" data-name="Trazado 9724" d="M2045.678,7473.1l.574-11.219,1.832.1-.574,11.219Z"/>
      </g>
      <g id="Grupo_9393" data-name="Grupo 9393">
        <path id="Trazado_9725" data-name="Trazado 9725" d="M2046.517,7459.7a1.109,1.109,0,0,1-.271-.87,1.069,1.069,0,0,1,.358-.837,1.108,1.108,0,0,1,.787-.238,1.161,1.161,0,0,1,.749.319,1.066,1.066,0,0,1,.28.87,1.085,1.085,0,0,1-.367.837,1.2,1.2,0,0,1-1.536-.081Z"/>
      </g>
      <g id="Grupo_9394" data-name="Grupo 9394">
        <path id="Trazado_9726" data-name="Trazado 9726" d="M2060.859,7464.011a6.83,6.83,0,0,1-.436,8.515,5.463,5.463,0,0,1-4.193,1.33,5.88,5.88,0,0,1-2.855-.862,4.82,4.82,0,0,1-1.837-2.131,6.6,6.6,0,0,1-.524-3.126,5.869,5.869,0,0,1,1.7-4.189,5.419,5.419,0,0,1,4.184-1.321A5.314,5.314,0,0,1,2060.859,7464.011Zm-1.722,7.439a5.01,5.01,0,0,0,1.1-3.23,4.95,4.95,0,0,0-.768-3.292,3.4,3.4,0,0,0-2.7-1.258,3.358,3.358,0,0,0-2.778.953,4.975,4.975,0,0,0-1.083,3.213,5.052,5.052,0,0,0,.766,3.328,3.889,3.889,0,0,0,5.462.286"/>
      </g>
      <g id="Grupo_9395" data-name="Grupo 9395">
        <path id="Trazado_9727" data-name="Trazado 9727" d="M2071.368,7462.985a4.879,4.879,0,0,1,3.246,1.152,3.991,3.991,0,0,1,.945,3.184l-.375,7.321-1.832-.1.372-7.258a2.8,2.8,0,0,0-.569-2.084,2.9,2.9,0,0,0-2.077-.784,3.62,3.62,0,0,0-2.833.806,4.539,4.539,0,0,0-1.05,3.1l-.3,5.883-1.833-.1.575-11.219,1.491.078.227,1.552.081,0a3.681,3.681,0,0,1,1.646-1.2A5.486,5.486,0,0,1,2071.368,7462.985Z"/>
      </g>
      <g id="Grupo_9396" data-name="Grupo 9396">
        <path id="Trazado_9728" data-name="Trazado 9728" d="M2088.85,7468.963l-.056,1.078-8.344-.437a4.234,4.234,0,0,0,.925,3.047,3.882,3.882,0,0,0,2.822,1.175,10.488,10.488,0,0,0,3.91-.552l-.078,1.519a10.638,10.638,0,0,1-1.87.46,11.454,11.454,0,0,1-2.1.061,5.847,5.847,0,0,1-4.162-1.74,5.627,5.627,0,0,1-1.339-4.286,6.2,6.2,0,0,1,1.666-4.236,4.988,4.988,0,0,1,3.954-1.4,4.756,4.756,0,0,1,3.53,1.581A5.1,5.1,0,0,1,2088.85,7468.963Zm-8.284-.74,6.332.332a3.568,3.568,0,0,0-.646-2.5,2.833,2.833,0,0,0-2.166-.969,3.08,3.08,0,0,0-2.372.758,3.827,3.827,0,0,0-1.148,2.381"/>
      </g>
      <g id="Grupo_9397" data-name="Grupo 9397">
        <path id="Trazado_9729" data-name="Trazado 9729" d="M2095.961,7464.274a10.5,10.5,0,0,1,3.789.937l-.726,1.349a9.283,9.283,0,0,0-3.262-.864,4.05,4.05,0,0,0-1.986.274,1.149,1.149,0,0,0-.718,1.007,1.173,1.173,0,0,0,.213.777,2.4,2.4,0,0,0,.767.652,18.406,18.406,0,0,0,2.078.938,8.045,8.045,0,0,1,2.835,1.617,2.48,2.48,0,0,1,.66,1.89,2.734,2.734,0,0,1-1.381,2.35,6.283,6.283,0,0,1-3.583.668,8.281,8.281,0,0,1-3.718-.906l.08-1.572a9.457,9.457,0,0,0,1.845.736,8.081,8.081,0,0,0,1.91.334,4.609,4.609,0,0,0,2.232-.306,1.409,1.409,0,0,0,.285-2.408,10.011,10.011,0,0,0-2.333-1.221,12.722,12.722,0,0,1-2.355-1.151,3.227,3.227,0,0,1-1.01-1.034,2.406,2.406,0,0,1-.273-1.339,2.44,2.44,0,0,1,1.314-2.1A5.93,5.93,0,0,1,2095.961,7464.274Z"/>
      </g>
      <g id="Grupo_9398" data-name="Grupo 9398">
        <path id="Trazado_9730" data-name="Trazado 9730" d="M2030.889,7487.371l-.815,15.927-1.832-.1.815-15.926Z"/>
      </g>
      <g id="Grupo_9399" data-name="Grupo 9399">
        <path id="Trazado_9731" data-name="Trazado 9731" d="M2043.855,7497.625l-.055,1.078-8.344-.438a4.239,4.239,0,0,0,.924,3.057,3.907,3.907,0,0,0,2.831,1.175,10.46,10.46,0,0,0,3.9-.552l-.078,1.509a9.68,9.68,0,0,1-1.87.461,10.877,10.877,0,0,1-2.1.061,5.824,5.824,0,0,1-4.162-1.741,5.609,5.609,0,0,1-1.33-4.285,6.206,6.206,0,0,1,1.658-4.236,4.973,4.973,0,0,1,3.953-1.387,4.748,4.748,0,0,1,3.531,1.572A5.071,5.071,0,0,1,2043.855,7497.625Zm-8.284-.741,6.332.332a3.582,3.582,0,0,0-.646-2.5,2.853,2.853,0,0,0-2.166-.969,3.127,3.127,0,0,0-2.371.759,3.941,3.941,0,0,0-1.149,2.38"/>
      </g>
      <g id="Grupo_9400" data-name="Grupo 9400">
        <path id="Trazado_9732" data-name="Trazado 9732" d="M2056.624,7493.448l-5.173,10.97-2.147-.113-4.016-11.451,1.958.1,2.274,6.784a30.04,30.04,0,0,1,.878,3.081l.09.005a22.389,22.389,0,0,1,.887-2.205c.489-1.109,1.577-3.538,3.282-7.277Z"/>
      </g>
      <g id="Grupo_9401" data-name="Grupo 9401">
        <path id="Trazado_9733" data-name="Trazado 9733" d="M2067.883,7498.884l-.055,1.078-8.345-.438a4.329,4.329,0,0,0,.924,3.057,3.907,3.907,0,0,0,2.831,1.175,10.429,10.429,0,0,0,3.9-.552l-.077,1.509a9.691,9.691,0,0,1-1.861.461,10.931,10.931,0,0,1-2.111.061,5.791,5.791,0,0,1-4.153-1.74,5.615,5.615,0,0,1-1.338-4.285,6.208,6.208,0,0,1,1.657-4.237,4.981,4.981,0,0,1,3.962-1.386,4.76,4.76,0,0,1,3.531,1.572A5.1,5.1,0,0,1,2067.883,7498.884Zm-8.285-.741,6.333.332a3.539,3.539,0,0,0-.646-2.5,2.84,2.84,0,0,0-2.166-.97,3.15,3.15,0,0,0-2.372.759,3.943,3.943,0,0,0-1.149,2.38"/>
      </g>
      <g id="Grupo_9402" data-name="Grupo 9402">
        <path id="Trazado_9734" data-name="Trazado 9734" d="M2075,7494.2a10.339,10.339,0,0,1,3.789.937l-.727,1.349a9.332,9.332,0,0,0-3.27-.874,4.084,4.084,0,0,0-1.986.275,1.164,1.164,0,0,0-.718,1.007,1.248,1.248,0,0,0,.212.785,2.507,2.507,0,0,0,.768.644,18.809,18.809,0,0,0,2.087.938,8.4,8.4,0,0,1,2.835,1.617,2.5,2.5,0,0,1,.66,1.9,2.74,2.74,0,0,1-1.381,2.341,6.3,6.3,0,0,1-3.583.668,8.129,8.129,0,0,1-3.718-.906l.08-1.572a10.224,10.224,0,0,0,1.836.744,8.656,8.656,0,0,0,1.919.335,4.7,4.7,0,0,0,2.231-.306,1.4,1.4,0,0,0,.839-1.253,1.381,1.381,0,0,0-.554-1.155,9.763,9.763,0,0,0-2.341-1.231,13.636,13.636,0,0,1-2.346-1.14,3.161,3.161,0,0,1-1.01-1.044,2.409,2.409,0,0,1-.282-1.339,2.472,2.472,0,0,1,1.314-2.1A5.971,5.971,0,0,1,2075,7494.2Z"/>
      </g>
    </g>
    <g id="Grupo_9422" data-name="Grupo 9422">
      <g id="Grupo_9404" data-name="Grupo 9404">
        <path id="Trazado_9735" data-name="Trazado 9735" d="M2038.992,7557.584a7.025,7.025,0,0,1,1.816,5.518,7.225,7.225,0,0,1-2.463,5.545,8.99,8.99,0,0,1-6.343,1.64l-4.482-.235.766-14.965,4.949.259A8.332,8.332,0,0,1,2038.992,7557.584Zm-2.1,9.915a6.937,6.937,0,0,0,.565-8.932,6.665,6.665,0,0,0-4.639-1.739l-2.722-.142-.612,11.956,2.282.119a7.329,7.329,0,0,0,5.126-1.262"/>
      </g>
      <g id="Grupo_9405" data-name="Grupo 9405">
        <path id="Trazado_9736" data-name="Trazado 9736" d="M2052.04,7560.8a3.544,3.544,0,0,1,.9,2.9l-.392,7.662-1.356-.071-.278-1.617-.089,0a5.2,5.2,0,0,1-1.879,1.334,6.079,6.079,0,0,1-2.273.25,4.314,4.314,0,0,1-2.777-1,3.034,3.034,0,0,1-.9-2.506q.172-3.4,6.047-3.25l2.06.045.036-.692a2.713,2.713,0,0,0-.512-1.981,2.634,2.634,0,0,0-1.926-.732,8.464,8.464,0,0,0-3.475.674l-.5-1.332a9.467,9.467,0,0,1,2-.6,9.123,9.123,0,0,1,2.151-.148A4.806,4.806,0,0,1,2052.04,7560.8Zm-1.1,5.959.052-1.006-1.836-.033a7.125,7.125,0,0,0-3.185.472,1.855,1.855,0,0,0-1.059,1.683,1.72,1.72,0,0,0,.53,1.433,2.683,2.683,0,0,0,1.664.565,3.874,3.874,0,0,0,2.731-.731,3.059,3.059,0,0,0,1.1-2.383"/>
      </g>
      <g id="Grupo_9406" data-name="Grupo 9406">
        <path id="Trazado_9737" data-name="Trazado 9737" d="M2065.878,7561.587a3.994,3.994,0,0,1,.945,3.184l-.375,7.321-1.841-.1.372-7.258a2.789,2.789,0,0,0-.56-2.083,2.917,2.917,0,0,0-2.077-.785,3.616,3.616,0,0,0-2.833.807,4.52,4.52,0,0,0-1.05,3.1l-.3,5.884-1.833-.1.575-11.22,1.491.078.217,1.552.091,0a3.676,3.676,0,0,1,1.646-1.2,5.462,5.462,0,0,1,2.287-.34A4.833,4.833,0,0,1,2065.878,7561.587Z"/>
      </g>
      <g id="Grupo_9407" data-name="Grupo 9407">
        <path id="Trazado_9738" data-name="Trazado 9738" d="M2059.673,7558.065a2.159,2.159,0,0,0-.488.911l-1.078-.057a3.356,3.356,0,0,1,.872-1.9,2.117,2.117,0,0,1,1.68-.615,2.612,2.612,0,0,1,.969.24,6.971,6.971,0,0,1,.886.47c.28.168.551.317.805.456a1.784,1.784,0,0,0,.745.228,1.036,1.036,0,0,0,.824-.254,2.273,2.273,0,0,0,.478-.911l1.1.057a3.48,3.48,0,0,1-.871,1.891,2.115,2.115,0,0,1-1.7.614,2.361,2.361,0,0,1-.915-.238c-.3-.141-.589-.292-.868-.459s-.56-.327-.823-.467a1.835,1.835,0,0,0-.772-.229A1.049,1.049,0,0,0,2059.673,7558.065Z"/>
      </g>
      <g id="Grupo_9408" data-name="Grupo 9408">
        <path id="Trazado_9739" data-name="Trazado 9739" d="M2079.672,7562.9a6.829,6.829,0,0,1-.428,8.525,5.485,5.485,0,0,1-4.2,1.32,5.821,5.821,0,0,1-2.847-.852,4.842,4.842,0,0,1-1.845-2.132,6.694,6.694,0,0,1-.525-3.126,5.907,5.907,0,0,1,1.7-4.2,5.471,5.471,0,0,1,4.192-1.312A5.337,5.337,0,0,1,2079.672,7562.9Zm-1.723,7.448a4.979,4.979,0,0,0,1.1-3.23,4.916,4.916,0,0,0-.768-3.3,3.4,3.4,0,0,0-2.7-1.25,3.32,3.32,0,0,0-2.768.954,4.968,4.968,0,0,0-1.083,3.213,5.045,5.045,0,0,0,.757,3.327,3.886,3.886,0,0,0,5.461.286"/>
      </g>
      <g id="Grupo_9409" data-name="Grupo 9409">
        <path id="Trazado_9740" data-name="Trazado 9740" d="M1986.27,7588.372a3.55,3.55,0,0,1,.9,2.911l-.391,7.654-1.366-.072-.277-1.618-.09,0a4.848,4.848,0,0,1-1.878,1.333,5.848,5.848,0,0,1-2.265.26,4.267,4.267,0,0,1-2.785-1.011,3.005,3.005,0,0,1-.89-2.5c.115-2.264,2.125-3.347,6.047-3.259l2.051.053.036-.7a2.687,2.687,0,0,0-.511-1.981,2.62,2.62,0,0,0-1.926-.732,8.423,8.423,0,0,0-3.466.683l-.5-1.332a9.229,9.229,0,0,1,4.146-.747A4.863,4.863,0,0,1,1986.27,7588.372Zm-1.089,5.968.052-1.015-1.845-.024a7.136,7.136,0,0,0-3.185.463,1.853,1.853,0,0,0-1.05,1.683,1.677,1.677,0,0,0,.53,1.433,2.6,2.6,0,0,0,1.655.573,3.946,3.946,0,0,0,2.739-.73,3.116,3.116,0,0,0,1.1-2.383"/>
      </g>
      <g id="Grupo_9410" data-name="Grupo 9410">
        <path id="Trazado_9741" data-name="Trazado 9741" d="M1999.086,7583.612l-.815,15.926-1.833-.1.815-15.927Z"/>
      </g>
      <g id="Grupo_9411" data-name="Grupo 9411">
        <path id="Trazado_9742" data-name="Trazado 9742" d="M2010.459,7589.64a3.579,3.579,0,0,1,.9,2.911l-.392,7.653-1.356-.071-.287-1.618-.09-.005a4.853,4.853,0,0,1-1.878,1.334,5.85,5.85,0,0,1-2.265.259,4.243,4.243,0,0,1-2.777-1.01,3.015,3.015,0,0,1-.9-2.5q.174-3.4,6.048-3.259l2.059.054.036-.7a2.731,2.731,0,0,0-.511-1.981,2.659,2.659,0,0,0-1.935-.732,8.485,8.485,0,0,0-3.466.683l-.5-1.332a9.233,9.233,0,0,1,2-.606,9.034,9.034,0,0,1,2.151-.14A4.888,4.888,0,0,1,2010.459,7589.64Zm-1.1,5.968.052-1.015-1.836-.025a7.066,7.066,0,0,0-3.185.464,1.859,1.859,0,0,0-1.059,1.683,1.677,1.677,0,0,0,.53,1.433,2.635,2.635,0,0,0,1.664.573,3.912,3.912,0,0,0,2.73-.73,3.084,3.084,0,0,0,1.1-2.383"/>
      </g>
      <g id="Grupo_9412" data-name="Grupo 9412">
        <path id="Trazado_9743" data-name="Trazado 9743" d="M2030.476,7591.3a6.371,6.371,0,0,1,1.092,4.354,6.3,6.3,0,0,1-1.549,4.215,4.639,4.639,0,0,1-3.779,1.342,5.644,5.644,0,0,1-2.135-.517,4.013,4.013,0,0,1-1.58-1.335l-.126-.007a15.241,15.241,0,0,1,.03,1.875l-.236,4.617-1.832-.1.832-16.259,1.491.079.173,1.549.089,0a4.3,4.3,0,0,1,1.721-1.243,5.368,5.368,0,0,1,2.168-.292A4.643,4.643,0,0,1,2030.476,7591.3Zm-1.857,7.423a5.249,5.249,0,0,0,1.055-3.2,5.085,5.085,0,0,0-.725-3.262,3.025,3.025,0,0,0-2.448-1.254,3.411,3.411,0,0,0-2.735.811,4.685,4.685,0,0,0-1.008,2.982l-.02.387a5.29,5.29,0,0,0,.681,3.422,3.355,3.355,0,0,0,2.678,1.167,2.91,2.91,0,0,0,2.522-1.057"/>
      </g>
      <g id="Grupo_9413" data-name="Grupo 9413">
        <path id="Trazado_9744" data-name="Trazado 9744" d="M2040.6,7590.309a7.782,7.782,0,0,1,1.44.193l-.333,1.568a6.3,6.3,0,0,0-1.321-.223,3.346,3.346,0,0,0-2.572.973,3.868,3.868,0,0,0-1.183,2.694l-.308,6.019-1.832-.1.574-11.22,1.509.079.109,2.1.09,0a5.046,5.046,0,0,1,1.7-1.6A3.894,3.894,0,0,1,2040.6,7590.309Z"/>
      </g>
      <g id="Grupo_9414" data-name="Grupo 9414">
        <path id="Trazado_9745" data-name="Trazado 9745" d="M2053.18,7592.536a6.818,6.818,0,0,1-.426,8.516,5.456,5.456,0,0,1-4.2,1.329,5.726,5.726,0,0,1-2.847-.861,4.772,4.772,0,0,1-1.846-2.123,6.617,6.617,0,0,1-.524-3.126,5.891,5.891,0,0,1,1.7-4.2,5.43,5.43,0,0,1,4.184-1.312A5.342,5.342,0,0,1,2053.18,7592.536Zm-1.723,7.448a5.02,5.02,0,0,0,1.1-3.229,4.949,4.949,0,0,0-.767-3.3,3.945,3.945,0,0,0-5.47-.305,6.276,6.276,0,0,0-.325,6.54,3.875,3.875,0,0,0,5.46.295"/>
      </g>
      <g id="Grupo_9415" data-name="Grupo 9415">
        <path id="Trazado_9746" data-name="Trazado 9746" d="M2067.249,7593.228a6.413,6.413,0,0,1,1.092,4.354,6.293,6.293,0,0,1-1.558,4.214,4.619,4.619,0,0,1-3.77,1.343,5.571,5.571,0,0,1-2.135-.517,3.96,3.96,0,0,1-1.58-1.335l-.134-.007a13.714,13.714,0,0,1,.038,1.875l-.236,4.618-1.832-.1.832-16.258,1.491.078.173,1.549.09,0a4.2,4.2,0,0,1,1.711-1.244,5.447,5.447,0,0,1,2.177-.291A4.64,4.64,0,0,1,2067.249,7593.228Zm-1.866,7.423a5.251,5.251,0,0,0,1.055-3.2,5.086,5.086,0,0,0-.725-3.262,3.029,3.029,0,0,0-2.448-1.255,3.4,3.4,0,0,0-2.726.812,4.585,4.585,0,0,0-1.008,2.983l-.02.386a5.237,5.237,0,0,0,.681,3.422,3.349,3.349,0,0,0,2.669,1.167,2.9,2.9,0,0,0,2.522-1.057"/>
      </g>
      <g id="Grupo_9416" data-name="Grupo 9416">
        <path id="Trazado_9747" data-name="Trazado 9747" d="M2071.251,7603.364l.574-11.22,1.832.1-.574,11.219Z"/>
      </g>
      <g id="Grupo_9417" data-name="Grupo 9417">
        <path id="Trazado_9748" data-name="Trazado 9748" d="M2072.857,7590.289a1.194,1.194,0,0,1-.68-2.026,1.145,1.145,0,0,1,.795-.229,1.127,1.127,0,0,1,.741.309,1.289,1.289,0,0,1-.087,1.707A1.089,1.089,0,0,1,2072.857,7590.289Z"/>
      </g>
      <g id="Grupo_9418" data-name="Grupo 9418">
        <path id="Trazado_9749" data-name="Trazado 9749" d="M2086.874,7597.787l-.055,1.078-8.344-.437a4.26,4.26,0,0,0,.924,3.057,3.9,3.9,0,0,0,2.822,1.174,10.316,10.316,0,0,0,3.91-.56l-.077,1.518a10.593,10.593,0,0,1-1.87.46,10.738,10.738,0,0,1-2.1.061,5.809,5.809,0,0,1-4.162-1.74,5.615,5.615,0,0,1-1.339-4.285,6.216,6.216,0,0,1,1.667-4.236,4.972,4.972,0,0,1,3.953-1.387,4.742,4.742,0,0,1,3.531,1.572A5.1,5.1,0,0,1,2086.874,7597.787Zm-8.284-.74,6.333.332a3.582,3.582,0,0,0-.647-2.5,2.862,2.862,0,0,0-2.166-.969,3.117,3.117,0,0,0-2.371.758,3.847,3.847,0,0,0-1.149,2.381"/>
      </g>
      <g id="Grupo_9419" data-name="Grupo 9419">
        <path id="Trazado_9750" data-name="Trazado 9750" d="M2098.627,7588.829l1.832.1-.815,15.927-1.491-.079-.166-1.512-.1-.006a4.444,4.444,0,0,1-3.887,1.508,4.658,4.658,0,0,1-3.614-1.7,6.278,6.278,0,0,1-1.1-4.345,6.409,6.409,0,0,1,1.541-4.242,4.653,4.653,0,0,1,3.769-1.334,4.555,4.555,0,0,1,3.7,1.851l.144.008-.039-.813,0-.793Zm-.548,10.707.018-.359a5.358,5.358,0,0,0-.679-3.449,3.413,3.413,0,0,0-2.688-1.159,2.87,2.87,0,0,0-2.52,1.03,5.418,5.418,0,0,0-1.03,3.234,5.27,5.27,0,0,0,.687,3.3,2.987,2.987,0,0,0,2.441,1.227,3.5,3.5,0,0,0,2.77-.81,4.514,4.514,0,0,0,1-3.01"/>
      </g>
      <g id="Grupo_9420" data-name="Grupo 9420">
        <path id="Trazado_9751" data-name="Trazado 9751" d="M2111.832,7594.952a3.555,3.555,0,0,1,.905,2.912l-.392,7.653-1.366-.071-.277-1.618-.09,0a4.856,4.856,0,0,1-1.878,1.334,5.849,5.849,0,0,1-2.265.259,4.268,4.268,0,0,1-2.785-1.01,3.015,3.015,0,0,1-.9-2.5q.174-3.4,6.058-3.259l2.05.054.036-.7a2.69,2.69,0,0,0-.511-1.981,2.624,2.624,0,0,0-1.926-.731,8.462,8.462,0,0,0-3.475.682l-.49-1.332a9.2,9.2,0,0,1,4.145-.746A4.863,4.863,0,0,1,2111.832,7594.952Zm-1.1,5.968.052-1.015-1.836-.024a7.127,7.127,0,0,0-3.185.464,1.858,1.858,0,0,0-1.059,1.682,1.7,1.7,0,0,0,.53,1.433,2.647,2.647,0,0,0,1.664.574,3.951,3.951,0,0,0,2.739-.73,3.112,3.112,0,0,0,1.095-2.384"/>
      </g>
      <g id="Grupo_9421" data-name="Grupo 9421">
        <path id="Trazado_9752" data-name="Trazado 9752" d="M2125.079,7590.215l1.833.1-.816,15.927-1.49-.078-.166-1.513-.1,0a4.466,4.466,0,0,1-3.887,1.507,4.666,4.666,0,0,1-3.624-1.7,6.275,6.275,0,0,1-1.1-4.345,6.375,6.375,0,0,1,1.55-4.242,4.629,4.629,0,0,1,3.77-1.333,4.529,4.529,0,0,1,3.688,1.85l.144.008-.031-.813,0-.792Zm-.548,10.708.019-.36a5.378,5.378,0,0,0-.679-3.449,3.428,3.428,0,0,0-2.688-1.158,2.885,2.885,0,0,0-2.529,1.029,5.477,5.477,0,0,0-1.021,3.234,5.2,5.2,0,0,0,.687,3.3,2.971,2.971,0,0,0,2.44,1.227,3.5,3.5,0,0,0,2.771-.809,4.567,4.567,0,0,0,1-3.01"/>
      </g>
    </g>
    <g id="Grupo_9434" data-name="Grupo 9434">
      <g id="Grupo_9423" data-name="Grupo 9423">
        <path id="Trazado_9753" data-name="Trazado 9753" d="M1994.754,7675.531l-.766,14.965-1.878-.1.766-14.965Z"/>
      </g>
      <g id="Grupo_9424" data-name="Grupo 9424">
        <path id="Trazado_9754" data-name="Trazado 9754" d="M2004.453,7679.588a4.894,4.894,0,0,1,3.246,1.151,4,4,0,0,1,.945,3.184l-.375,7.321-1.841-.1.371-7.258a2.794,2.794,0,0,0-.568-2.084,2.887,2.887,0,0,0-2.077-.784,3.636,3.636,0,0,0-2.833.806,4.58,4.58,0,0,0-1.041,3.1l-.3,5.884-1.833-.1.575-11.22,1.49.078.219,1.552.089,0a3.638,3.638,0,0,1,1.647-1.2A5.432,5.432,0,0,1,2004.453,7679.588Z"/>
      </g>
      <g id="Grupo_9425" data-name="Grupo 9425">
        <path id="Trazado_9755" data-name="Trazado 9755" d="M2017.576,7680.275a8.936,8.936,0,0,1,1.742.272,6.457,6.457,0,0,1,1.345.476l-.64,1.416a8.759,8.759,0,0,0-1.3-.446,6.341,6.341,0,0,0-1.268-.211c-2.461-.129-3.757,1.262-3.906,4.164a4.9,4.9,0,0,0,.736,3.218,3.249,3.249,0,0,0,2.611,1.244,8.66,8.66,0,0,0,3.129-.439l-.077,1.509a7.075,7.075,0,0,1-3.083.424,5.426,5.426,0,0,1-4-1.714,5.909,5.909,0,0,1-1.219-4.324,6.033,6.033,0,0,1,1.687-4.271A5.488,5.488,0,0,1,2017.576,7680.275Z"/>
      </g>
      <g id="Grupo_9426" data-name="Grupo 9426">
        <path id="Trazado_9756" data-name="Trazado 9756" d="M2022.8,7692.006l.574-11.219,1.832.1-.574,11.22Z"/>
      </g>
      <g id="Grupo_9427" data-name="Grupo 9427">
        <path id="Trazado_9757" data-name="Trazado 9757" d="M2023.641,7678.612a1.105,1.105,0,0,1-.262-.87,1.067,1.067,0,0,1,.35-.837,1.112,1.112,0,0,1,.8-.238,1.144,1.144,0,0,1,.741.318,1.291,1.291,0,0,1-.088,1.707,1.089,1.089,0,0,1-.768.239A1.115,1.115,0,0,1,2023.641,7678.612Z"/>
      </g>
      <g id="Grupo_9428" data-name="Grupo 9428">
        <path id="Trazado_9758" data-name="Trazado 9758" d="M2037.486,7676.806l1.833.1-.816,15.927-1.491-.078-.165-1.522-.1,0a4.428,4.428,0,0,1-3.887,1.516,4.663,4.663,0,0,1-3.623-1.7,6.291,6.291,0,0,1-1.1-4.345,6.41,6.41,0,0,1,1.55-4.242,4.607,4.607,0,0,1,3.77-1.342,4.536,4.536,0,0,1,3.688,1.859l.143.008-.03-.813,0-.792Zm-.548,10.708.019-.36a5.375,5.375,0,0,0-.679-3.449,3.4,3.4,0,0,0-2.688-1.158,2.888,2.888,0,0,0-2.53,1.029,5.481,5.481,0,0,0-1.021,3.234,5.167,5.167,0,0,0,.688,3.287,2.948,2.948,0,0,0,2.44,1.227,3.494,3.494,0,0,0,2.77-.8,4.556,4.556,0,0,0,1-3.01"/>
      </g>
      <g id="Grupo_9429" data-name="Grupo 9429">
        <path id="Trazado_9759" data-name="Trazado 9759" d="M2052.285,7687.156l-.055,1.078-8.336-.437a4.275,4.275,0,0,0,.916,3.048,3.911,3.911,0,0,0,2.831,1.175,10.457,10.457,0,0,0,3.9-.552l-.078,1.518a10.572,10.572,0,0,1-1.86.461,11.7,11.7,0,0,1-2.111.06,5.827,5.827,0,0,1-4.153-1.74,5.628,5.628,0,0,1-1.339-4.285,6.14,6.14,0,0,1,1.667-4.236,4.965,4.965,0,0,1,3.953-1.4,4.767,4.767,0,0,1,3.531,1.581A5.083,5.083,0,0,1,2052.285,7687.156Zm-8.284-.74,6.332.332a3.525,3.525,0,0,0-.646-2.5,2.8,2.8,0,0,0-2.166-.969,3.108,3.108,0,0,0-2.371.758,3.917,3.917,0,0,0-1.149,2.381"/>
      </g>
      <g id="Grupo_9430" data-name="Grupo 9430">
        <path id="Trazado_9760" data-name="Trazado 9760" d="M2061.391,7682.572a4.873,4.873,0,0,1,3.246,1.151,4,4,0,0,1,.945,3.184l-.375,7.321-1.832-.1.372-7.258a2.8,2.8,0,0,0-.569-2.083,2.9,2.9,0,0,0-2.077-.785,3.619,3.619,0,0,0-2.833.807,4.536,4.536,0,0,0-1.05,3.1l-.3,5.884-1.833-.1.575-11.22,1.491.078.227,1.553.081,0a3.686,3.686,0,0,1,1.646-1.2A5.468,5.468,0,0,1,2061.391,7682.572Z"/>
      </g>
      <g id="Grupo_9431" data-name="Grupo 9431">
        <path id="Trazado_9761" data-name="Trazado 9761" d="M2071.645,7680.713l-.133,2.6,3.512.184-.067,1.321-3.512-.184-.338,6.6a2.18,2.18,0,0,0,.441,1.581,1.9,1.9,0,0,0,1.4.614,6.206,6.206,0,0,0,.937-.014,7.117,7.117,0,0,0,.726-.1l-.067,1.294a3.649,3.649,0,0,1-.882.179,7.966,7.966,0,0,1-1.056.034c-2.335-.122-3.453-1.334-3.336-3.615l.342-6.674-1.734-.091.041-.818,1.771-.618.894-2.349Z"/>
      </g>
      <g id="Grupo_9432" data-name="Grupo 9432">
        <path id="Trazado_9762" data-name="Trazado 9762" d="M2086.858,7688.968l-.055,1.078-8.345-.437a4.234,4.234,0,0,0,.925,3.047,3.9,3.9,0,0,0,2.831,1.176,10.443,10.443,0,0,0,3.9-.553l-.078,1.519a10.385,10.385,0,0,1-1.87.46,11.468,11.468,0,0,1-2.1.061,5.865,5.865,0,0,1-4.162-1.74,5.624,5.624,0,0,1-1.329-4.285,6.175,6.175,0,0,1,1.657-4.237,4.986,4.986,0,0,1,3.953-1.4,4.758,4.758,0,0,1,3.531,1.581A5.058,5.058,0,0,1,2086.858,7688.968Zm-8.285-.74,6.333.332a3.57,3.57,0,0,0-.646-2.5,2.835,2.835,0,0,0-2.166-.969,3.1,3.1,0,0,0-2.372.758,3.923,3.923,0,0,0-1.149,2.381"/>
      </g>
      <g id="Grupo_9433" data-name="Grupo 9433">
        <path id="Trazado_9763" data-name="Trazado 9763" d="M2093.978,7684.279a10.461,10.461,0,0,1,3.78.937l-.718,1.35a9.291,9.291,0,0,0-3.27-.865,4.045,4.045,0,0,0-1.986.274,1.2,1.2,0,0,0-.5,1.784,2.4,2.4,0,0,0,.768.652,19.12,19.12,0,0,0,2.077.938,8.057,8.057,0,0,1,2.835,1.617,2.491,2.491,0,0,1,.669,1.89,2.74,2.74,0,0,1-1.39,2.35,6.252,6.252,0,0,1-3.574.668,8.248,8.248,0,0,1-3.718-.906l.081-1.581a8.862,8.862,0,0,0,1.835.745,8.133,8.133,0,0,0,1.919.334,4.652,4.652,0,0,0,2.232-.306,1.4,1.4,0,0,0,.276-2.408,10.057,10.057,0,0,0-2.333-1.221,12.852,12.852,0,0,1-2.346-1.15,2.986,2.986,0,0,1-1.009-1.044,2.4,2.4,0,0,1-.283-1.33,2.459,2.459,0,0,1,1.314-2.1A5.945,5.945,0,0,1,2093.978,7684.279Z"/>
      </g>
    </g>
    <g id="Grupo_9449" data-name="Grupo 9449">
      <g id="Grupo_9435" data-name="Grupo 9435">
        <path id="Trazado_9764" data-name="Trazado 9764" d="M1975.318,7774.309a9.142,9.142,0,0,1-.578,11.3,7.173,7.173,0,0,1-5.557,1.772,7.275,7.275,0,0,1-5.4-2.31,7.929,7.929,0,0,1-1.648-5.806,7.849,7.849,0,0,1,2.23-5.566,7.33,7.33,0,0,1,5.627-1.723A7.171,7.171,0,0,1,1975.318,7774.309Zm-1.926,10.194a8.42,8.42,0,0,0,.48-9.2,5.092,5.092,0,0,0-3.963-1.766,5.178,5.178,0,0,0-4.158,1.349,8.229,8.229,0,0,0-.469,9.181,6.04,6.04,0,0,0,8.11.434"/>
      </g>
      <g id="Grupo_9436" data-name="Grupo 9436">
        <path id="Trazado_9765" data-name="Trazado 9765" d="M1989.774,7778.336a7.6,7.6,0,0,1-.447,8.569,4.654,4.654,0,0,1-3.77,1.334,5.658,5.658,0,0,1-2.144-.518,4.129,4.129,0,0,1-1.58-1.326l-.126-.006-.459,1.417-1.321-.07.815-15.917,1.832.1-.2,3.863c-.044.871-.111,1.642-.2,2.331l.081,0a4.5,4.5,0,0,1,3.894-1.48A4.663,4.663,0,0,1,1989.774,7778.336Zm-1.8,7.463a5.529,5.529,0,0,0,1-3.244,5.3,5.3,0,0,0-.668-3.305,3.022,3.022,0,0,0-2.505-1.212,3.328,3.328,0,0,0-2.755.864,7.156,7.156,0,0,0-.327,6.739,3.371,3.371,0,0,0,2.678,1.167,2.918,2.918,0,0,0,2.574-1.009"/>
      </g>
      <g id="Grupo_9437" data-name="Grupo 9437">
        <path id="Trazado_9766" data-name="Trazado 9766" d="M1998.116,7777.242a10.241,10.241,0,0,1,3.78.937l-.718,1.349a9.377,9.377,0,0,0-3.269-.874,4.073,4.073,0,0,0-1.986.274,1.168,1.168,0,0,0-.719,1.017,1.184,1.184,0,0,0,.213.776,2.417,2.417,0,0,0,.768.644,19.163,19.163,0,0,0,2.078.938,8.222,8.222,0,0,1,2.835,1.616,2.518,2.518,0,0,1,.668,1.9,2.727,2.727,0,0,1-1.389,2.341,6.182,6.182,0,0,1-3.574.668,8.191,8.191,0,0,1-3.727-.907l.08-1.572a10.286,10.286,0,0,0,1.845.745,8.615,8.615,0,0,0,1.918.335,4.764,4.764,0,0,0,2.232-.306,1.4,1.4,0,0,0,.838-1.253,1.365,1.365,0,0,0-.562-1.156,9.709,9.709,0,0,0-2.333-1.23,13.71,13.71,0,0,1-2.346-1.14,3.087,3.087,0,0,1-1.009-1.044,2.419,2.419,0,0,1-.283-1.339,2.455,2.455,0,0,1,1.315-2.1A5.943,5.943,0,0,1,1998.116,7777.242Z"/>
      </g>
      <g id="Grupo_9438" data-name="Grupo 9438">
        <path id="Trazado_9767" data-name="Trazado 9767" d="M2014.484,7783.153l-.055,1.078-8.344-.438a4.24,4.24,0,0,0,.924,3.057,3.9,3.9,0,0,0,2.822,1.175,10.48,10.48,0,0,0,3.91-.552l-.077,1.509a9.658,9.658,0,0,1-1.87.461,10.888,10.888,0,0,1-2.1.061,5.824,5.824,0,0,1-4.162-1.741,5.609,5.609,0,0,1-1.329-4.285,6.168,6.168,0,0,1,1.657-4.227,4.949,4.949,0,0,1,3.953-1.4,4.753,4.753,0,0,1,3.532,1.572A5.071,5.071,0,0,1,2014.484,7783.153Zm-8.284-.741,6.333.332a3.586,3.586,0,0,0-.646-2.5,2.865,2.865,0,0,0-2.167-.969,3.115,3.115,0,0,0-2.371.759,3.89,3.89,0,0,0-1.149,2.38"/>
      </g>
      <g id="Grupo_9439" data-name="Grupo 9439">
        <path id="Trazado_9768" data-name="Trazado 9768" d="M2036.487,7779.46l-5.173,10.97-2.147-.113-4.016-11.451,1.967.1,2.265,6.784a30.307,30.307,0,0,1,.878,3.081l.09,0a22.7,22.7,0,0,1,.887-2.205c.489-1.11,1.577-3.538,3.282-7.277Z"/>
      </g>
      <g id="Grupo_9440" data-name="Grupo 9440">
        <path id="Trazado_9769" data-name="Trazado 9769" d="M2023.392,7778.567a7.913,7.913,0,0,1,1.44.192l-.332,1.568a7.018,7.018,0,0,0-1.322-.222,3.342,3.342,0,0,0-2.571.973,3.864,3.864,0,0,0-1.183,2.694l-.308,6.018-1.832-.1.574-11.21,1.509.079.109,2.086.09,0a5.125,5.125,0,0,1,1.7-1.6A3.884,3.884,0,0,1,2023.392,7778.567Z"/>
      </g>
      <g id="Grupo_9441" data-name="Grupo 9441">
        <path id="Trazado_9770" data-name="Trazado 9770" d="M2046.152,7780.669a3.552,3.552,0,0,1,.9,2.911l-.392,7.654-1.356-.072-.278-1.608-.089-.005a5.2,5.2,0,0,1-1.879,1.334,6.059,6.059,0,0,1-2.273.25,4.265,4.265,0,0,1-2.776-1.01,3.006,3.006,0,0,1-.9-2.5q.174-3.4,6.048-3.25l2.06.045.036-.7a2.731,2.731,0,0,0-.511-1.981,2.682,2.682,0,0,0-1.926-.732,8.494,8.494,0,0,0-3.475.683l-.491-1.332a9.245,9.245,0,0,1,1.994-.6,9.15,9.15,0,0,1,2.151-.148A4.864,4.864,0,0,1,2046.152,7780.669Zm-1.1,5.968.052-1.015-1.836-.024a7.126,7.126,0,0,0-3.184.464,1.866,1.866,0,0,0-1.059,1.682,1.692,1.692,0,0,0,.53,1.433,2.645,2.645,0,0,0,1.664.574,3.868,3.868,0,0,0,2.73-.731,3.069,3.069,0,0,0,1.1-2.383"/>
      </g>
      <g id="Grupo_9442" data-name="Grupo 9442">
        <path id="Trazado_9771" data-name="Trazado 9771" d="M2055.98,7780.275a8.9,8.9,0,0,1,1.742.262,5.93,5.93,0,0,1,1.345.485l-.631,1.408a10.531,10.531,0,0,0-1.31-.438,6.49,6.49,0,0,0-1.268-.22q-3.678-.192-3.906,4.173a4.919,4.919,0,0,0,.736,3.218,3.253,3.253,0,0,0,2.611,1.245,8.977,8.977,0,0,0,3.138-.439l-.076,1.5a7.147,7.147,0,0,1-3.093.423,5.407,5.407,0,0,1-3.992-1.713,5.886,5.886,0,0,1-1.229-4.316,6.038,6.038,0,0,1,1.686-4.271A5.488,5.488,0,0,1,2055.98,7780.275Z"/>
      </g>
      <g id="Grupo_9443" data-name="Grupo 9443">
        <path id="Trazado_9772" data-name="Trazado 9772" d="M2061.207,7792l.574-11.21,1.842.1-.574,11.21Z"/>
      </g>
      <g id="Grupo_9444" data-name="Grupo 9444">
        <path id="Trazado_9773" data-name="Trazado 9773" d="M2062.054,7778.6a1.092,1.092,0,0,1-.27-.869,1.077,1.077,0,0,1,.358-.837,1.215,1.215,0,0,1,1.535.089,1.072,1.072,0,0,1,.271.861,1.09,1.09,0,0,1-.358.837,1.14,1.14,0,0,1-.778.247A1.1,1.1,0,0,1,2062.054,7778.6Z"/>
      </g>
      <g id="Grupo_9445" data-name="Grupo 9445">
        <path id="Trazado_9774" data-name="Trazado 9774" d="M2076.388,7782.911a6.83,6.83,0,0,1-.427,8.525,5.487,5.487,0,0,1-4.2,1.32,5.771,5.771,0,0,1-2.847-.86,4.815,4.815,0,0,1-1.837-2.123,6.632,6.632,0,0,1-.533-3.127,5.9,5.9,0,0,1,1.7-4.2,5.482,5.482,0,0,1,4.192-1.311A5.335,5.335,0,0,1,2076.388,7782.911Zm-1.714,7.449a5.026,5.026,0,0,0,1.1-3.23,4.952,4.952,0,0,0-.768-3.3,3.435,3.435,0,0,0-2.7-1.259,3.355,3.355,0,0,0-2.778.954,6.276,6.276,0,0,0-.326,6.539,3.33,3.33,0,0,0,2.673,1.275,3.373,3.373,0,0,0,2.8-.979"/>
      </g>
      <g id="Grupo_9446" data-name="Grupo 9446">
        <path id="Trazado_9775" data-name="Trazado 9775" d="M2086.905,7781.9a4.855,4.855,0,0,1,3.247,1.152,3.974,3.974,0,0,1,.945,3.184l-.375,7.312-1.832-.1.372-7.258a2.791,2.791,0,0,0-.579-2.075,2.839,2.839,0,0,0-2.067-.793,3.638,3.638,0,0,0-2.833.806,4.549,4.549,0,0,0-1.05,3.1l-.3,5.884-1.833-.1.574-11.21,1.491.078.218,1.552.09,0a3.7,3.7,0,0,1,1.647-1.21A5.579,5.579,0,0,1,2086.905,7781.9Z"/>
      </g>
      <g id="Grupo_9447" data-name="Grupo 9447">
        <path id="Trazado_9776" data-name="Trazado 9776" d="M2104.378,7787.864l-.055,1.078-8.335-.437a4.243,4.243,0,0,0,.924,3.057,3.872,3.872,0,0,0,2.822,1.174,10.385,10.385,0,0,0,3.9-.552l-.077,1.509a9.674,9.674,0,0,1-1.861.461,10.8,10.8,0,0,1-2.1.061,5.8,5.8,0,0,1-4.162-1.74,5.612,5.612,0,0,1-1.339-4.286,6.175,6.175,0,0,1,1.667-4.226,4.933,4.933,0,0,1,3.953-1.4,4.76,4.76,0,0,1,3.531,1.572A5.1,5.1,0,0,1,2104.378,7787.864Zm-8.275-.74,6.324.331a3.541,3.541,0,0,0-.647-2.5,2.837,2.837,0,0,0-2.166-.97,3.148,3.148,0,0,0-2.371.759,3.886,3.886,0,0,0-1.14,2.381"/>
      </g>
      <g id="Grupo_9448" data-name="Grupo 9448">
        <path id="Trazado_9777" data-name="Trazado 9777" d="M2111.5,7783.184a10.331,10.331,0,0,1,3.788.937l-.726,1.349a9.337,9.337,0,0,0-3.27-.874,4.1,4.1,0,0,0-1.986.275,1.157,1.157,0,0,0-.71,1.016,1.231,1.231,0,0,0,.2.776,2.508,2.508,0,0,0,.768.644,18.754,18.754,0,0,0,2.087.938,8.23,8.23,0,0,1,2.835,1.617,2.5,2.5,0,0,1,.659,1.9,2.737,2.737,0,0,1-1.38,2.341,6.23,6.23,0,0,1-3.583.668,8.125,8.125,0,0,1-3.718-.906l.08-1.572a10.188,10.188,0,0,0,1.836.744,8.7,8.7,0,0,0,1.919.335,4.71,4.71,0,0,0,2.231-.306,1.4,1.4,0,0,0,.839-1.253,1.38,1.38,0,0,0-.554-1.155,9.8,9.8,0,0,0-2.332-1.23,13.554,13.554,0,0,1-2.356-1.141,3.164,3.164,0,0,1-1.009-1.044,2.422,2.422,0,0,1-.283-1.339,2.475,2.475,0,0,1,1.315-2.1A5.971,5.971,0,0,1,2111.5,7783.184Z"/>
      </g>
    </g>
  </g>
</svg>
