<svg xmlns="http://www.w3.org/2000/svg" width="289.502" height="289.502" viewBox="0 0 289.502 289.502">
  <g id="Grupo_9274" data-name="Grupo 9274" transform="translate(-480.293 -720.825)">
    <path id="Trazado_9498" data-name="Trazado 9498" d="M774.579,4628.018a144.751,144.751,0,1,1-144.751-144.75A144.752,144.752,0,0,1,774.579,4628.018Z" transform="translate(-4.784 -3762.442)" fill="#b2ddfb"/>
    <path id="Trazado_9499" data-name="Trazado 9499" d="M628.5,4521.867a104.82,104.82,0,1,0,104.82,104.82A104.819,104.819,0,0,0,628.5,4521.867Zm0,179.69a74.871,74.871,0,1,1,74.872-74.871A74.871,74.871,0,0,1,628.5,4701.557Z" transform="translate(-3.453 -3761.11)" fill="#464f5d"/>
    <path id="Trazado_9500" data-name="Trazado 9500" d="M623.594,4628.072l2.937-9.541,64.9,19.959-2.934,9.543Z" transform="translate(-0.007 -3757.778)" fill="#d12136"/>
    <path id="Trazado_9501" data-name="Trazado 9501" d="M635.319,4623.525a9.983,9.983,0,1,1-9.983-9.982A9.984,9.984,0,0,1,635.319,4623.525Z" transform="translate(-0.291 -3757.95)" fill="#9196a9"/>
    <g id="Grupo_9273" data-name="Grupo 9273" transform="translate(495.268 735.799)">
      <path id="Trazado_9502" data-name="Trazado 9502" d="M620.178,4497.743h9.983v14.974h-9.983Z" transform="translate(-495.394 -4497.743)" fill="#354468"/>
      <path id="Trazado_9503" data-name="Trazado 9503" d="M587.873,4503.354l9.645-2.583,3.875,14.461-9.642,2.586Z" transform="translate(-496.508 -4497.638)" fill="#354468"/>
      <path id="Trazado_9504" data-name="Trazado 9504" d="M558.1,4517.126l8.647-4.992,7.488,12.968-8.647,4.992Z" transform="translate(-497.534 -4497.246)" fill="#354468"/>
      <path id="Trazado_9505" data-name="Trazado 9505" d="M532.885,4538.132l7.058-7.057,10.589,10.588-7.058,7.058Z" transform="translate(-498.404 -4496.593)" fill="#354468"/>
      <path id="Trazado_9506" data-name="Trazado 9506" d="M513.945,4564.935l4.991-8.644,12.968,7.486-4.991,8.645Z" transform="translate(-499.057 -4495.724)" fill="#354468"/>
      <path id="Trazado_9507" data-name="Trazado 9507" d="M502.58,4595.7l2.583-9.641,14.465,3.877-2.586,9.641Z" transform="translate(-499.449 -4494.697)" fill="#354468"/>
      <path id="Trazado_9508" data-name="Trazado 9508" d="M499.553,4618.368h14.974v9.982H499.553Z" transform="translate(-499.553 -4493.583)" fill="#354468"/>
      <path id="Trazado_9509" data-name="Trazado 9509" d="M649.067,4515.232l3.875-14.465,9.641,2.584-3.875,14.464Z" transform="translate(-494.397 -4497.638)" fill="#354468"/>
      <path id="Trazado_9510" data-name="Trazado 9510" d="M676.311,4525.108l7.486-12.971,8.647,4.991-7.488,12.968Z" transform="translate(-493.458 -4497.246)" fill="#354468"/>
      <path id="Trazado_9511" data-name="Trazado 9511" d="M700.062,4541.664l10.587-10.588,7.061,7.06-10.59,10.586Z" transform="translate(-492.639 -4496.593)" fill="#354468"/>
      <path id="Trazado_9512" data-name="Trazado 9512" d="M718.7,4563.777l12.968-7.486,4.991,8.647-12.968,7.484Z" transform="translate(-491.997 -4495.724)" fill="#354468"/>
      <path id="Trazado_9513" data-name="Trazado 9513" d="M730.949,4589.938l14.464-3.877L748,4595.7l-14.465,3.875Z" transform="translate(-491.574 -4494.697)" fill="#354468"/>
      <path id="Trazado_9514" data-name="Trazado 9514" d="M735.979,4618.368h14.974v9.982H735.979Z" transform="translate(-491.401 -4493.583)" fill="#354468"/>
      <path id="Trazado_9515" data-name="Trazado 9515" d="M730.944,4656.894l2.586-9.641,14.462,3.878-2.586,9.641Z" transform="translate(-491.574 -4492.587)" fill="#354468"/>
    </g>
    <path id="Trazado_9516" data-name="Trazado 9516" d="M628.331,4526.692a99.826,99.826,0,0,0-99.828,99.828h19.966a79.863,79.863,0,0,1,79.862-79.862Z" transform="translate(-3.286 -3760.945)" fill="#2cb357"/>
    <path id="Trazado_9517" data-name="Trazado 9517" d="M724.832,4626.521A99.827,99.827,0,0,0,625,4526.692v19.966a79.864,79.864,0,0,1,79.863,79.862Z" transform="translate(0.041 -3760.945)" fill="#ffbc05"/>
    <path id="Trazado_9518" data-name="Trazado 9518" d="M702.56,4623.193a79.486,79.486,0,0,1-10.687,39.931l17.291,9.982a99.333,99.333,0,0,0,13.361-49.914Z" transform="translate(2.347 -3757.617)" fill="#d12136"/>
    <path id="Trazado_9519" data-name="Trazado 9519" d="M718.693,4683.146l4.991-8.645,12.968,7.484-4.991,8.647Z" transform="translate(3.272 -3755.848)" fill="#354468"/>
    <path id="Trazado_9520" data-name="Trazado 9520" d="M513.478,4732.629l62.012-100.747a9.985,9.985,0,0,1,17,0l61.983,100.747a9.983,9.983,0,0,1-8.5,15.213h-124a9.983,9.983,0,0,1-8.5-15.213Z" transform="translate(-3.855 -3757.481)" fill="#ffbc05"/>
    <path id="Trazado_9521" data-name="Trazado 9521" d="M591.893,4720.025a9.983,9.983,0,1,1-9.983-9.982A9.984,9.984,0,0,1,591.893,4720.025Z" transform="translate(-1.789 -3754.622)" fill="#354468"/>
    <path id="Trazado_9522" data-name="Trazado 9522" d="M571.928,4666.951a9.983,9.983,0,1,1,19.966,0l-4.172,25.028a5.891,5.891,0,0,1-11.621,0Z" transform="translate(-1.789 -3756.452)" fill="#354468"/>
  </g>
</svg>
