<svg xmlns="http://www.w3.org/2000/svg" width="571.969" height="289.712" viewBox="0 0 571.969 289.712">
  <g id="Grupo_9271" data-name="Grupo 9271" transform="translate(-1296.996 -3956.271)">
    <rect id="Rectángulo_6112" data-name="Rectángulo 6112" width="176.99" height="61.404" rx="5.6" transform="translate(1498.003 3956.771)" fill="#fff" stroke="#91c7ea" stroke-miterlimit="10" stroke-width="1"/>
    <rect id="Rectángulo_6113" data-name="Rectángulo 6113" width="176.99" height="42.651" rx="5.6" transform="translate(1498.003 4141.033)" fill="#fff" stroke="#91c7ea" stroke-miterlimit="10" stroke-width="1"/>
    <rect id="Rectángulo_6114" data-name="Rectángulo 6114" width="138.274" height="42.651" rx="5.6" transform="translate(1296.996 4084.491)" fill="#0b92dd"/>
    <rect id="Rectángulo_6115" data-name="Rectángulo 6115" width="176.99" height="42.651" rx="5.6" transform="translate(1498.003 4202.833)" fill="#fff" stroke="#91c7ea" stroke-miterlimit="10" stroke-width="1"/>
    <rect id="Rectángulo_6116" data-name="Rectángulo 6116" width="176.99" height="85.393" rx="5.6" transform="translate(1498.003 4039.379)" fill="#fff" stroke="#91c7ea" stroke-miterlimit="10" stroke-width="1"/>
    <rect id="Rectángulo_6117" data-name="Rectángulo 6117" width="141.057" height="61.404" rx="5.6" transform="translate(1727.407 3956.771)" fill="#fff" stroke="#91c7ea" stroke-miterlimit="10" stroke-width="1"/>
    <rect id="Rectángulo_6118" data-name="Rectángulo 6118" width="141.057" height="42.651" rx="5.6" transform="translate(1727.407 4141.033)" fill="#fff" stroke="#91c7ea" stroke-miterlimit="10" stroke-width="1"/>
    <rect id="Rectángulo_6119" data-name="Rectángulo 6119" width="141.057" height="42.651" rx="5.6" transform="translate(1727.407 4202.833)" fill="#fff" stroke="#91c7ea" stroke-miterlimit="10" stroke-width="1"/>
    <rect id="Rectángulo_6120" data-name="Rectángulo 6120" width="141.057" height="85.393" rx="5.6" transform="translate(1727.407 4039.379)" fill="#fff" stroke="#91c7ea" stroke-miterlimit="10" stroke-width="1"/>
    <g id="Grupo_9255" data-name="Grupo 9255">
      <g id="Grupo_9254" data-name="Grupo 9254">
        <path id="Trazado_9374" data-name="Trazado 9374" d="M1555.089,3981.161l-1.536-3.633h-4.942l-1.518,3.633h-1.451l4.875-11.469h1.206l4.85,11.469Zm-1.983-4.828-1.433-3.539q-.279-.672-.574-1.649a14.15,14.15,0,0,1-.531,1.649l-1.451,3.539Z" fill="#00223d"/>
        <path id="Trazado_9375" data-name="Trazado 9375" d="M1562.359,3981.317a4.27,4.27,0,0,1-1.649-.308,3.065,3.065,0,0,1-1.253-.95h-.1a10.575,10.575,0,0,1,.1,1.422V3985h-1.4V3972.6h1.138l.194,1.172h.067a3.207,3.207,0,0,1,1.257-1.015,4.091,4.091,0,0,1,1.645-.313,3.54,3.54,0,0,1,2.838,1.164,5.815,5.815,0,0,1-.017,6.543A3.54,3.54,0,0,1,1562.359,3981.317Zm-.2-7.773a2.586,2.586,0,0,0-2.049.726,3.542,3.542,0,0,0-.65,2.313v.289a4.04,4.04,0,0,0,.65,2.582,2.567,2.567,0,0,0,2.083.777,2.222,2.222,0,0,0,1.877-.9,4.027,4.027,0,0,0,.679-2.477,3.88,3.88,0,0,0-.679-2.457A2.3,2.3,0,0,0,1562.156,3973.544Z" fill="#00223d"/>
        <path id="Trazado_9376" data-name="Trazado 9376" d="M1570.042,3981.161h-1.4V3969h1.4Z" fill="#00223d"/>
        <path id="Trazado_9377" data-name="Trazado 9377" d="M1572.893,3970.278a.822.822,0,0,1,.237-.652.926.926,0,0,1,1.172,0,.811.811,0,0,1,.245.648.82.82,0,0,1-.245.652.849.849,0,0,1-.582.215.782.782,0,0,1-.827-.867Zm1.519,10.883h-1.4V3972.6h1.4Z" fill="#00223d"/>
        <path id="Trazado_9378" data-name="Trazado 9378" d="M1581.075,3981.317a4.107,4.107,0,0,1-3.108-1.144,4.483,4.483,0,0,1-1.1-3.239,4.622,4.622,0,0,1,1.117-3.32,4.193,4.193,0,0,1,3.184-1.172,6.848,6.848,0,0,1,1.333.133,4.726,4.726,0,0,1,1.046.312l-.43,1.1a7.123,7.123,0,0,0-1.013-.285,4.873,4.873,0,0,0-.97-.113q-2.816,0-2.816,3.328a3.751,3.751,0,0,0,.687,2.422,2.473,2.473,0,0,0,2.037.843,6.641,6.641,0,0,0,2.37-.461v1.149A5.394,5.394,0,0,1,1581.075,3981.317Z" fill="#00223d"/>
        <path id="Trazado_9379" data-name="Trazado 9379" d="M1591.289,3981.161l-.279-1.219h-.067a3.815,3.815,0,0,1-1.379,1.09,4.508,4.508,0,0,1-1.717.285,3.25,3.25,0,0,1-2.155-.656,2.3,2.3,0,0,1-.78-1.867q0-2.594,4.479-2.719l1.569-.047v-.531a2.057,2.057,0,0,0-.469-1.488,2.013,2.013,0,0,0-1.5-.481,6.487,6.487,0,0,0-2.614.656l-.43-.992a7.155,7.155,0,0,1,3.129-.734,3.714,3.714,0,0,1,2.45.679,2.719,2.719,0,0,1,.8,2.18v5.844Zm-3.163-.914a2.978,2.978,0,0,0,2.053-.664,2.36,2.36,0,0,0,.747-1.86v-.773l-1.4.055a5.448,5.448,0,0,0-2.408.48,1.423,1.423,0,0,0-.738,1.324,1.288,1.288,0,0,0,.46,1.071A2.008,2.008,0,0,0,1588.126,3980.247Z" fill="#00223d"/>
        <path id="Trazado_9380" data-name="Trazado 9380" d="M1598.905,3981.317a4.108,4.108,0,0,1-3.108-1.144,4.483,4.483,0,0,1-1.1-3.239,4.622,4.622,0,0,1,1.117-3.32,4.2,4.2,0,0,1,3.185-1.172,6.845,6.845,0,0,1,1.332.133,4.722,4.722,0,0,1,1.046.312l-.43,1.1a7.152,7.152,0,0,0-1.012-.285,4.888,4.888,0,0,0-.97-.113q-2.817,0-2.817,3.328a3.751,3.751,0,0,0,.687,2.422,2.473,2.473,0,0,0,2.037.843,6.641,6.641,0,0,0,2.37-.461v1.149A5.394,5.394,0,0,1,1598.905,3981.317Z" fill="#00223d"/>
        <path id="Trazado_9381" data-name="Trazado 9381" d="M1603.316,3970.278a.821.821,0,0,1,.236-.652.926.926,0,0,1,1.172,0,.811.811,0,0,1,.245.648.82.82,0,0,1-.245.652.849.849,0,0,1-.582.215.781.781,0,0,1-.826-.867Zm1.518,10.883h-1.4V3972.6h1.4Z" fill="#00223d"/>
        <path id="Trazado_9382" data-name="Trazado 9382" d="M1615.782,3976.872a4.5,4.5,0,0,1-1.139,3.269,4.171,4.171,0,0,1-3.146,1.176,4.427,4.427,0,0,1-2.2-.539,3.667,3.667,0,0,1-1.485-1.547,5.061,5.061,0,0,1-.523-2.359,4.5,4.5,0,0,1,1.13-3.262,4.167,4.167,0,0,1,3.138-1.168,4.069,4.069,0,0,1,3.083,1.2A4.486,4.486,0,0,1,1615.782,3976.872Zm-7.043,0a3.844,3.844,0,0,0,.708,2.5,2.966,2.966,0,0,0,4.171,0,3.828,3.828,0,0,0,.713-2.5,3.77,3.77,0,0,0-.713-2.481,2.6,2.6,0,0,0-2.1-.847,2.554,2.554,0,0,0-2.075.836A3.8,3.8,0,0,0,1608.739,3976.872Zm1.619-5.6q.405-.483.873-1.172a13.139,13.139,0,0,0,.738-1.195h1.7v.164a11.71,11.71,0,0,1-1.1,1.25,12.242,12.242,0,0,1-1.273,1.149h-.937Z" fill="#00223d"/>
        <path id="Trazado_9383" data-name="Trazado 9383" d="M1624.562,3981.161v-5.539a2.13,2.13,0,0,0-.515-1.563,2.2,2.2,0,0,0-1.611-.515,2.775,2.775,0,0,0-2.125.726,3.473,3.473,0,0,0-.675,2.4v4.492h-1.4V3972.6h1.139l.227,1.172h.068a2.8,2.8,0,0,1,1.206-.98,4.177,4.177,0,0,1,1.729-.348,3.694,3.694,0,0,1,2.513.746,3.033,3.033,0,0,1,.844,2.387v5.586Z" fill="#00223d"/>
        <path id="Trazado_9384" data-name="Trazado 9384" d="M1565.311,3994.6v.821l-1.712.187a2.688,2.688,0,0,1,.421.715,2.547,2.547,0,0,1,.186,1,2.448,2.448,0,0,1-.928,2.008,3.939,3.939,0,0,1-2.547.75,4.544,4.544,0,0,1-.776-.063q-.894.438-.894,1.1a.554.554,0,0,0,.312.52,2.437,2.437,0,0,0,1.071.168h1.637a3.883,3.883,0,0,1,2.306.585,1.977,1.977,0,0,1,.806,1.7,2.39,2.39,0,0,1-1.232,2.168,7.019,7.019,0,0,1-3.593.746,5.212,5.212,0,0,1-2.8-.625,1.979,1.979,0,0,1-.982-1.766,1.9,1.9,0,0,1,.54-1.352,2.822,2.822,0,0,1,1.518-.773,1.441,1.441,0,0,1-.595-.461,1.157,1.157,0,0,1-.24-.726,1.311,1.311,0,0,1,.27-.821,2.78,2.78,0,0,1,.852-.679,2.454,2.454,0,0,1-1.169-.93,2.592,2.592,0,0,1-.451-1.5,2.668,2.668,0,0,1,.911-2.168,3.914,3.914,0,0,1,2.581-.762,5.107,5.107,0,0,1,1.307.156Zm-7.372,10a1.146,1.146,0,0,0,.633,1.055,3.717,3.717,0,0,0,1.813.359,5.394,5.394,0,0,0,2.611-.488,1.478,1.478,0,0,0,.847-1.324,1.02,1.02,0,0,0-.464-.965,3.848,3.848,0,0,0-1.746-.269h-1.678a2.332,2.332,0,0,0-1.484.421A1.456,1.456,0,0,0,1557.939,4004.6Zm.759-7.257a1.673,1.673,0,0,0,.549,1.359,2.3,2.3,0,0,0,1.526.461q2.051,0,2.05-1.844,0-1.929-2.075-1.93a2.154,2.154,0,0,0-1.518.493A1.893,1.893,0,0,0,1558.7,3997.341Z" fill="#00223d"/>
        <path id="Trazado_9385" data-name="Trazado 9385" d="M1571.114,4003.317a4.432,4.432,0,0,1-3.235-1.156,4.279,4.279,0,0,1-1.185-3.211,4.722,4.722,0,0,1,1.1-3.289,3.785,3.785,0,0,1,2.956-1.219,3.625,3.625,0,0,1,2.749,1.059,3.872,3.872,0,0,1,1.013,2.793v.82h-6.368a3.237,3.237,0,0,0,.822,2.289,2.964,2.964,0,0,0,2.2.781,7.937,7.937,0,0,0,2.952-.578v1.156a7.763,7.763,0,0,1-1.4.426A8.5,8.5,0,0,1,1571.114,4003.317Zm-.38-7.789a2.382,2.382,0,0,0-1.775.672,2.975,2.975,0,0,0-.781,1.859h4.833a2.714,2.714,0,0,0-.59-1.879A2.163,2.163,0,0,0,1570.734,3995.528Z" fill="#00223d"/>
        <path id="Trazado_9386" data-name="Trazado 9386" d="M1583.225,4003.161v-5.539a2.131,2.131,0,0,0-.514-1.563,2.2,2.2,0,0,0-1.611-.515,2.774,2.774,0,0,0-2.125.726,3.474,3.474,0,0,0-.675,2.4v4.492h-1.4V3994.6h1.138l.228,1.172h.067a2.8,2.8,0,0,1,1.207-.98,4.177,4.177,0,0,1,1.729-.348,3.694,3.694,0,0,1,2.513.746,3.036,3.036,0,0,1,.843,2.387v5.586Z" fill="#00223d"/>
        <path id="Trazado_9387" data-name="Trazado 9387" d="M1591.407,4003.317a4.433,4.433,0,0,1-3.235-1.156,4.279,4.279,0,0,1-1.185-3.211,4.722,4.722,0,0,1,1.1-3.289,3.784,3.784,0,0,1,2.956-1.219,3.625,3.625,0,0,1,2.749,1.059,3.872,3.872,0,0,1,1.013,2.793v.82h-6.368a3.237,3.237,0,0,0,.822,2.289,2.964,2.964,0,0,0,2.2.781,7.942,7.942,0,0,0,2.952-.578v1.156a7.764,7.764,0,0,1-1.4.426A8.5,8.5,0,0,1,1591.407,4003.317Zm-.38-7.789a2.382,2.382,0,0,0-1.775.672,2.976,2.976,0,0,0-.781,1.859h4.833a2.714,2.714,0,0,0-.59-1.879A2.163,2.163,0,0,0,1591.027,3995.528Z" fill="#00223d"/>
        <path id="Trazado_9388" data-name="Trazado 9388" d="M1601.41,3994.442a5.871,5.871,0,0,1,1.1.094l-.194,1.2a5.138,5.138,0,0,0-1.013-.117,2.541,2.541,0,0,0-1.918.844,2.938,2.938,0,0,0-.8,2.1v4.594h-1.4V3994.6h1.155l.16,1.586h.068a3.894,3.894,0,0,1,1.24-1.289A2.949,2.949,0,0,1,1601.41,3994.442Z" fill="#00223d"/>
        <path id="Trazado_9389" data-name="Trazado 9389" d="M1609.928,4003.161l-.278-1.219h-.068a3.808,3.808,0,0,1-1.379,1.09,4.5,4.5,0,0,1-1.716.285,3.25,3.25,0,0,1-2.155-.656,2.3,2.3,0,0,1-.78-1.867q0-2.594,4.478-2.719l1.569-.047v-.531a2.062,2.062,0,0,0-.468-1.488,2.013,2.013,0,0,0-1.5-.481,6.5,6.5,0,0,0-2.615.656l-.43-.992a7.155,7.155,0,0,1,3.129-.734,3.716,3.716,0,0,1,2.451.679,2.719,2.719,0,0,1,.8,2.18v5.844Zm-3.163-.914a2.98,2.98,0,0,0,2.054-.664,2.36,2.36,0,0,0,.747-1.86v-.773l-1.4.055a5.44,5.44,0,0,0-2.407.48,1.422,1.422,0,0,0-.739,1.324,1.291,1.291,0,0,0,.46,1.071A2.01,2.01,0,0,0,1606.765,4002.247Z" fill="#00223d"/>
        <path id="Trazado_9390" data-name="Trazado 9390" d="M1615.25,4003.161h-1.4V3991h1.4Z" fill="#00223d"/>
      </g>
    </g>
    <g id="Grupo_9257" data-name="Grupo 9257">
      <g id="Grupo_9256" data-name="Grupo 9256">
        <path id="Trazado_9391" data-name="Trazado 9391" d="M1754.289,3981.762a4.187,4.187,0,0,0-3.21,1.254,4.821,4.821,0,0,0-1.176,3.434,4.907,4.907,0,0,0,1.134,3.465,4.2,4.2,0,0,0,3.235,1.222,11.819,11.819,0,0,0,2.943-.429v1.164a9.724,9.724,0,0,1-3.163.445,5.575,5.575,0,0,1-4.2-1.531,6.006,6.006,0,0,1-1.48-4.352,6.446,6.446,0,0,1,.712-3.093,4.908,4.908,0,0,1,2.058-2.047,6.63,6.63,0,0,1,3.167-.719,8.167,8.167,0,0,1,3.391.656l-.607,1.141A6.975,6.975,0,0,0,1754.289,3981.762Z" fill="#00223d"/>
        <path id="Trazado_9392" data-name="Trazado 9392" d="M1765.38,3992.161l-.279-1.219h-.067a3.824,3.824,0,0,1-1.379,1.09,4.509,4.509,0,0,1-1.717.285,3.25,3.25,0,0,1-2.155-.656,2.3,2.3,0,0,1-.78-1.867q0-2.594,4.479-2.719l1.568-.047v-.531a2.057,2.057,0,0,0-.468-1.488,2.013,2.013,0,0,0-1.5-.481,6.491,6.491,0,0,0-2.614.656l-.43-.992a7.154,7.154,0,0,1,3.129-.734,3.714,3.714,0,0,1,2.45.679,2.719,2.719,0,0,1,.8,2.18v5.844Zm-3.163-.914a2.978,2.978,0,0,0,2.053-.664,2.36,2.36,0,0,0,.747-1.86v-.773l-1.4.055a5.449,5.449,0,0,0-2.408.48,1.423,1.423,0,0,0-.738,1.324,1.29,1.29,0,0,0,.459,1.071A2.013,2.013,0,0,0,1762.217,3991.247Z" fill="#00223d"/>
        <path id="Trazado_9393" data-name="Trazado 9393" d="M1773.6,3992.317a4.27,4.27,0,0,1-1.649-.308,3.055,3.055,0,0,1-1.252-.95h-.1a10.582,10.582,0,0,1,.1,1.422V3996h-1.4V3983.6h1.139l.194,1.172h.068a3.2,3.2,0,0,1,1.256-1.015,4.094,4.094,0,0,1,1.645-.313,3.54,3.54,0,0,1,2.838,1.164,5.81,5.81,0,0,1-.017,6.543A3.54,3.54,0,0,1,1773.6,3992.317Zm-.2-7.773a2.588,2.588,0,0,0-2.05.726,3.537,3.537,0,0,0-.649,2.313v.289a4.042,4.042,0,0,0,.649,2.582,2.568,2.568,0,0,0,2.083.777,2.222,2.222,0,0,0,1.877-.9,4.028,4.028,0,0,0,.679-2.477,3.88,3.88,0,0,0-.679-2.457A2.3,2.3,0,0,0,1773.4,3984.544Z" fill="#00223d"/>
        <path id="Trazado_9394" data-name="Trazado 9394" d="M1788.92,3992.161h-1.367v-8.141q0-1.016.068-1.922c-.118.11-.251.225-.4.344s-.815.628-2.007,1.524l-.742-.891,3.264-2.336h1.181Z" fill="#00223d"/>
        <path id="Trazado_9395" data-name="Trazado 9395" d="M1795.718,3990.3l.126.179a18.42,18.42,0,0,1-.632,1.817q-.414,1.035-.861,1.925H1793.3q.228-.812.5-2.007t.384-1.914Z" fill="#00223d"/>
        <path id="Trazado_9396" data-name="Trazado 9396" d="M1810.435,3992.161h-8.105v-1.117l3.247-3.024a22.812,22.812,0,0,0,1.957-1.984,5,5,0,0,0,.709-1.156,3.1,3.1,0,0,0,.236-1.211,1.849,1.849,0,0,0-.6-1.45,2.41,2.41,0,0,0-1.662-.535,4.466,4.466,0,0,0-1.455.235,5.911,5.911,0,0,0-1.53.851l-.743-.883a5.953,5.953,0,0,1,3.711-1.312,4.129,4.129,0,0,1,2.725.824,2.738,2.738,0,0,1,.987,2.215,4.044,4.044,0,0,1-.658,2.148,13.946,13.946,0,0,1-2.463,2.688l-2.7,2.445v.063h6.342Z" fill="#00223d"/>
        <path id="Trazado_9397" data-name="Trazado 9397" d="M1814.315,3990.3l.127.179a18.2,18.2,0,0,1-.633,1.817q-.412,1.035-.86,1.925H1811.9q.228-.812.5-2.007t.383-1.914Z" fill="#00223d"/>
        <path id="Trazado_9398" data-name="Trazado 9398" d="M1828.569,3983.427a2.485,2.485,0,0,1-.662,1.789,3.4,3.4,0,0,1-1.877.929v.063a3.669,3.669,0,0,1,2.2.875,2.469,2.469,0,0,1,.717,1.844,2.907,2.907,0,0,1-1.223,2.511,5.889,5.889,0,0,1-3.475.879,10.749,10.749,0,0,1-1.792-.137,6.436,6.436,0,0,1-1.582-.48v-1.234a8.066,8.066,0,0,0,1.708.558,8.292,8.292,0,0,0,1.716.192q3.2,0,3.2-2.321,0-2.078-3.525-2.078h-1.215V3985.7h1.231a3.92,3.92,0,0,0,2.286-.59,1.886,1.886,0,0,0,.844-1.637,1.566,1.566,0,0,0-.62-1.312,2.7,2.7,0,0,0-1.683-.477,5.619,5.619,0,0,0-1.526.2,7.106,7.106,0,0,0-1.637.75l-.708-.875a6.089,6.089,0,0,1,1.75-.871,6.813,6.813,0,0,1,2.087-.316,4.5,4.5,0,0,1,2.792.762A2.486,2.486,0,0,1,1828.569,3983.427Z" fill="#00223d"/>
        <path id="Trazado_9399" data-name="Trazado 9399" d="M1832.913,3990.3l.126.179a18.42,18.42,0,0,1-.632,1.817q-.414,1.035-.86,1.925h-1.055q.228-.812.5-2.007t.384-1.914Z" fill="#00223d"/>
        <path id="Trazado_9400" data-name="Trazado 9400" d="M1848.213,3989.536h-1.83v2.625h-1.342v-2.625h-6V3988.4l5.853-7.726h1.485v7.679h1.83Zm-3.172-1.18v-3.8q0-1.116.085-2.523h-.068a11.573,11.573,0,0,1-.759,1.242l-3.854,5.078Z" fill="#00223d"/>
      </g>
    </g>
    <g id="Grupo_9259" data-name="Grupo 9259">
      <g id="Grupo_9258" data-name="Grupo 9258">
        <path id="Trazado_9401" data-name="Trazado 9401" d="M1763.587,4077.262a4.186,4.186,0,0,0-3.209,1.254,4.82,4.82,0,0,0-1.177,3.434,4.907,4.907,0,0,0,1.135,3.465,4.194,4.194,0,0,0,3.235,1.222,11.82,11.82,0,0,0,2.943-.429v1.164a9.729,9.729,0,0,1-3.163.445,5.574,5.574,0,0,1-4.2-1.531,6.007,6.007,0,0,1-1.481-4.352,6.446,6.446,0,0,1,.713-3.093,4.907,4.907,0,0,1,2.058-2.047,6.63,6.63,0,0,1,3.167-.719,8.17,8.17,0,0,1,3.391.656l-.608,1.141A6.968,6.968,0,0,0,1763.587,4077.262Z" fill="#00223d"/>
        <path id="Trazado_9402" data-name="Trazado 9402" d="M1774.678,4087.661l-.278-1.219h-.067a3.824,3.824,0,0,1-1.379,1.09,4.508,4.508,0,0,1-1.717.285,3.25,3.25,0,0,1-2.155-.656,2.3,2.3,0,0,1-.78-1.867q0-2.594,4.479-2.719l1.568-.047V4082a2.057,2.057,0,0,0-.468-1.488,2.013,2.013,0,0,0-1.5-.481,6.487,6.487,0,0,0-2.614.656l-.43-.992a7.155,7.155,0,0,1,3.128-.734,3.716,3.716,0,0,1,2.451.679,2.719,2.719,0,0,1,.8,2.18v5.844Zm-3.162-.914a2.979,2.979,0,0,0,2.053-.664,2.36,2.36,0,0,0,.747-1.86v-.773l-1.4.055a5.445,5.445,0,0,0-2.408.48,1.423,1.423,0,0,0-.738,1.324,1.29,1.29,0,0,0,.459,1.071A2.013,2.013,0,0,0,1771.516,4086.747Z" fill="#00223d"/>
        <path id="Trazado_9403" data-name="Trazado 9403" d="M1782.9,4087.817a4.27,4.27,0,0,1-1.649-.308,3.064,3.064,0,0,1-1.253-.95h-.1a10.574,10.574,0,0,1,.1,1.422v3.524h-1.4V4079.1h1.139l.194,1.172H1780a3.208,3.208,0,0,1,1.257-1.015,4.091,4.091,0,0,1,1.645-.313,3.54,3.54,0,0,1,2.838,1.164,5.815,5.815,0,0,1-.017,6.543A3.54,3.54,0,0,1,1782.9,4087.817Zm-.2-7.773a2.585,2.585,0,0,0-2.049.726,3.542,3.542,0,0,0-.65,2.313v.289a4.041,4.041,0,0,0,.65,2.582,2.567,2.567,0,0,0,2.083.777,2.223,2.223,0,0,0,1.877-.9,4.027,4.027,0,0,0,.679-2.477,3.88,3.88,0,0,0-.679-2.457A2.3,2.3,0,0,0,1782.7,4080.044Z" fill="#00223d"/>
        <path id="Trazado_9404" data-name="Trazado 9404" d="M1796.886,4080.684a4.778,4.778,0,0,1,3.066.9,2.968,2.968,0,0,1,1.117,2.449,3.413,3.413,0,0,1-1.218,2.781,5.125,5.125,0,0,1-3.362,1.008,6.587,6.587,0,0,1-3.179-.617v-1.25a5.066,5.066,0,0,0,1.467.551,7.776,7.776,0,0,0,1.729.2,3.644,3.644,0,0,0,2.307-.648,2.245,2.245,0,0,0,.822-1.875q0-2.391-3.162-2.391a13.682,13.682,0,0,0-2.143.226l-.725-.429.464-5.344h6.131v1.2h-4.934l-.312,3.43A10.673,10.673,0,0,1,1796.886,4080.684Z" fill="#00223d"/>
        <path id="Trazado_9405" data-name="Trazado 9405" d="M1805.017,4085.8l.126.179a18.2,18.2,0,0,1-.633,1.817q-.413,1.035-.86,1.925H1802.6q.228-.812.5-2.007t.384-1.914Z" fill="#00223d"/>
        <path id="Trazado_9406" data-name="Trazado 9406" d="M1811.772,4082.778a7.642,7.642,0,0,1,1.413-5.035,5.174,5.174,0,0,1,4.179-1.668,6.05,6.05,0,0,1,1.5.148v1.118a5.162,5.162,0,0,0-1.485-.2,3.9,3.9,0,0,0-3.028,1.145,5.578,5.578,0,0,0-1.147,3.6h.1a3.318,3.318,0,0,1,2.936-1.343,3.606,3.606,0,0,1,2.619.929,3.357,3.357,0,0,1,.957,2.524,3.725,3.725,0,0,1-1.05,2.8,3.9,3.9,0,0,1-2.839,1.019,3.76,3.76,0,0,1-3.036-1.332A5.583,5.583,0,0,1,1811.772,4082.778Zm4.142,3.938a2.434,2.434,0,0,0,1.859-.7,2.821,2.821,0,0,0,.662-2.019,2.482,2.482,0,0,0-.615-1.781,2.423,2.423,0,0,0-1.839-.649,3.316,3.316,0,0,0-1.391.289,2.545,2.545,0,0,0-1.008.8,1.749,1.749,0,0,0-.376,1.055,3.386,3.386,0,0,0,.338,1.5,2.678,2.678,0,0,0,.957,1.1A2.51,2.51,0,0,0,1815.914,4086.716Z" fill="#00223d"/>
        <path id="Trazado_9407" data-name="Trazado 9407" d="M1823.614,4085.8l.127.179a18.712,18.712,0,0,1-.633,1.817q-.413,1.035-.86,1.925h-1.054q.227-.812.5-2.007t.383-1.914Z" fill="#00223d"/>
        <path id="Trazado_9408" data-name="Trazado 9408" d="M1831.787,4087.661l5.111-10.227h-6.722v-1.2h8.207v1.039l-5.044,10.383Z" fill="#00223d"/>
      </g>
    </g>
    <g id="Grupo_9261" data-name="Grupo 9261">
      <g id="Grupo_9260" data-name="Grupo 9260">
        <path id="Trazado_9409" data-name="Trazado 9409" d="M1782.185,4156.648a4.187,4.187,0,0,0-3.209,1.254,4.814,4.814,0,0,0-1.177,3.433,4.9,4.9,0,0,0,1.135,3.465,4.192,4.192,0,0,0,3.234,1.223,11.833,11.833,0,0,0,2.944-.43v1.164a9.715,9.715,0,0,1-3.163.445,5.578,5.578,0,0,1-4.2-1.531,6.01,6.01,0,0,1-1.48-4.351,6.442,6.442,0,0,1,.713-3.094,4.9,4.9,0,0,1,2.058-2.047,6.627,6.627,0,0,1,3.167-.719,8.166,8.166,0,0,1,3.39.656l-.607,1.141A6.973,6.973,0,0,0,1782.185,4156.648Z" fill="#00223d"/>
        <path id="Trazado_9410" data-name="Trazado 9410" d="M1793.276,4167.046l-.278-1.219h-.068a3.831,3.831,0,0,1-1.379,1.09,4.5,4.5,0,0,1-1.716.285,3.243,3.243,0,0,1-2.155-.656,2.3,2.3,0,0,1-.78-1.867q0-2.594,4.478-2.719l1.569-.047v-.531a2.061,2.061,0,0,0-.468-1.488,2.014,2.014,0,0,0-1.5-.481,6.482,6.482,0,0,0-2.615.657l-.43-.993a7.155,7.155,0,0,1,3.129-.734,3.712,3.712,0,0,1,2.45.68,2.713,2.713,0,0,1,.8,2.179v5.844Zm-3.163-.914a2.978,2.978,0,0,0,2.054-.664,2.357,2.357,0,0,0,.746-1.859v-.774l-1.4.055a5.443,5.443,0,0,0-2.408.48,1.423,1.423,0,0,0-.738,1.325,1.288,1.288,0,0,0,.46,1.07A2.011,2.011,0,0,0,1790.113,4166.132Z" fill="#00223d"/>
        <path id="Trazado_9411" data-name="Trazado 9411" d="M1801.5,4167.2a4.284,4.284,0,0,1-1.648-.308,3.063,3.063,0,0,1-1.253-.949h-.1a10.727,10.727,0,0,1,.1,1.421v3.524h-1.4v-12.406h1.139l.193,1.172h.068a3.191,3.191,0,0,1,1.257-1.016,4.069,4.069,0,0,1,1.644-.313,3.542,3.542,0,0,1,2.839,1.164,5.815,5.815,0,0,1-.017,6.543A3.543,3.543,0,0,1,1801.5,4167.2Zm-.2-7.773a2.581,2.581,0,0,0-2.049.727,3.533,3.533,0,0,0-.65,2.312v.289a4.04,4.04,0,0,0,.65,2.582,2.566,2.566,0,0,0,2.083.777,2.219,2.219,0,0,0,1.876-.9,4.019,4.019,0,0,0,.679-2.477,3.874,3.874,0,0,0-.679-2.457A2.3,2.3,0,0,0,1801.3,4159.429Z" fill="#00223d"/>
        <path id="Trazado_9412" data-name="Trazado 9412" d="M1815.711,4155.46a4.414,4.414,0,0,1,2.674.727,2.354,2.354,0,0,1,.987,2.008,2.388,2.388,0,0,1-.565,1.539A4.976,4.976,0,0,1,1817,4161a6.068,6.068,0,0,1,2.133,1.4,2.5,2.5,0,0,1,.633,1.691,2.746,2.746,0,0,1-1.071,2.27,4.609,4.609,0,0,1-2.935.847,4.972,4.972,0,0,1-3.036-.8,2.674,2.674,0,0,1-1.063-2.27q0-1.96,2.581-3.055a4.683,4.683,0,0,1-1.67-1.316,2.65,2.65,0,0,1-.506-1.582,2.345,2.345,0,0,1,.991-1.981A4.335,4.335,0,0,1,1815.711,4155.46Zm-2.665,8.7a1.718,1.718,0,0,0,.7,1.461,3.262,3.262,0,0,0,1.978.524,3.109,3.109,0,0,0,1.957-.547,1.8,1.8,0,0,0,.7-1.5,1.77,1.77,0,0,0-.658-1.348,6.877,6.877,0,0,0-2.294-1.144,5.031,5.031,0,0,0-1.822,1.1A2.051,2.051,0,0,0,1813.046,4164.163Zm2.649-7.648a2.615,2.615,0,0,0-1.654.469,1.506,1.506,0,0,0-.6,1.25,1.713,1.713,0,0,0,.5,1.234,5.266,5.266,0,0,0,1.839,1.031,4.649,4.649,0,0,0,1.708-1.008,1.789,1.789,0,0,0,.5-1.257,1.492,1.492,0,0,0-.611-1.254A2.721,2.721,0,0,0,1815.695,4156.515Z" fill="#00223d"/>
      </g>
    </g>
    <g id="Grupo_9263" data-name="Grupo 9263">
      <g id="Grupo_9262" data-name="Grupo 9262">
        <path id="Trazado_9413" data-name="Trazado 9413" d="M1782.185,4218.448a4.187,4.187,0,0,0-3.209,1.253,4.816,4.816,0,0,0-1.177,3.434,4.9,4.9,0,0,0,1.135,3.465,4.194,4.194,0,0,0,3.234,1.223,11.879,11.879,0,0,0,2.944-.43v1.164a9.729,9.729,0,0,1-3.163.445,5.578,5.578,0,0,1-4.2-1.531,6.011,6.011,0,0,1-1.48-4.352,6.443,6.443,0,0,1,.713-3.093,4.9,4.9,0,0,1,2.058-2.047,6.627,6.627,0,0,1,3.167-.719,8.166,8.166,0,0,1,3.39.656l-.607,1.141A6.965,6.965,0,0,0,1782.185,4218.448Z" fill="#00223d"/>
        <path id="Trazado_9414" data-name="Trazado 9414" d="M1793.276,4228.846l-.278-1.219h-.068a3.826,3.826,0,0,1-1.379,1.09,4.49,4.49,0,0,1-1.716.285,3.248,3.248,0,0,1-2.155-.656,2.305,2.305,0,0,1-.78-1.867q0-2.594,4.478-2.719l1.569-.047v-.531a2.062,2.062,0,0,0-.468-1.488,2.014,2.014,0,0,0-1.5-.481,6.5,6.5,0,0,0-2.615.656l-.43-.992a6.913,6.913,0,0,1,1.5-.539,6.994,6.994,0,0,1,1.632-.195,3.707,3.707,0,0,1,2.45.68,2.711,2.711,0,0,1,.8,2.179v5.844Zm-3.163-.914a2.98,2.98,0,0,0,2.054-.664,2.359,2.359,0,0,0,.746-1.86v-.773l-1.4.055a5.429,5.429,0,0,0-2.408.48,1.423,1.423,0,0,0-.738,1.324,1.289,1.289,0,0,0,.46,1.071A2.014,2.014,0,0,0,1790.113,4227.932Z" fill="#00223d"/>
        <path id="Trazado_9415" data-name="Trazado 9415" d="M1801.5,4229a4.284,4.284,0,0,1-1.648-.308,3.06,3.06,0,0,1-1.253-.95h-.1a10.723,10.723,0,0,1,.1,1.422v3.524h-1.4v-12.407h1.139l.193,1.172h.068a3.194,3.194,0,0,1,1.257-1.015,4.069,4.069,0,0,1,1.644-.313,3.54,3.54,0,0,1,2.839,1.164,5.815,5.815,0,0,1-.017,6.543A3.543,3.543,0,0,1,1801.5,4229Zm-.2-7.773a2.584,2.584,0,0,0-2.049.726,3.536,3.536,0,0,0-.65,2.313v.289a4.041,4.041,0,0,0,.65,2.582,2.565,2.565,0,0,0,2.083.777,2.219,2.219,0,0,0,1.876-.9,4.023,4.023,0,0,0,.679-2.477,3.873,3.873,0,0,0-.679-2.457A2.3,2.3,0,0,0,1801.3,4221.229Z" fill="#00223d"/>
        <path id="Trazado_9416" data-name="Trazado 9416" d="M1819.734,4222.3q0,6.7-5.6,6.7a6.152,6.152,0,0,1-1.552-.156v-1.117a5.351,5.351,0,0,0,1.535.2,3.884,3.884,0,0,0,3.058-1.16,5.576,5.576,0,0,0,1.125-3.559h-.1a2.94,2.94,0,0,1-1.231.988,4.22,4.22,0,0,1-1.729.34,3.635,3.635,0,0,1-2.6-.906,3.309,3.309,0,0,1-.961-2.531,3.713,3.713,0,0,1,1.075-2.813,3.92,3.92,0,0,1,2.83-1.031,4,4,0,0,1,2.2.6,3.826,3.826,0,0,1,1.446,1.742A6.618,6.618,0,0,1,1819.734,4222.3Zm-4.149-3.93a2.4,2.4,0,0,0-1.864.719,2.851,2.851,0,0,0-.658,2,2.477,2.477,0,0,0,.607,1.77,2.426,2.426,0,0,0,1.847.644,3.413,3.413,0,0,0,1.413-.289,2.506,2.506,0,0,0,1.016-.789,1.727,1.727,0,0,0,.372-1.047,3.361,3.361,0,0,0-.346-1.515,2.7,2.7,0,0,0-.966-1.094A2.568,2.568,0,0,0,1815.585,4218.369Z" fill="#00223d"/>
      </g>
    </g>
    <g id="Grupo_9265" data-name="Grupo 9265">
      <g id="Grupo_9264" data-name="Grupo 9264">
        <path id="Trazado_9417" data-name="Trazado 9417" d="M1517.653,4065.661v-11.422h1.434v10.219h5.44v1.2Z" fill="#00223d"/>
        <path id="Trazado_9418" data-name="Trazado 9418" d="M1527.724,4057.1v5.555a2.129,2.129,0,0,0,.514,1.563,2.2,2.2,0,0,0,1.611.515,2.741,2.741,0,0,0,2.121-.734,3.506,3.506,0,0,0,.671-2.4v-4.5h1.4v8.563h-1.156l-.2-1.149h-.076a2.733,2.733,0,0,1-1.193.969,4.287,4.287,0,0,1-1.742.336,3.715,3.715,0,0,1-2.526-.742,3.015,3.015,0,0,1-.839-2.375v-5.6Z" fill="#00223d"/>
        <path id="Trazado_9419" data-name="Trazado 9419" d="M1544.575,4057.1v.821l-1.712.187a2.715,2.715,0,0,1,.422.715,2.567,2.567,0,0,1,.185,1,2.448,2.448,0,0,1-.928,2.008,3.94,3.94,0,0,1-2.547.75,4.543,4.543,0,0,1-.776-.063q-.894.438-.894,1.1a.554.554,0,0,0,.312.52,2.442,2.442,0,0,0,1.072.168h1.636a3.885,3.885,0,0,1,2.307.585,1.979,1.979,0,0,1,.805,1.7,2.389,2.389,0,0,1-1.231,2.168,7.021,7.021,0,0,1-3.593.746,5.211,5.211,0,0,1-2.8-.625,1.979,1.979,0,0,1-.983-1.766,1.9,1.9,0,0,1,.54-1.352,2.826,2.826,0,0,1,1.518-.773,1.447,1.447,0,0,1-.595-.461,1.157,1.157,0,0,1-.24-.726,1.311,1.311,0,0,1,.27-.821,2.781,2.781,0,0,1,.852-.679,2.451,2.451,0,0,1-1.168-.93,2.584,2.584,0,0,1-.451-1.5,2.668,2.668,0,0,1,.91-2.168,3.916,3.916,0,0,1,2.581-.762,5.109,5.109,0,0,1,1.308.156Zm-7.371,10a1.147,1.147,0,0,0,.632,1.055,3.719,3.719,0,0,0,1.814.359,5.39,5.39,0,0,0,2.61-.488,1.48,1.48,0,0,0,.848-1.324,1.022,1.022,0,0,0-.464-.965,3.854,3.854,0,0,0-1.746-.269h-1.679a2.332,2.332,0,0,0-1.484.421A1.458,1.458,0,0,0,1537.2,4067.1Zm.759-7.257a1.673,1.673,0,0,0,.548,1.359,2.3,2.3,0,0,0,1.527.461q2.049,0,2.049-1.844,0-1.929-2.075-1.93a2.154,2.154,0,0,0-1.518.493A1.9,1.9,0,0,0,1537.963,4059.841Z" fill="#00223d"/>
        <path id="Trazado_9420" data-name="Trazado 9420" d="M1552.158,4065.661l-.279-1.219h-.067a3.816,3.816,0,0,1-1.379,1.09,4.5,4.5,0,0,1-1.716.285,3.251,3.251,0,0,1-2.156-.656,2.3,2.3,0,0,1-.78-1.867q0-2.594,4.479-2.719l1.569-.047V4060a2.062,2.062,0,0,0-.468-1.488,2.014,2.014,0,0,0-1.5-.481,6.491,6.491,0,0,0-2.614.656l-.43-.992a7.155,7.155,0,0,1,3.129-.734,3.713,3.713,0,0,1,2.45.679,2.719,2.719,0,0,1,.8,2.18v5.844Zm-3.163-.914a2.982,2.982,0,0,0,2.054-.664,2.363,2.363,0,0,0,.746-1.86v-.773l-1.4.055a5.448,5.448,0,0,0-2.408.48,1.423,1.423,0,0,0-.738,1.324,1.288,1.288,0,0,0,.46,1.071A2.008,2.008,0,0,0,1548.995,4064.747Z" fill="#00223d"/>
        <path id="Trazado_9421" data-name="Trazado 9421" d="M1560.3,4056.942a5.87,5.87,0,0,1,1.1.094l-.194,1.2a5.136,5.136,0,0,0-1.012-.117,2.543,2.543,0,0,0-1.919.844,2.937,2.937,0,0,0-.8,2.1v4.594h-1.4V4057.1h1.155l.16,1.586h.068a3.9,3.9,0,0,1,1.24-1.289A2.947,2.947,0,0,1,1560.3,4056.942Z" fill="#00223d"/>
        <path id="Trazado_9422" data-name="Trazado 9422" d="M1567.036,4065.817a4.432,4.432,0,0,1-3.235-1.156,4.279,4.279,0,0,1-1.185-3.211,4.722,4.722,0,0,1,1.1-3.289,3.785,3.785,0,0,1,2.956-1.219,3.629,3.629,0,0,1,2.75,1.059,3.875,3.875,0,0,1,1.012,2.793v.82h-6.368a3.237,3.237,0,0,0,.822,2.289,2.964,2.964,0,0,0,2.2.781,7.937,7.937,0,0,0,2.952-.578v1.156a7.763,7.763,0,0,1-1.4.426A8.5,8.5,0,0,1,1567.036,4065.817Zm-.38-7.789a2.382,2.382,0,0,0-1.775.672,2.969,2.969,0,0,0-.78,1.859h4.833a2.709,2.709,0,0,0-.591-1.879A2.163,2.163,0,0,0,1566.656,4058.028Z" fill="#00223d"/>
        <path id="Trazado_9423" data-name="Trazado 9423" d="M1578.785,4063.325a2.094,2.094,0,0,1-.962,1.844,4.8,4.8,0,0,1-2.7.648,6.265,6.265,0,0,1-2.867-.539v-1.2a7.18,7.18,0,0,0,1.429.492,6.4,6.4,0,0,0,1.472.18,3.566,3.566,0,0,0,1.687-.324,1.058,1.058,0,0,0,.59-.989,1.048,1.048,0,0,0-.468-.855,7.642,7.642,0,0,0-1.826-.84,10.3,10.3,0,0,1-1.834-.777,2.413,2.413,0,0,1-.81-.754,1.852,1.852,0,0,1-.266-1.008,1.884,1.884,0,0,1,.92-1.652,4.536,4.536,0,0,1,2.521-.606,7.889,7.889,0,0,1,2.919.563l-.5,1.054a7.175,7.175,0,0,0-2.522-.531,3.1,3.1,0,0,0-1.5.289.887.887,0,0,0-.506.8.917.917,0,0,0,.19.586,1.835,1.835,0,0,0,.611.461,14.164,14.164,0,0,0,1.62.633,6.2,6.2,0,0,1,2.222,1.117A1.893,1.893,0,0,1,1578.785,4063.325Z" fill="#00223d"/>
        <path id="Trazado_9424" data-name="Trazado 9424" d="M1582.529,4063.8l.127.179a18.2,18.2,0,0,1-.633,1.817q-.412,1.035-.86,1.925h-1.054q.228-.812.5-2.007t.384-1.914Z" fill="#00223d"/>
        <path id="Trazado_9425" data-name="Trazado 9425" d="M1593.688,4065.817a4.432,4.432,0,0,1-3.234-1.156,4.279,4.279,0,0,1-1.185-3.211,4.721,4.721,0,0,1,1.1-3.289,3.785,3.785,0,0,1,2.956-1.219,3.627,3.627,0,0,1,2.75,1.059,3.871,3.871,0,0,1,1.012,2.793v.82h-6.368a3.233,3.233,0,0,0,.823,2.289,2.963,2.963,0,0,0,2.2.781,7.945,7.945,0,0,0,2.952-.578v1.156a7.746,7.746,0,0,1-1.405.426A8.5,8.5,0,0,1,1593.688,4065.817Zm-.379-7.789a2.385,2.385,0,0,0-1.776.672,2.98,2.98,0,0,0-.78,1.859h4.833a2.709,2.709,0,0,0-.591-1.879A2.159,2.159,0,0,0,1593.309,4058.028Z" fill="#00223d"/>
        <path id="Trazado_9426" data-name="Trazado 9426" d="M1602.755,4065.817a3.49,3.49,0,0,1-2.792-1.164,4.819,4.819,0,0,1-1-3.25,4.882,4.882,0,0,1,1.013-3.281,3.512,3.512,0,0,1,2.817-1.18,3.462,3.462,0,0,1,2.918,1.328h.076l.2-1.172h1.1V4069.5h-1.4v-3.664a8.1,8.1,0,0,1,.093-1.329h-.11A3.4,3.4,0,0,1,1602.755,4065.817Zm.211-1.086a2.654,2.654,0,0,0,2.041-.7,3.566,3.566,0,0,0,.683-2.344v-.289a4.04,4.04,0,0,0-.658-2.586,2.566,2.566,0,0,0-2.083-.789,2.2,2.2,0,0,0-1.885.887,4.159,4.159,0,0,0-.654,2.5,4.018,4.018,0,0,0,.645,2.465A2.252,2.252,0,0,0,1602.966,4064.731Z" fill="#00223d"/>
        <path id="Trazado_9427" data-name="Trazado 9427" d="M1611.375,4057.1v5.555a2.129,2.129,0,0,0,.514,1.563,2.2,2.2,0,0,0,1.611.515,2.743,2.743,0,0,0,2.122-.734,3.506,3.506,0,0,0,.67-2.4v-4.5h1.4v8.563h-1.155l-.2-1.149h-.076a2.727,2.727,0,0,1-1.193.969,4.284,4.284,0,0,1-1.742.336,3.715,3.715,0,0,1-2.526-.742,3.019,3.019,0,0,1-.839-2.375v-5.6Z" fill="#00223d"/>
        <path id="Trazado_9428" data-name="Trazado 9428" d="M1620.543,4054.778a.824.824,0,0,1,.236-.652.926.926,0,0,1,1.172,0,.811.811,0,0,1,.245.648.82.82,0,0,1-.245.652.849.849,0,0,1-.582.215.781.781,0,0,1-.826-.867Zm1.518,10.883h-1.4V4057.1h1.4Z" fill="#00223d"/>
        <path id="Trazado_9429" data-name="Trazado 9429" d="M1629.331,4065.817a4.274,4.274,0,0,1-1.649-.308,3.061,3.061,0,0,1-1.252-.95h-.1a10.737,10.737,0,0,1,.1,1.422v3.524h-1.4V4057.1h1.138l.2,1.172h.067a3.207,3.207,0,0,1,1.257-1.015,4.09,4.09,0,0,1,1.644-.313,3.539,3.539,0,0,1,2.838,1.164,5.813,5.813,0,0,1-.016,6.543A3.542,3.542,0,0,1,1629.331,4065.817Zm-.2-7.773a2.587,2.587,0,0,0-2.05.726,3.542,3.542,0,0,0-.649,2.313v.289a4.042,4.042,0,0,0,.649,2.582,2.57,2.57,0,0,0,2.084.777,2.219,2.219,0,0,0,1.876-.9,4.021,4.021,0,0,0,.679-2.477,3.874,3.874,0,0,0-.679-2.457A2.3,2.3,0,0,0,1629.129,4058.044Z" fill="#00223d"/>
        <path id="Trazado_9430" data-name="Trazado 9430" d="M1643.594,4061.372a4.5,4.5,0,0,1-1.139,3.269,4.171,4.171,0,0,1-3.146,1.176,4.429,4.429,0,0,1-2.2-.539,3.667,3.667,0,0,1-1.485-1.547,5.061,5.061,0,0,1-.522-2.359,4.494,4.494,0,0,1,1.13-3.262,4.163,4.163,0,0,1,3.137-1.168,4.069,4.069,0,0,1,3.083,1.2A4.486,4.486,0,0,1,1643.594,4061.372Zm-7.043,0a3.838,3.838,0,0,0,.709,2.5,2.965,2.965,0,0,0,4.17,0,3.828,3.828,0,0,0,.713-2.5,3.77,3.77,0,0,0-.713-2.481,2.6,2.6,0,0,0-2.1-.847,2.554,2.554,0,0,0-2.075.836A3.8,3.8,0,0,0,1636.551,4061.372Z" fill="#00223d"/>
        <path id="Trazado_9431" data-name="Trazado 9431" d="M1652.011,4063.325a2.093,2.093,0,0,1-.961,1.844,4.8,4.8,0,0,1-2.7.648,6.272,6.272,0,0,1-2.868-.539v-1.2a7.188,7.188,0,0,0,1.43.492,6.4,6.4,0,0,0,1.471.18,3.564,3.564,0,0,0,1.687-.324,1.072,1.072,0,0,0,.123-1.844,7.642,7.642,0,0,0-1.826-.84,10.316,10.316,0,0,1-1.835-.777,2.424,2.424,0,0,1-.81-.754,1.852,1.852,0,0,1-.265-1.008,1.883,1.883,0,0,1,.919-1.652,4.543,4.543,0,0,1,2.522-.606,7.885,7.885,0,0,1,2.918.563l-.5,1.054a7.178,7.178,0,0,0-2.522-.531,3.107,3.107,0,0,0-1.5.289.887.887,0,0,0-.506.8.923.923,0,0,0,.19.586,1.843,1.843,0,0,0,.612.461,14.194,14.194,0,0,0,1.619.633,6.209,6.209,0,0,1,2.223,1.117A1.893,1.893,0,0,1,1652.011,4063.325Z" fill="#00223d"/>
        <path id="Trazado_9432" data-name="Trazado 9432" d="M1655.756,4063.8l.127.179a18.749,18.749,0,0,1-.633,1.817q-.414,1.035-.86,1.925h-1.055q.228-.812.5-2.007t.384-1.914Z" fill="#00223d"/>
        <path id="Trazado_9433" data-name="Trazado 9433" d="M1543.791,4087.817a4.11,4.11,0,0,1-3.108-1.144,4.483,4.483,0,0,1-1.1-3.239,4.622,4.622,0,0,1,1.118-3.32,4.192,4.192,0,0,1,3.184-1.172,6.845,6.845,0,0,1,1.332.133,4.722,4.722,0,0,1,1.046.312l-.43,1.1a7.111,7.111,0,0,0-1.012-.285,4.888,4.888,0,0,0-.97-.113q-2.817,0-2.817,3.328a3.751,3.751,0,0,0,.687,2.422,2.474,2.474,0,0,0,2.037.843,6.637,6.637,0,0,0,2.37-.461v1.149A5.393,5.393,0,0,1,1543.791,4087.817Z" fill="#00223d"/>
        <path id="Trazado_9434" data-name="Trazado 9434" d="M1556.3,4083.372a4.5,4.5,0,0,1-1.139,3.269,4.171,4.171,0,0,1-3.146,1.176,4.429,4.429,0,0,1-2.2-.539,3.659,3.659,0,0,1-1.484-1.547,5.049,5.049,0,0,1-.523-2.359,4.494,4.494,0,0,1,1.13-3.262,4.163,4.163,0,0,1,3.137-1.168,4.069,4.069,0,0,1,3.083,1.2A4.486,4.486,0,0,1,1556.3,4083.372Zm-7.043,0a3.838,3.838,0,0,0,.709,2.5,2.965,2.965,0,0,0,4.17,0,3.822,3.822,0,0,0,.713-2.5,3.764,3.764,0,0,0-.713-2.481,2.6,2.6,0,0,0-2.1-.847,2.554,2.554,0,0,0-2.075.836A3.8,3.8,0,0,0,1549.256,4083.372Z" fill="#00223d"/>
        <path id="Trazado_9435" data-name="Trazado 9435" d="M1565.079,4087.661v-5.539a2.13,2.13,0,0,0-.515-1.563,2.2,2.2,0,0,0-1.61-.515,2.776,2.776,0,0,0-2.126.726,3.474,3.474,0,0,0-.675,2.4v4.492h-1.4V4079.1h1.139l.228,1.172h.067a2.8,2.8,0,0,1,1.206-.98,4.181,4.181,0,0,1,1.729-.348,3.7,3.7,0,0,1,2.514.746,3.036,3.036,0,0,1,.843,2.387v5.586Z" fill="#00223d"/>
        <path id="Trazado_9436" data-name="Trazado 9436" d="M1575.647,4086.512h-.076a3.38,3.38,0,0,1-2.9,1.3,3.555,3.555,0,0,1-2.821-1.148,4.8,4.8,0,0,1-1.008-3.266,4.874,4.874,0,0,1,1.012-3.289,3.525,3.525,0,0,1,2.817-1.172,3.463,3.463,0,0,1,2.884,1.266h.11l-.059-.617-.034-.6V4075.5h1.4v12.156h-1.138Zm-2.8.219a2.658,2.658,0,0,0,2.079-.722,3.456,3.456,0,0,0,.645-2.332v-.274a4.061,4.061,0,0,0-.653-2.6,2.586,2.586,0,0,0-2.088-.777,2.2,2.2,0,0,0-1.885.887,4.159,4.159,0,0,0-.654,2.5,3.985,3.985,0,0,0,.65,2.476A2.265,2.265,0,0,0,1572.847,4086.731Z" fill="#00223d"/>
        <path id="Trazado_9437" data-name="Trazado 9437" d="M1579.822,4076.778a.824.824,0,0,1,.236-.652.927.927,0,0,1,1.173,0,.81.81,0,0,1,.244.648.819.819,0,0,1-.244.652.907.907,0,0,1-1.173,0A.837.837,0,0,1,1579.822,4076.778Zm1.518,10.883h-1.4V4079.1h1.4Z" fill="#00223d"/>
        <path id="Trazado_9438" data-name="Trazado 9438" d="M1588,4087.817a4.11,4.11,0,0,1-3.108-1.144,4.487,4.487,0,0,1-1.1-3.239,4.622,4.622,0,0,1,1.117-3.32,4.192,4.192,0,0,1,3.184-1.172,6.855,6.855,0,0,1,1.333.133,4.722,4.722,0,0,1,1.046.312l-.431,1.1a7.073,7.073,0,0,0-1.012-.285,4.881,4.881,0,0,0-.97-.113q-2.817,0-2.817,3.328a3.746,3.746,0,0,0,.688,2.422,2.473,2.473,0,0,0,2.037.843,6.641,6.641,0,0,0,2.37-.461v1.149A5.4,5.4,0,0,1,1588,4087.817Z" fill="#00223d"/>
        <path id="Trazado_9439" data-name="Trazado 9439" d="M1592.415,4076.778a.821.821,0,0,1,.236-.652.926.926,0,0,1,1.172,0,.811.811,0,0,1,.245.648.82.82,0,0,1-.245.652.849.849,0,0,1-.582.215.781.781,0,0,1-.826-.867Zm1.518,10.883h-1.4V4079.1h1.4Z" fill="#00223d"/>
        <path id="Trazado_9440" data-name="Trazado 9440" d="M1604.88,4083.372a4.5,4.5,0,0,1-1.138,3.269,4.171,4.171,0,0,1-3.146,1.176,4.43,4.43,0,0,1-2.2-.539,3.659,3.659,0,0,1-1.484-1.547,5.049,5.049,0,0,1-.523-2.359,4.5,4.5,0,0,1,1.13-3.262,4.167,4.167,0,0,1,3.138-1.168,4.069,4.069,0,0,1,3.083,1.2A4.49,4.49,0,0,1,1604.88,4083.372Zm-7.042,0a3.844,3.844,0,0,0,.708,2.5,2.966,2.966,0,0,0,4.171,0,3.828,3.828,0,0,0,.713-2.5,3.77,3.77,0,0,0-.713-2.481,2.6,2.6,0,0,0-2.1-.847,2.554,2.554,0,0,0-2.075.836A3.8,3.8,0,0,0,1597.838,4083.372Z" fill="#00223d"/>
        <path id="Trazado_9441" data-name="Trazado 9441" d="M1613.661,4087.661v-5.539a2.13,2.13,0,0,0-.515-1.563,2.2,2.2,0,0,0-1.611-.515,2.774,2.774,0,0,0-2.125.726,3.473,3.473,0,0,0-.675,2.4v4.492h-1.4V4079.1h1.138l.228,1.172h.068a2.792,2.792,0,0,1,1.206-.98,4.177,4.177,0,0,1,1.729-.348,3.694,3.694,0,0,1,2.513.746,3.036,3.036,0,0,1,.843,2.387v5.586Z" fill="#00223d"/>
        <path id="Trazado_9442" data-name="Trazado 9442" d="M1621.842,4087.817a4.434,4.434,0,0,1-3.235-1.156,4.279,4.279,0,0,1-1.185-3.211,4.722,4.722,0,0,1,1.1-3.289,3.785,3.785,0,0,1,2.956-1.219,3.629,3.629,0,0,1,2.75,1.059,3.871,3.871,0,0,1,1.012,2.793v.82h-6.368a3.238,3.238,0,0,0,.822,2.289,2.964,2.964,0,0,0,2.2.781,7.938,7.938,0,0,0,2.952-.578v1.156a7.714,7.714,0,0,1-1.4.426A8.5,8.5,0,0,1,1621.842,4087.817Zm-.38-7.789a2.382,2.382,0,0,0-1.775.672,2.969,2.969,0,0,0-.78,1.859h4.832a2.709,2.709,0,0,0-.59-1.879A2.162,2.162,0,0,0,1621.462,4080.028Z" fill="#00223d"/>
        <path id="Trazado_9443" data-name="Trazado 9443" d="M1633.591,4085.325a2.094,2.094,0,0,1-.962,1.844,4.794,4.794,0,0,1-2.7.648,6.272,6.272,0,0,1-2.868-.539v-1.2a7.209,7.209,0,0,0,1.43.492,6.407,6.407,0,0,0,1.472.18,3.567,3.567,0,0,0,1.687-.324,1.059,1.059,0,0,0,.59-.989,1.048,1.048,0,0,0-.468-.855,7.638,7.638,0,0,0-1.826-.84,10.3,10.3,0,0,1-1.834-.777,2.413,2.413,0,0,1-.81-.754,1.852,1.852,0,0,1-.266-1.008,1.885,1.885,0,0,1,.919-1.652,4.542,4.542,0,0,1,2.522-.606,7.889,7.889,0,0,1,2.919.563l-.5,1.054a7.175,7.175,0,0,0-2.522-.531,3.1,3.1,0,0,0-1.5.289.887.887,0,0,0-.506.8.917.917,0,0,0,.19.586,1.835,1.835,0,0,0,.611.461,14.194,14.194,0,0,0,1.619.633,6.2,6.2,0,0,1,2.223,1.117A1.893,1.893,0,0,1,1633.591,4085.325Z" fill="#00223d"/>
        <path id="Trazado_9444" data-name="Trazado 9444" d="M1550.534,4109.817a4.431,4.431,0,0,1-3.234-1.156,4.277,4.277,0,0,1-1.186-3.211,4.721,4.721,0,0,1,1.1-3.289,3.785,3.785,0,0,1,2.956-1.219,3.628,3.628,0,0,1,2.75,1.059,3.872,3.872,0,0,1,1.012,2.793v.82h-6.368a3.233,3.233,0,0,0,.823,2.289,2.963,2.963,0,0,0,2.2.781,7.941,7.941,0,0,0,2.952-.578v1.156a7.764,7.764,0,0,1-1.405.426A8.5,8.5,0,0,1,1550.534,4109.817Zm-.38-7.789a2.383,2.383,0,0,0-1.775.672,2.978,2.978,0,0,0-.78,1.859h4.833a2.709,2.709,0,0,0-.591-1.879A2.161,2.161,0,0,0,1550.154,4102.028Z" fill="#00223d"/>
        <path id="Trazado_9445" data-name="Trazado 9445" d="M1562.283,4107.325a2.092,2.092,0,0,1-.962,1.844,4.79,4.79,0,0,1-2.7.648,6.265,6.265,0,0,1-2.868-.539v-1.2a7.149,7.149,0,0,0,1.43.492,6.391,6.391,0,0,0,1.471.18,3.56,3.56,0,0,0,1.687-.324,1.072,1.072,0,0,0,.123-1.844,7.628,7.628,0,0,0-1.827-.84,10.314,10.314,0,0,1-1.834-.777,2.413,2.413,0,0,1-.81-.754,1.853,1.853,0,0,1-.265-1.008,1.884,1.884,0,0,1,.919-1.652,4.542,4.542,0,0,1,2.522-.606,7.884,7.884,0,0,1,2.918.563l-.5,1.054a7.18,7.18,0,0,0-2.522-.531,3.107,3.107,0,0,0-1.5.289.886.886,0,0,0-.506.8.92.92,0,0,0,.19.586,1.854,1.854,0,0,0,.611.461,14.168,14.168,0,0,0,1.62.633,6.2,6.2,0,0,1,2.222,1.117A1.893,1.893,0,0,1,1562.283,4107.325Z" fill="#00223d"/>
        <path id="Trazado_9446" data-name="Trazado 9446" d="M1568.862,4109.817a4.267,4.267,0,0,1-1.649-.308,3.062,3.062,0,0,1-1.253-.95h-.1a10.576,10.576,0,0,1,.1,1.422v3.524h-1.4V4101.1h1.139l.194,1.172h.067a3.2,3.2,0,0,1,1.257-1.015,4.087,4.087,0,0,1,1.645-.313,3.539,3.539,0,0,1,2.838,1.164,5.815,5.815,0,0,1-.017,6.543A3.541,3.541,0,0,1,1568.862,4109.817Zm-.2-7.773a2.586,2.586,0,0,0-2.049.726,3.543,3.543,0,0,0-.65,2.313v.289a4.041,4.041,0,0,0,.65,2.582,2.567,2.567,0,0,0,2.083.777,2.222,2.222,0,0,0,1.877-.9,4.027,4.027,0,0,0,.679-2.477,3.88,3.88,0,0,0-.679-2.457A2.3,2.3,0,0,0,1568.659,4102.044Z" fill="#00223d"/>
        <path id="Trazado_9447" data-name="Trazado 9447" d="M1579.05,4109.817a4.431,4.431,0,0,1-3.234-1.156,4.28,4.28,0,0,1-1.185-3.211,4.721,4.721,0,0,1,1.1-3.289,3.784,3.784,0,0,1,2.956-1.219,3.625,3.625,0,0,1,2.749,1.059,3.872,3.872,0,0,1,1.012,2.793v.82h-6.368a3.241,3.241,0,0,0,.823,2.289,2.963,2.963,0,0,0,2.2.781,7.941,7.941,0,0,0,2.952-.578v1.156a7.78,7.78,0,0,1-1.4.426A8.509,8.509,0,0,1,1579.05,4109.817Zm-.379-7.789a2.385,2.385,0,0,0-1.776.672,2.978,2.978,0,0,0-.78,1.859h4.833a2.714,2.714,0,0,0-.59-1.879A2.162,2.162,0,0,0,1578.671,4102.028Z" fill="#00223d"/>
        <path id="Trazado_9448" data-name="Trazado 9448" d="M1588.53,4109.817a4.106,4.106,0,0,1-3.107-1.144,4.481,4.481,0,0,1-1.1-3.239,4.623,4.623,0,0,1,1.117-3.32,4.194,4.194,0,0,1,3.184-1.172,6.82,6.82,0,0,1,1.333.133,4.7,4.7,0,0,1,1.046.312l-.431,1.1a7.1,7.1,0,0,0-1.011-.285,4.893,4.893,0,0,0-.97-.113q-2.818,0-2.818,3.328a3.745,3.745,0,0,0,.688,2.422,2.474,2.474,0,0,0,2.037.843,6.651,6.651,0,0,0,2.37-.461v1.149A5.4,5.4,0,0,1,1588.53,4109.817Z" fill="#00223d"/>
        <path id="Trazado_9449" data-name="Trazado 9449" d="M1592.942,4098.778a.821.821,0,0,1,.236-.652.926.926,0,0,1,1.172,0,.81.81,0,0,1,.245.648.821.821,0,0,1-.245.652.848.848,0,0,1-.582.215.78.78,0,0,1-.826-.867Zm1.518,10.883h-1.4V4101.1h1.4Z" fill="#00223d"/>
        <path id="Trazado_9450" data-name="Trazado 9450" d="M1603.113,4109.661l-.278-1.219h-.067a3.829,3.829,0,0,1-1.379,1.09,4.509,4.509,0,0,1-1.717.285,3.25,3.25,0,0,1-2.155-.656,2.305,2.305,0,0,1-.78-1.867q0-2.594,4.479-2.719l1.568-.047V4104a2.063,2.063,0,0,0-.468-1.488,2.014,2.014,0,0,0-1.5-.481,6.488,6.488,0,0,0-2.614.656l-.431-.992a7.145,7.145,0,0,1,3.13-.734,3.714,3.714,0,0,1,2.45.679,2.718,2.718,0,0,1,.8,2.18v5.844Zm-3.162-.914a2.978,2.978,0,0,0,2.053-.664,2.36,2.36,0,0,0,.747-1.86v-.773l-1.4.055a5.453,5.453,0,0,0-2.408.48,1.424,1.424,0,0,0-.738,1.324,1.291,1.291,0,0,0,.459,1.071A2.012,2.012,0,0,0,1599.951,4108.747Z" fill="#00223d"/>
        <path id="Trazado_9451" data-name="Trazado 9451" d="M1608.435,4109.661h-1.4V4097.5h1.4Z" fill="#00223d"/>
        <path id="Trazado_9452" data-name="Trazado 9452" d="M1615.31,4109.817a4.433,4.433,0,0,1-3.235-1.156,4.28,4.28,0,0,1-1.185-3.211,4.721,4.721,0,0,1,1.1-3.289,3.784,3.784,0,0,1,2.956-1.219A3.625,3.625,0,0,1,1617.7,4102a3.872,3.872,0,0,1,1.012,2.793v.82h-6.367a3.237,3.237,0,0,0,.822,2.289,2.963,2.963,0,0,0,2.2.781,7.941,7.941,0,0,0,2.952-.578v1.156a7.779,7.779,0,0,1-1.4.426A8.5,8.5,0,0,1,1615.31,4109.817Zm-.38-7.789a2.385,2.385,0,0,0-1.776.672,2.978,2.978,0,0,0-.78,1.859h4.833a2.713,2.713,0,0,0-.59-1.879A2.162,2.162,0,0,0,1614.93,4102.028Z" fill="#00223d"/>
        <path id="Trazado_9453" data-name="Trazado 9453" d="M1627.058,4107.325a2.093,2.093,0,0,1-.961,1.844,4.8,4.8,0,0,1-2.7.648,6.265,6.265,0,0,1-2.868-.539v-1.2a7.172,7.172,0,0,0,1.43.492,6.4,6.4,0,0,0,1.472.18,3.553,3.553,0,0,0,1.686-.324,1.072,1.072,0,0,0,.123-1.844,7.64,7.64,0,0,0-1.826-.84,10.3,10.3,0,0,1-1.835-.777,2.424,2.424,0,0,1-.81-.754,1.853,1.853,0,0,1-.265-1.008,1.884,1.884,0,0,1,.919-1.652,4.545,4.545,0,0,1,2.522-.606,7.885,7.885,0,0,1,2.918.563l-.5,1.054a7.179,7.179,0,0,0-2.522-.531,3.107,3.107,0,0,0-1.5.289.885.885,0,0,0-.505.8.925.925,0,0,0,.189.586,1.859,1.859,0,0,0,.612.461,14.207,14.207,0,0,0,1.619.633,6.208,6.208,0,0,1,2.223,1.117A1.892,1.892,0,0,1,1627.058,4107.325Z" fill="#00223d"/>
      </g>
    </g>
    <g id="Grupo_9267" data-name="Grupo 9267">
      <g id="Grupo_9266" data-name="Grupo 9266">
        <path id="Trazado_9454" data-name="Trazado 9454" d="M1527.293,4156.648a4.187,4.187,0,0,0-3.209,1.254,4.819,4.819,0,0,0-1.177,3.433,4.907,4.907,0,0,0,1.135,3.465,4.193,4.193,0,0,0,3.235,1.223,11.826,11.826,0,0,0,2.943-.43v1.164a9.714,9.714,0,0,1-3.163.445,5.575,5.575,0,0,1-4.2-1.531,6,6,0,0,1-1.48-4.351,6.444,6.444,0,0,1,.712-3.094,4.906,4.906,0,0,1,2.058-2.047,6.63,6.63,0,0,1,3.167-.719,8.17,8.17,0,0,1,3.391.656l-.608,1.141A6.97,6.97,0,0,0,1527.293,4156.648Z" fill="#00223d"/>
        <path id="Trazado_9455" data-name="Trazado 9455" d="M1540.678,4162.757a4.5,4.5,0,0,1-1.138,3.27,4.178,4.178,0,0,1-3.146,1.175,4.417,4.417,0,0,1-2.2-.539,3.66,3.66,0,0,1-1.485-1.547,5.06,5.06,0,0,1-.523-2.359,4.5,4.5,0,0,1,1.13-3.262,4.166,4.166,0,0,1,3.138-1.168,4.066,4.066,0,0,1,3.083,1.2A4.485,4.485,0,0,1,1540.678,4162.757Zm-7.042,0a3.845,3.845,0,0,0,.708,2.5,2.966,2.966,0,0,0,4.171,0,3.828,3.828,0,0,0,.713-2.5,3.765,3.765,0,0,0-.713-2.48,2.593,2.593,0,0,0-2.1-.848,2.553,2.553,0,0,0-2.075.836A3.8,3.8,0,0,0,1533.636,4162.757Z" fill="#00223d"/>
        <path id="Trazado_9456" data-name="Trazado 9456" d="M1554.916,4167.046v-5.57a2.194,2.194,0,0,0-.473-1.535,1.9,1.9,0,0,0-1.467-.512,2.471,2.471,0,0,0-1.932.695,3.134,3.134,0,0,0-.624,2.141v4.781h-1.4v-5.57a2.194,2.194,0,0,0-.472-1.535,1.916,1.916,0,0,0-1.476-.512,2.379,2.379,0,0,0-1.928.73,3.736,3.736,0,0,0-.611,2.4v4.492h-1.4v-8.562h1.139l.227,1.172h.068a2.672,2.672,0,0,1,1.117-.977,3.639,3.639,0,0,1,1.616-.352,2.786,2.786,0,0,1,2.833,1.454h.068a2.859,2.859,0,0,1,1.2-1.063,3.964,3.964,0,0,1,1.788-.391,3.285,3.285,0,0,1,2.349.746,3.179,3.179,0,0,1,.78,2.387v5.586Z" fill="#00223d"/>
        <path id="Trazado_9457" data-name="Trazado 9457" d="M1560.516,4158.484v5.554a2.134,2.134,0,0,0,.514,1.563,2.2,2.2,0,0,0,1.612.515,2.74,2.74,0,0,0,2.121-.734,3.506,3.506,0,0,0,.67-2.4v-4.5h1.4v8.562h-1.155l-.2-1.148h-.075a2.739,2.739,0,0,1-1.194.968,4.272,4.272,0,0,1-1.741.336,3.72,3.72,0,0,1-2.527-.742,3.019,3.019,0,0,1-.839-2.375v-5.6Z" fill="#00223d"/>
        <path id="Trazado_9458" data-name="Trazado 9458" d="M1576.128,4167.046v-5.539a2.126,2.126,0,0,0-.515-1.562,2.2,2.2,0,0,0-1.611-.516,2.773,2.773,0,0,0-2.125.727,3.471,3.471,0,0,0-.675,2.4v4.492h-1.4v-8.562h1.139l.228,1.172h.067a2.811,2.811,0,0,1,1.206-.981,4.18,4.18,0,0,1,1.729-.348,3.7,3.7,0,0,1,2.514.746,3.036,3.036,0,0,1,.843,2.387v5.586Z" fill="#00223d"/>
        <path id="Trazado_9459" data-name="Trazado 9459" d="M1580.286,4156.163a.824.824,0,0,1,.236-.652.927.927,0,0,1,1.173,0,.81.81,0,0,1,.244.648.823.823,0,0,1-.244.653.856.856,0,0,1-.582.215.781.781,0,0,1-.827-.868Zm1.518,10.883h-1.4v-8.562h1.4Z" fill="#00223d"/>
        <path id="Trazado_9460" data-name="Trazado 9460" d="M1588.467,4167.2a4.112,4.112,0,0,1-3.108-1.144,4.482,4.482,0,0,1-1.1-3.238,4.623,4.623,0,0,1,1.118-3.321,4.191,4.191,0,0,1,3.184-1.172,6.862,6.862,0,0,1,1.333.133,4.655,4.655,0,0,1,1.046.313l-.431,1.1a7.074,7.074,0,0,0-1.012-.285,4.843,4.843,0,0,0-.97-.113q-2.817,0-2.817,3.328a3.745,3.745,0,0,0,.688,2.422,2.474,2.474,0,0,0,2.037.844,6.661,6.661,0,0,0,2.37-.461v1.148A5.39,5.39,0,0,1,1588.467,4167.2Z" fill="#00223d"/>
        <path id="Trazado_9461" data-name="Trazado 9461" d="M1598.681,4167.046l-.278-1.219h-.068a3.822,3.822,0,0,1-1.379,1.09,4.5,4.5,0,0,1-1.716.285,3.243,3.243,0,0,1-2.155-.656,2.3,2.3,0,0,1-.78-1.867q0-2.594,4.478-2.719l1.569-.047v-.531a2.061,2.061,0,0,0-.468-1.488,2.014,2.014,0,0,0-1.5-.481,6.481,6.481,0,0,0-2.615.657l-.43-.993a7.155,7.155,0,0,1,3.129-.734,3.717,3.717,0,0,1,2.451.68,2.715,2.715,0,0,1,.8,2.179v5.844Zm-3.163-.914a2.978,2.978,0,0,0,2.054-.664,2.358,2.358,0,0,0,.747-1.859v-.774l-1.4.055a5.442,5.442,0,0,0-2.408.48,1.422,1.422,0,0,0-.738,1.325,1.288,1.288,0,0,0,.46,1.07A2.013,2.013,0,0,0,1595.518,4166.132Z" fill="#00223d"/>
        <path id="Trazado_9462" data-name="Trazado 9462" d="M1606.3,4167.2a4.112,4.112,0,0,1-3.109-1.144,4.487,4.487,0,0,1-1.1-3.238,4.623,4.623,0,0,1,1.117-3.321,4.191,4.191,0,0,1,3.184-1.172,6.856,6.856,0,0,1,1.333.133,4.643,4.643,0,0,1,1.046.313l-.43,1.1a7.123,7.123,0,0,0-1.013-.285,4.844,4.844,0,0,0-.97-.113q-2.817,0-2.817,3.328a3.745,3.745,0,0,0,.688,2.422,2.474,2.474,0,0,0,2.037.844,6.662,6.662,0,0,0,2.37-.461v1.148A5.386,5.386,0,0,1,1606.3,4167.2Z" fill="#00223d"/>
        <path id="Trazado_9463" data-name="Trazado 9463" d="M1610.708,4156.163a.821.821,0,0,1,.237-.652.926.926,0,0,1,1.172,0,.81.81,0,0,1,.245.648.823.823,0,0,1-.245.653.853.853,0,0,1-.582.215.782.782,0,0,1-.827-.868Zm1.519,10.883h-1.4v-8.562h1.4Z" fill="#00223d"/>
        <path id="Trazado_9464" data-name="Trazado 9464" d="M1623.174,4162.757a4.5,4.5,0,0,1-1.138,3.27,4.178,4.178,0,0,1-3.146,1.175,4.42,4.42,0,0,1-2.2-.539,3.658,3.658,0,0,1-1.484-1.547,5.048,5.048,0,0,1-.523-2.359,4.5,4.5,0,0,1,1.13-3.262,4.165,4.165,0,0,1,3.138-1.168,4.064,4.064,0,0,1,3.082,1.2A4.485,4.485,0,0,1,1623.174,4162.757Zm-7.042,0a3.845,3.845,0,0,0,.708,2.5,2.966,2.966,0,0,0,4.171,0,3.828,3.828,0,0,0,.713-2.5,3.765,3.765,0,0,0-.713-2.48,2.6,2.6,0,0,0-2.1-.848,2.552,2.552,0,0,0-2.074.836A3.8,3.8,0,0,0,1616.132,4162.757Z" fill="#00223d"/>
        <path id="Trazado_9465" data-name="Trazado 9465" d="M1631.954,4167.046v-5.539a2.125,2.125,0,0,0-.514-1.562,2.2,2.2,0,0,0-1.611-.516,2.771,2.771,0,0,0-2.125.727,3.471,3.471,0,0,0-.675,2.4v4.492h-1.4v-8.562h1.138l.228,1.172h.067a2.807,2.807,0,0,1,1.207-.981,4.176,4.176,0,0,1,1.729-.348,3.694,3.694,0,0,1,2.513.746,3.035,3.035,0,0,1,.843,2.387v5.586Z" fill="#00223d"/>
        <path id="Trazado_9466" data-name="Trazado 9466" d="M1640.136,4167.2a4.433,4.433,0,0,1-3.235-1.156,4.279,4.279,0,0,1-1.185-3.211,4.723,4.723,0,0,1,1.1-3.289,3.787,3.787,0,0,1,2.956-1.219,3.625,3.625,0,0,1,2.75,1.059,3.876,3.876,0,0,1,1.012,2.793v.82h-6.368a3.239,3.239,0,0,0,.822,2.289,2.968,2.968,0,0,0,2.2.782,7.946,7.946,0,0,0,2.952-.579v1.157a7.853,7.853,0,0,1-1.4.425A8.5,8.5,0,0,1,1640.136,4167.2Zm-.38-7.789a2.379,2.379,0,0,0-1.775.672,2.976,2.976,0,0,0-.781,1.86h4.833a2.705,2.705,0,0,0-.59-1.879A2.158,2.158,0,0,0,1639.756,4159.413Z" fill="#00223d"/>
        <path id="Trazado_9467" data-name="Trazado 9467" d="M1651.885,4164.71a2.1,2.1,0,0,1-.962,1.844,4.8,4.8,0,0,1-2.7.648,6.251,6.251,0,0,1-2.867-.539v-1.2a7.17,7.17,0,0,0,1.429.492,6.433,6.433,0,0,0,1.472.18,3.566,3.566,0,0,0,1.687-.324,1.072,1.072,0,0,0,.122-1.844,7.6,7.6,0,0,0-1.826-.84,10.373,10.373,0,0,1-1.835-.777,2.42,2.42,0,0,1-.809-.754,1.851,1.851,0,0,1-.266-1.008,1.883,1.883,0,0,1,.92-1.652,4.535,4.535,0,0,1,2.521-.606,7.89,7.89,0,0,1,2.919.563l-.5,1.055a7.155,7.155,0,0,0-2.522-.532,3.1,3.1,0,0,0-1.5.289.886.886,0,0,0-.506.8.918.918,0,0,0,.19.586,1.835,1.835,0,0,0,.611.461,14.247,14.247,0,0,0,1.62.633,6.194,6.194,0,0,1,2.222,1.117A1.892,1.892,0,0,1,1651.885,4164.71Z" fill="#00223d"/>
      </g>
    </g>
    <g id="Grupo_9269" data-name="Grupo 9269">
      <g id="Grupo_9268" data-name="Grupo 9268">
        <path id="Trazado_9468" data-name="Trazado 9468" d="M1520.445,4228.845h-1.434V4218.6h-3.905v-1.179h9.244v1.179h-3.905Z" fill="#00223d"/>
        <path id="Trazado_9469" data-name="Trazado 9469" d="M1531.679,4228.845l-.278-1.218h-.068a3.818,3.818,0,0,1-1.379,1.09,4.49,4.49,0,0,1-1.716.285,3.243,3.243,0,0,1-2.155-.657,2.3,2.3,0,0,1-.78-1.867q0-2.592,4.478-2.718l1.569-.047v-.532a2.064,2.064,0,0,0-.468-1.488,2.018,2.018,0,0,0-1.5-.48,6.476,6.476,0,0,0-2.615.656l-.43-.992a6.916,6.916,0,0,1,1.5-.539,6.994,6.994,0,0,1,1.632-.2,3.72,3.72,0,0,1,2.451.68,2.718,2.718,0,0,1,.8,2.18v5.843Zm-3.163-.914a2.975,2.975,0,0,0,2.054-.664,2.356,2.356,0,0,0,.747-1.859v-.773l-1.4.054a5.44,5.44,0,0,0-2.408.481,1.423,1.423,0,0,0-.738,1.324,1.288,1.288,0,0,0,.46,1.07A2.008,2.008,0,0,0,1528.516,4227.931Z" fill="#00223d"/>
        <path id="Trazado_9470" data-name="Trazado 9470" d="M1539.9,4220.142a3.56,3.56,0,0,1,2.829,1.153,5.788,5.788,0,0,1-.008,6.539A3.542,3.542,0,0,1,1539.9,4229a4.267,4.267,0,0,1-1.649-.309,3.055,3.055,0,0,1-1.253-.949h-.1l-.3,1.1h-1v-12.156h1.4v2.953q0,.993-.067,1.782H1537A3.426,3.426,0,0,1,1539.9,4220.142Zm-.2,1.086a2.538,2.538,0,0,0-2.066.762,5.485,5.485,0,0,0,.017,5.148,2.564,2.564,0,0,0,2.083.778,2.22,2.22,0,0,0,1.923-.871,4.214,4.214,0,0,0,.633-2.5,4.054,4.054,0,0,0-.633-2.492A2.316,2.316,0,0,0,1539.7,4221.228Z" fill="#00223d"/>
        <path id="Trazado_9471" data-name="Trazado 9471" d="M1547.586,4228.845h-1.4v-12.156h1.4Z" fill="#00223d"/>
        <path id="Trazado_9472" data-name="Trazado 9472" d="M1556.24,4228.845l-.278-1.218h-.068a3.826,3.826,0,0,1-1.379,1.09,4.49,4.49,0,0,1-1.716.285,3.243,3.243,0,0,1-2.155-.657,2.3,2.3,0,0,1-.781-1.867q0-2.592,4.479-2.718l1.569-.047v-.532a2.064,2.064,0,0,0-.468-1.488,2.018,2.018,0,0,0-1.5-.48,6.475,6.475,0,0,0-2.615.656l-.43-.992a6.875,6.875,0,0,1,1.5-.539,7,7,0,0,1,1.632-.2,3.715,3.715,0,0,1,2.45.68,2.718,2.718,0,0,1,.8,2.18v5.843Zm-3.163-.914a2.977,2.977,0,0,0,2.054-.664,2.359,2.359,0,0,0,.746-1.859v-.773l-1.4.054a5.441,5.441,0,0,0-2.408.481,1.423,1.423,0,0,0-.738,1.324,1.285,1.285,0,0,0,.46,1.07A2.008,2.008,0,0,0,1553.077,4227.931Z" fill="#00223d"/>
        <path id="Trazado_9473" data-name="Trazado 9473" d="M1566.125,4226.51a2.093,2.093,0,0,1-.962,1.843,4.785,4.785,0,0,1-2.7.649,6.264,6.264,0,0,1-2.867-.539v-1.2a7.255,7.255,0,0,0,1.429.492,6.4,6.4,0,0,0,1.472.179,3.548,3.548,0,0,0,1.687-.324,1.072,1.072,0,0,0,.122-1.844,7.648,7.648,0,0,0-1.826-.839,10.2,10.2,0,0,1-1.834-.778,2.4,2.4,0,0,1-.81-.754,1.853,1.853,0,0,1-.266-1.007,1.885,1.885,0,0,1,.92-1.653,4.547,4.547,0,0,1,2.521-.6,7.885,7.885,0,0,1,2.919.562l-.5,1.055a7.149,7.149,0,0,0-2.522-.531,3.091,3.091,0,0,0-1.5.289.886.886,0,0,0-.506.8.919.919,0,0,0,.19.586,1.822,1.822,0,0,0,.611.46,13.808,13.808,0,0,0,1.62.633,6.2,6.2,0,0,1,2.222,1.117A1.893,1.893,0,0,1,1566.125,4226.51Z" fill="#00223d"/>
        <path id="Trazado_9474" data-name="Trazado 9474" d="M1571.422,4220.283h1.5l2.024,4.883a17.709,17.709,0,0,1,.827,2.414h.067q.109-.4.46-1.363t2.29-5.934h1.5l-3.973,9.75a4.829,4.829,0,0,1-1.379,2.051,3.081,3.081,0,0,1-1.935.6,6.033,6.033,0,0,1-1.265-.133v-1.039a5.214,5.214,0,0,0,1.037.094,2.118,2.118,0,0,0,2.058-1.5l.515-1.219Z" fill="#00223d"/>
        <path id="Trazado_9475" data-name="Trazado 9475" d="M1589.986,4229a4.429,4.429,0,0,1-3.235-1.157,4.277,4.277,0,0,1-1.185-3.21,4.725,4.725,0,0,1,1.1-3.29,3.787,3.787,0,0,1,2.956-1.218,3.626,3.626,0,0,1,2.749,1.058,3.872,3.872,0,0,1,1.012,2.793v.821h-6.367a3.241,3.241,0,0,0,.822,2.289,2.968,2.968,0,0,0,2.2.781,7.95,7.95,0,0,0,2.952-.578v1.156a7.822,7.822,0,0,1-1.4.426A8.5,8.5,0,0,1,1589.986,4229Zm-.38-7.789a2.382,2.382,0,0,0-1.776.672,2.982,2.982,0,0,0-.78,1.859h4.833a2.712,2.712,0,0,0-.59-1.879A2.159,2.159,0,0,0,1589.606,4221.213Z" fill="#00223d"/>
        <path id="Trazado_9476" data-name="Trazado 9476" d="M1594.65,4232.689a3.615,3.615,0,0,1-1.3-.195v-1.055a4.37,4.37,0,0,0,1.147.156,1.26,1.26,0,0,0,.966-.332,1.445,1.445,0,0,0,.307-1.011v-9.969h1.4v9.875A2.233,2.233,0,0,1,1594.65,4232.689Zm1-14.726a.828.828,0,0,1,.236-.653.927.927,0,0,1,1.173,0,.813.813,0,0,1,.244.649.822.822,0,0,1-.244.652.908.908,0,0,1-1.173,0A.84.84,0,0,1,1595.653,4217.963Z" fill="#00223d"/>
        <path id="Trazado_9477" data-name="Trazado 9477" d="M1604.045,4229a4.428,4.428,0,0,1-3.234-1.157,4.276,4.276,0,0,1-1.185-3.21,4.725,4.725,0,0,1,1.1-3.29,3.786,3.786,0,0,1,2.956-1.218,3.625,3.625,0,0,1,2.749,1.058,3.873,3.873,0,0,1,1.013,2.793v.821h-6.369a3.245,3.245,0,0,0,.823,2.289,2.966,2.966,0,0,0,2.2.781,7.95,7.95,0,0,0,2.952-.578v1.156a7.824,7.824,0,0,1-1.4.426A8.509,8.509,0,0,1,1604.045,4229Zm-.379-7.789a2.383,2.383,0,0,0-1.776.672,2.981,2.981,0,0,0-.78,1.859h4.833a2.712,2.712,0,0,0-.59-1.879A2.159,2.159,0,0,0,1603.666,4221.213Z" fill="#00223d"/>
        <path id="Trazado_9478" data-name="Trazado 9478" d="M1621.614,4228.845v-5.57a2.2,2.2,0,0,0-.472-1.535,1.906,1.906,0,0,0-1.468-.512,2.469,2.469,0,0,0-1.931.7,3.125,3.125,0,0,0-.624,2.14v4.781h-1.4v-5.57a2.194,2.194,0,0,0-.472-1.535,1.918,1.918,0,0,0-1.476-.512,2.375,2.375,0,0,0-1.927.731,3.727,3.727,0,0,0-.612,2.394v4.492h-1.4v-8.562h1.139l.228,1.172h.067a2.683,2.683,0,0,1,1.118-.977,3.64,3.64,0,0,1,1.615-.351,2.788,2.788,0,0,1,2.834,1.453h.067a2.872,2.872,0,0,1,1.2-1.063,3.973,3.973,0,0,1,1.788-.39,3.284,3.284,0,0,1,2.349.746,3.179,3.179,0,0,1,.78,2.387v5.585Z" fill="#00223d"/>
        <path id="Trazado_9479" data-name="Trazado 9479" d="M1630.2,4229a4.27,4.27,0,0,1-1.649-.309,3.046,3.046,0,0,1-1.252-.949h-.1a10.567,10.567,0,0,1,.1,1.422v3.523h-1.4v-12.406h1.138l.194,1.172h.068a3.188,3.188,0,0,1,1.256-1.016,4.086,4.086,0,0,1,1.645-.312,3.537,3.537,0,0,1,2.838,1.164,5.811,5.811,0,0,1-.017,6.543A3.541,3.541,0,0,1,1630.2,4229Zm-.2-7.774a2.585,2.585,0,0,0-2.05.727,3.54,3.54,0,0,0-.649,2.312v.289a4.038,4.038,0,0,0,.649,2.582,2.564,2.564,0,0,0,2.083.778,2.219,2.219,0,0,0,1.877-.9,4.018,4.018,0,0,0,.679-2.476,3.871,3.871,0,0,0-.679-2.457A2.3,2.3,0,0,0,1630,4221.228Z" fill="#00223d"/>
        <path id="Trazado_9480" data-name="Trazado 9480" d="M1637.884,4228.845h-1.4v-12.156h1.4Z" fill="#00223d"/>
        <path id="Trazado_9481" data-name="Trazado 9481" d="M1648.831,4224.556a4.5,4.5,0,0,1-1.138,3.27,4.176,4.176,0,0,1-3.146,1.176,4.434,4.434,0,0,1-2.2-.539,3.669,3.669,0,0,1-1.484-1.547,5.05,5.05,0,0,1-.523-2.36,4.5,4.5,0,0,1,1.13-3.261,4.164,4.164,0,0,1,3.138-1.168,4.067,4.067,0,0,1,3.083,1.195A4.49,4.49,0,0,1,1648.831,4224.556Zm-7.042,0a3.845,3.845,0,0,0,.708,2.5,2.964,2.964,0,0,0,4.171,0,3.824,3.824,0,0,0,.713-2.5,3.765,3.765,0,0,0-.713-2.48,2.6,2.6,0,0,0-2.1-.848,2.556,2.556,0,0,0-2.075.836A3.807,3.807,0,0,0,1641.789,4224.556Z" fill="#00223d"/>
        <path id="Trazado_9482" data-name="Trazado 9482" d="M1657.249,4226.51a2.093,2.093,0,0,1-.962,1.843,4.785,4.785,0,0,1-2.7.649,6.268,6.268,0,0,1-2.867-.539v-1.2a7.258,7.258,0,0,0,1.429.492,6.4,6.4,0,0,0,1.472.179,3.548,3.548,0,0,0,1.687-.324,1.072,1.072,0,0,0,.122-1.844,7.648,7.648,0,0,0-1.826-.839,10.2,10.2,0,0,1-1.834-.778,2.4,2.4,0,0,1-.81-.754,1.852,1.852,0,0,1-.265-1.007,1.884,1.884,0,0,1,.919-1.653,4.547,4.547,0,0,1,2.521-.6,7.885,7.885,0,0,1,2.919.562l-.5,1.055a7.149,7.149,0,0,0-2.522-.531,3.091,3.091,0,0,0-1.5.289.886.886,0,0,0-.506.8.919.919,0,0,0,.19.586,1.822,1.822,0,0,0,.611.46,13.808,13.808,0,0,0,1.62.633,6.2,6.2,0,0,1,2.222,1.117A1.893,1.893,0,0,1,1657.249,4226.51Z" fill="#00223d"/>
      </g>
    </g>
    <path id="Trazado_9483" data-name="Trazado 9483" d="M1704.446,3982.615v1.718h-17.193a2.645,2.645,0,0,0-2.645,2.645v.99a2.645,2.645,0,0,0,2.645,2.646h17.193v1.718a2.16,2.16,0,0,0,3.127,1.932l9.716-4.858a2.16,2.16,0,0,0,0-3.865l-9.716-4.858A2.16,2.16,0,0,0,1704.446,3982.615Z" fill="#0b92dd"/>
    <path id="Trazado_9484" data-name="Trazado 9484" d="M1704.446,4077.217v1.718h-17.193a2.645,2.645,0,0,0-2.645,2.645v.99a2.646,2.646,0,0,0,2.645,2.646h17.193v1.717a2.161,2.161,0,0,0,3.127,1.933l9.716-4.858a2.16,2.16,0,0,0,0-3.865l-9.716-4.859A2.161,2.161,0,0,0,1704.446,4077.217Z" fill="#0b92dd"/>
    <path id="Trazado_9485" data-name="Trazado 9485" d="M1704.446,4157.5v1.718h-17.193a2.646,2.646,0,0,0-2.645,2.646v.989a2.645,2.645,0,0,0,2.645,2.646h17.193v1.718a2.16,2.16,0,0,0,3.127,1.932l9.716-4.858a2.16,2.16,0,0,0,0-3.865l-9.716-4.858A2.161,2.161,0,0,0,1704.446,4157.5Z" fill="#0b92dd"/>
    <path id="Trazado_9486" data-name="Trazado 9486" d="M1704.446,4219.3v1.718h-17.193a2.646,2.646,0,0,0-2.645,2.646v.989a2.645,2.645,0,0,0,2.645,2.646h17.193v1.718a2.161,2.161,0,0,0,3.127,1.932l9.716-4.858a2.16,2.16,0,0,0,0-3.865l-9.716-4.858A2.16,2.16,0,0,0,1704.446,4219.3Z" fill="#0b92dd"/>
    <path id="Trazado_9487" data-name="Trazado 9487" d="M1474.55,3982.615v1.718h-17.192a2.646,2.646,0,0,0-2.646,2.645v.99a2.646,2.646,0,0,0,2.646,2.646h17.192v1.718a2.161,2.161,0,0,0,3.127,1.932l9.717-4.858a2.161,2.161,0,0,0,0-3.865l-9.717-4.858A2.16,2.16,0,0,0,1474.55,3982.615Z" fill="#0b92dd"/>
    <path id="Trazado_9488" data-name="Trazado 9488" d="M1474.55,4077.217v1.718h-17.192a2.645,2.645,0,0,0-2.646,2.645v.99a2.646,2.646,0,0,0,2.646,2.646h17.192v1.717a2.161,2.161,0,0,0,3.127,1.933l9.717-4.858a2.161,2.161,0,0,0,0-3.865l-9.717-4.859A2.161,2.161,0,0,0,1474.55,4077.217Z" fill="#0b92dd"/>
    <path id="Trazado_9489" data-name="Trazado 9489" d="M1474.55,4157.5v1.718h-17.192a2.646,2.646,0,0,0-2.646,2.646v.989a2.646,2.646,0,0,0,2.646,2.646h17.192v1.718a2.16,2.16,0,0,0,3.127,1.932l9.717-4.858a2.161,2.161,0,0,0,0-3.865l-9.717-4.858A2.161,2.161,0,0,0,1474.55,4157.5Z" fill="#0b92dd"/>
    <path id="Trazado_9490" data-name="Trazado 9490" d="M1474.55,4219.3v1.718h-17.192a2.646,2.646,0,0,0-2.646,2.646v.989a2.645,2.645,0,0,0,2.646,2.646h17.192v1.718a2.161,2.161,0,0,0,3.127,1.932l9.717-4.858a2.161,2.161,0,0,0,0-3.865l-9.717-4.858A2.16,2.16,0,0,0,1474.55,4219.3Z" fill="#0b92dd"/>
    <g id="Grupo_9270" data-name="Grupo 9270">
      <path id="Trazado_9491" data-name="Trazado 9491" d="M1335.76,4111.892h-3.739l-6.034-9.721h-.086q.18,2.576.18,3.674v6.047h-2.628v-12.85h3.71l6.025,9.624h.067q-.142-2.5-.142-3.542v-6.082h2.647Z" fill="#fff"/>
      <path id="Trazado_9492" data-name="Trazado 9492" d="M1344.6,4111.892h-2.941V4101.31H1337.9v-2.268h10.475v2.268H1344.6Z" fill="#fff"/>
      <path id="Trazado_9493" data-name="Trazado 9493" d="M1356.4,4101.125a3.083,3.083,0,0,0-2.571,1.156,5.086,5.086,0,0,0-.911,3.221q0,4.3,3.482,4.3a11.768,11.768,0,0,0,3.539-.677v2.285a10.5,10.5,0,0,1-3.814.66,6.059,6.059,0,0,1-4.63-1.7,6.851,6.851,0,0,1-1.6-4.882,7.48,7.48,0,0,1,.788-3.512,5.437,5.437,0,0,1,2.263-2.311,7.114,7.114,0,0,1,3.458-.8,9.935,9.935,0,0,1,4.061.905l-.948,2.215a16.35,16.35,0,0,0-1.566-.6A5.008,5.008,0,0,0,1356.4,4101.125Z" fill="#fff"/>
      <path id="Trazado_9494" data-name="Trazado 9494" d="M1376.665,4111.892h-9.7V4110l3.482-3.261q1.547-1.467,2.021-2.034a4.407,4.407,0,0,0,.683-1.051,2.5,2.5,0,0,0,.209-1,1.406,1.406,0,0,0-.46-1.152,1.878,1.878,0,0,0-1.229-.378,3.758,3.758,0,0,0-1.566.343,8.176,8.176,0,0,0-1.584.976l-1.594-1.749a10.454,10.454,0,0,1,1.7-1.143,6.554,6.554,0,0,1,1.471-.514,8.109,8.109,0,0,1,1.784-.18,5.641,5.641,0,0,1,2.3.439,3.6,3.6,0,0,1,1.547,1.231,3.1,3.1,0,0,1,.55,1.81,4.141,4.141,0,0,1-.337,1.666,6.3,6.3,0,0,1-1.044,1.6,24.58,24.58,0,0,1-2.491,2.329l-1.783,1.556v.123h6.044Z" fill="#fff"/>
      <path id="Trazado_9495" data-name="Trazado 9495" d="M1387.681,4105.467a8.428,8.428,0,0,1-1.191,4.983,4.252,4.252,0,0,1-3.667,1.618,4.2,4.2,0,0,1-3.62-1.67,8.317,8.317,0,0,1-1.219-4.931,8.5,8.5,0,0,1,1.186-5.014,4.842,4.842,0,0,1,7.283.075A8.334,8.334,0,0,1,1387.681,4105.467Zm-6.784,0a9.311,9.311,0,0,0,.441,3.388,1.582,1.582,0,0,0,2.965-.013,12.743,12.743,0,0,0,0-6.772,1.574,1.574,0,0,0-2.956,0A9.283,9.283,0,0,0,1380.9,4105.467Z" fill="#fff"/>
      <path id="Trazado_9496" data-name="Trazado 9496" d="M1394.2,4103.683a4.674,4.674,0,0,1,3.2,1.046,3.615,3.615,0,0,1,1.191,2.865,4.018,4.018,0,0,1-1.433,3.313,6.364,6.364,0,0,1-4.1,1.161,8.573,8.573,0,0,1-3.738-.695v-2.346a8.156,8.156,0,0,0,1.746.6,8.3,8.3,0,0,0,1.888.233q2.685,0,2.685-2.039,0-1.943-2.78-1.943a7.507,7.507,0,0,0-1.11.092,8.9,8.9,0,0,0-.987.2l-1.167-.58.522-6.548h7.524v2.3h-4.953l-.256,2.522.332-.061A7.04,7.04,0,0,1,1394.2,4103.683Z" fill="#fff"/>
      <path id="Trazado_9497" data-name="Trazado 9497" d="M1409.866,4105.467a8.437,8.437,0,0,1-1.191,4.983,4.254,4.254,0,0,1-3.667,1.618,4.2,4.2,0,0,1-3.621-1.67,8.324,8.324,0,0,1-1.219-4.931,8.5,8.5,0,0,1,1.186-5.014,4.842,4.842,0,0,1,7.283.075A8.332,8.332,0,0,1,1409.866,4105.467Zm-6.785,0a9.314,9.314,0,0,0,.441,3.388,1.582,1.582,0,0,0,2.966-.013,12.76,12.76,0,0,0-.005-6.772,1.574,1.574,0,0,0-2.956,0A9.305,9.305,0,0,0,1403.081,4105.467Z" fill="#fff"/>
    </g>
    <rect id="Rectángulo_6121" data-name="Rectángulo 6121" width="5.635" height="242.966" rx="2.818" transform="translate(1454.094 3984.333)" fill="#0b92dd"/>
    <rect id="Rectángulo_6122" data-name="Rectángulo 6122" width="5.635" height="22.966" rx="2.818" transform="translate(1455.912 4102.999) rotate(90)" fill="#0b92dd"/>
  </g>
</svg>
