<svg xmlns="http://www.w3.org/2000/svg" width="290" height="335.549" viewBox="0 0 290 335.549">
  <g id="Grupo_9276" data-name="Grupo 9276" transform="translate(-857.365 -4312.375)">
    <path id="Trazado_9523" data-name="Trazado 9523" d="M1031.325,4425.777v60.629H1004.8v-60.629a13.262,13.262,0,1,1,26.523,0Z" transform="translate(-50.812 -34.51)" fill="#f8f8f8"/>
    <rect id="Rectángulo_6123" data-name="Rectángulo 6123" width="26.523" height="20.375" transform="translate(953.992 4431.521)" fill="#e6e6e6"/>
    <path id="Trazado_9524" data-name="Trazado 9524" d="M910.043,4425.777v60.629H883.52v-60.629a13.261,13.261,0,1,1,26.523,0Z" transform="translate(-9.014 -34.51)" fill="#f8f8f8"/>
    <rect id="Rectángulo_6124" data-name="Rectángulo 6124" width="26.523" height="20.375" transform="translate(874.506 4431.521)" fill="#e6e6e6"/>
    <path id="Trazado_9525" data-name="Trazado 9525" d="M970.686,4727.709v57.949a5.4,5.4,0,0,1-5.4,5.4H949.559a5.4,5.4,0,0,1-5.4-5.4v-57.949Z" transform="translate(-29.911 -143.137)" fill="#666"/>
    <rect id="Rectángulo_6125" data-name="Rectángulo 6125" width="26.53" height="21.037" transform="translate(914.244 4584.569)" fill="#4d4d4d"/>
    <path id="Trazado_9526" data-name="Trazado 9526" d="M968.134,4721.21H940.375a5.4,5.4,0,0,1-5.4-5.4v-25.544h38.565v25.544A5.4,5.4,0,0,1,968.134,4721.21Z" transform="translate(-26.746 -130.232)" fill="#50b8ff"/>
    <g id="Grupo_9275" data-name="Grupo 9275" transform="translate(903.461 4535.028)">
      <path id="Trazado_9527" data-name="Trazado 9527" d="M970.406,4690.263v30.947h9.941a5.4,5.4,0,0,0,5.4-5.4v-25.544Z" transform="translate(-942.419 -4665.261)" fill="#2195f2"/>
      <path id="Trazado_9528" data-name="Trazado 9528" d="M970.395,4683.523H933.1a5.4,5.4,0,0,1-5.4-5.4v-26.008h48.1v26.008A5.4,5.4,0,0,1,970.395,4683.523Z" transform="translate(-927.701 -4652.113)" fill="#2195f2"/>
    </g>
    <path id="Trazado_9529" data-name="Trazado 9529" d="M970.406,4652.112v31.41h14.706a5.4,5.4,0,0,0,5.4-5.4v-26.008H970.406Z" transform="translate(-38.958 -117.084)" fill="#006fad"/>
    <path id="Trazado_9530" data-name="Trazado 9530" d="M930.918,4552.389H867.256v21.7a5.4,5.4,0,0,0,1.206,3.4l38.2,47.127h48.5l38.2-47.127a5.4,5.4,0,0,0,1.206-3.4v-21.7Z" transform="translate(-3.409 -82.717)" fill="#50b8ff"/>
    <path id="Trazado_9531" data-name="Trazado 9531" d="M1013,4552.389v19.446l-42.592,52.782h20.313l38.2-47.127a5.4,5.4,0,0,0,1.206-3.4v-21.7Z" transform="translate(-38.957 -82.717)" fill="#2195f2"/>
    <path id="Trazado_9532" data-name="Trazado 9532" d="M992.25,4512.827H862.768a5.4,5.4,0,0,0-5.4,5.4v15.123a5.4,5.4,0,0,0,5.4,5.4H992.25a5.4,5.4,0,0,0,5.4-5.4V4518.23A5.4,5.4,0,0,0,992.25,4512.827Z" transform="translate(0 -69.082)" fill="#80cef9"/>
    <path id="Trazado_9533" data-name="Trazado 9533" d="M1042,4512.827v25.928h13.879a5.4,5.4,0,0,0,5.4-5.4v-15.123a5.4,5.4,0,0,0-5.4-5.4H1042Z" transform="translate(-63.632 -69.082)" fill="#50b8ff"/>
    <path id="Trazado_9534" data-name="Trazado 9534" d="M1212.7,4423.4a71.41,71.41,0,1,0-115.33,4.669l-1.511,33.266a5.4,5.4,0,0,0,7.685,5.14l30.168-14.1A71.438,71.438,0,0,0,1212.7,4423.4Z" transform="translate(-77.39)" fill="#fff"/>
    <path id="Trazado_9535" data-name="Trazado 9535" d="M974.866,4578.811H919.46a5.065,5.065,0,0,1,0-10.131h55.406a5.065,5.065,0,0,1,0,10.131Z" transform="translate(-19.654 -88.331)" fill="#3f51b4"/>
    <path id="Trazado_9536" data-name="Trazado 9536" d="M1172.369,4347h19.685a2.85,2.85,0,0,1,2.276,4.566l-20.67,27.42H1197.6a2.85,2.85,0,0,1,2.192,4.672l-40.643,48.909a2.85,2.85,0,0,1-4.788-3l15.358-33.851h-21.686a2.85,2.85,0,0,1-2.481-4.253l24.333-43.017A2.849,2.849,0,0,1,1172.369,4347Z" transform="translate(-99.191 -11.933)" fill="#fec007"/>
  </g>
</svg>
