<svg xmlns="http://www.w3.org/2000/svg" width="664.638" height="295.2" viewBox="0 0 664.638 295.2">
  <g id="Grupo_9253" data-name="Grupo 9253" transform="translate(-1209.823 -3453.74)">
    <ellipse id="Elipse_153" data-name="Elipse 153" cx="332.319" cy="147.6" rx="332.319" ry="147.6" transform="translate(1209.823 3453.74)" fill="#d5ecff"/>
    <g id="Grupo_9240" data-name="Grupo 9240">
      <rect id="Rectángulo_6107" data-name="Rectángulo 6107" width="164.8" height="48.945" rx="5.6" transform="translate(1459.742 3474.047)" fill="#fff" stroke="#91c7ea" stroke-miterlimit="10" stroke-width="1"/>
      <g id="Grupo_9239" data-name="Grupo 9239">
        <g id="Grupo_9238" data-name="Grupo 9238">
          <path id="Trazado_9324" data-name="Trazado 9324" d="M1497.076,3492.808a4.189,4.189,0,0,0-3.21,1.254,4.821,4.821,0,0,0-1.176,3.434,4.907,4.907,0,0,0,1.134,3.465,4.2,4.2,0,0,0,3.235,1.222,11.866,11.866,0,0,0,2.943-.429v1.164a9.715,9.715,0,0,1-3.162.445,5.576,5.576,0,0,1-4.2-1.531,6.006,6.006,0,0,1-1.48-4.352,6.45,6.45,0,0,1,.712-3.094,4.911,4.911,0,0,1,2.058-2.046,6.63,6.63,0,0,1,3.167-.719,8.167,8.167,0,0,1,3.391.656l-.607,1.141A6.958,6.958,0,0,0,1497.076,3492.808Z" fill="#00223d"/>
          <path id="Trazado_9325" data-name="Trazado 9325" d="M1510.461,3498.918a4.5,4.5,0,0,1-1.139,3.269,4.175,4.175,0,0,1-3.146,1.176,4.427,4.427,0,0,1-2.2-.539,3.666,3.666,0,0,1-1.485-1.547,5.062,5.062,0,0,1-.523-2.359,4.5,4.5,0,0,1,1.131-3.262,4.159,4.159,0,0,1,3.137-1.168,4.063,4.063,0,0,1,3.083,1.2A4.486,4.486,0,0,1,1510.461,3498.918Zm-7.043,0a3.842,3.842,0,0,0,.709,2.5,2.966,2.966,0,0,0,4.171,0,3.828,3.828,0,0,0,.712-2.5,3.767,3.767,0,0,0-.712-2.481,2.6,2.6,0,0,0-2.1-.847,2.551,2.551,0,0,0-2.075.836A3.807,3.807,0,0,0,1503.418,3498.918Z" fill="#00223d"/>
          <path id="Trazado_9326" data-name="Trazado 9326" d="M1519.241,3503.207v-5.539a2.129,2.129,0,0,0-.515-1.563,2.195,2.195,0,0,0-1.611-.515,2.776,2.776,0,0,0-2.125.726,3.475,3.475,0,0,0-.675,2.4v4.492h-1.4v-8.563h1.139l.227,1.172h.068a2.806,2.806,0,0,1,1.206-.98,4.18,4.18,0,0,1,1.729-.348,3.7,3.7,0,0,1,2.514.746,3.037,3.037,0,0,1,.843,2.387v5.586Z" fill="#00223d"/>
          <path id="Trazado_9327" data-name="Trazado 9327" d="M1527.684,3495.652h-2.353v7.555h-1.4v-7.555h-1.653v-.586l1.653-.469v-.476q0-3.156,2.978-3.156a6.574,6.574,0,0,1,1.72.273l-.362,1.039a4.976,4.976,0,0,0-1.383-.242,1.394,1.394,0,0,0-1.173.488,2.571,2.571,0,0,0-.379,1.567v.554h2.353Z" fill="#00223d"/>
          <path id="Trazado_9328" data-name="Trazado 9328" d="M1537.349,3498.918a4.5,4.5,0,0,1-1.138,3.269,4.176,4.176,0,0,1-3.146,1.176,4.428,4.428,0,0,1-2.2-.539,3.658,3.658,0,0,1-1.484-1.547,5.05,5.05,0,0,1-.523-2.359,4.5,4.5,0,0,1,1.13-3.262,4.16,4.16,0,0,1,3.138-1.168,4.061,4.061,0,0,1,3.082,1.2A4.486,4.486,0,0,1,1537.349,3498.918Zm-7.042,0a3.847,3.847,0,0,0,.708,2.5,2.966,2.966,0,0,0,4.171,0,3.828,3.828,0,0,0,.713-2.5,3.767,3.767,0,0,0-.713-2.481,2.594,2.594,0,0,0-2.1-.847,2.549,2.549,0,0,0-2.075.836A3.8,3.8,0,0,0,1530.307,3498.918Z" fill="#00223d"/>
          <path id="Trazado_9329" data-name="Trazado 9329" d="M1544.021,3494.488a5.862,5.862,0,0,1,1.1.094l-.194,1.2a5.146,5.146,0,0,0-1.012-.117,2.546,2.546,0,0,0-1.919.843,2.942,2.942,0,0,0-.8,2.1v4.594h-1.4v-8.563h1.155l.16,1.586h.068a3.879,3.879,0,0,1,1.24-1.289A2.949,2.949,0,0,1,1544.021,3494.488Z" fill="#00223d"/>
          <path id="Trazado_9330" data-name="Trazado 9330" d="M1558.637,3503.207v-5.571a2.2,2.2,0,0,0-.472-1.535,1.907,1.907,0,0,0-1.468-.511,2.47,2.47,0,0,0-1.931.695,3.132,3.132,0,0,0-.624,2.141v4.781h-1.4v-5.571a2.2,2.2,0,0,0-.472-1.535,1.919,1.919,0,0,0-1.476-.511,2.375,2.375,0,0,0-1.928.73,3.734,3.734,0,0,0-.611,2.4v4.492h-1.4v-8.563h1.138l.228,1.172h.068a2.672,2.672,0,0,1,1.117-.976,3.627,3.627,0,0,1,1.615-.352,2.786,2.786,0,0,1,2.834,1.453h.068a2.852,2.852,0,0,1,1.2-1.062,3.951,3.951,0,0,1,1.788-.391,3.289,3.289,0,0,1,2.35.746,3.181,3.181,0,0,1,.78,2.387v5.586Z" fill="#00223d"/>
          <path id="Trazado_9331" data-name="Trazado 9331" d="M1562.8,3492.324a.824.824,0,0,1,.236-.652.927.927,0,0,1,1.173,0,.811.811,0,0,1,.244.648.825.825,0,0,1-.244.652.852.852,0,0,1-.582.215.781.781,0,0,1-.827-.867Zm1.518,10.883h-1.4v-8.563h1.4Z" fill="#00223d"/>
          <path id="Trazado_9332" data-name="Trazado 9332" d="M1573.583,3502.058h-.076a3.383,3.383,0,0,1-2.9,1.3,3.559,3.559,0,0,1-2.822-1.148,4.8,4.8,0,0,1-1.007-3.266,4.875,4.875,0,0,1,1.012-3.289,3.525,3.525,0,0,1,2.817-1.172,3.463,3.463,0,0,1,2.884,1.266h.11l-.059-.618-.034-.6v-3.484h1.4v12.156h-1.138Zm-2.8.219a2.659,2.659,0,0,0,2.079-.723,3.454,3.454,0,0,0,.645-2.332v-.273a4.055,4.055,0,0,0-.654-2.6,2.579,2.579,0,0,0-2.087-.777,2.2,2.2,0,0,0-1.885.887,4.155,4.155,0,0,0-.654,2.5,3.986,3.986,0,0,0,.65,2.476A2.264,2.264,0,0,0,1570.783,3502.277Z" fill="#00223d"/>
          <path id="Trazado_9333" data-name="Trazado 9333" d="M1583.561,3503.207l-.279-1.219h-.067a3.828,3.828,0,0,1-1.379,1.09,4.5,4.5,0,0,1-1.716.285,3.249,3.249,0,0,1-2.155-.656,2.305,2.305,0,0,1-.78-1.867q0-2.594,4.478-2.719l1.569-.047v-.531a2.066,2.066,0,0,0-.468-1.489,2.017,2.017,0,0,0-1.5-.48,6.491,6.491,0,0,0-2.615.656l-.43-.992a6.888,6.888,0,0,1,1.5-.539,6.987,6.987,0,0,1,1.632-.2,3.712,3.712,0,0,1,2.45.679,2.714,2.714,0,0,1,.8,2.18v5.844Zm-3.163-.914a2.981,2.981,0,0,0,2.054-.664,2.362,2.362,0,0,0,.746-1.86V3499l-1.4.055a5.422,5.422,0,0,0-2.408.48,1.422,1.422,0,0,0-.738,1.324,1.289,1.289,0,0,0,.46,1.071A2.015,2.015,0,0,0,1580.4,3502.293Z" fill="#00223d"/>
          <path id="Trazado_9334" data-name="Trazado 9334" d="M1593.775,3502.058h-.076a3.385,3.385,0,0,1-2.9,1.3,3.557,3.557,0,0,1-2.821-1.148,4.8,4.8,0,0,1-1.008-3.266,4.88,4.88,0,0,1,1.012-3.289,3.525,3.525,0,0,1,2.817-1.172,3.465,3.465,0,0,1,2.885,1.266h.11l-.059-.618-.034-.6v-3.484h1.4v12.156h-1.139Zm-2.8.219a2.658,2.658,0,0,0,2.079-.723,3.448,3.448,0,0,0,.646-2.332v-.273a4.055,4.055,0,0,0-.654-2.6,2.581,2.581,0,0,0-2.087-.777,2.2,2.2,0,0,0-1.886.887,4.162,4.162,0,0,0-.653,2.5,3.987,3.987,0,0,0,.649,2.476A2.264,2.264,0,0,0,1590.974,3502.277Z" fill="#00223d"/>
        </g>
      </g>
    </g>
    <g id="Grupo_9243" data-name="Grupo 9243">
      <rect id="Rectángulo_6108" data-name="Rectángulo 6108" width="164.8" height="48.945" rx="5.6" transform="translate(1687.437 3576.867)" fill="#fff" stroke="#91c7ea" stroke-miterlimit="10" stroke-width="1"/>
      <g id="Grupo_9242" data-name="Grupo 9242">
        <g id="Grupo_9241" data-name="Grupo 9241">
          <path id="Trazado_9335" data-name="Trazado 9335" d="M1743.419,3597.934a3.108,3.108,0,0,1-1.277,2.668,6.131,6.131,0,0,1-3.657.933h-1.45v4.492H1735.6V3594.6h3.2Q1743.42,3594.6,1743.419,3597.934Zm-6.384,2.461h1.29a5.094,5.094,0,0,0,2.758-.571,2.039,2.039,0,0,0,.852-1.828,1.91,1.91,0,0,0-.8-1.687,4.442,4.442,0,0,0-2.5-.555h-1.6Z" fill="#00223d"/>
          <path id="Trazado_9336" data-name="Trazado 9336" d="M1749.695,3606.184a4.433,4.433,0,0,1-3.235-1.157,4.279,4.279,0,0,1-1.185-3.211,4.723,4.723,0,0,1,1.1-3.289,3.788,3.788,0,0,1,2.956-1.218,3.626,3.626,0,0,1,2.749,1.058,3.873,3.873,0,0,1,1.012,2.793v.82h-6.367a3.242,3.242,0,0,0,.822,2.29,2.967,2.967,0,0,0,2.2.781,7.965,7.965,0,0,0,2.952-.578v1.156a7.84,7.84,0,0,1-1.4.426A8.482,8.482,0,0,1,1749.695,3606.184Zm-.38-7.789a2.381,2.381,0,0,0-1.775.671,2.975,2.975,0,0,0-.781,1.86h4.833a2.709,2.709,0,0,0-.59-1.879A2.159,2.159,0,0,0,1749.315,3598.4Z" fill="#00223d"/>
          <path id="Trazado_9337" data-name="Trazado 9337" d="M1759.7,3597.309a5.943,5.943,0,0,1,1.1.093l-.193,1.2a5.156,5.156,0,0,0-1.013-.117,2.548,2.548,0,0,0-1.919.844,2.943,2.943,0,0,0-.8,2.1v4.593h-1.4v-8.562h1.156l.16,1.586h.067a3.886,3.886,0,0,1,1.24-1.289A2.952,2.952,0,0,1,1759.7,3597.309Z" fill="#00223d"/>
          <path id="Trazado_9338" data-name="Trazado 9338" d="M1768.494,3603.691a2.093,2.093,0,0,1-.961,1.844,4.788,4.788,0,0,1-2.7.649,6.272,6.272,0,0,1-2.868-.539v-1.2a7.269,7.269,0,0,0,1.43.493,6.465,6.465,0,0,0,1.472.179,3.559,3.559,0,0,0,1.686-.324,1.072,1.072,0,0,0,.123-1.844,7.6,7.6,0,0,0-1.826-.84,10.155,10.155,0,0,1-1.835-.777,2.42,2.42,0,0,1-.809-.754,1.844,1.844,0,0,1-.266-1.008,1.883,1.883,0,0,1,.919-1.652,4.543,4.543,0,0,1,2.522-.6,7.884,7.884,0,0,1,2.918.562l-.5,1.055a7.157,7.157,0,0,0-2.522-.531,3.092,3.092,0,0,0-1.5.289.883.883,0,0,0-.505.8.921.921,0,0,0,.189.586,1.838,1.838,0,0,0,.612.461,14.217,14.217,0,0,0,1.619.633,6.208,6.208,0,0,1,2.223,1.117A1.892,1.892,0,0,1,1768.494,3603.691Z" fill="#00223d"/>
          <path id="Trazado_9339" data-name="Trazado 9339" d="M1778.751,3601.738a4.506,4.506,0,0,1-1.139,3.27,4.176,4.176,0,0,1-3.146,1.176,4.424,4.424,0,0,1-2.2-.539,3.672,3.672,0,0,1-1.485-1.547,5.053,5.053,0,0,1-.523-2.36,4.5,4.5,0,0,1,1.13-3.261,4.163,4.163,0,0,1,3.138-1.168,4.066,4.066,0,0,1,3.083,1.195A4.486,4.486,0,0,1,1778.751,3601.738Zm-7.043,0a3.844,3.844,0,0,0,.708,2.5,2.964,2.964,0,0,0,4.171,0,3.826,3.826,0,0,0,.713-2.5,3.765,3.765,0,0,0-.713-2.48,2.593,2.593,0,0,0-2.1-.848,2.554,2.554,0,0,0-2.075.836A3.8,3.8,0,0,0,1771.708,3601.738Z" fill="#00223d"/>
          <path id="Trazado_9340" data-name="Trazado 9340" d="M1787.531,3606.027v-5.539a2.128,2.128,0,0,0-.515-1.562,2.2,2.2,0,0,0-1.611-.516,2.772,2.772,0,0,0-2.125.727,3.47,3.47,0,0,0-.675,2.4v4.492h-1.4v-8.562h1.138l.228,1.172h.068a2.8,2.8,0,0,1,1.206-.981,4.192,4.192,0,0,1,1.729-.347,3.689,3.689,0,0,1,2.513.746,3.031,3.031,0,0,1,.844,2.386v5.586Z" fill="#00223d"/>
          <path id="Trazado_9341" data-name="Trazado 9341" d="M1797.492,3606.027l-.279-1.218h-.067a3.835,3.835,0,0,1-1.379,1.089,4.5,4.5,0,0,1-1.717.286,3.245,3.245,0,0,1-2.155-.657,2.3,2.3,0,0,1-.78-1.867q0-2.594,4.479-2.719l1.569-.046v-.532a2.062,2.062,0,0,0-.468-1.488,2.019,2.019,0,0,0-1.5-.48,6.475,6.475,0,0,0-2.614.656l-.43-.992a7.17,7.17,0,0,1,3.129-.735,3.714,3.714,0,0,1,2.45.68,2.718,2.718,0,0,1,.8,2.18v5.843Zm-3.163-.914a2.981,2.981,0,0,0,2.054-.664,2.359,2.359,0,0,0,.746-1.859v-.774l-1.4.055a5.43,5.43,0,0,0-2.408.481,1.421,1.421,0,0,0-.738,1.324,1.287,1.287,0,0,0,.46,1.07A2.01,2.01,0,0,0,1794.329,3605.113Z" fill="#00223d"/>
          <path id="Trazado_9342" data-name="Trazado 9342" d="M1807.377,3603.691a2.094,2.094,0,0,1-.962,1.844,4.788,4.788,0,0,1-2.7.649,6.272,6.272,0,0,1-2.868-.539v-1.2a7.268,7.268,0,0,0,1.43.493,6.471,6.471,0,0,0,1.472.179,3.567,3.567,0,0,0,1.687-.324,1.072,1.072,0,0,0,.122-1.844,7.6,7.6,0,0,0-1.826-.84,10.189,10.189,0,0,1-1.835-.777,2.42,2.42,0,0,1-.809-.754,1.852,1.852,0,0,1-.266-1.008,1.885,1.885,0,0,1,.919-1.652,4.543,4.543,0,0,1,2.522-.6,7.892,7.892,0,0,1,2.919.562l-.5,1.055a7.158,7.158,0,0,0-2.522-.531,3.086,3.086,0,0,0-1.5.289.882.882,0,0,0-.506.8.921.921,0,0,0,.189.586,1.84,1.84,0,0,0,.612.461,14.207,14.207,0,0,0,1.619.633,6.2,6.2,0,0,1,2.223,1.117A1.893,1.893,0,0,1,1807.377,3603.691Z" fill="#00223d"/>
        </g>
      </g>
    </g>
    <g id="Grupo_9246" data-name="Grupo 9246">
      <rect id="Rectángulo_6109" data-name="Rectángulo 6109" width="164.8" height="48.945" rx="5.6" transform="translate(1232.046 3576.867)" fill="#fff" stroke="#91c7ea" stroke-miterlimit="10" stroke-width="1"/>
      <g id="Grupo_9245" data-name="Grupo 9245">
        <g id="Grupo_9244" data-name="Grupo 9244">
          <path id="Trazado_9343" data-name="Trazado 9343" d="M1284.127,3597.934a3.108,3.108,0,0,1-1.277,2.668,6.131,6.131,0,0,1-3.657.933h-1.45v4.492h-1.434V3594.6h3.2Q1284.128,3594.6,1284.127,3597.934Zm-6.384,2.461h1.29a5.094,5.094,0,0,0,2.758-.571,2.039,2.039,0,0,0,.852-1.828,1.912,1.912,0,0,0-.8-1.687,4.448,4.448,0,0,0-2.5-.555h-1.6Z" fill="#00223d"/>
          <path id="Trazado_9344" data-name="Trazado 9344" d="M1290.715,3597.309a5.957,5.957,0,0,1,1.1.093l-.195,1.2a5.138,5.138,0,0,0-1.012-.117,2.545,2.545,0,0,0-1.918.844,2.941,2.941,0,0,0-.8,2.1v4.593h-1.4v-8.562h1.155l.16,1.586h.068a3.877,3.877,0,0,1,1.24-1.289A2.947,2.947,0,0,1,1290.715,3597.309Z" fill="#00223d"/>
          <path id="Trazado_9345" data-name="Trazado 9345" d="M1301.527,3601.738a4.505,4.505,0,0,1-1.138,3.27,4.175,4.175,0,0,1-3.146,1.176,4.431,4.431,0,0,1-2.2-.539,3.664,3.664,0,0,1-1.484-1.547,5.053,5.053,0,0,1-.523-2.36,4.5,4.5,0,0,1,1.13-3.261,4.16,4.16,0,0,1,3.138-1.168,4.062,4.062,0,0,1,3.082,1.195A4.486,4.486,0,0,1,1301.527,3601.738Zm-7.042,0a3.844,3.844,0,0,0,.708,2.5,2.964,2.964,0,0,0,4.171,0,3.826,3.826,0,0,0,.713-2.5,3.765,3.765,0,0,0-.713-2.48,2.6,2.6,0,0,0-2.1-.848,2.551,2.551,0,0,0-2.074.836A3.8,3.8,0,0,0,1294.485,3601.738Z" fill="#00223d"/>
          <path id="Trazado_9346" data-name="Trazado 9346" d="M1310.274,3604.879h-.076a3.385,3.385,0,0,1-2.9,1.305,3.554,3.554,0,0,1-2.821-1.149,4.793,4.793,0,0,1-1.008-3.265,4.883,4.883,0,0,1,1.012-3.29,3.525,3.525,0,0,1,2.817-1.171,3.465,3.465,0,0,1,2.885,1.265h.109l-.059-.617-.033-.6v-3.484h1.4v12.156h-1.139Zm-2.8.219a2.658,2.658,0,0,0,2.079-.723,3.449,3.449,0,0,0,.646-2.332v-.273a4.05,4.05,0,0,0-.654-2.6,2.582,2.582,0,0,0-2.088-.777,2.2,2.2,0,0,0-1.885.886,4.165,4.165,0,0,0-.653,2.5,3.989,3.989,0,0,0,.649,2.477A2.267,2.267,0,0,0,1307.473,3605.1Z" fill="#00223d"/>
          <path id="Trazado_9347" data-name="Trazado 9347" d="M1315.882,3597.465v5.555a2.126,2.126,0,0,0,.515,1.562,2.2,2.2,0,0,0,1.611.516,2.742,2.742,0,0,0,2.121-.735,3.5,3.5,0,0,0,.671-2.4v-4.5h1.4v8.562h-1.156l-.2-1.148h-.076a2.736,2.736,0,0,1-1.194.969,4.279,4.279,0,0,1-1.741.336,3.715,3.715,0,0,1-2.526-.743,3.015,3.015,0,0,1-.84-2.375v-5.6Z" fill="#00223d"/>
          <path id="Trazado_9348" data-name="Trazado 9348" d="M1328.863,3606.184a4.108,4.108,0,0,1-3.108-1.145,4.482,4.482,0,0,1-1.1-3.238,4.625,4.625,0,0,1,1.118-3.321,4.191,4.191,0,0,1,3.184-1.171,6.843,6.843,0,0,1,1.332.132,4.664,4.664,0,0,1,1.046.313l-.43,1.1a7.152,7.152,0,0,0-1.012-.285,4.907,4.907,0,0,0-.97-.113q-2.817,0-2.817,3.328a3.75,3.75,0,0,0,.687,2.422,2.471,2.471,0,0,0,2.037.844,6.667,6.667,0,0,0,2.37-.461v1.148A5.389,5.389,0,0,1,1328.863,3606.184Z" fill="#00223d"/>
          <path id="Trazado_9349" data-name="Trazado 9349" d="M1336.378,3605.113a4.927,4.927,0,0,0,.717-.051,4.706,4.706,0,0,0,.548-.1v.992a2.684,2.684,0,0,1-.671.168,5.48,5.48,0,0,1-.8.067q-2.682,0-2.682-2.618v-5.093h-1.324v-.625l1.324-.539.59-1.829h.81v1.985h2.682v1.008h-2.682v5.039a1.646,1.646,0,0,0,.4,1.187A1.433,1.433,0,0,0,1336.378,3605.113Z" fill="#00223d"/>
          <path id="Trazado_9350" data-name="Trazado 9350" d="M1347.469,3601.738a4.505,4.505,0,0,1-1.139,3.27,4.175,4.175,0,0,1-3.146,1.176,4.429,4.429,0,0,1-2.2-.539,3.672,3.672,0,0,1-1.485-1.547,5.065,5.065,0,0,1-.522-2.36,4.492,4.492,0,0,1,1.13-3.261,4.159,4.159,0,0,1,3.137-1.168,4.066,4.066,0,0,1,3.083,1.195A4.486,4.486,0,0,1,1347.469,3601.738Zm-7.043,0a3.838,3.838,0,0,0,.709,2.5,2.963,2.963,0,0,0,4.17,0,3.826,3.826,0,0,0,.713-2.5,3.765,3.765,0,0,0-.713-2.48,2.594,2.594,0,0,0-2.1-.848,2.554,2.554,0,0,0-2.075.836A3.8,3.8,0,0,0,1340.426,3601.738Z" fill="#00223d"/>
          <path id="Trazado_9351" data-name="Trazado 9351" d="M1355.886,3603.691a2.093,2.093,0,0,1-.961,1.844,4.788,4.788,0,0,1-2.7.649,6.271,6.271,0,0,1-2.868-.539v-1.2a7.268,7.268,0,0,0,1.43.493,6.463,6.463,0,0,0,1.471.179,3.564,3.564,0,0,0,1.687-.324,1.072,1.072,0,0,0,.123-1.844,7.6,7.6,0,0,0-1.826-.84,10.153,10.153,0,0,1-1.835-.777,2.424,2.424,0,0,1-.81-.754,1.852,1.852,0,0,1-.265-1.008,1.883,1.883,0,0,1,.919-1.652,4.543,4.543,0,0,1,2.522-.6,7.884,7.884,0,0,1,2.918.562l-.5,1.055a7.157,7.157,0,0,0-2.522-.531,3.093,3.093,0,0,0-1.5.289.884.884,0,0,0-.506.8.922.922,0,0,0,.19.586,1.83,1.83,0,0,0,.612.461,14.207,14.207,0,0,0,1.619.633,6.208,6.208,0,0,1,2.223,1.117A1.892,1.892,0,0,1,1355.886,3603.691Z" fill="#00223d"/>
        </g>
      </g>
    </g>
    <g id="Grupo_9249" data-name="Grupo 9249">
      <rect id="Rectángulo_6110" data-name="Rectángulo 6110" width="164.8" height="48.945" rx="5.6" transform="translate(1459.742 3679.688)" fill="#fff" stroke="#91c7ea" stroke-miterlimit="10" stroke-width="1"/>
      <g id="Grupo_9248" data-name="Grupo 9248">
        <g id="Grupo_9247" data-name="Grupo 9247">
          <path id="Trazado_9352" data-name="Trazado 9352" d="M1492.589,3708.847v-11.421h1.433v11.421Z" fill="#00223d"/>
          <path id="Trazado_9353" data-name="Trazado 9353" d="M1503.519,3708.847v-5.539a2.128,2.128,0,0,0-.514-1.562,2.2,2.2,0,0,0-1.611-.516,2.77,2.77,0,0,0-2.125.727,3.47,3.47,0,0,0-.675,2.4v4.492h-1.4v-8.562h1.138l.228,1.172h.068a2.8,2.8,0,0,1,1.206-.981,4.192,4.192,0,0,1,1.729-.347,3.694,3.694,0,0,1,2.513.746,3.036,3.036,0,0,1,.844,2.386v5.586Z" fill="#00223d"/>
          <path id="Trazado_9354" data-name="Trazado 9354" d="M1513.758,3706.511a2.092,2.092,0,0,1-.961,1.844,4.785,4.785,0,0,1-2.7.649,6.272,6.272,0,0,1-2.868-.539v-1.2a7.212,7.212,0,0,0,1.43.493,6.4,6.4,0,0,0,1.472.179,3.551,3.551,0,0,0,1.687-.324,1.072,1.072,0,0,0,.122-1.844,7.661,7.661,0,0,0-1.826-.839,10.259,10.259,0,0,1-1.835-.778,2.409,2.409,0,0,1-.809-.754,1.852,1.852,0,0,1-.266-1.008,1.884,1.884,0,0,1,.919-1.652,4.553,4.553,0,0,1,2.522-.6,7.888,7.888,0,0,1,2.919.562l-.5,1.055a7.153,7.153,0,0,0-2.522-.531,3.092,3.092,0,0,0-1.5.289.885.885,0,0,0-.506.8.919.919,0,0,0,.189.585,1.825,1.825,0,0,0,.612.461,13.832,13.832,0,0,0,1.619.633,6.2,6.2,0,0,1,2.223,1.117A1.893,1.893,0,0,1,1513.758,3706.511Z" fill="#00223d"/>
          <path id="Trazado_9355" data-name="Trazado 9355" d="M1519.022,3707.933a5.285,5.285,0,0,0,1.265-.156v.992a2.663,2.663,0,0,1-.671.168,5.341,5.341,0,0,1-.8.067q-2.682,0-2.682-2.618v-5.093h-1.324v-.625l1.324-.539.59-1.828h.81v1.984h2.682v1.008h-2.682v5.039a1.646,1.646,0,0,0,.4,1.187A1.43,1.43,0,0,0,1519.022,3707.933Z" fill="#00223d"/>
          <path id="Trazado_9356" data-name="Trazado 9356" d="M1527.819,3708.847l-.279-1.218h-.067a3.812,3.812,0,0,1-1.379,1.089,4.489,4.489,0,0,1-1.717.286,3.245,3.245,0,0,1-2.155-.657,2.3,2.3,0,0,1-.78-1.867q0-2.592,4.479-2.719l1.569-.046v-.532a2.061,2.061,0,0,0-.468-1.488,2.019,2.019,0,0,0-1.5-.48,6.475,6.475,0,0,0-2.615.656l-.43-.992a6.876,6.876,0,0,1,1.5-.539,6.969,6.969,0,0,1,1.632-.2,3.713,3.713,0,0,1,2.45.68,2.714,2.714,0,0,1,.8,2.18v5.843Zm-3.163-.914a2.977,2.977,0,0,0,2.054-.664,2.359,2.359,0,0,0,.746-1.859v-.774l-1.4.055a5.433,5.433,0,0,0-2.408.481,1.422,1.422,0,0,0-.738,1.324,1.285,1.285,0,0,0,.46,1.07A2.008,2.008,0,0,0,1524.656,3707.933Z" fill="#00223d"/>
          <path id="Trazado_9357" data-name="Trazado 9357" d="M1533.141,3708.847h-1.4v-12.156h1.4Z" fill="#00223d"/>
          <path id="Trazado_9358" data-name="Trazado 9358" d="M1541.794,3708.847l-.278-1.218h-.068a3.809,3.809,0,0,1-1.378,1.089,4.488,4.488,0,0,1-1.717.286,3.244,3.244,0,0,1-2.155-.657,2.3,2.3,0,0,1-.78-1.867q0-2.592,4.479-2.719l1.568-.046v-.532a2.061,2.061,0,0,0-.468-1.488,2.017,2.017,0,0,0-1.5-.48,6.479,6.479,0,0,0-2.615.656l-.43-.992a7.174,7.174,0,0,1,3.129-.735,3.718,3.718,0,0,1,2.451.68,2.717,2.717,0,0,1,.8,2.18v5.843Zm-3.162-.914a2.975,2.975,0,0,0,2.053-.664,2.357,2.357,0,0,0,.747-1.859v-.774l-1.4.055a5.432,5.432,0,0,0-2.408.481,1.424,1.424,0,0,0-.738,1.324,1.288,1.288,0,0,0,.46,1.07A2.011,2.011,0,0,0,1538.632,3707.933Z" fill="#00223d"/>
          <path id="Trazado_9359" data-name="Trazado 9359" d="M1549.41,3709a4.106,4.106,0,0,1-3.108-1.145,4.485,4.485,0,0,1-1.1-3.238,4.62,4.62,0,0,1,1.117-3.32,4.19,4.19,0,0,1,3.184-1.172,6.932,6.932,0,0,1,1.333.132,4.717,4.717,0,0,1,1.046.313l-.431,1.1a7.1,7.1,0,0,0-1.012-.286,4.889,4.889,0,0,0-.97-.113q-2.815,0-2.816,3.328a3.748,3.748,0,0,0,.687,2.422,2.471,2.471,0,0,0,2.037.844,6.641,6.641,0,0,0,2.37-.461v1.148A5.4,5.4,0,0,1,1549.41,3709Z" fill="#00223d"/>
          <path id="Trazado_9360" data-name="Trazado 9360" d="M1553.821,3697.965a.825.825,0,0,1,.237-.653.926.926,0,0,1,1.172,0,.986.986,0,0,1,0,1.3.853.853,0,0,1-.582.215.844.844,0,0,1-.59-.215A.835.835,0,0,1,1553.821,3697.965Zm1.519,10.882h-1.4v-8.562h1.4Z" fill="#00223d"/>
          <path id="Trazado_9361" data-name="Trazado 9361" d="M1566.287,3704.558a4.5,4.5,0,0,1-1.138,3.27A4.175,4.175,0,0,1,1562,3709a4.43,4.43,0,0,1-2.2-.539,3.664,3.664,0,0,1-1.484-1.547,5.05,5.05,0,0,1-.523-2.36,4.5,4.5,0,0,1,1.13-3.261,4.16,4.16,0,0,1,3.138-1.168,4.062,4.062,0,0,1,3.082,1.2A4.486,4.486,0,0,1,1566.287,3704.558Zm-7.042,0a3.844,3.844,0,0,0,.708,2.5,2.964,2.964,0,0,0,4.171,0,3.824,3.824,0,0,0,.713-2.5,3.766,3.766,0,0,0-.713-2.48,2.6,2.6,0,0,0-2.1-.848,2.556,2.556,0,0,0-2.075.836A3.807,3.807,0,0,0,1559.245,3704.558Z" fill="#00223d"/>
          <path id="Trazado_9362" data-name="Trazado 9362" d="M1575.068,3708.847v-5.539a2.128,2.128,0,0,0-.515-1.562,2.2,2.2,0,0,0-1.611-.516,2.77,2.77,0,0,0-2.125.727,3.47,3.47,0,0,0-.675,2.4v4.492h-1.4v-8.562h1.138l.228,1.172h.067a2.809,2.809,0,0,1,1.207-.981,4.192,4.192,0,0,1,1.729-.347,3.694,3.694,0,0,1,2.513.746,3.035,3.035,0,0,1,.843,2.386v5.586Z" fill="#00223d"/>
          <path id="Trazado_9363" data-name="Trazado 9363" d="M1583.249,3709a4.43,4.43,0,0,1-3.235-1.157,4.276,4.276,0,0,1-1.185-3.211,4.725,4.725,0,0,1,1.1-3.289,3.788,3.788,0,0,1,2.956-1.218,3.625,3.625,0,0,1,2.749,1.058,3.873,3.873,0,0,1,1.013,2.793v.821h-6.368a3.241,3.241,0,0,0,.822,2.289,2.968,2.968,0,0,0,2.2.781,7.957,7.957,0,0,0,2.952-.578v1.156a7.818,7.818,0,0,1-1.4.426A8.5,8.5,0,0,1,1583.249,3709Zm-.38-7.789a2.381,2.381,0,0,0-1.775.671,2.974,2.974,0,0,0-.78,1.86h4.832a2.711,2.711,0,0,0-.59-1.879A2.159,2.159,0,0,0,1582.869,3701.215Z" fill="#00223d"/>
          <path id="Trazado_9364" data-name="Trazado 9364" d="M1595,3706.511a2.093,2.093,0,0,1-.962,1.844,4.785,4.785,0,0,1-2.7.649,6.275,6.275,0,0,1-2.868-.539v-1.2a7.21,7.21,0,0,0,1.43.493,6.4,6.4,0,0,0,1.472.179,3.551,3.551,0,0,0,1.687-.324,1.072,1.072,0,0,0,.122-1.844,7.661,7.661,0,0,0-1.826-.839,10.21,10.21,0,0,1-1.834-.778,2.4,2.4,0,0,1-.81-.754,1.852,1.852,0,0,1-.266-1.008,1.886,1.886,0,0,1,.919-1.652,4.553,4.553,0,0,1,2.522-.6,7.888,7.888,0,0,1,2.919.562l-.5,1.055a7.153,7.153,0,0,0-2.522-.531,3.092,3.092,0,0,0-1.5.289.887.887,0,0,0-.506.8.914.914,0,0,0,.19.585,1.81,1.81,0,0,0,.611.461,13.832,13.832,0,0,0,1.619.633,6.2,6.2,0,0,1,2.223,1.117A1.893,1.893,0,0,1,1595,3706.511Z" fill="#00223d"/>
        </g>
      </g>
    </g>
    <g id="Grupo_9252" data-name="Grupo 9252">
      <rect id="Rectángulo_6111" data-name="Rectángulo 6111" width="164.8" height="48.945" rx="5.6" transform="translate(1459.742 3576.867)" fill="#fff" stroke="#91c7ea" stroke-miterlimit="10" stroke-width="1"/>
      <g id="Grupo_9251" data-name="Grupo 9251">
        <g id="Grupo_9250" data-name="Grupo 9250">
          <path id="Trazado_9365" data-name="Trazado 9365" d="M1524.34,3601.277v4.75h-1.435V3594.6h3.383a5.642,5.642,0,0,1,3.352.8,2.822,2.822,0,0,1,1.084,2.422,3.073,3.073,0,0,1-2.48,3.063l3.349,5.132h-1.7l-2.986-4.75Zm0-1.14h1.965a3.584,3.584,0,0,0,2.226-.559,2,2,0,0,0,.709-1.676,1.845,1.845,0,0,0-.721-1.632,4.15,4.15,0,0,0-2.316-.5h-1.863Z" fill="#00223d"/>
          <path id="Trazado_9366" data-name="Trazado 9366" d="M1540.457,3606.027h-6.874V3594.6h6.874v1.18h-5.44v3.68h5.112v1.172h-5.112v4.2h5.44Z" fill="#00223d"/>
          <path id="Trazado_9367" data-name="Trazado 9367" d="M1546.986,3606.027h-1.435v-10.242h-3.9v-1.18h9.243v1.18h-3.9Z" fill="#00223d"/>
          <path id="Trazado_9368" data-name="Trazado 9368" d="M1552.746,3606.027V3594.6h1.434v11.422Z" fill="#00223d"/>
          <path id="Trazado_9369" data-name="Trazado 9369" d="M1564.436,3606.027h-6.874V3594.6h6.874v1.18H1559v3.68h5.111v1.172H1559v4.2h5.44Z" fill="#00223d"/>
        </g>
      </g>
    </g>
    <path id="Trazado_9370" data-name="Trazado 9370" d="M1537.284,3547.029H1539v17.193a2.646,2.646,0,0,0,2.646,2.645h.99a2.645,2.645,0,0,0,2.646-2.645v-17.193H1547a2.161,2.161,0,0,0,1.933-3.127l-4.858-9.716a2.161,2.161,0,0,0-3.866,0l-4.858,9.716A2.161,2.161,0,0,0,1537.284,3547.029Z" fill="#0b92dd"/>
    <path id="Trazado_9371" data-name="Trazado 9371" d="M1425.394,3606.2v-1.718h17.192a2.646,2.646,0,0,0,2.646-2.645v-.99a2.646,2.646,0,0,0-2.646-2.646h-17.192v-1.717a2.161,2.161,0,0,0-3.127-1.933l-9.717,4.858a2.161,2.161,0,0,0,0,3.865l9.717,4.859A2.161,2.161,0,0,0,1425.394,3606.2Z" fill="#0b92dd"/>
    <path id="Trazado_9372" data-name="Trazado 9372" d="M1658.89,3597.082v1.717H1641.7a2.645,2.645,0,0,0-2.645,2.646v.99a2.646,2.646,0,0,0,2.645,2.646h17.193v1.717a2.16,2.16,0,0,0,3.127,1.932l9.716-4.857a2.161,2.161,0,0,0,0-3.866l-9.716-4.858A2.161,2.161,0,0,0,1658.89,3597.082Z" fill="#0b92dd"/>
    <path id="Trazado_9373" data-name="Trazado 9373" d="M1547,3655.65h-1.718v-17.192a2.646,2.646,0,0,0-2.645-2.646h-.99a2.647,2.647,0,0,0-2.646,2.646v17.192h-1.717a2.161,2.161,0,0,0-1.933,3.127l4.858,9.717a2.161,2.161,0,0,0,3.865,0l4.859-9.717A2.161,2.161,0,0,0,1547,3655.65Z" fill="#0b92dd"/>
  </g>
</svg>
