<svg xmlns="http://www.w3.org/2000/svg" width="543.794" height="256.979" viewBox="0 0 543.794 256.979">
  <g id="Grupo_9826" data-name="Grupo 9826" transform="translate(-1486.7 -11470.672)">
    <rect id="Rectángulo_6235" data-name="Rectángulo 6235" width="88.737" height="42.651" rx="5.6" transform="translate(1486.7 11578.853)" fill="#0b92dd"/>
    <rect id="Rectángulo_6236" data-name="Rectángulo 6236" width="192.781" height="52.628" rx="5.6" transform="translate(1837.213 11471.172)" fill="#fff" stroke="#91c7ea" stroke-miterlimit="10" stroke-width="1"/>
    <g id="Grupo_9816" data-name="Grupo 9816">
      <g id="Grupo_9815" data-name="Grupo 9815">
        <path id="Trazado_10146" data-name="Trazado 10146" d="M1867.457,11490.752H1869l-4.445,11.422h-1.417l-4.42-11.422h1.519l2.833,7.39a19.537,19.537,0,0,1,.776,2.478,19.657,19.657,0,0,1,.793-2.524Z" fill="#00223d"/>
        <path id="Trazado_10147" data-name="Trazado 10147" d="M1876.17,11502.174l-.278-1.219h-.068a3.811,3.811,0,0,1-1.379,1.09,4.489,4.489,0,0,1-1.716.285,3.246,3.246,0,0,1-2.155-.656,2.3,2.3,0,0,1-.78-1.868q0-2.591,4.478-2.718l1.569-.047v-.531a2.063,2.063,0,0,0-.468-1.488,2.016,2.016,0,0,0-1.5-.48,6.484,6.484,0,0,0-2.615.656l-.43-.992a6.9,6.9,0,0,1,1.5-.539,7,7,0,0,1,1.632-.2,3.712,3.712,0,0,1,2.45.681,2.712,2.712,0,0,1,.8,2.18v5.844Zm-3.163-.914a2.974,2.974,0,0,0,2.054-.665,2.357,2.357,0,0,0,.746-1.858v-.773l-1.4.054a5.446,5.446,0,0,0-2.408.481,1.422,1.422,0,0,0-.738,1.324,1.283,1.283,0,0,0,.46,1.069A2.009,2.009,0,0,0,1873.007,11501.26Z" fill="#00223d"/>
        <path id="Trazado_10148" data-name="Trazado 10148" d="M1884.309,11493.455a5.9,5.9,0,0,1,1.1.094l-.194,1.2a5.129,5.129,0,0,0-1.012-.117,2.549,2.549,0,0,0-1.919.843,2.949,2.949,0,0,0-.8,2.1v4.594h-1.4v-8.562h1.155l.161,1.586h.067a3.879,3.879,0,0,1,1.24-1.289A2.952,2.952,0,0,1,1884.309,11493.455Z" fill="#00223d"/>
        <path id="Trazado_10149" data-name="Trazado 10149" d="M1887.025,11491.291a.83.83,0,0,1,.236-.653.926.926,0,0,1,1.172,0,.987.987,0,0,1,0,1.3.851.851,0,0,1-.582.215.78.78,0,0,1-.826-.867Zm1.518,10.883h-1.4v-8.562h1.4Z" fill="#00223d"/>
        <path id="Trazado_10150" data-name="Trazado 10150" d="M1897.2,11502.174l-.279-1.219h-.067a3.819,3.819,0,0,1-1.379,1.09,4.494,4.494,0,0,1-1.716.285,3.246,3.246,0,0,1-2.155-.656,2.3,2.3,0,0,1-.78-1.868q0-2.591,4.478-2.718l1.569-.047v-.531a2.063,2.063,0,0,0-.468-1.488,2.016,2.016,0,0,0-1.5-.48,6.484,6.484,0,0,0-2.615.656l-.43-.992a6.9,6.9,0,0,1,1.5-.539,6.989,6.989,0,0,1,1.632-.2,3.712,3.712,0,0,1,2.45.681,2.715,2.715,0,0,1,.8,2.18v5.844Zm-3.163-.914a2.975,2.975,0,0,0,2.054-.665,2.357,2.357,0,0,0,.746-1.858v-.773l-1.4.054a5.446,5.446,0,0,0-2.408.481,1.422,1.422,0,0,0-.738,1.324,1.283,1.283,0,0,0,.46,1.069A2.008,2.008,0,0,0,1894.034,11501.26Z" fill="#00223d"/>
        <path id="Trazado_10151" data-name="Trazado 10151" d="M1905.42,11493.47a3.563,3.563,0,0,1,2.83,1.153,5.785,5.785,0,0,1-.009,6.539,3.539,3.539,0,0,1-2.821,1.168,4.292,4.292,0,0,1-1.649-.309,3.053,3.053,0,0,1-1.252-.949h-.1l-.3,1.1h-1v-12.157h1.4v2.953c0,.663-.023,1.256-.068,1.782h.068A3.424,3.424,0,0,1,1905.42,11493.47Zm-.2,1.086a2.541,2.541,0,0,0-2.067.763,5.494,5.494,0,0,0,.017,5.148,2.567,2.567,0,0,0,2.083.777,2.22,2.22,0,0,0,1.924-.871,4.223,4.223,0,0,0,.632-2.5,4.063,4.063,0,0,0-.632-2.492A2.318,2.318,0,0,0,1905.218,11494.556Z" fill="#00223d"/>
        <path id="Trazado_10152" data-name="Trazado 10152" d="M1913.1,11502.174h-1.4v-12.157h1.4Z" fill="#00223d"/>
        <path id="Trazado_10153" data-name="Trazado 10153" d="M1919.978,11502.33a4.432,4.432,0,0,1-3.235-1.156,4.278,4.278,0,0,1-1.185-3.211,4.723,4.723,0,0,1,1.1-3.289,3.786,3.786,0,0,1,2.956-1.219,3.624,3.624,0,0,1,2.749,1.058,3.875,3.875,0,0,1,1.013,2.793v.821h-6.368a3.24,3.24,0,0,0,.822,2.289,2.97,2.97,0,0,0,2.2.781,7.942,7.942,0,0,0,2.952-.578v1.156a7.876,7.876,0,0,1-1.4.426A8.5,8.5,0,0,1,1919.978,11502.33Zm-.38-7.789a2.377,2.377,0,0,0-1.775.672,2.97,2.97,0,0,0-.78,1.859h4.832a2.712,2.712,0,0,0-.59-1.879A2.161,2.161,0,0,0,1919.6,11494.541Z" fill="#00223d"/>
        <path id="Trazado_10154" data-name="Trazado 10154" d="M1931.727,11499.838a2.091,2.091,0,0,1-.962,1.843,4.783,4.783,0,0,1-2.7.649,6.265,6.265,0,0,1-2.868-.539v-1.2a7.224,7.224,0,0,0,1.43.492,6.4,6.4,0,0,0,1.472.18,3.541,3.541,0,0,0,1.687-.325,1.071,1.071,0,0,0,.122-1.843,7.644,7.644,0,0,0-1.826-.84,10.2,10.2,0,0,1-1.835-.778,2.4,2.4,0,0,1-.809-.754,1.85,1.85,0,0,1-.266-1.007,1.888,1.888,0,0,1,.919-1.653,4.557,4.557,0,0,1,2.522-.6,7.887,7.887,0,0,1,2.919.562l-.5,1.056a7.143,7.143,0,0,0-2.522-.531,3.086,3.086,0,0,0-1.5.289.887.887,0,0,0-.506.8.917.917,0,0,0,.19.586,1.829,1.829,0,0,0,.611.461,13.894,13.894,0,0,0,1.619.632,6.214,6.214,0,0,1,2.223,1.118A1.891,1.891,0,0,1,1931.727,11499.838Z" fill="#00223d"/>
        <path id="Trazado_10155" data-name="Trazado 10155" d="M1942.4,11502.33a4.432,4.432,0,0,1-3.235-1.156,4.278,4.278,0,0,1-1.184-3.211,4.722,4.722,0,0,1,1.1-3.289,3.787,3.787,0,0,1,2.956-1.219,3.626,3.626,0,0,1,2.75,1.058,3.874,3.874,0,0,1,1.012,2.793v.821h-6.368a3.236,3.236,0,0,0,.823,2.289,2.968,2.968,0,0,0,2.2.781,7.952,7.952,0,0,0,2.953-.578v1.156a7.883,7.883,0,0,1-1.405.426A8.5,8.5,0,0,1,1942.4,11502.33Zm-.379-7.789a2.378,2.378,0,0,0-1.776.672,2.982,2.982,0,0,0-.78,1.859h4.833a2.707,2.707,0,0,0-.591-1.879A2.158,2.158,0,0,0,1942.017,11494.541Z" fill="#00223d"/>
        <path id="Trazado_10156" data-name="Trazado 10156" d="M1954.145,11499.838a2.091,2.091,0,0,1-.962,1.843,4.78,4.78,0,0,1-2.7.649,6.263,6.263,0,0,1-2.868-.539v-1.2a7.183,7.183,0,0,0,1.43.492,6.391,6.391,0,0,0,1.471.18,3.541,3.541,0,0,0,1.687-.325,1.07,1.07,0,0,0,.122-1.843,7.644,7.644,0,0,0-1.826-.84,10.157,10.157,0,0,1-1.834-.778,2.389,2.389,0,0,1-.81-.754,1.85,1.85,0,0,1-.265-1.007,1.885,1.885,0,0,1,.919-1.653,4.555,4.555,0,0,1,2.522-.6,7.884,7.884,0,0,1,2.918.562l-.5,1.056a7.138,7.138,0,0,0-2.522-.531,3.088,3.088,0,0,0-1.5.289.887.887,0,0,0-.506.8.923.923,0,0,0,.19.586,1.829,1.829,0,0,0,.611.461,13.931,13.931,0,0,0,1.62.632,6.216,6.216,0,0,1,2.222,1.118A1.891,1.891,0,0,1,1954.145,11499.838Z" fill="#00223d"/>
        <path id="Trazado_10157" data-name="Trazado 10157" d="M1959.408,11501.26a4.894,4.894,0,0,0,.717-.051,4.664,4.664,0,0,0,.548-.106v.992a2.633,2.633,0,0,1-.67.168,5.494,5.494,0,0,1-.8.067q-2.682,0-2.682-2.617v-5.094H1955.2v-.625l1.325-.539.59-1.828h.81v1.984h2.682v1.008h-2.682v5.039a1.646,1.646,0,0,0,.4,1.187A1.431,1.431,0,0,0,1959.408,11501.26Z" fill="#00223d"/>
        <path id="Trazado_10158" data-name="Trazado 10158" d="M1968.2,11502.174l-.278-1.219h-.068a3.821,3.821,0,0,1-1.379,1.09,4.49,4.49,0,0,1-1.716.285,3.246,3.246,0,0,1-2.155-.656,2.3,2.3,0,0,1-.78-1.868q0-2.591,4.478-2.718l1.569-.047v-.531a2.063,2.063,0,0,0-.468-1.488,2.016,2.016,0,0,0-1.5-.48,6.484,6.484,0,0,0-2.615.656l-.43-.992a6.923,6.923,0,0,1,1.5-.539,7,7,0,0,1,1.632-.2,3.717,3.717,0,0,1,2.451.681,2.715,2.715,0,0,1,.8,2.18v5.844Zm-3.163-.914a2.973,2.973,0,0,0,2.054-.665,2.357,2.357,0,0,0,.746-1.858v-.773l-1.4.054a5.446,5.446,0,0,0-2.408.481,1.422,1.422,0,0,0-.738,1.324,1.283,1.283,0,0,0,.46,1.069A2.008,2.008,0,0,0,1965.042,11501.26Zm-.329-8.977q.405-.483.873-1.172a13.134,13.134,0,0,0,.738-1.2h1.7v.164a11.758,11.758,0,0,1-1.1,1.25,11.933,11.933,0,0,1-1.274,1.147h-.936Z" fill="#00223d"/>
        <path id="Trazado_10159" data-name="Trazado 10159" d="M1978.453,11502.174v-5.539a2.127,2.127,0,0,0-.515-1.562,2.192,2.192,0,0,0-1.611-.517,2.774,2.774,0,0,0-2.125.728,3.469,3.469,0,0,0-.675,2.4v4.493h-1.4v-8.562h1.138l.228,1.172h.068a2.807,2.807,0,0,1,1.206-.981,4.2,4.2,0,0,1,1.729-.347,3.694,3.694,0,0,1,2.513.746,3.036,3.036,0,0,1,.844,2.387v5.586Z" fill="#00223d"/>
        <path id="Trazado_10160" data-name="Trazado 10160" d="M1989.021,11501.025h-.076a3.387,3.387,0,0,1-2.9,1.3,3.552,3.552,0,0,1-2.821-1.149,4.79,4.79,0,0,1-1.008-3.265,4.88,4.88,0,0,1,1.012-3.289,3.522,3.522,0,0,1,2.817-1.172,3.468,3.468,0,0,1,2.885,1.265h.11l-.059-.617-.034-.6v-3.485h1.4v12.157h-1.139Zm-2.8.219a2.66,2.66,0,0,0,2.08-.723,3.456,3.456,0,0,0,.645-2.332v-.273a4.053,4.053,0,0,0-.654-2.6,2.583,2.583,0,0,0-2.087-.777,2.2,2.2,0,0,0-1.885.886,4.158,4.158,0,0,0-.654,2.5,4,4,0,0,0,.649,2.478A2.267,2.267,0,0,0,1986.22,11501.244Z" fill="#00223d"/>
        <path id="Trazado_10161" data-name="Trazado 10161" d="M1999,11502.174l-.279-1.219h-.067a3.819,3.819,0,0,1-1.379,1.09,4.5,4.5,0,0,1-1.717.285,3.245,3.245,0,0,1-2.154-.656,2.3,2.3,0,0,1-.781-1.868q0-2.591,4.479-2.718l1.569-.047v-.531a2.059,2.059,0,0,0-.469-1.488,2.016,2.016,0,0,0-1.5-.48,6.484,6.484,0,0,0-2.614.656l-.43-.992a6.9,6.9,0,0,1,1.5-.539,6.983,6.983,0,0,1,1.632-.2,3.712,3.712,0,0,1,2.45.681,2.715,2.715,0,0,1,.8,2.18v5.844Zm-3.163-.914a2.971,2.971,0,0,0,2.053-.665,2.355,2.355,0,0,0,.747-1.858v-.773l-1.4.054a5.446,5.446,0,0,0-2.408.481,1.422,1.422,0,0,0-.738,1.324,1.283,1.283,0,0,0,.46,1.069A2.008,2.008,0,0,0,1995.836,11501.26Z" fill="#00223d"/>
        <path id="Trazado_10162" data-name="Trazado 10162" d="M2007.137,11493.455a5.9,5.9,0,0,1,1.1.094l-.193,1.2a5.138,5.138,0,0,0-1.013-.117,2.551,2.551,0,0,0-1.919.843,2.948,2.948,0,0,0-.8,2.1v4.594h-1.4v-8.562h1.155l.16,1.586h.068a3.88,3.88,0,0,1,1.24-1.289A2.948,2.948,0,0,1,2007.137,11493.455Z" fill="#00223d"/>
      </g>
    </g>
    <rect id="Rectángulo_6237" data-name="Rectángulo 6237" width="192.781" height="72.49" rx="5.6" transform="translate(1837.213 11654.661)" fill="#fff" stroke="#91c7ea" stroke-miterlimit="10" stroke-width="1"/>
    <g id="Grupo_9818" data-name="Grupo 9818">
      <g id="Grupo_9817" data-name="Grupo 9817">
        <path id="Trazado_10163" data-name="Trazado 10163" d="M1865.884,11676.5a3.107,3.107,0,0,1-1.277,2.668,6.124,6.124,0,0,1-3.657.933h-1.45v4.492h-1.434v-11.421h3.2Q1865.884,11673.172,1865.884,11676.5Zm-6.384,2.461h1.29a5.086,5.086,0,0,0,2.758-.571,2.038,2.038,0,0,0,.852-1.828,1.912,1.912,0,0,0-.8-1.687,4.456,4.456,0,0,0-2.5-.555h-1.6Z" fill="#00223d"/>
        <path id="Trazado_10164" data-name="Trazado 10164" d="M1872.471,11675.875a5.988,5.988,0,0,1,1.105.093l-.193,1.2a5.076,5.076,0,0,0-1.013-.118,2.549,2.549,0,0,0-1.919.845,2.944,2.944,0,0,0-.8,2.1v4.593h-1.4v-8.562h1.155l.16,1.586h.068a3.879,3.879,0,0,1,1.24-1.289A2.948,2.948,0,0,1,1872.471,11675.875Z" fill="#00223d"/>
        <path id="Trazado_10165" data-name="Trazado 10165" d="M1879.211,11684.75a4.427,4.427,0,0,1-3.235-1.157,4.275,4.275,0,0,1-1.185-3.21,4.727,4.727,0,0,1,1.1-3.29,3.788,3.788,0,0,1,2.956-1.218,3.624,3.624,0,0,1,2.749,1.058,3.875,3.875,0,0,1,1.013,2.793v.821h-6.368a3.241,3.241,0,0,0,.822,2.289,2.966,2.966,0,0,0,2.2.781,7.947,7.947,0,0,0,2.952-.578v1.156a7.9,7.9,0,0,1-1.4.426A8.5,8.5,0,0,1,1879.211,11684.75Zm-.38-7.789a2.381,2.381,0,0,0-1.776.672,2.981,2.981,0,0,0-.78,1.859h4.833a2.712,2.712,0,0,0-.59-1.879A2.157,2.157,0,0,0,1878.831,11676.961Z" fill="#00223d"/>
        <path id="Trazado_10166" data-name="Trazado 10166" d="M1887.021,11684.593l-3.509-8.562h1.5l1.991,5.078a23.135,23.135,0,0,1,.793,2.313h.067a16.6,16.6,0,0,1,.586-1.715q.494-1.3,2.214-5.676h1.5l-3.508,8.562Z" fill="#00223d"/>
        <path id="Trazado_10167" data-name="Trazado 10167" d="M1897.555,11684.75a4.426,4.426,0,0,1-3.234-1.157,4.271,4.271,0,0,1-1.186-3.21,4.727,4.727,0,0,1,1.1-3.29,3.79,3.79,0,0,1,2.957-1.218,3.626,3.626,0,0,1,2.749,1.058,3.874,3.874,0,0,1,1.012,2.793v.821h-6.368a3.236,3.236,0,0,0,.823,2.289,2.964,2.964,0,0,0,2.2.781,7.95,7.95,0,0,0,2.952-.578v1.156a7.9,7.9,0,0,1-1.4.426A8.517,8.517,0,0,1,1897.555,11684.75Zm-.38-7.789a2.379,2.379,0,0,0-1.775.672,2.981,2.981,0,0,0-.78,1.859h4.833a2.712,2.712,0,0,0-.59-1.879A2.16,2.16,0,0,0,1897.175,11676.961Z" fill="#00223d"/>
        <path id="Trazado_10168" data-name="Trazado 10168" d="M1909.667,11684.593v-5.539a2.127,2.127,0,0,0-.515-1.562,2.2,2.2,0,0,0-1.611-.517,2.769,2.769,0,0,0-2.125.728,3.469,3.469,0,0,0-.675,2.4v4.492h-1.4v-8.562h1.139l.227,1.172h.068a2.818,2.818,0,0,1,1.206-.981,4.2,4.2,0,0,1,1.729-.347,3.694,3.694,0,0,1,2.513.746,3.033,3.033,0,0,1,.844,2.387v5.585Z" fill="#00223d"/>
        <path id="Trazado_10169" data-name="Trazado 10169" d="M1913.825,11673.711a.83.83,0,0,1,.236-.653.926.926,0,0,1,1.172,0,.987.987,0,0,1,0,1.3.851.851,0,0,1-.582.215.781.781,0,0,1-.826-.867Zm1.518,10.882h-1.4v-8.562h1.4Z" fill="#00223d"/>
        <path id="Trazado_10170" data-name="Trazado 10170" d="M1922.529,11675.875a6,6,0,0,1,1.1.093l-.194,1.2a5.072,5.072,0,0,0-1.012-.118,2.546,2.546,0,0,0-1.919.845,2.944,2.944,0,0,0-.8,2.1v4.593h-1.4v-8.562h1.155l.161,1.586h.067a3.879,3.879,0,0,1,1.24-1.289A2.951,2.951,0,0,1,1922.529,11675.875Z" fill="#00223d"/>
        <path id="Trazado_10171" data-name="Trazado 10171" d="M1929.732,11673.711a.83.83,0,0,1,.236-.653.926.926,0,0,1,1.172,0,.987.987,0,0,1,0,1.3.851.851,0,0,1-.582.215.78.78,0,0,1-.826-.867Zm1.518,10.882h-1.4v-8.562h1.4Z" fill="#00223d"/>
        <path id="Trazado_10172" data-name="Trazado 10172" d="M1940.545,11684.593v-5.539a2.127,2.127,0,0,0-.515-1.562,2.2,2.2,0,0,0-1.611-.517,2.77,2.77,0,0,0-2.125.728,3.47,3.47,0,0,0-.675,2.4v4.492h-1.4v-8.562h1.139l.227,1.172h.068a2.819,2.819,0,0,1,1.206-.981,4.2,4.2,0,0,1,1.729-.347,3.694,3.694,0,0,1,2.513.746,3.033,3.033,0,0,1,.844,2.387v5.585Z" fill="#00223d"/>
        <path id="Trazado_10173" data-name="Trazado 10173" d="M1948.515,11684.75a4.108,4.108,0,0,1-3.108-1.145,4.482,4.482,0,0,1-1.1-3.238,4.621,4.621,0,0,1,1.118-3.32,4.187,4.187,0,0,1,3.184-1.172,6.845,6.845,0,0,1,1.332.133,4.642,4.642,0,0,1,1.046.313l-.43,1.1a7.109,7.109,0,0,0-1.012-.286,4.882,4.882,0,0,0-.97-.112q-2.817,0-2.817,3.327a3.744,3.744,0,0,0,.688,2.423,2.472,2.472,0,0,0,2.036.844,6.643,6.643,0,0,0,2.37-.461v1.147A5.389,5.389,0,0,1,1948.515,11684.75Z" fill="#00223d"/>
        <path id="Trazado_10174" data-name="Trazado 10174" d="M1952.926,11673.711a.83.83,0,0,1,.236-.653.927.927,0,0,1,1.173,0,.99.99,0,0,1,0,1.3.908.908,0,0,1-1.173,0A.84.84,0,0,1,1952.926,11673.711Zm1.518,10.882h-1.4v-8.562h1.4Z" fill="#00223d"/>
        <path id="Trazado_10175" data-name="Trazado 10175" d="M1963.7,11683.445h-.076a3.382,3.382,0,0,1-2.9,1.3,3.555,3.555,0,0,1-2.822-1.149,4.8,4.8,0,0,1-1.007-3.265,4.875,4.875,0,0,1,1.012-3.289,3.522,3.522,0,0,1,2.817-1.172,3.469,3.469,0,0,1,2.885,1.265h.109l-.059-.616-.034-.6v-3.485h1.4v12.156h-1.138Zm-2.8.219a2.657,2.657,0,0,0,2.079-.723,3.456,3.456,0,0,0,.645-2.332v-.273a4.059,4.059,0,0,0-.653-2.6,2.58,2.58,0,0,0-2.088-.777,2.2,2.2,0,0,0-1.885.886,4.161,4.161,0,0,0-.654,2.5,3.988,3.988,0,0,0,.65,2.478A2.268,2.268,0,0,0,1960.905,11683.664Z" fill="#00223d"/>
        <path id="Trazado_10176" data-name="Trazado 10176" d="M1971.9,11684.75a4.427,4.427,0,0,1-3.235-1.157,4.275,4.275,0,0,1-1.185-3.21,4.727,4.727,0,0,1,1.1-3.29,3.788,3.788,0,0,1,2.956-1.218,3.626,3.626,0,0,1,2.749,1.058,3.874,3.874,0,0,1,1.012,2.793v.821h-6.367a3.241,3.241,0,0,0,.822,2.289,2.965,2.965,0,0,0,2.2.781,7.95,7.95,0,0,0,2.952-.578v1.156a7.9,7.9,0,0,1-1.4.426A8.5,8.5,0,0,1,1971.9,11684.75Zm-.38-7.789a2.379,2.379,0,0,0-1.776.672,2.981,2.981,0,0,0-.78,1.859h4.833a2.712,2.712,0,0,0-.59-1.879A2.157,2.157,0,0,0,1971.524,11676.961Z" fill="#00223d"/>
        <path id="Trazado_10177" data-name="Trazado 10177" d="M1984.015,11684.593v-5.539a2.127,2.127,0,0,0-.515-1.562,2.2,2.2,0,0,0-1.611-.517,2.771,2.771,0,0,0-2.125.728,3.469,3.469,0,0,0-.675,2.4v4.492h-1.4v-8.562h1.139l.228,1.172h.067a2.818,2.818,0,0,1,1.206-.981,4.2,4.2,0,0,1,1.729-.347,3.692,3.692,0,0,1,2.513.746,3.033,3.033,0,0,1,.844,2.387v5.585Z" fill="#00223d"/>
        <path id="Trazado_10178" data-name="Trazado 10178" d="M1991.277,11683.679a4.9,4.9,0,0,0,.717-.05,5.147,5.147,0,0,0,.548-.105v.991a2.633,2.633,0,0,1-.67.168,5.493,5.493,0,0,1-.8.067q-2.682,0-2.682-2.617v-5.094h-1.324v-.625l1.324-.539.591-1.828h.809v1.984h2.683v1.008h-2.683v5.039a1.648,1.648,0,0,0,.4,1.187A1.43,1.43,0,0,0,1991.277,11683.679Z" fill="#00223d"/>
        <path id="Trazado_10179" data-name="Trazado 10179" d="M1998.294,11684.75a4.426,4.426,0,0,1-3.234-1.157,4.275,4.275,0,0,1-1.185-3.21,4.726,4.726,0,0,1,1.1-3.29,3.791,3.791,0,0,1,2.957-1.218,3.624,3.624,0,0,1,2.749,1.058,3.874,3.874,0,0,1,1.012,2.793v.821h-6.368a3.242,3.242,0,0,0,.823,2.289,2.965,2.965,0,0,0,2.2.781,7.95,7.95,0,0,0,2.952-.578v1.156a7.9,7.9,0,0,1-1.4.426A8.515,8.515,0,0,1,1998.294,11684.75Zm-.379-7.789a2.381,2.381,0,0,0-1.776.672,2.981,2.981,0,0,0-.78,1.859h4.833a2.712,2.712,0,0,0-.59-1.879A2.157,2.157,0,0,0,1997.915,11676.961Z" fill="#00223d"/>
        <path id="Trazado_10180" data-name="Trazado 10180" d="M2010.043,11682.258a2.091,2.091,0,0,1-.961,1.843,4.783,4.783,0,0,1-2.7.649,6.265,6.265,0,0,1-2.868-.539v-1.2a7.2,7.2,0,0,0,1.43.492,6.388,6.388,0,0,0,1.471.179,3.553,3.553,0,0,0,1.687-.323,1.073,1.073,0,0,0,.123-1.845,7.69,7.69,0,0,0-1.826-.839,10.172,10.172,0,0,1-1.835-.778,2.39,2.39,0,0,1-.81-.754,1.847,1.847,0,0,1-.265-1.007,1.883,1.883,0,0,1,.919-1.652,4.549,4.549,0,0,1,2.522-.605,7.882,7.882,0,0,1,2.918.562l-.5,1.056a7.148,7.148,0,0,0-2.522-.531,3.09,3.09,0,0,0-1.5.289.887.887,0,0,0-.506.8.919.919,0,0,0,.19.586,1.822,1.822,0,0,0,.612.46,13.586,13.586,0,0,0,1.619.633,6.208,6.208,0,0,1,2.223,1.117A1.9,1.9,0,0,1,2010.043,11682.258Z" fill="#00223d"/>
        <path id="Trazado_10181" data-name="Trazado 10181" d="M1884.36,11698.031h1.5l2.024,4.883a17.732,17.732,0,0,1,.827,2.414h.067c.073-.267.227-.72.46-1.363s1-2.622,2.29-5.934h1.5l-3.973,9.75a4.832,4.832,0,0,1-1.379,2.051,3.081,3.081,0,0,1-1.935.6,6.033,6.033,0,0,1-1.265-.133v-1.039a5.175,5.175,0,0,0,1.037.095,2.117,2.117,0,0,0,2.058-1.5l.515-1.22Z" fill="#00223d"/>
        <path id="Trazado_10182" data-name="Trazado 10182" d="M1904.7,11706.593l-.278-1.218h-.068a3.813,3.813,0,0,1-1.379,1.09,4.49,4.49,0,0,1-1.716.285,3.24,3.24,0,0,1-2.155-.657,2.3,2.3,0,0,1-.78-1.867q0-2.591,4.478-2.718l1.569-.047v-.532a2.061,2.061,0,0,0-.468-1.487,2.016,2.016,0,0,0-1.5-.48,6.472,6.472,0,0,0-2.615.656l-.43-.992a7.173,7.173,0,0,1,3.129-.735,3.717,3.717,0,0,1,2.451.681,2.717,2.717,0,0,1,.8,2.18v5.843Zm-3.163-.914a2.973,2.973,0,0,0,2.054-.664,2.354,2.354,0,0,0,.747-1.858v-.773l-1.4.054a5.446,5.446,0,0,0-2.408.481,1.422,1.422,0,0,0-.738,1.324,1.283,1.283,0,0,0,.46,1.069A2.008,2.008,0,0,0,1901.54,11705.679Z" fill="#00223d"/>
        <path id="Trazado_10183" data-name="Trazado 10183" d="M1912.319,11706.75a4.108,4.108,0,0,1-3.108-1.145,4.482,4.482,0,0,1-1.1-3.238,4.621,4.621,0,0,1,1.117-3.32,4.187,4.187,0,0,1,3.184-1.172,6.863,6.863,0,0,1,1.333.133,4.635,4.635,0,0,1,1.045.313l-.43,1.1a7.07,7.07,0,0,0-1.012-.286,4.875,4.875,0,0,0-.97-.112q-2.817,0-2.817,3.327a3.744,3.744,0,0,0,.688,2.423,2.472,2.472,0,0,0,2.036.844,6.643,6.643,0,0,0,2.37-.461v1.147A5.39,5.39,0,0,1,1912.319,11706.75Z" fill="#00223d"/>
        <path id="Trazado_10184" data-name="Trazado 10184" d="M1920.543,11706.75a4.106,4.106,0,0,1-3.108-1.145,4.483,4.483,0,0,1-1.1-3.238,4.617,4.617,0,0,1,1.118-3.32,4.185,4.185,0,0,1,3.183-1.172,6.848,6.848,0,0,1,1.333.133,4.646,4.646,0,0,1,1.046.313l-.43,1.1a7.107,7.107,0,0,0-1.012-.286,4.882,4.882,0,0,0-.97-.112q-2.817,0-2.817,3.327a3.75,3.75,0,0,0,.687,2.423,2.472,2.472,0,0,0,2.037.844,6.647,6.647,0,0,0,2.37-.461v1.147A5.393,5.393,0,0,1,1920.543,11706.75Z" fill="#00223d"/>
        <path id="Trazado_10185" data-name="Trazado 10185" d="M1924.954,11695.711a.827.827,0,0,1,.236-.653.928.928,0,0,1,1.173,0,.99.99,0,0,1,0,1.3.855.855,0,0,1-.583.215.78.78,0,0,1-.826-.867Zm1.518,10.882h-1.4v-8.562h1.4Z" fill="#00223d"/>
        <path id="Trazado_10186" data-name="Trazado 10186" d="M1935.733,11705.445h-.076a3.384,3.384,0,0,1-2.9,1.3,3.555,3.555,0,0,1-2.822-1.149,4.79,4.79,0,0,1-1.008-3.265,4.876,4.876,0,0,1,1.013-3.289,3.519,3.519,0,0,1,2.817-1.172,3.467,3.467,0,0,1,2.884,1.265h.11l-.059-.616-.034-.6v-3.485h1.4v12.156h-1.138Zm-2.8.219a2.656,2.656,0,0,0,2.079-.723,3.455,3.455,0,0,0,.645-2.332v-.273a4.054,4.054,0,0,0-.654-2.6,2.577,2.577,0,0,0-2.087-.777,2.2,2.2,0,0,0-1.885.886,4.161,4.161,0,0,0-.654,2.5,3.982,3.982,0,0,0,.65,2.478A2.268,2.268,0,0,0,1932.933,11705.664Z" fill="#00223d"/>
        <path id="Trazado_10187" data-name="Trazado 10187" d="M1943.931,11706.75a4.43,4.43,0,0,1-3.235-1.157,4.275,4.275,0,0,1-1.185-3.21,4.727,4.727,0,0,1,1.1-3.29,3.789,3.789,0,0,1,2.956-1.218,3.627,3.627,0,0,1,2.75,1.058,3.874,3.874,0,0,1,1.012,2.793v.821h-6.368a3.24,3.24,0,0,0,.822,2.289,2.967,2.967,0,0,0,2.2.781,7.949,7.949,0,0,0,2.952-.578v1.156a7.885,7.885,0,0,1-1.4.426A8.5,8.5,0,0,1,1943.931,11706.75Zm-.38-7.789a2.377,2.377,0,0,0-1.775.672,2.976,2.976,0,0,0-.78,1.859h4.833a2.708,2.708,0,0,0-.591-1.879A2.156,2.156,0,0,0,1943.551,11698.961Z" fill="#00223d"/>
        <path id="Trazado_10188" data-name="Trazado 10188" d="M1956.043,11706.593v-5.539a2.127,2.127,0,0,0-.515-1.562,2.2,2.2,0,0,0-1.611-.517,2.769,2.769,0,0,0-2.125.728,3.47,3.47,0,0,0-.675,2.4v4.492h-1.4v-8.562h1.139l.227,1.172h.068a2.818,2.818,0,0,1,1.206-.981,4.2,4.2,0,0,1,1.729-.347,3.694,3.694,0,0,1,2.513.746,3.033,3.033,0,0,1,.844,2.387v5.585Z" fill="#00223d"/>
        <path id="Trazado_10189" data-name="Trazado 10189" d="M1963.305,11705.679a4.9,4.9,0,0,0,.717-.05,5.141,5.141,0,0,0,.548-.105v.991a2.631,2.631,0,0,1-.671.168,5.483,5.483,0,0,1-.8.067q-2.682,0-2.682-2.617v-5.094H1959.1v-.625l1.324-.539.59-1.828h.81v1.984h2.682v1.008h-2.682v5.039a1.644,1.644,0,0,0,.4,1.187A1.428,1.428,0,0,0,1963.305,11705.679Z" fill="#00223d"/>
        <path id="Trazado_10190" data-name="Trazado 10190" d="M1970.322,11706.75a4.428,4.428,0,0,1-3.235-1.157,4.275,4.275,0,0,1-1.185-3.21,4.727,4.727,0,0,1,1.1-3.29,3.789,3.789,0,0,1,2.956-1.218,3.628,3.628,0,0,1,2.75,1.058,3.878,3.878,0,0,1,1.012,2.793v.821h-6.368a3.24,3.24,0,0,0,.822,2.289,2.968,2.968,0,0,0,2.2.781,7.942,7.942,0,0,0,2.952-.578v1.156a7.849,7.849,0,0,1-1.4.426A8.5,8.5,0,0,1,1970.322,11706.75Zm-.38-7.789a2.377,2.377,0,0,0-1.775.672,2.976,2.976,0,0,0-.78,1.859h4.832a2.707,2.707,0,0,0-.59-1.879A2.156,2.156,0,0,0,1969.942,11698.961Z" fill="#00223d"/>
        <path id="Trazado_10191" data-name="Trazado 10191" d="M1982.071,11704.258a2.092,2.092,0,0,1-.962,1.843,4.781,4.781,0,0,1-2.7.649,6.264,6.264,0,0,1-2.867-.539v-1.2a7.2,7.2,0,0,0,1.429.492,6.4,6.4,0,0,0,1.472.179,3.555,3.555,0,0,0,1.687-.323,1.073,1.073,0,0,0,.122-1.845,7.691,7.691,0,0,0-1.826-.839,10.153,10.153,0,0,1-1.834-.778,2.389,2.389,0,0,1-.81-.754,1.848,1.848,0,0,1-.266-1.007,1.884,1.884,0,0,1,.92-1.652,4.547,4.547,0,0,1,2.522-.605,7.886,7.886,0,0,1,2.918.562l-.5,1.056a7.143,7.143,0,0,0-2.522-.531,3.089,3.089,0,0,0-1.5.289.887.887,0,0,0-.506.8.919.919,0,0,0,.19.586,1.815,1.815,0,0,0,.611.46,13.63,13.63,0,0,0,1.62.633,6.2,6.2,0,0,1,2.222,1.117A1.9,1.9,0,0,1,1982.071,11704.258Z" fill="#00223d"/>
      </g>
    </g>
    <rect id="Rectángulo_6238" data-name="Rectángulo 6238" width="192.781" height="96.107" rx="5.6" transform="translate(1837.213 11541.177)" fill="#fff" stroke="#91c7ea" stroke-miterlimit="10" stroke-width="1"/>
    <g id="Grupo_9820" data-name="Grupo 9820">
      <g id="Grupo_9819" data-name="Grupo 9819">
        <path id="Trazado_10192" data-name="Trazado 10192" d="M1869.368,11563.824a3.1,3.1,0,0,1-1.278,2.668,6.122,6.122,0,0,1-3.656.934h-1.451v4.492h-1.434V11560.5h3.2Q1869.368,11560.5,1869.368,11563.824Zm-6.385,2.461h1.29a5.1,5.1,0,0,0,2.758-.57,2.041,2.041,0,0,0,.852-1.829,1.914,1.914,0,0,0-.8-1.687,4.449,4.449,0,0,0-2.5-.556h-1.6Z" fill="#00223d"/>
        <path id="Trazado_10193" data-name="Trazado 10193" d="M1875.955,11563.2a5.907,5.907,0,0,1,1.105.094l-.194,1.2a5.129,5.129,0,0,0-1.012-.117,2.547,2.547,0,0,0-1.919.843,2.948,2.948,0,0,0-.8,2.1v4.594h-1.4v-8.562h1.155l.16,1.586h.068a3.888,3.888,0,0,1,1.24-1.289A2.943,2.943,0,0,1,1875.955,11563.2Z" fill="#00223d"/>
        <path id="Trazado_10194" data-name="Trazado 10194" d="M1882.694,11572.074a4.432,4.432,0,0,1-3.235-1.156,4.278,4.278,0,0,1-1.185-3.211,4.723,4.723,0,0,1,1.1-3.289,3.787,3.787,0,0,1,2.956-1.219,3.625,3.625,0,0,1,2.75,1.059,3.871,3.871,0,0,1,1.012,2.793v.82h-6.368a3.237,3.237,0,0,0,.823,2.289,2.968,2.968,0,0,0,2.2.781,7.943,7.943,0,0,0,2.952-.578v1.155a7.7,7.7,0,0,1-1.4.427A8.5,8.5,0,0,1,1882.694,11572.074Zm-.38-7.789a2.381,2.381,0,0,0-1.775.672,2.976,2.976,0,0,0-.78,1.859h4.833a2.711,2.711,0,0,0-.591-1.88A2.162,2.162,0,0,0,1882.314,11564.285Z" fill="#00223d"/>
        <path id="Trazado_10195" data-name="Trazado 10195" d="M1890.5,11571.918l-3.509-8.562h1.5l1.99,5.077a22.854,22.854,0,0,1,.793,2.313h.067a16.612,16.612,0,0,1,.587-1.715q.492-1.3,2.214-5.676h1.5l-3.509,8.563Z" fill="#00223d"/>
        <path id="Trazado_10196" data-name="Trazado 10196" d="M1901.039,11572.074a4.431,4.431,0,0,1-3.235-1.156,4.279,4.279,0,0,1-1.185-3.211,4.723,4.723,0,0,1,1.1-3.289,3.785,3.785,0,0,1,2.956-1.219,3.622,3.622,0,0,1,2.749,1.059,3.872,3.872,0,0,1,1.013,2.793v.82h-6.368a3.241,3.241,0,0,0,.822,2.289,2.969,2.969,0,0,0,2.2.781,7.95,7.95,0,0,0,2.952-.578v1.155a7.747,7.747,0,0,1-1.4.427A8.5,8.5,0,0,1,1901.039,11572.074Zm-.38-7.789a2.385,2.385,0,0,0-1.776.672,2.981,2.981,0,0,0-.78,1.859h4.833a2.716,2.716,0,0,0-.59-1.88A2.163,2.163,0,0,0,1900.659,11564.285Z" fill="#00223d"/>
        <path id="Trazado_10197" data-name="Trazado 10197" d="M1911.041,11563.2a5.9,5.9,0,0,1,1.1.094l-.194,1.2a5.122,5.122,0,0,0-1.012-.117,2.55,2.55,0,0,0-1.919.843,2.948,2.948,0,0,0-.8,2.1v4.594h-1.4v-8.562h1.156l.16,1.586h.068a3.886,3.886,0,0,1,1.239-1.289A2.946,2.946,0,0,1,1911.041,11563.2Z" fill="#00223d"/>
        <path id="Trazado_10198" data-name="Trazado 10198" d="M1924.326,11569.582a2.094,2.094,0,0,1-.962,1.844,4.792,4.792,0,0,1-2.7.648,6.271,6.271,0,0,1-2.867-.539v-1.2a7.172,7.172,0,0,0,1.429.492,6.4,6.4,0,0,0,1.472.18,3.541,3.541,0,0,0,1.687-.325,1.071,1.071,0,0,0,.122-1.843,7.6,7.6,0,0,0-1.826-.84,10.2,10.2,0,0,1-1.835-.778,2.4,2.4,0,0,1-.809-.753,1.858,1.858,0,0,1-.266-1.008,1.888,1.888,0,0,1,.92-1.653,4.551,4.551,0,0,1,2.521-.6,7.887,7.887,0,0,1,2.919.562l-.5,1.056a7.169,7.169,0,0,0-2.522-.531,3.1,3.1,0,0,0-1.5.289.886.886,0,0,0-.506.8.919.919,0,0,0,.19.586,1.829,1.829,0,0,0,.611.461,13.99,13.99,0,0,0,1.62.633,6.2,6.2,0,0,1,2.222,1.117A1.891,1.891,0,0,1,1924.326,11569.582Z" fill="#00223d"/>
        <path id="Trazado_10199" data-name="Trazado 10199" d="M1926.485,11561.035a.823.823,0,0,1,.236-.652.928.928,0,0,1,1.172,0,.986.986,0,0,1,0,1.3.847.847,0,0,1-.582.216.782.782,0,0,1-.826-.867Zm1.518,10.883h-1.4v-8.562h1.4Z" fill="#00223d"/>
        <path id="Trazado_10200" data-name="Trazado 10200" d="M1933.957,11571a4.9,4.9,0,0,0,.718-.051,4.47,4.47,0,0,0,.548-.106v.993a2.685,2.685,0,0,1-.671.168,5.471,5.471,0,0,1-.8.066q-2.682,0-2.682-2.617v-5.094h-1.324v-.625l1.324-.539.59-1.828h.81v1.984h2.682v1.008h-2.682v5.039a1.65,1.65,0,0,0,.4,1.188A1.433,1.433,0,0,0,1933.957,11571Z" fill="#00223d"/>
        <path id="Trazado_10201" data-name="Trazado 10201" d="M1938.385,11563.355v5.555a2.123,2.123,0,0,0,.515,1.562,2.192,2.192,0,0,0,1.611.517,2.74,2.74,0,0,0,2.121-.734,3.507,3.507,0,0,0,.671-2.4v-4.5h1.4v8.563h-1.156l-.2-1.149h-.076a2.738,2.738,0,0,1-1.194.97,4.284,4.284,0,0,1-1.741.336,3.715,3.715,0,0,1-2.526-.742,3.016,3.016,0,0,1-.84-2.375v-5.6Z" fill="#00223d"/>
        <path id="Trazado_10202" data-name="Trazado 10202" d="M1953.356,11571.918l-.278-1.219h-.068a3.82,3.82,0,0,1-1.378,1.09,4.518,4.518,0,0,1-1.717.285,3.248,3.248,0,0,1-2.155-.656,2.3,2.3,0,0,1-.78-1.867q0-2.593,4.479-2.719l1.569-.047v-.531a2.067,2.067,0,0,0-.469-1.489,2.02,2.02,0,0,0-1.5-.479,6.488,6.488,0,0,0-2.615.656l-.43-.992a7.156,7.156,0,0,1,3.13-.734,3.72,3.72,0,0,1,2.45.679,2.719,2.719,0,0,1,.8,2.181v5.844Zm-3.162-.914a2.975,2.975,0,0,0,2.053-.664,2.358,2.358,0,0,0,.747-1.859v-.773l-1.4.054a5.451,5.451,0,0,0-2.407.481,1.424,1.424,0,0,0-.739,1.324,1.287,1.287,0,0,0,.46,1.069A2.005,2.005,0,0,0,1950.194,11571Z" fill="#00223d"/>
        <path id="Trazado_10203" data-name="Trazado 10203" d="M1960.973,11572.074a4.106,4.106,0,0,1-3.109-1.146,4.481,4.481,0,0,1-1.1-3.237,4.618,4.618,0,0,1,1.118-3.32,4.189,4.189,0,0,1,3.183-1.172,6.855,6.855,0,0,1,1.333.133,4.751,4.751,0,0,1,1.046.312l-.43,1.1a7.152,7.152,0,0,0-1.012-.285,4.828,4.828,0,0,0-.971-.114q-2.815,0-2.816,3.329a3.745,3.745,0,0,0,.687,2.421,2.47,2.47,0,0,0,2.037.845,6.651,6.651,0,0,0,2.37-.461v1.148A5.393,5.393,0,0,1,1960.973,11572.074Z" fill="#00223d"/>
        <path id="Trazado_10204" data-name="Trazado 10204" d="M1965.383,11561.035a.823.823,0,0,1,.237-.652.928.928,0,0,1,1.172,0,.986.986,0,0,1,0,1.3.847.847,0,0,1-.582.216.783.783,0,0,1-.827-.867Zm1.519,10.883h-1.4v-8.562h1.4Z" fill="#00223d"/>
        <path id="Trazado_10205" data-name="Trazado 10205" d="M1977.85,11567.629a4.5,4.5,0,0,1-1.139,3.27,4.178,4.178,0,0,1-3.146,1.176,4.438,4.438,0,0,1-2.2-.539,3.672,3.672,0,0,1-1.484-1.547,5.049,5.049,0,0,1-.523-2.359,4.5,4.5,0,0,1,1.131-3.262,4.162,4.162,0,0,1,3.137-1.168,4.065,4.065,0,0,1,3.083,1.194A4.492,4.492,0,0,1,1977.85,11567.629Zm-7.043,0a3.848,3.848,0,0,0,.708,2.5,2.965,2.965,0,0,0,4.171,0,3.829,3.829,0,0,0,.713-2.5,3.768,3.768,0,0,0-.713-2.48,2.6,2.6,0,0,0-2.1-.848,2.557,2.557,0,0,0-2.075.835A3.81,3.81,0,0,0,1970.807,11567.629Z" fill="#00223d"/>
        <path id="Trazado_10206" data-name="Trazado 10206" d="M1986.63,11571.918v-5.539a2.127,2.127,0,0,0-.515-1.562,2.192,2.192,0,0,0-1.611-.516,2.774,2.774,0,0,0-2.125.727,3.469,3.469,0,0,0-.675,2.4v4.492h-1.4v-8.562h1.139l.227,1.172h.068a2.8,2.8,0,0,1,1.206-.98,4.185,4.185,0,0,1,1.729-.348,3.694,3.694,0,0,1,2.513.746,3.033,3.033,0,0,1,.844,2.387v5.586Z" fill="#00223d"/>
        <path id="Trazado_10207" data-name="Trazado 10207" d="M1994.811,11572.074a4.432,4.432,0,0,1-3.235-1.156,4.278,4.278,0,0,1-1.185-3.211,4.723,4.723,0,0,1,1.1-3.289,3.787,3.787,0,0,1,2.956-1.219,3.625,3.625,0,0,1,2.75,1.059,3.871,3.871,0,0,1,1.012,2.793v.82h-6.368a3.241,3.241,0,0,0,.822,2.289,2.971,2.971,0,0,0,2.2.781,7.941,7.941,0,0,0,2.951-.578v1.155a7.7,7.7,0,0,1-1.4.427A8.5,8.5,0,0,1,1994.811,11572.074Zm-.38-7.789a2.381,2.381,0,0,0-1.775.672,2.976,2.976,0,0,0-.78,1.859h4.833a2.712,2.712,0,0,0-.591-1.88A2.162,2.162,0,0,0,1994.431,11564.285Z" fill="#00223d"/>
        <path id="Trazado_10208" data-name="Trazado 10208" d="M2006.56,11569.582a2.094,2.094,0,0,1-.962,1.844,4.79,4.79,0,0,1-2.7.648,6.274,6.274,0,0,1-2.867-.539v-1.2a7.193,7.193,0,0,0,1.429.492,6.4,6.4,0,0,0,1.472.18,3.541,3.541,0,0,0,1.687-.325,1.071,1.071,0,0,0,.122-1.843,7.6,7.6,0,0,0-1.826-.84,10.184,10.184,0,0,1-1.834-.778,2.4,2.4,0,0,1-.81-.753,1.858,1.858,0,0,1-.265-1.008,1.887,1.887,0,0,1,.919-1.653,4.554,4.554,0,0,1,2.521-.6,7.884,7.884,0,0,1,2.919.562l-.5,1.056a7.16,7.16,0,0,0-2.522-.531,3.1,3.1,0,0,0-1.5.289.886.886,0,0,0-.506.8.919.919,0,0,0,.19.586,1.829,1.829,0,0,0,.611.461,13.99,13.99,0,0,0,1.62.633,6.2,6.2,0,0,1,2.222,1.117A1.891,1.891,0,0,1,2006.56,11569.582Z" fill="#00223d"/>
        <path id="Trazado_10209" data-name="Trazado 10209" d="M1866.757,11585.355h1.5l2.025,4.883a17.652,17.652,0,0,1,.827,2.414h.067q.109-.4.459-1.363t2.29-5.934h1.5l-3.973,9.75a4.824,4.824,0,0,1-1.379,2.051,3.092,3.092,0,0,1-1.935.6,6.042,6.042,0,0,1-1.266-.132v-1.039a5.267,5.267,0,0,0,1.038.093,2.119,2.119,0,0,0,2.058-1.5l.514-1.218Z" fill="#00223d"/>
        <path id="Trazado_10210" data-name="Trazado 10210" d="M1885.111,11594.074a4.106,4.106,0,0,1-3.109-1.146,4.481,4.481,0,0,1-1.1-3.237,4.622,4.622,0,0,1,1.117-3.32,4.191,4.191,0,0,1,3.184-1.172,6.856,6.856,0,0,1,1.333.133,4.755,4.755,0,0,1,1.046.312l-.43,1.1a7.123,7.123,0,0,0-1.013-.285,4.82,4.82,0,0,0-.97-.114q-2.817,0-2.817,3.329a3.74,3.74,0,0,0,.688,2.421,2.47,2.47,0,0,0,2.037.845,6.651,6.651,0,0,0,2.37-.461v1.148A5.393,5.393,0,0,1,1885.111,11594.074Z" fill="#00223d"/>
        <path id="Trazado_10211" data-name="Trazado 10211" d="M1897.618,11589.629a4.5,4.5,0,0,1-1.138,3.27,4.178,4.178,0,0,1-3.146,1.176,4.429,4.429,0,0,1-2.2-.539,3.663,3.663,0,0,1-1.485-1.547,5.049,5.049,0,0,1-.523-2.359,4.5,4.5,0,0,1,1.13-3.262,4.163,4.163,0,0,1,3.138-1.168,4.065,4.065,0,0,1,3.083,1.194A4.487,4.487,0,0,1,1897.618,11589.629Zm-7.042,0a3.848,3.848,0,0,0,.708,2.5,2.965,2.965,0,0,0,4.171,0,3.828,3.828,0,0,0,.713-2.5,3.767,3.767,0,0,0-.713-2.48,2.6,2.6,0,0,0-2.1-.848,2.556,2.556,0,0,0-2.075.835A3.809,3.809,0,0,0,1890.576,11589.629Z" fill="#00223d"/>
        <path id="Trazado_10212" data-name="Trazado 10212" d="M1906.4,11593.918v-5.539a2.127,2.127,0,0,0-.515-1.562,2.192,2.192,0,0,0-1.611-.516,2.773,2.773,0,0,0-2.125.727,3.469,3.469,0,0,0-.675,2.4v4.492h-1.4v-8.562h1.138l.228,1.172h.068a2.8,2.8,0,0,1,1.206-.98,4.184,4.184,0,0,1,1.729-.348,3.694,3.694,0,0,1,2.513.746,3.036,3.036,0,0,1,.844,2.387v5.586Z" fill="#00223d"/>
        <path id="Trazado_10213" data-name="Trazado 10213" d="M1916.967,11592.769h-.076a3.385,3.385,0,0,1-2.9,1.306,3.555,3.555,0,0,1-2.821-1.148,4.794,4.794,0,0,1-1.008-3.266,4.88,4.88,0,0,1,1.012-3.289,3.525,3.525,0,0,1,2.817-1.172,3.466,3.466,0,0,1,2.885,1.266h.11l-.059-.618-.034-.6v-3.485h1.4v12.157h-1.139Zm-2.8.22a2.657,2.657,0,0,0,2.08-.724,3.45,3.45,0,0,0,.645-2.332v-.272a4.059,4.059,0,0,0-.654-2.6,2.586,2.586,0,0,0-2.087-.776,2.2,2.2,0,0,0-1.885.887,4.153,4.153,0,0,0-.654,2.5,3.991,3.991,0,0,0,.649,2.477A2.266,2.266,0,0,0,1914.166,11592.988Z" fill="#00223d"/>
        <path id="Trazado_10214" data-name="Trazado 10214" d="M1921.142,11583.035a.823.823,0,0,1,.236-.652.928.928,0,0,1,1.172,0,.986.986,0,0,1,0,1.3.847.847,0,0,1-.582.216.782.782,0,0,1-.826-.867Zm1.518,10.883h-1.4v-8.562h1.4Z" fill="#00223d"/>
        <path id="Trazado_10215" data-name="Trazado 10215" d="M1929.323,11594.074a4.1,4.1,0,0,1-3.108-1.146,4.477,4.477,0,0,1-1.1-3.237,4.623,4.623,0,0,1,1.118-3.32,4.191,4.191,0,0,1,3.184-1.172,6.847,6.847,0,0,1,1.332.133,4.735,4.735,0,0,1,1.046.312l-.43,1.1a7.108,7.108,0,0,0-1.012-.285,4.829,4.829,0,0,0-.97-.114q-2.817,0-2.817,3.329a3.745,3.745,0,0,0,.687,2.421,2.472,2.472,0,0,0,2.037.845,6.648,6.648,0,0,0,2.37-.461v1.148A5.391,5.391,0,0,1,1929.323,11594.074Z" fill="#00223d"/>
        <path id="Trazado_10216" data-name="Trazado 10216" d="M1933.734,11583.035a.826.826,0,0,1,.236-.652.929.929,0,0,1,1.173,0,.989.989,0,0,1,0,1.3.851.851,0,0,1-.583.216.782.782,0,0,1-.826-.867Zm1.518,10.883h-1.4v-8.562h1.4Z" fill="#00223d"/>
        <path id="Trazado_10217" data-name="Trazado 10217" d="M1946.2,11589.629a4.5,4.5,0,0,1-1.139,3.27,4.176,4.176,0,0,1-3.146,1.176,4.435,4.435,0,0,1-2.2-.539,3.661,3.661,0,0,1-1.484-1.547,5.049,5.049,0,0,1-.523-2.359,4.5,4.5,0,0,1,1.13-3.262,4.162,4.162,0,0,1,3.137-1.168,4.064,4.064,0,0,1,3.083,1.194A4.488,4.488,0,0,1,1946.2,11589.629Zm-7.043,0a3.849,3.849,0,0,0,.709,2.5,2.965,2.965,0,0,0,4.171,0,3.829,3.829,0,0,0,.712-2.5,3.768,3.768,0,0,0-.712-2.48,2.6,2.6,0,0,0-2.1-.848,2.558,2.558,0,0,0-2.075.835A3.815,3.815,0,0,0,1939.157,11589.629Z" fill="#00223d"/>
        <path id="Trazado_10218" data-name="Trazado 10218" d="M1954.98,11593.918v-5.539a2.131,2.131,0,0,0-.514-1.562,2.192,2.192,0,0,0-1.611-.516,2.775,2.775,0,0,0-2.126.727,3.469,3.469,0,0,0-.675,2.4v4.492h-1.4v-8.562h1.139l.228,1.172h.067a2.809,2.809,0,0,1,1.206-.98,4.188,4.188,0,0,1,1.729-.348,3.7,3.7,0,0,1,2.514.746,3.036,3.036,0,0,1,.843,2.387v5.586Z" fill="#00223d"/>
        <path id="Trazado_10219" data-name="Trazado 10219" d="M1963.161,11594.074a4.434,4.434,0,0,1-3.235-1.156,4.278,4.278,0,0,1-1.184-3.211,4.727,4.727,0,0,1,1.1-3.289,3.787,3.787,0,0,1,2.957-1.219,3.623,3.623,0,0,1,2.749,1.059,3.871,3.871,0,0,1,1.012,2.793v.82h-6.368a3.236,3.236,0,0,0,.823,2.289,2.969,2.969,0,0,0,2.2.781,7.949,7.949,0,0,0,2.952-.578v1.155a7.731,7.731,0,0,1-1.4.427A8.5,8.5,0,0,1,1963.161,11594.074Zm-.379-7.789a2.382,2.382,0,0,0-1.776.672,2.982,2.982,0,0,0-.78,1.859h4.833a2.711,2.711,0,0,0-.591-1.88A2.161,2.161,0,0,0,1962.782,11586.285Z" fill="#00223d"/>
        <path id="Trazado_10220" data-name="Trazado 10220" d="M1974.91,11591.582a2.093,2.093,0,0,1-.961,1.844,4.792,4.792,0,0,1-2.7.648,6.279,6.279,0,0,1-2.868-.539v-1.2a7.2,7.2,0,0,0,1.43.492,6.4,6.4,0,0,0,1.471.18,3.538,3.538,0,0,0,1.687-.325,1.07,1.07,0,0,0,.122-1.843,7.592,7.592,0,0,0-1.825-.84,10.173,10.173,0,0,1-1.835-.778,2.417,2.417,0,0,1-.81-.753,1.858,1.858,0,0,1-.265-1.008,1.887,1.887,0,0,1,.919-1.653,4.557,4.557,0,0,1,2.522-.6,7.882,7.882,0,0,1,2.918.562l-.5,1.056a7.16,7.16,0,0,0-2.521-.531,3.094,3.094,0,0,0-1.5.289.885.885,0,0,0-.507.8.925.925,0,0,0,.19.586,1.834,1.834,0,0,0,.612.461,13.953,13.953,0,0,0,1.619.633,6.2,6.2,0,0,1,2.222,1.117A1.891,1.891,0,0,1,1974.91,11591.582Z" fill="#00223d"/>
        <path id="Trazado_10221" data-name="Trazado 10221" d="M1987.967,11592.769h-.076a3.385,3.385,0,0,1-2.9,1.306,3.555,3.555,0,0,1-2.821-1.148,4.794,4.794,0,0,1-1.008-3.266,4.875,4.875,0,0,1,1.012-3.289,3.525,3.525,0,0,1,2.817-1.172,3.467,3.467,0,0,1,2.885,1.266h.109l-.059-.618-.033-.6v-3.485h1.4v12.157h-1.139Zm-2.8.22a2.653,2.653,0,0,0,2.079-.724,3.45,3.45,0,0,0,.646-2.332v-.272a4.059,4.059,0,0,0-.654-2.6,2.587,2.587,0,0,0-2.088-.776,2.2,2.2,0,0,0-1.885.887,4.154,4.154,0,0,0-.653,2.5,3.991,3.991,0,0,0,.649,2.477A2.265,2.265,0,0,0,1985.166,11592.988Z" fill="#00223d"/>
        <path id="Trazado_10222" data-name="Trazado 10222" d="M1996.165,11594.074a4.43,4.43,0,0,1-3.235-1.156,4.278,4.278,0,0,1-1.185-3.211,4.723,4.723,0,0,1,1.1-3.289,3.787,3.787,0,0,1,2.956-1.219,3.622,3.622,0,0,1,2.749,1.059,3.872,3.872,0,0,1,1.013,2.793v.82H1993.2a3.241,3.241,0,0,0,.822,2.289,2.97,2.97,0,0,0,2.2.781,7.942,7.942,0,0,0,2.952-.578v1.155a7.747,7.747,0,0,1-1.4.427A8.5,8.5,0,0,1,1996.165,11594.074Zm-.38-7.789a2.385,2.385,0,0,0-1.776.672,2.981,2.981,0,0,0-.78,1.859h4.833a2.717,2.717,0,0,0-.59-1.88A2.164,2.164,0,0,0,1995.785,11586.285Z" fill="#00223d"/>
        <path id="Trazado_10223" data-name="Trazado 10223" d="M1914.681,11607.2a5.906,5.906,0,0,1,1.1.094l-.194,1.2a5.139,5.139,0,0,0-1.012-.117,2.547,2.547,0,0,0-1.919.843,2.948,2.948,0,0,0-.8,2.1v4.594h-1.4v-8.562h1.155l.16,1.586h.068a3.887,3.887,0,0,1,1.24-1.289A2.946,2.946,0,0,1,1914.681,11607.2Z" fill="#00223d"/>
        <path id="Trazado_10224" data-name="Trazado 10224" d="M1917.4,11605.035a.823.823,0,0,1,.236-.652.928.928,0,0,1,1.172,0,.986.986,0,0,1,0,1.3.847.847,0,0,1-.582.216.782.782,0,0,1-.826-.867Zm1.518,10.883h-1.4v-8.562h1.4Z" fill="#00223d"/>
        <path id="Trazado_10225" data-name="Trazado 10225" d="M1925.789,11616.074a4.432,4.432,0,0,1-3.235-1.156,4.279,4.279,0,0,1-1.185-3.211,4.723,4.723,0,0,1,1.1-3.289,3.787,3.787,0,0,1,2.956-1.219,3.625,3.625,0,0,1,2.75,1.059,3.871,3.871,0,0,1,1.012,2.793v.82h-6.368a3.241,3.241,0,0,0,.822,2.289,2.971,2.971,0,0,0,2.2.781,7.942,7.942,0,0,0,2.951-.578v1.155a7.7,7.7,0,0,1-1.4.427A8.5,8.5,0,0,1,1925.789,11616.074Zm-.38-7.789a2.381,2.381,0,0,0-1.775.672,2.976,2.976,0,0,0-.78,1.859h4.833a2.711,2.711,0,0,0-.591-1.88A2.162,2.162,0,0,0,1925.409,11608.285Z" fill="#00223d"/>
        <path id="Trazado_10226" data-name="Trazado 10226" d="M1937.538,11613.582a2.093,2.093,0,0,1-.962,1.844,4.79,4.79,0,0,1-2.7.648,6.284,6.284,0,0,1-2.868-.539v-1.2a7.225,7.225,0,0,0,1.43.492,6.406,6.406,0,0,0,1.472.18,3.541,3.541,0,0,0,1.687-.325,1.071,1.071,0,0,0,.122-1.843,7.584,7.584,0,0,0-1.826-.84,10.153,10.153,0,0,1-1.834-.778,2.4,2.4,0,0,1-.81-.753,1.858,1.858,0,0,1-.266-1.008,1.888,1.888,0,0,1,.92-1.653,4.551,4.551,0,0,1,2.521-.6,7.884,7.884,0,0,1,2.919.562l-.5,1.056a7.164,7.164,0,0,0-2.522-.531,3.1,3.1,0,0,0-1.5.289.886.886,0,0,0-.506.8.919.919,0,0,0,.19.586,1.831,1.831,0,0,0,.611.461,13.981,13.981,0,0,0,1.62.633,6.2,6.2,0,0,1,2.222,1.117A1.891,1.891,0,0,1,1937.538,11613.582Z" fill="#00223d"/>
        <path id="Trazado_10227" data-name="Trazado 10227" d="M1947.381,11607.355v.82l-1.712.188a2.672,2.672,0,0,1,.421.715,2.547,2.547,0,0,1,.186,1,2.448,2.448,0,0,1-.928,2.008,3.941,3.941,0,0,1-2.547.75,4.532,4.532,0,0,1-.776-.063q-.894.438-.894,1.1a.55.55,0,0,0,.312.519,2.419,2.419,0,0,0,1.071.168h1.636a3.886,3.886,0,0,1,2.307.586,1.975,1.975,0,0,1,.8,1.7,2.386,2.386,0,0,1-1.231,2.168,7.022,7.022,0,0,1-3.593.746,5.214,5.214,0,0,1-2.8-.625,1.977,1.977,0,0,1-.982-1.765,1.9,1.9,0,0,1,.539-1.353,2.817,2.817,0,0,1,1.518-.772,1.432,1.432,0,0,1-.594-.461,1.159,1.159,0,0,1-.24-.728,1.3,1.3,0,0,1,.27-.819,2.784,2.784,0,0,1,.851-.681,2.443,2.443,0,0,1-1.168-.929,2.582,2.582,0,0,1-.451-1.5,2.667,2.667,0,0,1,.911-2.168,3.913,3.913,0,0,1,2.581-.762,5.074,5.074,0,0,1,1.307.156Zm-7.372,10a1.146,1.146,0,0,0,.633,1.055,3.723,3.723,0,0,0,1.813.358,5.4,5.4,0,0,0,2.61-.487,1.48,1.48,0,0,0,.848-1.324,1.02,1.02,0,0,0-.464-.965,3.836,3.836,0,0,0-1.746-.271h-1.678a2.339,2.339,0,0,0-1.485.422A1.459,1.459,0,0,0,1940.009,11617.355Zm.759-7.259a1.676,1.676,0,0,0,.548,1.36,2.309,2.309,0,0,0,1.527.461q2.049,0,2.05-1.844,0-1.929-2.075-1.931a2.152,2.152,0,0,0-1.518.492A1.9,1.9,0,0,0,1940.768,11610.1Z" fill="#00223d"/>
        <path id="Trazado_10228" data-name="Trazado 10228" d="M1957.257,11611.629a4.5,4.5,0,0,1-1.138,3.27,4.178,4.178,0,0,1-3.146,1.176,4.436,4.436,0,0,1-2.2-.539,3.661,3.661,0,0,1-1.484-1.547,5.049,5.049,0,0,1-.523-2.359,4.5,4.5,0,0,1,1.13-3.262,4.162,4.162,0,0,1,3.137-1.168,4.064,4.064,0,0,1,3.083,1.194A4.488,4.488,0,0,1,1957.257,11611.629Zm-7.042,0a3.849,3.849,0,0,0,.708,2.5,2.965,2.965,0,0,0,4.171,0,3.829,3.829,0,0,0,.712-2.5,3.768,3.768,0,0,0-.712-2.48,2.6,2.6,0,0,0-2.1-.848,2.555,2.555,0,0,0-2.074.835A3.809,3.809,0,0,0,1950.215,11611.629Z" fill="#00223d"/>
      </g>
    </g>
    <path id="Trazado_10229" data-name="Trazado 10229" d="M1813.56,11492.627v1.718h-17.193a2.647,2.647,0,0,0-2.646,2.646v.989a2.645,2.645,0,0,0,2.646,2.646h17.193v1.718a2.161,2.161,0,0,0,3.127,1.933l9.716-4.858a2.161,2.161,0,0,0,0-3.865l-9.716-4.857A2.161,2.161,0,0,0,1813.56,11492.627Z" fill="#0b92dd"/>
    <path id="Trazado_10230" data-name="Trazado 10230" d="M1813.56,11584.372v1.718h-17.193a2.647,2.647,0,0,0-2.646,2.646v.988a2.646,2.646,0,0,0,2.646,2.646h17.193v1.718a2.161,2.161,0,0,0,3.127,1.933l9.716-4.858a2.161,2.161,0,0,0,0-3.865l-9.716-4.857A2.16,2.16,0,0,0,1813.56,11584.372Z" fill="#0b92dd"/>
    <path id="Trazado_10231" data-name="Trazado 10231" d="M1813.56,11686.048v1.718h-17.193a2.647,2.647,0,0,0-2.646,2.646v.989a2.645,2.645,0,0,0,2.646,2.646h17.193v1.718a2.16,2.16,0,0,0,3.127,1.933l9.716-4.858a2.161,2.161,0,0,0,0-3.865l-9.716-4.857A2.161,2.161,0,0,0,1813.56,11686.048Z" fill="#0b92dd"/>
    <path id="Trazado_10232" data-name="Trazado 10232" d="M1613.218,11652.185v1.719h-17.193a2.646,2.646,0,0,0-2.646,2.646v.989a2.645,2.645,0,0,0,2.646,2.646h17.193v1.719a2.161,2.161,0,0,0,3.127,1.932l9.716-4.858a2.16,2.16,0,0,0,0-3.864l-9.716-4.858A2.16,2.16,0,0,0,1613.218,11652.185Z" fill="#0b92dd"/>
    <g id="Grupo_9821" data-name="Grupo 9821">
      <path id="Trazado_10233" data-name="Trazado 10233" d="M1523.625,11605.253l-1.006-3.059h-5.058l-1.005,3.059h-3.17l4.9-12.9h3.6l4.915,12.9Zm-1.708-5.344q-1.395-4.159-1.571-4.7c-.117-.364-.2-.651-.251-.862q-.313,1.125-1.794,5.563Z" fill="#fff"/>
      <path id="Trazado_10234" data-name="Trazado 10234" d="M1533.891,11605.253h-2.941v-10.582h-3.767v-2.268h10.475v2.268h-3.767Z" fill="#fff"/>
      <path id="Trazado_10235" data-name="Trazado 10235" d="M1547.982,11601.684a3.231,3.231,0,0,1-1.352,2.743,6.219,6.219,0,0,1-3.763,1,9.433,9.433,0,0,1-3.928-.772v-2.531a17.191,17.191,0,0,0,2.377.818,7.6,7.6,0,0,0,1.779.235,2.688,2.688,0,0,0,1.485-.341,1.143,1.143,0,0,0,.517-1.02,1.08,1.08,0,0,0-.227-.674,2.508,2.508,0,0,0-.669-.566,17.72,17.72,0,0,0-1.8-.869,8.631,8.631,0,0,1-1.908-1.065,4.049,4.049,0,0,1-1.015-1.185,3.5,3.5,0,0,1,.868-4.264,5.471,5.471,0,0,1,3.45-.976,8.754,8.754,0,0,1,2.063.237,14.954,14.954,0,0,1,2.054.668l-.948,2.119a14.558,14.558,0,0,0-1.836-.59,6.356,6.356,0,0,0-1.429-.166,2,2,0,0,0-1.28.358,1.155,1.155,0,0,0-.446.942,1.1,1.1,0,0,0,.18.628,1.922,1.922,0,0,0,.574.518,18.206,18.206,0,0,0,1.864.9,7.45,7.45,0,0,1,2.667,1.727A3.208,3.208,0,0,1,1547.982,11601.684Z" fill="#fff"/>
    </g>
    <rect id="Rectángulo_6239" data-name="Rectángulo 6239" width="5.635" height="120.013" rx="2.818" transform="translate(1592.365 11540.171)" fill="#0b92dd"/>
    <rect id="Rectángulo_6240" data-name="Rectángulo 6240" width="5.635" height="98.1" rx="2.818" transform="translate(1792.665 11494.271)" fill="#0b92dd"/>
    <rect id="Rectángulo_6241" data-name="Rectángulo 6241" width="5.635" height="22.966" rx="2.818" transform="translate(1596.049 11597.36) rotate(90)" fill="#0b92dd"/>
    <rect id="Rectángulo_6242" data-name="Rectángulo 6242" width="5.635" height="22.966" rx="2.818" transform="translate(1794.665 11540.504) rotate(90)" fill="#0b92dd"/>
    <rect id="Rectángulo_6243" data-name="Rectángulo 6243" width="5.635" height="39.821" rx="2.818" transform="translate(1792.665 11654.226)" fill="#0b92dd"/>
    <rect id="Rectángulo_6244" data-name="Rectángulo 6244" width="5.635" height="25.701" rx="2.818" transform="translate(1797.4 11654.226) rotate(90)" fill="#0b92dd"/>
    <rect id="Rectángulo_6245" data-name="Rectángulo 6245" width="141.057" height="61.404" rx="5.6" transform="translate(1632.72 11512.619)" fill="#fff" stroke="#91c7ea" stroke-miterlimit="10" stroke-width="1"/>
    <g id="Grupo_9823" data-name="Grupo 9823">
      <g id="Grupo_9822" data-name="Grupo 9822">
        <path id="Trazado_10236" data-name="Trazado 10236" d="M1658.757,11537.611a4.187,4.187,0,0,0-3.209,1.254,4.818,4.818,0,0,0-1.176,3.434,4.9,4.9,0,0,0,1.134,3.464,4.189,4.189,0,0,0,3.234,1.224,11.829,11.829,0,0,0,2.944-.431v1.164a9.725,9.725,0,0,1-3.163.446,5.572,5.572,0,0,1-4.2-1.531,6,6,0,0,1-1.481-4.352,6.449,6.449,0,0,1,.713-3.094,4.913,4.913,0,0,1,2.058-2.048,6.647,6.647,0,0,1,3.167-.718,8.15,8.15,0,0,1,3.391.656l-.607,1.14A6.985,6.985,0,0,0,1658.757,11537.611Z" fill="#00223d"/>
        <path id="Trazado_10237" data-name="Trazado 10237" d="M1669.848,11548.01l-.278-1.219h-.067a3.823,3.823,0,0,1-1.38,1.09,4.49,4.49,0,0,1-1.716.285,3.248,3.248,0,0,1-2.155-.656,2.305,2.305,0,0,1-.78-1.868q0-2.591,4.479-2.718l1.568-.047v-.532a2.061,2.061,0,0,0-.468-1.487,2.016,2.016,0,0,0-1.5-.48,6.464,6.464,0,0,0-2.614.656l-.431-.992a7.182,7.182,0,0,1,3.13-.735,3.714,3.714,0,0,1,2.45.681,2.717,2.717,0,0,1,.8,2.18v5.844Zm-3.163-.915a2.972,2.972,0,0,0,2.054-.664,2.354,2.354,0,0,0,.747-1.858v-.773l-1.4.054a5.443,5.443,0,0,0-2.408.481,1.421,1.421,0,0,0-.738,1.324,1.285,1.285,0,0,0,.459,1.069A2.01,2.01,0,0,0,1666.685,11547.095Z" fill="#00223d"/>
        <path id="Trazado_10238" data-name="Trazado 10238" d="M1680.062,11546.861h-.075a3.384,3.384,0,0,1-2.9,1.3,3.551,3.551,0,0,1-2.821-1.149,4.79,4.79,0,0,1-1.008-3.265,4.875,4.875,0,0,1,1.012-3.289,3.522,3.522,0,0,1,2.817-1.172,3.466,3.466,0,0,1,2.884,1.265h.11l-.059-.616-.033-.6v-3.485h1.4v12.157h-1.138Zm-2.8.219a2.656,2.656,0,0,0,2.079-.723,3.455,3.455,0,0,0,.646-2.332v-.273a4.053,4.053,0,0,0-.654-2.6,2.581,2.581,0,0,0-2.088-.777,2.2,2.2,0,0,0-1.885.886,4.161,4.161,0,0,0-.654,2.5,3.99,3.99,0,0,0,.65,2.478A2.265,2.265,0,0,0,1677.262,11547.08Z" fill="#00223d"/>
        <path id="Trazado_10239" data-name="Trazado 10239" d="M1690.04,11548.01l-.278-1.219h-.068a3.811,3.811,0,0,1-1.379,1.09,4.489,4.489,0,0,1-1.716.285,3.246,3.246,0,0,1-2.155-.656,2.3,2.3,0,0,1-.78-1.868q0-2.591,4.479-2.718l1.568-.047v-.532a2.061,2.061,0,0,0-.468-1.487,2.016,2.016,0,0,0-1.5-.48,6.472,6.472,0,0,0-2.615.656l-.43-.992a7.173,7.173,0,0,1,3.129-.735,3.712,3.712,0,0,1,2.45.681,2.714,2.714,0,0,1,.8,2.18v5.844Zm-3.163-.915a2.973,2.973,0,0,0,2.054-.664,2.354,2.354,0,0,0,.746-1.858v-.773l-1.4.054a5.446,5.446,0,0,0-2.408.481,1.422,1.422,0,0,0-.738,1.324,1.286,1.286,0,0,0,.46,1.069A2.008,2.008,0,0,0,1686.877,11547.095Z" fill="#00223d"/>
        <path id="Trazado_10240" data-name="Trazado 10240" d="M1701.435,11547.095a4.9,4.9,0,0,0,.717-.05,5.147,5.147,0,0,0,.548-.105v.991a2.631,2.631,0,0,1-.671.168,5.483,5.483,0,0,1-.8.067q-2.682,0-2.682-2.617v-5.094h-1.324v-.625l1.324-.539.591-1.828h.809v1.984h2.683v1.008h-2.683v5.039a1.642,1.642,0,0,0,.4,1.187A1.43,1.43,0,0,0,1701.435,11547.095Z" fill="#00223d"/>
        <path id="Trazado_10241" data-name="Trazado 10241" d="M1708.764,11539.291a5.9,5.9,0,0,1,1.1.094l-.194,1.2a5.14,5.14,0,0,0-1.012-.118,2.547,2.547,0,0,0-1.919.845,2.944,2.944,0,0,0-.8,2.1v4.594h-1.4v-8.562h1.156l.16,1.586h.067a3.878,3.878,0,0,1,1.24-1.289A2.954,2.954,0,0,1,1708.764,11539.291Z" fill="#00223d"/>
        <path id="Trazado_10242" data-name="Trazado 10242" d="M1717.283,11548.01l-.278-1.219h-.068a3.821,3.821,0,0,1-1.379,1.09,4.49,4.49,0,0,1-1.716.285,3.246,3.246,0,0,1-2.155-.656,2.3,2.3,0,0,1-.781-1.868q0-2.591,4.479-2.718l1.569-.047v-.532a2.061,2.061,0,0,0-.468-1.487,2.016,2.016,0,0,0-1.5-.48,6.468,6.468,0,0,0-2.615.656l-.43-.992a6.9,6.9,0,0,1,1.5-.539,7,7,0,0,1,1.632-.2,3.712,3.712,0,0,1,2.45.681,2.713,2.713,0,0,1,.8,2.18v5.844Zm-3.163-.915a2.975,2.975,0,0,0,2.054-.664,2.357,2.357,0,0,0,.746-1.858v-.773l-1.4.054a5.446,5.446,0,0,0-2.408.481,1.422,1.422,0,0,0-.738,1.324,1.283,1.283,0,0,0,.46,1.069A2.008,2.008,0,0,0,1714.12,11547.095Z" fill="#00223d"/>
        <path id="Trazado_10243" data-name="Trazado 10243" d="M1725.506,11539.306a3.563,3.563,0,0,1,2.83,1.153,5.788,5.788,0,0,1-.008,6.539,3.543,3.543,0,0,1-2.822,1.168,4.27,4.27,0,0,1-1.649-.309,3.053,3.053,0,0,1-1.252-.949h-.1l-.3,1.1h-1v-12.157h1.4v2.953q0,.993-.068,1.782h.068A3.424,3.424,0,0,1,1725.506,11539.306Zm-.2,1.086a2.54,2.54,0,0,0-2.066.763,5.487,5.487,0,0,0,.016,5.147,2.565,2.565,0,0,0,2.084.778,2.22,2.22,0,0,0,1.923-.871,4.222,4.222,0,0,0,.632-2.5,4.062,4.062,0,0,0-.632-2.492A2.317,2.317,0,0,0,1725.3,11540.392Z" fill="#00223d"/>
        <path id="Trazado_10244" data-name="Trazado 10244" d="M1737.475,11548.01l-.279-1.219h-.067a3.821,3.821,0,0,1-1.379,1.09,4.5,4.5,0,0,1-1.717.285,3.247,3.247,0,0,1-2.155-.656,2.3,2.3,0,0,1-.78-1.868q0-2.591,4.479-2.718l1.569-.047v-.532a2.056,2.056,0,0,0-.469-1.487,2.016,2.016,0,0,0-1.5-.48,6.467,6.467,0,0,0-2.614.656l-.43-.992a6.9,6.9,0,0,1,1.5-.539,6.982,6.982,0,0,1,1.632-.2,3.712,3.712,0,0,1,2.45.681,2.717,2.717,0,0,1,.8,2.18v5.844Zm-3.163-.915a2.97,2.97,0,0,0,2.053-.664,2.354,2.354,0,0,0,.747-1.858v-.773l-1.4.054a5.447,5.447,0,0,0-2.408.481,1.422,1.422,0,0,0-.738,1.324,1.283,1.283,0,0,0,.46,1.069A2.008,2.008,0,0,0,1734.312,11547.095Z" fill="#00223d"/>
        <path id="Trazado_10245" data-name="Trazado 10245" d="M1740.275,11551.853a3.62,3.62,0,0,1-1.3-.194v-1.056a4.357,4.357,0,0,0,1.147.157,1.257,1.257,0,0,0,.966-.333,1.443,1.443,0,0,0,.307-1.011v-9.969h1.4v9.875A2.233,2.233,0,0,1,1740.275,11551.853Zm1-14.726a.827.827,0,0,1,.237-.653.926.926,0,0,1,1.172,0,.987.987,0,0,1,0,1.3.851.851,0,0,1-.582.215.782.782,0,0,1-.827-.867Z" fill="#00223d"/>
        <path id="Trazado_10246" data-name="Trazado 10246" d="M1753.744,11543.72a4.5,4.5,0,0,1-1.138,3.271,4.174,4.174,0,0,1-3.146,1.176,4.425,4.425,0,0,1-2.2-.539,3.671,3.671,0,0,1-1.484-1.547,5.051,5.051,0,0,1-.523-2.36,4.5,4.5,0,0,1,1.13-3.261,4.159,4.159,0,0,1,3.138-1.168,4.066,4.066,0,0,1,3.083,1.2A4.488,4.488,0,0,1,1753.744,11543.72Zm-7.042,0a3.841,3.841,0,0,0,.708,2.5,2.963,2.963,0,0,0,4.171,0,3.822,3.822,0,0,0,.713-2.5,3.765,3.765,0,0,0-.713-2.479,2.6,2.6,0,0,0-2.1-.849,2.557,2.557,0,0,0-2.075.836A3.809,3.809,0,0,0,1746.7,11543.72Z" fill="#00223d"/>
      </g>
    </g>
    <path id="Trazado_10247" data-name="Trazado 10247" d="M1613.218,11538.463v1.718h-17.193a2.647,2.647,0,0,0-2.646,2.646v.989a2.645,2.645,0,0,0,2.646,2.646h17.193v1.718a2.16,2.16,0,0,0,3.127,1.933l9.716-4.858a2.161,2.161,0,0,0,0-3.865l-9.716-4.857A2.16,2.16,0,0,0,1613.218,11538.463Z" fill="#0b92dd"/>
    <rect id="Rectángulo_6246" data-name="Rectángulo 6246" width="141.057" height="84.32" rx="5.6" transform="translate(1635.72 11614.884)" fill="#fff" stroke="#91c7ea" stroke-miterlimit="10" stroke-width="1"/>
    <g id="Grupo_9825" data-name="Grupo 9825">
      <g id="Grupo_9824" data-name="Grupo 9824">
        <path id="Trazado_10248" data-name="Trazado 10248" d="M1676.446,11633.911a5.526,5.526,0,0,1-1.658,4.324,6.877,6.877,0,0,1-4.769,1.5H1666.6v-11.423h3.779a6.333,6.333,0,0,1,4.47,1.478A5.344,5.344,0,0,1,1676.446,11633.911Zm-1.519.047a4.392,4.392,0,0,0-1.21-3.367,5.091,5.091,0,0,0-3.6-1.133h-2.083v9.125h1.746a5.575,5.575,0,0,0,3.854-1.168A4.425,4.425,0,0,0,1674.927,11633.958Z" fill="#00223d"/>
        <path id="Trazado_10249" data-name="Trazado 10249" d="M1678.866,11628.848a.825.825,0,0,1,.236-.651.927.927,0,0,1,1.173,0,.809.809,0,0,1,.244.647.824.824,0,0,1-.244.653.908.908,0,0,1-1.173,0A.841.841,0,0,1,1678.866,11628.848Zm1.518,10.884h-1.4v-8.562h1.4Z" fill="#00223d"/>
        <path id="Trazado_10250" data-name="Trazado 10250" d="M1685.378,11639.731l-3.509-8.562h1.5l1.991,5.078a23.164,23.164,0,0,1,.793,2.312h.067a16.776,16.776,0,0,1,.586-1.715q.493-1.3,2.214-5.675h1.5l-3.508,8.563Z" fill="#00223d"/>
        <path id="Trazado_10251" data-name="Trazado 10251" d="M1693.323,11631.169v5.554a2.128,2.128,0,0,0,.514,1.563,2.2,2.2,0,0,0,1.611.516,2.744,2.744,0,0,0,2.121-.734,3.505,3.505,0,0,0,.671-2.4v-4.5h1.4v8.563h-1.155l-.2-1.148h-.076a2.739,2.739,0,0,1-1.193.969,4.276,4.276,0,0,1-1.742.335,3.715,3.715,0,0,1-2.526-.742,3.013,3.013,0,0,1-.839-2.375v-5.6Z" fill="#00223d"/>
        <path id="Trazado_10252" data-name="Trazado 10252" d="M1704.009,11639.731h-1.4v-12.156h1.4Z" fill="#00223d"/>
        <path id="Trazado_10253" data-name="Trazado 10253" d="M1714.543,11631.169v.82l-1.712.188a2.672,2.672,0,0,1,.422.714,2.549,2.549,0,0,1,.185,1,2.45,2.45,0,0,1-.927,2.008,3.943,3.943,0,0,1-2.547.75,4.53,4.53,0,0,1-.776-.062q-.894.438-.894,1.1a.552.552,0,0,0,.312.521,2.434,2.434,0,0,0,1.071.168h1.636a3.879,3.879,0,0,1,2.307.586,1.974,1.974,0,0,1,.805,1.7,2.387,2.387,0,0,1-1.231,2.168,7.011,7.011,0,0,1-3.593.746,5.213,5.213,0,0,1-2.8-.625,1.979,1.979,0,0,1-.983-1.767,1.9,1.9,0,0,1,.54-1.351,2.825,2.825,0,0,1,1.518-.774,1.426,1.426,0,0,1-.594-.461,1.15,1.15,0,0,1-.241-.726,1.307,1.307,0,0,1,.27-.82,2.788,2.788,0,0,1,.852-.68,2.451,2.451,0,0,1-1.168-.93,2.582,2.582,0,0,1-.451-1.5,2.666,2.666,0,0,1,.911-2.168,3.909,3.909,0,0,1,2.581-.763,5.073,5.073,0,0,1,1.307.157Zm-7.371,10a1.144,1.144,0,0,0,.632,1.054,3.706,3.706,0,0,0,1.814.36,5.376,5.376,0,0,0,2.61-.489,1.48,1.48,0,0,0,.848-1.324,1.023,1.023,0,0,0-.464-.965,3.871,3.871,0,0,0-1.746-.269h-1.678a2.333,2.333,0,0,0-1.485.422A1.455,1.455,0,0,0,1707.172,11641.169Zm.759-7.258a1.67,1.67,0,0,0,.548,1.358,2.3,2.3,0,0,0,1.527.462q2.049,0,2.049-1.845,0-1.929-2.075-1.929a2.155,2.155,0,0,0-1.518.492A1.9,1.9,0,0,0,1707.931,11633.911Z" fill="#00223d"/>
        <path id="Trazado_10254" data-name="Trazado 10254" d="M1722.126,11639.731l-.278-1.22h-.068a3.8,3.8,0,0,1-1.379,1.09,4.471,4.471,0,0,1-1.716.285,3.246,3.246,0,0,1-2.155-.655,2.3,2.3,0,0,1-.781-1.867q0-2.594,4.479-2.72l1.569-.047v-.53a2.062,2.062,0,0,0-.468-1.488,2.016,2.016,0,0,0-1.5-.481,6.486,6.486,0,0,0-2.615.657l-.43-.993a7.137,7.137,0,0,1,3.129-.733,3.712,3.712,0,0,1,2.45.68,2.711,2.711,0,0,1,.8,2.179v5.845Zm-3.163-.914a2.984,2.984,0,0,0,2.054-.664,2.36,2.36,0,0,0,.746-1.859v-.774l-1.4.056a5.465,5.465,0,0,0-2.408.479,1.426,1.426,0,0,0-.738,1.325,1.288,1.288,0,0,0,.46,1.07A2.008,2.008,0,0,0,1718.963,11638.817Z" fill="#00223d"/>
        <path id="Trazado_10255" data-name="Trazado 10255" d="M1729.742,11639.887a4.107,4.107,0,0,1-3.108-1.144,4.481,4.481,0,0,1-1.1-3.238,4.627,4.627,0,0,1,1.118-3.321,4.2,4.2,0,0,1,3.184-1.172,6.845,6.845,0,0,1,1.332.133,4.725,4.725,0,0,1,1.046.313l-.43,1.1a7.11,7.11,0,0,0-1.012-.284,4.891,4.891,0,0,0-.97-.113q-2.817,0-2.817,3.328a3.75,3.75,0,0,0,.687,2.422,2.478,2.478,0,0,0,2.037.844,6.668,6.668,0,0,0,2.37-.461v1.148A5.391,5.391,0,0,1,1729.742,11639.887Z" fill="#00223d"/>
        <path id="Trazado_10256" data-name="Trazado 10256" d="M1734.153,11628.848a.826.826,0,0,1,.236-.651.927.927,0,0,1,1.173,0,.809.809,0,0,1,.244.647.824.824,0,0,1-.244.653.908.908,0,0,1-1.173,0A.841.841,0,0,1,1734.153,11628.848Zm1.518,10.884h-1.4v-8.562h1.4Z" fill="#00223d"/>
        <path id="Trazado_10257" data-name="Trazado 10257" d="M1746.619,11635.442a4.5,4.5,0,0,1-1.139,3.27,4.172,4.172,0,0,1-3.146,1.175,4.414,4.414,0,0,1-2.2-.539,3.657,3.657,0,0,1-1.484-1.546,5.052,5.052,0,0,1-.523-2.359,4.5,4.5,0,0,1,1.13-3.263,4.167,4.167,0,0,1,3.138-1.168,4.064,4.064,0,0,1,3.082,1.2A4.485,4.485,0,0,1,1746.619,11635.442Zm-7.043,0a3.845,3.845,0,0,0,.709,2.5,2.965,2.965,0,0,0,4.171,0,3.825,3.825,0,0,0,.712-2.5,3.766,3.766,0,0,0-.712-2.48,2.6,2.6,0,0,0-2.105-.848,2.55,2.55,0,0,0-2.074.836A3.805,3.805,0,0,0,1739.576,11635.442Zm1.62-5.6q.4-.485.873-1.172a13.138,13.138,0,0,0,.738-1.2h1.7v.164a11.554,11.554,0,0,1-1.1,1.25,12.094,12.094,0,0,1-1.273,1.149h-.936Z" fill="#00223d"/>
        <path id="Trazado_10258" data-name="Trazado 10258" d="M1675.682,11661.731h-1.434v-10.242h-3.905v-1.181h9.244v1.181h-3.905Z" fill="#00223d"/>
        <path id="Trazado_10259" data-name="Trazado 10259" d="M1692.146,11656a6,6,0,0,1-1.5,4.313,5.477,5.477,0,0,1-4.162,1.569,5.547,5.547,0,0,1-4.205-1.543,6.033,6.033,0,0,1-1.48-4.354,5.968,5.968,0,0,1,1.484-4.324,5.593,5.593,0,0,1,4.218-1.535,5.467,5.467,0,0,1,4.149,1.563A5.989,5.989,0,0,1,1692.146,11656Zm-9.826,0a5.143,5.143,0,0,0,1.067,3.52,4.608,4.608,0,0,0,6.2,0,6.422,6.422,0,0,0,0-7.02,3.876,3.876,0,0,0-3.082-1.191,3.958,3.958,0,0,0-3.117,1.2A5.1,5.1,0,0,0,1682.32,11656Z" fill="#00223d"/>
        <path id="Trazado_10260" data-name="Trazado 10260" d="M1704.738,11655.911a5.525,5.525,0,0,1-1.657,4.324,6.881,6.881,0,0,1-4.769,1.5H1694.9v-11.423h3.778a6.329,6.329,0,0,1,4.47,1.478A5.34,5.34,0,0,1,1704.738,11655.911Zm-1.518.047a4.392,4.392,0,0,0-1.21-3.367,5.091,5.091,0,0,0-3.6-1.133h-2.083v9.125h1.745a5.576,5.576,0,0,0,3.855-1.168A4.428,4.428,0,0,0,1703.22,11655.958Z" fill="#00223d"/>
        <path id="Trazado_10261" data-name="Trazado 10261" d="M1718.191,11656a6,6,0,0,1-1.5,4.313,5.475,5.475,0,0,1-4.162,1.569,5.548,5.548,0,0,1-4.2-1.543,6.037,6.037,0,0,1-1.48-4.354,5.968,5.968,0,0,1,1.484-4.324,5.593,5.593,0,0,1,4.218-1.535,5.467,5.467,0,0,1,4.149,1.563A5.985,5.985,0,0,1,1718.191,11656Zm-9.826,0a5.143,5.143,0,0,0,1.067,3.52,4.608,4.608,0,0,0,6.195,0,6.422,6.422,0,0,0,0-7.02,3.875,3.875,0,0,0-3.082-1.191,3.959,3.959,0,0,0-3.117,1.2A5.1,5.1,0,0,0,1708.365,11656Z" fill="#00223d"/>
        <path id="Trazado_10262" data-name="Trazado 10262" d="M1732.3,11661.731h-6.874v-11.423h6.874v1.181h-5.44v3.68h5.111v1.172h-5.111v4.2h5.44Z" fill="#00223d"/>
        <path id="Trazado_10263" data-name="Trazado 10263" d="M1735.035,11661.731v-11.423h1.433v10.22h5.44v1.2Z" fill="#00223d"/>
        <path id="Trazado_10264" data-name="Trazado 10264" d="M1672.494,11675.637a3.105,3.105,0,0,1-1.277,2.668,6.124,6.124,0,0,1-3.657.935h-1.45v4.492h-1.434v-11.423h3.2Q1672.495,11672.309,1672.494,11675.637Zm-6.384,2.461h1.29a5.1,5.1,0,0,0,2.758-.569,2.039,2.039,0,0,0,.852-1.828,1.916,1.916,0,0,0-.8-1.688,4.451,4.451,0,0,0-2.5-.554h-1.6Z" fill="#00223d"/>
        <path id="Trazado_10265" data-name="Trazado 10265" d="M1681.949,11683.731h-6.874v-11.423h6.874v1.181h-5.44v3.68h5.111v1.172h-5.111v4.2h5.44Z" fill="#00223d"/>
        <path id="Trazado_10266" data-name="Trazado 10266" d="M1686.116,11678.981v4.75h-1.434v-11.423h3.382a5.64,5.64,0,0,1,3.352.806,2.822,2.822,0,0,1,1.084,2.422,3.071,3.071,0,0,1-2.479,3.062l3.348,5.134h-1.7l-2.986-4.75Zm0-1.141h1.965a3.584,3.584,0,0,0,2.226-.559,2,2,0,0,0,.709-1.676,1.846,1.846,0,0,0-.721-1.634,4.157,4.157,0,0,0-2.315-.5h-1.864Z" fill="#00223d"/>
        <path id="Trazado_10267" data-name="Trazado 10267" d="M1702.318,11680.692a2.727,2.727,0,0,1-1.181,2.352,5.416,5.416,0,0,1-3.2.843,8.588,8.588,0,0,1-3.374-.522v-1.281a9.436,9.436,0,0,0,1.653.469,9.315,9.315,0,0,0,1.772.171,3.794,3.794,0,0,0,2.159-.5,1.61,1.61,0,0,0,.725-1.4,1.705,1.705,0,0,0-.257-.974,2.372,2.372,0,0,0-.86-.7,12.736,12.736,0,0,0-1.835-.726,5.952,5.952,0,0,1-2.459-1.352,2.85,2.85,0,0,1-.737-2.039,2.471,2.471,0,0,1,1.071-2.1,4.7,4.7,0,0,1,2.834-.782,8.944,8.944,0,0,1,3.382.625l-.447,1.157a8.175,8.175,0,0,0-2.969-.594,3.047,3.047,0,0,0-1.78.453,1.457,1.457,0,0,0-.641,1.258,1.81,1.81,0,0,0,.236.972,2.166,2.166,0,0,0,.8.7,10.222,10.222,0,0,0,1.716.7,6.956,6.956,0,0,1,2.669,1.375A2.587,2.587,0,0,1,1702.318,11680.692Z" fill="#00223d"/>
        <path id="Trazado_10268" data-name="Trazado 10268" d="M1715.543,11678a6,6,0,0,1-1.5,4.313,5.477,5.477,0,0,1-4.163,1.569,5.546,5.546,0,0,1-4.2-1.543,6.033,6.033,0,0,1-1.48-4.354,5.968,5.968,0,0,1,1.484-4.324,5.592,5.592,0,0,1,4.217-1.535,5.468,5.468,0,0,1,4.15,1.563A5.989,5.989,0,0,1,1715.543,11678Zm-9.826,0a5.138,5.138,0,0,0,1.067,3.52,4.608,4.608,0,0,0,6.195,0,6.422,6.422,0,0,0,0-7.02,3.877,3.877,0,0,0-3.083-1.191,3.957,3.957,0,0,0-3.116,1.2A5.09,5.09,0,0,0,1705.717,11678Z" fill="#00223d"/>
        <path id="Trazado_10269" data-name="Trazado 10269" d="M1727.925,11683.731h-1.637l-6.739-9.587h-.067q.133,1.688.135,3.095v6.492h-1.325v-11.423h1.62l6.722,9.548h.067q-.017-.211-.076-1.355t-.042-1.637v-6.556h1.342Z" fill="#00223d"/>
        <path id="Trazado_10270" data-name="Trazado 10270" d="M1739.066,11683.731l-1.535-3.634h-4.942l-1.519,3.634h-1.45l4.875-11.47h1.206l4.849,11.47Zm-1.982-4.828-1.434-3.539q-.278-.671-.573-1.648a14.022,14.022,0,0,1-.532,1.648l-1.45,3.539Z" fill="#00223d"/>
        <path id="Trazado_10271" data-name="Trazado 10271" d="M1742.246,11683.731v-11.423h1.434v10.22h5.44v1.2Z" fill="#00223d"/>
      </g>
    </g>
  </g>
</svg>
