<svg xmlns="http://www.w3.org/2000/svg" width="150.043" height="125.5" viewBox="0 0 150.043 125.5">
  <g id="Grupo_9179" data-name="Grupo 9179" transform="translate(-610.241 -1259)">
    <g id="Grupo_9177" data-name="Grupo 9177">
      <path id="Trazado_8986" data-name="Trazado 8986" d="M36.633,156.388H-110.591A1.409,1.409,0,0,0-112,157.8v87.9a1.409,1.409,0,0,0,1.409,1.409h60.23a3.522,3.522,0,0,1,2.826,1.42,3.527,3.527,0,0,0,2.828,1.42h15.457a3.524,3.524,0,0,0,2.826-1.42,3.518,3.518,0,0,1,2.826-1.42H36.635a1.409,1.409,0,0,0,1.408-1.409V157.8a1.409,1.409,0,0,0-1.409-1.408Zm0,0" transform="translate(722.241 1128.514)" fill="#fc4e51"/>
      <path id="Trazado_8987" data-name="Trazado 8987" d="M217.612,156.388h-15.7V241.22a1.409,1.409,0,0,1-1.409,1.409H151.317A7.318,7.318,0,0,0,144,249.946h7.718a3.442,3.442,0,0,0,2.806-1.376,3.521,3.521,0,0,1,2.858-1.463h60.23a1.409,1.409,0,0,0,1.409-1.409V157.8a1.409,1.409,0,0,0-1.409-1.408Zm0,0" transform="translate(541.262 1128.514)" fill="#ea3942"/>
      <path id="Trazado_8988" data-name="Trazado 8988" d="M-16.819,208.541H-82.188a1.3,1.3,0,0,1-1.3-1.3V114.3a1.3,1.3,0,0,1,1.3-1.3h65.369Zm0,0" transform="translate(702.082 1159.186)" fill="#dfdede"/>
      <rect id="Rectángulo_6093" data-name="Rectángulo 6093" width="17.318" height="95.541" transform="translate(667.945 1272.187)" fill="#cbcbcb"/>
      <path id="Trazado_8989" data-name="Trazado 8989" d="M208.476,208.541H144V113h64.476a2.189,2.189,0,0,1,2.189,2.189v91.162a2.189,2.189,0,0,1-2.189,2.189Zm0,0" transform="translate(541.262 1159.186)" fill="#dfdede"/>
      <path id="Trazado_8990" data-name="Trazado 8990" d="M328.08,113h-14.9v95.541h14.9a2.189,2.189,0,0,0,2.189-2.19V115.19A2.189,2.189,0,0,0,328.08,113Zm0,0" transform="translate(421.658 1159.186)" fill="#cbcbcb"/>
      <path id="Trazado_8991" data-name="Trazado 8991" d="M-50.734,71.487v91.462a2,2,0,0,0,2.359,1.975c34.762-6.377,54.322,11.455,54.7,11.8l.009,0V81.189S-13.543,62.685-49.1,69.515a2.01,2.01,0,0,0-1.631,1.973Zm0,0" transform="translate(678.929 1190.998)" fill="#fff"/>
      <path id="Trazado_8992" data-name="Trazado 8992" d="M84.906,80.618v95.544c11.112,3.833,17.1,9.293,17.309,9.483l.009,0V90.108s-6.005-5.589-17.318-9.49Zm0,0" transform="translate(583.039 1182.079)" fill="#e8e8e8"/>
      <path id="Trazado_8993" data-name="Trazado 8993" d="M201.067,71.487v91.462a2,2,0,0,1-2.359,1.975c-34.762-6.377-54.322,11.455-54.7,11.8l-.009,0V81.189s19.876-18.5,55.436-11.674a2.01,2.01,0,0,1,1.631,1.973Zm0,0" transform="translate(541.262 1190.998)" fill="#fff"/>
      <path id="Trazado_8994" data-name="Trazado 8994" d="M295.888,69.514A81.915,81.915,0,0,0,280.434,68V163.55a81.538,81.538,0,0,1,14.726,1.372,2,2,0,0,0,2.359-1.973V71.487a2.01,2.01,0,0,0-1.631-1.973Zm0,0" transform="translate(444.81 1190.999)" fill="#e8e8e8"/>
      <path id="Trazado_8995" data-name="Trazado 8995" d="M285.65,390.916a2.258,2.258,0,0,1-1.661-.726l-7.142-7.71a2.264,2.264,0,1,1,3.322-3.077l7.142,7.71a2.264,2.264,0,0,1-1.661,3.8Zm0,0" transform="translate(447.773 971.367)" fill="#f29c1f"/>
      <path id="Trazado_8996" data-name="Trazado 8996" d="M171.961,164.259a.936.936,0,0,0,1.421.8c5.269-3.184,15.544-7.5,30.359-7.5a70.8,70.8,0,0,1,7.852.445.94.94,0,0,0,1.047-.931v-9.228a.937.937,0,0,0-.829-.933,70.982,70.982,0,0,0-8.07-.471c-15.811,0-26.45,4.92-31.354,8.128a.939.939,0,0,0-.426.786Zm0,0" transform="translate(521.495 1135.545)" fill="#a0e557"/>
      <path id="Trazado_8997" data-name="Trazado 8997" d="M268.73,146.913a71.012,71.012,0,0,0-8.07-.471,72.289,72.289,0,0,0-8.187.459v11.116a72.276,72.276,0,0,1,8.187-.459,70.8,70.8,0,0,1,7.851.445.94.94,0,0,0,1.047-.931v-9.228a.937.937,0,0,0-.828-.933Zm0,0" transform="translate(464.577 1135.545)" fill="#93cc4a"/>
      <path id="Trazado_8998" data-name="Trazado 8998" d="M17.906,164.259a.936.936,0,0,1-1.421.8c-5.269-3.184-15.544-7.5-30.359-7.5a70.8,70.8,0,0,0-7.852.445.94.94,0,0,1-1.047-.931v-9.228a.937.937,0,0,1,.829-.933,70.982,70.982,0,0,1,8.07-.471c15.81,0,26.45,4.92,31.354,8.128a.939.939,0,0,1,.426.786Zm0,0" transform="translate(659.162 1135.545)" fill="#a0e557"/>
      <path id="Trazado_8999" data-name="Trazado 8999" d="M74.4,158.262a50.449,50.449,0,0,0-16.658-6.6v11.114A51.892,51.892,0,0,1,73.4,168.754a.936.936,0,0,0,1.421-.8v-8.9a.937.937,0,0,0-.427-.786Zm0,0" transform="translate(602.245 1131.853)" fill="#93cc4a"/>
      <path id="Trazado_9000" data-name="Trazado 9000" d="M166.837,222.467a29.3,29.3,0,1,0-1.582,41.406,29.3,29.3,0,0,0,1.582-41.406Zm0,0" transform="translate(561.027 1088.436)" fill="#a56a43"/>
      <path id="Trazado_9002" data-name="Trazado 9002" d="M180.2,247.085a21.339,21.339,0,1,0-1.151,30.155,21.338,21.338,0,0,0,1.151-30.155Zm0,0" transform="translate(541.82 1069.229)" fill="#fff"/>
      <path id="Trazado_9005" data-name="Trazado 9005" d="M171.961,164.259a.936.936,0,0,0,1.421.8c5.269-3.184,15.544-7.5,30.359-7.5a70.8,70.8,0,0,1,7.852.445.94.94,0,0,0,1.047-.931v-9.228a.937.937,0,0,0-.829-.933,70.982,70.982,0,0,0-8.07-.471c-15.811,0-26.45,4.92-31.354,8.128a.939.939,0,0,0-.426.786Zm0,0" transform="translate(521.495 1135.545)" fill="#a0e557"/>
      <path id="Trazado_9006" data-name="Trazado 9006" d="M268.73,146.913a71.012,71.012,0,0,0-8.07-.471,72.289,72.289,0,0,0-8.187.459v11.116a72.276,72.276,0,0,1,8.187-.459,70.8,70.8,0,0,1,7.851.445.94.94,0,0,0,1.047-.931v-9.228a.937.937,0,0,0-.828-.933Zm0,0" transform="translate(464.577 1135.545)" fill="#93cc4a"/>
      <path id="Trazado_9007" data-name="Trazado 9007" d="M17.906,164.259a.936.936,0,0,1-1.421.8c-5.269-3.184-15.544-7.5-30.359-7.5a70.8,70.8,0,0,0-7.852.445.94.94,0,0,1-1.047-.931v-9.228a.937.937,0,0,1,.829-.933,70.982,70.982,0,0,1,8.07-.471c15.81,0,26.45,4.92,31.354,8.128a.939.939,0,0,1,.426.786Zm0,0" transform="translate(659.162 1135.545)" fill="#a0e557"/>
      <path id="Trazado_9008" data-name="Trazado 9008" d="M74.4,158.262a50.449,50.449,0,0,0-16.658-6.6v11.114A51.892,51.892,0,0,1,73.4,168.754a.936.936,0,0,0,1.421-.8v-8.9a.937.937,0,0,0-.427-.786Zm0,0" transform="translate(602.245 1131.853)" fill="#93cc4a"/>
      <path id="Trazado_9009" data-name="Trazado 9009" d="M12.44,331.793a2.259,2.259,0,0,1-1.271-.392c-2.768-1.882-13.147-8.02-30.508-8.02a69.381,69.381,0,0,0-8.616.552,2.265,2.265,0,0,1-2.529-1.965,2.264,2.264,0,0,1,1.964-2.529,74.036,74.036,0,0,1,9.181-.587c18.144,0,29.16,6.156,33.054,8.8a2.264,2.264,0,0,1-1.275,4.137Zm0,0" transform="translate(664.626 1013.66)" fill="#87a4f4"/>
      <path id="Trazado_9010" data-name="Trazado 9010" d="M12.44,248.113a2.248,2.248,0,0,1-1.271-.393C8.4,245.84-1.979,239.7-19.339,239.7a69.4,69.4,0,0,0-8.616.552,2.266,2.266,0,0,1-2.529-1.965,2.264,2.264,0,0,1,1.966-2.528,73.8,73.8,0,0,1,9.18-.587c18.144,0,29.16,6.156,33.054,8.8a2.265,2.265,0,0,1-1.275,4.137Zm0,0" transform="translate(664.626 1072.817)" fill="#87a4f4"/>
      <path id="Trazado_9011" data-name="Trazado 9011" d="M12.587,283.812c-4.659-2.9-15.3-8.069-31.923-8.069a74.037,74.037,0,0,0-9.181.587,2.264,2.264,0,0,0-1.965,2.529,2.265,2.265,0,0,0,2.528,1.964,69.4,69.4,0,0,1,8.617-.552c17.36,0,27.74,6.138,30.507,8.02a2.256,2.256,0,0,0,1.271.392c.024,0,.048,0,.072,0a29.4,29.4,0,0,1,.073-4.866Zm0,0" transform="translate(664.624 1044.136)" fill="#87a4f4"/>
      <path id="Trazado_9012" data-name="Trazado 9012" d="M289.148,236.623a73.81,73.81,0,0,0-9.181-.587l-.182,0a29.578,29.578,0,0,1,2.808,2.658q.9.975,1.7,2.012c1.42.091,2.853.228,4.29.409a2.264,2.264,0,1,0,.563-4.493Zm0,0" transform="translate(445.269 1072.207)" fill="#87a4f4"/>
      <path id="Trazado_9018" data-name="Trazado 9018" d="M298.114,407.133a5.251,5.251,0,0,1-3.862-1.688l-16.606-17.927a5.264,5.264,0,1,1,7.724-7.154l16.606,17.927a5.265,5.265,0,0,1-3.862,8.842Zm0,0" transform="translate(453.773 977.367)" fill="#805333"/>
      <path id="Trazado_9019" data-name="Trazado 9019" d="M-270.259,281.687h-25.494c-1.056,0-1.911-1.741-1.911-3.889s.856-3.891,1.911-3.891h25.494c1.055,0,1.911,1.744,1.911,3.891s-.856,3.889-1.911,3.889Zm0,0" transform="translate(991.12 1047.994)" fill="#87a4f4"/>
      <path id="Trazado_9020" data-name="Trazado 9020" d="M-276.526,281.687H-296.19c-.814,0-1.474-1.741-1.474-3.889s.66-3.891,1.474-3.891h19.664c.814,0,1.474,1.744,1.474,3.891s-.66,3.889-1.474,3.889Zm0,0" transform="translate(992.779 1061.994)" fill="#87a4f4"/>
    </g>
  </g>
</svg>
