<svg xmlns="http://www.w3.org/2000/svg" width="567.2" height="315.2" viewBox="0 0 567.2 315.2">
  <g id="Grupo_9197" data-name="Grupo 9197" transform="translate(-1487.8 -1697.971)">
    <rect id="Rectángulo_6096" data-name="Rectángulo 6096" width="567.2" height="315.2" rx="3.6" transform="translate(1487.8 1697.971)" fill="#d5ecff"/>
    <rect id="Rectángulo_6097" data-name="Rectángulo 6097" width="242.4" height="65.6" rx="5.6" transform="translate(1777.4 1771.827)" fill="#fff" stroke="#91c7ea" stroke-miterlimit="10" stroke-width="1"/>
    <rect id="Rectángulo_6098" data-name="Rectángulo 6098" width="242.4" height="65.6" rx="5.6" transform="translate(1777.4 1850.227)" fill="#fff" stroke="#91c7ea" stroke-miterlimit="10" stroke-width="1"/>
    <rect id="Rectángulo_6099" data-name="Rectángulo 6099" width="242.4" height="65.6" rx="5.6" transform="translate(1777.4 1928.627)" fill="#fff" stroke="#91c7ea" stroke-miterlimit="10" stroke-width="1"/>
    <rect id="Rectángulo_6100" data-name="Rectángulo 6100" width="242.4" height="65.6" rx="5.6" transform="translate(1523 1771.827)" fill="#fff" stroke="#91c7ea" stroke-miterlimit="10" stroke-width="1"/>
    <rect id="Rectángulo_6101" data-name="Rectángulo 6101" width="242.4" height="65.6" rx="5.6" transform="translate(1523 1850.227)" fill="#fff" stroke="#91c7ea" stroke-miterlimit="10" stroke-width="1"/>
    <rect id="Rectángulo_6102" data-name="Rectángulo 6102" width="242.4" height="65.6" rx="5.6" transform="translate(1523 1928.627)" fill="#fff" stroke="#91c7ea" stroke-miterlimit="10" stroke-width="1"/>
    <g id="Grupo_9182" data-name="Grupo 9182">
      <g id="Grupo_9181" data-name="Grupo 9181">
        <path id="Trazado_9021" data-name="Trazado 9021" d="M1881.1,1730.627h-3.323l-5.364-8.641h-.076q.159,2.289.16,3.266v5.375h-2.336V1719.2h3.3l5.355,8.555h.059q-.126-2.227-.126-3.149V1719.2h2.353Z" fill="#00223d"/>
        <path id="Trazado_9022" data-name="Trazado 9022" d="M1892.574,1726.244a4.483,4.483,0,0,1-1.215,3.336,4.6,4.6,0,0,1-3.382,1.2,5.018,5.018,0,0,1-2.4-.551,3.789,3.789,0,0,1-1.594-1.582,4.976,4.976,0,0,1-.557-2.406,4.46,4.46,0,0,1,1.206-3.328,4.629,4.629,0,0,1,3.391-1.187,5.069,5.069,0,0,1,2.4.546,3.791,3.791,0,0,1,1.594,1.571A4.945,4.945,0,0,1,1892.574,1726.244Zm-6.52,0a3.443,3.443,0,0,0,.46,1.961,1.689,1.689,0,0,0,1.5.664,1.663,1.663,0,0,0,1.48-.66,3.493,3.493,0,0,0,.451-1.965,3.4,3.4,0,0,0-.455-1.945,2.037,2.037,0,0,0-2.978,0A3.4,3.4,0,0,0,1886.054,1726.244Z" fill="#00223d"/>
        <path id="Trazado_9023" data-name="Trazado 9023" d="M1899.962,1721.729a4.467,4.467,0,0,1,.869.07l-.194,2.234a3.174,3.174,0,0,0-.759-.078,2.866,2.866,0,0,0-1.919.586,2.041,2.041,0,0,0-.687,1.641v4.445H1894.7v-8.734h1.949l.379,1.468h.127a3.39,3.39,0,0,1,1.185-1.183A3.083,3.083,0,0,1,1899.962,1721.729Z" fill="#00223d"/>
        <path id="Trazado_9024" data-name="Trazado 9024" d="M1910.986,1730.627h-2.573v-5.1a2.419,2.419,0,0,0-.341-1.418,1.237,1.237,0,0,0-1.076-.472,1.6,1.6,0,0,0-1.433.672,4.122,4.122,0,0,0-.448,2.211v4.109h-2.572v-8.734h1.965l.346,1.117H1905a2.552,2.552,0,0,1,1.1-.942,3.8,3.8,0,0,1,1.644-.339,3.039,3.039,0,0,1,2.868,1.281h.228a2.493,2.493,0,0,1,1.117-.946,4,4,0,0,1,1.666-.335,3.45,3.45,0,0,1,2.425.761,3.188,3.188,0,0,1,.822,2.442v5.695h-2.58v-5.1a2.418,2.418,0,0,0-.342-1.418,1.237,1.237,0,0,0-1.075-.472,1.651,1.651,0,0,0-1.413.625,3.338,3.338,0,0,0-.468,1.984Z" fill="#00223d"/>
        <path id="Trazado_9025" data-name="Trazado 9025" d="M1925.493,1730.627l-.5-1.188h-.067a3.736,3.736,0,0,1-1.337,1.051,4.61,4.61,0,0,1-1.792.293,3.031,3.031,0,0,1-2.139-.719,2.643,2.643,0,0,1-.78-2.046,2.25,2.25,0,0,1,1.05-2.051,6.468,6.468,0,0,1,3.167-.731l1.637-.047v-.382q0-1.329-1.468-1.328a7.118,7.118,0,0,0-2.657.632l-.851-1.609a8.16,8.16,0,0,1,3.609-.789,4.749,4.749,0,0,1,2.91.766,2.73,2.73,0,0,1,1.012,2.328v5.82Zm-.759-4.047-1,.031a3.385,3.385,0,0,0-1.669.375,1.152,1.152,0,0,0-.549,1.047q0,1.008,1.249,1.008a2.07,2.07,0,0,0,1.429-.477,1.609,1.609,0,0,0,.536-1.265Z" fill="#00223d"/>
        <path id="Trazado_9026" data-name="Trazado 9026" d="M1872.66,1750.885a5.958,5.958,0,0,0,1.62-.274v1.774a6.192,6.192,0,0,1-2.362.4,3.032,3.032,0,0,1-2.248-.722,3,3,0,0,1-.7-2.168v-4.211h-1.231v-1.008l1.417-.8.742-1.844h1.645v1.86h2.639v1.789h-2.639v4.211a.9.9,0,0,0,.307.75A1.285,1.285,0,0,0,1872.66,1750.885Z" fill="#00223d"/>
        <path id="Trazado_9027" data-name="Trazado 9027" d="M1880.454,1752.783a5.1,5.1,0,0,1-3.56-1.164,4.228,4.228,0,0,1-1.281-3.3,4.622,4.622,0,0,1,1.184-3.394,4.4,4.4,0,0,1,3.277-1.2,4.345,4.345,0,0,1,3.112,1.054,3.823,3.823,0,0,1,1.114,2.914v1.157h-6.082a2.2,2.2,0,0,0,.65,1.585,2.39,2.39,0,0,0,1.7.571,7.642,7.642,0,0,0,1.611-.164,8.5,8.5,0,0,0,1.585-.524v1.844a6.333,6.333,0,0,1-1.442.465A9.843,9.843,0,0,1,1880.454,1752.783Zm-.363-7.359a1.7,1.7,0,0,0-1.282.48,2.128,2.128,0,0,0-.531,1.364h3.609a1.9,1.9,0,0,0-.5-1.364A1.758,1.758,0,0,0,1880.091,1745.424Zm-1.484-2.492v-.211a22.572,22.572,0,0,0,1.982-2.352h2.884v.164q-.438.406-1.5,1.207t-1.657,1.192Z" fill="#00223d"/>
        <path id="Trazado_9028" data-name="Trazado 9028" d="M1890.221,1752.783q-4.4,0-4.4-4.476a4.556,4.556,0,0,1,1.2-3.4,4.7,4.7,0,0,1,3.432-1.175,6.992,6.992,0,0,1,2.935.593l-.759,1.844q-.608-.227-1.13-.371a3.924,3.924,0,0,0-1.046-.145q-2.007,0-2.007,2.641,0,2.563,2.007,2.563a4.929,4.929,0,0,0,1.375-.184,5.124,5.124,0,0,0,1.265-.574v2.039a4.32,4.32,0,0,1-1.261.508A7.685,7.685,0,0,1,1890.221,1752.783Z" fill="#00223d"/>
        <path id="Trazado_9029" data-name="Trazado 9029" d="M1903.977,1752.627H1901.4v-5.1a2.318,2.318,0,0,0-.362-1.418,1.365,1.365,0,0,0-1.156-.472,1.787,1.787,0,0,0-1.56.668,3.885,3.885,0,0,0-.481,2.215v4.109h-2.572v-8.734h1.965l.346,1.117h.143a2.668,2.668,0,0,1,1.185-.957,4.318,4.318,0,0,1,1.717-.324,3.45,3.45,0,0,1,2.5.824,3.158,3.158,0,0,1,.852,2.379Z" fill="#00223d"/>
        <path id="Trazado_9030" data-name="Trazado 9030" d="M1906.516,1741.635q0-1.164,1.4-1.164t1.4,1.164a1.091,1.091,0,0,1-.35.863,1.549,1.549,0,0,1-1.05.309Q1906.515,1742.807,1906.516,1741.635Zm2.682,10.992h-2.573v-8.734h2.573Z" fill="#00223d"/>
        <path id="Trazado_9031" data-name="Trazado 9031" d="M1915.726,1752.783q-4.4,0-4.4-4.476a4.556,4.556,0,0,1,1.2-3.4,4.7,4.7,0,0,1,3.433-1.175,7,7,0,0,1,2.935.593l-.759,1.844q-.608-.227-1.131-.371a3.917,3.917,0,0,0-1.045-.145q-2.008,0-2.008,2.641,0,2.563,2.008,2.563a4.927,4.927,0,0,0,1.374-.184,5.124,5.124,0,0,0,1.265-.574v2.039a4.325,4.325,0,0,1-1.26.508A7.7,7.7,0,0,1,1915.726,1752.783Z" fill="#00223d"/>
        <path id="Trazado_9032" data-name="Trazado 9032" d="M1926.766,1752.627l-.5-1.188h-.068a3.737,3.737,0,0,1-1.337,1.051,4.607,4.607,0,0,1-1.792.293,3.031,3.031,0,0,1-2.138-.719,2.643,2.643,0,0,1-.78-2.046,2.25,2.25,0,0,1,1.05-2.051,6.466,6.466,0,0,1,3.167-.731l1.636-.047v-.382q0-1.329-1.467-1.328a7.114,7.114,0,0,0-2.657.632l-.852-1.609a8.167,8.167,0,0,1,3.61-.789,4.747,4.747,0,0,1,2.909.766,2.731,2.731,0,0,1,1.013,2.328v5.82Zm-.759-4.047-.995.031a3.39,3.39,0,0,0-1.67.375,1.151,1.151,0,0,0-.548,1.047q0,1.008,1.248,1.008a2.073,2.073,0,0,0,1.43-.477,1.609,1.609,0,0,0,.535-1.265Z" fill="#00223d"/>
      </g>
    </g>
    <g id="Grupo_9184" data-name="Grupo 9184">
      <g id="Grupo_9183" data-name="Grupo 9183">
        <path id="Trazado_9033" data-name="Trazado 9033" d="M1597.675,1726.244v4.383h-2.615V1719.2h3.593a6.532,6.532,0,0,1,3.72.848,2.937,2.937,0,0,1,1.206,2.574,2.88,2.88,0,0,1-.6,1.793,3.926,3.926,0,0,1-1.7,1.23q2.784,3.852,3.627,4.977h-2.9l-2.944-4.383Zm0-1.969h.843a3.433,3.433,0,0,0,1.83-.382,1.332,1.332,0,0,0,.591-1.2,1.223,1.223,0,0,0-.6-1.156,3.909,3.909,0,0,0-1.869-.344h-.792Z" fill="#00223d"/>
        <path id="Trazado_9034" data-name="Trazado 9034" d="M1610.529,1730.783a5.1,5.1,0,0,1-3.56-1.164,4.225,4.225,0,0,1-1.282-3.3,4.623,4.623,0,0,1,1.185-3.394,4.4,4.4,0,0,1,3.277-1.2,4.344,4.344,0,0,1,3.112,1.054,3.822,3.822,0,0,1,1.113,2.914v1.157h-6.081a2.2,2.2,0,0,0,.65,1.585,2.388,2.388,0,0,0,1.7.571,7.644,7.644,0,0,0,1.611-.164,8.507,8.507,0,0,0,1.585-.524v1.844a6.352,6.352,0,0,1-1.442.465A9.841,9.841,0,0,1,1610.529,1730.783Zm-.363-7.359a1.7,1.7,0,0,0-1.282.48,2.127,2.127,0,0,0-.532,1.364h3.61a1.9,1.9,0,0,0-.5-1.364A1.758,1.758,0,0,0,1610.166,1723.424Z" fill="#00223d"/>
        <path id="Trazado_9035" data-name="Trazado 9035" d="M1624.673,1721.893v1.211l-1.476.351a2.256,2.256,0,0,1,.405,1.313,2.572,2.572,0,0,1-1.059,2.191,4.847,4.847,0,0,1-2.939.785l-.464-.023-.38-.039a.782.782,0,0,0-.4.625q0,.515,1.417.515h1.6a3.869,3.869,0,0,1,2.366.617,2.134,2.134,0,0,1,.814,1.813,2.645,2.645,0,0,1-1.379,2.375,7.645,7.645,0,0,1-3.96.844,5.836,5.836,0,0,1-3.015-.637,1.99,1.99,0,0,1-1.042-1.785,1.789,1.789,0,0,1,.532-1.32,3.1,3.1,0,0,1,1.56-.758,1.709,1.709,0,0,1-.692-.512,1.187,1.187,0,0,1,.017-1.586,3.57,3.57,0,0,1,.9-.652,2.487,2.487,0,0,1-1.177-.953,2.737,2.737,0,0,1-.434-1.547,2.637,2.637,0,0,1,1-2.211,4.579,4.579,0,0,1,2.867-.781,7.937,7.937,0,0,1,.94.066q.545.066.7.1Zm-7.279,9.968a.859.859,0,0,0,.51.774,3,3,0,0,0,1.43.281,5.406,5.406,0,0,0,2.167-.352q.785-.351.785-.96a.68.68,0,0,0-.464-.68,4.073,4.073,0,0,0-1.434-.188h-1.332a2.131,2.131,0,0,0-1.185.309A.934.934,0,0,0,1617.394,1731.861Zm.936-7.109a1.689,1.689,0,0,0,.35,1.125,1.32,1.32,0,0,0,1.067.414,1.292,1.292,0,0,0,1.063-.414,1.729,1.729,0,0,0,.337-1.125q0-1.578-1.4-1.578Q1618.33,1723.174,1618.33,1724.752Z" fill="#00223d"/>
        <path id="Trazado_9036" data-name="Trazado 9036" d="M1628.8,1730.627h-2.572v-12.156h2.572Z" fill="#00223d"/>
        <path id="Trazado_9037" data-name="Trazado 9037" d="M1637.485,1730.627l-.5-1.188h-.068a3.727,3.727,0,0,1-1.337,1.051,4.607,4.607,0,0,1-1.792.293,3.031,3.031,0,0,1-2.138-.719,2.643,2.643,0,0,1-.78-2.046,2.25,2.25,0,0,1,1.05-2.051,6.466,6.466,0,0,1,3.167-.731l1.636-.047v-.382q0-1.329-1.467-1.328a7.115,7.115,0,0,0-2.657.632l-.852-1.609a8.167,8.167,0,0,1,3.61-.789,4.752,4.752,0,0,1,2.91.766,2.731,2.731,0,0,1,1.012,2.328v5.82Zm-.76-4.047-.995.031a3.39,3.39,0,0,0-1.67.375,1.153,1.153,0,0,0-.548,1.047q0,1.008,1.248,1.008a2.071,2.071,0,0,0,1.43-.477,1.609,1.609,0,0,0,.535-1.265Z" fill="#00223d"/>
        <path id="Trazado_9038" data-name="Trazado 9038" d="M1650.372,1730.627H1647.8v-5.1a2.418,2.418,0,0,0-.342-1.418,1.236,1.236,0,0,0-1.075-.472,1.6,1.6,0,0,0-1.434.672,4.133,4.133,0,0,0-.447,2.211v4.109h-2.573v-8.734h1.965l.346,1.117h.144a2.549,2.549,0,0,1,1.1-.942,3.806,3.806,0,0,1,1.645-.339,3.041,3.041,0,0,1,2.868,1.281h.227a2.5,2.5,0,0,1,1.118-.946,3.991,3.991,0,0,1,1.666-.335,3.448,3.448,0,0,1,2.424.761,3.188,3.188,0,0,1,.823,2.442v5.695h-2.581v-5.1a2.418,2.418,0,0,0-.342-1.418,1.235,1.235,0,0,0-1.075-.472,1.651,1.651,0,0,0-1.413.625,3.338,3.338,0,0,0-.468,1.984Z" fill="#00223d"/>
        <path id="Trazado_9039" data-name="Trazado 9039" d="M1663.158,1730.783a5.1,5.1,0,0,1-3.559-1.164,4.225,4.225,0,0,1-1.282-3.3,4.623,4.623,0,0,1,1.185-3.394,4.4,4.4,0,0,1,3.277-1.2,4.344,4.344,0,0,1,3.112,1.054A3.822,3.822,0,0,1,1667,1725.7v1.157h-6.081a2.2,2.2,0,0,0,.65,1.585,2.387,2.387,0,0,0,1.7.571,7.633,7.633,0,0,0,1.61-.164,8.49,8.49,0,0,0,1.586-.524v1.844a6.367,6.367,0,0,1-1.442.465A9.845,9.845,0,0,1,1663.158,1730.783Zm-.362-7.359a1.7,1.7,0,0,0-1.282.48,2.127,2.127,0,0,0-.532,1.364h3.61a1.9,1.9,0,0,0-.5-1.364A1.758,1.758,0,0,0,1662.8,1723.424Z" fill="#00223d"/>
        <path id="Trazado_9040" data-name="Trazado 9040" d="M1677.8,1730.627h-2.572v-5.1a2.311,2.311,0,0,0-.363-1.418,1.364,1.364,0,0,0-1.155-.472,1.79,1.79,0,0,0-1.561.668,3.894,3.894,0,0,0-.48,2.215v4.109H1669.1v-8.734h1.965l.346,1.117h.143a2.666,2.666,0,0,1,1.186-.957,4.313,4.313,0,0,1,1.716-.324,3.447,3.447,0,0,1,2.5.824,3.158,3.158,0,0,1,.852,2.379Z" fill="#00223d"/>
        <path id="Trazado_9041" data-name="Trazado 9041" d="M1684.421,1728.885a5.958,5.958,0,0,0,1.62-.274v1.774a6.192,6.192,0,0,1-2.362.4,3.032,3.032,0,0,1-2.248-.722,3,3,0,0,1-.7-2.168v-4.211H1679.5v-1.008l1.417-.8.742-1.844h1.645v1.86h2.639v1.789H1683.3v4.211a.9.9,0,0,0,.307.75A1.284,1.284,0,0,0,1684.421,1728.885Z" fill="#00223d"/>
        <path id="Trazado_9042" data-name="Trazado 9042" d="M1696.516,1726.244a4.483,4.483,0,0,1-1.215,3.336,4.6,4.6,0,0,1-3.382,1.2,5.024,5.024,0,0,1-2.395-.551,3.789,3.789,0,0,1-1.594-1.582,4.987,4.987,0,0,1-.557-2.406,4.46,4.46,0,0,1,1.206-3.328,4.631,4.631,0,0,1,3.391-1.187,5.066,5.066,0,0,1,2.4.546,3.785,3.785,0,0,1,1.594,1.571A4.933,4.933,0,0,1,1696.516,1726.244Zm-6.52,0a3.443,3.443,0,0,0,.46,1.961,1.689,1.689,0,0,0,1.5.664,1.661,1.661,0,0,0,1.48-.66,3.493,3.493,0,0,0,.451-1.965,3.39,3.39,0,0,0-.455-1.945,2.036,2.036,0,0,0-2.977,0A3.388,3.388,0,0,0,1690,1726.244Z" fill="#00223d"/>
        <path id="Trazado_9043" data-name="Trazado 9043" d="M1619.33,1750.885a5.957,5.957,0,0,0,1.619-.274v1.774a6.191,6.191,0,0,1-2.362.4,3.028,3.028,0,0,1-2.247-.722,2.992,2.992,0,0,1-.7-2.168v-4.211H1614.4v-1.008l1.417-.8.742-1.844h1.645v1.86h2.64v1.789h-2.64v4.211a.9.9,0,0,0,.308.75A1.28,1.28,0,0,0,1619.33,1750.885Z" fill="#00223d"/>
        <path id="Trazado_9044" data-name="Trazado 9044" d="M1627.123,1752.783a5.1,5.1,0,0,1-3.559-1.164,4.225,4.225,0,0,1-1.282-3.3,4.618,4.618,0,0,1,1.185-3.394,4.4,4.4,0,0,1,3.276-1.2,4.348,4.348,0,0,1,3.113,1.054,3.822,3.822,0,0,1,1.113,2.914v1.157h-6.081a2.2,2.2,0,0,0,.649,1.585,2.39,2.39,0,0,0,1.7.571,7.638,7.638,0,0,0,1.611-.164,8.507,8.507,0,0,0,1.585-.524v1.844a6.334,6.334,0,0,1-1.442.465A9.834,9.834,0,0,1,1627.123,1752.783Zm-.363-7.359a1.7,1.7,0,0,0-1.282.48,2.131,2.131,0,0,0-.531,1.364h3.61a1.9,1.9,0,0,0-.5-1.364A1.756,1.756,0,0,0,1626.76,1745.424Zm-1.484-2.492v-.211a22.312,22.312,0,0,0,1.982-2.352h2.884v.164q-.438.406-1.5,1.207t-1.657,1.192Z" fill="#00223d"/>
        <path id="Trazado_9045" data-name="Trazado 9045" d="M1636.89,1752.783q-4.4,0-4.4-4.476a4.555,4.555,0,0,1,1.2-3.4,4.7,4.7,0,0,1,3.433-1.175,7,7,0,0,1,2.935.593l-.759,1.844q-.607-.227-1.13-.371a3.929,3.929,0,0,0-1.046-.145q-2.008,0-2.008,2.641,0,2.563,2.008,2.563a4.925,4.925,0,0,0,1.374-.184,5.147,5.147,0,0,0,1.266-.574v2.039a4.342,4.342,0,0,1-1.261.508A7.7,7.7,0,0,1,1636.89,1752.783Z" fill="#00223d"/>
        <path id="Trazado_9046" data-name="Trazado 9046" d="M1650.646,1752.627h-2.572v-5.1a2.311,2.311,0,0,0-.363-1.418,1.365,1.365,0,0,0-1.156-.472,1.79,1.79,0,0,0-1.56.668,3.894,3.894,0,0,0-.481,2.215v4.109h-2.572v-8.734h1.965l.346,1.117h.143a2.668,2.668,0,0,1,1.185-.957,4.317,4.317,0,0,1,1.717-.324,3.45,3.45,0,0,1,2.5.824,3.157,3.157,0,0,1,.852,2.379Z" fill="#00223d"/>
        <path id="Trazado_9047" data-name="Trazado 9047" d="M1653.185,1741.635q0-1.164,1.4-1.164t1.4,1.164a1.091,1.091,0,0,1-.35.863,1.548,1.548,0,0,1-1.05.309Q1653.185,1742.807,1653.185,1741.635Zm2.682,10.992h-2.573v-8.734h2.573Z" fill="#00223d"/>
        <path id="Trazado_9048" data-name="Trazado 9048" d="M1662.4,1752.783q-4.4,0-4.4-4.476a4.56,4.56,0,0,1,1.2-3.4,4.7,4.7,0,0,1,3.433-1.175,6.994,6.994,0,0,1,2.935.593l-.759,1.844q-.607-.227-1.13-.371a3.929,3.929,0,0,0-1.046-.145q-2.007,0-2.008,2.641,0,2.563,2.008,2.563a4.934,4.934,0,0,0,1.375-.184,5.158,5.158,0,0,0,1.265-.574v2.039a4.328,4.328,0,0,1-1.261.508A7.693,7.693,0,0,1,1662.4,1752.783Z" fill="#00223d"/>
        <path id="Trazado_9049" data-name="Trazado 9049" d="M1676.017,1748.244a4.483,4.483,0,0,1-1.215,3.336,4.6,4.6,0,0,1-3.382,1.2,5.018,5.018,0,0,1-2.4-.551,3.791,3.791,0,0,1-1.595-1.582,4.986,4.986,0,0,1-.556-2.406,4.46,4.46,0,0,1,1.206-3.328,4.628,4.628,0,0,1,3.39-1.187,5.07,5.07,0,0,1,2.4.546,3.791,3.791,0,0,1,1.594,1.571A4.944,4.944,0,0,1,1676.017,1748.244Zm-6.52,0a3.451,3.451,0,0,0,.459,1.961,1.692,1.692,0,0,0,1.5.664,1.663,1.663,0,0,0,1.48-.66,3.493,3.493,0,0,0,.451-1.965,3.4,3.4,0,0,0-.455-1.945,2.037,2.037,0,0,0-2.978,0A3.4,3.4,0,0,0,1669.5,1748.244Z" fill="#00223d"/>
      </g>
    </g>
    <g id="Grupo_9186" data-name="Grupo 9186">
      <g id="Grupo_9185" data-name="Grupo 9185">
        <path id="Trazado_9050" data-name="Trazado 9050" d="M1600.239,1798.314h-6.874v-11.421h6.874v1.179h-5.44v3.68h5.111v1.172H1594.8v4.2h5.44Z" fill="#00223d"/>
        <path id="Trazado_9051" data-name="Trazado 9051" d="M1604.987,1793.932l-3.213-4.18h1.594l2.437,3.281,2.429-3.281h1.578l-3.214,4.18,3.382,4.382H1608.4l-2.59-3.468-2.614,3.468H1601.6Z" fill="#00223d"/>
        <path id="Trazado_9052" data-name="Trazado 9052" d="M1616.112,1798.471a4.271,4.271,0,0,1-1.649-.309,3.057,3.057,0,0,1-1.252-.949h-.1a10.573,10.573,0,0,1,.1,1.422v3.523h-1.4v-12.406h1.139l.194,1.172h.068a3.188,3.188,0,0,1,1.256-1.016,4.087,4.087,0,0,1,1.645-.312,3.536,3.536,0,0,1,2.838,1.164,5.811,5.811,0,0,1-.017,6.543A3.54,3.54,0,0,1,1616.112,1798.471Zm-.2-7.774a2.585,2.585,0,0,0-2.05.727,3.532,3.532,0,0,0-.649,2.312v.289a4.04,4.04,0,0,0,.649,2.582,2.565,2.565,0,0,0,2.083.778,2.222,2.222,0,0,0,1.877-.9,4.026,4.026,0,0,0,.679-2.476,3.877,3.877,0,0,0-.679-2.457A2.3,2.3,0,0,0,1615.91,1790.7Z" fill="#00223d"/>
        <path id="Trazado_9053" data-name="Trazado 9053" d="M1626.3,1798.471a4.433,4.433,0,0,1-3.235-1.157,4.277,4.277,0,0,1-1.185-3.21,4.724,4.724,0,0,1,1.1-3.29,3.788,3.788,0,0,1,2.956-1.218,3.625,3.625,0,0,1,2.749,1.058,3.873,3.873,0,0,1,1.013,2.793v.821h-6.368a3.241,3.241,0,0,0,.822,2.289,2.968,2.968,0,0,0,2.2.781,7.956,7.956,0,0,0,2.952-.578v1.156a7.852,7.852,0,0,1-1.4.426A8.5,8.5,0,0,1,1626.3,1798.471Zm-.38-7.789a2.378,2.378,0,0,0-1.775.672,2.972,2.972,0,0,0-.781,1.859h4.833a2.711,2.711,0,0,0-.59-1.879A2.159,2.159,0,0,0,1625.921,1790.682Z" fill="#00223d"/>
        <path id="Trazado_9054" data-name="Trazado 9054" d="M1638.379,1797.166h-.076a3.385,3.385,0,0,1-2.9,1.3,3.554,3.554,0,0,1-2.821-1.149,4.794,4.794,0,0,1-1.008-3.265,4.878,4.878,0,0,1,1.012-3.289,3.522,3.522,0,0,1,2.817-1.172,3.467,3.467,0,0,1,2.885,1.265h.109l-.059-.617-.033-.6v-3.485h1.4v12.156h-1.139Zm-2.8.219a2.658,2.658,0,0,0,2.079-.723,3.449,3.449,0,0,0,.646-2.332v-.273a4.052,4.052,0,0,0-.654-2.6,2.583,2.583,0,0,0-2.088-.777,2.2,2.2,0,0,0-1.885.886,4.166,4.166,0,0,0-.653,2.5,3.988,3.988,0,0,0,.649,2.477A2.267,2.267,0,0,0,1635.578,1797.385Z" fill="#00223d"/>
        <path id="Trazado_9055" data-name="Trazado 9055" d="M1642.553,1787.432a.823.823,0,0,1,.237-.653.926.926,0,0,1,1.172,0,.812.812,0,0,1,.245.649.823.823,0,0,1-.245.652.854.854,0,0,1-.582.215.782.782,0,0,1-.827-.867Zm1.519,10.882h-1.4v-8.562h1.4Z" fill="#00223d"/>
        <path id="Trazado_9056" data-name="Trazado 9056" d="M1653.332,1797.166h-.075a3.385,3.385,0,0,1-2.9,1.3,3.554,3.554,0,0,1-2.821-1.149,4.794,4.794,0,0,1-1.008-3.265,4.873,4.873,0,0,1,1.012-3.289,3.522,3.522,0,0,1,2.817-1.172,3.467,3.467,0,0,1,2.885,1.265h.11l-.06-.617-.033-.6v-3.485h1.4v12.156h-1.139Zm-2.8.219a2.662,2.662,0,0,0,2.08-.723,3.456,3.456,0,0,0,.645-2.332v-.273a4.052,4.052,0,0,0-.654-2.6,2.582,2.582,0,0,0-2.087-.777,2.2,2.2,0,0,0-1.885.886,4.159,4.159,0,0,0-.654,2.5,3.988,3.988,0,0,0,.649,2.477A2.268,2.268,0,0,0,1650.532,1797.385Z" fill="#00223d"/>
        <path id="Trazado_9057" data-name="Trazado 9057" d="M1665.6,1794.025a4.5,4.5,0,0,1-1.138,3.27,4.175,4.175,0,0,1-3.146,1.176,4.429,4.429,0,0,1-2.2-.539,3.67,3.67,0,0,1-1.484-1.547,5.051,5.051,0,0,1-.523-2.36,4.5,4.5,0,0,1,1.13-3.261,4.162,4.162,0,0,1,3.138-1.168,4.065,4.065,0,0,1,3.083,1.2A4.489,4.489,0,0,1,1665.6,1794.025Zm-7.042,0a3.844,3.844,0,0,0,.708,2.5,2.964,2.964,0,0,0,4.171,0,3.824,3.824,0,0,0,.713-2.5,3.765,3.765,0,0,0-.713-2.48,2.6,2.6,0,0,0-2.1-.848,2.552,2.552,0,0,0-2.075.836A3.8,3.8,0,0,0,1658.562,1794.025Z" fill="#00223d"/>
        <path id="Trazado_9058" data-name="Trazado 9058" d="M1676.847,1798.471a4.274,4.274,0,0,1-1.649-.309,3.058,3.058,0,0,1-1.252-.949h-.1a10.728,10.728,0,0,1,.1,1.422v3.523h-1.4v-12.406h1.139l.193,1.172h.068a3.2,3.2,0,0,1,1.257-1.016,4.086,4.086,0,0,1,1.644-.312,3.536,3.536,0,0,1,2.838,1.164,5.813,5.813,0,0,1-.016,6.543A3.543,3.543,0,0,1,1676.847,1798.471Zm-.2-7.774a2.585,2.585,0,0,0-2.05.727,3.538,3.538,0,0,0-.649,2.312v.289a4.04,4.04,0,0,0,.649,2.582,2.567,2.567,0,0,0,2.084.778,2.222,2.222,0,0,0,1.876-.9,4.019,4.019,0,0,0,.679-2.476,3.871,3.871,0,0,0-.679-2.457A2.3,2.3,0,0,0,1676.645,1790.7Z" fill="#00223d"/>
        <path id="Trazado_9059" data-name="Trazado 9059" d="M1691.11,1794.025a4.505,4.505,0,0,1-1.139,3.27,4.175,4.175,0,0,1-3.146,1.176,4.425,4.425,0,0,1-2.2-.539,3.672,3.672,0,0,1-1.485-1.547,5.063,5.063,0,0,1-.523-2.36,4.493,4.493,0,0,1,1.131-3.261,4.159,4.159,0,0,1,3.137-1.168,4.065,4.065,0,0,1,3.083,1.2A4.485,4.485,0,0,1,1691.11,1794.025Zm-7.043,0a3.838,3.838,0,0,0,.709,2.5,2.962,2.962,0,0,0,4.17,0,3.819,3.819,0,0,0,.713-2.5,3.76,3.76,0,0,0-.713-2.48,2.593,2.593,0,0,0-2.1-.848,2.554,2.554,0,0,0-2.075.836A3.8,3.8,0,0,0,1684.067,1794.025Z" fill="#00223d"/>
        <path id="Trazado_9060" data-name="Trazado 9060" d="M1697.781,1789.6a5.942,5.942,0,0,1,1.1.093l-.194,1.2a5.072,5.072,0,0,0-1.012-.118,2.548,2.548,0,0,0-1.919.844,2.944,2.944,0,0,0-.8,2.1v4.593h-1.4v-8.562h1.156l.16,1.586h.067a3.887,3.887,0,0,1,1.24-1.289A2.952,2.952,0,0,1,1697.781,1789.6Z" fill="#00223d"/>
        <path id="Trazado_9061" data-name="Trazado 9061" d="M1562.268,1820.314l-.279-1.218h-.067a3.849,3.849,0,0,1-1.379,1.09,4.527,4.527,0,0,1-1.717.285,3.245,3.245,0,0,1-2.155-.657,2.3,2.3,0,0,1-.78-1.867q0-2.594,4.479-2.718l1.568-.047v-.532a2.063,2.063,0,0,0-.468-1.488,2.018,2.018,0,0,0-1.5-.48,6.471,6.471,0,0,0-2.614.656l-.431-.992a7.172,7.172,0,0,1,3.13-.735,3.713,3.713,0,0,1,2.45.68,2.718,2.718,0,0,1,.8,2.18v5.843Zm-3.163-.914a2.977,2.977,0,0,0,2.053-.664,2.356,2.356,0,0,0,.747-1.859v-.773l-1.4.054a5.429,5.429,0,0,0-2.408.481,1.422,1.422,0,0,0-.738,1.324,1.287,1.287,0,0,0,.459,1.07A2.012,2.012,0,0,0,1559.1,1819.4Z" fill="#00223d"/>
        <path id="Trazado_9062" data-name="Trazado 9062" d="M1567.505,1811.752v5.555a2.126,2.126,0,0,0,.515,1.562,2.2,2.2,0,0,0,1.611.516,2.741,2.741,0,0,0,2.121-.735,3.5,3.5,0,0,0,.67-2.4v-4.5h1.4v8.562h-1.155l-.2-1.148h-.076a2.738,2.738,0,0,1-1.194.969,4.281,4.281,0,0,1-1.741.336,3.725,3.725,0,0,1-2.527-.742,3.022,3.022,0,0,1-.839-2.375v-5.6Z" fill="#00223d"/>
        <path id="Trazado_9063" data-name="Trazado 9063" d="M1579.777,1819.4a5.266,5.266,0,0,0,1.265-.156v.992a2.7,2.7,0,0,1-.67.168,5.487,5.487,0,0,1-.8.067q-2.68,0-2.681-2.617v-5.094h-1.325v-.625l1.325-.539.59-1.828h.809v1.984h2.683v1.008h-2.683v5.039a1.652,1.652,0,0,0,.4,1.187A1.435,1.435,0,0,0,1579.777,1819.4Z" fill="#00223d"/>
        <path id="Trazado_9064" data-name="Trazado 9064" d="M1590.868,1816.025a4.505,4.505,0,0,1-1.139,3.27,4.174,4.174,0,0,1-3.146,1.176,4.428,4.428,0,0,1-2.2-.539,3.664,3.664,0,0,1-1.484-1.547,5.051,5.051,0,0,1-.523-2.36,4.492,4.492,0,0,1,1.13-3.261,4.16,4.16,0,0,1,3.138-1.168,4.063,4.063,0,0,1,3.082,1.2A4.485,4.485,0,0,1,1590.868,1816.025Zm-7.043,0a3.844,3.844,0,0,0,.709,2.5,2.964,2.964,0,0,0,4.171,0,3.824,3.824,0,0,0,.712-2.5,3.765,3.765,0,0,0-.712-2.48,2.6,2.6,0,0,0-2.1-.848,2.551,2.551,0,0,0-2.074.836A3.8,3.8,0,0,0,1583.825,1816.025Z" fill="#00223d"/>
        <path id="Trazado_9065" data-name="Trazado 9065" d="M1597.54,1811.6a5.94,5.94,0,0,1,1.1.093l-.193,1.2a5.083,5.083,0,0,0-1.013-.118,2.55,2.55,0,0,0-1.919.844,2.943,2.943,0,0,0-.8,2.1v4.593h-1.4v-8.562h1.156l.16,1.586h.068a3.877,3.877,0,0,1,1.24-1.289A2.946,2.946,0,0,1,1597.54,1811.6Z" fill="#00223d"/>
        <path id="Trazado_9066" data-name="Trazado 9066" d="M1600.255,1809.432a.824.824,0,0,1,.237-.653.926.926,0,0,1,1.172,0,.812.812,0,0,1,.245.649.823.823,0,0,1-.245.652.853.853,0,0,1-.582.215.782.782,0,0,1-.827-.867Zm1.519,10.882h-1.4v-8.562h1.4Z" fill="#00223d"/>
        <path id="Trazado_9067" data-name="Trazado 9067" d="M1611.034,1819.166h-.075a3.385,3.385,0,0,1-2.9,1.3,3.554,3.554,0,0,1-2.821-1.149,4.794,4.794,0,0,1-1.008-3.265,4.873,4.873,0,0,1,1.012-3.289,3.522,3.522,0,0,1,2.817-1.172,3.469,3.469,0,0,1,2.885,1.265h.109l-.059-.617-.033-.6v-3.485h1.4v12.156h-1.139Zm-2.8.219a2.658,2.658,0,0,0,2.079-.723,3.449,3.449,0,0,0,.646-2.332v-.273a4.052,4.052,0,0,0-.654-2.6,2.583,2.583,0,0,0-2.088-.777,2.2,2.2,0,0,0-1.885.886,4.159,4.159,0,0,0-.653,2.5,3.988,3.988,0,0,0,.649,2.477A2.267,2.267,0,0,0,1608.234,1819.385Z" fill="#00223d"/>
        <path id="Trazado_9068" data-name="Trazado 9068" d="M1621.012,1820.314l-.278-1.218h-.068a3.838,3.838,0,0,1-1.378,1.09,4.527,4.527,0,0,1-1.717.285,3.244,3.244,0,0,1-2.155-.657,2.3,2.3,0,0,1-.78-1.867q0-2.594,4.479-2.718l1.568-.047v-.532a2.063,2.063,0,0,0-.468-1.488,2.018,2.018,0,0,0-1.5-.48,6.479,6.479,0,0,0-2.615.656l-.43-.992a7.172,7.172,0,0,1,3.129-.735,3.718,3.718,0,0,1,2.451.68,2.717,2.717,0,0,1,.8,2.18v5.843Zm-3.162-.914a2.979,2.979,0,0,0,2.053-.664,2.356,2.356,0,0,0,.747-1.859v-.773l-1.4.054a5.424,5.424,0,0,0-2.407.481,1.423,1.423,0,0,0-.739,1.324,1.288,1.288,0,0,0,.46,1.07A2.012,2.012,0,0,0,1617.85,1819.4Z" fill="#00223d"/>
        <path id="Trazado_9069" data-name="Trazado 9069" d="M1631.226,1819.166h-.076a3.383,3.383,0,0,1-2.9,1.3,3.556,3.556,0,0,1-2.822-1.149,4.8,4.8,0,0,1-1.007-3.265,4.873,4.873,0,0,1,1.012-3.289,3.522,3.522,0,0,1,2.817-1.172,3.465,3.465,0,0,1,2.884,1.265h.11l-.059-.617-.034-.6v-3.485h1.4v12.156h-1.138Zm-2.8.219a2.658,2.658,0,0,0,2.079-.723,3.455,3.455,0,0,0,.645-2.332v-.273a4.057,4.057,0,0,0-.653-2.6,2.582,2.582,0,0,0-2.088-.777,2.2,2.2,0,0,0-1.885.886,4.159,4.159,0,0,0-.654,2.5,3.988,3.988,0,0,0,.65,2.477A2.267,2.267,0,0,0,1628.426,1819.385Z" fill="#00223d"/>
        <path id="Trazado_9070" data-name="Trazado 9070" d="M1643.7,1820.471a4.112,4.112,0,0,1-3.109-1.145,4.486,4.486,0,0,1-1.1-3.238,4.621,4.621,0,0,1,1.117-3.32,4.19,4.19,0,0,1,3.184-1.172,6.764,6.764,0,0,1,1.333.133,4.611,4.611,0,0,1,1.046.312l-.43,1.1a7,7,0,0,0-1.013-.286,4.882,4.882,0,0,0-.97-.113q-2.816,0-2.816,3.328a3.747,3.747,0,0,0,.687,2.422,2.471,2.471,0,0,0,2.037.844,6.664,6.664,0,0,0,2.37-.461v1.148A5.391,5.391,0,0,1,1643.7,1820.471Z" fill="#00223d"/>
        <path id="Trazado_9071" data-name="Trazado 9071" d="M1656.208,1816.025a4.5,4.5,0,0,1-1.138,3.27,4.175,4.175,0,0,1-3.146,1.176,4.423,4.423,0,0,1-2.2-.539,3.666,3.666,0,0,1-1.485-1.547,5.051,5.051,0,0,1-.523-2.36,4.5,4.5,0,0,1,1.13-3.261,4.163,4.163,0,0,1,3.138-1.168,4.065,4.065,0,0,1,3.083,1.2A4.485,4.485,0,0,1,1656.208,1816.025Zm-7.042,0a3.844,3.844,0,0,0,.708,2.5,2.964,2.964,0,0,0,4.171,0,3.824,3.824,0,0,0,.713-2.5,3.765,3.765,0,0,0-.713-2.48,2.593,2.593,0,0,0-2.1-.848,2.554,2.554,0,0,0-2.075.836A3.8,3.8,0,0,0,1649.166,1816.025Z" fill="#00223d"/>
        <path id="Trazado_9072" data-name="Trazado 9072" d="M1670.446,1820.314v-5.57a2.194,2.194,0,0,0-.473-1.535,1.907,1.907,0,0,0-1.467-.512,2.468,2.468,0,0,0-1.932.7,3.129,3.129,0,0,0-.624,2.14v4.781h-1.4v-5.57a2.194,2.194,0,0,0-.472-1.535,1.92,1.92,0,0,0-1.476-.512,2.374,2.374,0,0,0-1.927.731,3.727,3.727,0,0,0-.612,2.394v4.492h-1.4v-8.562h1.138l.228,1.172h.068a2.68,2.68,0,0,1,1.117-.977,3.643,3.643,0,0,1,1.616-.351,2.786,2.786,0,0,1,2.833,1.453h.068a2.867,2.867,0,0,1,1.2-1.063,3.965,3.965,0,0,1,1.789-.39,3.283,3.283,0,0,1,2.349.746,3.178,3.178,0,0,1,.78,2.387v5.585Z" fill="#00223d"/>
        <path id="Trazado_9073" data-name="Trazado 9073" d="M1679.032,1820.471a4.27,4.27,0,0,1-1.649-.309,3.061,3.061,0,0,1-1.253-.949h-.1a10.564,10.564,0,0,1,.1,1.422v3.523h-1.4v-12.406h1.139l.194,1.172h.067a3.2,3.2,0,0,1,1.257-1.016,4.087,4.087,0,0,1,1.645-.312,3.536,3.536,0,0,1,2.838,1.164,5.815,5.815,0,0,1-.017,6.543A3.542,3.542,0,0,1,1679.032,1820.471Zm-.2-7.774a2.584,2.584,0,0,0-2.049.727,3.538,3.538,0,0,0-.65,2.312v.289a4.039,4.039,0,0,0,.65,2.582,2.564,2.564,0,0,0,2.083.778,2.222,2.222,0,0,0,1.877-.9,4.026,4.026,0,0,0,.679-2.476,3.877,3.877,0,0,0-.679-2.457A2.3,2.3,0,0,0,1678.829,1812.7Z" fill="#00223d"/>
        <path id="Trazado_9074" data-name="Trazado 9074" d="M1689.22,1820.471a4.432,4.432,0,0,1-3.234-1.157,4.277,4.277,0,0,1-1.185-3.21,4.724,4.724,0,0,1,1.1-3.29,3.786,3.786,0,0,1,2.956-1.218,3.625,3.625,0,0,1,2.749,1.058,3.873,3.873,0,0,1,1.012,2.793v.821h-6.368a3.242,3.242,0,0,0,.823,2.289,2.967,2.967,0,0,0,2.2.781,7.965,7.965,0,0,0,2.952-.578v1.156a7.85,7.85,0,0,1-1.4.426A8.516,8.516,0,0,1,1689.22,1820.471Zm-.379-7.789a2.382,2.382,0,0,0-1.776.672,2.978,2.978,0,0,0-.78,1.859h4.833a2.71,2.71,0,0,0-.59-1.879A2.159,2.159,0,0,0,1688.841,1812.682Z" fill="#00223d"/>
        <path id="Trazado_9075" data-name="Trazado 9075" d="M1697.992,1819.4a5.266,5.266,0,0,0,1.265-.156v.992a2.7,2.7,0,0,1-.67.168,5.488,5.488,0,0,1-.8.067q-2.682,0-2.682-2.617v-5.094h-1.325v-.625l1.325-.539.59-1.828h.81v1.984h2.682v1.008h-2.682v5.039a1.651,1.651,0,0,0,.4,1.187A1.434,1.434,0,0,0,1697.992,1819.4Z" fill="#00223d"/>
        <path id="Trazado_9076" data-name="Trazado 9076" d="M1705.009,1820.471a4.432,4.432,0,0,1-3.234-1.157,4.277,4.277,0,0,1-1.185-3.21,4.724,4.724,0,0,1,1.1-3.29,3.786,3.786,0,0,1,2.956-1.218,3.624,3.624,0,0,1,2.749,1.058,3.873,3.873,0,0,1,1.012,2.793v.821h-6.368a3.245,3.245,0,0,0,.823,2.289,2.967,2.967,0,0,0,2.2.781,7.964,7.964,0,0,0,2.952-.578v1.156a7.852,7.852,0,0,1-1.4.426A8.516,8.516,0,0,1,1705.009,1820.471Zm-.379-7.789a2.382,2.382,0,0,0-1.776.672,2.977,2.977,0,0,0-.78,1.859h4.833a2.711,2.711,0,0,0-.59-1.879A2.159,2.159,0,0,0,1704.63,1812.682Z" fill="#00223d"/>
        <path id="Trazado_9077" data-name="Trazado 9077" d="M1717.121,1820.314v-5.539a2.128,2.128,0,0,0-.515-1.562,2.193,2.193,0,0,0-1.61-.516,2.773,2.773,0,0,0-2.126.727,3.471,3.471,0,0,0-.675,2.4v4.492h-1.4v-8.562h1.139l.228,1.172h.067a2.807,2.807,0,0,1,1.206-.981,4.2,4.2,0,0,1,1.729-.347,3.692,3.692,0,0,1,2.514.746,3.035,3.035,0,0,1,.843,2.387v5.585Z" fill="#00223d"/>
        <path id="Trazado_9078" data-name="Trazado 9078" d="M1724.383,1819.4a5.266,5.266,0,0,0,1.265-.156v.992a2.694,2.694,0,0,1-.671.168,5.466,5.466,0,0,1-.8.067q-2.681,0-2.682-2.617v-5.094h-1.324v-.625l1.324-.539.591-1.828h.809v1.984h2.683v1.008H1722.9v5.039a1.647,1.647,0,0,0,.4,1.187A1.435,1.435,0,0,0,1724.383,1819.4Z" fill="#00223d"/>
        <path id="Trazado_9079" data-name="Trazado 9079" d="M1731.4,1820.471a4.432,4.432,0,0,1-3.234-1.157,4.277,4.277,0,0,1-1.185-3.21,4.728,4.728,0,0,1,1.1-3.29,3.788,3.788,0,0,1,2.957-1.218,3.624,3.624,0,0,1,2.749,1.058,3.873,3.873,0,0,1,1.012,2.793v.821h-6.368a3.241,3.241,0,0,0,.823,2.289,2.967,2.967,0,0,0,2.2.781,7.964,7.964,0,0,0,2.952-.578v1.156a7.836,7.836,0,0,1-1.4.426A8.5,8.5,0,0,1,1731.4,1820.471Zm-.379-7.789a2.382,2.382,0,0,0-1.776.672,2.977,2.977,0,0,0-.78,1.859h4.833a2.706,2.706,0,0,0-.591-1.879A2.156,2.156,0,0,0,1731.021,1812.682Z" fill="#00223d"/>
      </g>
    </g>
    <g id="Grupo_9188" data-name="Grupo 9188">
      <g id="Grupo_9187" data-name="Grupo 9187">
        <path id="Trazado_9080" data-name="Trazado 9080" d="M1849.753,1798.314h-6.874v-11.421h6.874v1.179h-5.44v3.68h5.111v1.172h-5.111v4.2h5.44Z" fill="#00223d"/>
        <path id="Trazado_9081" data-name="Trazado 9081" d="M1853.675,1798.314h-1.4v-12.156h1.4Z" fill="#00223d"/>
        <path id="Trazado_9082" data-name="Trazado 9082" d="M1862.328,1798.314l-.278-1.218h-.067a3.849,3.849,0,0,1-1.379,1.09,4.528,4.528,0,0,1-1.717.285,3.245,3.245,0,0,1-2.155-.657,2.3,2.3,0,0,1-.78-1.867q0-2.594,4.479-2.718l1.568-.047v-.532a2.063,2.063,0,0,0-.468-1.488,2.018,2.018,0,0,0-1.5-.48,6.471,6.471,0,0,0-2.614.656l-.431-.992a7.181,7.181,0,0,1,3.13-.735,3.715,3.715,0,0,1,2.45.68,2.717,2.717,0,0,1,.8,2.18v5.843Zm-3.162-.914a2.977,2.977,0,0,0,2.053-.664,2.356,2.356,0,0,0,.747-1.859v-.773l-1.4.054a5.43,5.43,0,0,0-2.408.481,1.422,1.422,0,0,0-.738,1.324,1.287,1.287,0,0,0,.459,1.07A2.012,2.012,0,0,0,1859.166,1797.4Z" fill="#00223d"/>
        <path id="Trazado_9083" data-name="Trazado 9083" d="M1870.552,1789.611a3.562,3.562,0,0,1,2.83,1.153,5.79,5.79,0,0,1-.009,6.539,3.54,3.54,0,0,1-2.821,1.168,4.271,4.271,0,0,1-1.649-.309,3.052,3.052,0,0,1-1.252-.949h-.1l-.295,1.1h-1v-12.156h1.4v2.953q0,.993-.068,1.782h.068A3.423,3.423,0,0,1,1870.552,1789.611Zm-.2,1.086a2.542,2.542,0,0,0-2.066.762,5.493,5.493,0,0,0,.017,5.148,2.564,2.564,0,0,0,2.083.778,2.222,2.222,0,0,0,1.923-.871,4.219,4.219,0,0,0,.633-2.5,4.051,4.051,0,0,0-.633-2.492A2.316,2.316,0,0,0,1870.349,1790.7Z" fill="#00223d"/>
        <path id="Trazado_9084" data-name="Trazado 9084" d="M1884.814,1794.025a4.5,4.5,0,0,1-1.138,3.27,4.175,4.175,0,0,1-3.146,1.176,4.429,4.429,0,0,1-2.2-.539,3.67,3.67,0,0,1-1.484-1.547,5.051,5.051,0,0,1-.523-2.36,4.492,4.492,0,0,1,1.13-3.261,4.161,4.161,0,0,1,3.138-1.168,4.066,4.066,0,0,1,3.083,1.2A4.489,4.489,0,0,1,1884.814,1794.025Zm-7.042,0a3.844,3.844,0,0,0,.708,2.5,2.964,2.964,0,0,0,4.171,0,3.824,3.824,0,0,0,.712-2.5,3.765,3.765,0,0,0-.712-2.48,2.594,2.594,0,0,0-2.1-.848,2.552,2.552,0,0,0-2.075.836A3.8,3.8,0,0,0,1877.772,1794.025Z" fill="#00223d"/>
        <path id="Trazado_9085" data-name="Trazado 9085" d="M1891.486,1789.6a5.957,5.957,0,0,1,1.1.093l-.194,1.2a5.08,5.08,0,0,0-1.013-.118,2.546,2.546,0,0,0-1.918.844,2.94,2.94,0,0,0-.8,2.1v4.593h-1.4v-8.562h1.155l.16,1.586h.068a3.878,3.878,0,0,1,1.24-1.289A2.947,2.947,0,0,1,1891.486,1789.6Z" fill="#00223d"/>
        <path id="Trazado_9086" data-name="Trazado 9086" d="M1900.005,1798.314l-.279-1.218h-.067a3.843,3.843,0,0,1-1.38,1.09,4.519,4.519,0,0,1-1.716.285,3.245,3.245,0,0,1-2.155-.657,2.3,2.3,0,0,1-.78-1.867q0-2.594,4.479-2.718l1.568-.047v-.532a2.063,2.063,0,0,0-.468-1.488,2.018,2.018,0,0,0-1.5-.48,6.475,6.475,0,0,0-2.614.656l-.431-.992a7.18,7.18,0,0,1,3.13-.735,3.713,3.713,0,0,1,2.45.68,2.717,2.717,0,0,1,.8,2.18v5.843Zm-3.163-.914a2.977,2.977,0,0,0,2.053-.664,2.357,2.357,0,0,0,.747-1.859v-.773l-1.4.054a5.43,5.43,0,0,0-2.408.481,1.422,1.422,0,0,0-.738,1.324,1.287,1.287,0,0,0,.459,1.07A2.012,2.012,0,0,0,1896.842,1797.4Z" fill="#00223d"/>
        <path id="Trazado_9087" data-name="Trazado 9087" d="M1910.218,1797.166h-.075a3.385,3.385,0,0,1-2.9,1.3,3.554,3.554,0,0,1-2.821-1.149,4.794,4.794,0,0,1-1.008-3.265,4.873,4.873,0,0,1,1.012-3.289,3.522,3.522,0,0,1,2.817-1.172,3.468,3.468,0,0,1,2.885,1.265h.109l-.059-.617-.033-.6v-3.485h1.4v12.156H1910.4Zm-2.8.219a2.658,2.658,0,0,0,2.079-.723,3.455,3.455,0,0,0,.646-2.332v-.273a4.051,4.051,0,0,0-.654-2.6,2.582,2.582,0,0,0-2.088-.777,2.2,2.2,0,0,0-1.885.886,4.159,4.159,0,0,0-.653,2.5,3.988,3.988,0,0,0,.649,2.477A2.267,2.267,0,0,0,1907.418,1797.385Z" fill="#00223d"/>
        <path id="Trazado_9088" data-name="Trazado 9088" d="M1922.49,1794.025a4.505,4.505,0,0,1-1.138,3.27,4.177,4.177,0,0,1-3.146,1.176,4.429,4.429,0,0,1-2.2-.539,3.664,3.664,0,0,1-1.484-1.547,5.051,5.051,0,0,1-.523-2.36,4.492,4.492,0,0,1,1.13-3.261,4.162,4.162,0,0,1,3.138-1.168,4.063,4.063,0,0,1,3.082,1.2A4.485,4.485,0,0,1,1922.49,1794.025Zm-7.043,0a3.844,3.844,0,0,0,.709,2.5,2.964,2.964,0,0,0,4.171,0,3.824,3.824,0,0,0,.713-2.5,3.765,3.765,0,0,0-.713-2.48,2.6,2.6,0,0,0-2.1-.848,2.552,2.552,0,0,0-2.074.836A3.8,3.8,0,0,0,1915.447,1794.025Z" fill="#00223d"/>
        <path id="Trazado_9089" data-name="Trazado 9089" d="M1933.733,1798.471a4.274,4.274,0,0,1-1.649-.309,3.058,3.058,0,0,1-1.252-.949h-.1a10.728,10.728,0,0,1,.1,1.422v3.523h-1.4v-12.406h1.138l.194,1.172h.068a3.2,3.2,0,0,1,1.257-1.016,4.079,4.079,0,0,1,1.644-.312,3.536,3.536,0,0,1,2.838,1.164,5.81,5.81,0,0,1-.017,6.543A3.54,3.54,0,0,1,1933.733,1798.471Zm-.2-7.774a2.585,2.585,0,0,0-2.05.727,3.539,3.539,0,0,0-.649,2.312v.289a4.04,4.04,0,0,0,.649,2.582,2.566,2.566,0,0,0,2.083.778,2.222,2.222,0,0,0,1.877-.9,4.019,4.019,0,0,0,.679-2.476,3.871,3.871,0,0,0-.679-2.457A2.3,2.3,0,0,0,1933.531,1790.7Z" fill="#00223d"/>
        <path id="Trazado_9090" data-name="Trazado 9090" d="M1948,1794.025a4.506,4.506,0,0,1-1.139,3.27,4.175,4.175,0,0,1-3.146,1.176,4.432,4.432,0,0,1-2.2-.539,3.675,3.675,0,0,1-1.484-1.547,5.051,5.051,0,0,1-.523-2.36,4.492,4.492,0,0,1,1.131-3.261,4.159,4.159,0,0,1,3.137-1.168,4.065,4.065,0,0,1,3.083,1.2A4.49,4.49,0,0,1,1948,1794.025Zm-7.043,0a3.844,3.844,0,0,0,.708,2.5,2.964,2.964,0,0,0,4.171,0,3.824,3.824,0,0,0,.713-2.5,3.765,3.765,0,0,0-.713-2.48,2.594,2.594,0,0,0-2.1-.848,2.554,2.554,0,0,0-2.075.836A3.8,3.8,0,0,0,1940.953,1794.025Z" fill="#00223d"/>
        <path id="Trazado_9091" data-name="Trazado 9091" d="M1954.667,1789.6a5.95,5.95,0,0,1,1.1.093l-.194,1.2a5.072,5.072,0,0,0-1.012-.118,2.547,2.547,0,0,0-1.919.844,2.944,2.944,0,0,0-.8,2.1v4.593h-1.4v-8.562h1.155l.161,1.586h.067a3.887,3.887,0,0,1,1.24-1.289A2.952,2.952,0,0,1,1954.667,1789.6Z" fill="#00223d"/>
        <path id="Trazado_9092" data-name="Trazado 9092" d="M1814.1,1816.025a4.505,4.505,0,0,1-1.139,3.27,4.174,4.174,0,0,1-3.146,1.176,4.428,4.428,0,0,1-2.2-.539,3.664,3.664,0,0,1-1.484-1.547,5.051,5.051,0,0,1-.523-2.36,4.492,4.492,0,0,1,1.13-3.261,4.159,4.159,0,0,1,3.137-1.168,4.063,4.063,0,0,1,3.083,1.2A4.485,4.485,0,0,1,1814.1,1816.025Zm-7.043,0a3.839,3.839,0,0,0,.709,2.5,2.964,2.964,0,0,0,4.171,0,3.824,3.824,0,0,0,.712-2.5,3.765,3.765,0,0,0-.712-2.48,2.6,2.6,0,0,0-2.1-.848,2.555,2.555,0,0,0-2.075.836A3.81,3.81,0,0,0,1807.054,1816.025Z" fill="#00223d"/>
        <path id="Trazado_9093" data-name="Trazado 9093" d="M1820.768,1811.6a5.944,5.944,0,0,1,1.105.093l-.194,1.2a5.064,5.064,0,0,0-1.012-.118,2.548,2.548,0,0,0-1.919.844,2.944,2.944,0,0,0-.8,2.1v4.593h-1.4v-8.562h1.156l.16,1.586h.068a3.877,3.877,0,0,1,1.24-1.289A2.945,2.945,0,0,1,1820.768,1811.6Z" fill="#00223d"/>
        <path id="Trazado_9094" data-name="Trazado 9094" d="M1831.168,1811.752v.82l-1.712.188a2.651,2.651,0,0,1,.421.715,2.541,2.541,0,0,1,.186,1,2.449,2.449,0,0,1-.928,2.008,3.94,3.94,0,0,1-2.547.75,4.534,4.534,0,0,1-.776-.063q-.894.438-.894,1.1a.552.552,0,0,0,.312.519,2.437,2.437,0,0,0,1.071.168h1.637a3.875,3.875,0,0,1,2.306.586,1.975,1.975,0,0,1,.806,1.7,2.389,2.389,0,0,1-1.231,2.168,7.026,7.026,0,0,1-3.594.746,5.214,5.214,0,0,1-2.8-.625,1.978,1.978,0,0,1-.982-1.765,1.9,1.9,0,0,1,.54-1.352,2.8,2.8,0,0,1,1.518-.773,1.454,1.454,0,0,1-.595-.461,1.162,1.162,0,0,1-.24-.727,1.308,1.308,0,0,1,.27-.82,2.783,2.783,0,0,1,.852-.68,2.453,2.453,0,0,1-1.169-.93,2.58,2.58,0,0,1-.451-1.5,2.67,2.67,0,0,1,.911-2.168,3.918,3.918,0,0,1,2.581-.761,5.047,5.047,0,0,1,1.307.156Zm-7.372,10a1.148,1.148,0,0,0,.633,1.055,3.728,3.728,0,0,0,1.813.359,5.407,5.407,0,0,0,2.611-.488,1.481,1.481,0,0,0,.847-1.324,1.019,1.019,0,0,0-.463-.965,3.855,3.855,0,0,0-1.747-.27h-1.678a2.33,2.33,0,0,0-1.484.422A1.454,1.454,0,0,0,1823.8,1821.752Zm.759-7.258a1.677,1.677,0,0,0,.549,1.36,2.3,2.3,0,0,0,1.526.46q2.05,0,2.05-1.843,0-1.93-2.075-1.93a2.153,2.153,0,0,0-1.518.492A1.9,1.9,0,0,0,1824.555,1814.494Z" fill="#00223d"/>
        <path id="Trazado_9095" data-name="Trazado 9095" d="M1838.75,1820.314l-.278-1.218h-.068a3.838,3.838,0,0,1-1.378,1.09,4.528,4.528,0,0,1-1.717.285,3.245,3.245,0,0,1-2.155-.657,2.3,2.3,0,0,1-.78-1.867q0-2.594,4.479-2.718l1.568-.047v-.532a2.063,2.063,0,0,0-.468-1.488,2.018,2.018,0,0,0-1.5-.48,6.471,6.471,0,0,0-2.614.656l-.431-.992a6.919,6.919,0,0,1,1.5-.539,6.989,6.989,0,0,1,1.632-.2,3.716,3.716,0,0,1,2.451.68,2.717,2.717,0,0,1,.8,2.18v5.843Zm-3.162-.914a2.977,2.977,0,0,0,2.053-.664,2.356,2.356,0,0,0,.747-1.859v-.773l-1.4.054a5.427,5.427,0,0,0-2.408.481,1.422,1.422,0,0,0-.738,1.324,1.287,1.287,0,0,0,.459,1.07A2.012,2.012,0,0,0,1835.588,1819.4Z" fill="#00223d"/>
        <path id="Trazado_9096" data-name="Trazado 9096" d="M1849,1820.314v-5.539a2.132,2.132,0,0,0-.514-1.562,2.2,2.2,0,0,0-1.611-.516,2.773,2.773,0,0,0-2.126.727,3.471,3.471,0,0,0-.675,2.4v4.492h-1.4v-8.562h1.139l.228,1.172h.067a2.807,2.807,0,0,1,1.206-.981,4.2,4.2,0,0,1,1.729-.347,3.694,3.694,0,0,1,2.514.746,3.035,3.035,0,0,1,.843,2.387v5.585Z" fill="#00223d"/>
        <path id="Trazado_9097" data-name="Trazado 9097" d="M1853.156,1809.432a.827.827,0,0,1,.236-.653.927.927,0,0,1,1.173,0,.812.812,0,0,1,.244.649.822.822,0,0,1-.244.652.907.907,0,0,1-1.173,0A.84.84,0,0,1,1853.156,1809.432Zm1.518,10.882h-1.4v-8.562h1.4Z" fill="#00223d"/>
        <path id="Trazado_9098" data-name="Trazado 9098" d="M1863.606,1817.979a2.093,2.093,0,0,1-.961,1.843,4.789,4.789,0,0,1-2.7.649,6.27,6.27,0,0,1-2.868-.539v-1.2a7.321,7.321,0,0,0,1.43.492,6.394,6.394,0,0,0,1.471.179,3.562,3.562,0,0,0,1.687-.324,1.072,1.072,0,0,0,.123-1.844,7.646,7.646,0,0,0-1.826-.839,10.229,10.229,0,0,1-1.835-.778,2.4,2.4,0,0,1-.81-.754,1.851,1.851,0,0,1-.265-1.007,1.884,1.884,0,0,1,.919-1.653,4.549,4.549,0,0,1,2.522-.605,7.883,7.883,0,0,1,2.918.562l-.5,1.055a7.157,7.157,0,0,0-2.522-.531,3.094,3.094,0,0,0-1.5.289.885.885,0,0,0-.506.8.92.92,0,0,0,.19.586,1.843,1.843,0,0,0,.612.46,14.15,14.15,0,0,0,1.619.633,6.209,6.209,0,0,1,2.223,1.117A1.9,1.9,0,0,1,1863.606,1817.979Z" fill="#00223d"/>
        <path id="Trazado_9099" data-name="Trazado 9099" d="M1877.666,1820.314v-5.57a2.2,2.2,0,0,0-.472-1.535,1.908,1.908,0,0,0-1.468-.512,2.467,2.467,0,0,0-1.931.7,3.129,3.129,0,0,0-.624,2.14v4.781h-1.4v-5.57a2.194,2.194,0,0,0-.473-1.535,1.92,1.92,0,0,0-1.476-.512,2.375,2.375,0,0,0-1.927.731,3.727,3.727,0,0,0-.612,2.394v4.492h-1.4v-8.562h1.139l.228,1.172h.067a2.677,2.677,0,0,1,1.118-.977,3.642,3.642,0,0,1,1.615-.351,2.787,2.787,0,0,1,2.834,1.453h.067a2.869,2.869,0,0,1,1.2-1.063,3.963,3.963,0,0,1,1.788-.39,3.279,3.279,0,0,1,2.349.746,3.178,3.178,0,0,1,.78,2.387v5.585Z" fill="#00223d"/>
        <path id="Trazado_9100" data-name="Trazado 9100" d="M1889.929,1816.025a4.5,4.5,0,0,1-1.138,3.27,4.175,4.175,0,0,1-3.146,1.176,4.425,4.425,0,0,1-2.2-.539,3.666,3.666,0,0,1-1.485-1.547,5.063,5.063,0,0,1-.523-2.36,4.5,4.5,0,0,1,1.13-3.261,4.163,4.163,0,0,1,3.138-1.168,4.065,4.065,0,0,1,3.083,1.2A4.485,4.485,0,0,1,1889.929,1816.025Zm-7.042,0a3.844,3.844,0,0,0,.708,2.5,2.964,2.964,0,0,0,4.171,0,3.824,3.824,0,0,0,.713-2.5,3.765,3.765,0,0,0-.713-2.48,2.593,2.593,0,0,0-2.1-.848,2.553,2.553,0,0,0-2.075.836A3.8,3.8,0,0,0,1882.887,1816.025Z" fill="#00223d"/>
        <path id="Trazado_9101" data-name="Trazado 9101" d="M1900.565,1820.471a4.111,4.111,0,0,1-3.108-1.145,4.481,4.481,0,0,1-1.1-3.238,4.62,4.62,0,0,1,1.117-3.32,4.188,4.188,0,0,1,3.184-1.172,6.761,6.761,0,0,1,1.332.133,4.593,4.593,0,0,1,1.046.312l-.43,1.1a6.946,6.946,0,0,0-1.012-.286,4.89,4.89,0,0,0-.97-.113q-2.817,0-2.817,3.328a3.742,3.742,0,0,0,.688,2.422,2.47,2.47,0,0,0,2.036.844,6.665,6.665,0,0,0,2.371-.461v1.148A5.4,5.4,0,0,1,1900.565,1820.471Z" fill="#00223d"/>
        <path id="Trazado_9102" data-name="Trazado 9102" d="M1913.073,1816.025a4.505,4.505,0,0,1-1.138,3.27,4.177,4.177,0,0,1-3.146,1.176,4.429,4.429,0,0,1-2.2-.539,3.664,3.664,0,0,1-1.484-1.547,5.051,5.051,0,0,1-.523-2.36,4.5,4.5,0,0,1,1.13-3.261,4.162,4.162,0,0,1,3.138-1.168,4.062,4.062,0,0,1,3.082,1.2A4.485,4.485,0,0,1,1913.073,1816.025Zm-7.042,0a3.844,3.844,0,0,0,.708,2.5,2.964,2.964,0,0,0,4.171,0,3.824,3.824,0,0,0,.713-2.5,3.765,3.765,0,0,0-.713-2.48,2.594,2.594,0,0,0-2.1-.848,2.552,2.552,0,0,0-2.075.836A3.8,3.8,0,0,0,1906.031,1816.025Z" fill="#00223d"/>
        <path id="Trazado_9103" data-name="Trazado 9103" d="M1927.31,1820.314v-5.57a2.194,2.194,0,0,0-.472-1.535,1.908,1.908,0,0,0-1.468-.512,2.467,2.467,0,0,0-1.931.7,3.129,3.129,0,0,0-.624,2.14v4.781h-1.4v-5.57a2.2,2.2,0,0,0-.472-1.535,1.923,1.923,0,0,0-1.476-.512,2.376,2.376,0,0,0-1.928.731,3.734,3.734,0,0,0-.611,2.394v4.492h-1.4v-8.562h1.138l.228,1.172h.067a2.682,2.682,0,0,1,1.118-.977,3.642,3.642,0,0,1,1.615-.351,2.787,2.787,0,0,1,2.834,1.453h.067a2.869,2.869,0,0,1,1.2-1.063,3.964,3.964,0,0,1,1.788-.39,3.28,3.28,0,0,1,2.349.746,3.178,3.178,0,0,1,.78,2.387v5.585Z" fill="#00223d"/>
        <path id="Trazado_9104" data-name="Trazado 9104" d="M1935.9,1820.471a4.265,4.265,0,0,1-1.648-.309,3.055,3.055,0,0,1-1.253-.949h-.1a10.727,10.727,0,0,1,.1,1.422v3.523h-1.4v-12.406h1.139l.193,1.172h.068a3.2,3.2,0,0,1,1.257-1.016,4.086,4.086,0,0,1,1.644-.312,3.54,3.54,0,0,1,2.839,1.164,5.815,5.815,0,0,1-.017,6.543A3.542,3.542,0,0,1,1935.9,1820.471Zm-.2-7.774a2.585,2.585,0,0,0-2.05.727,3.538,3.538,0,0,0-.649,2.312v.289a4.046,4.046,0,0,0,.649,2.582,2.567,2.567,0,0,0,2.084.778,2.22,2.22,0,0,0,1.876-.9,4.019,4.019,0,0,0,.679-2.476,3.871,3.871,0,0,0-.679-2.457A2.3,2.3,0,0,0,1935.694,1812.7Z" fill="#00223d"/>
        <path id="Trazado_9105" data-name="Trazado 9105" d="M1946.085,1820.471a4.435,4.435,0,0,1-3.235-1.157,4.277,4.277,0,0,1-1.185-3.21,4.724,4.724,0,0,1,1.1-3.29,3.788,3.788,0,0,1,2.956-1.218,3.627,3.627,0,0,1,2.75,1.058,3.873,3.873,0,0,1,1.012,2.793v.821h-6.368a3.237,3.237,0,0,0,.823,2.289,2.966,2.966,0,0,0,2.2.781,7.966,7.966,0,0,0,2.953-.578v1.156a7.835,7.835,0,0,1-1.405.426A8.5,8.5,0,0,1,1946.085,1820.471Zm-.379-7.789a2.379,2.379,0,0,0-1.776.672,2.972,2.972,0,0,0-.78,1.859h4.833a2.706,2.706,0,0,0-.591-1.879A2.157,2.157,0,0,0,1945.706,1812.682Z" fill="#00223d"/>
        <path id="Trazado_9106" data-name="Trazado 9106" d="M1954.857,1819.4a4.912,4.912,0,0,0,.717-.05,4.86,4.86,0,0,0,.548-.106v.992a2.694,2.694,0,0,1-.671.168,5.477,5.477,0,0,1-.8.067q-2.682,0-2.682-2.617v-5.094h-1.324v-.625l1.324-.539.591-1.828h.809v1.984h2.682v1.008h-2.682v5.039a1.647,1.647,0,0,0,.4,1.187A1.435,1.435,0,0,0,1954.857,1819.4Z" fill="#00223d"/>
        <path id="Trazado_9107" data-name="Trazado 9107" d="M1961.874,1820.471a4.434,4.434,0,0,1-3.235-1.157,4.276,4.276,0,0,1-1.184-3.21,4.724,4.724,0,0,1,1.1-3.29,3.788,3.788,0,0,1,2.956-1.218,3.627,3.627,0,0,1,2.75,1.058,3.873,3.873,0,0,1,1.012,2.793v.821h-6.368a3.237,3.237,0,0,0,.823,2.289,2.967,2.967,0,0,0,2.2.781,7.964,7.964,0,0,0,2.952-.578v1.156a7.836,7.836,0,0,1-1.4.426A8.5,8.5,0,0,1,1961.874,1820.471Zm-.379-7.789a2.379,2.379,0,0,0-1.776.672,2.977,2.977,0,0,0-.78,1.859h4.833a2.706,2.706,0,0,0-.591-1.879A2.157,2.157,0,0,0,1961.495,1812.682Z" fill="#00223d"/>
        <path id="Trazado_9108" data-name="Trazado 9108" d="M1973.986,1820.314v-5.539a2.128,2.128,0,0,0-.515-1.562,2.2,2.2,0,0,0-1.611-.516,2.772,2.772,0,0,0-2.125.727,3.471,3.471,0,0,0-.675,2.4v4.492h-1.4v-8.562h1.139l.227,1.172h.068a2.8,2.8,0,0,1,1.206-.981,4.192,4.192,0,0,1,1.729-.347,3.689,3.689,0,0,1,2.513.746,3.032,3.032,0,0,1,.844,2.387v5.585Z" fill="#00223d"/>
        <path id="Trazado_9109" data-name="Trazado 9109" d="M1981.248,1819.4a4.912,4.912,0,0,0,.717-.05,4.86,4.86,0,0,0,.548-.106v.992a2.706,2.706,0,0,1-.671.168,5.477,5.477,0,0,1-.8.067q-2.682,0-2.682-2.617v-5.094h-1.324v-.625l1.324-.539.59-1.828h.81v1.984h2.682v1.008h-2.682v5.039a1.647,1.647,0,0,0,.4,1.187A1.433,1.433,0,0,0,1981.248,1819.4Z" fill="#00223d"/>
        <path id="Trazado_9110" data-name="Trazado 9110" d="M1988.265,1820.471a4.436,4.436,0,0,1-3.235-1.157,4.277,4.277,0,0,1-1.185-3.21,4.724,4.724,0,0,1,1.1-3.29,3.788,3.788,0,0,1,2.956-1.218,3.628,3.628,0,0,1,2.75,1.058,3.873,3.873,0,0,1,1.012,2.793v.821H1985.3a3.241,3.241,0,0,0,.822,2.289,2.969,2.969,0,0,0,2.2.781,7.964,7.964,0,0,0,2.952-.578v1.156a7.834,7.834,0,0,1-1.4.426A8.5,8.5,0,0,1,1988.265,1820.471Zm-.38-7.789a2.378,2.378,0,0,0-1.775.672,2.972,2.972,0,0,0-.78,1.859h4.833a2.706,2.706,0,0,0-.591-1.879A2.158,2.158,0,0,0,1987.885,1812.682Z" fill="#00223d"/>
      </g>
    </g>
    <g id="Grupo_9190" data-name="Grupo 9190">
      <g id="Grupo_9189" data-name="Grupo 9189">
        <path id="Trazado_9111" data-name="Trazado 9111" d="M1568.555,1887.715l-1.535-3.633h-4.942l-1.518,3.633h-1.451l4.875-11.469h1.206l4.85,11.469Zm-1.982-4.829-1.434-3.539q-.278-.671-.573-1.648a13.924,13.924,0,0,1-.532,1.648l-1.45,3.539Z" fill="#00223d"/>
        <path id="Trazado_9112" data-name="Trazado 9112" d="M1575.826,1887.871a4.269,4.269,0,0,1-1.649-.309,3.061,3.061,0,0,1-1.253-.949h-.1a10.564,10.564,0,0,1,.1,1.422v3.523h-1.4v-12.406h1.139l.194,1.172h.067a3.2,3.2,0,0,1,1.257-1.016,4.087,4.087,0,0,1,1.645-.312,3.537,3.537,0,0,1,2.838,1.164,5.815,5.815,0,0,1-.017,6.543A3.541,3.541,0,0,1,1575.826,1887.871Zm-.2-7.774a2.586,2.586,0,0,0-2.049.727,3.533,3.533,0,0,0-.65,2.312v.29a4.043,4.043,0,0,0,.65,2.582,2.567,2.567,0,0,0,2.083.777,2.221,2.221,0,0,0,1.877-.9,4.024,4.024,0,0,0,.679-2.476,3.878,3.878,0,0,0-.679-2.457A2.3,2.3,0,0,0,1575.623,1880.1Z" fill="#00223d"/>
        <path id="Trazado_9113" data-name="Trazado 9113" d="M1583.509,1887.715h-1.4v-12.157h1.4Z" fill="#00223d"/>
        <path id="Trazado_9114" data-name="Trazado 9114" d="M1586.36,1876.832a.828.828,0,0,1,.236-.653.928.928,0,0,1,1.173,0,.812.812,0,0,1,.244.649.821.821,0,0,1-.244.652.858.858,0,0,1-.583.215.781.781,0,0,1-.826-.867Zm1.518,10.883h-1.4v-8.563h1.4Z" fill="#00223d"/>
        <path id="Trazado_9115" data-name="Trazado 9115" d="M1594.541,1887.871a4.111,4.111,0,0,1-3.108-1.145,4.481,4.481,0,0,1-1.1-3.238,4.621,4.621,0,0,1,1.118-3.32,4.188,4.188,0,0,1,3.184-1.172,6.78,6.78,0,0,1,1.333.133,4.647,4.647,0,0,1,1.045.312l-.43,1.1a6.829,6.829,0,0,0-1.012-.285,4.826,4.826,0,0,0-.97-.114q-2.817,0-2.817,3.328a3.742,3.742,0,0,0,.688,2.422,2.471,2.471,0,0,0,2.037.844,6.665,6.665,0,0,0,2.37-.461v1.149A5.411,5.411,0,0,1,1594.541,1887.871Z" fill="#00223d"/>
        <path id="Trazado_9116" data-name="Trazado 9116" d="M1604.755,1887.715l-.278-1.219h-.068a3.832,3.832,0,0,1-1.379,1.09,4.5,4.5,0,0,1-1.716.285,3.248,3.248,0,0,1-2.155-.656,2.306,2.306,0,0,1-.78-1.868q0-2.594,4.479-2.718l1.568-.047v-.531a2.066,2.066,0,0,0-.468-1.489,2.017,2.017,0,0,0-1.5-.48,6.5,6.5,0,0,0-2.615.656l-.43-.992a6.919,6.919,0,0,1,1.5-.539,6.989,6.989,0,0,1,1.632-.2,3.717,3.717,0,0,1,2.451.68,2.717,2.717,0,0,1,.8,2.18v5.844Zm-3.163-.914a2.98,2.98,0,0,0,2.054-.665,2.356,2.356,0,0,0,.747-1.859v-.773l-1.4.054a5.435,5.435,0,0,0-2.408.481,1.423,1.423,0,0,0-.738,1.324,1.288,1.288,0,0,0,.46,1.07A2.011,2.011,0,0,0,1601.592,1886.8Z" fill="#00223d"/>
        <path id="Trazado_9117" data-name="Trazado 9117" d="M1612.371,1887.871a4.111,4.111,0,0,1-3.108-1.145,4.481,4.481,0,0,1-1.1-3.238,4.621,4.621,0,0,1,1.117-3.32,4.188,4.188,0,0,1,3.184-1.172,6.779,6.779,0,0,1,1.333.133,4.635,4.635,0,0,1,1.045.312l-.43,1.1a6.827,6.827,0,0,0-1.012-.285,4.826,4.826,0,0,0-.97-.114q-2.817,0-2.817,3.328a3.742,3.742,0,0,0,.688,2.422,2.471,2.471,0,0,0,2.037.844,6.665,6.665,0,0,0,2.37-.461v1.149A5.411,5.411,0,0,1,1612.371,1887.871Z" fill="#00223d"/>
        <path id="Trazado_9118" data-name="Trazado 9118" d="M1616.782,1876.832a.825.825,0,0,1,.237-.653.926.926,0,0,1,1.172,0,.812.812,0,0,1,.245.649.822.822,0,0,1-.245.652.854.854,0,0,1-.582.215.844.844,0,0,1-.59-.215A.835.835,0,0,1,1616.782,1876.832Zm1.519,10.883h-1.4v-8.563h1.4Z" fill="#00223d"/>
        <path id="Trazado_9119" data-name="Trazado 9119" d="M1629.248,1883.426a4.5,4.5,0,0,1-1.138,3.269,4.175,4.175,0,0,1-3.146,1.176,4.429,4.429,0,0,1-2.2-.539,3.664,3.664,0,0,1-1.484-1.547,5.049,5.049,0,0,1-.523-2.359,4.5,4.5,0,0,1,1.13-3.262,4.164,4.164,0,0,1,3.138-1.168,4.063,4.063,0,0,1,3.082,1.2A4.486,4.486,0,0,1,1629.248,1883.426Zm-7.042,0a3.848,3.848,0,0,0,.708,2.5,2.965,2.965,0,0,0,4.171,0,3.822,3.822,0,0,0,.713-2.5,3.766,3.766,0,0,0-.713-2.481,2.6,2.6,0,0,0-2.1-.848,2.553,2.553,0,0,0-2.075.836A3.807,3.807,0,0,0,1622.206,1883.426Zm1.619-5.6q.405-.484.873-1.172a13.258,13.258,0,0,0,.738-1.195h1.7v.164a14.917,14.917,0,0,1-2.379,2.4h-.936Z" fill="#00223d"/>
        <path id="Trazado_9120" data-name="Trazado 9120" d="M1638.029,1887.715v-5.539a2.129,2.129,0,0,0-.515-1.563,2.2,2.2,0,0,0-1.611-.516,2.775,2.775,0,0,0-2.125.727,3.471,3.471,0,0,0-.675,2.4v4.493h-1.4v-8.563h1.138l.228,1.172h.067a2.8,2.8,0,0,1,1.207-.981,4.192,4.192,0,0,1,1.729-.347,3.694,3.694,0,0,1,2.513.746,3.035,3.035,0,0,1,.843,2.387v5.586Z" fill="#00223d"/>
        <path id="Trazado_9121" data-name="Trazado 9121" d="M1654.77,1883.426a4.5,4.5,0,0,1-1.138,3.269,4.175,4.175,0,0,1-3.146,1.176,4.423,4.423,0,0,1-2.2-.539,3.672,3.672,0,0,1-1.485-1.547,5.049,5.049,0,0,1-.523-2.359,4.5,4.5,0,0,1,1.13-3.262,4.164,4.164,0,0,1,3.138-1.168,4.065,4.065,0,0,1,3.083,1.2A4.486,4.486,0,0,1,1654.77,1883.426Zm-7.042,0a3.847,3.847,0,0,0,.708,2.5,2.965,2.965,0,0,0,4.171,0,3.823,3.823,0,0,0,.713-2.5,3.767,3.767,0,0,0-.713-2.481,2.594,2.594,0,0,0-2.1-.848,2.554,2.554,0,0,0-2.075.836A3.808,3.808,0,0,0,1647.728,1883.426Z" fill="#00223d"/>
        <path id="Trazado_9122" data-name="Trazado 9122" d="M1661.526,1879.011a3.561,3.561,0,0,1,2.83,1.153,5.787,5.787,0,0,1-.008,6.539,3.544,3.544,0,0,1-2.822,1.168,4.277,4.277,0,0,1-1.649-.309,3.059,3.059,0,0,1-1.252-.949h-.1l-.3,1.1h-1v-12.157h1.4v2.953q0,.993-.068,1.782h.068A3.423,3.423,0,0,1,1661.526,1879.011Zm-.2,1.086a2.539,2.539,0,0,0-2.066.762,5.49,5.49,0,0,0,.016,5.149,2.569,2.569,0,0,0,2.084.777,2.22,2.22,0,0,0,1.923-.871,4.223,4.223,0,0,0,.632-2.5,4.06,4.06,0,0,0-.632-2.492A2.317,2.317,0,0,0,1661.324,1880.1Z" fill="#00223d"/>
        <path id="Trazado_9123" data-name="Trazado 9123" d="M1669.21,1887.715h-1.4v-12.157h1.4Z" fill="#00223d"/>
        <path id="Trazado_9124" data-name="Trazado 9124" d="M1672.061,1876.832a.828.828,0,0,1,.236-.653.926.926,0,0,1,1.172,0,.812.812,0,0,1,.245.649.822.822,0,0,1-.245.652.854.854,0,0,1-.582.215.781.781,0,0,1-.826-.867Zm1.518,10.883h-1.4v-8.563h1.4Z" fill="#00223d"/>
        <path id="Trazado_9125" data-name="Trazado 9125" d="M1684.113,1879.152v.82l-1.712.188a2.67,2.67,0,0,1,.422.715,2.558,2.558,0,0,1,.185,1,2.452,2.452,0,0,1-.927,2.008,3.943,3.943,0,0,1-2.547.75,4.525,4.525,0,0,1-.776-.063q-.894.438-.9,1.1a.552.552,0,0,0,.313.519,2.436,2.436,0,0,0,1.071.168h1.636a3.883,3.883,0,0,1,2.307.586,1.974,1.974,0,0,1,.805,1.7,2.388,2.388,0,0,1-1.231,2.168,7.012,7.012,0,0,1-3.593.746,5.214,5.214,0,0,1-2.8-.625,1.978,1.978,0,0,1-.983-1.765,1.9,1.9,0,0,1,.54-1.352,2.812,2.812,0,0,1,1.518-.773,1.445,1.445,0,0,1-.594-.461,1.161,1.161,0,0,1-.241-.727,1.308,1.308,0,0,1,.27-.82,2.794,2.794,0,0,1,.852-.68,2.455,2.455,0,0,1-1.168-.929,2.584,2.584,0,0,1-.451-1.5,2.664,2.664,0,0,1,.911-2.168,3.912,3.912,0,0,1,2.581-.762,5.053,5.053,0,0,1,1.307.156Zm-7.371,10a1.149,1.149,0,0,0,.632,1.055,3.73,3.73,0,0,0,1.814.359,5.4,5.4,0,0,0,2.61-.488,1.482,1.482,0,0,0,.848-1.324,1.02,1.02,0,0,0-.464-.965,3.848,3.848,0,0,0-1.746-.27h-1.678a2.333,2.333,0,0,0-1.485.422A1.456,1.456,0,0,0,1676.742,1889.152Zm.759-7.258a1.678,1.678,0,0,0,.548,1.36,2.305,2.305,0,0,0,1.527.461q2.049,0,2.049-1.844,0-1.93-2.075-1.93a2.154,2.154,0,0,0-1.518.492A1.9,1.9,0,0,0,1677.5,1881.894Z" fill="#00223d"/>
        <path id="Trazado_9126" data-name="Trazado 9126" d="M1691.7,1887.715l-.279-1.219h-.067a3.839,3.839,0,0,1-1.379,1.09,4.5,4.5,0,0,1-1.716.285,3.249,3.249,0,0,1-2.155-.656,2.306,2.306,0,0,1-.78-1.868q0-2.594,4.478-2.718l1.569-.047v-.531a2.066,2.066,0,0,0-.468-1.489,2.017,2.017,0,0,0-1.5-.48,6.491,6.491,0,0,0-2.615.656l-.43-.992a6.882,6.882,0,0,1,1.5-.539,6.982,6.982,0,0,1,1.632-.2,3.713,3.713,0,0,1,2.45.68,2.717,2.717,0,0,1,.8,2.18v5.844Zm-3.163-.914a2.982,2.982,0,0,0,2.054-.665,2.359,2.359,0,0,0,.746-1.859v-.773l-1.4.054a5.435,5.435,0,0,0-2.408.481,1.423,1.423,0,0,0-.738,1.324,1.285,1.285,0,0,0,.46,1.07A2.009,2.009,0,0,0,1688.533,1886.8Z" fill="#00223d"/>
        <path id="Trazado_9127" data-name="Trazado 9127" d="M1698.6,1886.8a5.326,5.326,0,0,0,1.266-.157v.992a2.7,2.7,0,0,1-.671.168,5.329,5.329,0,0,1-.8.067q-2.682,0-2.682-2.617v-5.094H1694.4v-.625l1.324-.539.59-1.828h.81v1.984h2.682v1.008h-2.682v5.039a1.644,1.644,0,0,0,.4,1.187A1.43,1.43,0,0,0,1698.6,1886.8Z" fill="#00223d"/>
        <path id="Trazado_9128" data-name="Trazado 9128" d="M1709.695,1883.426a4.5,4.5,0,0,1-1.139,3.269,4.175,4.175,0,0,1-3.146,1.176,4.425,4.425,0,0,1-2.2-.539,3.672,3.672,0,0,1-1.485-1.547,5.049,5.049,0,0,1-.523-2.359,4.5,4.5,0,0,1,1.13-3.262,4.163,4.163,0,0,1,3.138-1.168,4.065,4.065,0,0,1,3.083,1.2A4.486,4.486,0,0,1,1709.695,1883.426Zm-7.043,0a3.842,3.842,0,0,0,.709,2.5,2.964,2.964,0,0,0,4.17,0,3.823,3.823,0,0,0,.713-2.5,3.767,3.767,0,0,0-.713-2.481,2.593,2.593,0,0,0-2.1-.848,2.553,2.553,0,0,0-2.075.836A3.807,3.807,0,0,0,1702.652,1883.426Z" fill="#00223d"/>
        <path id="Trazado_9129" data-name="Trazado 9129" d="M1716.366,1879a5.855,5.855,0,0,1,1.1.094l-.194,1.2a5.136,5.136,0,0,0-1.012-.117,2.546,2.546,0,0,0-1.919.843,2.944,2.944,0,0,0-.8,2.1v4.594h-1.4v-8.563h1.155l.161,1.586h.067a3.887,3.887,0,0,1,1.24-1.289A2.952,2.952,0,0,1,1716.366,1879Z" fill="#00223d"/>
        <path id="Trazado_9130" data-name="Trazado 9130" d="M1719.082,1876.832a.828.828,0,0,1,.236-.653.926.926,0,0,1,1.172,0,.809.809,0,0,1,.245.649.818.818,0,0,1-.245.652.906.906,0,0,1-1.172,0A.839.839,0,0,1,1719.082,1876.832Zm1.518,10.883h-1.4v-8.563h1.4Z" fill="#00223d"/>
        <path id="Trazado_9131" data-name="Trazado 9131" d="M1729.254,1887.715l-.278-1.219h-.068a3.839,3.839,0,0,1-1.379,1.09,4.505,4.505,0,0,1-1.717.285,3.248,3.248,0,0,1-2.154-.656,2.3,2.3,0,0,1-.781-1.868q0-2.594,4.479-2.718l1.569-.047v-.531a2.066,2.066,0,0,0-.468-1.489,2.019,2.019,0,0,0-1.5-.48,6.491,6.491,0,0,0-2.615.656l-.43-.992a6.882,6.882,0,0,1,1.5-.539,6.982,6.982,0,0,1,1.632-.2,3.713,3.713,0,0,1,2.45.68,2.714,2.714,0,0,1,.8,2.18v5.844Zm-3.163-.914a2.982,2.982,0,0,0,2.054-.665,2.359,2.359,0,0,0,.746-1.859v-.773l-1.4.054a5.435,5.435,0,0,0-2.408.481,1.423,1.423,0,0,0-.738,1.324,1.285,1.285,0,0,0,.46,1.07A2.009,2.009,0,0,0,1726.091,1886.8Z" fill="#00223d"/>
      </g>
    </g>
    <g id="Grupo_9192" data-name="Grupo 9192">
      <g id="Grupo_9191" data-name="Grupo 9191">
        <path id="Trazado_9132" data-name="Trazado 9132" d="M1824.252,1887.714l-1.535-3.632h-4.943l-1.518,3.632h-1.451l4.875-11.468h1.206l4.85,11.468Zm-1.982-4.828-1.434-3.539q-.279-.672-.574-1.648a13.919,13.919,0,0,1-.531,1.648l-1.451,3.539Z" fill="#00223d"/>
        <path id="Trazado_9133" data-name="Trazado 9133" d="M1831.522,1887.871a4.272,4.272,0,0,1-1.649-.309,3.068,3.068,0,0,1-1.252-.949h-.1a10.572,10.572,0,0,1,.1,1.422v3.523h-1.4v-12.406h1.138l.194,1.172h.068a3.19,3.19,0,0,1,1.256-1.016,4.091,4.091,0,0,1,1.645-.312,3.536,3.536,0,0,1,2.838,1.164,5.811,5.811,0,0,1-.017,6.543A3.544,3.544,0,0,1,1831.522,1887.871Zm-.2-7.774a2.585,2.585,0,0,0-2.05.727,3.538,3.538,0,0,0-.649,2.312v.289a4.041,4.041,0,0,0,.649,2.582,2.564,2.564,0,0,0,2.083.778,2.222,2.222,0,0,0,1.877-.9,4.019,4.019,0,0,0,.679-2.476,3.871,3.871,0,0,0-.679-2.457A2.3,2.3,0,0,0,1831.32,1880.1Z" fill="#00223d"/>
        <path id="Trazado_9134" data-name="Trazado 9134" d="M1839.206,1887.714h-1.4v-12.156h1.4Z" fill="#00223d"/>
        <path id="Trazado_9135" data-name="Trazado 9135" d="M1842.057,1876.832a.824.824,0,0,1,.236-.653.926.926,0,0,1,1.172,0,.812.812,0,0,1,.245.649.823.823,0,0,1-.245.652.854.854,0,0,1-.582.215.781.781,0,0,1-.826-.867Zm1.518,10.882h-1.4v-8.562h1.4Z" fill="#00223d"/>
        <path id="Trazado_9136" data-name="Trazado 9136" d="M1850.238,1887.871a4.108,4.108,0,0,1-3.108-1.145,4.481,4.481,0,0,1-1.1-3.238,4.625,4.625,0,0,1,1.118-3.321,4.191,4.191,0,0,1,3.184-1.171,6.834,6.834,0,0,1,1.332.132,4.651,4.651,0,0,1,1.046.313l-.43,1.1a7.168,7.168,0,0,0-1.012-.285,4.906,4.906,0,0,0-.97-.113q-2.817,0-2.817,3.328a3.749,3.749,0,0,0,.687,2.422,2.471,2.471,0,0,0,2.037.844,6.664,6.664,0,0,0,2.37-.461v1.148A5.388,5.388,0,0,1,1850.238,1887.871Z" fill="#00223d"/>
        <path id="Trazado_9137" data-name="Trazado 9137" d="M1860.452,1887.714l-.278-1.218h-.068a3.823,3.823,0,0,1-1.379,1.089,4.5,4.5,0,0,1-1.717.286,3.243,3.243,0,0,1-2.154-.657,2.3,2.3,0,0,1-.781-1.867q0-2.594,4.479-2.719l1.569-.046v-.532a2.062,2.062,0,0,0-.468-1.488,2.019,2.019,0,0,0-1.5-.48,6.475,6.475,0,0,0-2.615.656l-.43-.992a7.171,7.171,0,0,1,3.129-.735,3.713,3.713,0,0,1,2.45.68,2.714,2.714,0,0,1,.8,2.18v5.843Zm-3.163-.914a2.982,2.982,0,0,0,2.054-.664,2.359,2.359,0,0,0,.746-1.859v-.774l-1.4.055a5.435,5.435,0,0,0-2.408.481,1.423,1.423,0,0,0-.738,1.324,1.287,1.287,0,0,0,.46,1.07A2.009,2.009,0,0,0,1857.289,1886.8Z" fill="#00223d"/>
        <path id="Trazado_9138" data-name="Trazado 9138" d="M1868.068,1887.871a4.109,4.109,0,0,1-3.108-1.145,4.481,4.481,0,0,1-1.1-3.238,4.625,4.625,0,0,1,1.118-3.321,4.191,4.191,0,0,1,3.184-1.171,6.836,6.836,0,0,1,1.332.132,4.652,4.652,0,0,1,1.046.313l-.43,1.1a7.125,7.125,0,0,0-1.012-.285,4.908,4.908,0,0,0-.97-.113q-2.817,0-2.817,3.328a3.749,3.749,0,0,0,.687,2.422,2.473,2.473,0,0,0,2.037.844,6.665,6.665,0,0,0,2.37-.461v1.148A5.389,5.389,0,0,1,1868.068,1887.871Z" fill="#00223d"/>
        <path id="Trazado_9139" data-name="Trazado 9139" d="M1872.479,1876.832a.827.827,0,0,1,.236-.653.928.928,0,0,1,1.173,0,.815.815,0,0,1,.244.649.826.826,0,0,1-.244.652.857.857,0,0,1-.582.215.781.781,0,0,1-.827-.867Zm1.518,10.882h-1.4v-8.562h1.4Z" fill="#00223d"/>
        <path id="Trazado_9140" data-name="Trazado 9140" d="M1884.945,1883.425a4.505,4.505,0,0,1-1.139,3.27,4.175,4.175,0,0,1-3.146,1.176,4.428,4.428,0,0,1-2.2-.539,3.664,3.664,0,0,1-1.484-1.547,5.053,5.053,0,0,1-.523-2.36,4.492,4.492,0,0,1,1.13-3.261,4.159,4.159,0,0,1,3.137-1.168,4.065,4.065,0,0,1,3.083,1.2A4.485,4.485,0,0,1,1884.945,1883.425Zm-7.043,0a3.838,3.838,0,0,0,.709,2.5,2.962,2.962,0,0,0,4.17,0,3.82,3.82,0,0,0,.713-2.5,3.76,3.76,0,0,0-.713-2.48,2.593,2.593,0,0,0-2.1-.848,2.553,2.553,0,0,0-2.075.836A3.8,3.8,0,0,0,1877.9,1883.425Zm1.62-5.6q.4-.484.872-1.172a13.073,13.073,0,0,0,.739-1.195h1.7v.164a11.722,11.722,0,0,1-1.105,1.25,12.24,12.24,0,0,1-1.273,1.148h-.936Z" fill="#00223d"/>
        <path id="Trazado_9141" data-name="Trazado 9141" d="M1893.725,1887.714v-5.539a2.128,2.128,0,0,0-.515-1.562,2.193,2.193,0,0,0-1.61-.516,2.773,2.773,0,0,0-2.126.727,3.471,3.471,0,0,0-.675,2.4v4.492h-1.4v-8.562h1.139l.228,1.172h.067a2.806,2.806,0,0,1,1.206-.981,4.2,4.2,0,0,1,1.729-.347,3.693,3.693,0,0,1,2.514.746,3.034,3.034,0,0,1,.843,2.386v5.586Z" fill="#00223d"/>
        <path id="Trazado_9142" data-name="Trazado 9142" d="M1904.512,1887.714l-3.508-8.562h1.5l1.991,5.078a23.055,23.055,0,0,1,.793,2.312h.067a16.631,16.631,0,0,1,.586-1.714q.493-1.3,2.214-5.676h1.5l-3.508,8.562Z" fill="#00223d"/>
        <path id="Trazado_9143" data-name="Trazado 9143" d="M1919.121,1883.425a4.505,4.505,0,0,1-1.139,3.27,4.175,4.175,0,0,1-3.146,1.176,4.425,4.425,0,0,1-2.2-.539,3.672,3.672,0,0,1-1.485-1.547,5.053,5.053,0,0,1-.523-2.36,4.493,4.493,0,0,1,1.131-3.261A4.159,4.159,0,0,1,1914.9,1879a4.065,4.065,0,0,1,3.083,1.2A4.485,4.485,0,0,1,1919.121,1883.425Zm-7.043,0a3.838,3.838,0,0,0,.709,2.5,2.962,2.962,0,0,0,4.17,0,3.826,3.826,0,0,0,.713-2.5,3.766,3.766,0,0,0-.713-2.48,2.593,2.593,0,0,0-2.1-.848,2.554,2.554,0,0,0-2.075.836A3.8,3.8,0,0,0,1912.078,1883.425Z" fill="#00223d"/>
        <path id="Trazado_9144" data-name="Trazado 9144" d="M1922.975,1887.714h-1.4v-12.156h1.4Z" fill="#00223d"/>
        <path id="Trazado_9145" data-name="Trazado 9145" d="M1927.26,1879.152v5.555a2.126,2.126,0,0,0,.514,1.562,2.2,2.2,0,0,0,1.611.516,2.741,2.741,0,0,0,2.121-.735,3.5,3.5,0,0,0,.671-2.4v-4.5h1.4v8.562h-1.155l-.2-1.148h-.076a2.74,2.74,0,0,1-1.193.969,4.286,4.286,0,0,1-1.742.336,3.715,3.715,0,0,1-2.526-.743,3.015,3.015,0,0,1-.839-2.375v-5.6Z" fill="#00223d"/>
        <path id="Trazado_9146" data-name="Trazado 9146" d="M1942.872,1887.714v-5.539a2.128,2.128,0,0,0-.515-1.562,2.2,2.2,0,0,0-1.611-.516,2.772,2.772,0,0,0-2.125.727,3.471,3.471,0,0,0-.675,2.4v4.492h-1.4v-8.562h1.139l.227,1.172h.068a2.8,2.8,0,0,1,1.206-.981,4.192,4.192,0,0,1,1.729-.347,3.69,3.69,0,0,1,2.513.746,3.035,3.035,0,0,1,.844,2.386v5.586Z" fill="#00223d"/>
        <path id="Trazado_9147" data-name="Trazado 9147" d="M1950.133,1886.8a5.074,5.074,0,0,0,.718-.05,4.891,4.891,0,0,0,.548-.106v.992a2.7,2.7,0,0,1-.671.168,5.461,5.461,0,0,1-.8.067q-2.682,0-2.682-2.618v-5.093h-1.324v-.625l1.324-.539.59-1.829h.81v1.985h2.682v1.008h-2.682v5.039a1.647,1.647,0,0,0,.4,1.187A1.433,1.433,0,0,0,1950.133,1886.8Z" fill="#00223d"/>
        <path id="Trazado_9148" data-name="Trazado 9148" d="M1958.93,1887.714l-.278-1.218h-.067a3.832,3.832,0,0,1-1.379,1.089,4.505,4.505,0,0,1-1.717.286,3.245,3.245,0,0,1-2.155-.657,2.3,2.3,0,0,1-.78-1.867q0-2.594,4.479-2.719l1.569-.046v-.532a2.057,2.057,0,0,0-.469-1.488,2.017,2.017,0,0,0-1.5-.48,6.471,6.471,0,0,0-2.614.656l-.43-.992a7.171,7.171,0,0,1,3.129-.735,3.715,3.715,0,0,1,2.45.68,2.717,2.717,0,0,1,.8,2.18v5.843Zm-3.162-.914a2.977,2.977,0,0,0,2.053-.664,2.357,2.357,0,0,0,.747-1.859v-.774l-1.4.055a5.431,5.431,0,0,0-2.408.481,1.423,1.423,0,0,0-.738,1.324,1.289,1.289,0,0,0,.459,1.07A2.014,2.014,0,0,0,1955.768,1886.8Z" fill="#00223d"/>
        <path id="Trazado_9149" data-name="Trazado 9149" d="M1967.07,1879a5.959,5.959,0,0,1,1.105.093l-.2,1.2a5.128,5.128,0,0,0-1.012-.117,2.545,2.545,0,0,0-1.918.844,2.94,2.94,0,0,0-.8,2.1v4.593h-1.4v-8.562h1.156l.16,1.586h.068a3.878,3.878,0,0,1,1.24-1.289A2.947,2.947,0,0,1,1967.07,1879Z" fill="#00223d"/>
        <path id="Trazado_9150" data-name="Trazado 9150" d="M1969.785,1876.832a.824.824,0,0,1,.237-.653.926.926,0,0,1,1.172,0,.812.812,0,0,1,.245.649.823.823,0,0,1-.245.652.854.854,0,0,1-.582.215.782.782,0,0,1-.827-.867Zm1.519,10.882h-1.4v-8.562h1.4Z" fill="#00223d"/>
        <path id="Trazado_9151" data-name="Trazado 9151" d="M1979.957,1887.714l-.278-1.218h-.068a3.815,3.815,0,0,1-1.379,1.089,4.5,4.5,0,0,1-1.716.286,3.244,3.244,0,0,1-2.155-.657,2.3,2.3,0,0,1-.78-1.867q0-2.594,4.479-2.719l1.568-.046v-.532a2.062,2.062,0,0,0-.468-1.488,2.017,2.017,0,0,0-1.5-.48,6.479,6.479,0,0,0-2.615.656l-.43-.992a7.171,7.171,0,0,1,3.129-.735,3.713,3.713,0,0,1,2.45.68,2.714,2.714,0,0,1,.8,2.18v5.843Zm-3.163-.914a2.98,2.98,0,0,0,2.054-.664,2.356,2.356,0,0,0,.746-1.859v-.774l-1.4.055a5.435,5.435,0,0,0-2.408.481,1.423,1.423,0,0,0-.738,1.324,1.289,1.289,0,0,0,.46,1.07A2.009,2.009,0,0,0,1976.794,1886.8Z" fill="#00223d"/>
      </g>
    </g>
    <g id="Grupo_9194" data-name="Grupo 9194">
      <g id="Grupo_9193" data-name="Grupo 9193">
        <path id="Trazado_9152" data-name="Trazado 9152" d="M1866.006,1955.716a4.187,4.187,0,0,0-3.209,1.254,4.815,4.815,0,0,0-1.177,3.434,4.906,4.906,0,0,0,1.134,3.464,4.2,4.2,0,0,0,3.235,1.223,11.831,11.831,0,0,0,2.943-.43v1.164a9.716,9.716,0,0,1-3.162.446,5.577,5.577,0,0,1-4.205-1.532,6.006,6.006,0,0,1-1.48-4.351,6.437,6.437,0,0,1,.713-3.094,4.908,4.908,0,0,1,2.058-2.047,6.624,6.624,0,0,1,3.167-.718,8.147,8.147,0,0,1,3.39.656l-.607,1.14A6.97,6.97,0,0,0,1866.006,1955.716Z" fill="#00223d"/>
        <path id="Trazado_9153" data-name="Trazado 9153" d="M1879.391,1961.825a4.505,4.505,0,0,1-1.139,3.27,4.173,4.173,0,0,1-3.146,1.176,4.429,4.429,0,0,1-2.2-.539,3.665,3.665,0,0,1-1.484-1.547,5.054,5.054,0,0,1-.523-2.36,4.492,4.492,0,0,1,1.13-3.261,4.16,4.16,0,0,1,3.137-1.168,4.064,4.064,0,0,1,3.083,1.195A4.485,4.485,0,0,1,1879.391,1961.825Zm-7.043,0a3.844,3.844,0,0,0,.709,2.5,2.963,2.963,0,0,0,4.171,0,3.824,3.824,0,0,0,.712-2.5,3.766,3.766,0,0,0-.712-2.48,2.6,2.6,0,0,0-2.1-.848,2.552,2.552,0,0,0-2.074.836A3.8,3.8,0,0,0,1872.348,1961.825Z" fill="#00223d"/>
        <path id="Trazado_9154" data-name="Trazado 9154" d="M1888.171,1966.114v-5.539a2.128,2.128,0,0,0-.515-1.562,2.191,2.191,0,0,0-1.61-.516,2.773,2.773,0,0,0-2.126.727,3.47,3.47,0,0,0-.675,2.4v4.492h-1.4v-8.562h1.139l.228,1.172h.067a2.806,2.806,0,0,1,1.206-.981,4.181,4.181,0,0,1,1.729-.347,3.693,3.693,0,0,1,2.514.746,3.035,3.035,0,0,1,.843,2.387v5.585Z" fill="#00223d"/>
        <path id="Trazado_9155" data-name="Trazado 9155" d="M1898.41,1963.779a2.093,2.093,0,0,1-.961,1.843,4.8,4.8,0,0,1-2.7.649,6.272,6.272,0,0,1-2.868-.539v-1.2a7.323,7.323,0,0,0,1.43.492,6.456,6.456,0,0,0,1.471.179,3.548,3.548,0,0,0,1.687-.324,1.072,1.072,0,0,0,.123-1.844,7.616,7.616,0,0,0-1.826-.839,10.315,10.315,0,0,1-1.835-.778,2.41,2.41,0,0,1-.809-.754,1.852,1.852,0,0,1-.266-1.007,1.884,1.884,0,0,1,.919-1.653,4.544,4.544,0,0,1,2.522-.6,7.893,7.893,0,0,1,2.919.562l-.5,1.055a7.159,7.159,0,0,0-2.522-.531,3.087,3.087,0,0,0-1.5.289.884.884,0,0,0-.506.8.926.926,0,0,0,.189.586,1.867,1.867,0,0,0,.612.46,14.234,14.234,0,0,0,1.619.633,6.206,6.206,0,0,1,2.223,1.117A1.9,1.9,0,0,1,1898.41,1963.779Z" fill="#00223d"/>
        <path id="Trazado_9156" data-name="Trazado 9156" d="M1904.592,1966.271a4.432,4.432,0,0,1-3.234-1.157,4.279,4.279,0,0,1-1.185-3.21,4.724,4.724,0,0,1,1.1-3.29,3.788,3.788,0,0,1,2.956-1.218,3.625,3.625,0,0,1,2.749,1.058,3.873,3.873,0,0,1,1.013,2.793v.821h-6.368a3.241,3.241,0,0,0,.822,2.289,2.966,2.966,0,0,0,2.2.781,7.967,7.967,0,0,0,2.952-.578v1.156a7.842,7.842,0,0,1-1.4.426A8.5,8.5,0,0,1,1904.592,1966.271Zm-.379-7.789a2.378,2.378,0,0,0-1.775.672,2.969,2.969,0,0,0-.781,1.859h4.833a2.71,2.71,0,0,0-.59-1.879A2.159,2.159,0,0,0,1904.213,1958.482Z" fill="#00223d"/>
        <path id="Trazado_9157" data-name="Trazado 9157" d="M1916.7,1966.114v-5.539a2.128,2.128,0,0,0-.514-1.562,2.195,2.195,0,0,0-1.611-.516,2.775,2.775,0,0,0-2.126.727,3.476,3.476,0,0,0-.674,2.4v4.492h-1.4v-8.562h1.138l.228,1.172h.067a2.8,2.8,0,0,1,1.207-.981,4.174,4.174,0,0,1,1.729-.347,3.691,3.691,0,0,1,2.513.746,3.035,3.035,0,0,1,.843,2.387v5.585Z" fill="#00223d"/>
        <path id="Trazado_9158" data-name="Trazado 9158" d="M1926.944,1963.779a2.094,2.094,0,0,1-.962,1.843,4.8,4.8,0,0,1-2.7.649,6.271,6.271,0,0,1-2.868-.539v-1.2a7.344,7.344,0,0,0,1.43.492,6.458,6.458,0,0,0,1.472.179,3.552,3.552,0,0,0,1.687-.324,1.072,1.072,0,0,0,.122-1.844,7.617,7.617,0,0,0-1.826-.839,10.3,10.3,0,0,1-1.834-.778,2.406,2.406,0,0,1-.81-.754,1.852,1.852,0,0,1-.266-1.007,1.884,1.884,0,0,1,.919-1.653,4.544,4.544,0,0,1,2.522-.6,7.892,7.892,0,0,1,2.919.562l-.5,1.055a7.155,7.155,0,0,0-2.522-.531,3.09,3.09,0,0,0-1.5.289.884.884,0,0,0-.506.8.926.926,0,0,0,.189.586,1.867,1.867,0,0,0,.612.46,14.229,14.229,0,0,0,1.619.633,6.2,6.2,0,0,1,2.223,1.117A1.894,1.894,0,0,1,1926.944,1963.779Z" fill="#00223d"/>
        <path id="Trazado_9159" data-name="Trazado 9159" d="M1937.2,1961.825a4.505,4.505,0,0,1-1.138,3.27,4.175,4.175,0,0,1-3.146,1.176,4.427,4.427,0,0,1-2.2-.539,3.667,3.667,0,0,1-1.485-1.547,5.066,5.066,0,0,1-.523-2.36,4.5,4.5,0,0,1,1.13-3.261,4.163,4.163,0,0,1,3.138-1.168,4.065,4.065,0,0,1,3.083,1.195A4.485,4.485,0,0,1,1937.2,1961.825Zm-7.042,0a3.844,3.844,0,0,0,.708,2.5,2.963,2.963,0,0,0,4.171,0,3.824,3.824,0,0,0,.713-2.5,3.766,3.766,0,0,0-.713-2.48,2.593,2.593,0,0,0-2.1-.848,2.553,2.553,0,0,0-2.075.836A3.8,3.8,0,0,0,1930.157,1961.825Z" fill="#00223d"/>
      </g>
    </g>
    <g id="Grupo_9196" data-name="Grupo 9196">
      <g id="Grupo_9195" data-name="Grupo 9195">
        <path id="Trazado_9160" data-name="Trazado 9160" d="M1536.378,1966.114v-11.421h1.434v11.421Z" fill="#00223d"/>
        <path id="Trazado_9161" data-name="Trazado 9161" d="M1547.309,1966.114v-5.539a2.129,2.129,0,0,0-.514-1.562,2.2,2.2,0,0,0-1.611-.516,2.775,2.775,0,0,0-2.126.727,3.476,3.476,0,0,0-.675,2.4v4.492h-1.4v-8.562h1.138l.228,1.172h.067a2.806,2.806,0,0,1,1.206-.981,4.2,4.2,0,0,1,1.729-.347,3.7,3.7,0,0,1,2.514.746,3.035,3.035,0,0,1,.843,2.387v5.585Z" fill="#00223d"/>
        <path id="Trazado_9162" data-name="Trazado 9162" d="M1555.279,1966.271a4.107,4.107,0,0,1-3.107-1.145,4.481,4.481,0,0,1-1.1-3.238,4.62,4.62,0,0,1,1.117-3.32,4.19,4.19,0,0,1,3.184-1.172,6.755,6.755,0,0,1,1.333.133,4.6,4.6,0,0,1,1.046.312l-.43,1.1a7.038,7.038,0,0,0-1.012-.286,4.907,4.907,0,0,0-.97-.113q-2.817,0-2.817,3.328a3.747,3.747,0,0,0,.687,2.422,2.471,2.471,0,0,0,2.037.844,6.664,6.664,0,0,0,2.37-.461v1.148A5.4,5.4,0,0,1,1555.279,1966.271Z" fill="#00223d"/>
        <path id="Trazado_9163" data-name="Trazado 9163" d="M1561.125,1957.552v5.555a2.126,2.126,0,0,0,.514,1.562,2.2,2.2,0,0,0,1.611.516,2.741,2.741,0,0,0,2.121-.735,3.5,3.5,0,0,0,.671-2.4v-4.5h1.4v8.562h-1.156l-.2-1.148h-.076a2.742,2.742,0,0,1-1.193.969,4.286,4.286,0,0,1-1.742.336,3.721,3.721,0,0,1-2.526-.742,3.019,3.019,0,0,1-.839-2.375v-5.6Z" fill="#00223d"/>
        <path id="Trazado_9164" data-name="Trazado 9164" d="M1582.193,1966.114v-5.57a2.193,2.193,0,0,0-.472-1.535,1.906,1.906,0,0,0-1.467-.512,2.468,2.468,0,0,0-1.932.7,3.129,3.129,0,0,0-.624,2.14v4.781h-1.4v-5.57a2.193,2.193,0,0,0-.473-1.535,1.917,1.917,0,0,0-1.476-.512,2.375,2.375,0,0,0-1.927.731,3.727,3.727,0,0,0-.611,2.394v4.492h-1.4v-8.562h1.138l.228,1.172h.067a2.684,2.684,0,0,1,1.118-.977,3.642,3.642,0,0,1,1.615-.351,2.787,2.787,0,0,1,2.834,1.453h.068a2.867,2.867,0,0,1,1.2-1.063,3.963,3.963,0,0,1,1.788-.39,3.284,3.284,0,0,1,2.349.746,3.178,3.178,0,0,1,.78,2.387v5.585Z" fill="#00223d"/>
        <path id="Trazado_9165" data-name="Trazado 9165" d="M1590.779,1966.271a4.268,4.268,0,0,1-1.648-.309,3.062,3.062,0,0,1-1.253-.949h-.1a10.73,10.73,0,0,1,.1,1.422v3.523h-1.4v-12.406h1.139l.194,1.172h.067a3.2,3.2,0,0,1,1.257-1.016,4.086,4.086,0,0,1,1.644-.312,3.54,3.54,0,0,1,2.839,1.164,5.816,5.816,0,0,1-.017,6.543A3.542,3.542,0,0,1,1590.779,1966.271Zm-.2-7.774a2.583,2.583,0,0,0-2.049.727,3.532,3.532,0,0,0-.65,2.312v.289a4.033,4.033,0,0,0,.65,2.582,2.564,2.564,0,0,0,2.083.778,2.223,2.223,0,0,0,1.877-.9,4.026,4.026,0,0,0,.678-2.476,3.878,3.878,0,0,0-.678-2.457A2.3,2.3,0,0,0,1590.577,1958.5Z" fill="#00223d"/>
        <path id="Trazado_9166" data-name="Trazado 9166" d="M1598.463,1966.114h-1.4v-12.156h1.4Z" fill="#00223d"/>
        <path id="Trazado_9167" data-name="Trazado 9167" d="M1601.314,1955.232a.828.828,0,0,1,.236-.653.926.926,0,0,1,1.172,0,.812.812,0,0,1,.245.649.823.823,0,0,1-.245.652.854.854,0,0,1-.582.215.781.781,0,0,1-.826-.867Zm1.518,10.882h-1.4v-8.562h1.4Z" fill="#00223d"/>
        <path id="Trazado_9168" data-name="Trazado 9168" d="M1617.584,1966.114v-5.57a2.193,2.193,0,0,0-.473-1.535,1.906,1.906,0,0,0-1.467-.512,2.468,2.468,0,0,0-1.932.7,3.129,3.129,0,0,0-.624,2.14v4.781h-1.4v-5.57a2.2,2.2,0,0,0-.472-1.535,1.919,1.919,0,0,0-1.476-.512,2.377,2.377,0,0,0-1.928.731,3.733,3.733,0,0,0-.611,2.394v4.492h-1.4v-8.562h1.139l.227,1.172h.068a2.681,2.681,0,0,1,1.117-.977,3.642,3.642,0,0,1,1.615-.351,2.786,2.786,0,0,1,2.834,1.453h.068a2.863,2.863,0,0,1,1.2-1.063,3.96,3.96,0,0,1,1.788-.39,3.286,3.286,0,0,1,2.349.746,3.178,3.178,0,0,1,.78,2.387v5.585Z" fill="#00223d"/>
        <path id="Trazado_9169" data-name="Trazado 9169" d="M1621.75,1955.232a.825.825,0,0,1,.237-.653.926.926,0,0,1,1.172,0,.812.812,0,0,1,.245.649.823.823,0,0,1-.245.652.856.856,0,0,1-.582.215.782.782,0,0,1-.827-.867Zm1.518,10.882h-1.4v-8.562h1.4Z" fill="#00223d"/>
        <path id="Trazado_9170" data-name="Trazado 9170" d="M1630.142,1966.271a4.432,4.432,0,0,1-3.234-1.157,4.278,4.278,0,0,1-1.185-3.21,4.728,4.728,0,0,1,1.1-3.29,3.789,3.789,0,0,1,2.956-1.218,3.627,3.627,0,0,1,2.75,1.058,3.873,3.873,0,0,1,1.012,2.793v.821h-6.367a3.237,3.237,0,0,0,.822,2.289,2.967,2.967,0,0,0,2.2.781,7.967,7.967,0,0,0,2.952-.578v1.156a7.825,7.825,0,0,1-1.405.426A8.486,8.486,0,0,1,1630.142,1966.271Zm-.379-7.789a2.38,2.38,0,0,0-1.776.672,2.977,2.977,0,0,0-.78,1.859h4.833a2.705,2.705,0,0,0-.591-1.879A2.155,2.155,0,0,0,1629.763,1958.482Z" fill="#00223d"/>
        <path id="Trazado_9171" data-name="Trazado 9171" d="M1642.254,1966.114v-5.539a2.128,2.128,0,0,0-.515-1.562,2.193,2.193,0,0,0-1.61-.516,2.773,2.773,0,0,0-2.126.727,3.47,3.47,0,0,0-.675,2.4v4.492h-1.4v-8.562h1.139l.228,1.172h.067a2.806,2.806,0,0,1,1.206-.981,4.193,4.193,0,0,1,1.729-.347,3.7,3.7,0,0,1,2.514.746,3.035,3.035,0,0,1,.843,2.387v5.585Z" fill="#00223d"/>
        <path id="Trazado_9172" data-name="Trazado 9172" d="M1649.516,1965.2a4.932,4.932,0,0,0,.717-.05,4.862,4.862,0,0,0,.548-.106v.992a2.691,2.691,0,0,1-.67.168,5.339,5.339,0,0,1-.8.067q-2.68,0-2.681-2.617v-5.094h-1.325v-.625l1.325-.539.59-1.828h.809v1.984h2.683v1.008h-2.683v5.039a1.651,1.651,0,0,0,.4,1.187A1.435,1.435,0,0,0,1649.516,1965.2Z" fill="#00223d"/>
        <path id="Trazado_9173" data-name="Trazado 9173" d="M1660.607,1961.825a4.505,4.505,0,0,1-1.139,3.27,4.173,4.173,0,0,1-3.146,1.176,4.429,4.429,0,0,1-2.2-.539,3.665,3.665,0,0,1-1.484-1.547,5.051,5.051,0,0,1-.523-2.36,4.494,4.494,0,0,1,1.13-3.261,4.16,4.16,0,0,1,3.138-1.168,4.063,4.063,0,0,1,3.082,1.195A4.485,4.485,0,0,1,1660.607,1961.825Zm-7.043,0a3.839,3.839,0,0,0,.709,2.5,2.963,2.963,0,0,0,4.171,0,3.824,3.824,0,0,0,.712-2.5,3.766,3.766,0,0,0-.712-2.48,2.6,2.6,0,0,0-2.1-.848,2.555,2.555,0,0,0-2.075.836A3.809,3.809,0,0,0,1653.564,1961.825Z" fill="#00223d"/>
        <path id="Trazado_9174" data-name="Trazado 9174" d="M1666.772,1962.419v-1.187h4.142v1.187Z" fill="#00223d"/>
        <path id="Trazado_9175" data-name="Trazado 9175" d="M1683.557,1963.779a2.094,2.094,0,0,1-.962,1.843,4.788,4.788,0,0,1-2.7.649,6.267,6.267,0,0,1-2.867-.539v-1.2a7.31,7.31,0,0,0,1.429.492,6.41,6.41,0,0,0,1.472.179,3.551,3.551,0,0,0,1.687-.324,1.072,1.072,0,0,0,.122-1.844,7.656,7.656,0,0,0-1.826-.839,10.225,10.225,0,0,1-1.834-.778,2.4,2.4,0,0,1-.81-.754,1.852,1.852,0,0,1-.266-1.007,1.885,1.885,0,0,1,.92-1.653,4.548,4.548,0,0,1,2.522-.6,7.888,7.888,0,0,1,2.918.562l-.5,1.055a7.155,7.155,0,0,0-2.522-.531,3.09,3.09,0,0,0-1.5.289.885.885,0,0,0-.506.8.921.921,0,0,0,.19.586,1.838,1.838,0,0,0,.611.46,14.2,14.2,0,0,0,1.62.633,6.2,6.2,0,0,1,2.222,1.117A1.894,1.894,0,0,1,1683.557,1963.779Z" fill="#00223d"/>
        <path id="Trazado_9176" data-name="Trazado 9176" d="M1691.519,1966.114l-.279-1.218h-.067a3.838,3.838,0,0,1-1.379,1.09,4.506,4.506,0,0,1-1.717.285,3.243,3.243,0,0,1-2.154-.657,2.3,2.3,0,0,1-.781-1.867q0-2.594,4.479-2.718l1.569-.047v-.532a2.058,2.058,0,0,0-.469-1.488,2.017,2.017,0,0,0-1.5-.48,6.474,6.474,0,0,0-2.614.656l-.43-.992a6.882,6.882,0,0,1,1.5-.539,6.975,6.975,0,0,1,1.632-.2,3.713,3.713,0,0,1,2.45.68,2.718,2.718,0,0,1,.8,2.18v5.843Zm-3.163-.914a2.977,2.977,0,0,0,2.053-.664,2.357,2.357,0,0,0,.747-1.859v-.773l-1.4.054a5.435,5.435,0,0,0-2.408.481,1.422,1.422,0,0,0-.738,1.324,1.285,1.285,0,0,0,.46,1.07A2.009,2.009,0,0,0,1688.356,1965.2Z" fill="#00223d"/>
        <path id="Trazado_9177" data-name="Trazado 9177" d="M1701.766,1966.114v-5.539a2.128,2.128,0,0,0-.514-1.562,2.2,2.2,0,0,0-1.611-.516,2.774,2.774,0,0,0-2.126.727,3.476,3.476,0,0,0-.674,2.4v4.492h-1.4v-8.562h1.138l.228,1.172h.067a2.8,2.8,0,0,1,1.207-.981,4.19,4.19,0,0,1,1.729-.347,3.7,3.7,0,0,1,2.513.746,3.035,3.035,0,0,1,.843,2.387v5.585Z" fill="#00223d"/>
        <path id="Trazado_9178" data-name="Trazado 9178" d="M1709.737,1966.271a4.109,4.109,0,0,1-3.108-1.145,4.481,4.481,0,0,1-1.1-3.238,4.621,4.621,0,0,1,1.118-3.32,4.188,4.188,0,0,1,3.184-1.172,6.752,6.752,0,0,1,1.332.133,4.6,4.6,0,0,1,1.046.312l-.43,1.1a7.032,7.032,0,0,0-1.012-.286,4.907,4.907,0,0,0-.97-.113q-2.817,0-2.817,3.328a3.747,3.747,0,0,0,.687,2.422,2.471,2.471,0,0,0,2.037.844,6.665,6.665,0,0,0,2.37-.461v1.148A5.391,5.391,0,0,1,1709.737,1966.271Z" fill="#00223d"/>
        <path id="Trazado_9179" data-name="Trazado 9179" d="M1714.148,1955.232a.829.829,0,0,1,.236-.653.926.926,0,0,1,1.172,0,.812.812,0,0,1,.245.649.823.823,0,0,1-.245.652.854.854,0,0,1-.582.215.781.781,0,0,1-.826-.867Zm1.518,10.882h-1.4v-8.562h1.4Z" fill="#00223d"/>
        <path id="Trazado_9180" data-name="Trazado 9180" d="M1726.614,1961.825a4.505,4.505,0,0,1-1.139,3.27,4.175,4.175,0,0,1-3.146,1.176,4.429,4.429,0,0,1-2.2-.539,3.673,3.673,0,0,1-1.485-1.547,5.065,5.065,0,0,1-.523-2.36,4.494,4.494,0,0,1,1.131-3.261,4.16,4.16,0,0,1,3.137-1.168,4.065,4.065,0,0,1,3.083,1.195A4.485,4.485,0,0,1,1726.614,1961.825Zm-7.043,0a3.844,3.844,0,0,0,.708,2.5,2.963,2.963,0,0,0,4.171,0,3.823,3.823,0,0,0,.713-2.5,3.765,3.765,0,0,0-.713-2.48,2.593,2.593,0,0,0-2.1-.848,2.554,2.554,0,0,0-2.075.836A3.8,3.8,0,0,0,1719.571,1961.825Z" fill="#00223d"/>
        <path id="Trazado_9181" data-name="Trazado 9181" d="M1735.394,1966.114v-5.539a2.128,2.128,0,0,0-.515-1.562,2.2,2.2,0,0,0-1.611-.516,2.772,2.772,0,0,0-2.125.727,3.471,3.471,0,0,0-.675,2.4v4.492h-1.4v-8.562h1.139l.228,1.172h.067a2.806,2.806,0,0,1,1.206-.981,4.19,4.19,0,0,1,1.729-.347,3.694,3.694,0,0,1,2.513.746,3.032,3.032,0,0,1,.844,2.387v5.585Z" fill="#00223d"/>
        <path id="Trazado_9182" data-name="Trazado 9182" d="M1743.575,1966.271a4.432,4.432,0,0,1-3.234-1.157,4.274,4.274,0,0,1-1.186-3.21,4.724,4.724,0,0,1,1.1-3.29,3.788,3.788,0,0,1,2.957-1.218,3.627,3.627,0,0,1,2.749,1.058,3.873,3.873,0,0,1,1.012,2.793v.821h-6.368a3.237,3.237,0,0,0,.823,2.289,2.967,2.967,0,0,0,2.2.781,7.967,7.967,0,0,0,2.952-.578v1.156a7.84,7.84,0,0,1-1.4.426A8.5,8.5,0,0,1,1743.575,1966.271Zm-.379-7.789a2.381,2.381,0,0,0-1.776.672,2.977,2.977,0,0,0-.78,1.859h4.833a2.71,2.71,0,0,0-.59-1.879A2.16,2.16,0,0,0,1743.2,1958.482Z" fill="#00223d"/>
        <path id="Trazado_9183" data-name="Trazado 9183" d="M1755.324,1963.779a2.093,2.093,0,0,1-.961,1.843,4.79,4.79,0,0,1-2.7.649,6.272,6.272,0,0,1-2.868-.539v-1.2a7.322,7.322,0,0,0,1.43.492,6.4,6.4,0,0,0,1.471.179,3.552,3.552,0,0,0,1.687-.324,1.072,1.072,0,0,0,.123-1.844,7.647,7.647,0,0,0-1.827-.839,10.255,10.255,0,0,1-1.834-.778,2.406,2.406,0,0,1-.81-.754,1.851,1.851,0,0,1-.265-1.007,1.884,1.884,0,0,1,.919-1.653,4.55,4.55,0,0,1,2.522-.6,7.883,7.883,0,0,1,2.918.562l-.5,1.055a7.16,7.16,0,0,0-2.522-.531,3.092,3.092,0,0,0-1.5.289.885.885,0,0,0-.506.8.921.921,0,0,0,.19.586,1.85,1.85,0,0,0,.611.46,14.185,14.185,0,0,0,1.62.633,6.2,6.2,0,0,1,2.222,1.117A1.894,1.894,0,0,1,1755.324,1963.779Z" fill="#00223d"/>
      </g>
    </g>
  </g>
</svg>
