<svg xmlns="http://www.w3.org/2000/svg" xmlns:xlink="http://www.w3.org/1999/xlink" width="192" height="267" viewBox="0 0 192 267">
  <defs>
    <clipPath id="clip-path">
      <rect id="SVGID" width="192" height="267" fill="none"/>
    </clipPath>
  </defs>
  <g id="Grupo_9213" data-name="Grupo 9213" transform="translate(-188 -1823)">
    <g id="Grupo_9211" data-name="Grupo 9211" transform="translate(-80.576 -902.73)">
      <g id="Grupo_9208" data-name="Grupo 9208" transform="translate(268.576 2725.73)">
        <g id="Grupo_9207" data-name="Grupo 9207" clip-path="url(#clip-path)">
          <path id="Trazado_9225" data-name="Trazado 9225" d="M445.51,3023.86l-6.32-9.484a4.337,4.337,0,0,1-.27-4.342l3.21-6.418L353.8,2997.98s-7,8.1-5.6,9.364c4.671,4.22,10.1,7.437,15.391,10.826,9.194,5.891,19.305,11.921,23.451,22.623.819,2.109.861,5.611,2.069,7.872a70.181,70.181,0,0,0,11.478-.712c5.442-.714,10.894-1.413,16.325-2.193,3.761-.539,8.008-.895,10.984,1.964,3.253,3.125,3.323,8.226,1.98,12.253a2.514,2.514,0,0,1-1.931,1.745c-.329,1-.7,1.989-1.065,2.973-.2.547-.387,1.054-.525,1.535a30.471,30.471,0,0,0,7.233,4.057c1.734.628,5.7-1.937,5.7-1.937l6.9-41.372a4.34,4.34,0,0,0-.671-3.117Zm0,0" transform="translate(-292.752 -2808.589)" fill="#e5646e"/>
          <path id="Trazado_9226" data-name="Trazado 9226" d="M425.948,3066.194l3.081-6.166a11.03,11.03,0,0,0-9.864-15.962H386.415l-1.907-7.628a17.342,17.342,0,0,0-6.877-10l-30.541-21.38-13.652-2.332-5.6,3.712a8.663,8.663,0,0,1,7.712,1.119l37.113,25.981a8.65,8.65,0,0,1,3.438,5l2.728,10.913a4.337,4.337,0,0,0,4.206,3.283h36.134a2.362,2.362,0,0,1,2.111,3.418l-5.019,10.04a4.333,4.333,0,0,0,1.937,5.816l9.642,4.818a3.151,3.151,0,0,0,4.519-2.3l.79-4.734Zm0,0" transform="translate(-286.611 -2810.034)" fill="#db4655"/>
        </g>
      </g>
      <path id="Trazado_9227" data-name="Trazado 9227" d="M458.476,2850.625a13,13,0,0,1-.415-6.66l2.62-13.1a4.331,4.331,0,0,0-4.25-5.182H429.365a4.336,4.336,0,0,1-3.606-1.932l-6.1-9.142a4.332,4.332,0,0,0-3.606-1.929H387.531a4.335,4.335,0,0,1-4.3-3.8l-3.386-27.079a4.334,4.334,0,0,0-4.3-3.8h-1.077a4.335,4.335,0,0,1-3.606-6.74l19.041-28.562a26.086,26.086,0,0,1,6.033-6.378l2.216-1.661-1.342-8.044c-6.682-.146-12.742,1.72-17.459,6.984-5.147,5.741-8.986,12.016-16.5,14.991-6.408,2.541-12.935,1.133-19.551,2.134-6.968,1.048-11.286,8.66-14,14.56a50.463,50.463,0,0,0-2.027,5.271,12.951,12.951,0,0,1-1.435,4.644c-2,6.693-4.06,13.385-9.635,18.073a15.133,15.133,0,0,1-6.538,3.329,16.466,16.466,0,0,1-4.182.334,10.855,10.855,0,0,1-1.832-.177c-.356-.079-.8-.01-.742-.079-2.557,1.454-3.47,7.318-3.965,9.712a23.038,23.038,0,0,0,.734,12.114c2.013,6.138,4.016,11.873,4.024,18.065,1.353,4.021,1.146,8.783.913,12.774-.294,5-1.223,10.014-1.37,15.03a10.606,10.606,0,0,1,.052,1.272q7.491,1.5,14.89,3.394a2.323,2.323,0,0,1,1.706,1.473,12.4,12.4,0,0,1,2.924,1.8,12.932,12.932,0,0,0,6.522,2.75c5.318.818,10.929.415,16.288.348,21.142-.269,42.33-.25,63.451-1.174l54.085-9.565Zm0,0" transform="translate(-9.093 -0.27)" fill="#ffe07d"/>
      <g id="Grupo_9210" data-name="Grupo 9210" transform="translate(268.576 2725.73)">
        <g id="Grupo_9209" data-name="Grupo 9209" clip-path="url(#clip-path)">
          <path id="Trazado_9228" data-name="Trazado 9228" d="M394.548,2725.73h-7.614a13.014,13.014,0,0,0-9.2,3.807l-14.054,14.054a12.994,12.994,0,0,1-9.194,3.809h-10.9a13.013,13.013,0,0,0-9.2,3.807l-6.655,6.655a8.67,8.67,0,0,0-2.538,6.131v4.848a13.011,13.011,0,0,1-2.847,8.122l-12.3,15.373a4.335,4.335,0,0,1-5.323,1.171l-1.322-.663a4.334,4.334,0,0,0-5.962,2.268l-5.472,13.682a8.665,8.665,0,0,0,.3,7.095l4.182,8.365a26.009,26.009,0,0,1,2.745,11.631v26.864q0,.832-.065,1.661l7.367,1.815,1.321-1.826c.029-.549.046-1.1.046-1.649v-26.864a34.876,34.876,0,0,0-3.66-15.508l-4.183-8.362,3.872-9.685a12.981,12.981,0,0,0,12.927-4.579l12.3-15.372a21.747,21.747,0,0,0,4.747-13.538v-4.848l6.655-6.655a4.3,4.3,0,0,1,3.066-1.272h10.9a21.521,21.521,0,0,0,15.32-6.345l14.055-14.054a4.309,4.309,0,0,1,3.066-1.269h9.059l1.158-.867a4.335,4.335,0,0,0-2.6-7.8Zm0,0" transform="translate(-275.51 -2725.73)" fill="#ffd064"/>
          <path id="Trazado_9229" data-name="Trazado 9229" d="M461.754,2964.914l-6.362-19.086a8.662,8.662,0,0,1,.47-6.62l1.123-2.244a8.68,8.68,0,0,0,.47-6.617l-1.756-5.264-153.18-.016c-4.435,5.573-5.038,12.269-11.489,14.8-.413.652-.832,1.3-1.245,1.951-2.092,3.28-3.85,6.707-6.289,9.759a73.2,73.2,0,0,1-6.424,6.467c-1.325,1.3-4,3.373-2.856,5.418,1.1,1.959,3.66,3.087,5.6,3.984,2.433,1.122,4.995,1.94,7.52,2.826,5.739,2.014,11.165,5.087,14.956,9.921l.016.017,0,0c.138.174.277.345.41.527a2.076,2.076,0,0,1,.392,1.726c1.483.834,2.2.489,3.961-.481,3.606-1.989,7.087-3.6,11.321-2.785,2.024.391,12.291,2.233,12.291,2.233h88.9l3.363-6.73a4.324,4.324,0,0,0,0-3.878l-.584-1.168a4.334,4.334,0,0,1,3.4-6.248l23.313-2.589a4.333,4.333,0,0,1,4.506,2.706l1.524,3.823a3.541,3.541,0,0,0,6.65-2.429Zm0,0" transform="translate(-270.208 -2786.397)" fill="#6987eb"/>
          <path id="Trazado_9230" data-name="Trazado 9230" d="M290.11,2950.066l6.622-11.033a30.394,30.394,0,0,0,4.274-13.94h-8.684a21.674,21.674,0,0,1-3.025,9.481l-6.619,11.033a51.979,51.979,0,0,1-7.821,10.016l-4.622,4.623a4.333,4.333,0,0,0,.766,6.739l26.59,16.62a8.677,8.677,0,0,0,7.337.873l4.99-1.663a26.573,26.573,0,0,1,8.472-1.38h10.78l-6.57-4.6a17.317,17.317,0,0,0-15.424-2.244l-4.989,1.662-21.971-13.731.769-.769a60.725,60.725,0,0,0,9.126-11.687Zm0,0" transform="translate(-268.694 -2786.406)" fill="#5069d2"/>
        </g>
      </g>
    </g>
    <g id="Grupo_9212" data-name="Grupo 9212" transform="translate(-102 582)">
      <path id="Trazado_8973" data-name="Trazado 8973" d="M114.5,99.828c0,3.989,1.33,5.319,1.33,5.319h-7.978V99.828h-13.3v5.319H67.964a5.319,5.319,0,1,1,0-10.638h47.869s-1.33,1.33-1.33,5.319Zm0,0" transform="translate(364.63 1165.821)" fill="#f5efca"/>
      <path id="Trazado_8974" data-name="Trazado 8974" d="M115.833,125.863v50.528a1.33,1.33,0,0,1-1.33,1.33H69.294v-3.989a2.669,2.669,0,0,0-2.66-2.66V155.116h9.308v1.33a1.33,1.33,0,0,0,1.33,1.33h2.659a3.989,3.989,0,0,0,3.989-3.989V135.171a3.989,3.989,0,0,0-3.989-3.99H77.272a1.33,1.33,0,0,0-1.33,1.33v1.33h-13.3v-13.3a5.319,5.319,0,0,0,5.319,5.319H94.558v27.923l6.649-6.649,6.649,6.649V125.863Zm0,0" transform="translate(364.63 1145.105)" fill="#e64c3c"/>
      <path id="Trazado_8975" data-name="Trazado 8975" d="M91.339,116.7H90.01a1.33,1.33,0,0,1,0-2.659h1.329a1.33,1.33,0,0,1,0,2.659Zm0,0" transform="translate(343.914 1150.283)" fill="#cbb292"/>
      <path id="Trazado_8976" data-name="Trazado 8976" d="M135.846,116.7h-13.3a1.33,1.33,0,1,1,0-2.659h13.3a1.33,1.33,0,0,1,0,2.659Zm0,0" transform="translate(318.023 1150.283)" fill="#cbb292"/>
      <rect id="Rect치ngulo_6091" data-name="Rect치ngulo 6091" width="7.978" height="23.935" transform="translate(423.286 1296.232)" fill="#f29c1f"/>
      <path id="Trazado_8977" data-name="Trazado 8977" d="M43.4,370.524v11.967a6.649,6.649,0,0,1-13.3,0V370.524a2.668,2.668,0,0,1,2.659-2.66h7.978a2.669,2.669,0,0,1,2.66,2.66Zm0,0" transform="translate(390.525 948.313)" fill="#805333"/>
      <path id="Trazado_8978" data-name="Trazado 8978" d="M168.111,322.306h13.3a1.327,1.327,0,0,1,1.33,1.329v2.66a1.327,1.327,0,0,1-1.33,1.33h-13.3a1.327,1.327,0,0,1-1.33-1.33v-2.66a1.327,1.327,0,0,1,1.33-1.329Zm0,0" transform="translate(281.77 984.563)" fill="#f5efca"/>
      <path id="Trazado_8979" data-name="Trazado 8979" d="M185.256,370.524H174.619a1.33,1.33,0,0,1,0-2.66h10.637a1.33,1.33,0,0,1,0,2.66Zm0,0" transform="translate(276.591 948.313)" fill="#fff"/>
      <path id="Trazado_8980" data-name="Trazado 8980" d="M115.035,90.66h.958a1.362,1.362,0,0,0,.944-1.835A1.313,1.313,0,0,0,115.713,88H69.294a6.649,6.649,0,1,0,0,13.3h46.42a1.33,1.33,0,0,0,1.2-.8,1.306,1.306,0,0,0-1.2-1.848v-.014H69.294a3.989,3.989,0,1,1,0-7.978Zm0,0" transform="translate(364.63 1170.999)" fill="#c03a2b"/>
      <path id="Trazado_8981" data-name="Trazado 8981" d="M232.145,121.874v31.913l-6.649-6.649-6.649,6.649V121.874a1.33,1.33,0,0,1,1.329-1.33h10.637a1.33,1.33,0,0,1,1.33,1.33Zm0,0" transform="translate(240.34 1145.105)" fill="#f3d55b"/>
      <rect id="Rect치ngulo_6092" data-name="Rect치ngulo 6092" width="31.913" height="21.275" transform="translate(411.319 1278.946)" fill="#a56a43"/>
      <path id="Trazado_8982" data-name="Trazado 8982" d="M19.745,207.812h-1.33a1.33,1.33,0,0,1,0-2.659h1.33a1.33,1.33,0,0,1,0,2.659Zm0,0" transform="translate(400.882 1077.781)" fill="#cf976a"/>
      <path id="Trazado_8983" data-name="Trazado 8983" d="M60.266,207.812H50.959a1.33,1.33,0,1,1,0-2.659h9.308a1.33,1.33,0,1,1,0,2.659Zm0,0" transform="translate(374.987 1077.781)" fill="#cf976a"/>
      <path id="Trazado_8984" data-name="Trazado 8984" d="M-33.514,173.94v23.935a1.33,1.33,0,0,1-1.33,1.33H-37.5a3.989,3.989,0,0,1-3.989-3.989V176.6a3.989,3.989,0,0,1,3.989-3.99h2.659a1.33,1.33,0,0,1,1.33,1.33Zm0,0" transform="translate(447.492 1103.676)" fill="#cb8252"/>
      <path id="Trazado_8985" data-name="Trazado 8985" d="M135.708,176.6v18.616a3.989,3.989,0,0,1-3.989,3.989H129.06a1.33,1.33,0,0,1-1.33-1.33V173.94a1.33,1.33,0,0,1,1.33-1.33h2.659a3.989,3.989,0,0,1,3.989,3.99Zm0,0" transform="translate(312.843 1103.676)" fill="#cb8252"/>
    </g>
  </g>
</svg>
