<svg id="Grupo_9226" data-name="Grupo 9226" xmlns="http://www.w3.org/2000/svg" width="156.279" height="163.296" viewBox="0 0 156.279 163.296">
  <path id="Trazado_9289" data-name="Trazado 9289" d="M714.482,3058.772a78.151,78.151,0,0,0-11.851,153.9,44.355,44.355,0,0,1,22.339,1.167l2.219.7a78.184,78.184,0,0,0,70.171-62.119,10.8,10.8,0,0,1,1.208-10.659l.232-.317c.1-1.583.15-3.177.15-4.784A78.15,78.15,0,0,0,714.482,3058.772Z" transform="translate(-642.671 -3051.506)" fill="#99e6fc"/>
  <path id="Trazado_9290" data-name="Trazado 9290" d="M831.577,3175.314H843.53l-8.3-8.3a4.4,4.4,0,1,1,6.221-6.221l10.008,10.008a24.238,24.238,0,0,0-31.124-27.083,3.312,3.312,0,0,0-2.18,2.18,24.256,24.256,0,0,0,13.424,29.419Z" transform="translate(-712.568 -3085.214)" fill="#66cc9a"/>
  <path id="Trazado_9291" data-name="Trazado 9291" d="M831.577,3175.444H843.53l-1.935-1.935a24.237,24.237,0,0,1-17.1-30.563,24.3,24.3,0,0,0-4.167.9,3.311,3.311,0,0,0-2.179,2.18,24.253,24.253,0,0,0,13.424,29.419Z" transform="translate(-712.567 -3085.344)" fill="#07b27b"/>
  <g id="Grupo_9218" data-name="Grupo 9218" transform="translate(90.897 97.76)">
    <path id="Trazado_9292" data-name="Trazado 9292" d="M818.759,3226.515a4.4,4.4,0,0,1-6.221-6.221l10.008-10.008a24.239,24.239,0,0,0-27.083,31.125,3.312,3.312,0,0,0,2.18,2.18,24.238,24.238,0,0,0,31.125-27.084Z" transform="translate(-794.37 -3209.965)" fill="#66cc9a"/>
    <path id="Trazado_9293" data-name="Trazado 9293" d="M818.905,3213.926l3.641-3.641a24.239,24.239,0,0,0-27.083,31.125,3.312,3.312,0,0,0,2.18,2.18,24.283,24.283,0,0,0,4.167.9,24.237,24.237,0,0,1,17.1-30.562Z" transform="translate(-794.37 -3209.965)" fill="#07b27b"/>
  </g>
  <path id="Trazado_9294" data-name="Trazado 9294" d="M679.176,3174.248h8.395l-9.9-9.9a4.4,4.4,0,0,1,6.221-6.222l6.825,6.825.061-.286a33.881,33.881,0,0,1,2.465-7.3,24.242,24.242,0,0,0-30.468-16.315,3.311,3.311,0,0,0-2.18,2.18,24.238,24.238,0,0,0,18.577,31.013Z" transform="translate(-649.418 -3084.147)" fill="#66cc9a"/>
  <path id="Trazado_9295" data-name="Trazado 9295" d="M679.175,3174.377h8.395l-3.529-3.53a24.235,24.235,0,0,1-17.1-30.562,24.342,24.342,0,0,0-4.167.9,3.311,3.311,0,0,0-2.179,2.18,24.237,24.237,0,0,0,18.577,31.014Z" transform="translate(-649.418 -3084.277)" fill="#07b27b"/>
  <g id="Grupo_9219" data-name="Grupo 9219" transform="translate(9.887 72.534)">
    <path id="Trazado_9296" data-name="Trazado 9296" d="M848.369,3186.339l-14.476-14.476a4.558,4.558,0,0,0-6.447,6.447l8.03,8.03H803.391a44.553,44.553,0,0,1-5.466,10.976h10.132a24.272,24.272,0,0,1,15.718-2.866l-9.924,9.924a4.559,4.559,0,0,0,6.447,6.447l13.505-13.505h25.785a78.137,78.137,0,0,0,1.44-10.976Z" transform="translate(-714.785 -3168.933)" fill="#d6694b"/>
    <path id="Trazado_9297" data-name="Trazado 9297" d="M689.9,3182.85a33.345,33.345,0,0,1,.725-6.9l-6.752-6.751a4.558,4.558,0,0,0-6.447,6.446l9.625,9.625H664.659a5.488,5.488,0,1,0,0,10.976H689.9Z" transform="translate(-659.171 -3167.866)" fill="#d6694b"/>
  </g>
  <path id="Trazado_9298" data-name="Trazado 9298" d="M752.517,3243.957a52.648,52.648,0,0,1-5.472,22.3,52.063,52.063,0,0,1-4.305,7.127v13.3a78.051,78.051,0,0,0,11.96,1.877v-45.379c-.721.276-1.448.536-2.182.774Z" transform="translate(-682.779 -3125.519)" fill="#fd4755"/>
  <path id="Trazado_9299" data-name="Trazado 9299" d="M762.433,3238.3v45.313c2.1.169,4.231.26,6.379.26s4.275-.09,6.378-.26v-52.763A44.613,44.613,0,0,1,762.433,3238.3Z" transform="translate(-690.672 -3120.576)" fill="#fb2b3a"/>
  <g id="Grupo_9225" data-name="Grupo 9225" transform="translate(40.456 0)">
    <path id="Trazado_9300" data-name="Trazado 9300" d="M780.906,3082.223a19.847,19.847,0,0,1-32.3-16.915,19.66,19.66,0,0,1,18.344-18.284c.481-.034.967-.051,1.446-.051v-.16H758.58a22.551,22.551,0,0,0-22.485,22.485v32.555A30.18,30.18,0,0,1,748.98,3091.5a1.466,1.466,0,0,1,2.035,1.35l.017,38.606a47.672,47.672,0,0,1-1.159,10.454l0,.017v22.261c0,.406-.008.812-.018,1.218a45.145,45.145,0,0,0,31.214-42.8v-40.381Z" transform="translate(-720.572 -3046.813)" fill="#e41f2d"/>
    <path id="Trazado_9301" data-name="Trazado 9301" d="M768.581,3046.813h-10a22.551,22.551,0,0,0-22.485,22.485v32.555a30.383,30.383,0,0,1,6.379-6.586v-26.129a19.208,19.208,0,0,1,14.021-18.431,19.924,19.924,0,0,1,10.445-3.843q.828-.058,1.642-.05Z" transform="translate(-720.572 -3046.813)" fill="#c41926"/>
    <path id="Trazado_9302" data-name="Trazado 9302" d="M736.721,3221.038a52.551,52.551,0,0,1-16.093,29.05v17.938a1.478,1.478,0,0,0,2.216,1.28,1.546,1.546,0,0,0,.153-.1,52.441,52.441,0,0,0,20.832-41.886v-23a46.44,46.44,0,0,1-7.108,16.719Z" transform="translate(-714.373 -3109.943)" fill="#08a9f1"/>
    <path id="Trazado_9303" data-name="Trazado 9303" d="M720.628,3275.987v17.938a1.478,1.478,0,0,0,2.216,1.28,1.638,1.638,0,0,0,.153-.1,52.124,52.124,0,0,0,4.009-3.369v-22.8a53.31,53.31,0,0,1-6.378,7.048Z" transform="translate(-714.373 -3135.842)" fill="#0290cf"/>
    <g id="Grupo_9221" data-name="Grupo 9221" transform="translate(27.818)">
      <path id="Trazado_9304" data-name="Trazado 9304" d="M810.881,3084.8v10.45a16.6,16.6,0,0,0,13.68-10.45Z" transform="translate(-778.365 -3062.038)" fill="#fb8801"/>
      <path id="Trazado_9305" data-name="Trazado 9305" d="M828.269,3071.923a16.588,16.588,0,0,0-16.46-14.537c-.316,0-.63.011-.943.028,0,.052.01.1.01.155v16.4h15.572a1.831,1.831,0,0,0,1.821-2.049Z" transform="translate(-778.359 -3051.051)" fill="#fea613"/>
      <path id="Trazado_9306" data-name="Trazado 9306" d="M828.269,3071.923a16.588,16.588,0,0,0-16.46-14.537c-.316,0-.63.011-.943.029,0,.051.01.1.01.154v3.806l.136,0a16.59,16.59,0,0,1,16.071,12.485A1.828,1.828,0,0,0,828.269,3071.923Z" transform="translate(-778.359 -3051.051)" fill="#fe9901"/>
      <g id="Grupo_9220" data-name="Grupo 9220">
        <path id="Trazado_9307" data-name="Trazado 9307" d="M787.544,3050.058a20.006,20.006,0,1,0,1.747,32.241v-28.967A3.9,3.9,0,0,0,787.544,3050.058Z" transform="translate(-756.615 -3046.813)" fill="#fedba6"/>
      </g>
      <path id="Trazado_9308" data-name="Trazado 9308" d="M783,3084.174a20.028,20.028,0,0,1-12.041-36.014,20.01,20.01,0,1,0,17.653,35.211A19.984,19.984,0,0,1,783,3084.174Z" transform="translate(-756.615 -3047.353)" fill="#fece85"/>
    </g>
    <g id="Grupo_9223" data-name="Grupo 9223" transform="translate(45.373 9.844)">
      <g id="Grupo_9222" data-name="Grupo 9222">
        <circle id="Elipse_150" data-name="Elipse 150" cx="5.883" cy="5.883" r="5.883" fill="#8c3d27"/>
      </g>
    </g>
    <path id="Trazado_9309" data-name="Trazado 9309" d="M722.5,3209.841a1.392,1.392,0,0,1-.167.112,1.47,1.47,0,0,1-.733.2,1.466,1.466,0,0,1-1.466-1.466V3160.5a29.777,29.777,0,0,1,1.995-10.7,34.1,34.1,0,0,0-11.94,25.81v54.881a1.493,1.493,0,0,0,2.239,1.293,1.649,1.649,0,0,0,.154-.1,52.837,52.837,0,0,0,20.182-32.836,47.127,47.127,0,0,1-10.265,10.994Z" transform="translate(-710.189 -3088.091)" fill="#fd4755"/>
    <path id="Trazado_9310" data-name="Trazado 9310" d="M720.134,3160.5a29.777,29.777,0,0,1,1.995-10.7,34.1,34.1,0,0,0-11.94,25.81v54.882a1.493,1.493,0,0,0,2.239,1.293,1.52,1.52,0,0,0,.154-.1c1.078-.815,2.122-1.677,3.135-2.573V3178.8a33.839,33.839,0,0,1,4.417-16.667V3160.5Z" transform="translate(-710.189 -3088.091)" fill="#fb2b3a"/>
    <g id="Grupo_9224" data-name="Grupo 9224" transform="translate(9.785 44.411)">
      <path id="Trazado_9311" data-name="Trazado 9311" d="M728.958,3198.521a1.625,1.625,0,0,1-2.437-1.408v-48.187a30.374,30.374,0,0,1,18.561-27.867,1.624,1.624,0,0,1,2.256,1.5l.017,38.607a46.838,46.838,0,0,1-18.212,37.234,1.563,1.563,0,0,1-.184.125Z" transform="translate(-726.52 -3120.931)" fill="#fea613"/>
    </g>
    <path id="Trazado_9312" data-name="Trazado 9312" d="M732.9,3148.926a30.364,30.364,0,0,1,14.438-25.74v-.631a1.625,1.625,0,0,0-2.257-1.5,30.376,30.376,0,0,0-18.56,27.867v48.187a1.625,1.625,0,0,0,2.437,1.408,1.515,1.515,0,0,0,.185-.125,48.12,48.12,0,0,0,3.757-3.248Z" transform="translate(-716.735 -3076.52)" fill="#fe9901"/>
  </g>
</svg>
