<svg xmlns="http://www.w3.org/2000/svg" width="1205.705" height="434.548" viewBox="0 0 1205.705 434.548">
  <g id="Grupo_9287" data-name="Grupo 9287" transform="translate(-1535.121 -4955.548)">
    <path id="Trazado_9537" data-name="Trazado 9537" d="M1699.24,5283.913h0A164.113,164.113,0,1,1,1859.468,5084.3l19.594,1.383a2.8,2.8,0,0,1,1.8,4.752l-36.872,37.474a2.8,2.8,0,0,1-3.94.047l-44.617-43.228a2.8,2.8,0,0,1,2.144-4.8l17.6,1.241a122.2,122.2,0,1,0-130.99,159.908,17.228,17.228,0,0,1,15.057,17.131Z" fill="#ffc000" fill-rule="evenodd"/>
    <path id="Trazado_9538" data-name="Trazado 9538" d="M1802.446,5109.723l29.658,29.662a122.289,122.289,0,1,0,202.488,125.133l-17.335,1.223a2.9,2.9,0,0,1-2.222-4.976l44.378-43a2.9,2.9,0,0,1,4.086.048l36.674,37.273a2.9,2.9,0,0,1-1.863,4.928l-19.39,1.368h0a164.235,164.235,0,1,1-276.474-151.662Z" fill="#e0b321" fill-rule="evenodd"/>
    <path id="Trazado_9539" data-name="Trazado 9539" d="M2023,5235.848h0a164.113,164.113,0,1,1,276.269-151.55l20.406,1.441a2.422,2.422,0,0,1,1.556,4.115l-37.7,38.318a2.422,2.422,0,0,1-3.412.04l-45.622-44.2a2.422,2.422,0,0,1,1.856-4.156l18.624,1.314a122.2,122.2,0,1,0-202.337,125.041Z" fill="#a19962" fill-rule="evenodd"/>
    <path id="Trazado_9540" data-name="Trazado 9540" d="M2242.756,5109.723l29.637,29.662a122.241,122.241,0,1,0,202.337,125.133l-15.3,1.08a3.639,3.639,0,0,1-2.789-6.243L2499,5218.28a3.64,3.64,0,0,1,5.128.062l35.009,35.606a3.639,3.639,0,0,1-2.339,6.182l-17.777,1.255h0a164.139,164.139,0,1,1-276.269-151.662Z" fill="#627fa2" fill-rule="evenodd"/>
    <path id="Trazado_9541" data-name="Trazado 9541" d="M2460.721,5235.511a164.21,164.21,0,1,1,115.994,47.976v-17.752a26.491,26.491,0,0,1,21.949-25.989,122.308,122.308,0,1,0-108.4-33.777Z" fill="#4372c3" fill-rule="evenodd"/>
    <g id="Grupo_9278" data-name="Grupo 9278">
      <g id="Grupo_9277" data-name="Grupo 9277">
        <path id="Trazado_9542" data-name="Trazado 9542" d="M1631.573,5128.329h-9.022v-14.991h9.022v1.548h-7.14v4.83h6.709v1.538h-6.709v5.516h7.14Z" fill="#00223d"/>
        <path id="Trazado_9543" data-name="Trazado 9543" d="M1636.721,5128.329h-1.838v-15.955h1.838Z" fill="#00223d"/>
        <path id="Trazado_9544" data-name="Trazado 9544" d="M1640.463,5114.045a1.084,1.084,0,0,1,.309-.856,1.216,1.216,0,0,1,1.539,0,1.064,1.064,0,0,1,.321.851,1.077,1.077,0,0,1-.321.856,1.19,1.19,0,0,1-1.539,0A1.1,1.1,0,0,1,1640.463,5114.045Zm1.992,14.284h-1.838v-11.238h1.838Z" fill="#00223d"/>
        <path id="Trazado_9545" data-name="Trazado 9545" d="M1661.817,5128.329v-7.311a2.878,2.878,0,0,0-.621-2.015,2.5,2.5,0,0,0-1.926-.672,3.233,3.233,0,0,0-2.534.913,4.1,4.1,0,0,0-.82,2.809v6.276h-1.837v-7.311a2.882,2.882,0,0,0-.62-2.015,2.52,2.52,0,0,0-1.938-.672,3.116,3.116,0,0,0-2.529.959,4.9,4.9,0,0,0-.8,3.143v5.9h-1.837v-11.238h1.494l.3,1.538h.089a3.51,3.51,0,0,1,1.466-1.282,4.769,4.769,0,0,1,2.12-.462q2.846,0,3.72,1.908h.088a3.764,3.764,0,0,1,1.572-1.4,5.2,5.2,0,0,1,2.347-.513,4.306,4.306,0,0,1,3.083.98,4.169,4.169,0,0,1,1.024,3.132v7.332Z" fill="#00223d"/>
        <path id="Trazado_9546" data-name="Trazado 9546" d="M1667.285,5114.045a1.08,1.08,0,0,1,.31-.856,1.216,1.216,0,0,1,1.539,0,1.064,1.064,0,0,1,.321.851,1.077,1.077,0,0,1-.321.856,1.115,1.115,0,0,1-.764.282,1.025,1.025,0,0,1-1.085-1.138Zm1.993,14.284h-1.838v-11.238h1.838Z" fill="#00223d"/>
        <path id="Trazado_9547" data-name="Trazado 9547" d="M1681.477,5128.329v-7.27a2.79,2.79,0,0,0-.676-2.051,2.883,2.883,0,0,0-2.114-.677,3.639,3.639,0,0,0-2.789.954,4.555,4.555,0,0,0-.886,3.148v5.9h-1.837v-11.238h1.494l.3,1.538h.088a3.681,3.681,0,0,1,1.583-1.287,5.5,5.5,0,0,1,2.27-.457,4.843,4.843,0,0,1,3.3.98,3.978,3.978,0,0,1,1.108,3.132v7.332Z" fill="#00223d"/>
        <path id="Trazado_9548" data-name="Trazado 9548" d="M1694.55,5128.329l-.365-1.6h-.088a5.051,5.051,0,0,1-1.81,1.431,5.919,5.919,0,0,1-2.253.374,4.259,4.259,0,0,1-2.828-.861,3.026,3.026,0,0,1-1.025-2.451q0-3.405,5.879-3.568l2.059-.062v-.7a2.709,2.709,0,0,0-.615-1.954,2.647,2.647,0,0,0-1.965-.63,8.511,8.511,0,0,0-3.431.861l-.565-1.3a9.042,9.042,0,0,1,1.965-.708,9.147,9.147,0,0,1,2.142-.256,4.874,4.874,0,0,1,3.216.892,3.567,3.567,0,0,1,1.046,2.861v7.67Zm-4.151-1.2a3.913,3.913,0,0,0,2.7-.871,3.1,3.1,0,0,0,.979-2.441V5122.8l-1.837.072a7.122,7.122,0,0,0-3.161.631,1.865,1.865,0,0,0-.968,1.737,1.69,1.69,0,0,0,.6,1.4A2.643,2.643,0,0,0,1690.4,5127.129Z" fill="#00223d"/>
        <path id="Trazado_9549" data-name="Trazado 9549" d="M1704.547,5128.534a5.4,5.4,0,0,1-4.08-1.5,5.886,5.886,0,0,1-1.444-4.251,6.063,6.063,0,0,1,1.466-4.357,5.5,5.5,0,0,1,4.179-1.539,8.946,8.946,0,0,1,1.75.175,6.072,6.072,0,0,1,1.372.41l-.564,1.446a9.1,9.1,0,0,0-1.329-.374,6.383,6.383,0,0,0-1.273-.149q-3.7,0-3.7,4.368a4.918,4.918,0,0,0,.9,3.179,3.244,3.244,0,0,0,2.673,1.107,8.739,8.739,0,0,0,3.111-.6v1.507A7.078,7.078,0,0,1,1704.547,5128.534Z" fill="#00223d"/>
        <path id="Trazado_9550" data-name="Trazado 9550" d="M1710.336,5114.045a1.084,1.084,0,0,1,.31-.856,1.216,1.216,0,0,1,1.539,0,1.064,1.064,0,0,1,.321.851,1.077,1.077,0,0,1-.321.856,1.19,1.19,0,0,1-1.539,0A1.1,1.1,0,0,1,1710.336,5114.045Zm1.993,14.284h-1.838v-11.238h1.838Z" fill="#00223d"/>
        <path id="Trazado_9551" data-name="Trazado 9551" d="M1726.7,5122.7a5.916,5.916,0,0,1-1.495,4.292,5.478,5.478,0,0,1-4.129,1.543,5.8,5.8,0,0,1-2.889-.708,4.8,4.8,0,0,1-1.948-2.03,6.629,6.629,0,0,1-.687-3.1,5.9,5.9,0,0,1,1.484-4.28,5.461,5.461,0,0,1,4.118-1.534,5.337,5.337,0,0,1,4.046,1.569A5.887,5.887,0,0,1,1726.7,5122.7Zm-9.244,0a5.047,5.047,0,0,0,.93,3.282,3.891,3.891,0,0,0,5.474,0,5.019,5.019,0,0,0,.936-3.287,4.941,4.941,0,0,0-.936-3.255,3.4,3.4,0,0,0-2.762-1.113,3.35,3.35,0,0,0-2.723,1.1A4.992,4.992,0,0,0,1717.454,5122.7Zm2.126-7.352q.531-.635,1.145-1.538a17.044,17.044,0,0,0,.969-1.569h2.236v.216a15.553,15.553,0,0,1-1.45,1.64,15.9,15.9,0,0,1-1.672,1.508h-1.228Z" fill="#00223d"/>
        <path id="Trazado_9552" data-name="Trazado 9552" d="M1738.222,5128.329v-7.27a2.794,2.794,0,0,0-.676-2.051,2.884,2.884,0,0,0-2.114-.677,3.643,3.643,0,0,0-2.79.954,4.56,4.56,0,0,0-.885,3.148v5.9h-1.838v-11.238h1.495l.3,1.538h.088a3.675,3.675,0,0,1,1.583-1.287,5.5,5.5,0,0,1,2.27-.457,4.845,4.845,0,0,1,3.3.98,3.982,3.982,0,0,1,1.107,3.132v7.332Z" fill="#00223d"/>
      </g>
    </g>
    <g id="Grupo_9280" data-name="Grupo 9280">
      <g id="Grupo_9279" data-name="Grupo 9279">
        <path id="Trazado_9553" data-name="Trazado 9553" d="M1854.581,5231.859a3.582,3.582,0,0,1-1.55,3.087,7.107,7.107,0,0,1-4.207,1.107,11.277,11.277,0,0,1-4.427-.687v-1.682a12.764,12.764,0,0,0,4.494.841,4.976,4.976,0,0,0,2.834-.661,2.117,2.117,0,0,0,.952-1.841,2.231,2.231,0,0,0-.338-1.277,3.065,3.065,0,0,0-1.129-.917,16.522,16.522,0,0,0-2.408-.954,7.817,7.817,0,0,1-3.227-1.774,3.74,3.74,0,0,1-.968-2.676,3.239,3.239,0,0,1,1.406-2.758,6.167,6.167,0,0,1,3.719-1.026,11.717,11.717,0,0,1,4.439.821l-.586,1.517a10.728,10.728,0,0,0-3.9-.779,3.99,3.99,0,0,0-2.336.595,1.908,1.908,0,0,0-.841,1.651,2.375,2.375,0,0,0,.31,1.276,2.83,2.83,0,0,0,1.046.913,13.525,13.525,0,0,0,2.253.917,9.127,9.127,0,0,1,3.5,1.805A3.4,3.4,0,0,1,1854.581,5231.859Z" fill="#00223d"/>
        <path id="Trazado_9554" data-name="Trazado 9554" d="M1859.341,5224.61v7.29a2.794,2.794,0,0,0,.675,2.051,2.887,2.887,0,0,0,2.115.677,3.6,3.6,0,0,0,2.784-.964,4.6,4.6,0,0,0,.88-3.148v-5.906h1.838v11.238h-1.517l-.266-1.507h-.1a3.6,3.6,0,0,1-1.567,1.271,5.623,5.623,0,0,1-2.286.441,4.881,4.881,0,0,1-3.315-.974,3.962,3.962,0,0,1-1.1-3.117v-7.352Z" fill="#00223d"/>
        <path id="Trazado_9555" data-name="Trazado 9555" d="M1879.356,5232.782a2.747,2.747,0,0,1-1.263,2.42,6.294,6.294,0,0,1-3.542.851,8.224,8.224,0,0,1-3.764-.708v-1.579a9.541,9.541,0,0,0,1.877.646,8.4,8.4,0,0,0,1.931.236,4.678,4.678,0,0,0,2.215-.425,1.39,1.39,0,0,0,.774-1.3,1.373,1.373,0,0,0-.614-1.123,9.983,9.983,0,0,0-2.4-1.1,13.418,13.418,0,0,1-2.407-1.02,3.164,3.164,0,0,1-1.063-.989,2.426,2.426,0,0,1-.349-1.323,2.471,2.471,0,0,1,1.207-2.169,5.966,5.966,0,0,1,3.31-.794,10.348,10.348,0,0,1,3.83.738l-.653,1.384a9.385,9.385,0,0,0-3.31-.7,4.064,4.064,0,0,0-1.971.379,1.163,1.163,0,0,0-.664,1.046,1.209,1.209,0,0,0,.249.769,2.422,2.422,0,0,0,.8.6,18.664,18.664,0,0,0,2.125.831,8.131,8.131,0,0,1,2.917,1.466A2.482,2.482,0,0,1,1879.356,5232.782Z" fill="#00223d"/>
        <path id="Trazado_9556" data-name="Trazado 9556" d="M1886.263,5234.648a6.4,6.4,0,0,0,.941-.067,6.289,6.289,0,0,0,.72-.138v1.3a3.59,3.59,0,0,1-.88.221,7.127,7.127,0,0,1-1.046.087q-3.521,0-3.521-3.435v-6.686h-1.738v-.82l1.738-.707.775-2.4h1.063v2.6h3.52v1.322h-3.52v6.614a2.167,2.167,0,0,0,.52,1.559A1.885,1.885,0,0,0,1886.263,5234.648Z" fill="#00223d"/>
        <path id="Trazado_9557" data-name="Trazado 9557" d="M1890.193,5221.564a1.08,1.08,0,0,1,.31-.856,1.216,1.216,0,0,1,1.539,0,1.065,1.065,0,0,1,.321.851,1.078,1.078,0,0,1-.321.856,1.19,1.19,0,0,1-1.539,0A1.1,1.1,0,0,1,1890.193,5221.564Zm1.993,14.284h-1.838V5224.61h1.838Z" fill="#00223d"/>
        <path id="Trazado_9558" data-name="Trazado 9558" d="M1900,5234.648a6.4,6.4,0,0,0,.941-.067,6.289,6.289,0,0,0,.72-.138v1.3a3.592,3.592,0,0,1-.88.221,7.128,7.128,0,0,1-1.046.087q-3.52,0-3.521-3.435v-6.686h-1.738v-.82l1.738-.707.775-2.4h1.063v2.6h3.52v1.322h-3.52v6.614a2.166,2.166,0,0,0,.52,1.559A1.885,1.885,0,0,0,1900,5234.648Z" fill="#00223d"/>
        <path id="Trazado_9559" data-name="Trazado 9559" d="M1905.813,5224.61v7.29a2.794,2.794,0,0,0,.675,2.051,2.884,2.884,0,0,0,2.114.677,3.6,3.6,0,0,0,2.785-.964,4.606,4.606,0,0,0,.88-3.148v-5.906h1.837v11.238h-1.516l-.266-1.507h-.1a3.59,3.59,0,0,1-1.566,1.271,5.624,5.624,0,0,1-2.286.441,4.881,4.881,0,0,1-3.315-.974,3.961,3.961,0,0,1-1.1-3.117v-7.352Z" fill="#00223d"/>
        <path id="Trazado_9560" data-name="Trazado 9560" d="M1922.85,5236.053a5.4,5.4,0,0,1-4.08-1.5,5.883,5.883,0,0,1-1.444-4.25,6.064,6.064,0,0,1,1.467-4.358,5.5,5.5,0,0,1,4.178-1.538,8.927,8.927,0,0,1,1.749.174,6.1,6.1,0,0,1,1.373.41l-.564,1.446a9.1,9.1,0,0,0-1.329-.374,6.383,6.383,0,0,0-1.273-.149q-3.7,0-3.7,4.368a4.918,4.918,0,0,0,.9,3.179,3.247,3.247,0,0,0,2.673,1.107,8.749,8.749,0,0,0,3.111-.6v1.507A7.071,7.071,0,0,1,1922.85,5236.053Z" fill="#00223d"/>
        <path id="Trazado_9561" data-name="Trazado 9561" d="M1928.639,5221.564a1.08,1.08,0,0,1,.31-.856,1.216,1.216,0,0,1,1.539,0,1.064,1.064,0,0,1,.321.851,1.078,1.078,0,0,1-.321.856,1.19,1.19,0,0,1-1.539,0A1.1,1.1,0,0,1,1928.639,5221.564Zm1.993,14.284h-1.838V5224.61h1.838Z" fill="#00223d"/>
        <path id="Trazado_9562" data-name="Trazado 9562" d="M1945,5230.218a5.908,5.908,0,0,1-1.495,4.292,5.478,5.478,0,0,1-4.129,1.543,5.8,5.8,0,0,1-2.889-.708,4.8,4.8,0,0,1-1.948-2.03,6.63,6.63,0,0,1-.687-3.1,5.9,5.9,0,0,1,1.484-4.28,5.461,5.461,0,0,1,4.118-1.533,5.333,5.333,0,0,1,4.046,1.568A5.887,5.887,0,0,1,1945,5230.218Zm-9.244,0a5.047,5.047,0,0,0,.93,3.282,3.891,3.891,0,0,0,5.474,0,5.02,5.02,0,0,0,.936-3.287,4.94,4.94,0,0,0-.936-3.255,3.4,3.4,0,0,0-2.762-1.113,3.348,3.348,0,0,0-2.723,1.1A4.987,4.987,0,0,0,1935.757,5230.218Zm2.126-7.352q.531-.635,1.146-1.538a17.317,17.317,0,0,0,.968-1.568h2.236v.215a15.539,15.539,0,0,1-1.45,1.64,16.02,16.02,0,0,1-1.671,1.508h-1.229Z" fill="#00223d"/>
        <path id="Trazado_9563" data-name="Trazado 9563" d="M1956.525,5235.848v-7.27a2.79,2.79,0,0,0-.676-2.051,2.884,2.884,0,0,0-2.114-.677,3.643,3.643,0,0,0-2.79.954,4.559,4.559,0,0,0-.885,3.148v5.9h-1.838V5224.61h1.495l.3,1.538h.089a3.676,3.676,0,0,1,1.583-1.287,5.5,5.5,0,0,1,2.269-.456,4.847,4.847,0,0,1,3.3.979,3.983,3.983,0,0,1,1.107,3.132v7.332Z" fill="#00223d"/>
      </g>
    </g>
    <g id="Grupo_9282" data-name="Grupo 9282">
      <g id="Grupo_9281" data-name="Grupo 9281">
        <path id="Trazado_9564" data-name="Trazado 9564" d="M2067.756,5091.1a5.5,5.5,0,0,0-4.213,1.646,6.324,6.324,0,0,0-1.544,4.507,6.434,6.434,0,0,0,1.489,4.547,5.5,5.5,0,0,0,4.245,1.6,15.563,15.563,0,0,0,3.864-.564v1.528a12.767,12.767,0,0,1-4.151.584,7.322,7.322,0,0,1-5.519-2.009,7.886,7.886,0,0,1-1.943-5.712,8.453,8.453,0,0,1,.936-4.06,6.439,6.439,0,0,1,2.7-2.687,8.7,8.7,0,0,1,4.157-.943,10.72,10.72,0,0,1,4.45.861l-.8,1.5A9.154,9.154,0,0,0,2067.756,5091.1Z" fill="#00223d"/>
        <path id="Trazado_9565" data-name="Trazado 9565" d="M2085.323,5099.119a5.911,5.911,0,0,1-1.494,4.291,5.48,5.48,0,0,1-4.129,1.543,5.8,5.8,0,0,1-2.889-.707,4.808,4.808,0,0,1-1.948-2.03,6.629,6.629,0,0,1-.687-3.1,5.9,5.9,0,0,1,1.483-4.281,5.465,5.465,0,0,1,4.119-1.533,5.333,5.333,0,0,1,4.045,1.569A5.887,5.887,0,0,1,2085.323,5099.119Zm-9.243,0a5.044,5.044,0,0,0,.93,3.281,3.892,3.892,0,0,0,5.474.006,5.023,5.023,0,0,0,.936-3.287,4.937,4.937,0,0,0-.936-3.255,3.4,3.4,0,0,0-2.762-1.113,3.349,3.349,0,0,0-2.723,1.1A4.99,4.99,0,0,0,2076.08,5099.119Z" fill="#00223d"/>
        <path id="Trazado_9566" data-name="Trazado 9566" d="M2096.847,5104.748v-7.27a2.8,2.8,0,0,0-.675-2.051,2.884,2.884,0,0,0-2.114-.676,3.643,3.643,0,0,0-2.79.953,4.555,4.555,0,0,0-.885,3.148v5.9h-1.838V5093.51h1.494l.3,1.538h.089a3.678,3.678,0,0,1,1.583-1.287,5.488,5.488,0,0,1,2.269-.456,4.85,4.85,0,0,1,3.3.979,3.982,3.982,0,0,1,1.107,3.133v7.331Z" fill="#00223d"/>
        <path id="Trazado_9567" data-name="Trazado 9567" d="M2106.379,5103.549a6.417,6.417,0,0,0,.941-.067,6.276,6.276,0,0,0,.719-.139v1.3a3.559,3.559,0,0,1-.88.22,7.177,7.177,0,0,1-1.046.087q-3.52,0-3.52-3.435v-6.685h-1.738v-.821l1.738-.707.775-2.4h1.062v2.6h3.521v1.323h-3.521v6.614a2.165,2.165,0,0,0,.521,1.558A1.883,1.883,0,0,0,2106.379,5103.549Z" fill="#00223d"/>
        <path id="Trazado_9568" data-name="Trazado 9568" d="M2116,5093.305a7.751,7.751,0,0,1,1.451.123l-.255,1.579a6.777,6.777,0,0,0-1.328-.154,3.341,3.341,0,0,0-2.519,1.108,3.862,3.862,0,0,0-1.046,2.758v6.029h-1.837V5093.51h1.516l.211,2.082h.088a5.086,5.086,0,0,1,1.627-1.692A3.868,3.868,0,0,1,2116,5093.305Z" fill="#00223d"/>
        <path id="Trazado_9569" data-name="Trazado 9569" d="M2130.19,5099.119a5.911,5.911,0,0,1-1.494,4.291,5.482,5.482,0,0,1-4.129,1.543,5.81,5.81,0,0,1-2.89-.707,4.82,4.82,0,0,1-1.948-2.03,6.629,6.629,0,0,1-.686-3.1,5.9,5.9,0,0,1,1.483-4.281,5.464,5.464,0,0,1,4.118-1.533,5.333,5.333,0,0,1,4.046,1.569A5.887,5.887,0,0,1,2130.19,5099.119Zm-9.243,0a5.045,5.045,0,0,0,.93,3.281,3.892,3.892,0,0,0,5.474.006,5.028,5.028,0,0,0,.935-3.287,4.942,4.942,0,0,0-.935-3.255,3.405,3.405,0,0,0-2.762-1.113,3.348,3.348,0,0,0-2.723,1.1A4.99,4.99,0,0,0,2120.947,5099.119Z" fill="#00223d"/>
        <path id="Trazado_9570" data-name="Trazado 9570" d="M2135.249,5104.748h-1.837v-15.955h1.837Z" fill="#00223d"/>
        <path id="Trazado_9571" data-name="Trazado 9571" d="M2144.271,5104.953a5.817,5.817,0,0,1-4.245-1.517,5.619,5.619,0,0,1-1.555-4.215,6.2,6.2,0,0,1,1.444-4.316,4.969,4.969,0,0,1,3.88-1.6,4.754,4.754,0,0,1,3.609,1.39,5.081,5.081,0,0,1,1.329,3.665v1.077h-8.358a4.251,4.251,0,0,0,1.079,3,3.893,3.893,0,0,0,2.884,1.026,10.439,10.439,0,0,0,3.874-.759v1.517a10.315,10.315,0,0,1-1.843.559A11.153,11.153,0,0,1,2144.271,5104.953Zm-.5-10.223a3.122,3.122,0,0,0-2.33.882,3.9,3.9,0,0,0-1.024,2.44h6.343a3.553,3.553,0,0,0-.775-2.466A2.837,2.837,0,0,0,2143.773,5094.73Z" fill="#00223d"/>
        <path id="Trazado_9572" data-name="Trazado 9572" d="M2159.692,5101.682a2.748,2.748,0,0,1-1.262,2.42,6.287,6.287,0,0,1-3.543.851,8.22,8.22,0,0,1-3.763-.707v-1.579a9.6,9.6,0,0,0,1.876.646,8.427,8.427,0,0,0,1.932.236,4.669,4.669,0,0,0,2.214-.426,1.406,1.406,0,0,0,.16-2.42,9.96,9.96,0,0,0-2.4-1.1,13.47,13.47,0,0,1-2.408-1.021,3.176,3.176,0,0,1-1.063-.989,2.434,2.434,0,0,1-.348-1.323,2.47,2.47,0,0,1,1.206-2.168,5.96,5.96,0,0,1,3.31-.795,10.348,10.348,0,0,1,3.83.738l-.653,1.384a9.4,9.4,0,0,0-3.31-.7,4.057,4.057,0,0,0-1.97.38,1.16,1.16,0,0,0-.664,1.046,1.21,1.21,0,0,0,.249.769,2.432,2.432,0,0,0,.8.6,18.582,18.582,0,0,0,2.126.83,8.14,8.14,0,0,1,2.917,1.466A2.485,2.485,0,0,1,2159.692,5101.682Z" fill="#00223d"/>
        <path id="Trazado_9573" data-name="Trazado 9573" d="M2176.828,5103.241h-.1a4.441,4.441,0,0,1-3.808,1.712,4.664,4.664,0,0,1-3.7-1.507,6.293,6.293,0,0,1-1.323-4.286,6.4,6.4,0,0,1,1.328-4.317,4.627,4.627,0,0,1,3.7-1.538,4.551,4.551,0,0,1,3.786,1.661h.143l-.077-.81-.044-.79v-4.573h1.837v15.955h-1.494Zm-3.675.287a3.49,3.49,0,0,0,2.729-.949,4.533,4.533,0,0,0,.847-3.06v-.359a5.322,5.322,0,0,0-.858-3.41,3.391,3.391,0,0,0-2.74-1.02,2.885,2.885,0,0,0-2.474,1.164,5.456,5.456,0,0,0-.858,3.286,5.239,5.239,0,0,0,.852,3.251A2.976,2.976,0,0,0,2173.153,5103.528Z" fill="#00223d"/>
        <path id="Trazado_9574" data-name="Trazado 9574" d="M2187.588,5104.953a5.816,5.816,0,0,1-4.245-1.517,5.618,5.618,0,0,1-1.555-4.215,6.2,6.2,0,0,1,1.444-4.316,4.972,4.972,0,0,1,3.881-1.6,4.753,4.753,0,0,1,3.608,1.39,5.081,5.081,0,0,1,1.329,3.665v1.077h-8.358a4.251,4.251,0,0,0,1.079,3,3.9,3.9,0,0,0,2.884,1.026,10.441,10.441,0,0,0,3.874-.759v1.517a10.327,10.327,0,0,1-1.843.559A11.165,11.165,0,0,1,2187.588,5104.953Zm-.5-10.223a3.123,3.123,0,0,0-2.33.882,3.9,3.9,0,0,0-1.024,2.44h6.343a3.552,3.552,0,0,0-.775-2.466A2.834,2.834,0,0,0,2187.09,5094.73Z" fill="#00223d"/>
        <path id="Trazado_9575" data-name="Trazado 9575" d="M2075.333,5121.465a1.08,1.08,0,0,1,.31-.856,1.216,1.216,0,0,1,1.539,0,1.063,1.063,0,0,1,.321.851,1.08,1.08,0,0,1-.321.856,1.121,1.121,0,0,1-.764.282,1.025,1.025,0,0,1-1.085-1.138Zm1.992,14.283h-1.837V5124.51h1.837Z" fill="#00223d"/>
        <path id="Trazado_9576" data-name="Trazado 9576" d="M2089.525,5135.748v-7.27a2.792,2.792,0,0,0-.676-2.051,2.884,2.884,0,0,0-2.114-.676,3.646,3.646,0,0,0-2.79.953,4.56,4.56,0,0,0-.885,3.148v5.9h-1.838V5124.51h1.5l.3,1.538h.089a3.678,3.678,0,0,1,1.583-1.287,5.488,5.488,0,0,1,2.269-.456,4.849,4.849,0,0,1,3.3.979,3.982,3.982,0,0,1,1.107,3.133v7.331Z" fill="#00223d"/>
        <path id="Trazado_9577" data-name="Trazado 9577" d="M2105.067,5124.51v1.077l-2.247.246a3.515,3.515,0,0,1,.553.938,3.353,3.353,0,0,1,.244,1.307,3.215,3.215,0,0,1-1.218,2.636,5.173,5.173,0,0,1-3.343.984,6.006,6.006,0,0,1-1.019-.082q-1.173.574-1.173,1.446a.724.724,0,0,0,.41.681,3.182,3.182,0,0,0,1.405.221h2.148a5.092,5.092,0,0,1,3.028.769,2.6,2.6,0,0,1,1.057,2.235,3.136,3.136,0,0,1-1.616,2.846,9.212,9.212,0,0,1-4.716.979,6.849,6.849,0,0,1-3.67-.82,2.6,2.6,0,0,1-1.289-2.317,2.494,2.494,0,0,1,.708-1.774,3.692,3.692,0,0,1,1.992-1.016,1.9,1.9,0,0,1-.78-.6,1.521,1.521,0,0,1-.315-.953,1.721,1.721,0,0,1,.354-1.077,3.66,3.66,0,0,1,1.118-.892,3.223,3.223,0,0,1-1.533-1.22,3.392,3.392,0,0,1-.593-1.969,3.5,3.5,0,0,1,1.2-2.845,5.135,5.135,0,0,1,3.387-1,6.621,6.621,0,0,1,1.716.2Zm-9.675,13.125a1.5,1.5,0,0,0,.83,1.384,4.881,4.881,0,0,0,2.38.472,7.093,7.093,0,0,0,3.426-.641,1.945,1.945,0,0,0,1.113-1.738,1.338,1.338,0,0,0-.609-1.266,5.053,5.053,0,0,0-2.292-.354h-2.2a3.058,3.058,0,0,0-1.948.554A1.909,1.909,0,0,0,2095.392,5137.635Zm1-9.526a2.2,2.2,0,0,0,.72,1.784,3.017,3.017,0,0,0,2,.6q2.689,0,2.69-2.42,0-2.532-2.723-2.532a2.828,2.828,0,0,0-1.993.646A2.489,2.489,0,0,0,2096.388,5128.109Z" fill="#00223d"/>
        <path id="Trazado_9578" data-name="Trazado 9578" d="M2112.683,5135.953a5.815,5.815,0,0,1-4.245-1.517,5.618,5.618,0,0,1-1.555-4.215,6.2,6.2,0,0,1,1.444-4.316,4.968,4.968,0,0,1,3.88-1.6,4.757,4.757,0,0,1,3.609,1.39,5.085,5.085,0,0,1,1.328,3.665v1.077h-8.358a4.252,4.252,0,0,0,1.08,3,3.892,3.892,0,0,0,2.883,1.026,10.442,10.442,0,0,0,3.875-.759v1.517a10.339,10.339,0,0,1-1.843.559A11.171,11.171,0,0,1,2112.683,5135.953Zm-.5-10.223a3.123,3.123,0,0,0-2.33.882,3.9,3.9,0,0,0-1.024,2.44h6.343a3.557,3.557,0,0,0-.775-2.466A2.837,2.837,0,0,0,2112.185,5125.73Z" fill="#00223d"/>
        <path id="Trazado_9579" data-name="Trazado 9579" d="M2128.58,5135.748v-7.27a2.8,2.8,0,0,0-.676-2.051,2.884,2.884,0,0,0-2.114-.676,3.646,3.646,0,0,0-2.79.953,4.56,4.56,0,0,0-.885,3.148v5.9h-1.838V5124.51h1.495l.3,1.538h.088a3.678,3.678,0,0,1,1.583-1.287,5.488,5.488,0,0,1,2.269-.456,4.85,4.85,0,0,1,3.3.979,3.982,3.982,0,0,1,1.107,3.133v7.331Z" fill="#00223d"/>
        <path id="Trazado_9580" data-name="Trazado 9580" d="M2134.037,5121.465a1.08,1.08,0,0,1,.31-.856,1.216,1.216,0,0,1,1.539,0,1.063,1.063,0,0,1,.321.851,1.08,1.08,0,0,1-.321.856,1.19,1.19,0,0,1-1.539,0A1.1,1.1,0,0,1,2134.037,5121.465Zm1.993,14.283h-1.838V5124.51h1.838Z" fill="#00223d"/>
        <path id="Trazado_9581" data-name="Trazado 9581" d="M2145.052,5135.953a5.817,5.817,0,0,1-4.246-1.517,5.619,5.619,0,0,1-1.555-4.215,6.2,6.2,0,0,1,1.445-4.316,4.967,4.967,0,0,1,3.88-1.6,4.757,4.757,0,0,1,3.609,1.39,5.085,5.085,0,0,1,1.328,3.665v1.077h-8.358a4.25,4.25,0,0,0,1.08,3,3.891,3.891,0,0,0,2.883,1.026,10.44,10.44,0,0,0,3.875-.759v1.517a10.339,10.339,0,0,1-1.843.559A11.167,11.167,0,0,1,2145.052,5135.953Zm-.5-10.223a3.127,3.127,0,0,0-2.331.882,3.912,3.912,0,0,0-1.024,2.44h6.344a3.558,3.558,0,0,0-.775-2.466A2.838,2.838,0,0,0,2144.554,5125.73Z" fill="#00223d"/>
        <path id="Trazado_9582" data-name="Trazado 9582" d="M2158.181,5124.305a7.752,7.752,0,0,1,1.45.123l-.255,1.579a6.767,6.767,0,0,0-1.328-.154,3.342,3.342,0,0,0-2.519,1.108,3.861,3.861,0,0,0-1.045,2.758v6.029h-1.838V5124.51h1.517l.21,2.082h.088a5.08,5.08,0,0,1,1.628-1.692A3.864,3.864,0,0,1,2158.181,5124.305Z" fill="#00223d"/>
        <path id="Trazado_9583" data-name="Trazado 9583" d="M2161.823,5122.767q.531-.636,1.146-1.538a17.555,17.555,0,0,0,.968-1.569h2.237v.215a15.5,15.5,0,0,1-1.451,1.641,15.982,15.982,0,0,1-1.671,1.507h-1.229Zm1.915,12.981H2161.9V5124.51h1.837Z" fill="#00223d"/>
        <path id="Trazado_9584" data-name="Trazado 9584" d="M2175.1,5135.748l-.365-1.6h-.089a5.027,5.027,0,0,1-1.81,1.43,5.916,5.916,0,0,1-2.253.374,4.259,4.259,0,0,1-2.828-.861,3.022,3.022,0,0,1-1.024-2.451q0-3.4,5.878-3.568l2.059-.062v-.7a2.709,2.709,0,0,0-.614-1.953,2.651,2.651,0,0,0-1.965-.631,8.505,8.505,0,0,0-3.432.862l-.564-1.3a9.062,9.062,0,0,1,1.964-.707,9.164,9.164,0,0,1,2.143-.257,4.87,4.87,0,0,1,3.215.893,3.561,3.561,0,0,1,1.046,2.86v7.67Zm-4.151-1.2a3.91,3.91,0,0,0,2.695-.872,3.1,3.1,0,0,0,.98-2.44v-1.016l-1.838.072a7.127,7.127,0,0,0-3.16.631,1.868,1.868,0,0,0-.969,1.738,1.691,1.691,0,0,0,.6,1.4A2.637,2.637,0,0,0,2170.945,5134.549Z" fill="#00223d"/>
      </g>
    </g>
    <g id="Grupo_9284" data-name="Grupo 9284">
      <g id="Grupo_9283" data-name="Grupo 9283">
        <path id="Trazado_9585" data-name="Trazado 9585" d="M2534.842,5093.748h-9.022v-14.991h9.022v1.548h-7.14v4.83h6.708v1.538H2527.7v5.517h7.14Z" fill="#00223d"/>
        <path id="Trazado_9586" data-name="Trazado 9586" d="M2542.458,5093.953a4.582,4.582,0,0,1-3.664-1.527,6.329,6.329,0,0,1-1.317-4.266,6.41,6.41,0,0,1,1.328-4.307,4.611,4.611,0,0,1,3.7-1.548,4.545,4.545,0,0,1,3.83,1.743h.1l.266-1.538h1.45v16.283h-1.837v-4.809a10.669,10.669,0,0,1,.121-1.743h-.143A4.467,4.467,0,0,1,2542.458,5093.953Zm.277-1.425a3.486,3.486,0,0,0,2.679-.913,4.682,4.682,0,0,0,.9-3.076v-.379a5.3,5.3,0,0,0-.864-3.394,3.36,3.36,0,0,0-2.734-1.036,2.885,2.885,0,0,0-2.474,1.164,5.456,5.456,0,0,0-.858,3.286,5.267,5.267,0,0,0,.847,3.235A2.952,2.952,0,0,0,2542.735,5092.528Z" fill="#00223d"/>
        <path id="Trazado_9587" data-name="Trazado 9587" d="M2553.772,5082.51v7.291a2.792,2.792,0,0,0,.675,2.05,2.884,2.884,0,0,0,2.114.677,3.6,3.6,0,0,0,2.785-.964,4.6,4.6,0,0,0,.88-3.148v-5.906h1.837v11.238h-1.516l-.266-1.507h-.1a3.589,3.589,0,0,1-1.566,1.271,5.623,5.623,0,0,1-2.286.441,4.877,4.877,0,0,1-3.315-.974,3.959,3.959,0,0,1-1.1-3.117v-7.352Z" fill="#00223d"/>
        <path id="Trazado_9588" data-name="Trazado 9588" d="M2565.8,5079.465a1.08,1.08,0,0,1,.31-.856,1.216,1.216,0,0,1,1.539,0,1.064,1.064,0,0,1,.321.851,1.081,1.081,0,0,1-.321.856,1.12,1.12,0,0,1-.764.282,1.025,1.025,0,0,1-1.085-1.138Zm1.993,14.283h-1.838V5082.51h1.838Z" fill="#00223d"/>
        <path id="Trazado_9589" data-name="Trazado 9589" d="M2577.34,5093.953a5.61,5.61,0,0,1-2.164-.405,4.013,4.013,0,0,1-1.644-1.246h-.133a13.915,13.915,0,0,1,.133,1.867v4.624h-1.838V5082.51h1.495l.254,1.538h.089a4.2,4.2,0,0,1,1.649-1.333,5.37,5.37,0,0,1,2.159-.41,4.64,4.64,0,0,1,3.725,1.528,7.628,7.628,0,0,1-.022,8.587A4.646,4.646,0,0,1,2577.34,5093.953Zm-.266-10.2a3.4,3.4,0,0,0-2.69.953,4.648,4.648,0,0,0-.852,3.035v.38a5.3,5.3,0,0,0,.852,3.389,3.37,3.37,0,0,0,2.735,1.02,2.917,2.917,0,0,0,2.463-1.179,5.289,5.289,0,0,0,.891-3.251,5.094,5.094,0,0,0-.891-3.225A3.019,3.019,0,0,0,2577.074,5083.751Z" fill="#00223d"/>
        <path id="Trazado_9590" data-name="Trazado 9590" d="M2596.059,5088.119a5.91,5.91,0,0,1-1.494,4.291,5.48,5.48,0,0,1-4.129,1.543,5.8,5.8,0,0,1-2.889-.707,4.817,4.817,0,0,1-1.949-2.03,6.629,6.629,0,0,1-.686-3.1,5.9,5.9,0,0,1,1.483-4.281,5.464,5.464,0,0,1,4.118-1.533,5.334,5.334,0,0,1,4.046,1.569A5.887,5.887,0,0,1,2596.059,5088.119Zm-9.243,0a5.044,5.044,0,0,0,.93,3.281,3.892,3.892,0,0,0,5.474.006,5.028,5.028,0,0,0,.935-3.287,4.942,4.942,0,0,0-.935-3.255,3.406,3.406,0,0,0-2.762-1.113,3.347,3.347,0,0,0-2.723,1.1A4.99,4.99,0,0,0,2586.816,5088.119Z" fill="#00223d"/>
        <path id="Trazado_9591" data-name="Trazado 9591" d="M2613.428,5092.241h-.1a4.444,4.444,0,0,1-3.809,1.712,4.663,4.663,0,0,1-3.7-1.507,6.293,6.293,0,0,1-1.323-4.286,6.4,6.4,0,0,1,1.328-4.317,4.626,4.626,0,0,1,3.7-1.538,4.548,4.548,0,0,1,3.786,1.661h.144l-.077-.81-.044-.79v-4.573h1.837v15.955h-1.494Zm-3.675.287a3.489,3.489,0,0,0,2.729-.949,4.533,4.533,0,0,0,.847-3.06v-.359a5.328,5.328,0,0,0-.858-3.41,3.391,3.391,0,0,0-2.74-1.02,2.884,2.884,0,0,0-2.474,1.164,5.456,5.456,0,0,0-.858,3.286,5.239,5.239,0,0,0,.852,3.251A2.976,2.976,0,0,0,2609.753,5092.528Z" fill="#00223d"/>
        <path id="Trazado_9592" data-name="Trazado 9592" d="M2624.188,5093.953a5.816,5.816,0,0,1-4.245-1.517,5.618,5.618,0,0,1-1.556-4.215,6.2,6.2,0,0,1,1.445-4.316,4.969,4.969,0,0,1,3.88-1.6,4.757,4.757,0,0,1,3.609,1.39,5.081,5.081,0,0,1,1.328,3.665v1.077h-8.357a4.245,4.245,0,0,0,1.079,3,3.893,3.893,0,0,0,2.884,1.026,10.439,10.439,0,0,0,3.874-.759v1.517a10.315,10.315,0,0,1-1.843.559A11.16,11.16,0,0,1,2624.188,5093.953Zm-.5-10.223a3.122,3.122,0,0,0-2.33.882,3.9,3.9,0,0,0-1.024,2.44h6.343a3.553,3.553,0,0,0-.775-2.466A2.838,2.838,0,0,0,2623.69,5083.73Z" fill="#00223d"/>
        <path id="Trazado_9593" data-name="Trazado 9593" d="M2528.062,5124.953a5.61,5.61,0,0,1-2.164-.405,4.008,4.008,0,0,1-1.644-1.246h-.133a14.118,14.118,0,0,1,.133,1.867v4.624h-1.838V5113.51h1.495l.254,1.538h.089a4.2,4.2,0,0,1,1.649-1.333,5.364,5.364,0,0,1,2.159-.41,4.642,4.642,0,0,1,3.725,1.528,7.628,7.628,0,0,1-.022,8.587A4.647,4.647,0,0,1,2528.062,5124.953Zm-.266-10.2a3.4,3.4,0,0,0-2.69.953,4.648,4.648,0,0,0-.852,3.035v.38a5.305,5.305,0,0,0,.852,3.389,3.37,3.37,0,0,0,2.735,1.02,2.915,2.915,0,0,0,2.462-1.179,5.283,5.283,0,0,0,.892-3.251,5.088,5.088,0,0,0-.892-3.225A3.019,3.019,0,0,0,2527.8,5114.751Z" fill="#00223d"/>
        <path id="Trazado_9594" data-name="Trazado 9594" d="M2541.844,5113.305a7.74,7.74,0,0,1,1.45.123l-.254,1.579a6.776,6.776,0,0,0-1.329-.154,3.338,3.338,0,0,0-2.518,1.108,3.858,3.858,0,0,0-1.046,2.758v6.029h-1.838V5113.51h1.517l.21,2.082h.088a5.079,5.079,0,0,1,1.628-1.692A3.866,3.866,0,0,1,2541.844,5113.305Z" fill="#00223d"/>
        <path id="Trazado_9595" data-name="Trazado 9595" d="M2556.036,5119.119a5.906,5.906,0,0,1-1.495,4.291,5.478,5.478,0,0,1-4.129,1.543,5.8,5.8,0,0,1-2.889-.707,4.822,4.822,0,0,1-1.949-2.03,6.641,6.641,0,0,1-.686-3.1,5.9,5.9,0,0,1,1.484-4.281,5.462,5.462,0,0,1,4.118-1.533,5.335,5.335,0,0,1,4.046,1.569A5.887,5.887,0,0,1,2556.036,5119.119Zm-9.244,0a5.045,5.045,0,0,0,.93,3.281,3.892,3.892,0,0,0,5.474.006,5.023,5.023,0,0,0,.936-3.287,4.937,4.937,0,0,0-.936-3.255,3.4,3.4,0,0,0-2.762-1.113,3.348,3.348,0,0,0-2.723,1.1A4.99,4.99,0,0,0,2546.792,5119.119Z" fill="#00223d"/>
        <path id="Trazado_9596" data-name="Trazado 9596" d="M2563.176,5123.549a6.4,6.4,0,0,0,.941-.067,6.276,6.276,0,0,0,.719-.139v1.3a3.56,3.56,0,0,1-.88.22,7.18,7.18,0,0,1-1.046.087q-3.52,0-3.52-3.435v-6.685h-1.738v-.821l1.738-.707.775-2.4h1.063v2.6h3.52v1.323h-3.52v6.614a2.163,2.163,0,0,0,.52,1.558A1.884,1.884,0,0,0,2563.176,5123.549Z" fill="#00223d"/>
        <path id="Trazado_9597" data-name="Trazado 9597" d="M2572.386,5124.953a5.814,5.814,0,0,1-4.245-1.517,5.618,5.618,0,0,1-1.555-4.215,6.2,6.2,0,0,1,1.444-4.316,4.969,4.969,0,0,1,3.88-1.6,4.757,4.757,0,0,1,3.609,1.39,5.085,5.085,0,0,1,1.328,3.665v1.077h-8.358a4.255,4.255,0,0,0,1.08,3,3.893,3.893,0,0,0,2.884,1.026,10.439,10.439,0,0,0,3.874-.759v1.517a10.339,10.339,0,0,1-1.843.559A11.167,11.167,0,0,1,2572.386,5124.953Zm-.5-10.223a3.122,3.122,0,0,0-2.33.882,3.9,3.9,0,0,0-1.024,2.44h6.343a3.558,3.558,0,0,0-.775-2.466A2.838,2.838,0,0,0,2571.888,5114.73Z" fill="#00223d"/>
        <path id="Trazado_9598" data-name="Trazado 9598" d="M2584.829,5124.953a5.391,5.391,0,0,1-4.079-1.5,5.884,5.884,0,0,1-1.445-4.25,6.065,6.065,0,0,1,1.467-4.358,5.5,5.5,0,0,1,4.179-1.538,8.926,8.926,0,0,1,1.749.174,6.082,6.082,0,0,1,1.372.41l-.564,1.446a9.224,9.224,0,0,0-1.329-.374,6.376,6.376,0,0,0-1.273-.149q-3.7,0-3.7,4.368a4.915,4.915,0,0,0,.9,3.179,3.247,3.247,0,0,0,2.674,1.108,8.73,8.73,0,0,0,3.11-.6v1.507A7.079,7.079,0,0,1,2584.829,5124.953Z" fill="#00223d"/>
        <path id="Trazado_9599" data-name="Trazado 9599" d="M2595.622,5124.953a5.392,5.392,0,0,1-4.079-1.5,5.884,5.884,0,0,1-1.445-4.25,6.065,6.065,0,0,1,1.467-4.358,5.5,5.5,0,0,1,4.179-1.538,8.926,8.926,0,0,1,1.749.174,6.108,6.108,0,0,1,1.373.41l-.565,1.446a9.246,9.246,0,0,0-1.328-.374,6.382,6.382,0,0,0-1.273-.149q-3.7,0-3.7,4.368a4.921,4.921,0,0,0,.9,3.179,3.248,3.248,0,0,0,2.674,1.108,8.738,8.738,0,0,0,3.111-.6v1.507A7.081,7.081,0,0,1,2595.622,5124.953Z" fill="#00223d"/>
        <path id="Trazado_9600" data-name="Trazado 9600" d="M2601.412,5110.465a1.08,1.08,0,0,1,.31-.856,1.215,1.215,0,0,1,1.538,0,1.063,1.063,0,0,1,.321.851,1.08,1.08,0,0,1-.321.856,1.189,1.189,0,0,1-1.538,0A1.1,1.1,0,0,1,2601.412,5110.465Zm1.992,14.283h-1.837V5113.51h1.837Z" fill="#00223d"/>
        <path id="Trazado_9601" data-name="Trazado 9601" d="M2617.773,5119.119a5.911,5.911,0,0,1-1.494,4.291,5.482,5.482,0,0,1-4.129,1.543,5.81,5.81,0,0,1-2.89-.707,4.814,4.814,0,0,1-1.948-2.03,6.629,6.629,0,0,1-.686-3.1,5.9,5.9,0,0,1,1.483-4.281,5.462,5.462,0,0,1,4.118-1.533,5.333,5.333,0,0,1,4.046,1.569A5.887,5.887,0,0,1,2617.773,5119.119Zm-9.243,0a5.045,5.045,0,0,0,.93,3.281,3.892,3.892,0,0,0,5.474.006,5.03,5.03,0,0,0,.935-3.287,4.944,4.944,0,0,0-.935-3.255,3.406,3.406,0,0,0-2.762-1.113,3.351,3.351,0,0,0-2.724,1.1A5,5,0,0,0,2608.53,5119.119Zm2.125-7.352q.531-.636,1.146-1.538a17.33,17.33,0,0,0,.968-1.569h2.237v.215a15.529,15.529,0,0,1-1.451,1.641,15.982,15.982,0,0,1-1.671,1.507h-1.229Z" fill="#00223d"/>
        <path id="Trazado_9602" data-name="Trazado 9602" d="M2629.3,5124.748v-7.27a2.8,2.8,0,0,0-.675-2.051,2.884,2.884,0,0,0-2.114-.676,3.643,3.643,0,0,0-2.79.953,4.554,4.554,0,0,0-.886,3.148v5.9H2621V5113.51h1.494l.3,1.538h.088a3.684,3.684,0,0,1,1.583-1.287,5.492,5.492,0,0,1,2.27-.456,4.851,4.851,0,0,1,3.3.979,3.982,3.982,0,0,1,1.107,3.133v7.331Z" fill="#00223d"/>
        <path id="Trazado_9603" data-name="Trazado 9603" d="M2537.991,5155.953a5.617,5.617,0,0,1-2.164-.405,4.012,4.012,0,0,1-1.644-1.246h-.133a13.956,13.956,0,0,1,.133,1.867v4.624h-1.837V5144.51h1.494l.255,1.538h.088a4.207,4.207,0,0,1,1.65-1.333,5.363,5.363,0,0,1,2.158-.41,4.643,4.643,0,0,1,3.726,1.528,7.628,7.628,0,0,1-.022,8.587A4.649,4.649,0,0,1,2537.991,5155.953Zm-.265-10.2a3.4,3.4,0,0,0-2.69.953,4.641,4.641,0,0,0-.853,3.035v.38a5.3,5.3,0,0,0,.853,3.389,3.368,3.368,0,0,0,2.734,1.02,2.916,2.916,0,0,0,2.463-1.179,5.283,5.283,0,0,0,.891-3.251,5.088,5.088,0,0,0-.891-3.225A3.019,3.019,0,0,0,2537.726,5145.751Z" fill="#00223d"/>
        <path id="Trazado_9604" data-name="Trazado 9604" d="M2551.364,5155.953a5.815,5.815,0,0,1-4.245-1.517,5.619,5.619,0,0,1-1.556-4.215,6.2,6.2,0,0,1,1.445-4.316,4.967,4.967,0,0,1,3.88-1.6,4.757,4.757,0,0,1,3.609,1.39,5.081,5.081,0,0,1,1.328,3.665v1.077h-8.358a4.25,4.25,0,0,0,1.08,3,3.892,3.892,0,0,0,2.883,1.026,10.44,10.44,0,0,0,3.875-.759v1.517a10.339,10.339,0,0,1-1.843.559A11.16,11.16,0,0,1,2551.364,5155.953Zm-.5-10.223a3.123,3.123,0,0,0-2.33.882,3.9,3.9,0,0,0-1.024,2.44h6.343a3.558,3.558,0,0,0-.775-2.466A2.838,2.838,0,0,0,2550.866,5145.73Z" fill="#00223d"/>
        <path id="Trazado_9605" data-name="Trazado 9605" d="M2564.493,5144.305a7.745,7.745,0,0,1,1.45.123l-.254,1.579a6.776,6.776,0,0,0-1.329-.154,3.339,3.339,0,0,0-2.518,1.108,3.858,3.858,0,0,0-1.046,2.758v6.029h-1.838V5144.51h1.517l.21,2.082h.089a5.081,5.081,0,0,1,1.627-1.692A3.868,3.868,0,0,1,2564.493,5144.305Z" fill="#00223d"/>
        <path id="Trazado_9606" data-name="Trazado 9606" d="M2576.039,5152.682a2.749,2.749,0,0,1-1.262,2.42,6.287,6.287,0,0,1-3.542.851,8.223,8.223,0,0,1-3.764-.707v-1.579a9.6,9.6,0,0,0,1.876.646,8.427,8.427,0,0,0,1.932.236,4.668,4.668,0,0,0,2.214-.426,1.407,1.407,0,0,0,.161-2.42,10,10,0,0,0-2.4-1.1,13.486,13.486,0,0,1-2.408-1.021,3.177,3.177,0,0,1-1.063-.989,2.434,2.434,0,0,1-.348-1.323,2.471,2.471,0,0,1,1.206-2.168,5.962,5.962,0,0,1,3.31-.795,10.356,10.356,0,0,1,3.831.738l-.653,1.384a9.412,9.412,0,0,0-3.311-.7,4.06,4.06,0,0,0-1.97.38,1.16,1.16,0,0,0-.664,1.046,1.21,1.21,0,0,0,.249.769,2.435,2.435,0,0,0,.8.6,18.659,18.659,0,0,0,2.126.83,8.14,8.14,0,0,1,2.917,1.466A2.485,2.485,0,0,1,2576.039,5152.682Z" fill="#00223d"/>
        <path id="Trazado_9607" data-name="Trazado 9607" d="M2589.5,5150.119a5.911,5.911,0,0,1-1.494,4.291,5.482,5.482,0,0,1-4.129,1.543,5.8,5.8,0,0,1-2.889-.707,4.816,4.816,0,0,1-1.949-2.03,6.629,6.629,0,0,1-.686-3.1,5.9,5.9,0,0,1,1.483-4.281,5.464,5.464,0,0,1,4.118-1.533,5.333,5.333,0,0,1,4.046,1.569A5.887,5.887,0,0,1,2589.5,5150.119Zm-9.243,0a5.044,5.044,0,0,0,.93,3.281,3.892,3.892,0,0,0,5.474.006,5.028,5.028,0,0,0,.935-3.287,4.942,4.942,0,0,0-.935-3.255,3.4,3.4,0,0,0-2.762-1.113,3.347,3.347,0,0,0-2.723,1.1A4.99,4.99,0,0,0,2580.257,5150.119Z" fill="#00223d"/>
        <path id="Trazado_9608" data-name="Trazado 9608" d="M2601.024,5155.748v-7.27a2.8,2.8,0,0,0-.675-2.051,2.884,2.884,0,0,0-2.114-.676,3.643,3.643,0,0,0-2.79.953,4.554,4.554,0,0,0-.886,3.148v5.9h-1.837V5144.51h1.494l.3,1.538h.089a3.678,3.678,0,0,1,1.583-1.287,5.484,5.484,0,0,1,2.269-.456,4.85,4.85,0,0,1,3.3.979,3.982,3.982,0,0,1,1.107,3.133v7.331Z" fill="#00223d"/>
        <path id="Trazado_9609" data-name="Trazado 9609" d="M2614.1,5155.748l-.365-1.6h-.089a5.027,5.027,0,0,1-1.81,1.43,5.913,5.913,0,0,1-2.253.374,4.259,4.259,0,0,1-2.828-.861,3.022,3.022,0,0,1-1.024-2.451q0-3.4,5.878-3.568l2.059-.062v-.7a2.709,2.709,0,0,0-.614-1.953,2.65,2.65,0,0,0-1.965-.631,8.505,8.505,0,0,0-3.432.862l-.564-1.3a9.062,9.062,0,0,1,1.964-.707,9.163,9.163,0,0,1,2.142-.257,4.872,4.872,0,0,1,3.216.893,3.562,3.562,0,0,1,1.047,2.86v7.67Zm-4.151-1.2a3.911,3.911,0,0,0,2.7-.872,3.1,3.1,0,0,0,.98-2.44v-1.016l-1.838.072a7.127,7.127,0,0,0-3.16.631,1.868,1.868,0,0,0-.969,1.738,1.693,1.693,0,0,0,.6,1.4A2.642,2.642,0,0,0,2609.947,5154.549Z" fill="#00223d"/>
        <path id="Trazado_9610" data-name="Trazado 9610" d="M2621.083,5155.748h-1.837v-15.955h1.837Z" fill="#00223d"/>
      </g>
    </g>
    <g id="Grupo_9286" data-name="Grupo 9286">
      <g id="Grupo_9285" data-name="Grupo 9285">
        <path id="Trazado_9611" data-name="Trazado 9611" d="M2287.672,5187.271a3.581,3.581,0,0,1-1.55,3.087,7.107,7.107,0,0,1-4.207,1.107,11.28,11.28,0,0,1-4.427-.687V5189.1a12.762,12.762,0,0,0,4.494.841,4.977,4.977,0,0,0,2.834-.661,2.119,2.119,0,0,0,.952-1.841,2.23,2.23,0,0,0-.338-1.277,3.064,3.064,0,0,0-1.129-.917,16.533,16.533,0,0,0-2.408-.954,7.821,7.821,0,0,1-3.227-1.774,3.739,3.739,0,0,1-.968-2.676,3.239,3.239,0,0,1,1.406-2.758,6.167,6.167,0,0,1,3.719-1.026,11.716,11.716,0,0,1,4.439.821l-.587,1.517a10.72,10.72,0,0,0-3.9-.779,3.99,3.99,0,0,0-2.336.6,1.908,1.908,0,0,0-.841,1.651,2.372,2.372,0,0,0,.31,1.276,2.822,2.822,0,0,0,1.046.913,13.553,13.553,0,0,0,2.253.918,9.116,9.116,0,0,1,3.5,1.8A3.4,3.4,0,0,1,2287.672,5187.271Z" fill="#00223d"/>
        <path id="Trazado_9612" data-name="Trazado 9612" d="M2295.831,5191.465a5.823,5.823,0,0,1-4.246-1.517,5.62,5.62,0,0,1-1.555-4.215,6.2,6.2,0,0,1,1.445-4.317,4.969,4.969,0,0,1,3.879-1.6,4.755,4.755,0,0,1,3.609,1.389,5.082,5.082,0,0,1,1.329,3.666v1.076h-8.358a4.257,4.257,0,0,0,1.079,3,3.9,3.9,0,0,0,2.884,1.025,10.436,10.436,0,0,0,3.874-.759v1.518a10.212,10.212,0,0,1-1.843.559A11.192,11.192,0,0,1,2295.831,5191.465Zm-.5-10.223a3.123,3.123,0,0,0-2.33.882,3.9,3.9,0,0,0-1.024,2.44h6.343a3.551,3.551,0,0,0-.775-2.466A2.833,2.833,0,0,0,2295.332,5181.242Z" fill="#00223d"/>
        <path id="Trazado_9613" data-name="Trazado 9613" d="M2311.727,5191.26v-7.27a2.794,2.794,0,0,0-.675-2.051,2.883,2.883,0,0,0-2.115-.677,3.641,3.641,0,0,0-2.789.954,4.555,4.555,0,0,0-.886,3.148v5.9h-1.837v-11.238h1.494l.3,1.538h.088a3.679,3.679,0,0,1,1.583-1.287,5.5,5.5,0,0,1,2.27-.456,4.848,4.848,0,0,1,3.3.979,3.983,3.983,0,0,1,1.107,3.132v7.332Zm-1.373-12.746a2.377,2.377,0,0,1-.929-.19q-.454-.189-.892-.419c-.291-.155-.572-.294-.841-.421a1.839,1.839,0,0,0-.78-.19,1.079,1.079,0,0,0-.836.308,2.126,2.126,0,0,0-.437.933h-1.085a3.4,3.4,0,0,1,.78-1.943,2.118,2.118,0,0,1,1.644-.7,2.642,2.642,0,0,1,.985.19,9.358,9.358,0,0,1,.908.42q.432.232.83.421a1.753,1.753,0,0,0,.753.19,1.019,1.019,0,0,0,.808-.3,2.315,2.315,0,0,0,.432-.938h1.1a3.442,3.442,0,0,1-.77,1.943A2.119,2.119,0,0,1,2310.354,5178.514Z" fill="#00223d"/>
        <path id="Trazado_9614" data-name="Trazado 9614" d="M2324.8,5191.26l-.366-1.6h-.088a5.035,5.035,0,0,1-1.81,1.431,5.917,5.917,0,0,1-2.253.374,4.259,4.259,0,0,1-2.828-.861,3.023,3.023,0,0,1-1.024-2.451q0-3.4,5.878-3.568l2.059-.062v-.7a2.711,2.711,0,0,0-.614-1.954,2.65,2.65,0,0,0-1.965-.63,8.512,8.512,0,0,0-3.432.861l-.564-1.3a9.066,9.066,0,0,1,1.964-.708,9.207,9.207,0,0,1,2.143-.256,4.874,4.874,0,0,1,3.215.892,3.564,3.564,0,0,1,1.046,2.861v7.67Zm-4.151-1.2a3.912,3.912,0,0,0,2.7-.871,3.1,3.1,0,0,0,.98-2.441v-1.015l-1.838.072a7.114,7.114,0,0,0-3.16.631,1.866,1.866,0,0,0-.969,1.738,1.691,1.691,0,0,0,.6,1.4A2.638,2.638,0,0,0,2320.65,5190.06Z" fill="#00223d"/>
        <path id="Trazado_9615" data-name="Trazado 9615" d="M2331.786,5191.26h-1.838v-15.955h1.838Z" fill="#00223d"/>
        <path id="Trazado_9616" data-name="Trazado 9616" d="M2335.528,5176.976a1.082,1.082,0,0,1,.31-.856,1.215,1.215,0,0,1,1.538,0,1.063,1.063,0,0,1,.321.851,1.078,1.078,0,0,1-.321.856,1.19,1.19,0,0,1-1.538,0A1.1,1.1,0,0,1,2335.528,5176.976Zm1.992,14.284h-1.837v-11.238h1.837Z" fill="#00223d"/>
        <path id="Trazado_9617" data-name="Trazado 9617" d="M2349.177,5191.26h-8.8V5190.1l6.62-8.757h-6.21v-1.322h8.225v1.322l-6.531,8.593h6.7Z" fill="#00223d"/>
        <path id="Trazado_9618" data-name="Trazado 9618" d="M2359.483,5191.26l-.365-1.6h-.089a5.026,5.026,0,0,1-1.81,1.431,5.911,5.911,0,0,1-2.252.374,4.264,4.264,0,0,1-2.829-.861,3.027,3.027,0,0,1-1.024-2.451q0-3.4,5.878-3.568l2.059-.062v-.7a2.708,2.708,0,0,0-.614-1.954,2.647,2.647,0,0,0-1.965-.63,8.51,8.51,0,0,0-3.432.861l-.564-1.3a9.072,9.072,0,0,1,1.965-.708,9.2,9.2,0,0,1,2.142-.256,4.879,4.879,0,0,1,3.216.892,3.567,3.567,0,0,1,1.046,2.861v7.67Zm-4.151-1.2a3.915,3.915,0,0,0,2.7-.871,3.1,3.1,0,0,0,.979-2.441v-1.015l-1.837.072a7.118,7.118,0,0,0-3.161.631,1.866,1.866,0,0,0-.969,1.738,1.688,1.688,0,0,0,.6,1.4A2.636,2.636,0,0,0,2355.332,5190.06Z" fill="#00223d"/>
        <path id="Trazado_9619" data-name="Trazado 9619" d="M2369.479,5191.465a5.392,5.392,0,0,1-4.079-1.5,5.884,5.884,0,0,1-1.444-4.25,6.063,6.063,0,0,1,1.466-4.358,5.5,5.5,0,0,1,4.179-1.538,8.927,8.927,0,0,1,1.749.174,6.089,6.089,0,0,1,1.373.41l-.565,1.446a9.083,9.083,0,0,0-1.328-.374,6.385,6.385,0,0,0-1.273-.149q-3.7,0-3.7,4.368a4.917,4.917,0,0,0,.9,3.179,3.245,3.245,0,0,0,2.673,1.107,8.727,8.727,0,0,0,3.111-.6v1.508A7.088,7.088,0,0,1,2369.479,5191.465Z" fill="#00223d"/>
        <path id="Trazado_9620" data-name="Trazado 9620" d="M2375.269,5176.976a1.081,1.081,0,0,1,.31-.856,1.216,1.216,0,0,1,1.539,0,1.063,1.063,0,0,1,.321.851,1.078,1.078,0,0,1-.321.856,1.115,1.115,0,0,1-.764.282,1.025,1.025,0,0,1-1.085-1.138Zm1.992,14.284h-1.837v-11.238h1.837Z" fill="#00223d"/>
        <path id="Trazado_9621" data-name="Trazado 9621" d="M2391.631,5185.631a5.911,5.911,0,0,1-1.5,4.291,5.478,5.478,0,0,1-4.129,1.543,5.81,5.81,0,0,1-2.889-.707,4.812,4.812,0,0,1-1.949-2.031,6.641,6.641,0,0,1-.686-3.1,5.9,5.9,0,0,1,1.484-4.281,5.46,5.46,0,0,1,4.117-1.533,5.341,5.341,0,0,1,4.047,1.568A5.89,5.89,0,0,1,2391.631,5185.631Zm-9.244,0a5.047,5.047,0,0,0,.93,3.281,3.891,3.891,0,0,0,5.474,0,5.019,5.019,0,0,0,.935-3.286,4.941,4.941,0,0,0-.935-3.256,3.406,3.406,0,0,0-2.762-1.113,3.348,3.348,0,0,0-2.723,1.1A4.991,4.991,0,0,0,2382.387,5185.631Zm2.125-7.352q.532-.636,1.146-1.539a17.057,17.057,0,0,0,.969-1.568h2.236v.215a15.6,15.6,0,0,1-1.45,1.641,16,16,0,0,1-1.672,1.507h-1.229Z" fill="#00223d"/>
        <path id="Trazado_9622" data-name="Trazado 9622" d="M2403.154,5191.26v-7.27a2.794,2.794,0,0,0-.675-2.051,2.882,2.882,0,0,0-2.114-.677,3.642,3.642,0,0,0-2.79.954,4.561,4.561,0,0,0-.886,3.148v5.9h-1.837v-11.238h1.494l.3,1.538h.089a3.674,3.674,0,0,1,1.583-1.287,5.5,5.5,0,0,1,2.269-.456,4.848,4.848,0,0,1,3.3.979,3.983,3.983,0,0,1,1.107,3.132v7.332Z" fill="#00223d"/>
        <path id="Trazado_9623" data-name="Trazado 9623" d="M2410.693,5188.82l.166.235a24.42,24.42,0,0,1-.83,2.385q-.543,1.358-1.129,2.527h-1.384q.3-1.066.659-2.635t.5-2.512Z" fill="#00223d"/>
        <path id="Trazado_9624" data-name="Trazado 9624" d="M2277.886,5222.26l-.365-1.6h-.089a5.025,5.025,0,0,1-1.81,1.431,5.913,5.913,0,0,1-2.253.374,4.261,4.261,0,0,1-2.828-.861,3.023,3.023,0,0,1-1.024-2.451q0-3.4,5.878-3.568l2.059-.062v-.7a2.712,2.712,0,0,0-.614-1.954,2.651,2.651,0,0,0-1.965-.63,8.51,8.51,0,0,0-3.432.861l-.564-1.3a9.079,9.079,0,0,1,1.965-.708,9.2,9.2,0,0,1,2.142-.256,4.878,4.878,0,0,1,3.216.892,3.567,3.567,0,0,1,1.046,2.861v7.67Zm-4.151-1.2a3.91,3.91,0,0,0,2.695-.871,3.1,3.1,0,0,0,.98-2.441v-1.015l-1.838.072a7.117,7.117,0,0,0-3.16.631,1.866,1.866,0,0,0-.969,1.738,1.688,1.688,0,0,0,.6,1.4A2.634,2.634,0,0,0,2273.735,5221.06Z" fill="#00223d"/>
        <path id="Trazado_9625" data-name="Trazado 9625" d="M2291.292,5220.753h-.1a4.442,4.442,0,0,1-3.808,1.712,4.667,4.667,0,0,1-3.7-1.507,6.3,6.3,0,0,1-1.323-4.286,6.4,6.4,0,0,1,1.329-4.317,4.622,4.622,0,0,1,3.7-1.538,4.546,4.546,0,0,1,3.786,1.661h.144l-.077-.81-.045-.79v-4.573h1.838v15.955h-1.5Zm-3.675.287a3.485,3.485,0,0,0,2.728-.949,4.529,4.529,0,0,0,.847-3.06v-.359a5.32,5.32,0,0,0-.858-3.41,3.386,3.386,0,0,0-2.74-1.02,2.886,2.886,0,0,0-2.474,1.164,5.457,5.457,0,0,0-.858,3.286,5.231,5.231,0,0,0,.853,3.251A2.976,2.976,0,0,0,2287.617,5221.04Z" fill="#00223d"/>
        <path id="Trazado_9626" data-name="Trazado 9626" d="M2299.583,5222.26l-4.6-11.238h1.97l2.613,6.665a29.837,29.837,0,0,1,1.041,3.035h.088a21.735,21.735,0,0,1,.77-2.251q.647-1.707,2.905-7.449h1.971l-4.6,11.238Z" fill="#00223d"/>
        <path id="Trazado_9627" data-name="Trazado 9627" d="M2313.41,5222.465a5.822,5.822,0,0,1-4.246-1.517,5.619,5.619,0,0,1-1.555-4.215,6.206,6.206,0,0,1,1.444-4.317,4.975,4.975,0,0,1,3.881-1.6,4.754,4.754,0,0,1,3.608,1.389,5.083,5.083,0,0,1,1.329,3.666v1.076h-8.358a4.258,4.258,0,0,0,1.079,3,3.9,3.9,0,0,0,2.884,1.025,10.446,10.446,0,0,0,3.875-.759v1.518a10.271,10.271,0,0,1-1.843.559A11.213,11.213,0,0,1,2313.41,5222.465Zm-.5-10.223a3.122,3.122,0,0,0-2.33.882,3.9,3.9,0,0,0-1.024,2.44h6.343a3.551,3.551,0,0,0-.775-2.466A2.833,2.833,0,0,0,2312.911,5212.242Z" fill="#00223d"/>
        <path id="Trazado_9628" data-name="Trazado 9628" d="M2326.539,5210.817a7.75,7.75,0,0,1,1.45.123l-.255,1.579a6.691,6.691,0,0,0-1.328-.154,3.342,3.342,0,0,0-2.519,1.107,3.864,3.864,0,0,0-1.046,2.759v6.029H2321v-11.238h1.516l.211,2.081h.088a5.1,5.1,0,0,1,1.627-1.692A3.879,3.879,0,0,1,2326.539,5210.817Z" fill="#00223d"/>
        <path id="Trazado_9629" data-name="Trazado 9629" d="M2334.177,5221.06a7.069,7.069,0,0,0,1.661-.205v1.3a3.578,3.578,0,0,1-.881.221,7.113,7.113,0,0,1-1.046.087q-3.519,0-3.52-3.435v-6.686h-1.738v-.82l1.738-.707.775-2.4h1.063v2.6h3.52v1.322h-3.52v6.614a2.167,2.167,0,0,0,.52,1.559A1.885,1.885,0,0,0,2334.177,5221.06Z" fill="#00223d"/>
        <path id="Trazado_9630" data-name="Trazado 9630" d="M2343.387,5222.465a5.821,5.821,0,0,1-4.245-1.517,5.619,5.619,0,0,1-1.555-4.215,6.2,6.2,0,0,1,1.444-4.317,4.972,4.972,0,0,1,3.88-1.6,4.759,4.759,0,0,1,3.609,1.389,5.082,5.082,0,0,1,1.328,3.666v1.076h-8.357a4.253,4.253,0,0,0,1.079,3,3.9,3.9,0,0,0,2.884,1.025,10.439,10.439,0,0,0,3.874-.759v1.518a10.24,10.24,0,0,1-1.843.559A11.213,11.213,0,0,1,2343.387,5222.465Zm-.5-10.223a3.122,3.122,0,0,0-2.33.882,3.9,3.9,0,0,0-1.024,2.44h6.343a3.551,3.551,0,0,0-.775-2.466A2.835,2.835,0,0,0,2342.889,5212.242Z" fill="#00223d"/>
        <path id="Trazado_9631" data-name="Trazado 9631" d="M2359.284,5222.26v-7.27a2.793,2.793,0,0,0-.675-2.051,2.884,2.884,0,0,0-2.115-.677,3.64,3.64,0,0,0-2.789.954,4.555,4.555,0,0,0-.886,3.148v5.9h-1.838v-11.238h1.5l.3,1.538h.088a3.678,3.678,0,0,1,1.583-1.287,5.5,5.5,0,0,1,2.27-.456,4.843,4.843,0,0,1,3.3.979,3.984,3.984,0,0,1,1.108,3.132v7.332Z" fill="#00223d"/>
        <path id="Trazado_9632" data-name="Trazado 9632" d="M2369.745,5222.465a5.391,5.391,0,0,1-4.079-1.5,5.883,5.883,0,0,1-1.445-4.25,6.064,6.064,0,0,1,1.467-4.358,5.5,5.5,0,0,1,4.179-1.538,8.927,8.927,0,0,1,1.749.174,6.085,6.085,0,0,1,1.372.41l-.564,1.446a9.121,9.121,0,0,0-1.328-.374,6.385,6.385,0,0,0-1.274-.149q-3.7,0-3.7,4.368a4.917,4.917,0,0,0,.9,3.179,3.245,3.245,0,0,0,2.673,1.107,8.72,8.72,0,0,0,3.11-.6v1.508A7.083,7.083,0,0,1,2369.745,5222.465Z" fill="#00223d"/>
        <path id="Trazado_9633" data-name="Trazado 9633" d="M2375.535,5207.976a1.084,1.084,0,0,1,.309-.856,1.216,1.216,0,0,1,1.539,0,1.064,1.064,0,0,1,.321.851,1.079,1.079,0,0,1-.321.856,1.192,1.192,0,0,1-1.539,0A1.1,1.1,0,0,1,2375.535,5207.976Zm1.992,14.284h-1.837v-11.238h1.837Z" fill="#00223d"/>
        <path id="Trazado_9634" data-name="Trazado 9634" d="M2388.885,5222.26l-.365-1.6h-.089a5.027,5.027,0,0,1-1.81,1.431,5.913,5.913,0,0,1-2.253.374,4.26,4.26,0,0,1-2.828-.861,3.023,3.023,0,0,1-1.024-2.451q0-3.4,5.878-3.568l2.059-.062v-.7a2.712,2.712,0,0,0-.614-1.954,2.651,2.651,0,0,0-1.965-.63,8.512,8.512,0,0,0-3.432.861l-.564-1.3a9.085,9.085,0,0,1,1.964-.708,9.214,9.214,0,0,1,2.143-.256,4.874,4.874,0,0,1,3.215.892,3.564,3.564,0,0,1,1.047,2.861v7.67Zm-4.151-1.2a3.91,3.91,0,0,0,2.7-.871,3.1,3.1,0,0,0,.98-2.441v-1.015l-1.838.072a7.118,7.118,0,0,0-3.16.631,1.866,1.866,0,0,0-.969,1.738,1.689,1.689,0,0,0,.6,1.4A2.635,2.635,0,0,0,2384.734,5221.06Z" fill="#00223d"/>
        <path id="Trazado_9635" data-name="Trazado 9635" d="M2401.859,5219.194a2.748,2.748,0,0,1-1.262,2.42,6.29,6.29,0,0,1-3.542.851,8.228,8.228,0,0,1-3.764-.707v-1.58a9.532,9.532,0,0,0,1.876.646,8.4,8.4,0,0,0,1.932.236,4.669,4.669,0,0,0,2.214-.425,1.407,1.407,0,0,0,.161-2.42,9.98,9.98,0,0,0-2.4-1.1,13.466,13.466,0,0,1-2.408-1.021,3.177,3.177,0,0,1-1.063-.989,2.436,2.436,0,0,1-.348-1.323,2.47,2.47,0,0,1,1.206-2.168,5.966,5.966,0,0,1,3.31-.795,10.354,10.354,0,0,1,3.831.738l-.654,1.384a9.381,9.381,0,0,0-3.31-.7,4.063,4.063,0,0,0-1.97.379,1.161,1.161,0,0,0-.664,1.046,1.209,1.209,0,0,0,.249.769,2.415,2.415,0,0,0,.8.6,18.607,18.607,0,0,0,2.126.831,8.141,8.141,0,0,1,2.917,1.466A2.485,2.485,0,0,1,2401.859,5219.194Z" fill="#00223d"/>
        <path id="Trazado_9636" data-name="Trazado 9636" d="M2408.811,5211.022h1.97l2.657,6.408a23.02,23.02,0,0,1,1.085,3.169h.089q.144-.524.6-1.789t3.006-7.788h1.97l-5.214,12.8a6.345,6.345,0,0,1-1.81,2.691,4.045,4.045,0,0,1-2.54.8,7.957,7.957,0,0,1-1.661-.174v-1.364a6.9,6.9,0,0,0,1.362.123,2.78,2.78,0,0,0,2.7-1.969l.675-1.6Z" fill="#00223d"/>
        <path id="Trazado_9637" data-name="Trazado 9637" d="M2301.831,5253.465a5.393,5.393,0,0,1-4.08-1.5,5.884,5.884,0,0,1-1.444-4.25,6.063,6.063,0,0,1,1.466-4.358,5.5,5.5,0,0,1,4.179-1.538,8.927,8.927,0,0,1,1.749.174,6.1,6.1,0,0,1,1.373.41l-.565,1.446a9.087,9.087,0,0,0-1.328-.374,6.382,6.382,0,0,0-1.273-.149q-3.7,0-3.7,4.368a4.917,4.917,0,0,0,.9,3.179,3.245,3.245,0,0,0,2.673,1.107,8.728,8.728,0,0,0,3.111-.6v1.508A7.086,7.086,0,0,1,2301.831,5253.465Z" fill="#00223d"/>
        <path id="Trazado_9638" data-name="Trazado 9638" d="M2318.247,5247.631a5.911,5.911,0,0,1-1.494,4.291,5.478,5.478,0,0,1-4.129,1.543,5.809,5.809,0,0,1-2.889-.707,4.812,4.812,0,0,1-1.949-2.031,6.629,6.629,0,0,1-.686-3.1,5.9,5.9,0,0,1,1.483-4.281,5.464,5.464,0,0,1,4.118-1.533,5.337,5.337,0,0,1,4.046,1.568A5.89,5.89,0,0,1,2318.247,5247.631Zm-9.243,0a5.045,5.045,0,0,0,.93,3.281,3.891,3.891,0,0,0,5.474,0,5.024,5.024,0,0,0,.935-3.286,4.947,4.947,0,0,0-.935-3.256,3.408,3.408,0,0,0-2.762-1.113,3.347,3.347,0,0,0-2.723,1.1A4.989,4.989,0,0,0,2309,5247.631Z" fill="#00223d"/>
        <path id="Trazado_9639" data-name="Trazado 9639" d="M2329.771,5253.26v-7.27a2.794,2.794,0,0,0-.675-2.051,2.882,2.882,0,0,0-2.114-.677,3.642,3.642,0,0,0-2.79.954,4.556,4.556,0,0,0-.886,3.148v5.9h-1.837v-11.238h1.494l.3,1.538h.089a3.671,3.671,0,0,1,1.583-1.287,5.494,5.494,0,0,1,2.269-.456,4.848,4.848,0,0,1,3.3.979,3.983,3.983,0,0,1,1.107,3.132v7.332Z" fill="#00223d"/>
        <path id="Trazado_9640" data-name="Trazado 9640" d="M2339.3,5252.06a7.069,7.069,0,0,0,1.661-.205v1.3a3.568,3.568,0,0,1-.88.221,7.112,7.112,0,0,1-1.046.087q-3.521,0-3.52-3.435v-6.686h-1.738v-.82l1.738-.707.774-2.4h1.063v2.6h3.52v1.322h-3.52v6.614a2.171,2.171,0,0,0,.52,1.559A1.885,1.885,0,0,0,2339.3,5252.06Z" fill="#00223d"/>
        <path id="Trazado_9641" data-name="Trazado 9641" d="M2348.922,5241.817a7.753,7.753,0,0,1,1.451.123l-.255,1.579a6.7,6.7,0,0,0-1.328-.154,3.34,3.34,0,0,0-2.519,1.107,3.864,3.864,0,0,0-1.046,2.759v6.029h-1.838v-11.238h1.517l.21,2.081h.089a5.108,5.108,0,0,1,1.627-1.692A3.876,3.876,0,0,1,2348.922,5241.817Z" fill="#00223d"/>
        <path id="Trazado_9642" data-name="Trazado 9642" d="M2363.114,5247.631a5.912,5.912,0,0,1-1.494,4.291,5.481,5.481,0,0,1-4.13,1.543,5.814,5.814,0,0,1-2.889-.707,4.815,4.815,0,0,1-1.948-2.031,6.629,6.629,0,0,1-.686-3.1,5.9,5.9,0,0,1,1.483-4.281,5.463,5.463,0,0,1,4.118-1.533,5.338,5.338,0,0,1,4.046,1.568A5.89,5.89,0,0,1,2363.114,5247.631Zm-9.243,0a5.051,5.051,0,0,0,.929,3.281,3.892,3.892,0,0,0,5.475,0,5.024,5.024,0,0,0,.935-3.286,4.947,4.947,0,0,0-.935-3.256,3.408,3.408,0,0,0-2.762-1.113,3.348,3.348,0,0,0-2.723,1.1A4.989,4.989,0,0,0,2353.871,5247.631Z" fill="#00223d"/>
        <path id="Trazado_9643" data-name="Trazado 9643" d="M2368.173,5253.26h-1.837v-15.955h1.837Z" fill="#00223d"/>
        <path id="Trazado_9644" data-name="Trazado 9644" d="M2377.2,5253.465a5.822,5.822,0,0,1-4.245-1.517,5.62,5.62,0,0,1-1.556-4.215,6.2,6.2,0,0,1,1.445-4.317,4.97,4.97,0,0,1,3.88-1.6,4.758,4.758,0,0,1,3.609,1.389,5.081,5.081,0,0,1,1.328,3.666v1.076H2373.3a4.249,4.249,0,0,0,1.079,3,3.9,3.9,0,0,0,2.883,1.025,10.441,10.441,0,0,0,3.875-.759v1.518a10.236,10.236,0,0,1-1.843.559A11.2,11.2,0,0,1,2377.2,5253.465Zm-.5-10.223a3.123,3.123,0,0,0-2.33.882,3.9,3.9,0,0,0-1.024,2.44h6.343a3.556,3.556,0,0,0-.775-2.466A2.835,2.835,0,0,0,2376.7,5243.242Z" fill="#00223d"/>
        <path id="Trazado_9645" data-name="Trazado 9645" d="M2392.616,5250.194a2.748,2.748,0,0,1-1.262,2.42,6.3,6.3,0,0,1-3.543.851,8.223,8.223,0,0,1-3.763-.707v-1.58a9.532,9.532,0,0,0,1.876.646,8.4,8.4,0,0,0,1.932.236,4.67,4.67,0,0,0,2.214-.425,1.389,1.389,0,0,0,.774-1.3,1.374,1.374,0,0,0-.614-1.123,9.934,9.934,0,0,0-2.4-1.1,13.449,13.449,0,0,1-2.407-1.021,3.163,3.163,0,0,1-1.063-.989,2.436,2.436,0,0,1-.349-1.323,2.469,2.469,0,0,1,1.207-2.168,5.964,5.964,0,0,1,3.31-.795,10.35,10.35,0,0,1,3.83.738l-.653,1.384a9.385,9.385,0,0,0-3.31-.7,4.065,4.065,0,0,0-1.971.379,1.163,1.163,0,0,0-.664,1.046,1.209,1.209,0,0,0,.249.769,2.423,2.423,0,0,0,.8.6,18.569,18.569,0,0,0,2.126.831,8.123,8.123,0,0,1,2.916,1.466A2.482,2.482,0,0,1,2392.616,5250.194Z" fill="#00223d"/>
        <path id="Trazado_9646" data-name="Trazado 9646" d="M2272.124,5284.26l-.365-1.6h-.089a5.027,5.027,0,0,1-1.81,1.431,5.911,5.911,0,0,1-2.252.374,4.261,4.261,0,0,1-2.829-.861,3.023,3.023,0,0,1-1.024-2.451q0-3.4,5.878-3.568l2.059-.062v-.7a2.707,2.707,0,0,0-.614-1.954,2.65,2.65,0,0,0-1.965-.63,8.512,8.512,0,0,0-3.432.861l-.564-1.3a9.074,9.074,0,0,1,1.965-.708,9.2,9.2,0,0,1,2.142-.256,4.878,4.878,0,0,1,3.216.892,3.567,3.567,0,0,1,1.046,2.861v7.67Zm-4.151-1.2a3.91,3.91,0,0,0,2.7-.871,3.1,3.1,0,0,0,.98-2.441v-1.015l-1.838.072a7.118,7.118,0,0,0-3.16.631,1.866,1.866,0,0,0-.969,1.738,1.689,1.689,0,0,0,.6,1.4A2.635,2.635,0,0,0,2267.973,5283.06Z" fill="#00223d"/>
        <path id="Trazado_9647" data-name="Trazado 9647" d="M2285.53,5282.753h-.1a4.442,4.442,0,0,1-3.808,1.712,4.667,4.667,0,0,1-3.7-1.507,6.3,6.3,0,0,1-1.323-4.286,6.4,6.4,0,0,1,1.329-4.317,4.622,4.622,0,0,1,3.7-1.538,4.546,4.546,0,0,1,3.786,1.661h.144l-.077-.81-.045-.79v-4.573h1.838v15.955h-1.5Zm-3.675.287a3.485,3.485,0,0,0,2.728-.949,4.529,4.529,0,0,0,.847-3.06v-.359a5.32,5.32,0,0,0-.858-3.41,3.387,3.387,0,0,0-2.74-1.02,2.886,2.886,0,0,0-2.474,1.164,5.457,5.457,0,0,0-.858,3.286,5.231,5.231,0,0,0,.853,3.251A2.975,2.975,0,0,0,2281.855,5283.04Z" fill="#00223d"/>
        <path id="Trazado_9648" data-name="Trazado 9648" d="M2306.629,5284.26v-7.311a2.876,2.876,0,0,0-.62-2.015,2.5,2.5,0,0,0-1.926-.672,3.241,3.241,0,0,0-2.535.913,4.11,4.11,0,0,0-.819,2.81v6.275h-1.838v-7.311a2.876,2.876,0,0,0-.62-2.015,2.519,2.519,0,0,0-1.937-.672,3.116,3.116,0,0,0-2.529.959,4.891,4.891,0,0,0-.8,3.143v5.9h-1.837v-11.238h1.494l.3,1.538h.088a3.52,3.52,0,0,1,1.467-1.282,4.776,4.776,0,0,1,2.12-.461q2.844,0,3.72,1.907h.088a3.761,3.761,0,0,1,1.572-1.4,5.2,5.2,0,0,1,2.347-.512,4.309,4.309,0,0,1,3.083.979,4.175,4.175,0,0,1,1.024,3.132v7.332Z" fill="#00223d"/>
        <path id="Trazado_9649" data-name="Trazado 9649" d="M2312.1,5269.976a1.081,1.081,0,0,1,.31-.856,1.215,1.215,0,0,1,1.538,0,1.065,1.065,0,0,1,.322.851,1.079,1.079,0,0,1-.322.856,1.19,1.19,0,0,1-1.538,0A1.1,1.1,0,0,1,2312.1,5269.976Zm1.993,14.284h-1.838v-11.238h1.838Z" fill="#00223d"/>
        <path id="Trazado_9650" data-name="Trazado 9650" d="M2326.29,5284.26v-7.27a2.794,2.794,0,0,0-.676-2.051,2.882,2.882,0,0,0-2.114-.677,3.643,3.643,0,0,0-2.79.954,4.562,4.562,0,0,0-.885,3.148v5.9h-1.838v-11.238h1.495l.3,1.538h.089a3.674,3.674,0,0,1,1.583-1.287,5.5,5.5,0,0,1,2.269-.456,4.847,4.847,0,0,1,3.3.979,3.983,3.983,0,0,1,1.107,3.132v7.332Z" fill="#00223d"/>
        <path id="Trazado_9651" data-name="Trazado 9651" d="M2331.747,5269.976a1.082,1.082,0,0,1,.31-.856,1.216,1.216,0,0,1,1.539,0,1.063,1.063,0,0,1,.321.851,1.078,1.078,0,0,1-.321.856,1.192,1.192,0,0,1-1.539,0A1.1,1.1,0,0,1,2331.747,5269.976Zm1.993,14.284H2331.9v-11.238h1.838Z" fill="#00223d"/>
        <path id="Trazado_9652" data-name="Trazado 9652" d="M2345.463,5281.194a2.748,2.748,0,0,1-1.262,2.42,6.291,6.291,0,0,1-3.543.851,8.226,8.226,0,0,1-3.763-.707v-1.58a9.532,9.532,0,0,0,1.876.646,8.4,8.4,0,0,0,1.932.236,4.67,4.67,0,0,0,2.214-.425,1.389,1.389,0,0,0,.775-1.3,1.375,1.375,0,0,0-.615-1.123,9.941,9.941,0,0,0-2.4-1.1,13.434,13.434,0,0,1-2.408-1.021,3.177,3.177,0,0,1-1.063-.989,2.436,2.436,0,0,1-.348-1.323,2.47,2.47,0,0,1,1.206-2.168,5.964,5.964,0,0,1,3.31-.795,10.349,10.349,0,0,1,3.83.738l-.653,1.384a9.381,9.381,0,0,0-3.31-.7,4.058,4.058,0,0,0-1.97.379,1.161,1.161,0,0,0-.664,1.046,1.209,1.209,0,0,0,.249.769,2.413,2.413,0,0,0,.8.6,18.53,18.53,0,0,0,2.126.831,8.141,8.141,0,0,1,2.917,1.466A2.485,2.485,0,0,1,2345.463,5281.194Z" fill="#00223d"/>
        <path id="Trazado_9653" data-name="Trazado 9653" d="M2352.371,5283.06a7.05,7.05,0,0,0,1.66-.205v1.3a3.556,3.556,0,0,1-.88.221,7.11,7.11,0,0,1-1.046.087q-3.52,0-3.52-3.435v-6.686h-1.738v-.82l1.738-.707.775-2.4h1.062v2.6h3.521v1.322h-3.521v6.614a2.162,2.162,0,0,0,.521,1.559A1.882,1.882,0,0,0,2352.371,5283.06Z" fill="#00223d"/>
        <path id="Trazado_9654" data-name="Trazado 9654" d="M2361.99,5272.817a7.759,7.759,0,0,1,1.451.123l-.255,1.579a6.7,6.7,0,0,0-1.328-.154,3.341,3.341,0,0,0-2.519,1.107,3.864,3.864,0,0,0-1.046,2.759v6.029h-1.837v-11.238h1.516l.21,2.081h.089a5.1,5.1,0,0,1,1.627-1.692A3.876,3.876,0,0,1,2361.99,5272.817Z" fill="#00223d"/>
        <path id="Trazado_9655" data-name="Trazado 9655" d="M2373.171,5284.26l-.365-1.6h-.089a5.026,5.026,0,0,1-1.81,1.431,5.913,5.913,0,0,1-2.253.374,4.263,4.263,0,0,1-2.828-.861,3.027,3.027,0,0,1-1.024-2.451q0-3.4,5.878-3.568l2.059-.062v-.7a2.708,2.708,0,0,0-.614-1.954,2.648,2.648,0,0,0-1.965-.63,8.51,8.51,0,0,0-3.432.861l-.564-1.3a9.072,9.072,0,0,1,1.965-.708,9.2,9.2,0,0,1,2.142-.256,4.879,4.879,0,0,1,3.216.892,3.567,3.567,0,0,1,1.046,2.861v7.67Zm-4.151-1.2a3.915,3.915,0,0,0,2.7-.871,3.1,3.1,0,0,0,.979-2.441v-1.015l-1.837.072a7.118,7.118,0,0,0-3.161.631,1.866,1.866,0,0,0-.969,1.738,1.688,1.688,0,0,0,.6,1.4A2.637,2.637,0,0,0,2369.02,5283.06Z" fill="#00223d"/>
        <path id="Trazado_9656" data-name="Trazado 9656" d="M2382.238,5283.06a7.069,7.069,0,0,0,1.66-.205v1.3a3.568,3.568,0,0,1-.88.221,7.113,7.113,0,0,1-1.046.087q-3.52,0-3.52-3.435v-6.686h-1.738v-.82l1.738-.707.775-2.4h1.062v2.6h3.521v1.322h-3.521v6.614a2.166,2.166,0,0,0,.521,1.559A1.882,1.882,0,0,0,2382.238,5283.06Z" fill="#00223d"/>
        <path id="Trazado_9657" data-name="Trazado 9657" d="M2386.167,5269.976a1.084,1.084,0,0,1,.31-.856,1.216,1.216,0,0,1,1.539,0,1.064,1.064,0,0,1,.321.851,1.079,1.079,0,0,1-.321.856,1.192,1.192,0,0,1-1.539,0A1.1,1.1,0,0,1,2386.167,5269.976Zm1.993,14.284h-1.838v-11.238h1.838Z" fill="#00223d"/>
        <path id="Trazado_9658" data-name="Trazado 9658" d="M2394.714,5284.26l-4.606-11.238h1.971l2.612,6.665a29.579,29.579,0,0,1,1.041,3.035h.089a21.579,21.579,0,0,1,.769-2.251q.648-1.707,2.906-7.449h1.97l-4.6,11.238Z" fill="#00223d"/>
        <path id="Trazado_9659" data-name="Trazado 9659" d="M2413.887,5278.631a5.912,5.912,0,0,1-1.495,4.291,5.478,5.478,0,0,1-4.129,1.543,5.809,5.809,0,0,1-2.889-.707,4.812,4.812,0,0,1-1.949-2.031,6.641,6.641,0,0,1-.686-3.1,5.9,5.9,0,0,1,1.484-4.281,5.461,5.461,0,0,1,4.118-1.533,5.339,5.339,0,0,1,4.046,1.568A5.89,5.89,0,0,1,2413.887,5278.631Zm-9.244,0a5.045,5.045,0,0,0,.93,3.281,3.891,3.891,0,0,0,5.474,0,5.02,5.02,0,0,0,.936-3.286,4.942,4.942,0,0,0-.936-3.256,3.406,3.406,0,0,0-2.762-1.113,3.349,3.349,0,0,0-2.723,1.1A4.989,4.989,0,0,0,2404.643,5278.631Z" fill="#00223d"/>
        <path id="Trazado_9660" data-name="Trazado 9660" d="M2424.935,5281.194a2.748,2.748,0,0,1-1.262,2.42,6.3,6.3,0,0,1-3.543.851,8.232,8.232,0,0,1-3.764-.707v-1.58a9.541,9.541,0,0,0,1.877.646,8.394,8.394,0,0,0,1.932.236,4.662,4.662,0,0,0,2.213-.425,1.407,1.407,0,0,0,.161-2.42,9.958,9.958,0,0,0-2.4-1.1,13.433,13.433,0,0,1-2.407-1.021,3.166,3.166,0,0,1-1.063-.989,2.428,2.428,0,0,1-.349-1.323,2.469,2.469,0,0,1,1.207-2.168,5.962,5.962,0,0,1,3.31-.795,10.347,10.347,0,0,1,3.83.738l-.653,1.384a9.385,9.385,0,0,0-3.31-.7,4.063,4.063,0,0,0-1.971.379,1.163,1.163,0,0,0-.664,1.046,1.209,1.209,0,0,0,.249.769,2.42,2.42,0,0,0,.8.6,18.569,18.569,0,0,0,2.125.831,8.132,8.132,0,0,1,2.917,1.466A2.482,2.482,0,0,1,2424.935,5281.194Z" fill="#00223d"/>
      </g>
    </g>
  </g>
</svg>
