<svg xmlns="http://www.w3.org/2000/svg" width="336" height="348" viewBox="0 0 336 348">
  <g id="Grupo_9469" data-name="Grupo 9469" transform="translate(-32.833 -9632.171)">
    <path id="Trazado_9897" data-name="Trazado 9897" d="M116.833,9740.171v-84a12,12,0,0,0-24,0v108h-12l-12-36-6.531-19.59a23.994,23.994,0,0,0-22.766-16.41h-6.7l12,36,6,36,18,48,12,36v132h96v-132l12-36v-120a12,12,0,0,0-24,0v-36a12,12,0,0,0-24,0v-12a12,12,0,1,0-24,0Zm0,0" fill="#f7cca9"/>
    <path id="Trazado_9898" data-name="Trazado 9898" d="M116.833,9740.171v-84a12,12,0,0,0-24,0v108h-12l-12-36-6.531-19.59a23.994,23.994,0,0,0-22.766-16.41h-6.7l12,36,6,36,18,48,12,36-12,60h114l-6-60,12-36v-120a12,12,0,0,0-24,0v-36a12,12,0,0,0-24,0v-12a12,12,0,1,0-24,0Zm0,0" fill="#d4c8c4"/>
    <path id="Trazado_9899" data-name="Trazado 9899" d="M236.833,9740.171v-48a12,12,0,0,0-24,0v120l12,36v132h96v-132l12-36,18-48,6-36,12-36h-6.7a23.994,23.994,0,0,0-22.766,16.41l-6.531,19.59-12,36h-12v-108a12,12,0,0,0-24,0v84Zm0,0" fill="#f7cca9"/>
    <path id="Trazado_9900" data-name="Trazado 9900" d="M284.833,9740.171v-84a12,12,0,0,1,24,0v108h12l12-36,6.531-19.59a23.994,23.994,0,0,1,22.766-16.41h6.7l-12,36-6,36-18,48-12,36,12,60h-114l6-60-12-36v-120a12,12,0,0,1,24,0v-36a12,12,0,0,1,24,0v-12a12,12,0,0,1,24,0Zm0,0" fill="#d4c8c4"/>
    <path id="Trazado_9901" data-name="Trazado 9901" d="M122.833,9818.171a6,6,0,0,1-6-6,42.05,42.05,0,0,0-42-42,6,6,0,0,1,0-12,54.064,54.064,0,0,1,54,54,6,6,0,0,1-6,6Zm0,0" fill="#9f9693"/>
    <path id="Trazado_9902" data-name="Trazado 9902" d="M110.833,9896.171v12h-12v-12a6,6,0,0,1,12,0Zm0,0" fill="#9f9693"/>
    <path id="Trazado_9903" data-name="Trazado 9903" d="M134.833,9896.171v12h-12v-12a6,6,0,1,1,12,0Zm0,0" fill="#9f9693"/>
    <path id="Trazado_9904" data-name="Trazado 9904" d="M158.833,9896.171v12h-12v-12a6,6,0,0,1,12,0Zm0,0" fill="#9f9693"/>
    <path id="Trazado_9905" data-name="Trazado 9905" d="M116.833,9746.171a6,6,0,0,1-6-6v-78a6,6,0,0,1,12,0v78a6,6,0,0,1-6,6Zm0,0" fill="#9f9693"/>
    <path id="Trazado_9906" data-name="Trazado 9906" d="M140.833,9746.171a6,6,0,0,1-6-6v-78a6,6,0,0,1,12,0v78a6,6,0,0,1-6,6Zm0,0" fill="#9f9693"/>
    <path id="Trazado_9907" data-name="Trazado 9907" d="M164.833,9746.171a6,6,0,0,1-6-6v-42a6,6,0,0,1,12,0v42a6,6,0,0,1-6,6Zm0,0" fill="#9f9693"/>
    <path id="Trazado_9908" data-name="Trazado 9908" d="M278.833,9818.171a6,6,0,0,0,6-6,42.05,42.05,0,0,1,42-42,6,6,0,0,0,0-12,54.064,54.064,0,0,0-54,54,6,6,0,0,0,6,6Zm0,0" fill="#9f9693"/>
    <path id="Trazado_9909" data-name="Trazado 9909" d="M284.833,9746.171a6,6,0,0,0,6-6v-78a6,6,0,0,0-12,0v78a6,6,0,0,0,6,6Zm0,0" fill="#9f9693"/>
    <path id="Trazado_9910" data-name="Trazado 9910" d="M260.833,9746.171a6,6,0,0,0,6-6v-78a6,6,0,0,0-12,0v78a6,6,0,0,0,6,6Zm0,0" fill="#9f9693"/>
    <path id="Trazado_9911" data-name="Trazado 9911" d="M236.833,9746.171a6,6,0,0,0,6-6v-42a6,6,0,0,0-12,0v42a6,6,0,0,0,6,6Zm0,0" fill="#9f9693"/>
    <path id="Trazado_9912" data-name="Trazado 9912" d="M254.833,9896.171v12h-12v-12a6,6,0,0,1,12,0Zm0,0" fill="#9f9693"/>
    <path id="Trazado_9913" data-name="Trazado 9913" d="M278.833,9896.171v12h-12v-12a6,6,0,0,1,12,0Zm0,0" fill="#9f9693"/>
    <path id="Trazado_9914" data-name="Trazado 9914" d="M302.833,9896.171v12h-12v-12a6,6,0,0,1,12,0Zm0,0" fill="#9f9693"/>
  </g>
</svg>
