<svg xmlns="http://www.w3.org/2000/svg" xmlns:xlink="http://www.w3.org/1999/xlink" width="586.596" height="500.767" viewBox="0 0 586.596 500.767">
  <defs>
    <linearGradient id="linear-gradient" y1="0.5" x2="1" y2="0.5" gradientUnits="objectBoundingBox">
      <stop offset="0" stop-color="#fcee21"/>
      <stop offset="1" stop-color="#fbb03b"/>
    </linearGradient>
    <linearGradient id="linear-gradient-2" x1="-0.051" y1="7.302" x2="0.951" y2="7.302" xlink:href="#linear-gradient"/>
    <linearGradient id="linear-gradient-3" x1="-0.207" y1="14.168" x2="0.805" y2="14.168" xlink:href="#linear-gradient"/>
    <linearGradient id="linear-gradient-4" x1="-0.473" y1="18.962" x2="0.557" y2="18.962" xlink:href="#linear-gradient"/>
    <linearGradient id="linear-gradient-5" x1="-0.859" y1="22.601" x2="0.197" y2="22.601" xlink:href="#linear-gradient"/>
    <linearGradient id="linear-gradient-6" x1="-1.38" y1="25.592" x2="-0.288" y2="25.592" xlink:href="#linear-gradient"/>
    <linearGradient id="linear-gradient-7" x1="-2.056" y1="26.805" x2="-0.919" y2="26.805" xlink:href="#linear-gradient"/>
    <linearGradient id="linear-gradient-8" x1="-2.919" y1="27.714" x2="-1.722" y2="27.714" xlink:href="#linear-gradient"/>
    <linearGradient id="linear-gradient-9" x1="-0.262" y1="8.756" x2="0.74" y2="8.756" xlink:href="#linear-gradient"/>
    <linearGradient id="linear-gradient-10" x1="-0.631" y1="11.333" x2="0.381" y2="11.333" xlink:href="#linear-gradient"/>
    <linearGradient id="linear-gradient-11" x1="-1.116" y1="12.599" x2="-0.087" y2="12.599" xlink:href="#linear-gradient"/>
    <linearGradient id="linear-gradient-12" x1="-1.73" y1="13.446" x2="-0.674" y2="13.446" xlink:href="#linear-gradient"/>
    <linearGradient id="linear-gradient-13" x1="-2.49" y1="14.126" x2="-1.399" y2="14.126" xlink:href="#linear-gradient"/>
    <linearGradient id="linear-gradient-14" x1="-3.424" y1="13.976" x2="-2.286" y2="13.976" xlink:href="#linear-gradient"/>
    <linearGradient id="linear-gradient-15" x1="-4.567" y1="13.823" x2="-3.37" y2="13.823" xlink:href="#linear-gradient"/>
    <linearGradient id="linear-gradient-16" y1="0.5" x2="1" y2="0.5" gradientUnits="objectBoundingBox">
      <stop offset="0" stop-color="#c69c6d"/>
      <stop offset="0.336" stop-color="#fbb03b"/>
      <stop offset="1" stop-color="#99293f"/>
    </linearGradient>
    <linearGradient id="linear-gradient-18" x1="0.5" y1="-0.115" x2="0.5" y2="1.116" xlink:href="#linear-gradient-16"/>
    <linearGradient id="linear-gradient-19" x1="-68.206" y1="6.722" x2="-68.206" y2="7.953" xlink:href="#linear-gradient-16"/>
  </defs>
  <g id="Grupo_9468" data-name="Grupo 9468" transform="translate(-1497.98 -8973.172)">
    <path id="Trazado_9781" data-name="Trazado 9781" d="M1894.071,9216.463v1.717h-17.193a2.646,2.646,0,0,0-2.645,2.646v.99a2.645,2.645,0,0,0,2.645,2.646h17.193v1.717a2.16,2.16,0,0,0,3.127,1.933l9.716-4.857a2.161,2.161,0,0,0,0-3.866l-9.716-4.857A2.161,2.161,0,0,0,1894.071,9216.463Z" fill="url(#linear-gradient)"/>
    <path id="Trazado_9782" data-name="Trazado 9782" d="M1892.276,9187.079l.158,1.71-17.119,1.587a2.645,2.645,0,0,0-2.39,2.879l.091.985a2.646,2.646,0,0,0,2.879,2.391l17.119-1.588.159,1.71a2.16,2.16,0,0,0,3.292,1.636l9.226-5.733a2.161,2.161,0,0,0-.357-3.85l-10.123-3.939A2.161,2.161,0,0,0,1892.276,9187.079Z" fill="url(#linear-gradient-2)"/>
    <path id="Trazado_9783" data-name="Trazado 9783" d="M1887.775,9157.986l.316,1.688-16.9,3.162a2.644,2.644,0,0,0-2.114,3.086l.182.973a2.645,2.645,0,0,0,3.087,2.115l16.9-3.161.316,1.688a2.161,2.161,0,0,0,3.429,1.324l8.657-6.562a2.161,2.161,0,0,0-.71-3.8l-10.444-2.989A2.162,2.162,0,0,0,1887.775,9157.986Z" fill="url(#linear-gradient-3)"/>
    <path id="Trazado_9784" data-name="Trazado 9784" d="M1880.608,9129.433l.471,1.652-16.536,4.708a2.646,2.646,0,0,0-1.82,3.269l.271.952a2.646,2.646,0,0,0,3.269,1.82l16.536-4.708.47,1.652a2.161,2.161,0,0,0,3.537,1l8.014-7.333a2.16,2.16,0,0,0-1.058-3.717l-10.676-2.013A2.161,2.161,0,0,0,1880.608,9129.433Z" fill="url(#linear-gradient-4)"/>
    <path id="Trazado_9785" data-name="Trazado 9785" d="M1870.835,9101.664l.621,1.6-16.03,6.216a2.646,2.646,0,0,0-1.511,3.423l.358.923a2.645,2.645,0,0,0,3.424,1.51l16.03-6.214.62,1.6a2.161,2.161,0,0,0,3.615.672l7.3-8.042a2.161,2.161,0,0,0-1.4-3.6l-10.816-1.017A2.16,2.16,0,0,0,1870.835,9101.664Z" fill="url(#linear-gradient-5)"/>
    <path id="Trazado_9786" data-name="Trazado 9786" d="M1858.54,9074.916l.766,1.537-15.388,7.668a2.647,2.647,0,0,0-1.188,3.548l.442.886a2.646,2.646,0,0,0,3.548,1.188l15.388-7.668.766,1.537a2.16,2.16,0,0,0,3.66.335l6.53-8.683a2.16,2.16,0,0,0-1.724-3.459l-10.863-.015A2.161,2.161,0,0,0,1858.54,9074.916Z" fill="url(#linear-gradient-6)"/>
    <path id="Trazado_9787" data-name="Trazado 9787" d="M1843.828,9049.417l.905,1.46-14.614,9.056a2.647,2.647,0,0,0-.856,3.643l.522.842a2.645,2.645,0,0,0,3.642.855l14.614-9.057.905,1.46a2.16,2.16,0,0,0,3.676,0l5.7-9.247a2.16,2.16,0,0,0-2.036-3.285l-10.818.988A2.161,2.161,0,0,0,1843.828,9049.417Z" fill="url(#linear-gradient-7)"/>
    <path id="Trazado_9788" data-name="Trazado 9788" d="M1826.824,9025.385l1.036,1.371-13.715,10.366a2.646,2.646,0,0,0-.516,3.706l.6.79a2.646,2.646,0,0,0,3.706.515l13.715-10.367,1.036,1.37a2.16,2.16,0,0,0,3.66-.343l4.822-9.734a2.161,2.161,0,0,0-2.331-3.084l-10.68,1.983A2.16,2.16,0,0,0,1826.824,9025.385Z" fill="url(#linear-gradient-8)"/>
    <path id="Trazado_9789" data-name="Trazado 9789" d="M1892.276,9252.978l.158-1.71-17.119-1.587a2.645,2.645,0,0,1-2.39-2.879l.091-.984a2.646,2.646,0,0,1,2.879-2.392l17.119,1.588.159-1.71a2.161,2.161,0,0,1,3.292-1.636l9.226,5.734a2.16,2.16,0,0,1-.357,3.849l-10.123,3.94A2.161,2.161,0,0,1,1892.276,9252.978Z" fill="url(#linear-gradient-9)"/>
    <path id="Trazado_9790" data-name="Trazado 9790" d="M1887.775,9282.071l.316-1.688-16.9-3.162a2.644,2.644,0,0,1-2.114-3.086l.182-.973a2.646,2.646,0,0,1,3.087-2.115l16.9,3.161.316-1.688a2.16,2.16,0,0,1,3.429-1.323l8.657,6.561a2.161,2.161,0,0,1-.71,3.8l-10.444,2.989A2.161,2.161,0,0,1,1887.775,9282.071Z" fill="url(#linear-gradient-10)"/>
    <path id="Trazado_9791" data-name="Trazado 9791" d="M1880.608,9310.624l.471-1.652-16.536-4.708a2.645,2.645,0,0,1-1.82-3.269l.271-.952a2.646,2.646,0,0,1,3.269-1.82l16.536,4.708.47-1.651a2.161,2.161,0,0,1,3.537-1l8.014,7.333a2.16,2.16,0,0,1-1.058,3.717l-10.676,2.012A2.161,2.161,0,0,1,1880.608,9310.624Z" fill="url(#linear-gradient-11)"/>
    <path id="Trazado_9792" data-name="Trazado 9792" d="M1870.835,9338.393l.621-1.6-16.03-6.215a2.646,2.646,0,0,1-1.511-3.423l.358-.923a2.648,2.648,0,0,1,3.424-1.512l16.03,6.215.62-1.6a2.161,2.161,0,0,1,3.615-.672l7.3,8.042a2.161,2.161,0,0,1-1.4,3.6l-10.816,1.018A2.161,2.161,0,0,1,1870.835,9338.393Z" fill="url(#linear-gradient-12)"/>
    <path id="Trazado_9793" data-name="Trazado 9793" d="M1858.54,9365.141l.766-1.537-15.388-7.668a2.647,2.647,0,0,1-1.188-3.548l.442-.886a2.645,2.645,0,0,1,3.548-1.187l15.388,7.668.766-1.537a2.16,2.16,0,0,1,3.66-.335l6.53,8.682a2.16,2.16,0,0,1-1.724,3.459l-10.863.015A2.161,2.161,0,0,1,1858.54,9365.141Z" fill="url(#linear-gradient-13)"/>
    <path id="Trazado_9794" data-name="Trazado 9794" d="M1843.828,9390.64l.905-1.46-14.614-9.056a2.646,2.646,0,0,1-.856-3.642l.522-.843a2.645,2.645,0,0,1,3.642-.854l14.614,9.056.905-1.46a2.16,2.16,0,0,1,3.676,0l5.7,9.247a2.16,2.16,0,0,1-2.036,3.285l-10.818-.988A2.161,2.161,0,0,1,1843.828,9390.64Z" fill="url(#linear-gradient-14)"/>
    <path id="Trazado_9795" data-name="Trazado 9795" d="M1826.824,9414.672l1.036-1.371-13.715-10.366a2.646,2.646,0,0,1-.516-3.706l.6-.789a2.647,2.647,0,0,1,3.706-.516l13.715,10.367,1.036-1.37a2.161,2.161,0,0,1,3.66.343l4.822,9.734a2.161,2.161,0,0,1-2.331,3.084l-10.68-1.983A2.16,2.16,0,0,1,1826.824,9414.672Z" fill="url(#linear-gradient-15)"/>
    <path id="Trazado_9796" data-name="Trazado 9796" d="M1564.854,9187.884l20.665-30.163-1.011,36.55,34.448-12.257-22.3,28.975,35.073,10.332-35.073,10.333,22.3,28.975-34.448-12.257,1.011,36.55-20.665-30.164-20.665,30.164,1.011-36.55-34.448,12.257,22.3-28.975-35.073-10.333,35.073-10.332-22.3-28.975,34.448,12.257-1.011-36.55Z" fill="#fcee21" fill-rule="evenodd"/>
    <path id="Trazado_9797" data-name="Trazado 9797" d="M1564.854,9201.9l12-17.521-.588,21.231,20.011-7.12-12.955,16.831,20.374,6-20.374,6,12.955,16.831-20.011-7.12.588,21.231-12-17.521-12,17.521.588-21.231-20.011,7.12,12.955-16.831-20.374-6,20.374-6-12.955-16.831,20.011,7.12-.588-21.231Z" fill="#fdf57a" fill-rule="evenodd"/>
    <rect id="Rect치ngulo_6144" data-name="Rect치ngulo 6144" width="20.4" height="177.6" transform="translate(1555.4 8973.172)" fill="url(#linear-gradient-16)"/>
    <rect id="Rect치ngulo_6145" data-name="Rect치ngulo 6145" width="20.4" height="180.67" transform="translate(1555.4 9293.269)" fill="url(#linear-gradient-16)"/>
    <ellipse id="Elipse_154" data-name="Elipse 154" cx="10.2" cy="5.85" rx="10.2" ry="5.85" transform="translate(1555.4 9287.419)" fill="url(#linear-gradient-18)"/>
    <ellipse id="Elipse_155" data-name="Elipse 155" cx="10.2" cy="5.85" rx="10.2" ry="5.85" transform="translate(1555.4 9144.921)" fill="url(#linear-gradient-19)"/>
    <g id="Grupo_9453" data-name="Grupo 9453">
      <path id="Trazado_9798" data-name="Trazado 9798" d="M1541.462,9217.881h-.028l-1.667.839-.294-1.3,2.227-1.092h1.429v9.1h-1.667Z" fill="red"/>
      <path id="Trazado_9799" data-name="Trazado 9799" d="M1552.061,9217.755h-3.5l-.266,1.82a4.345,4.345,0,0,1,.645-.042,4.026,4.026,0,0,1,2.213.589,2.61,2.61,0,0,1,1.191,2.31c0,1.738-1.443,3.153-3.671,3.153a5.252,5.252,0,0,1-2.423-.533l.35-1.3a4.615,4.615,0,0,0,2,.475,1.774,1.774,0,0,0,1.974-1.651c0-1.051-.77-1.737-2.577-1.737a9.706,9.706,0,0,0-1.247.084l.589-4.594h4.72Z" fill="red"/>
      <path id="Trazado_9800" data-name="Trazado 9800" d="M1560.2,9220.808c0,2.942-1.149,4.777-3.334,4.777-2.087,0-3.208-1.906-3.222-4.679,0-2.845,1.2-4.734,3.334-4.734C1559.173,9216.172,1560.2,9218.133,1560.2,9220.808Zm-4.819.084c0,2.228.6,3.375,1.541,3.375,1.022,0,1.541-1.231,1.541-3.417,0-2.114-.491-3.361-1.527-3.361C1556.021,9217.488,1555.377,9218.623,1555.377,9220.892Z" fill="red"/>
      <path id="Trazado_9801" data-name="Trazado 9801" d="M1567.7,9220.808c0,2.942-1.149,4.777-3.334,4.777-2.087,0-3.208-1.906-3.222-4.679,0-2.845,1.2-4.734,3.334-4.734C1566.677,9216.172,1567.7,9218.133,1567.7,9220.808Zm-4.819.084c0,2.228.6,3.375,1.541,3.375,1.022,0,1.541-1.231,1.541-3.417,0-2.114-.491-3.361-1.527-3.361C1563.525,9217.488,1562.881,9218.623,1562.881,9220.892Z" fill="red"/>
      <path id="Trazado_9802" data-name="Trazado 9802" d="M1575.2,9220.808c0,2.942-1.149,4.777-3.334,4.777-2.088,0-3.208-1.906-3.222-4.679,0-2.845,1.2-4.734,3.334-4.734C1574.181,9216.172,1575.2,9218.133,1575.2,9220.808Zm-4.819.084c0,2.228.6,3.375,1.541,3.375,1.022,0,1.541-1.231,1.541-3.417,0-2.114-.491-3.361-1.527-3.361C1571.029,9217.488,1570.385,9218.623,1570.385,9220.892Z" fill="red"/>
      <path id="Trazado_9803" data-name="Trazado 9803" d="M1582.972,9217.768a1.993,1.993,0,0,1-2.017,1.99,1.928,1.928,0,0,1-2-1.934,1.991,1.991,0,0,1,2.031-2A1.927,1.927,0,0,1,1582.972,9217.768Zm-3.054.057a1.049,1.049,0,1,0,1.023-1.177A1.084,1.084,0,0,0,1579.918,9217.824Z" fill="red"/>
      <path id="Trazado_9804" data-name="Trazado 9804" d="M1591.08,9225.164a6.246,6.246,0,0,1-2.452.421,4.458,4.458,0,0,1-4.818-4.763,4.759,4.759,0,0,1,5.056-4.986,5.335,5.335,0,0,1,2.283.42l-.364,1.373a4.615,4.615,0,0,0-1.849-.365,3.144,3.144,0,0,0-3.305,3.475,3.084,3.084,0,0,0,3.291,3.4,5.2,5.2,0,0,0,1.877-.336Z" fill="red"/>
    </g>
    <g id="Grupo_9454" data-name="Grupo 9454">
      <path id="Trazado_9805" data-name="Trazado 9805" d="M1628.471,9353.893h-.028l-1.667.841-.294-1.3,2.227-1.091h1.429v9.1h-1.667Z" fill="red"/>
      <path id="Trazado_9806" data-name="Trazado 9806" d="M1639.7,9356.821c0,2.94-1.149,4.775-3.334,4.775-2.087,0-3.208-1.9-3.222-4.678,0-2.844,1.2-4.735,3.334-4.735C1638.678,9352.184,1639.7,9354.145,1639.7,9356.821Zm-4.819.084c0,2.227.6,3.375,1.541,3.375,1.023,0,1.541-1.232,1.541-3.417,0-2.115-.49-3.362-1.527-3.362C1635.527,9353.5,1634.882,9354.635,1634.882,9356.905Z" fill="red"/>
      <path id="Trazado_9807" data-name="Trazado 9807" d="M1647.2,9356.821c0,2.94-1.149,4.775-3.334,4.775-2.087,0-3.208-1.9-3.222-4.678,0-2.844,1.2-4.735,3.334-4.735C1646.182,9352.184,1647.2,9354.145,1647.2,9356.821Zm-4.819.084c0,2.227.6,3.375,1.541,3.375,1.022,0,1.541-1.232,1.541-3.417,0-2.115-.491-3.362-1.527-3.362C1643.03,9353.5,1642.386,9354.635,1642.386,9356.905Z" fill="red"/>
      <path id="Trazado_9808" data-name="Trazado 9808" d="M1654.709,9356.821c0,2.94-1.149,4.775-3.334,4.775-2.087,0-3.208-1.9-3.222-4.678,0-2.844,1.205-4.735,3.334-4.735C1653.686,9352.184,1654.709,9354.145,1654.709,9356.821Zm-4.819.084c0,2.227.6,3.375,1.541,3.375,1.023,0,1.541-1.232,1.541-3.417,0-2.115-.491-3.362-1.527-3.362C1650.534,9353.5,1649.89,9354.635,1649.89,9356.905Z" fill="red"/>
      <path id="Trazado_9809" data-name="Trazado 9809" d="M1662.477,9353.781a1.992,1.992,0,0,1-2.017,1.988,1.927,1.927,0,0,1-2-1.933,1.991,1.991,0,0,1,2.031-2A1.927,1.927,0,0,1,1662.477,9353.781Zm-3.054.056a1.049,1.049,0,1,0,1.023-1.177A1.085,1.085,0,0,0,1659.423,9353.837Z" fill="red"/>
      <path id="Trazado_9810" data-name="Trazado 9810" d="M1670.585,9361.177a6.25,6.25,0,0,1-2.452.42,4.458,4.458,0,0,1-4.818-4.762,4.76,4.76,0,0,1,5.057-4.987,5.358,5.358,0,0,1,2.283.42l-.365,1.373a4.651,4.651,0,0,0-1.848-.363,3.144,3.144,0,0,0-3.306,3.474,3.085,3.085,0,0,0,3.291,3.4,5.241,5.241,0,0,0,1.877-.336Z" fill="red"/>
    </g>
    <g id="Grupo_9455" data-name="Grupo 9455">
      <path id="Trazado_9811" data-name="Trazado 9811" d="M1699.819,9427.571v-1.052l1.079-.993c2.143-1.989,3.152-3.082,3.166-4.286a1.433,1.433,0,0,0-1.625-1.527,3.28,3.28,0,0,0-1.947.756l-.5-1.218a4.5,4.5,0,0,1,2.8-.939,2.7,2.7,0,0,1,3,2.761c0,1.6-1.149,2.885-2.746,4.354l-.784.688v.027h3.726v1.43Z" fill="#3fa9f5"/>
      <path id="Trazado_9812" data-name="Trazado 9812" d="M1713.753,9422.949c0,2.94-1.149,4.775-3.334,4.775-2.087,0-3.208-1.9-3.222-4.678,0-2.844,1.2-4.735,3.334-4.735C1712.73,9418.312,1713.753,9420.273,1713.753,9422.949Zm-4.819.084c0,2.227.6,3.375,1.541,3.375,1.023,0,1.541-1.232,1.541-3.417,0-2.115-.491-3.362-1.527-3.362C1709.578,9419.629,1708.934,9420.763,1708.934,9423.033Z" fill="#3fa9f5"/>
      <path id="Trazado_9813" data-name="Trazado 9813" d="M1721.257,9422.949c0,2.94-1.149,4.775-3.334,4.775-2.087,0-3.208-1.9-3.222-4.678,0-2.844,1.2-4.735,3.334-4.735C1720.234,9418.312,1721.257,9420.273,1721.257,9422.949Zm-4.819.084c0,2.227.6,3.375,1.541,3.375,1.022,0,1.541-1.232,1.541-3.417,0-2.115-.491-3.362-1.527-3.362C1717.082,9419.629,1716.438,9420.763,1716.438,9423.033Z" fill="#3fa9f5"/>
      <path id="Trazado_9814" data-name="Trazado 9814" d="M1728.761,9422.949c0,2.94-1.149,4.775-3.334,4.775-2.087,0-3.208-1.9-3.222-4.678,0-2.844,1.205-4.735,3.334-4.735C1727.738,9418.312,1728.761,9420.273,1728.761,9422.949Zm-4.819.084c0,2.227.6,3.375,1.541,3.375,1.022,0,1.541-1.232,1.541-3.417,0-2.115-.491-3.362-1.527-3.362C1724.586,9419.629,1723.942,9420.763,1723.942,9423.033Z" fill="#3fa9f5"/>
      <path id="Trazado_9815" data-name="Trazado 9815" d="M1733.055,9423.018c0-.9-.028-1.625-.056-2.268h1.513l.084,1.05h.028a2.656,2.656,0,0,1,2.339-1.205c1.569,0,2.872,1.346,2.872,3.475,0,2.466-1.555,3.655-3.11,3.655a2.239,2.239,0,0,1-1.919-.91h-.028v3.529h-1.723Zm1.723,1.7a2.631,2.631,0,0,0,.042.477,1.573,1.573,0,0,0,1.527,1.2c1.092,0,1.737-.909,1.737-2.255,0-1.205-.589-2.185-1.695-2.185a1.633,1.633,0,0,0-1.555,1.273,2.344,2.344,0,0,0-.056.436Z" fill="#3fa9f5"/>
      <path id="Trazado_9816" data-name="Trazado 9816" d="M1741.175,9425.974a3.718,3.718,0,0,0,1.737.5c.756,0,1.092-.321,1.092-.77s-.28-.687-1.12-.994c-1.331-.449-1.877-1.177-1.877-1.99,0-1.205.994-2.129,2.577-2.129a3.926,3.926,0,0,1,1.821.407l-.35,1.2a3.015,3.015,0,0,0-1.443-.392c-.616,0-.952.308-.952.729s.322.63,1.19.952c1.247.434,1.807,1.063,1.821,2.073,0,1.246-.966,2.143-2.773,2.143a4.409,4.409,0,0,1-2.073-.476Z" fill="#3fa9f5"/>
      <path id="Trazado_9817" data-name="Trazado 9817" d="M1748.918,9418.844a.967.967,0,1,1-.967-.937A.921.921,0,0,1,1748.918,9418.844Zm-1.835,8.728v-6.821h1.723v6.821Z" fill="#3fa9f5"/>
    </g>
    <g id="Grupo_9456" data-name="Grupo 9456">
      <path id="Trazado_9818" data-name="Trazado 9818" d="M1778.639,9360.716h-.028l-1.667.839-.294-1.3,2.227-1.092h1.429v9.1h-1.667Z" fill="#3fa9f5"/>
      <path id="Trazado_9819" data-name="Trazado 9819" d="M1788.973,9360.393a4.873,4.873,0,0,0-.869.042,3.205,3.205,0,0,0-3.054,2.648h.042a2.622,2.622,0,0,1,2.045-.883,2.744,2.744,0,0,1,2.788,2.97,3.164,3.164,0,0,1-3.208,3.25c-2.213,0-3.432-1.681-3.432-3.937a5.488,5.488,0,0,1,1.583-4.062,5.084,5.084,0,0,1,3.236-1.344,3.875,3.875,0,0,1,.869-.043Zm-.8,4.874a1.589,1.589,0,0,0-1.583-1.806,1.674,1.674,0,0,0-1.485.938,1.182,1.182,0,0,0-.112.547c.028,1.2.589,2.185,1.723,2.185C1787.6,9367.131,1788.174,9366.36,1788.174,9365.267Z" fill="#3fa9f5"/>
      <path id="Trazado_9820" data-name="Trazado 9820" d="M1796.743,9360.59h-3.5l-.266,1.82a4.34,4.34,0,0,1,.644-.042,4.026,4.026,0,0,1,2.213.589,2.607,2.607,0,0,1,1.191,2.31c0,1.738-1.443,3.153-3.67,3.153a5.248,5.248,0,0,1-2.423-.533l.35-1.3a4.61,4.61,0,0,0,2,.475,1.775,1.775,0,0,0,1.975-1.651c0-1.051-.77-1.737-2.578-1.737a9.689,9.689,0,0,0-1.246.084l.588-4.594h4.721Z" fill="#3fa9f5"/>
      <path id="Trazado_9821" data-name="Trazado 9821" d="M1807.957,9358.32v8.025c0,.7.028,1.457.056,1.919h-1.527l-.084-1.078h-.028a2.448,2.448,0,0,1-2.213,1.233c-1.639,0-2.928-1.387-2.928-3.489-.014-2.282,1.415-3.641,3.054-3.641a2.168,2.168,0,0,1,1.919.882h.028v-3.852Zm-1.723,5.967a2.581,2.581,0,0,0-.042-.462,1.512,1.512,0,0,0-1.485-1.205c-1.107,0-1.723.98-1.723,2.241s.616,2.172,1.709,2.172a1.521,1.521,0,0,0,1.485-1.219,1.926,1.926,0,0,0,.056-.506Z" fill="#3fa9f5"/>
      <path id="Trazado_9822" data-name="Trazado 9822" d="M1809.8,9358.32h1.723v4.063h.028a2.466,2.466,0,0,1,2.186-1.093c1.666,0,2.857,1.387,2.843,3.46,0,2.451-1.555,3.67-3.1,3.67a2.348,2.348,0,0,1-2.158-1.177h-.028l-.084,1.021h-1.471c.028-.462.056-1.218.056-1.919Zm1.723,7.13a1.9,1.9,0,0,0,.042.406,1.574,1.574,0,0,0,1.527,1.2c1.079,0,1.737-.854,1.737-2.24,0-1.2-.574-2.185-1.723-2.185a1.6,1.6,0,0,0-1.527,1.26,2.079,2.079,0,0,0-.056.448Z" fill="#3fa9f5"/>
    </g>
    <g id="Grupo_9457" data-name="Grupo 9457">
      <path id="Trazado_9823" data-name="Trazado 9823" d="M1618.81,9066.633a14.787,14.787,0,0,1,2.634-.2,4.172,4.172,0,0,1,2.773.786,2.748,2.748,0,0,1,.925,2.131,2.966,2.966,0,0,1-.8,2.174,4.148,4.148,0,0,1-2.983,1.044,3.736,3.736,0,0,1-.841-.071v3.645h-1.709Zm1.709,4.476a2.863,2.863,0,0,0,.841.085c1.288,0,2.073-.657,2.073-1.772,0-1.073-.728-1.63-1.919-1.63a4.665,4.665,0,0,0-.995.086Z" fill="#99293f"/>
      <path id="Trazado_9824" data-name="Trazado 9824" d="M1631.567,9074.468a9.577,9.577,0,0,0,.112,1.672h-1.555l-.126-.771h-.042a2.47,2.47,0,0,1-2.017.93,2.045,2.045,0,0,1-2.143-2.074c0-1.743,1.527-2.644,4.048-2.631v-.114c0-.456-.182-1.215-1.387-1.215a3.54,3.54,0,0,0-1.834.516l-.337-1.145a4.835,4.835,0,0,1,2.466-.615c2.185,0,2.815,1.415,2.815,2.946Zm-1.681-1.729c-1.218-.016-2.381.242-2.381,1.3a.914.914,0,0,0,.981,1,1.417,1.417,0,0,0,1.358-.958,1.216,1.216,0,0,0,.042-.387Z" fill="#99293f"/>
      <path id="Trazado_9825" data-name="Trazado 9825" d="M1633.384,9071.423c0-.945-.014-1.63-.056-2.246h1.485l.07,1.316h.042a2.046,2.046,0,0,1,1.877-1.474,1.786,1.786,0,0,1,.406.044v1.645a2.58,2.58,0,0,0-.518-.043,1.526,1.526,0,0,0-1.541,1.329,3.11,3.11,0,0,0-.042.529v3.616h-1.723Z" fill="#99293f"/>
      <path id="Trazado_9826" data-name="Trazado 9826" d="M1640.665,9067.39v1.787h1.639v1.316h-1.639v3.074c0,.857.224,1.285.883,1.285a2.19,2.19,0,0,0,.672-.07l.028,1.33a3.728,3.728,0,0,1-1.247.186,1.951,1.951,0,0,1-1.485-.573,2.78,2.78,0,0,1-.546-1.958v-3.273H1638v-1.316h.966v-1.3Z" fill="#99293f"/>
      <path id="Trazado_9827" data-name="Trazado 9827" d="M1643.6,9076.14v-6.963h1.723v6.963Zm2.969-9.979-1.709,2.116h-1.19l1.205-2.116Z" fill="#99293f"/>
      <path id="Trazado_9828" data-name="Trazado 9828" d="M1652.2,9075.926a4.918,4.918,0,0,1-1.934.357,3.32,3.32,0,0,1-3.515-3.561,3.551,3.551,0,0,1,3.8-3.7,4.511,4.511,0,0,1,1.667.315l-.309,1.33a2.776,2.776,0,0,0-1.3-.273,2.259,2.259,0,0,0,0,4.5,3.367,3.367,0,0,0,1.358-.271Z" fill="#99293f"/>
      <path id="Trazado_9829" data-name="Trazado 9829" d="M1659.581,9074.052c0,.831.028,1.517.056,2.088h-1.5l-.084-1.044h-.042a2.484,2.484,0,0,1-2.2,1.2c-1.233,0-2.367-.758-2.367-3.032v-4.089h1.723v3.79c0,1.158.364,1.9,1.274,1.9a1.4,1.4,0,0,0,1.317-.943,1.3,1.3,0,0,0,.1-.544v-4.2h1.723Z" fill="#99293f"/>
      <path id="Trazado_9830" data-name="Trazado 9830" d="M1661.44,9065.989h1.723v10.15h-1.723Z" fill="#99293f"/>
      <path id="Trazado_9831" data-name="Trazado 9831" d="M1670.332,9074.468a9.577,9.577,0,0,0,.112,1.672h-1.555l-.126-.771h-.042a2.47,2.47,0,0,1-2.017.93,2.045,2.045,0,0,1-2.143-2.074c0-1.743,1.527-2.644,4.048-2.631v-.114c0-.456-.182-1.215-1.386-1.215a3.548,3.548,0,0,0-1.836.516l-.336-1.145a4.838,4.838,0,0,1,2.466-.615c2.185,0,2.815,1.415,2.815,2.946Zm-1.681-1.729c-1.218-.016-2.381.242-2.381,1.3a.914.914,0,0,0,.98,1,1.417,1.417,0,0,0,1.359-.958,1.216,1.216,0,0,0,.042-.387Z" fill="#99293f"/>
      <path id="Trazado_9832" data-name="Trazado 9832" d="M1672.079,9074.51a3.668,3.668,0,0,0,1.737.516c.756,0,1.093-.329,1.093-.786,0-.473-.28-.7-1.121-1.017-1.331-.457-1.877-1.2-1.877-2.029a2.289,2.289,0,0,1,2.577-2.174,3.879,3.879,0,0,1,1.822.415l-.351,1.23a2.961,2.961,0,0,0-1.442-.4c-.617,0-.953.315-.953.744s.322.644,1.191.973c1.246.442,1.807,1.086,1.821,2.114,0,1.273-.967,2.188-2.774,2.188a4.338,4.338,0,0,1-2.073-.485Z" fill="#99293f"/>
      <path id="Trazado_9833" data-name="Trazado 9833" d="M1628.362,9083.147v8.192c0,.714.028,1.487.055,1.959h-1.526l-.084-1.1h-.028a2.442,2.442,0,0,1-2.214,1.258c-1.639,0-2.927-1.415-2.927-3.56-.014-2.331,1.415-3.719,3.054-3.719a2.153,2.153,0,0,1,1.919.9h.028v-3.932Zm-1.723,6.091a2.8,2.8,0,0,0-.042-.473,1.519,1.519,0,0,0-1.485-1.229c-1.107,0-1.723,1-1.723,2.287s.616,2.217,1.709,2.217a1.527,1.527,0,0,0,1.484-1.244,2,2,0,0,0,.057-.515Z" fill="#99293f"/>
      <path id="Trazado_9834" data-name="Trazado 9834" d="M1631.425,9090.31a1.858,1.858,0,0,0,2.1,1.8,5.407,5.407,0,0,0,1.891-.314l.252,1.2a6.027,6.027,0,0,1-2.381.442,3.26,3.26,0,0,1-3.516-3.517c0-1.931,1.148-3.747,3.334-3.747,2.213,0,2.941,1.859,2.941,3.39a4.379,4.379,0,0,1-.056.742Zm3-1.229a1.488,1.488,0,0,0-1.414-1.7,1.706,1.706,0,0,0-1.583,1.7Z" fill="#99293f"/>
      <path id="Trazado_9835" data-name="Trazado 9835" d="M1645.342,9093.084a4.89,4.89,0,0,1-1.933.357,3.32,3.32,0,0,1-3.515-3.56,3.551,3.551,0,0,1,3.8-3.7,4.5,4.5,0,0,1,1.666.315l-.308,1.33a2.766,2.766,0,0,0-1.3-.272,2.258,2.258,0,0,0,0,4.5,3.353,3.353,0,0,0,1.358-.271Z" fill="#99293f"/>
      <path id="Trazado_9836" data-name="Trazado 9836" d="M1652.973,9089.753a3.415,3.415,0,0,1-3.5,3.7,3.334,3.334,0,0,1-3.418-3.589,3.405,3.405,0,0,1,3.53-3.689A3.31,3.31,0,0,1,1652.973,9089.753Zm-5.141.071c0,1.345.659,2.358,1.695,2.358.981,0,1.667-.972,1.667-2.387,0-1.087-.476-2.345-1.653-2.345C1648.323,9087.451,1647.832,9088.666,1647.832,9089.824Z" fill="#99293f"/>
      <path id="Trazado_9837" data-name="Trazado 9837" d="M1654.384,9083.147h1.723v4.146h.027a2.456,2.456,0,0,1,2.186-1.116c1.667,0,2.857,1.415,2.843,3.532,0,2.5-1.555,3.746-3.095,3.746a2.337,2.337,0,0,1-2.158-1.2h-.027l-.085,1.044h-1.47c.028-.472.056-1.245.056-1.959Zm1.723,7.277a1.977,1.977,0,0,0,.042.415,1.581,1.581,0,0,0,1.526,1.229c1.079,0,1.737-.872,1.737-2.288,0-1.229-.574-2.23-1.723-2.23a1.61,1.61,0,0,0-1.526,1.287,2.09,2.09,0,0,0-.056.458Z" fill="#99293f"/>
      <path id="Trazado_9838" data-name="Trazado 9838" d="M1662.574,9088.581c0-.945-.014-1.63-.056-2.245H1664l.07,1.315h.042a2.047,2.047,0,0,1,1.877-1.474,1.847,1.847,0,0,1,.407.043v1.646a2.656,2.656,0,0,0-.519-.043,1.525,1.525,0,0,0-1.54,1.329,3.014,3.014,0,0,0-.042.528v3.618h-1.723Z" fill="#99293f"/>
      <path id="Trazado_9839" data-name="Trazado 9839" d="M1668.65,9090.31a1.859,1.859,0,0,0,2.1,1.8,5.4,5.4,0,0,0,1.891-.314l.252,1.2a6.024,6.024,0,0,1-2.381.442,3.26,3.26,0,0,1-3.516-3.517c0-1.931,1.149-3.747,3.334-3.747,2.213,0,2.942,1.859,2.942,3.39a4.394,4.394,0,0,1-.056.742Zm3-1.229a1.488,1.488,0,0,0-1.415-1.7,1.706,1.706,0,0,0-1.583,1.7Z" fill="#99293f"/>
    </g>
    <g id="Grupo_9458" data-name="Grupo 9458">
      <path id="Trazado_9840" data-name="Trazado 9840" d="M1708.147,9007.754c0,3.165-1.919,4.972-4.51,4.972-2.676,0-4.357-2.045-4.357-4.8,0-2.914,1.835-4.959,4.5-4.959C1706.522,9002.963,1708.147,9005.05,1708.147,9007.754Zm-7.046.126c0,1.932.967,3.46,2.62,3.46s2.605-1.555,2.605-3.531c0-1.778-.882-3.46-2.605-3.46S1701.1,9005.932,1701.1,9007.88Z" fill="#3fa9f5"/>
      <path id="Trazado_9841" data-name="Trazado 9841" d="M1709.6,9007.781c0-.784-.028-1.442-.056-2.03h1.5l.084,1.022h.042a2.506,2.506,0,0,1,2.185-1.178c1.191,0,2.424.771,2.424,2.929v4.048h-1.723v-3.854c0-.979-.364-1.722-1.3-1.722a1.446,1.446,0,0,0-1.345,1.009,1.6,1.6,0,0,0-.084.546v4.021H1709.6Z" fill="#3fa9f5"/>
      <path id="Trazado_9842" data-name="Trazado 9842" d="M1723.9,9002.627v8.026c0,.7.029,1.457.057,1.919h-1.527l-.084-1.078h-.028a2.45,2.45,0,0,1-2.213,1.231c-1.639,0-2.928-1.386-2.928-3.487-.014-2.283,1.415-3.643,3.054-3.643a2.169,2.169,0,0,1,1.919.882h.028v-3.851Zm-1.722,5.966a2.567,2.567,0,0,0-.042-.461,1.511,1.511,0,0,0-1.485-1.205c-1.107,0-1.723.981-1.723,2.241s.616,2.172,1.709,2.172a1.521,1.521,0,0,0,1.485-1.219,1.918,1.918,0,0,0,.056-.5Z" fill="#3fa9f5"/>
      <path id="Trazado_9843" data-name="Trazado 9843" d="M1731.035,9010.933a9.208,9.208,0,0,0,.112,1.64h-1.555l-.126-.757h-.042a2.5,2.5,0,0,1-2.017.91,2.024,2.024,0,0,1-2.143-2.03c0-1.709,1.527-2.593,4.048-2.577v-.112c0-.449-.182-1.19-1.387-1.19a3.616,3.616,0,0,0-1.835.5l-.336-1.12a4.9,4.9,0,0,1,2.465-.6,2.557,2.557,0,0,1,2.816,2.887Zm-1.681-1.694c-1.219-.015-2.381.237-2.381,1.273a.905.905,0,0,0,.98.982,1.413,1.413,0,0,0,1.359-.94,1.16,1.16,0,0,0,.042-.377Z" fill="#3fa9f5"/>
      <path id="Trazado_9844" data-name="Trazado 9844" d="M1742.039,9002.627v8.026c0,.7.028,1.457.056,1.919h-1.526l-.085-1.078h-.028a2.447,2.447,0,0,1-2.213,1.231c-1.639,0-2.927-1.386-2.927-3.487-.014-2.283,1.414-3.643,3.053-3.643a2.166,2.166,0,0,1,1.919.882h.028v-3.851Zm-1.723,5.966a2.578,2.578,0,0,0-.042-.461,1.51,1.51,0,0,0-1.484-1.205c-1.107,0-1.723.981-1.723,2.241s.616,2.172,1.709,2.172a1.519,1.519,0,0,0,1.484-1.219,1.924,1.924,0,0,0,.056-.5Z" fill="#3fa9f5"/>
      <path id="Trazado_9845" data-name="Trazado 9845" d="M1745.1,9009.644a1.847,1.847,0,0,0,2.1,1.766,5.487,5.487,0,0,0,1.891-.309l.252,1.178a6.134,6.134,0,0,1-2.381.434,3.228,3.228,0,0,1-3.517-3.446,3.378,3.378,0,0,1,3.334-3.67c2.214,0,2.942,1.822,2.942,3.32a4.214,4.214,0,0,1-.056.728Zm3-1.2a1.466,1.466,0,0,0-1.415-1.667,1.686,1.686,0,0,0-1.583,1.667Z" fill="#3fa9f5"/>
      <path id="Trazado_9846" data-name="Trazado 9846" d="M1707.662,9029.162a5,5,0,0,1-1.933.349,3.286,3.286,0,0,1-3.516-3.486,3.516,3.516,0,0,1,3.8-3.628,4.6,4.6,0,0,1,1.667.308l-.308,1.3a2.844,2.844,0,0,0-1.3-.266,2.209,2.209,0,0,0,0,4.412,3.411,3.411,0,0,0,1.359-.267Z" fill="#3fa9f5"/>
      <path id="Trazado_9847" data-name="Trazado 9847" d="M1708.933,9019.427h1.723v4.047h.028a2.264,2.264,0,0,1,.855-.77,2.436,2.436,0,0,1,1.19-.308c1.163,0,2.382.771,2.382,2.954v4.021h-1.723v-3.838c0-.981-.364-1.737-1.317-1.737a1.439,1.439,0,0,0-1.345.966,1.557,1.557,0,0,0-.07.52v4.09h-1.723Z" fill="#3fa9f5"/>
      <path id="Trazado_9848" data-name="Trazado 9848" d="M1723.427,9025.9a3.38,3.38,0,0,1-3.5,3.628,3.3,3.3,0,0,1-3.418-3.517,3.368,3.368,0,0,1,3.53-3.613A3.273,3.273,0,0,1,1723.427,9025.9Zm-5.141.069c0,1.317.658,2.312,1.695,2.312.98,0,1.667-.952,1.667-2.339,0-1.064-.477-2.3-1.653-2.3C1718.776,9023.642,1718.286,9024.834,1718.286,9025.968Z" fill="#3fa9f5"/>
      <path id="Trazado_9849" data-name="Trazado 9849" d="M1729.4,9028.433h-.028a2.362,2.362,0,0,1-2.116,1.094c-1.54,0-2.857-1.331-2.857-3.46,0-2.493,1.6-3.67,3.053-3.67a2.174,2.174,0,0,1,1.99,1.051l.028.014.042-.91h1.667c-.029.616-.057,1.26-.057,1.975v7.619H1729.4Zm0-3.066a2.035,2.035,0,0,0-.042-.421,1.511,1.511,0,0,0-1.471-1.19c-1.121,0-1.737.938-1.737,2.228,0,1.245.6,2.185,1.695,2.185a1.513,1.513,0,0,0,1.471-1.134,1.694,1.694,0,0,0,.084-.532Z" fill="#3fa9f5"/>
      <path id="Trazado_9850" data-name="Trazado 9850" d="M1739.078,9027.327c0,.812.028,1.483.056,2.045h-1.5l-.084-1.023h-.042a2.494,2.494,0,0,1-2.2,1.178c-1.232,0-2.367-.742-2.367-2.971v-4h1.723v3.711c0,1.136.364,1.863,1.275,1.863a1.4,1.4,0,0,0,1.316-.924,1.252,1.252,0,0,0,.1-.532v-4.118h1.723Z" fill="#3fa9f5"/>
      <path id="Trazado_9851" data-name="Trazado 9851" d="M1742.155,9026.444a1.847,1.847,0,0,0,2.1,1.765,5.511,5.511,0,0,0,1.891-.308l.252,1.177a6.135,6.135,0,0,1-2.381.433,3.226,3.226,0,0,1-3.516-3.444,3.377,3.377,0,0,1,3.333-3.67c2.214,0,2.942,1.82,2.942,3.319a4.252,4.252,0,0,1-.056.729Zm3-1.2a1.466,1.466,0,0,0-1.415-1.667,1.686,1.686,0,0,0-1.583,1.667Z" fill="#3fa9f5"/>
    </g>
    <g id="Grupo_9459" data-name="Grupo 9459">
      <path id="Trazado_9852" data-name="Trazado 9852" d="M1810.912,8988.283c0,3.165-1.92,4.973-4.511,4.973-2.675,0-4.356-2.045-4.356-4.8,0-2.914,1.835-4.959,4.5-4.959C1809.287,8983.492,1810.912,8985.579,1810.912,8988.283Zm-7.046.126c0,1.933.966,3.46,2.619,3.46s2.606-1.555,2.606-3.53c0-1.78-.883-3.46-2.606-3.46S1803.866,8986.462,1803.866,8988.409Z" fill="#ed694a"/>
      <path id="Trazado_9853" data-name="Trazado 9853" d="M1812.363,8988.31c0-.783-.028-1.441-.056-2.029h1.5l.084,1.021h.042a2.5,2.5,0,0,1,2.185-1.176c1.19,0,2.423.771,2.423,2.927v4.048h-1.723v-3.852c0-.981-.364-1.723-1.3-1.723a1.444,1.444,0,0,0-1.344,1.009,1.6,1.6,0,0,0-.084.546v4.02h-1.723Z" fill="#ed694a"/>
      <path id="Trazado_9854" data-name="Trazado 9854" d="M1826.66,8983.156v8.025c0,.7.028,1.457.056,1.919h-1.527l-.084-1.077h-.028a2.449,2.449,0,0,1-2.213,1.232c-1.639,0-2.928-1.387-2.928-3.489-.014-2.282,1.415-3.641,3.054-3.641a2.168,2.168,0,0,1,1.919.882h.028v-3.852Zm-1.723,5.967a2.581,2.581,0,0,0-.042-.462,1.511,1.511,0,0,0-1.485-1.205c-1.106,0-1.723.98-1.723,2.241s.617,2.172,1.709,2.172a1.52,1.52,0,0,0,1.485-1.219,1.926,1.926,0,0,0,.056-.506Z" fill="#ed694a"/>
      <path id="Trazado_9855" data-name="Trazado 9855" d="M1833.8,8991.463a9.2,9.2,0,0,0,.111,1.638h-1.554l-.126-.757h-.042a2.493,2.493,0,0,1-2.017.912,2.027,2.027,0,0,1-2.144-2.032c0-1.709,1.527-2.591,4.048-2.576v-.112c0-.448-.182-1.191-1.386-1.191a3.612,3.612,0,0,0-1.835.5l-.336-1.12a4.914,4.914,0,0,1,2.465-.6,2.555,2.555,0,0,1,2.816,2.885Zm-1.682-1.7c-1.218-.013-2.381.239-2.381,1.275a.905.905,0,0,0,.981.981,1.414,1.414,0,0,0,1.358-.939,1.163,1.163,0,0,0,.042-.378Z" fill="#ed694a"/>
      <path id="Trazado_9856" data-name="Trazado 9856" d="M1844.8,8983.156v8.025c0,.7.028,1.457.056,1.919h-1.527l-.084-1.077h-.028a2.449,2.449,0,0,1-2.213,1.232c-1.639,0-2.928-1.387-2.928-3.489-.014-2.282,1.415-3.641,3.054-3.641a2.167,2.167,0,0,1,1.919.882h.028v-3.852Zm-1.723,5.967a2.57,2.57,0,0,0-.042-.462,1.512,1.512,0,0,0-1.485-1.205c-1.107,0-1.723.98-1.723,2.241s.616,2.172,1.709,2.172a1.521,1.521,0,0,0,1.485-1.219,1.926,1.926,0,0,0,.056-.506Z" fill="#ed694a"/>
      <path id="Trazado_9857" data-name="Trazado 9857" d="M1847.867,8990.174a1.847,1.847,0,0,0,2.1,1.765,5.531,5.531,0,0,0,1.891-.308l.252,1.176a6.129,6.129,0,0,1-2.381.435,3.227,3.227,0,0,1-3.516-3.445,3.378,3.378,0,0,1,3.334-3.67c2.213,0,2.941,1.821,2.941,3.319a4.255,4.255,0,0,1-.056.729Zm3-1.205a1.466,1.466,0,0,0-1.414-1.667,1.685,1.685,0,0,0-1.583,1.667Z" fill="#ed694a"/>
      <path id="Trazado_9858" data-name="Trazado 9858" d="M1798.328,9000.6a14.822,14.822,0,0,1,2.6-.21,4.4,4.4,0,0,1,2.914.757,2.4,2.4,0,0,1,.812,1.905,2.482,2.482,0,0,1-1.723,2.354v.042a2.339,2.339,0,0,1,1.317,1.819,23.641,23.641,0,0,0,.743,2.635h-1.765a12.049,12.049,0,0,1-.631-2.228c-.28-1.232-.714-1.625-1.695-1.652h-.868v3.88h-1.709Zm1.709,4.16h1.023c1.162,0,1.876-.616,1.876-1.554,0-1.023-.714-1.513-1.834-1.513a4.958,4.958,0,0,0-1.065.084Z" fill="#ed694a"/>
      <path id="Trazado_9859" data-name="Trazado 9859" d="M1811.658,9008.262a9.106,9.106,0,0,0,.113,1.64h-1.555l-.126-.758h-.042a2.493,2.493,0,0,1-2.018.911,2.025,2.025,0,0,1-2.143-2.03c0-1.709,1.527-2.593,4.049-2.577v-.112c0-.449-.182-1.191-1.387-1.191a3.6,3.6,0,0,0-1.835.5l-.336-1.12a4.893,4.893,0,0,1,2.465-.6,2.555,2.555,0,0,1,2.815,2.885Zm-1.68-1.694c-1.219-.015-2.382.237-2.382,1.274a.905.905,0,0,0,.981.981,1.415,1.415,0,0,0,1.359-.938,1.171,1.171,0,0,0,.042-.379Z" fill="#ed694a"/>
      <path id="Trazado_9860" data-name="Trazado 9860" d="M1819.765,8999.956v8.026c0,.7.028,1.457.056,1.919h-1.527l-.084-1.078h-.028a2.449,2.449,0,0,1-2.213,1.231c-1.639,0-2.928-1.386-2.928-3.487-.014-2.283,1.415-3.642,3.054-3.642a2.167,2.167,0,0,1,1.919.881h.028v-3.851Zm-1.723,5.967a2.573,2.573,0,0,0-.042-.462,1.51,1.51,0,0,0-1.485-1.205c-1.106,0-1.723.981-1.723,2.241s.617,2.172,1.709,2.172a1.519,1.519,0,0,0,1.485-1.219,1.924,1.924,0,0,0,.056-.5Z" fill="#ed694a"/>
      <path id="Trazado_9861" data-name="Trazado 9861" d="M1823.445,9001.175a.967.967,0,1,1-.967-.938A.922.922,0,0,1,1823.445,9001.175Zm-1.835,8.727v-6.821h1.722v6.821Z" fill="#ed694a"/>
      <path id="Trazado_9862" data-name="Trazado 9862" d="M1830.488,9008.262a9.208,9.208,0,0,0,.112,1.64h-1.554l-.126-.758h-.042a2.493,2.493,0,0,1-2.017.911,2.026,2.026,0,0,1-2.144-2.03c0-1.709,1.527-2.593,4.048-2.577v-.112c0-.449-.182-1.191-1.386-1.191a3.6,3.6,0,0,0-1.835.5l-.337-1.12a4.9,4.9,0,0,1,2.466-.6,2.555,2.555,0,0,1,2.815,2.885Zm-1.681-1.694c-1.218-.015-2.381.237-2.381,1.274a.906.906,0,0,0,.981.981,1.414,1.414,0,0,0,1.358-.938,1.171,1.171,0,0,0,.042-.379Z" fill="#ed694a"/>
      <path id="Trazado_9863" data-name="Trazado 9863" d="M1837.32,9009.691a4.992,4.992,0,0,1-1.933.35,3.287,3.287,0,0,1-3.516-3.488,3.517,3.517,0,0,1,3.8-3.627,4.6,4.6,0,0,1,1.667.308l-.308,1.3a2.842,2.842,0,0,0-1.3-.267,2.209,2.209,0,0,0,0,4.412,3.45,3.45,0,0,0,1.359-.265Z" fill="#ed694a"/>
      <path id="Trazado_9864" data-name="Trazado 9864" d="M1840.426,9001.175a.967.967,0,1,1-.966-.938A.921.921,0,0,1,1840.426,9001.175Zm-1.835,8.727v-6.821h1.723v6.821Z" fill="#ed694a"/>
      <path id="Trazado_9865" data-name="Trazado 9865" d="M1848.661,9006.427a3.38,3.38,0,0,1-3.5,3.628,3.3,3.3,0,0,1-3.418-3.516,3.368,3.368,0,0,1,3.53-3.613A3.272,3.272,0,0,1,1848.661,9006.427Zm-5.141.07c0,1.317.658,2.311,1.695,2.311.981,0,1.667-.951,1.667-2.339,0-1.063-.477-2.3-1.653-2.3C1844.01,9004.172,1843.52,9005.363,1843.52,9006.5Zm3.726-6.373-1.709,2.073h-1.191l1.219-2.073Z" fill="#ed694a"/>
      <path id="Trazado_9866" data-name="Trazado 9866" d="M1850.071,9005.11c0-.784-.028-1.442-.056-2.03h1.5l.084,1.021h.042a2.507,2.507,0,0,1,2.185-1.176c1.191,0,2.423.771,2.423,2.927v4.049h-1.722v-3.853c0-.98-.365-1.723-1.3-1.723a1.446,1.446,0,0,0-1.345,1.009,1.591,1.591,0,0,0-.084.546v4.021h-1.723Z" fill="#ed694a"/>
    </g>
    <g id="Grupo_9460" data-name="Grupo 9460">
      <path id="Trazado_9867" data-name="Trazado 9867" d="M1903.634,9093.787v5.5c0,1.849.771,2.7,1.934,2.7,1.246,0,1.989-.855,1.989-2.7v-5.5h1.722v5.393c0,2.913-1.5,4.2-3.768,4.2-2.185,0-3.6-1.219-3.6-4.188v-5.407Z" fill="#ed694a"/>
      <path id="Trazado_9868" data-name="Trazado 9868" d="M1913.407,9103.228l-3.054-9.44h1.877l1.289,4.3c.364,1.19.686,2.283.924,3.431h.028c.252-1.119.6-2.269.967-3.418l1.372-4.313h1.835l-3.263,9.44Z" fill="#ed694a"/>
    </g>
    <g id="Grupo_9461" data-name="Grupo 9461">
      <path id="Trazado_9869" data-name="Trazado 9869" d="M1918.487,9124.866v9.44h-1.723v-9.44Z" fill="#ed694a"/>
      <path id="Trazado_9870" data-name="Trazado 9870" d="M1920.46,9125.007a14.824,14.824,0,0,1,2.6-.21,4.4,4.4,0,0,1,2.914.755,2.4,2.4,0,0,1,.812,1.906,2.478,2.478,0,0,1-1.723,2.353v.042a2.341,2.341,0,0,1,1.317,1.821,23.92,23.92,0,0,0,.742,2.633h-1.765a12,12,0,0,1-.63-2.227c-.28-1.233-.714-1.625-1.7-1.653h-.868v3.88h-1.709Zm1.709,4.16h1.022c1.163,0,1.877-.616,1.877-1.555,0-1.022-.714-1.514-1.835-1.514a4.954,4.954,0,0,0-1.064.084Z" fill="#ed694a"/>
    </g>
    <g id="Grupo_9462" data-name="Grupo 9462">
      <path id="Trazado_9871" data-name="Trazado 9871" d="M1796.672,9437.832h-3.5l-.266,1.82a4.337,4.337,0,0,1,.644-.042,4.029,4.029,0,0,1,2.214.589,2.611,2.611,0,0,1,1.19,2.311c0,1.737-1.443,3.152-3.67,3.152a5.278,5.278,0,0,1-2.423-.532l.35-1.3a4.614,4.614,0,0,0,2,.475,1.775,1.775,0,0,0,1.975-1.651c0-1.052-.77-1.737-2.577-1.737a9.7,9.7,0,0,0-1.247.084l.589-4.594h4.72Z" fill="#ed694a"/>
      <path id="Trazado_9872" data-name="Trazado 9872" d="M1804.806,9440.885c0,2.942-1.148,4.777-3.333,4.777-2.088,0-3.208-1.905-3.222-4.679,0-2.845,1.205-4.734,3.334-4.734C1803.784,9436.249,1804.806,9438.21,1804.806,9440.885Zm-4.818.084c0,2.228.6,3.375,1.541,3.375,1.022,0,1.54-1.231,1.54-3.417,0-2.115-.49-3.361-1.526-3.361C1800.632,9437.565,1799.988,9438.7,1799.988,9440.969Z" fill="#ed694a"/>
      <path id="Trazado_9873" data-name="Trazado 9873" d="M1814.115,9445.3a4.988,4.988,0,0,1-1.933.35,3.287,3.287,0,0,1-3.516-3.487,3.517,3.517,0,0,1,3.8-3.628,4.6,4.6,0,0,1,1.667.308l-.309,1.3a2.858,2.858,0,0,0-1.3-.265,2.209,2.209,0,0,0,0,4.412,3.428,3.428,0,0,0,1.358-.266Z" fill="#ed694a"/>
      <path id="Trazado_9874" data-name="Trazado 9874" d="M1820.682,9443.869a9.113,9.113,0,0,0,.112,1.639h-1.555l-.126-.757h-.042a2.494,2.494,0,0,1-2.017.911,2.026,2.026,0,0,1-2.144-2.031c0-1.709,1.527-2.592,4.049-2.578v-.111c0-.448-.182-1.19-1.387-1.19a3.612,3.612,0,0,0-1.835.5l-.336-1.12a4.9,4.9,0,0,1,2.465-.6,2.556,2.556,0,0,1,2.816,2.886Zm-1.681-1.7c-1.219-.014-2.382.238-2.382,1.274a.9.9,0,0,0,.981.98,1.415,1.415,0,0,0,1.359-.938,1.163,1.163,0,0,0,.042-.378Z" fill="#ed694a"/>
      <path id="Trazado_9875" data-name="Trazado 9875" d="M1822.5,9435.562h1.724v9.946H1822.5Z" fill="#ed694a"/>
      <path id="Trazado_9876" data-name="Trazado 9876" d="M1825.3,9446.053l3.4-10.154h1.2l-3.418,10.154Z" fill="#ed694a"/>
      <path id="Trazado_9877" data-name="Trazado 9877" d="M1835.829,9445.3a4.992,4.992,0,0,1-1.933.35,3.287,3.287,0,0,1-3.516-3.487,3.517,3.517,0,0,1,3.8-3.628,4.6,4.6,0,0,1,1.667.308l-.308,1.3a2.862,2.862,0,0,0-1.3-.265,2.209,2.209,0,0,0,0,4.412,3.429,3.429,0,0,0,1.359-.266Z" fill="#ed694a"/>
      <path id="Trazado_9878" data-name="Trazado 9878" d="M1837.1,9440.717c0-.785-.028-1.442-.056-2.031h1.471l.084,1.009h.042a2.324,2.324,0,0,1,2.1-1.162,1.966,1.966,0,0,1,1.891,1.261h.028a2.674,2.674,0,0,1,.827-.854,2.36,2.36,0,0,1,1.4-.406c1.121,0,2.27.77,2.27,2.955v4.021h-1.681v-3.768c0-1.135-.393-1.809-1.219-1.809a1.316,1.316,0,0,0-1.205.911,1.835,1.835,0,0,0-.084.575v4.09h-1.68v-3.951c0-.951-.379-1.625-1.177-1.625a1.383,1.383,0,0,0-1.247.968,1.959,1.959,0,0,0-.084.573v4.035H1837.1Z" fill="#ed694a"/>
    </g>
    <g id="Grupo_9463" data-name="Grupo 9463">
      <path id="Trazado_9879" data-name="Trazado 9879" d="M1851.071,9439.571v-.811l.831-.765c1.65-1.531,2.427-2.373,2.438-3.3a1.1,1.1,0,0,0-1.252-1.177,2.532,2.532,0,0,0-1.5.582l-.389-.937a3.47,3.47,0,0,1,2.158-.723,2.079,2.079,0,0,1,2.309,2.125c0,1.23-.885,2.223-2.115,3.355l-.6.528v.021h2.87v1.1Z" fill="#f7931e"/>
    </g>
    <path id="Trazado_9880" data-name="Trazado 9880" d="M1724.48,9043.825c11.3-7.2,13.549-4.655,4.988,5.658s-5.964,13.451,5.771,6.975,13.815-3.794,4.623,5.961-6.8,13.051,5.321,7.324,14.026-2.92,4.24,6.239-7.6,12.6,4.851,7.643,14.182-2.033,3.84,6.494-8.379,12.095,4.361,7.932,14.281-1.138,3.425,6.723-9.122,11.546,3.854,8.19,14.325-.24,3,6.923-9.829,10.95,3.333,8.417,14.311.66,2.555,7.1-10.5,10.311,2.8,8.608,14.242,1.559,2.1,7.244-11.124,9.632,2.251,8.769,14.116,2.448,1.646,7.361-11.707,8.915,1.7,8.894,13.934,3.33,1.18,7.449-12.243,8.162,1.135,8.982,13.7,4.2.71,7.51-12.732,7.377.568,9.034,13.407,5.051.237,7.54-13.17,6.564,0,9.053,13.063,5.882-.237,7.54-13.556,5.724-.568,9.035,12.668,6.691-.71,7.51-13.889,4.861-1.135,8.981,12.223,7.473-1.18,7.451-14.166,3.979-1.7,8.892,11.73,8.227-1.646,7.362-14.388,3.082-2.251,8.768,11.19,8.947-2.1,7.244-14.553,2.172-2.8,8.61,10.606,9.631-2.555,7.1-14.661,1.254-3.333,8.416,9.981,10.279-3,6.924-14.711.331-3.854,8.191,9.315,10.884-3.425,6.721-14.7-.593-4.361,7.934,8.614,11.447-3.84,6.492-14.636-1.515-4.851,7.644,7.878,11.967-4.24,6.24-14.512-2.433-5.321,7.322,7.111,12.438-4.623,5.961-14.331-3.338-5.771,6.976,6.316,12.858-4.988,5.659" fill="none" stroke="#3fa9f5" stroke-linecap="round" stroke-linejoin="round" stroke-width="2"/>
    <path id="Trazado_9881" data-name="Trazado 9881" d="M1647.439,9107.108l10.447-6.881-5.75,11.109,10.726-6.437-6.211,10.858,10.986-5.981-6.66,10.588,11.227-5.517-7.1,10.3,11.448-5.042-7.523,9.994,11.649-4.558-7.934,9.671,11.83-4.066-8.332,9.33,11.989-3.567-8.716,8.973,12.128-3.062-9.084,8.6,12.246-2.551-9.436,8.212,12.342-2.037-9.772,7.81,12.416-1.518-10.09,7.394,12.469-1-10.391,6.964,12.5-.474-10.673,6.523,12.509.051-10.937,6.07,12.5.574-11.182,5.606,12.461,1.1-11.407,5.134,12.4,1.618-11.612,4.651,12.325,2.136-11.8,4.161,12.225,2.65-11.96,3.664,12.1,3.159-12.1,3.16,11.96,3.664-12.225,2.649,11.8,4.162-12.325,2.136,11.612,4.651-12.4,1.618,11.407,5.134-12.461,1.1,11.182,5.607-12.5.574,10.937,6.07-12.509.051,10.673,6.522-12.5-.473,10.391,6.964-12.469-1,10.09,7.394-12.416-1.518,9.772,7.809-12.342-2.036,9.436,8.212-12.246-2.552,9.084,8.6-12.128-3.062,8.716,8.973-11.989-3.567,8.332,9.33-11.83-4.066,7.934,9.671-11.649-4.559,7.523,9.994-11.448-5.041,7.1,10.3-11.227-5.517,6.66,10.589-10.986-5.981,6.211,10.857-10.726-6.437,5.75,11.109-10.447-6.881" fill="none" stroke="#99293f" stroke-linecap="round" stroke-linejoin="round" stroke-width="2"/>
    <g id="Grupo_9467" data-name="Grupo 9467">
      <path id="Trazado_9882" data-name="Trazado 9882" d="M2058.486,9193.512c-3.219-3.514-8.222-8.257-10.351,2.452a24.805,24.805,0,0,1-3.865,8.708c-1.562-7.907-6.262-16.091-10.691-21.608-1.657-2.064-7.537-10.271-8.667-24a2.469,2.469,0,0,0-4.125-1.629c-14.549,13.207-22.535,31.372-22.831,51.821a35.659,35.659,0,0,1-9.35-14.605,3.264,3.264,0,0,0-5.8-.785c-.286.435-.55.87-.789,1.292-11.226,19.848-16.625,43.951-11.633,66.376,8.346,37.554,63.558,48.053,92.787,24.449C2091.765,9262.888,2082.674,9219.906,2058.486,9193.512Z" fill="#ed694a"/>
      <g id="Grupo_9464" data-name="Grupo 9464">
        <path id="Trazado_9883" data-name="Trazado 9883" d="M1978.149,9263.888c-4.934-22.664.289-47,11.25-67.161-.277-.668-.544-1.359-.793-2.078a3.264,3.264,0,0,0-5.8-.784c-.285.434-.55.869-.789,1.291-11.225,19.849-16.625,43.952-11.633,66.376,3.807,17.129,17.366,28.626,33.76,33.829C1991.351,9289.165,1981.335,9278.544,1978.149,9263.888Z" fill="#d8553a"/>
        <path id="Trazado_9884" data-name="Trazado 9884" d="M2005.763,9208.878c.606-18.56,7.319-35.2,19.334-47.986-.083-.7-.144-1.333-.184-1.811a2.433,2.433,0,0,0-4.033-1.733c-14.052,12.705-22.617,30.686-22.924,51.906l2.63,2.042a3.542,3.542,0,0,0,4.287.041A3.219,3.219,0,0,0,2005.763,9208.878Z" fill="#d8553a"/>
      </g>
      <path id="Trazado_9885" data-name="Trazado 9885" d="M2049.661,9220.964c-2.377-2.595-6.073-6.1-7.645,1.813a18.361,18.361,0,0,1-2.855,6.432c-1.153-5.841-4.625-11.886-7.9-15.961-1.225-1.525-5.568-7.587-6.4-17.729a1.823,1.823,0,0,0-3.047-1.2c-10.746,9.754-16.645,23.172-16.863,38.275a26.346,26.346,0,0,1-6.906-10.789,2.412,2.412,0,0,0-4.287-.579c-.211.321-.407.643-.583.954-8.292,14.66-12.28,32.463-8.593,49.027,6.165,27.738,46.945,35.493,68.535,18.059C2074.241,9272.207,2067.527,9240.46,2049.661,9220.964Z" fill="#f4a32c"/>
      <path id="Trazado_9886" data-name="Trazado 9886" d="M1992.273,9273.38c-3.264-16.19.117-33.563,7.285-48.031a27.929,27.929,0,0,1-1.512-3.546,2.412,2.412,0,0,0-4.287-.579c-.211.321-.406.643-.583.954-8.291,14.661-12.279,32.464-8.592,49.027,2.867,12.9,13.223,21.476,25.652,25.207C2001.405,9291.984,1994.452,9284.2,1992.273,9273.38Z" fill="#e89528"/>
      <path id="Trazado_9887" data-name="Trazado 9887" d="M2041.6,9246.027c-1.609-1.758-4.111-4.129-5.175,1.226a12.408,12.408,0,0,1-1.933,4.354,27.01,27.01,0,0,0-5.345-10.8,22.4,22.4,0,0,1-4.334-12,1.235,1.235,0,0,0-2.063-.814,34.975,34.975,0,0,0-11.415,25.911,17.845,17.845,0,0,1-4.675-7.3,1.632,1.632,0,0,0-2.9-.392c-.143.217-.276.434-.395.645-5.613,9.926-8.313,21.977-5.817,33.189,4.173,18.777,31.779,24.026,46.394,12.224a23.5,23.5,0,0,0,8.736-16.035C2053.631,9266.685,2049.959,9255.144,2041.6,9246.027Z" fill="#f4d44e"/>
      <path id="Trazado_9888" data-name="Trazado 9888" d="M2034.128,9269.284c-.9-.979-2.29-2.3-2.883.683a6.9,6.9,0,0,1-1.077,2.426,15.044,15.044,0,0,0-2.978-6.019,12.485,12.485,0,0,1-2.415-6.686.688.688,0,0,0-1.149-.454,19.487,19.487,0,0,0-6.36,14.435,9.935,9.935,0,0,1-2.6-4.069.91.91,0,0,0-1.617-.218c-.079.121-.153.242-.219.36-3.127,5.529-4.631,12.243-3.241,18.49,3.167,14.246,29.123,13.814,30.715-2.123C2040.829,9280.793,2038.783,9274.363,2034.128,9269.284Z" fill="#eae9e8"/>
      <path id="Trazado_9889" data-name="Trazado 9889" d="M2015.612,9291.06c-1.391-5.588.113-11.594,3.24-16.54.066-.105.14-.214.22-.321a.956.956,0,0,1,1.616.194,8.946,8.946,0,0,0,2.6,3.641,16.486,16.486,0,0,1,4.37-11.036,12.555,12.555,0,0,1-2.888-7.309.688.688,0,0,0-1.149-.454,19.484,19.484,0,0,0-6.36,14.436,9.933,9.933,0,0,1-2.6-4.069.91.91,0,0,0-1.617-.218c-.08.121-.153.242-.22.36-3.126,5.529-4.631,12.243-3.24,18.49,1.287,5.79,6.573,9.27,12.418,10.109A11.33,11.33,0,0,1,2015.612,9291.06Z" fill="#f7e7a1"/>
      <g id="Grupo_9465" data-name="Grupo 9465">
        <path id="Trazado_9890" data-name="Trazado 9890" d="M2001.505,9164.625a13.221,13.221,0,0,0,0-20.526A13.221,13.221,0,0,0,2001.505,9164.625Z" fill="#d8553a"/>
        <path id="Trazado_9891" data-name="Trazado 9891" d="M2079.69,9207.208a13.22,13.22,0,0,0,0-20.526C2076.708,9189.107,2073.181,9201.914,2079.69,9207.208Z" fill="#d8553a"/>
        <path id="Trazado_9892" data-name="Trazado 9892" d="M1964.157,9211.248a9.528,9.528,0,0,0,0-14.793C1962.008,9198.2,1959.466,9207.432,1964.157,9211.248Z" fill="#d8553a"/>
        <path id="Trazado_9893" data-name="Trazado 9893" d="M2045.579,9179.418a9.528,9.528,0,0,0,0-14.793A9.528,9.528,0,0,0,2045.579,9179.418Z" fill="#d8553a"/>
      </g>
      <path id="Trazado_9894" data-name="Trazado 9894" d="M2010.95,9230.166c1.08-12.745,5.947-24.078,14.119-32.717q-.125-.939-.207-1.931a1.823,1.823,0,0,0-3.046-1.2,50.807,50.807,0,0,0-15.994,29.107h0c-.149.842-.335,2.067-.452,3.031v0a57.817,57.817,0,0,0-.416,6.136C2005.179,9232.637,2010.328,9235.283,2010.95,9230.166Z" fill="#e89528"/>
      <g id="Grupo_9466" data-name="Grupo 9466">
        <path id="Trazado_9895" data-name="Trazado 9895" d="M2005.074,9282.7c-2.219-10.476-.329-21.646,4.06-31.323a18.907,18.907,0,0,1-2.469-4.783,1.633,1.633,0,0,0-2.9-.392c-.143.217-.276.435-.395.646-5.613,9.925-8.313,21.977-5.817,33.188,1.955,8.794,9.049,14.62,17.54,17.118A22.836,22.836,0,0,1,2005.074,9282.7Z" fill="#e8c842"/>
        <path id="Trazado_9896" data-name="Trazado 9896" d="M2019.348,9249.321a37.645,37.645,0,0,1,6.269-15.89,26.053,26.053,0,0,1-.8-4.63,1.234,1.234,0,0,0-2.062-.814,34.209,34.209,0,0,0-9.634,14.91h-.005c-.291.9-.7,2.386-.951,3.56h.007a38.294,38.294,0,0,0-.832,7.443C2015.41,9254.406,2018.777,9253.4,2019.348,9249.321Z" fill="#e8c842"/>
      </g>
    </g>
  </g>
</svg>
