<svg xmlns="http://www.w3.org/2000/svg" width="161.393" height="126.667" viewBox="0 0 161.393 126.667">
  <g id="Grupo_9178" data-name="Grupo 9178" transform="translate(-196 -1259)">
    <path id="Trazado_8954" data-name="Trazado 8954" d="M-266.648,124.4A4.648,4.648,0,0,1-262,129.051v93.267a12.394,12.394,0,0,1-12.395,12.395H-332.8a6.2,6.2,0,0,1-6.2-6.2V124.4Zm0,0" transform="translate(612 1148.541)" fill="#fc4e51"/>
    <path id="Trazado_8955" data-name="Trazado 8955" d="M-179.4,129.051v93.267a12.4,12.4,0,0,1-12.395,12.395h-9.3a12.4,12.4,0,0,0,12.395-12.395V129.051a4.649,4.649,0,0,0-4.648-4.648h9.3a4.649,4.649,0,0,1,4.648,4.648Zm0,0" transform="translate(529.395 1148.541)" fill="#ea3942"/>
    <path id="Trazado_8956" data-name="Trazado 8956" d="M-526.352,124.4A4.648,4.648,0,0,0-531,129.051v93.267a12.394,12.394,0,0,0,12.395,12.395H-460.2a6.2,6.2,0,0,0,6.2-6.2V124.4Zm0,0" transform="translate(727 1148.541)" fill="#fc4e51"/>
    <path id="Trazado_8957" data-name="Trazado 8957" d="M-444.764,211.556h-58.408a4.647,4.647,0,0,1-4.648-4.648V105.872a4.647,4.647,0,0,1,4.648-4.648h58.408a4.647,4.647,0,0,1,4.648,4.648V206.908a4.647,4.647,0,0,1-4.648,4.648Zm0,0" transform="translate(713.116 1162.424)" fill="#f2f2f2"/>
    <path id="Trazado_8958" data-name="Trazado 8958" d="M-275.944,211.556h-58.408A4.647,4.647,0,0,1-339,206.908V105.872a4.647,4.647,0,0,1,4.648-4.648h58.408a4.647,4.647,0,0,1,4.648,4.648V206.908a4.647,4.647,0,0,1-4.648,4.648Zm0,0" transform="translate(612 1162.424)" fill="#fff"/>
    <path id="Trazado_8959" data-name="Trazado 8959" d="M-204.949,211.554h9.3a4.647,4.647,0,0,0,4.648-4.648V105.872a4.649,4.649,0,0,0-4.648-4.648h-9.3a4.649,4.649,0,0,1,4.648,4.648V206.906a4.647,4.647,0,0,1-4.648,4.648Zm0,0" transform="translate(531.709 1162.424)" fill="#e8e8e8"/>
    <path id="Trazado_8960" data-name="Trazado 8960" d="M-458.577,116.519l-4.935-4.306a1.548,1.548,0,0,0-2.036,0l-4.934,4.306a1.549,1.549,0,0,1-2.568-1.167V91.183a1.549,1.549,0,0,1,1.549-1.549h13.943a1.548,1.548,0,0,1,1.549,1.549v24.169a1.549,1.549,0,0,1-2.567,1.167Zm0,0" transform="translate(692.291 1169.366)" fill="#f3d55b"/>
    <path id="Trazado_8961" data-name="Trazado 8961" d="M-264.885,190.766l3.5-3.506a4.648,4.648,0,0,0,0-6.573,4.646,4.646,0,0,0-6.572,0l-3.506,3.506a3.1,3.1,0,0,1-4.382,0l-3.725-3.725a4.647,4.647,0,0,0-6.573,0,4.647,4.647,0,0,0,0,6.573l3.725,3.725a3.1,3.1,0,0,1,0,4.382l-3.725,3.725a4.644,4.644,0,0,0,0,6.571,4.646,4.646,0,0,0,6.573,0l3.725-3.724a3.1,3.1,0,0,1,4.382,0l3.506,3.5a4.646,4.646,0,0,0,6.572,0,4.646,4.646,0,0,0,0-6.572l-3.5-3.506a3.1,3.1,0,0,1,0-4.382Zm0,0" transform="translate(510.154 1140.776)" fill="#e64c3c"/>
    <path id="Trazado_8962" data-name="Trazado 8962" d="M-461.839,189.4l5.039,5.039a1.549,1.549,0,0,0,2.19,0l14.242-14.241a4.646,4.646,0,0,1,6.573,0,4.646,4.646,0,0,1,0,6.573l-18.623,18.624a4.648,4.648,0,0,1-6.573,0l-9.421-9.421a4.648,4.648,0,0,1,0-6.573,4.65,4.65,0,0,1,6.573,0Zm0,0" transform="translate(690.328 1106.94)" fill="#a0e557"/>
    <path id="Trazado_8963" data-name="Trazado 8963" d="M-343.842,132.528h-7.128a2.324,2.324,0,0,1-2.323-2.325,2.323,2.323,0,0,1,2.323-2.323h7.128a2.323,2.323,0,0,1,2.323,2.323,2.324,2.324,0,0,1-2.323,2.325Zm0,0" transform="translate(620.561 1146.458)" fill="#d3d3d3"/>
    <path id="Trazado_8964" data-name="Trazado 8964" d="M-344.615,174.251h-7.128a2.324,2.324,0,0,1-2.323-2.325,2.323,2.323,0,0,1,2.323-2.323h7.128a2.323,2.323,0,0,1,2.323,2.323,2.324,2.324,0,0,1-2.323,2.325Zm0,0" transform="translate(621.024 1121.468)" fill="#d3d3d3"/>
    <path id="Trazado_8965" data-name="Trazado 8965" d="M-344.615,216.747h-7.128a2.325,2.325,0,0,1-2.323-2.325,2.323,2.323,0,0,1,2.323-2.323h7.128a2.323,2.323,0,0,1,2.323,2.323,2.325,2.325,0,0,1-2.323,2.325Zm0,0" transform="translate(621.024 1096.015)" fill="#d3d3d3"/>
    <path id="Trazado_8966" data-name="Trazado 8966" d="M-344.615,259.239h-7.128a2.323,2.323,0,0,1-2.323-2.323,2.325,2.325,0,0,1,2.323-2.325h7.128a2.325,2.325,0,0,1,2.323,2.325,2.323,2.323,0,0,1-2.323,2.323Zm0,0" transform="translate(621.024 1070.564)" fill="#d3d3d3"/>
    <path id="Trazado_8967" data-name="Trazado 8967" d="M-344.615,301.735h-7.128a2.323,2.323,0,0,1-2.323-2.323,2.324,2.324,0,0,1,2.323-2.325h7.128a2.324,2.324,0,0,1,2.323,2.325,2.323,2.323,0,0,1-2.323,2.323Zm0,0" transform="translate(621.024 1045.11)" fill="#d3d3d3"/>
    <path id="Trazado_8968" data-name="Trazado 8968" d="M-344.615,344.231h-7.128a2.324,2.324,0,0,1-2.323-2.325,2.323,2.323,0,0,1,2.323-2.323h7.128a2.323,2.323,0,0,1,2.323,2.323,2.324,2.324,0,0,1-2.323,2.325Zm0,0" transform="translate(621.024 1019.657)" fill="#d3d3d3"/>
    <path id="Trazado_8969" data-name="Trazado 8969" d="M-434.335,278.555H-465.32a2.324,2.324,0,0,1-2.325-2.323,2.325,2.325,0,0,1,2.325-2.325h30.985a2.325,2.325,0,0,1,2.323,2.325,2.322,2.322,0,0,1-2.323,2.323Zm0,0" transform="translate(686.053 1077.994)" fill="#a5a5a5"/>
    <path id="Trazado_8970" data-name="Trazado 8970" d="M-431.276,301.735h-18.591a2.323,2.323,0,0,1-2.324-2.323,2.324,2.324,0,0,1,2.324-2.325h18.591a2.324,2.324,0,0,1,2.325,2.325,2.324,2.324,0,0,1-2.325,2.323Zm0,0" transform="translate(676.797 1064.11)" fill="#a5a5a5"/>
    <path id="Trazado_8971" data-name="Trazado 8971" d="M-264.354,278.555h-30.987a2.323,2.323,0,0,1-2.323-2.323,2.325,2.325,0,0,1,2.323-2.325h30.987a2.325,2.325,0,0,1,2.323,2.325,2.323,2.323,0,0,1-2.323,2.323Zm0,0" transform="translate(587.241 1058.994)" fill="#b7b7b7"/>
    <path id="Trazado_8972" data-name="Trazado 8972" d="M-261.3,301.735h-18.592a2.323,2.323,0,0,1-2.323-2.323,2.324,2.324,0,0,1,2.323-2.325H-261.3a2.325,2.325,0,0,1,2.325,2.325,2.325,2.325,0,0,1-2.325,2.323Zm0,0" transform="translate(577.986 1045.11)" fill="#b7b7b7"/>
    <g id="Grupo_9176" data-name="Grupo 9176" transform="translate(-35 -1)">
      <rect id="Rect치ngulo_6095" data-name="Rect치ngulo 6095" width="12.636" height="37.908" transform="translate(352.378 1317.968)" fill="#f29c1f"/>
      <path id="Trazado_9015" data-name="Trazado 9015" d="M46.951,372.5v20.873c0,6.4-3.772,11.6-8.425,11.6s-8.425-5.192-8.425-11.6V372.5c.006-2.559,1.511-4.631,3.369-4.64H43.581c1.86.009,3.364,2.081,3.371,4.64Zm0,0" transform="translate(320.17 981.693)" fill="#805333"/>
      <rect id="Rect치ngulo_6094" data-name="Rect치ngulo 6094" width="50.544" height="33.695" transform="translate(333.424 1290.591)" fill="#a56a43"/>
      <path id="Trazado_9014" data-name="Trazado 9014" d="M21.3,209.365H19.192a2.106,2.106,0,1,1,0-4.212H21.3a2.106,2.106,0,0,1,0,4.212Zm0,0" transform="translate(326.869 1091.755)" fill="#cf976a"/>
      <path id="Trazado_9016" data-name="Trazado 9016" d="M66.476,209.365H51.735a2.106,2.106,0,1,1,0-4.212H66.476a2.106,2.106,0,1,1,0,4.212Zm0,0" transform="translate(304.856 1091.755)" fill="#cf976a"/>
      <path id="Trazado_9013" data-name="Trazado 9013" d="M-28.856,174.716v37.908a2.106,2.106,0,0,1-2.106,2.107h-4.212a6.318,6.318,0,0,1-6.319-6.319V178.929a6.319,6.319,0,0,1,6.319-6.319h4.212a2.106,2.106,0,0,1,2.106,2.106Zm0,0" transform="translate(366.492 1113.768)" fill="#cb8252"/>
      <path id="Trazado_9017" data-name="Trazado 9017" d="M140.366,178.929v29.483a6.318,6.318,0,0,1-6.319,6.319h-4.212a2.106,2.106,0,0,1-2.106-2.107V174.716a2.106,2.106,0,0,1,2.106-2.106h4.212a6.319,6.319,0,0,1,6.319,6.319Zm0,0" transform="translate(252.026 1113.768)" fill="#cb8252"/>
    </g>
  </g>
</svg>
