<svg xmlns="http://www.w3.org/2000/svg" width="321.683" height="289.502" viewBox="0 0 321.683 289.502">
  <g id="_048---Electrocution" data-name="048---Electrocution" transform="translate(-99.784 -4478.442)">
    <path id="Shape" d="M239.985,4495.882,108.409,4726.2a24.232,24.232,0,0,0,20.646,36.38H392.2a24.232,24.232,0,0,0,20.645-36.38L281.265,4495.882a23.68,23.68,0,0,0-41.28,0Z" fill="#ffbc05"/>
    <g id="Grupo_9272" data-name="Grupo 9272">
      <path id="Shape-2" data-name="Shape" d="M417.489,4723.554l-131.56-230.31a29.029,29.029,0,0,0-50.608,0l-131.56,230.31a29.577,29.577,0,0,0,25.3,44.39h263.12a29.577,29.577,0,0,0,25.3-44.39Zm-25.3,33.668H129.065a18.86,18.86,0,0,1-15.976-28.36l131.56-230.311a18.292,18.292,0,0,1,31.952,0l131.56,230.311a18.86,18.86,0,0,1-15.976,28.36Z" fill="#464f5d"/>
      <path id="Shape-3" data-name="Shape" d="M296.582,4614.044a5.362,5.362,0,0,0-7.581,0l-6.932,6.932v-46.03a5.361,5.361,0,0,0-9.151-3.79l-33.737,33.737v-46.03a5.361,5.361,0,0,0-10.722,0v58.972a5.361,5.361,0,0,0,9.151,3.79l33.737-33.737v33.088l-6.932-6.932a5.361,5.361,0,0,0-7.58,7.581l16.083,16.083a5.362,5.362,0,0,0,7.581,0l16.083-16.083a5.361,5.361,0,0,0,0-7.581Z" fill="#464f5d"/>
      <path id="Shape-4" data-name="Shape" d="M326.244,4699.966l-11.188-18.292a16.024,16.024,0,1,0-18.962-19.75c-.536.2.461.257-43.778-13.049a10.722,10.722,0,1,0-6.166,20.533l15.655,4.718-7.559,2.68c-34.086,0-34.692-.584-39.243,1.769-3.705,1.914.482-.177-24.661,12.6a11.2,11.2,0,0,0-5.736,13.67,10.757,10.757,0,0,0,14.9,5.683l29.164-13.456a15.289,15.289,0,0,0-6.754,10.132l-4.772,22.57a10.755,10.755,0,0,0,9.436,12.813,11.108,11.108,0,0,0,11.687-9.06l4.235-20.855a535.112,535.112,0,0,1,52.806-22.087l11.526,18.817-7.451,9.6a11.168,11.168,0,0,0,.16,14.314,10.723,10.723,0,0,0,16.352-.643l9.167-11.741a18.359,18.359,0,0,0,1.179-20.961Z" fill="#464f5d"/>
    </g>
  </g>
</svg>
