<svg xmlns="http://www.w3.org/2000/svg" width="569.861" height="157.204" viewBox="0 0 569.861 157.204">
  <g id="Grupo_9485" data-name="Grupo 9485" transform="translate(-1491.696 -11560.082)">
    <rect id="Rectángulo_6151" data-name="Rectángulo 6151" width="176.99" height="61.404" rx="5.6" transform="translate(1884.067 11560.582)" fill="#fff" stroke="#91c7ea" stroke-miterlimit="10" stroke-width="1"/>
    <g id="Grupo_9477" data-name="Grupo 9477">
      <g id="Grupo_9476" data-name="Grupo 9476">
        <path id="Trazado_9915" data-name="Trazado 9915" d="M1926.224,11576.878a3.1,3.1,0,0,1-1.278,2.668,6.121,6.121,0,0,1-3.656.933h-1.451v4.492h-1.434v-11.421h3.2Q1926.223,11573.55,1926.224,11576.878Zm-6.385,2.461h1.291a5.088,5.088,0,0,0,2.758-.571,2.036,2.036,0,0,0,.851-1.827,1.913,1.913,0,0,0-.8-1.687,4.45,4.45,0,0,0-2.5-.555h-1.6Z" fill="#00223d"/>
        <path id="Trazado_9916" data-name="Trazado 9916" d="M1934.279,11584.971l-.279-1.218h-.067a3.82,3.82,0,0,1-1.379,1.09,4.5,4.5,0,0,1-1.717.285,3.243,3.243,0,0,1-2.155-.657,2.3,2.3,0,0,1-.78-1.867q0-2.591,4.479-2.719l1.569-.046v-.532a2.059,2.059,0,0,0-.468-1.487,2.018,2.018,0,0,0-1.5-.48,6.464,6.464,0,0,0-2.615.656l-.43-.992a6.9,6.9,0,0,1,1.5-.539,6.982,6.982,0,0,1,1.632-.2,3.712,3.712,0,0,1,2.45.681,2.717,2.717,0,0,1,.8,2.18v5.843Zm-3.163-.914a2.975,2.975,0,0,0,2.054-.664,2.357,2.357,0,0,0,.746-1.858v-.774l-1.4.056a5.42,5.42,0,0,0-2.408.48,1.423,1.423,0,0,0-.738,1.324,1.286,1.286,0,0,0,.46,1.07A2.014,2.014,0,0,0,1931.116,11584.057Z" fill="#00223d"/>
        <path id="Trazado_9917" data-name="Trazado 9917" d="M1942.418,11576.253a6,6,0,0,1,1.1.093l-.194,1.2a5.072,5.072,0,0,0-1.012-.118,2.546,2.546,0,0,0-1.919.845,2.94,2.94,0,0,0-.8,2.1v4.593h-1.4v-8.562h1.155l.16,1.586h.068a3.888,3.888,0,0,1,1.24-1.289A2.952,2.952,0,0,1,1942.418,11576.253Z" fill="#00223d"/>
        <path id="Trazado_9918" data-name="Trazado 9918" d="M1950.936,11584.971l-.278-1.218h-.067a3.819,3.819,0,0,1-1.379,1.09,4.5,4.5,0,0,1-1.717.285,3.243,3.243,0,0,1-2.155-.657,2.3,2.3,0,0,1-.78-1.867q0-2.591,4.479-2.719l1.569-.046v-.532a2.059,2.059,0,0,0-.469-1.487,2.016,2.016,0,0,0-1.5-.48,6.464,6.464,0,0,0-2.614.656l-.431-.992a7.173,7.173,0,0,1,3.13-.735,3.714,3.714,0,0,1,2.45.681,2.717,2.717,0,0,1,.8,2.18v5.843Zm-3.162-.914a2.971,2.971,0,0,0,2.053-.664,2.355,2.355,0,0,0,.747-1.858v-.774l-1.4.056a5.418,5.418,0,0,0-2.408.48,1.423,1.423,0,0,0-.738,1.324,1.287,1.287,0,0,0,.46,1.07A2.012,2.012,0,0,0,1947.774,11584.057Z" fill="#00223d"/>
        <path id="Trazado_9919" data-name="Trazado 9919" d="M1965.308,11582.635a2.091,2.091,0,0,1-.961,1.844,4.784,4.784,0,0,1-2.7.649,6.265,6.265,0,0,1-2.868-.539v-1.2a7.205,7.205,0,0,0,1.43.493,6.4,6.4,0,0,0,1.472.179,3.549,3.549,0,0,0,1.686-.323,1.073,1.073,0,0,0,.123-1.845,7.692,7.692,0,0,0-1.826-.839,10.257,10.257,0,0,1-1.835-.777,2.4,2.4,0,0,1-.809-.755,1.84,1.84,0,0,1-.266-1.008,1.883,1.883,0,0,1,.919-1.651,4.549,4.549,0,0,1,2.522-.605,7.884,7.884,0,0,1,2.918.563l-.5,1.055a7.147,7.147,0,0,0-2.522-.531,3.09,3.09,0,0,0-1.5.289.886.886,0,0,0-.505.8.92.92,0,0,0,.189.585,1.821,1.821,0,0,0,.612.461,13.657,13.657,0,0,0,1.619.633,6.208,6.208,0,0,1,2.223,1.117A1.893,1.893,0,0,1,1965.308,11582.635Z" fill="#00223d"/>
        <path id="Trazado_9920" data-name="Trazado 9920" d="M1967.467,11574.089a.827.827,0,0,1,.237-.653.924.924,0,0,1,1.172,0,.812.812,0,0,1,.245.648.823.823,0,0,1-.245.652.851.851,0,0,1-.582.215.782.782,0,0,1-.827-.867Zm1.519,10.882h-1.4v-8.562h1.4Z" fill="#00223d"/>
        <path id="Trazado_9921" data-name="Trazado 9921" d="M1977.918,11582.635a2.092,2.092,0,0,1-.962,1.844,4.784,4.784,0,0,1-2.7.649,6.265,6.265,0,0,1-2.868-.539v-1.2a7.227,7.227,0,0,0,1.43.493,6.4,6.4,0,0,0,1.472.179,3.556,3.556,0,0,0,1.687-.323,1.073,1.073,0,0,0,.122-1.845,7.692,7.692,0,0,0-1.826-.839,10.24,10.24,0,0,1-1.834-.777,2.4,2.4,0,0,1-.81-.755,1.849,1.849,0,0,1-.266-1.008,1.885,1.885,0,0,1,.919-1.651,4.549,4.549,0,0,1,2.522-.605,7.893,7.893,0,0,1,2.919.563l-.5,1.055a7.142,7.142,0,0,0-2.522-.531,3.086,3.086,0,0,0-1.5.289.885.885,0,0,0-.506.8.92.92,0,0,0,.189.585,1.819,1.819,0,0,0,.612.461,13.662,13.662,0,0,0,1.619.633,6.2,6.2,0,0,1,2.223,1.117A1.894,1.894,0,0,1,1977.918,11582.635Z" fill="#00223d"/>
        <path id="Trazado_9922" data-name="Trazado 9922" d="M1983.181,11584.057a5.291,5.291,0,0,0,1.265-.155v.991a2.633,2.633,0,0,1-.671.168,5.212,5.212,0,0,1-.8.067q-2.682,0-2.682-2.618v-5.093h-1.324v-.625l1.324-.539.59-1.828h.81v1.984h2.682v1.008H1981.7v5.039a1.644,1.644,0,0,0,.4,1.187A1.428,1.428,0,0,0,1983.181,11584.057Z" fill="#00223d"/>
        <path id="Trazado_9923" data-name="Trazado 9923" d="M1990.2,11585.128a4.429,4.429,0,0,1-3.235-1.157,4.275,4.275,0,0,1-1.184-3.211,4.726,4.726,0,0,1,1.1-3.289,3.789,3.789,0,0,1,2.956-1.218,3.631,3.631,0,0,1,2.75,1.058,3.878,3.878,0,0,1,1.012,2.793v.821h-6.368a3.24,3.24,0,0,0,.822,2.289,2.966,2.966,0,0,0,2.2.781,7.961,7.961,0,0,0,2.952-.578v1.156a7.767,7.767,0,0,1-1.4.426A8.5,8.5,0,0,1,1990.2,11585.128Zm-.379-7.789a2.385,2.385,0,0,0-1.776.671,2.988,2.988,0,0,0-.78,1.86h4.833a2.705,2.705,0,0,0-.591-1.879A2.155,2.155,0,0,0,1989.819,11577.339Z" fill="#00223d"/>
        <path id="Trazado_9924" data-name="Trazado 9924" d="M2007.767,11584.971v-5.569a2.194,2.194,0,0,0-.473-1.535,1.907,1.907,0,0,0-1.467-.513,2.472,2.472,0,0,0-1.932.7,3.129,3.129,0,0,0-.624,2.141v4.78h-1.4v-5.569a2.195,2.195,0,0,0-.472-1.535,1.92,1.92,0,0,0-1.476-.513,2.376,2.376,0,0,0-1.928.731,3.734,3.734,0,0,0-.611,2.394v4.492h-1.4v-8.562h1.139l.227,1.172h.068a2.685,2.685,0,0,1,1.117-.978,3.651,3.651,0,0,1,1.616-.351,2.787,2.787,0,0,1,2.833,1.453h.068a2.878,2.878,0,0,1,1.2-1.063,3.981,3.981,0,0,1,1.789-.39,3.283,3.283,0,0,1,2.348.746,3.179,3.179,0,0,1,.781,2.386v5.586Z" fill="#00223d"/>
        <path id="Trazado_9925" data-name="Trazado 9925" d="M2017.736,11584.971l-.278-1.218h-.068a3.821,3.821,0,0,1-1.379,1.09,4.49,4.49,0,0,1-1.716.285,3.241,3.241,0,0,1-2.155-.657,2.3,2.3,0,0,1-.78-1.867q0-2.591,4.478-2.719l1.569-.046v-.532a2.059,2.059,0,0,0-.468-1.487,2.016,2.016,0,0,0-1.5-.48,6.472,6.472,0,0,0-2.615.656l-.43-.992a6.923,6.923,0,0,1,1.5-.539,7,7,0,0,1,1.632-.2,3.712,3.712,0,0,1,2.45.681,2.713,2.713,0,0,1,.8,2.18v5.843Zm-3.163-.914a2.973,2.973,0,0,0,2.054-.664,2.357,2.357,0,0,0,.746-1.858v-.774l-1.4.056a5.421,5.421,0,0,0-2.408.48,1.423,1.423,0,0,0-.738,1.324,1.286,1.286,0,0,0,.46,1.07A2.014,2.014,0,0,0,2014.573,11584.057Z" fill="#00223d"/>
        <path id="Trazado_9926" data-name="Trazado 9926" d="M2027.621,11582.635a2.092,2.092,0,0,1-.962,1.844,4.782,4.782,0,0,1-2.7.649,6.263,6.263,0,0,1-2.867-.539v-1.2a7.194,7.194,0,0,0,1.429.493,6.4,6.4,0,0,0,1.472.179,3.556,3.556,0,0,0,1.687-.323,1.073,1.073,0,0,0,.122-1.845,7.67,7.67,0,0,0-1.826-.839,10.273,10.273,0,0,1-1.834-.777,2.4,2.4,0,0,1-.81-.755,1.848,1.848,0,0,1-.265-1.008,1.882,1.882,0,0,1,.919-1.651,4.545,4.545,0,0,1,2.521-.605,7.885,7.885,0,0,1,2.919.563l-.5,1.055a7.138,7.138,0,0,0-2.522-.531,3.086,3.086,0,0,0-1.5.289.887.887,0,0,0-.506.8.915.915,0,0,0,.19.585,1.815,1.815,0,0,0,.611.461,13.622,13.622,0,0,0,1.62.633,6.2,6.2,0,0,1,2.222,1.117A1.894,1.894,0,0,1,2027.621,11582.635Z" fill="#00223d"/>
        <path id="Trazado_9927" data-name="Trazado 9927" d="M1939.757,11607.128a4.427,4.427,0,0,1-3.235-1.157,4.276,4.276,0,0,1-1.185-3.211,4.726,4.726,0,0,1,1.1-3.289,3.789,3.789,0,0,1,2.956-1.218,3.632,3.632,0,0,1,2.75,1.058,3.879,3.879,0,0,1,1.012,2.793v.821h-6.368a3.241,3.241,0,0,0,.822,2.289,2.966,2.966,0,0,0,2.2.781,7.97,7.97,0,0,0,2.952-.578v1.156a7.818,7.818,0,0,1-1.4.426A8.5,8.5,0,0,1,1939.757,11607.128Zm-.38-7.789a2.384,2.384,0,0,0-1.775.671,2.981,2.981,0,0,0-.781,1.86h4.833a2.71,2.71,0,0,0-.59-1.879A2.157,2.157,0,0,0,1939.377,11599.339Z" fill="#00223d"/>
        <path id="Trazado_9928" data-name="Trazado 9928" d="M1946.943,11606.971h-1.4v-12.155h1.4Z" fill="#00223d"/>
        <path id="Trazado_9929" data-name="Trazado 9929" d="M1953.817,11607.128a4.427,4.427,0,0,1-3.235-1.157,4.275,4.275,0,0,1-1.185-3.211,4.726,4.726,0,0,1,1.1-3.289,3.789,3.789,0,0,1,2.956-1.218,3.628,3.628,0,0,1,2.749,1.058,3.875,3.875,0,0,1,1.013,2.793v.821h-6.368a3.24,3.24,0,0,0,.822,2.289,2.966,2.966,0,0,0,2.2.781,7.966,7.966,0,0,0,2.952-.578v1.156a7.82,7.82,0,0,1-1.4.426A8.5,8.5,0,0,1,1953.817,11607.128Zm-.38-7.789a2.384,2.384,0,0,0-1.775.671,2.975,2.975,0,0,0-.78,1.86h4.832a2.711,2.711,0,0,0-.59-1.879A2.157,2.157,0,0,0,1953.437,11599.339Zm-1.037-2.258q.405-.483.873-1.172a12.991,12.991,0,0,0,.737-1.2h1.7v.164a11.621,11.621,0,0,1-1.1,1.25,12.164,12.164,0,0,1-1.274,1.148h-.936Z" fill="#00223d"/>
        <path id="Trazado_9930" data-name="Trazado 9930" d="M1963.3,11607.128a4.107,4.107,0,0,1-3.108-1.145,4.484,4.484,0,0,1-1.1-3.238,4.623,4.623,0,0,1,1.118-3.32,4.187,4.187,0,0,1,3.184-1.172,6.922,6.922,0,0,1,1.332.132,4.688,4.688,0,0,1,1.046.313l-.43,1.1a7.107,7.107,0,0,0-1.012-.286,4.958,4.958,0,0,0-.97-.112q-2.817,0-2.817,3.327a3.75,3.75,0,0,0,.687,2.423,2.473,2.473,0,0,0,2.037.844,6.652,6.652,0,0,0,2.37-.461v1.147A5.393,5.393,0,0,1,1963.3,11607.128Z" fill="#00223d"/>
        <path id="Trazado_9931" data-name="Trazado 9931" d="M1970.812,11606.057a5.288,5.288,0,0,0,1.265-.155v.991a2.642,2.642,0,0,1-.671.168,5.222,5.222,0,0,1-.8.067q-2.682,0-2.682-2.618v-5.093H1966.6v-.625l1.324-.539.591-1.828h.809v1.984h2.682v1.008h-2.682v5.039a1.644,1.644,0,0,0,.4,1.187A1.43,1.43,0,0,0,1970.812,11606.057Z" fill="#00223d"/>
        <path id="Trazado_9932" data-name="Trazado 9932" d="M1978.141,11598.253a5.993,5.993,0,0,1,1.1.093l-.194,1.2a5.065,5.065,0,0,0-1.012-.118,2.547,2.547,0,0,0-1.919.845,2.944,2.944,0,0,0-.8,2.1v4.593h-1.4v-8.562h1.155l.161,1.586h.067a3.888,3.888,0,0,1,1.24-1.289A2.952,2.952,0,0,1,1978.141,11598.253Z" fill="#00223d"/>
        <path id="Trazado_9933" data-name="Trazado 9933" d="M1980.857,11596.089a.83.83,0,0,1,.236-.653.924.924,0,0,1,1.172,0,.812.812,0,0,1,.245.648.823.823,0,0,1-.245.652.851.851,0,0,1-.582.215.78.78,0,0,1-.826-.867Zm1.518,10.882h-1.4v-8.562h1.4Z" fill="#00223d"/>
        <path id="Trazado_9934" data-name="Trazado 9934" d="M1989.038,11607.128a4.108,4.108,0,0,1-3.108-1.145,4.484,4.484,0,0,1-1.1-3.238,4.622,4.622,0,0,1,1.117-3.32,4.187,4.187,0,0,1,3.184-1.172,6.939,6.939,0,0,1,1.333.132,4.664,4.664,0,0,1,1.045.313l-.43,1.1a7.07,7.07,0,0,0-1.012-.286,4.948,4.948,0,0,0-.97-.112q-2.817,0-2.817,3.327a3.75,3.75,0,0,0,.687,2.423,2.476,2.476,0,0,0,2.038.844,6.651,6.651,0,0,0,2.37-.461v1.147A5.4,5.4,0,0,1,1989.038,11607.128Z" fill="#00223d"/>
        <path id="Trazado_9935" data-name="Trazado 9935" d="M2001.546,11602.682a4.5,4.5,0,0,1-1.138,3.271,4.174,4.174,0,0,1-3.146,1.176,4.425,4.425,0,0,1-2.2-.539,3.671,3.671,0,0,1-1.484-1.547,5.051,5.051,0,0,1-.523-2.36,4.494,4.494,0,0,1,1.13-3.261,4.159,4.159,0,0,1,3.138-1.168,4.067,4.067,0,0,1,3.083,1.2A4.488,4.488,0,0,1,2001.546,11602.682Zm-7.042,0a3.841,3.841,0,0,0,.708,2.5,2.963,2.963,0,0,0,4.171,0,3.822,3.822,0,0,0,.712-2.5,3.763,3.763,0,0,0-.712-2.479,2.594,2.594,0,0,0-2.1-.849,2.554,2.554,0,0,0-2.075.837A3.8,3.8,0,0,0,1994.5,11602.682Z" fill="#00223d"/>
        <path id="Trazado_9936" data-name="Trazado 9936" d="M2009.964,11604.635a2.092,2.092,0,0,1-.962,1.844,4.781,4.781,0,0,1-2.7.649,6.265,6.265,0,0,1-2.868-.539v-1.2a7.224,7.224,0,0,0,1.43.493,6.4,6.4,0,0,0,1.472.179,3.556,3.556,0,0,0,1.687-.323,1.073,1.073,0,0,0,.122-1.845,7.691,7.691,0,0,0-1.826-.839,10.242,10.242,0,0,1-1.834-.777,2.4,2.4,0,0,1-.81-.755,1.849,1.849,0,0,1-.266-1.008,1.883,1.883,0,0,1,.92-1.651,4.543,4.543,0,0,1,2.521-.605,7.885,7.885,0,0,1,2.919.563l-.5,1.055a7.142,7.142,0,0,0-2.522-.531,3.086,3.086,0,0,0-1.5.289.887.887,0,0,0-.506.8.915.915,0,0,0,.19.585,1.8,1.8,0,0,0,.611.461,13.63,13.63,0,0,0,1.62.633,6.2,6.2,0,0,1,2.222,1.117A1.894,1.894,0,0,1,2009.964,11604.635Z" fill="#00223d"/>
      </g>
    </g>
    <rect id="Rectángulo_6152" data-name="Rectángulo 6152" width="176.99" height="61.404" rx="5.6" transform="translate(1884.067 11655.382)" fill="#fff" stroke="#91c7ea" stroke-miterlimit="10" stroke-width="1"/>
    <g id="Grupo_9479" data-name="Grupo 9479">
      <g id="Grupo_9478" data-name="Grupo 9478">
        <path id="Trazado_9937" data-name="Trazado 9937" d="M1916.124,11671.677a3.1,3.1,0,0,1-1.278,2.668,6.12,6.12,0,0,1-3.656.935h-1.451v4.492h-1.434v-11.423h3.2Q1916.124,11668.349,1916.124,11671.677Zm-6.385,2.461h1.29a5.1,5.1,0,0,0,2.759-.569,2.041,2.041,0,0,0,.851-1.828,1.917,1.917,0,0,0-.8-1.688,4.451,4.451,0,0,0-2.5-.554h-1.6Z" fill="#00223d"/>
        <path id="Trazado_9938" data-name="Trazado 9938" d="M1924.178,11679.771l-.278-1.22h-.067a3.8,3.8,0,0,1-1.379,1.09,4.48,4.48,0,0,1-1.717.285,3.248,3.248,0,0,1-2.155-.655,2.3,2.3,0,0,1-.78-1.867q0-2.593,4.479-2.72l1.569-.047v-.53a2.062,2.062,0,0,0-.468-1.488,2.019,2.019,0,0,0-1.5-.481,6.482,6.482,0,0,0-2.614.657l-.43-.993a7.137,7.137,0,0,1,3.129-.733,3.714,3.714,0,0,1,2.45.68,2.715,2.715,0,0,1,.8,2.179v5.845Zm-3.162-.914a2.984,2.984,0,0,0,2.054-.664,2.36,2.36,0,0,0,.746-1.859v-.774l-1.4.056a5.447,5.447,0,0,0-2.408.479,1.426,1.426,0,0,0-.738,1.325,1.29,1.29,0,0,0,.459,1.07A2.013,2.013,0,0,0,1921.016,11678.857Z" fill="#00223d"/>
        <path id="Trazado_9939" data-name="Trazado 9939" d="M1932.318,11671.052a5.908,5.908,0,0,1,1.1.095l-.194,1.2a5.2,5.2,0,0,0-1.012-.116,2.54,2.54,0,0,0-1.919.844,2.938,2.938,0,0,0-.8,2.1v4.595h-1.4v-8.562h1.155l.16,1.586h.068a3.879,3.879,0,0,1,1.24-1.289A2.95,2.95,0,0,1,1932.318,11671.052Z" fill="#00223d"/>
        <path id="Trazado_9940" data-name="Trazado 9940" d="M1940.836,11679.771l-.278-1.22h-.068a3.8,3.8,0,0,1-1.378,1.09,4.481,4.481,0,0,1-1.717.285,3.248,3.248,0,0,1-2.155-.655,2.3,2.3,0,0,1-.78-1.867q0-2.593,4.479-2.72l1.569-.047v-.53a2.062,2.062,0,0,0-.469-1.488,2.016,2.016,0,0,0-1.5-.481,6.491,6.491,0,0,0-2.615.657l-.43-.993a7.137,7.137,0,0,1,3.13-.733,3.714,3.714,0,0,1,2.45.68,2.715,2.715,0,0,1,.8,2.179v5.845Zm-3.162-.914a2.98,2.98,0,0,0,2.053-.664,2.358,2.358,0,0,0,.747-1.859v-.774l-1.4.056a5.442,5.442,0,0,0-2.407.479,1.427,1.427,0,0,0-.739,1.325,1.291,1.291,0,0,0,.46,1.07A2.011,2.011,0,0,0,1937.674,11678.857Z" fill="#00223d"/>
        <path id="Trazado_9941" data-name="Trazado 9941" d="M1952.231,11678.857a4.762,4.762,0,0,0,.717-.052,4.526,4.526,0,0,0,.548-.1v.992a2.719,2.719,0,0,1-.67.168,5.47,5.47,0,0,1-.8.065q-2.684,0-2.683-2.617v-5.093h-1.324v-.625l1.324-.54.591-1.828h.81v1.985h2.682v1.008h-2.682v5.039a1.651,1.651,0,0,0,.4,1.188A1.437,1.437,0,0,0,1952.231,11678.857Z" fill="#00223d"/>
        <path id="Trazado_9942" data-name="Trazado 9942" d="M1959.56,11671.052a5.894,5.894,0,0,1,1.1.095l-.194,1.2a5.187,5.187,0,0,0-1.012-.116,2.543,2.543,0,0,0-1.919.844,2.942,2.942,0,0,0-.8,2.1v4.595h-1.4v-8.562h1.156l.16,1.586h.068a3.878,3.878,0,0,1,1.24-1.289A2.949,2.949,0,0,1,1959.56,11671.052Z" fill="#00223d"/>
        <path id="Trazado_9943" data-name="Trazado 9943" d="M1968.079,11679.771l-.278-1.22h-.068a3.8,3.8,0,0,1-1.379,1.09,4.471,4.471,0,0,1-1.716.285,3.245,3.245,0,0,1-2.155-.655,2.3,2.3,0,0,1-.78-1.867q0-2.593,4.478-2.72l1.569-.047v-.53a2.062,2.062,0,0,0-.468-1.488,2.016,2.016,0,0,0-1.5-.481,6.486,6.486,0,0,0-2.615.657l-.43-.993a7.137,7.137,0,0,1,3.129-.733,3.717,3.717,0,0,1,2.451.68,2.714,2.714,0,0,1,.8,2.179v5.845Zm-3.163-.914a2.983,2.983,0,0,0,2.054-.664,2.361,2.361,0,0,0,.747-1.859v-.774l-1.4.056a5.451,5.451,0,0,0-2.408.479,1.426,1.426,0,0,0-.738,1.325,1.288,1.288,0,0,0,.46,1.07A2.008,2.008,0,0,0,1964.916,11678.857Z" fill="#00223d"/>
        <path id="Trazado_9944" data-name="Trazado 9944" d="M1976.3,11671.068a3.565,3.565,0,0,1,2.83,1.151,5.789,5.789,0,0,1-.008,6.54,3.541,3.541,0,0,1-2.822,1.167,4.265,4.265,0,0,1-1.648-.308,3.058,3.058,0,0,1-1.253-.949h-.1l-.3,1.1h-1v-12.156h1.4v2.953q0,.993-.067,1.78h.067A3.426,3.426,0,0,1,1976.3,11671.068Zm-.2,1.086a2.54,2.54,0,0,0-2.066.762,5.489,5.489,0,0,0,.016,5.148,2.569,2.569,0,0,0,2.084.777,2.218,2.218,0,0,0,1.923-.872,4.213,4.213,0,0,0,.632-2.5,4.059,4.059,0,0,0-.632-2.493A2.315,2.315,0,0,0,1976.1,11672.154Z" fill="#00223d"/>
        <path id="Trazado_9945" data-name="Trazado 9945" d="M1988.271,11679.771l-.279-1.22h-.067a3.8,3.8,0,0,1-1.379,1.09,4.471,4.471,0,0,1-1.716.285,3.245,3.245,0,0,1-2.155-.655,2.3,2.3,0,0,1-.781-1.867q0-2.593,4.479-2.72l1.569-.047v-.53a2.062,2.062,0,0,0-.468-1.488,2.016,2.016,0,0,0-1.5-.481,6.486,6.486,0,0,0-2.615.657l-.43-.993a7.136,7.136,0,0,1,3.129-.733,3.712,3.712,0,0,1,2.45.68,2.711,2.711,0,0,1,.8,2.179v5.845Zm-3.163-.914a2.985,2.985,0,0,0,2.054-.664,2.36,2.36,0,0,0,.746-1.859v-.774l-1.4.056a5.451,5.451,0,0,0-2.408.479,1.426,1.426,0,0,0-.738,1.325,1.288,1.288,0,0,0,.46,1.07A2.008,2.008,0,0,0,1985.108,11678.857Z" fill="#00223d"/>
        <path id="Trazado_9946" data-name="Trazado 9946" d="M1991.071,11683.615a3.622,3.622,0,0,1-1.3-.2v-1.055a4.443,4.443,0,0,0,1.147.156,1.258,1.258,0,0,0,.966-.332,1.448,1.448,0,0,0,.308-1.013v-9.968h1.4v9.875A2.233,2.233,0,0,1,1991.071,11683.615Zm1-14.728a.826.826,0,0,1,.236-.651.926.926,0,0,1,1.172,0,.81.81,0,0,1,.245.647.824.824,0,0,1-.245.653.856.856,0,0,1-.582.215.781.781,0,0,1-.826-.868Z" fill="#00223d"/>
        <path id="Trazado_9947" data-name="Trazado 9947" d="M2004.54,11675.482a4.5,4.5,0,0,1-1.138,3.27,4.174,4.174,0,0,1-3.146,1.175,4.418,4.418,0,0,1-2.2-.539,3.67,3.67,0,0,1-1.484-1.546,5.049,5.049,0,0,1-.523-2.359,4.5,4.5,0,0,1,1.13-3.263,4.17,4.17,0,0,1,3.138-1.168,4.066,4.066,0,0,1,3.083,1.2A4.489,4.489,0,0,1,2004.54,11675.482Zm-7.042,0a3.845,3.845,0,0,0,.708,2.5,2.965,2.965,0,0,0,4.171,0,3.824,3.824,0,0,0,.713-2.5,3.765,3.765,0,0,0-.713-2.48,2.593,2.593,0,0,0-2.1-.848,2.552,2.552,0,0,0-2.075.836A3.8,3.8,0,0,0,1997.5,11675.482Z" fill="#00223d"/>
        <path id="Trazado_9948" data-name="Trazado 9948" d="M2012.958,11677.435a2.1,2.1,0,0,1-.962,1.845,4.788,4.788,0,0,1-2.7.647,6.249,6.249,0,0,1-2.868-.539v-1.2a7.18,7.18,0,0,0,1.43.492,6.341,6.341,0,0,0,1.471.181,3.554,3.554,0,0,0,1.687-.324,1.071,1.071,0,0,0,.122-1.844,7.675,7.675,0,0,0-1.826-.841,10.256,10.256,0,0,1-1.834-.776,2.428,2.428,0,0,1-.81-.754,1.854,1.854,0,0,1-.266-1.009,1.883,1.883,0,0,1,.92-1.651,4.546,4.546,0,0,1,2.522-.606,7.886,7.886,0,0,1,2.918.563l-.5,1.055a7.163,7.163,0,0,0-2.522-.532,3.111,3.111,0,0,0-1.5.289.888.888,0,0,0-.506.8.914.914,0,0,0,.19.586,1.83,1.83,0,0,0,.611.462,14.066,14.066,0,0,0,1.62.633,6.2,6.2,0,0,1,2.222,1.117A1.892,1.892,0,0,1,2012.958,11677.435Z" fill="#00223d"/>
        <path id="Trazado_9949" data-name="Trazado 9949" d="M2026.014,11678.623h-.076a3.382,3.382,0,0,1-2.9,1.3,3.553,3.553,0,0,1-2.821-1.147,4.8,4.8,0,0,1-1.008-3.267,4.877,4.877,0,0,1,1.012-3.289,3.528,3.528,0,0,1,2.817-1.172,3.462,3.462,0,0,1,2.884,1.267h.11l-.059-.617-.034-.6v-3.483h1.4v12.156H2026.2Zm-2.8.219a2.66,2.66,0,0,0,2.079-.723,3.455,3.455,0,0,0,.645-2.332v-.274a4.057,4.057,0,0,0-.653-2.6,2.584,2.584,0,0,0-2.088-.778,2.2,2.2,0,0,0-1.885.888,4.157,4.157,0,0,0-.654,2.5,3.987,3.987,0,0,0,.65,2.477A2.265,2.265,0,0,0,2023.214,11678.842Z" fill="#00223d"/>
        <path id="Trazado_9950" data-name="Trazado 9950" d="M2034.212,11679.927a4.429,4.429,0,0,1-3.234-1.155,4.281,4.281,0,0,1-1.185-3.212,4.72,4.72,0,0,1,1.1-3.288,3.786,3.786,0,0,1,2.956-1.22,3.625,3.625,0,0,1,2.749,1.06,3.873,3.873,0,0,1,1.013,2.793v.819h-6.369a3.24,3.24,0,0,0,.823,2.289,2.961,2.961,0,0,0,2.2.782,7.969,7.969,0,0,0,2.952-.578v1.156a7.82,7.82,0,0,1-1.4.426A8.517,8.517,0,0,1,2034.212,11679.927Zm-.379-7.789a2.389,2.389,0,0,0-1.776.672,2.986,2.986,0,0,0-.78,1.86h4.833a2.709,2.709,0,0,0-.59-1.879A2.161,2.161,0,0,0,2033.833,11672.138Z" fill="#00223d"/>
        <path id="Trazado_9951" data-name="Trazado 9951" d="M1923.681,11701.771v-5.57a2.2,2.2,0,0,0-.472-1.535,1.909,1.909,0,0,0-1.468-.512,2.468,2.468,0,0,0-1.931.694,3.131,3.131,0,0,0-.625,2.142v4.781h-1.4v-5.57a2.194,2.194,0,0,0-.472-1.535,1.92,1.92,0,0,0-1.476-.512,2.377,2.377,0,0,0-1.927.73,3.728,3.728,0,0,0-.612,2.395v4.492h-1.4v-8.562h1.139l.228,1.172h.067a2.675,2.675,0,0,1,1.117-.977,3.642,3.642,0,0,1,1.616-.353,2.789,2.789,0,0,1,2.834,1.454h.067a2.859,2.859,0,0,1,1.2-1.062,3.955,3.955,0,0,1,1.788-.392,3.284,3.284,0,0,1,2.349.747,3.178,3.178,0,0,1,.78,2.386v5.587Z" fill="#00223d"/>
        <path id="Trazado_9952" data-name="Trazado 9952" d="M1933.65,11701.771l-.278-1.22h-.068a3.8,3.8,0,0,1-1.379,1.09,4.471,4.471,0,0,1-1.716.285,3.246,3.246,0,0,1-2.155-.655,2.3,2.3,0,0,1-.78-1.867q0-2.593,4.479-2.72l1.568-.047v-.53a2.062,2.062,0,0,0-.468-1.488,2.017,2.017,0,0,0-1.5-.481,6.491,6.491,0,0,0-2.615.657l-.43-.993a7.136,7.136,0,0,1,3.129-.733,3.717,3.717,0,0,1,2.451.68,2.715,2.715,0,0,1,.8,2.179v5.845Zm-3.162-.914a2.982,2.982,0,0,0,2.053-.664,2.358,2.358,0,0,0,.747-1.859v-.774l-1.4.056a5.451,5.451,0,0,0-2.408.479,1.428,1.428,0,0,0-.738,1.325,1.291,1.291,0,0,0,.46,1.07A2.011,2.011,0,0,0,1930.488,11700.857Z" fill="#00223d"/>
        <path id="Trazado_9953" data-name="Trazado 9953" d="M1943.9,11701.771v-5.539a2.127,2.127,0,0,0-.515-1.562,2.2,2.2,0,0,0-1.611-.516,2.775,2.775,0,0,0-2.125.727,3.473,3.473,0,0,0-.675,2.4v4.492h-1.4v-8.562h1.139l.228,1.172h.067a2.809,2.809,0,0,1,1.206-.98,4.188,4.188,0,0,1,1.729-.349,3.7,3.7,0,0,1,2.514.747,3.035,3.035,0,0,1,.843,2.386v5.587Z" fill="#00223d"/>
        <path id="Trazado_9954" data-name="Trazado 9954" d="M1951.16,11700.857a4.761,4.761,0,0,0,.717-.052,4.524,4.524,0,0,0,.548-.1v.992a2.72,2.72,0,0,1-.67.168,5.472,5.472,0,0,1-.8.065q-2.682,0-2.682-2.617v-5.093h-1.324v-.625l1.324-.54.591-1.828h.809v1.985h2.683v1.008h-2.683v5.039a1.646,1.646,0,0,0,.4,1.188A1.437,1.437,0,0,0,1951.16,11700.857Z" fill="#00223d"/>
        <path id="Trazado_9955" data-name="Trazado 9955" d="M1958.177,11701.927a4.429,4.429,0,0,1-3.234-1.155,4.281,4.281,0,0,1-1.185-3.212,4.72,4.72,0,0,1,1.1-3.288,3.788,3.788,0,0,1,2.957-1.22,3.627,3.627,0,0,1,2.749,1.06,3.872,3.872,0,0,1,1.012,2.793v.819h-6.368a3.236,3.236,0,0,0,.823,2.289,2.961,2.961,0,0,0,2.2.782,7.97,7.97,0,0,0,2.952-.578v1.156a7.818,7.818,0,0,1-1.4.426A8.524,8.524,0,0,1,1958.177,11701.927Zm-.379-7.789a2.387,2.387,0,0,0-1.776.672,2.988,2.988,0,0,0-.78,1.86h4.833a2.708,2.708,0,0,0-.59-1.879A2.161,2.161,0,0,0,1957.8,11694.138Z" fill="#00223d"/>
        <path id="Trazado_9956" data-name="Trazado 9956" d="M1970.289,11701.771v-5.539a2.127,2.127,0,0,0-.515-1.562,2.2,2.2,0,0,0-1.611-.516,2.775,2.775,0,0,0-2.125.727,3.473,3.473,0,0,0-.675,2.4v4.492h-1.4v-8.562h1.139l.227,1.172h.068a2.81,2.81,0,0,1,1.206-.98,4.185,4.185,0,0,1,1.729-.349,3.694,3.694,0,0,1,2.513.747,3.032,3.032,0,0,1,.844,2.386v5.587Z" fill="#00223d"/>
        <path id="Trazado_9957" data-name="Trazado 9957" d="M1974.447,11690.888a.826.826,0,0,1,.236-.651.926.926,0,0,1,1.172,0,.81.81,0,0,1,.245.647.824.824,0,0,1-.245.653.907.907,0,0,1-1.172,0A.841.841,0,0,1,1974.447,11690.888Zm1.518,10.884h-1.4v-8.562h1.4Z" fill="#00223d"/>
        <path id="Trazado_9958" data-name="Trazado 9958" d="M1990.717,11701.771v-5.57a2.195,2.195,0,0,0-.473-1.535,1.907,1.907,0,0,0-1.467-.512,2.471,2.471,0,0,0-1.932.694,3.137,3.137,0,0,0-.624,2.142v4.781h-1.4v-5.57a2.195,2.195,0,0,0-.472-1.535,1.92,1.92,0,0,0-1.476-.512,2.375,2.375,0,0,0-1.927.73,3.728,3.728,0,0,0-.612,2.395v4.492h-1.4v-8.562h1.138l.228,1.172h.068a2.675,2.675,0,0,1,1.117-.977,3.642,3.642,0,0,1,1.616-.353,2.786,2.786,0,0,1,2.833,1.454H1986a2.862,2.862,0,0,1,1.2-1.062,3.959,3.959,0,0,1,1.789-.392,3.286,3.286,0,0,1,2.349.747,3.178,3.178,0,0,1,.78,2.386v5.587Z" fill="#00223d"/>
        <path id="Trazado_9959" data-name="Trazado 9959" d="M1994.883,11690.888a.826.826,0,0,1,.236-.651.927.927,0,0,1,1.173,0,.809.809,0,0,1,.244.647.824.824,0,0,1-.244.653.908.908,0,0,1-1.173,0A.841.841,0,0,1,1994.883,11690.888Zm1.518,10.884H1995v-8.562h1.4Z" fill="#00223d"/>
        <path id="Trazado_9960" data-name="Trazado 9960" d="M2003.275,11701.927a4.429,4.429,0,0,1-3.234-1.155,4.281,4.281,0,0,1-1.185-3.212,4.724,4.724,0,0,1,1.1-3.288,3.788,3.788,0,0,1,2.957-1.22,3.625,3.625,0,0,1,2.749,1.06,3.873,3.873,0,0,1,1.013,2.793v.819h-6.369a3.24,3.24,0,0,0,.823,2.289,2.961,2.961,0,0,0,2.2.782,7.969,7.969,0,0,0,2.952-.578v1.156a7.82,7.82,0,0,1-1.4.426A8.517,8.517,0,0,1,2003.275,11701.927Zm-.379-7.789a2.389,2.389,0,0,0-1.776.672,2.986,2.986,0,0,0-.78,1.86h4.833a2.709,2.709,0,0,0-.59-1.879A2.161,2.161,0,0,0,2002.9,11694.138Z" fill="#00223d"/>
        <path id="Trazado_9961" data-name="Trazado 9961" d="M2015.387,11701.771v-5.539a2.127,2.127,0,0,0-.515-1.562,2.2,2.2,0,0,0-1.611-.516,2.774,2.774,0,0,0-2.125.727,3.473,3.473,0,0,0-.675,2.4v4.492h-1.4v-8.562h1.139l.227,1.172h.068a2.809,2.809,0,0,1,1.206-.98,4.188,4.188,0,0,1,1.729-.349,3.7,3.7,0,0,1,2.514.747,3.035,3.035,0,0,1,.843,2.386v5.587Z" fill="#00223d"/>
        <path id="Trazado_9962" data-name="Trazado 9962" d="M2022.649,11700.857a4.761,4.761,0,0,0,.717-.052,4.522,4.522,0,0,0,.548-.1v.992a2.717,2.717,0,0,1-.671.168,5.449,5.449,0,0,1-.8.065q-2.682,0-2.682-2.617v-5.093h-1.324v-.625l1.324-.54.591-1.828h.809v1.985h2.682v1.008h-2.682v5.039a1.65,1.65,0,0,0,.4,1.188A1.437,1.437,0,0,0,2022.649,11700.857Z" fill="#00223d"/>
        <path id="Trazado_9963" data-name="Trazado 9963" d="M2033.74,11697.482a4.5,4.5,0,0,1-1.139,3.27,4.172,4.172,0,0,1-3.146,1.175,4.414,4.414,0,0,1-2.2-.539,3.658,3.658,0,0,1-1.484-1.546,5.049,5.049,0,0,1-.523-2.359,4.5,4.5,0,0,1,1.13-3.263,4.166,4.166,0,0,1,3.137-1.168,4.065,4.065,0,0,1,3.083,1.2A4.485,4.485,0,0,1,2033.74,11697.482Zm-7.043,0a3.845,3.845,0,0,0,.709,2.5,2.965,2.965,0,0,0,4.171,0,3.825,3.825,0,0,0,.712-2.5,3.766,3.766,0,0,0-.712-2.48,2.6,2.6,0,0,0-2.1-.848,2.553,2.553,0,0,0-2.075.836A3.811,3.811,0,0,0,2026.7,11697.482Z" fill="#00223d"/>
      </g>
    </g>
    <rect id="Rectángulo_6153" data-name="Rectángulo 6153" width="141.057" height="61.404" rx="5.6" transform="translate(1690.938 11560.582)" fill="#fff" stroke="#91c7ea" stroke-miterlimit="10" stroke-width="1"/>
    <g id="Grupo_9481" data-name="Grupo 9481">
      <g id="Grupo_9480" data-name="Grupo 9480">
        <path id="Trazado_9964" data-name="Trazado 9964" d="M1717.111,11587.878a3.1,3.1,0,0,1-1.278,2.668,6.121,6.121,0,0,1-3.656.933h-1.451v4.492h-1.434v-11.421h3.2Q1717.11,11584.55,1717.111,11587.878Zm-6.385,2.461h1.291a5.089,5.089,0,0,0,2.758-.571,2.039,2.039,0,0,0,.851-1.827,1.913,1.913,0,0,0-.8-1.687,4.45,4.45,0,0,0-2.5-.555h-1.6Z" fill="#00223d"/>
        <path id="Trazado_9965" data-name="Trazado 9965" d="M1723.386,11596.128a4.426,4.426,0,0,1-3.234-1.157,4.276,4.276,0,0,1-1.185-3.211,4.726,4.726,0,0,1,1.1-3.289,3.789,3.789,0,0,1,2.956-1.218,3.63,3.63,0,0,1,2.75,1.058,3.874,3.874,0,0,1,1.012,2.793v.821h-6.368a3.236,3.236,0,0,0,.823,2.289,2.965,2.965,0,0,0,2.2.781,7.97,7.97,0,0,0,2.952-.578v1.156a7.8,7.8,0,0,1-1.405.426A8.5,8.5,0,0,1,1723.386,11596.128Zm-.379-7.789a2.387,2.387,0,0,0-1.776.671,2.987,2.987,0,0,0-.78,1.86h4.833a2.705,2.705,0,0,0-.591-1.879A2.153,2.153,0,0,0,1723.007,11588.339Z" fill="#00223d"/>
        <path id="Trazado_9966" data-name="Trazado 9966" d="M1733.389,11587.253a5.986,5.986,0,0,1,1.1.093l-.194,1.2a5.067,5.067,0,0,0-1.012-.118,2.546,2.546,0,0,0-1.919.845,2.944,2.944,0,0,0-.8,2.1v4.593h-1.4v-8.562h1.155l.161,1.586h.067a3.887,3.887,0,0,1,1.24-1.289A2.954,2.954,0,0,1,1733.389,11587.253Z" fill="#00223d"/>
        <path id="Trazado_9967" data-name="Trazado 9967" d="M1748.006,11595.971v-5.569a2.194,2.194,0,0,0-.473-1.535,1.907,1.907,0,0,0-1.467-.513,2.472,2.472,0,0,0-1.932.7,3.129,3.129,0,0,0-.624,2.141v4.78h-1.4v-5.569a2.194,2.194,0,0,0-.472-1.535,1.92,1.92,0,0,0-1.476-.513,2.373,2.373,0,0,0-1.927.731,3.727,3.727,0,0,0-.612,2.394v4.492h-1.4v-8.562h1.139l.227,1.172h.068a2.691,2.691,0,0,1,1.117-.978,3.651,3.651,0,0,1,1.616-.351,2.786,2.786,0,0,1,2.833,1.453h.068a2.877,2.877,0,0,1,1.2-1.063,3.981,3.981,0,0,1,1.789-.39,3.287,3.287,0,0,1,2.349.746,3.178,3.178,0,0,1,.78,2.386v5.586Z" fill="#00223d"/>
        <path id="Trazado_9968" data-name="Trazado 9968" d="M1757.975,11595.971l-.278-1.218h-.068a3.821,3.821,0,0,1-1.379,1.09,4.49,4.49,0,0,1-1.716.285,3.241,3.241,0,0,1-2.155-.657,2.3,2.3,0,0,1-.78-1.867q0-2.591,4.478-2.719l1.569-.046v-.532a2.059,2.059,0,0,0-.468-1.487,2.016,2.016,0,0,0-1.5-.48,6.471,6.471,0,0,0-2.615.656l-.43-.992a7.175,7.175,0,0,1,3.129-.735,3.717,3.717,0,0,1,2.451.681,2.717,2.717,0,0,1,.8,2.18v5.843Zm-3.163-.914a2.973,2.973,0,0,0,2.054-.664,2.357,2.357,0,0,0,.747-1.858v-.774l-1.4.056a5.421,5.421,0,0,0-2.408.48,1.423,1.423,0,0,0-.738,1.324,1.286,1.286,0,0,0,.46,1.07A2.014,2.014,0,0,0,1754.812,11595.057Z" fill="#00223d"/>
        <path id="Trazado_9969" data-name="Trazado 9969" d="M1768.223,11595.971v-5.539a2.127,2.127,0,0,0-.515-1.562,2.2,2.2,0,0,0-1.611-.517,2.771,2.771,0,0,0-2.125.728,3.471,3.471,0,0,0-.675,2.4v4.492h-1.4v-8.562h1.139l.227,1.172h.068a2.813,2.813,0,0,1,1.206-.981,4.2,4.2,0,0,1,1.729-.347,3.694,3.694,0,0,1,2.513.746,3.032,3.032,0,0,1,.844,2.386v5.586Z" fill="#00223d"/>
        <path id="Trazado_9970" data-name="Trazado 9970" d="M1776.4,11596.128a4.429,4.429,0,0,1-3.235-1.157,4.276,4.276,0,0,1-1.185-3.211,4.726,4.726,0,0,1,1.1-3.289,3.789,3.789,0,0,1,2.956-1.218,3.632,3.632,0,0,1,2.75,1.058,3.874,3.874,0,0,1,1.012,2.793v.821h-6.368a3.236,3.236,0,0,0,.823,2.289,2.964,2.964,0,0,0,2.2.781,7.961,7.961,0,0,0,2.951-.578v1.156a7.771,7.771,0,0,1-1.4.426A8.5,8.5,0,0,1,1776.4,11596.128Zm-.38-7.789a2.384,2.384,0,0,0-1.775.671,2.986,2.986,0,0,0-.78,1.86h4.833a2.706,2.706,0,0,0-.591-1.879A2.156,2.156,0,0,0,1776.024,11588.339Z" fill="#00223d"/>
        <path id="Trazado_9971" data-name="Trazado 9971" d="M1788.516,11595.971v-5.539a2.127,2.127,0,0,0-.515-1.562,2.2,2.2,0,0,0-1.611-.517,2.771,2.771,0,0,0-2.125.728,3.471,3.471,0,0,0-.675,2.4v4.492h-1.4v-8.562h1.139l.227,1.172h.068a2.813,2.813,0,0,1,1.206-.981,4.2,4.2,0,0,1,1.729-.347,3.694,3.694,0,0,1,2.513.746,3.035,3.035,0,0,1,.844,2.386v5.586Z" fill="#00223d"/>
        <path id="Trazado_9972" data-name="Trazado 9972" d="M1795.778,11595.057a5.288,5.288,0,0,0,1.265-.155v.991a2.642,2.642,0,0,1-.671.168,5.219,5.219,0,0,1-.8.067q-2.682,0-2.682-2.618v-5.093h-1.324v-.625l1.324-.539.59-1.828h.81v1.984h2.682v1.008h-2.682v5.039a1.644,1.644,0,0,0,.4,1.187A1.429,1.429,0,0,0,1795.778,11595.057Z" fill="#00223d"/>
        <path id="Trazado_9973" data-name="Trazado 9973" d="M1802.8,11596.128a4.428,4.428,0,0,1-3.235-1.157,4.275,4.275,0,0,1-1.185-3.211,4.726,4.726,0,0,1,1.1-3.289,3.789,3.789,0,0,1,2.956-1.218,3.63,3.63,0,0,1,2.75,1.058,3.874,3.874,0,0,1,1.012,2.793v.821h-6.368a3.241,3.241,0,0,0,.822,2.289,2.966,2.966,0,0,0,2.2.781,7.971,7.971,0,0,0,2.953-.578v1.156a7.8,7.8,0,0,1-1.405.426A8.5,8.5,0,0,1,1802.8,11596.128Zm-.38-7.789a2.384,2.384,0,0,0-1.775.671,2.975,2.975,0,0,0-.78,1.86h4.833a2.706,2.706,0,0,0-.591-1.879A2.156,2.156,0,0,0,1802.415,11588.339Z" fill="#00223d"/>
        <path id="Trazado_9974" data-name="Trazado 9974" d="M1814.544,11593.635a2.092,2.092,0,0,1-.962,1.844,4.781,4.781,0,0,1-2.7.649,6.261,6.261,0,0,1-2.867-.539v-1.2a7.2,7.2,0,0,0,1.429.493,6.4,6.4,0,0,0,1.472.179,3.556,3.556,0,0,0,1.687-.323,1.073,1.073,0,0,0,.122-1.845,7.69,7.69,0,0,0-1.826-.839,10.238,10.238,0,0,1-1.834-.777,2.4,2.4,0,0,1-.81-.755,1.849,1.849,0,0,1-.266-1.008,1.883,1.883,0,0,1,.92-1.651,4.544,4.544,0,0,1,2.522-.605,7.884,7.884,0,0,1,2.918.563l-.5,1.055a7.139,7.139,0,0,0-2.522-.531,3.086,3.086,0,0,0-1.5.289.887.887,0,0,0-.506.8.915.915,0,0,0,.19.585,1.805,1.805,0,0,0,.611.461,13.622,13.622,0,0,0,1.62.633,6.2,6.2,0,0,1,2.222,1.117A1.894,1.894,0,0,1,1814.544,11593.635Z" fill="#00223d"/>
      </g>
    </g>
    <rect id="Rectángulo_6154" data-name="Rectángulo 6154" width="141.057" height="61.404" rx="5.6" transform="translate(1690.938 11655.382)" fill="#fff" stroke="#91c7ea" stroke-miterlimit="10" stroke-width="1"/>
    <g id="Grupo_9483" data-name="Grupo 9483">
      <g id="Grupo_9482" data-name="Grupo 9482">
        <path id="Trazado_9975" data-name="Trazado 9975" d="M1719.312,11690.771h-1.434v-10.242h-3.905v-1.181h9.244v1.181h-3.905Z" fill="#00223d"/>
        <path id="Trazado_9976" data-name="Trazado 9976" d="M1728.767,11690.927a4.432,4.432,0,0,1-3.235-1.155,4.28,4.28,0,0,1-1.184-3.212,4.72,4.72,0,0,1,1.1-3.288,3.787,3.787,0,0,1,2.956-1.22,3.628,3.628,0,0,1,2.75,1.06,3.873,3.873,0,0,1,1.012,2.793v.819H1725.8a3.231,3.231,0,0,0,.823,2.289,2.962,2.962,0,0,0,2.2.782,7.97,7.97,0,0,0,2.952-.578v1.156a7.8,7.8,0,0,1-1.405.426A8.506,8.506,0,0,1,1728.767,11690.927Zm-.379-7.789a2.385,2.385,0,0,0-1.776.672,2.986,2.986,0,0,0-.78,1.86h4.833a2.7,2.7,0,0,0-.591-1.879A2.159,2.159,0,0,0,1728.388,11683.138Z" fill="#00223d"/>
        <path id="Trazado_9977" data-name="Trazado 9977" d="M1746.336,11690.771v-5.57a2.195,2.195,0,0,0-.473-1.535,1.906,1.906,0,0,0-1.467-.512,2.472,2.472,0,0,0-1.932.694,3.137,3.137,0,0,0-.624,2.142v4.781h-1.4v-5.57a2.195,2.195,0,0,0-.472-1.535,1.92,1.92,0,0,0-1.476-.512,2.376,2.376,0,0,0-1.927.73,3.729,3.729,0,0,0-.612,2.395v4.492h-1.4v-8.562h1.139l.227,1.172h.068a2.675,2.675,0,0,1,1.117-.977,3.639,3.639,0,0,1,1.616-.353,2.786,2.786,0,0,1,2.833,1.454h.068a2.859,2.859,0,0,1,1.2-1.062,3.952,3.952,0,0,1,1.788-.392,3.286,3.286,0,0,1,2.349.747,3.179,3.179,0,0,1,.78,2.386v5.587Z" fill="#00223d"/>
        <path id="Trazado_9978" data-name="Trazado 9978" d="M1754.922,11690.927a4.267,4.267,0,0,1-1.649-.308,3.065,3.065,0,0,1-1.253-.949h-.1a10.541,10.541,0,0,1,.1,1.422v3.523h-1.4v-12.406h1.139l.194,1.172h.067a3.2,3.2,0,0,1,1.257-1.016,4.087,4.087,0,0,1,1.645-.313,3.539,3.539,0,0,1,2.838,1.165,5.815,5.815,0,0,1-.017,6.543A3.54,3.54,0,0,1,1754.922,11690.927Zm-.2-7.772a2.586,2.586,0,0,0-2.049.727,3.539,3.539,0,0,0-.65,2.313v.289a4.042,4.042,0,0,0,.65,2.582,2.565,2.565,0,0,0,2.083.777,2.221,2.221,0,0,0,1.877-.9,4.029,4.029,0,0,0,.679-2.477,3.879,3.879,0,0,0-.679-2.457A2.3,2.3,0,0,0,1754.719,11683.154Z" fill="#00223d"/>
        <path id="Trazado_9979" data-name="Trazado 9979" d="M1769.184,11686.482a4.5,4.5,0,0,1-1.138,3.27,4.174,4.174,0,0,1-3.146,1.175,4.415,4.415,0,0,1-2.2-.539,3.658,3.658,0,0,1-1.484-1.546,5.049,5.049,0,0,1-.523-2.359,4.5,4.5,0,0,1,1.13-3.263,4.166,4.166,0,0,1,3.138-1.168,4.064,4.064,0,0,1,3.082,1.2A4.485,4.485,0,0,1,1769.184,11686.482Zm-7.042,0a3.845,3.845,0,0,0,.708,2.5,2.965,2.965,0,0,0,4.171,0,3.825,3.825,0,0,0,.713-2.5,3.766,3.766,0,0,0-.713-2.48,2.594,2.594,0,0,0-2.1-.848,2.549,2.549,0,0,0-2.074.836A3.8,3.8,0,0,0,1762.142,11686.482Z" fill="#00223d"/>
        <path id="Trazado_9980" data-name="Trazado 9980" d="M1775.856,11682.052a5.909,5.909,0,0,1,1.105.095l-.194,1.2a5.2,5.2,0,0,0-1.012-.116,2.541,2.541,0,0,0-1.919.844,2.937,2.937,0,0,0-.8,2.1v4.595h-1.4v-8.562h1.155l.16,1.586h.068a3.879,3.879,0,0,1,1.24-1.289A2.952,2.952,0,0,1,1775.856,11682.052Z" fill="#00223d"/>
        <path id="Trazado_9981" data-name="Trazado 9981" d="M1784.374,11690.771l-.278-1.22h-.067a3.807,3.807,0,0,1-1.379,1.09,4.48,4.48,0,0,1-1.717.285,3.248,3.248,0,0,1-2.155-.655,2.3,2.3,0,0,1-.78-1.867q0-2.593,4.479-2.72l1.568-.047v-.53a2.062,2.062,0,0,0-.468-1.488,2.017,2.017,0,0,0-1.5-.481,6.483,6.483,0,0,0-2.614.657l-.431-.993a7.136,7.136,0,0,1,3.13-.733,3.714,3.714,0,0,1,2.45.68,2.715,2.715,0,0,1,.8,2.179v5.845Zm-3.162-.914a2.98,2.98,0,0,0,2.053-.664,2.358,2.358,0,0,0,.747-1.859v-.774l-1.4.056a5.448,5.448,0,0,0-2.408.479,1.426,1.426,0,0,0-.738,1.325,1.29,1.29,0,0,0,.459,1.07A2.011,2.011,0,0,0,1781.212,11689.857Z" fill="#00223d"/>
        <path id="Trazado_9982" data-name="Trazado 9982" d="M1789.7,11690.771h-1.4v-12.156h1.4Z" fill="#00223d"/>
        <path id="Trazado_9983" data-name="Trazado 9983" d="M1796.57,11690.927a4.429,4.429,0,0,1-3.234-1.155,4.281,4.281,0,0,1-1.185-3.212,4.724,4.724,0,0,1,1.1-3.288,3.789,3.789,0,0,1,2.957-1.22,3.627,3.627,0,0,1,2.749,1.06,3.873,3.873,0,0,1,1.012,2.793v.819H1793.6a3.235,3.235,0,0,0,.822,2.289,2.962,2.962,0,0,0,2.2.782,7.97,7.97,0,0,0,2.952-.578v1.156a7.818,7.818,0,0,1-1.4.426A8.516,8.516,0,0,1,1796.57,11690.927Zm-.379-7.789a2.387,2.387,0,0,0-1.776.672,2.986,2.986,0,0,0-.78,1.86h4.833a2.709,2.709,0,0,0-.59-1.879A2.161,2.161,0,0,0,1796.191,11683.138Z" fill="#00223d"/>
        <path id="Trazado_9984" data-name="Trazado 9984" d="M1808.319,11688.435a2.094,2.094,0,0,1-.961,1.845,4.792,4.792,0,0,1-2.7.647,6.253,6.253,0,0,1-2.868-.539v-1.2a7.2,7.2,0,0,0,1.43.492,6.349,6.349,0,0,0,1.472.181,3.547,3.547,0,0,0,1.686-.324,1.072,1.072,0,0,0,.123-1.844,7.673,7.673,0,0,0-1.826-.841,10.271,10.271,0,0,1-1.835-.776,2.438,2.438,0,0,1-.81-.754,1.854,1.854,0,0,1-.265-1.009,1.882,1.882,0,0,1,.919-1.651,4.548,4.548,0,0,1,2.522-.606,7.885,7.885,0,0,1,2.918.563l-.5,1.055a7.173,7.173,0,0,0-2.522-.532,3.113,3.113,0,0,0-1.5.289.887.887,0,0,0-.505.8.919.919,0,0,0,.189.586,1.847,1.847,0,0,0,.612.462,14.019,14.019,0,0,0,1.619.633,6.208,6.208,0,0,1,2.223,1.117A1.891,1.891,0,0,1,1808.319,11688.435Z" fill="#00223d"/>
      </g>
    </g>
    <path id="Trazado_9985" data-name="Trazado 9985" d="M1861.029,11586.426v1.718h-17.192a2.645,2.645,0,0,0-2.646,2.646v.99a2.645,2.645,0,0,0,2.646,2.646h17.192v1.717a2.161,2.161,0,0,0,3.127,1.934l9.716-4.858a2.16,2.16,0,0,0,0-3.865l-9.716-4.858A2.161,2.161,0,0,0,1861.029,11586.426Z" fill="#0b92dd"/>
    <path id="Trazado_9986" data-name="Trazado 9986" d="M1861.029,11681.226v1.719h-17.192a2.645,2.645,0,0,0-2.646,2.645v.99a2.645,2.645,0,0,0,2.646,2.646h17.192v1.718a2.161,2.161,0,0,0,3.127,1.933l9.716-4.858a2.16,2.16,0,0,0,0-3.864l-9.716-4.859A2.161,2.161,0,0,0,1861.029,11681.226Z" fill="#0b92dd"/>
    <path id="Trazado_9987" data-name="Trazado 9987" d="M1666.071,11586.426v1.718h-17.192a2.646,2.646,0,0,0-2.646,2.646v.99a2.646,2.646,0,0,0,2.646,2.646h17.192v1.717a2.161,2.161,0,0,0,3.127,1.934l9.717-4.858a2.161,2.161,0,0,0,0-3.865l-9.717-4.858A2.161,2.161,0,0,0,1666.071,11586.426Z" fill="#0b92dd"/>
    <path id="Trazado_9988" data-name="Trazado 9988" d="M1666.071,11681.226v1.719h-17.192a2.645,2.645,0,0,0-2.646,2.645v.99a2.646,2.646,0,0,0,2.646,2.646h17.192v1.718a2.161,2.161,0,0,0,3.127,1.933l9.717-4.858a2.16,2.16,0,0,0,0-3.864l-9.717-4.859A2.161,2.161,0,0,0,1666.071,11681.226Z" fill="#0b92dd"/>
    <rect id="Rectángulo_6155" data-name="Rectángulo 6155" width="138.274" height="66.258" rx="5.6" transform="translate(1491.696 11605.556)" fill="#0b92dd"/>
    <g id="Grupo_9484" data-name="Grupo 9484">
      <path id="Trazado_9989" data-name="Trazado 9989" d="M1527.931,11632.76h-2.941v-10.582h-3.767v-2.267H1531.7v2.267h-3.767Z" fill="#fff"/>
      <path id="Trazado_9990" data-name="Trazado 9990" d="M1533.482,11620.393q0-1.31,1.575-1.308t1.575,1.308a1.229,1.229,0,0,1-.394.973,1.745,1.745,0,0,1-1.181.347Q1533.482,11621.712,1533.482,11620.393Zm3.017,12.367H1533.6v-9.826h2.894Z" fill="#fff"/>
      <path id="Trazado_9991" data-name="Trazado 9991" d="M1545.362,11632.936a3.633,3.633,0,0,1-2.932-1.258h-.152c.1.821.152,1.295.152,1.424v3.983h-2.894v-14.151h2.353l.408,1.274h.133a3.426,3.426,0,0,1,3.008-1.459,3.543,3.543,0,0,1,2.941,1.345,5.88,5.88,0,0,1,1.063,3.735,6.9,6.9,0,0,1-.5,2.734,3.695,3.695,0,0,1-3.582,2.372Zm-.854-8.043a1.893,1.893,0,0,0-1.566.612,3.3,3.3,0,0,0-.512,2.018v.288a3.9,3.9,0,0,0,.507,2.269,1.87,1.87,0,0,0,1.609.685q1.944,0,1.945-2.97a3.983,3.983,0,0,0-.479-2.175A1.673,1.673,0,0,0,1544.508,11624.893Z" fill="#fff"/>
      <path id="Trazado_9992" data-name="Trazado 9992" d="M1561.473,11627.829a5.05,5.05,0,0,1-1.366,3.754,5.173,5.173,0,0,1-3.805,1.353,5.671,5.671,0,0,1-2.695-.619,4.273,4.273,0,0,1-1.793-1.78,5.611,5.611,0,0,1-.626-2.707,5.012,5.012,0,0,1,1.357-3.744,5.2,5.2,0,0,1,3.814-1.336,5.7,5.7,0,0,1,2.695.615,4.261,4.261,0,0,1,1.793,1.768A5.564,5.564,0,0,1,1561.473,11627.829Zm-7.335,0a3.88,3.88,0,0,0,.518,2.207,1.9,1.9,0,0,0,1.684.746,1.869,1.869,0,0,0,1.665-.742,3.94,3.94,0,0,0,.508-2.211,3.815,3.815,0,0,0-.513-2.188,2.292,2.292,0,0,0-3.349,0A3.812,3.812,0,0,0,1554.138,11627.829Z" fill="#fff"/>
      <path id="Trazado_9993" data-name="Trazado 9993" d="M1571.265,11629.843a2.631,2.631,0,0,1-1.133,2.3,5.939,5.939,0,0,1-3.393.791,11.578,11.578,0,0,1-1.973-.145,7.929,7.929,0,0,1-1.528-.427v-2.215a10.658,10.658,0,0,0,1.817.59,7.9,7.9,0,0,0,1.779.235q1.575,0,1.575-.843a.675.675,0,0,0-.208-.514,3.066,3.066,0,0,0-.722-.448c-.341-.167-.8-.363-1.366-.585a8.941,8.941,0,0,1-1.8-.879,2.533,2.533,0,0,1-.835-.927,2.871,2.871,0,0,1-.261-1.288,2.283,2.283,0,0,1,1.1-2.025,5.67,5.67,0,0,1,3.108-.717,9.417,9.417,0,0,1,3.729.773l-.873,1.934q-.8-.316-1.49-.518a4.988,4.988,0,0,0-1.414-.2q-1.281,0-1.281.643a.747.747,0,0,0,.413.623,11.589,11.589,0,0,0,1.807.783,8.606,8.606,0,0,1,1.822.869,2.629,2.629,0,0,1,.854.932A2.679,2.679,0,0,1,1571.265,11629.843Z" fill="#fff"/>
      <path id="Trazado_9994" data-name="Trazado 9994" d="M1581.93,11632.936a3.543,3.543,0,0,1-2.936-1.345,7.053,7.053,0,0,1,.019-7.493,3.635,3.635,0,0,1,2.994-1.349,3.548,3.548,0,0,1,3.055,1.441h.095a10.145,10.145,0,0,1-.219-1.959v-3.146h2.9v13.675h-2.22l-.56-1.274h-.124A3.389,3.389,0,0,1,1581.93,11632.936Zm1.016-2.136a2.043,2.043,0,0,0,1.627-.6,3.287,3.287,0,0,0,.565-2.029v-.291a3.78,3.78,0,0,0-.527-2.268,2.025,2.025,0,0,0-1.713-.687,1.735,1.735,0,0,0-1.5.762,3.817,3.817,0,0,0-.536,2.21,3.626,3.626,0,0,0,.541,2.176A1.816,1.816,0,0,0,1582.946,11630.8Z" fill="#fff"/>
      <path id="Trazado_9995" data-name="Trazado 9995" d="M1595.67,11632.936a5.738,5.738,0,0,1-4-1.31,4.754,4.754,0,0,1-1.442-3.709,5.2,5.2,0,0,1,1.333-3.819,4.951,4.951,0,0,1,3.686-1.349,4.889,4.889,0,0,1,3.5,1.187,4.3,4.3,0,0,1,1.253,3.278v1.3h-6.842a2.485,2.485,0,0,0,.731,1.786,2.7,2.7,0,0,0,1.917.641,8.559,8.559,0,0,0,1.812-.184,9.619,9.619,0,0,0,1.784-.59v2.074a7.17,7.17,0,0,1-1.622.522A10.943,10.943,0,0,1,1595.67,11632.936Zm-.408-8.278a1.91,1.91,0,0,0-1.442.54,2.4,2.4,0,0,0-.6,1.534h4.061a2.134,2.134,0,0,0-.56-1.534A1.973,1.973,0,0,0,1595.262,11624.657Z" fill="#fff"/>
      <path id="Trazado_9996" data-name="Trazado 9996" d="M1553.688,11651.192a3.229,3.229,0,0,1-1.352,2.741,6.212,6.212,0,0,1-3.763,1,9.448,9.448,0,0,1-3.928-.772v-2.531a17.151,17.151,0,0,0,2.377.816,7.552,7.552,0,0,0,1.779.237,2.687,2.687,0,0,0,1.485-.343,1.142,1.142,0,0,0,.517-1.02,1.065,1.065,0,0,0-.228-.672,2.441,2.441,0,0,0-.669-.566,17.538,17.538,0,0,0-1.8-.871,8.718,8.718,0,0,1-1.908-1.062,4.083,4.083,0,0,1-1.015-1.187,3.495,3.495,0,0,1,.868-4.262,5.47,5.47,0,0,1,3.449-.978,8.713,8.713,0,0,1,2.064.239,14.815,14.815,0,0,1,2.054.668l-.948,2.117a14.66,14.66,0,0,0-1.836-.588,6.362,6.362,0,0,0-1.429-.168,2,2,0,0,0-1.28.36,1.15,1.15,0,0,0-.447.94,1.094,1.094,0,0,0,.181.629,1.922,1.922,0,0,0,.574.519,18.192,18.192,0,0,0,1.864.9,7.438,7.438,0,0,1,2.667,1.727A3.209,3.209,0,0,1,1553.688,11651.192Z" fill="#fff"/>
      <path id="Trazado_9997" data-name="Trazado 9997" d="M1565.786,11645.919a3.792,3.792,0,0,1-1.4,3.172,6.317,6.317,0,0,1-3.98,1.1h-1.262v4.569H1556.2v-12.849h4.431a6.235,6.235,0,0,1,3.839,1.006A3.545,3.545,0,0,1,1565.786,11645.919Zm-6.642,2.039h.968a3.413,3.413,0,0,0,2.03-.5,1.687,1.687,0,0,0,.674-1.447,1.712,1.712,0,0,0-.565-1.414,2.8,2.8,0,0,0-1.769-.457h-1.338Z" fill="#fff"/>
      <path id="Trazado_9998" data-name="Trazado 9998" d="M1573.756,11654.76h-2.941v-10.582h-3.767v-2.267h10.475v2.267h-3.767Z" fill="#fff"/>
    </g>
    <rect id="Rectángulo_6156" data-name="Rectángulo 6156" width="5.635" height="101.081" rx="2.818" transform="translate(1646.233 11588.144)" fill="#0b92dd"/>
    <rect id="Rectángulo_6157" data-name="Rectángulo 6157" width="5.635" height="22.966" rx="2.818" transform="translate(1650.233 11635.866) rotate(90)" fill="#0b92dd"/>
  </g>
</svg>
