<svg xmlns="http://www.w3.org/2000/svg" width="327.487" height="310.5" viewBox="0 0 327.487 310.5">
  <g id="Grupo_9206" data-name="Grupo 9206" transform="translate(-1130.709 -2267.991)">
    <path id="Trazado_9184" data-name="Trazado 9184" d="M1290.451,2574,1131.47,2289.19a5.929,5.929,0,0,1,5.176-8.819h315.612a5.929,5.929,0,0,1,5.2,8.786l-156.631,284.811A5.929,5.929,0,0,1,1290.451,2574Z" transform="translate(0 1.451)" fill="#d5ecff"/>
    <rect id="Rectángulo_6103" data-name="Rectángulo 6103" width="184.925" height="54.922" rx="5.6" transform="translate(1201.953 2268.491)" fill="#fff" stroke="#91c7ea" stroke-miterlimit="10" stroke-width="1"/>
    <g id="Grupo_9199" data-name="Grupo 9199" transform="translate(1238.154 2287.57)">
      <g id="Grupo_9198" data-name="Grupo 9198">
        <path id="Trazado_9185" data-name="Trazado 9185" d="M1226.461,2299.046v-12.817h1.608v12.817Z" transform="translate(-1226.461 -2285.404)" fill="#00223d"/>
        <path id="Trazado_9186" data-name="Trazado 9186" d="M1238.164,2298.716V2292.5a2.389,2.389,0,0,0-.578-1.754,2.463,2.463,0,0,0-1.808-.579,3.113,3.113,0,0,0-2.385.816,3.894,3.894,0,0,0-.758,2.691v5.042h-1.571v-9.609h1.277l.256,1.315h.075a3.136,3.136,0,0,1,1.354-1.1,4.686,4.686,0,0,1,1.94-.391,4.145,4.145,0,0,1,2.82.837,3.407,3.407,0,0,1,.946,2.678v6.268Z" transform="translate(-1225.899 -2285.074)" fill="#00223d"/>
        <path id="Trazado_9187" data-name="Trazado 9187" d="M1245.167,2297.914a5.983,5.983,0,0,0,1.42-.176v1.114a3.076,3.076,0,0,1-.752.187,5.98,5.98,0,0,1-.894.075q-3.01,0-3.01-2.937v-5.716h-1.486v-.7l1.486-.6.662-2.051h.909v2.226h3.01v1.131h-3.01v5.654a1.854,1.854,0,0,0,.444,1.333A1.611,1.611,0,0,0,1245.167,2297.914Z" transform="translate(-1224.753 -2285.297)" fill="#00223d"/>
        <path id="Trazado_9188" data-name="Trazado 9188" d="M1252.211,2298.891a4.972,4.972,0,0,1-3.63-1.3,4.8,4.8,0,0,1-1.33-3.6,5.3,5.3,0,0,1,1.236-3.691,4.247,4.247,0,0,1,3.317-1.368,4.071,4.071,0,0,1,3.086,1.188,4.349,4.349,0,0,1,1.136,3.134v.921h-7.146a3.636,3.636,0,0,0,.923,2.569,3.329,3.329,0,0,0,2.465.876,8.936,8.936,0,0,0,3.313-.649v1.3a8.8,8.8,0,0,1-1.575.478A9.532,9.532,0,0,1,1252.211,2298.891Zm-.426-8.74a2.669,2.669,0,0,0-1.992.754,3.333,3.333,0,0,0-.875,2.086h5.422a3.037,3.037,0,0,0-.662-2.109A2.423,2.423,0,0,0,1251.784,2290.151Z" transform="translate(-1223.922 -2285.074)" fill="#00223d"/>
        <path id="Trazado_9189" data-name="Trazado 9189" d="M1262.189,2288.932a6.591,6.591,0,0,1,1.24.105l-.218,1.35a5.764,5.764,0,0,0-1.137-.131,2.856,2.856,0,0,0-2.152.946,3.3,3.3,0,0,0-.894,2.359v5.155h-1.571v-9.609h1.3l.179,1.78h.076a4.35,4.35,0,0,1,1.391-1.447A3.31,3.31,0,0,1,1262.189,2288.932Z" transform="translate(-1222.676 -2285.074)" fill="#00223d"/>
        <path id="Trazado_9190" data-name="Trazado 9190" d="M1271.605,2298.716V2292.5a2.389,2.389,0,0,0-.577-1.754,2.463,2.463,0,0,0-1.808-.579,3.117,3.117,0,0,0-2.385.816,3.9,3.9,0,0,0-.756,2.691v5.042h-1.571v-9.609h1.277l.256,1.315h.075a3.136,3.136,0,0,1,1.354-1.1,4.687,4.687,0,0,1,1.94-.391,4.145,4.145,0,0,1,2.82.837,3.406,3.406,0,0,1,.946,2.678v6.268Z" transform="translate(-1221.815 -2285.074)" fill="#00223d"/>
        <path id="Trazado_9191" data-name="Trazado 9191" d="M1281.573,2298.714l-.312-1.368h-.076a4.3,4.3,0,0,1-1.546,1.223,5.06,5.06,0,0,1-1.927.32,3.646,3.646,0,0,1-2.418-.736,2.588,2.588,0,0,1-.875-2.1q0-2.91,5.026-3.05l1.759-.053v-.6a2.318,2.318,0,0,0-.525-1.671,2.263,2.263,0,0,0-1.68-.539,7.287,7.287,0,0,0-2.934.736l-.483-1.113a8.029,8.029,0,0,1,3.511-.824,4.172,4.172,0,0,1,2.75.762,3.049,3.049,0,0,1,.894,2.446v6.558Zm-3.548-1.025a3.349,3.349,0,0,0,2.3-.745,2.648,2.648,0,0,0,.838-2.087v-.867l-1.572.061a6.1,6.1,0,0,0-2.7.54,1.6,1.6,0,0,0-.828,1.486,1.445,1.445,0,0,0,.516,1.2A2.257,2.257,0,0,0,1278.024,2297.688Z" transform="translate(-1220.604 -2285.072)" fill="#00223d"/>
        <path id="Trazado_9192" data-name="Trazado 9192" d="M1288.924,2298.891a4.609,4.609,0,0,1-3.488-1.285,5.034,5.034,0,0,1-1.234-3.634,5.184,5.184,0,0,1,1.253-3.725,4.7,4.7,0,0,1,3.573-1.315,7.6,7.6,0,0,1,1.5.149,5.246,5.246,0,0,1,1.174.35l-.484,1.237a7.663,7.663,0,0,0-1.136-.32,5.406,5.406,0,0,0-1.089-.128q-3.161,0-3.161,3.734a4.2,4.2,0,0,0,.772,2.718,2.773,2.773,0,0,0,2.286.947,7.452,7.452,0,0,0,2.659-.518v1.29A6.073,6.073,0,0,1,1288.924,2298.891Z" transform="translate(-1219.41 -2285.074)" fill="#00223d"/>
        <path id="Trazado_9193" data-name="Trazado 9193" d="M1292.821,2286.873a.926.926,0,0,1,.266-.733,1.04,1.04,0,0,1,1.315,0,1.107,1.107,0,0,1,0,1.46.957.957,0,0,1-.653.241.878.878,0,0,1-.928-.973Zm1.7,12.212h-1.571v-9.609h1.571Z" transform="translate(-1218.357 -2285.443)" fill="#00223d"/>
        <path id="Trazado_9194" data-name="Trazado 9194" d="M1306.324,2293.9a5.054,5.054,0,0,1-1.277,3.668,4.685,4.685,0,0,1-3.53,1.319,4.97,4.97,0,0,1-2.471-.6,4.111,4.111,0,0,1-1.665-1.736,5.665,5.665,0,0,1-.587-2.647,5.047,5.047,0,0,1,1.268-3.66,4.672,4.672,0,0,1,3.521-1.311,4.558,4.558,0,0,1,3.458,1.341A5.035,5.035,0,0,1,1306.324,2293.9Zm-7.9,0a4.318,4.318,0,0,0,.795,2.805,3.327,3.327,0,0,0,4.68,0,4.29,4.29,0,0,0,.8-2.809,4.227,4.227,0,0,0-.8-2.784,2.912,2.912,0,0,0-2.361-.952,2.866,2.866,0,0,0-2.328.938A4.274,4.274,0,0,0,1298.422,2293.9Z" transform="translate(-1217.872 -2285.074)" fill="#00223d"/>
        <path id="Trazado_9195" data-name="Trazado 9195" d="M1314.841,2298.716V2292.5a2.389,2.389,0,0,0-.578-1.754,2.464,2.464,0,0,0-1.808-.579,3.113,3.113,0,0,0-2.385.816,3.894,3.894,0,0,0-.757,2.691v5.042h-1.571v-9.609h1.277l.256,1.315h.075a3.136,3.136,0,0,1,1.354-1.1,4.688,4.688,0,0,1,1.94-.391,4.145,4.145,0,0,1,2.82.837,3.407,3.407,0,0,1,.946,2.678v6.268Z" transform="translate(-1216.535 -2285.074)" fill="#00223d"/>
        <path id="Trazado_9196" data-name="Trazado 9196" d="M1324.808,2298.714l-.313-1.368h-.075a4.315,4.315,0,0,1-1.547,1.223,5.059,5.059,0,0,1-1.927.32,3.648,3.648,0,0,1-2.418-.736,2.588,2.588,0,0,1-.875-2.1q0-2.91,5.026-3.05l1.76-.053v-.6a2.318,2.318,0,0,0-.525-1.671,2.264,2.264,0,0,0-1.68-.539,7.278,7.278,0,0,0-2.933.736l-.484-1.113a7.753,7.753,0,0,1,1.68-.6,7.835,7.835,0,0,1,1.832-.219,4.166,4.166,0,0,1,2.749.762,3.049,3.049,0,0,1,.894,2.446v6.558Zm-3.549-1.025a3.347,3.347,0,0,0,2.3-.745,2.648,2.648,0,0,0,.838-2.087v-.867l-1.571.061a6.094,6.094,0,0,0-2.7.54,1.6,1.6,0,0,0-.828,1.486,1.444,1.444,0,0,0,.515,1.2A2.256,2.256,0,0,0,1321.259,2297.688Z" transform="translate(-1215.325 -2285.072)" fill="#00223d"/>
        <path id="Trazado_9197" data-name="Trazado 9197" d="M1329.522,2299.135h-1.572v-13.642h1.572Z" transform="translate(-1214.067 -2285.494)" fill="#00223d"/>
      </g>
    </g>
    <rect id="Rectángulo_6104" data-name="Rectángulo 6104" width="184.925" height="54.922" rx="5.6" transform="translate(1201.953 2337.165)" fill="#fff" stroke="#91c7ea" stroke-miterlimit="10" stroke-width="1"/>
    <g id="Grupo_9201" data-name="Grupo 9201" transform="translate(1258.834 2356.244)">
      <g id="Grupo_9200" data-name="Grupo 9200">
        <path id="Trazado_9198" data-name="Trazado 9198" d="M1246.5,2354.916v5.33h-1.608v-12.817h3.795a6.332,6.332,0,0,1,3.761.9,3.167,3.167,0,0,1,1.216,2.718q0,2.543-2.783,3.437l3.758,5.76h-1.9l-3.351-5.33Zm0-1.28h2.206a4.023,4.023,0,0,0,2.5-.627,2.245,2.245,0,0,0,.8-1.879,2.071,2.071,0,0,0-.809-1.833,4.668,4.668,0,0,0-2.6-.561H1246.5Z" transform="translate(-1244.89 -2346.604)" fill="#00223d"/>
        <path id="Trazado_9199" data-name="Trazado 9199" d="M1259.8,2360.091a4.974,4.974,0,0,1-3.63-1.3,4.8,4.8,0,0,1-1.33-3.6,5.3,5.3,0,0,1,1.235-3.69,4.246,4.246,0,0,1,3.317-1.368,4.068,4.068,0,0,1,3.085,1.187,4.346,4.346,0,0,1,1.137,3.134v.921h-7.146a3.636,3.636,0,0,0,.922,2.569,3.33,3.33,0,0,0,2.465.876,8.932,8.932,0,0,0,3.313-.649v1.3a8.8,8.8,0,0,1-1.576.478A9.521,9.521,0,0,1,1259.8,2360.091Zm-.426-8.74a2.668,2.668,0,0,0-1.992.754,3.338,3.338,0,0,0-.876,2.086h5.423a3.041,3.041,0,0,0-.662-2.108A2.423,2.423,0,0,0,1259.375,2351.351Z" transform="translate(-1243.675 -2346.274)" fill="#00223d"/>
        <path id="Trazado_9200" data-name="Trazado 9200" d="M1273.678,2350.307v.92l-1.921.211a3,3,0,0,1,.472.8,2.848,2.848,0,0,1,.209,1.118,2.748,2.748,0,0,1-1.042,2.253,4.419,4.419,0,0,1-2.858.842,5.1,5.1,0,0,1-.871-.071q-1,.491-1,1.237a.62.62,0,0,0,.35.583,2.737,2.737,0,0,0,1.2.188h1.836a4.355,4.355,0,0,1,2.588.657,2.217,2.217,0,0,1,.9,1.911,2.681,2.681,0,0,1-1.381,2.433,7.865,7.865,0,0,1-4.032.837,5.854,5.854,0,0,1-3.139-.7,2.219,2.219,0,0,1-1.1-1.981,2.132,2.132,0,0,1,.606-1.517,3.152,3.152,0,0,1,1.7-.867,1.629,1.629,0,0,1-.668-.517,1.3,1.3,0,0,1-.269-.816,1.468,1.468,0,0,1,.3-.92,3.135,3.135,0,0,1,.956-.763,2.75,2.75,0,0,1-1.311-1.042,2.9,2.9,0,0,1-.507-1.683,2.993,2.993,0,0,1,1.022-2.433,4.393,4.393,0,0,1,2.9-.855,5.659,5.659,0,0,1,1.467.175Zm-8.272,11.221a1.288,1.288,0,0,0,.71,1.184,4.186,4.186,0,0,0,2.034.4,6.065,6.065,0,0,0,2.93-.547,1.662,1.662,0,0,0,.95-1.486,1.144,1.144,0,0,0-.52-1.083,4.324,4.324,0,0,0-1.959-.3h-1.884a2.617,2.617,0,0,0-1.665.473A1.635,1.635,0,0,0,1265.406,2361.528Zm.852-8.144a1.88,1.88,0,0,0,.616,1.526,2.584,2.584,0,0,0,1.712.517q2.3,0,2.3-2.069,0-2.167-2.328-2.166a2.416,2.416,0,0,0-1.7.552A2.129,2.129,0,0,0,1266.257,2353.384Z" transform="translate(-1242.569 -2346.274)" fill="#00223d"/>
        <path id="Trazado_9201" data-name="Trazado 9201" d="M1274.393,2348.073a.925.925,0,0,1,.265-.733,1.038,1.038,0,0,1,1.315,0,.911.911,0,0,1,.275.728.923.923,0,0,1-.275.732.959.959,0,0,1-.653.241.948.948,0,0,1-.662-.241A.937.937,0,0,1,1274.393,2348.073Zm1.7,12.212h-1.571v-9.609h1.571Z" transform="translate(-1241.287 -2346.644)" fill="#00223d"/>
        <path id="Trazado_9202" data-name="Trazado 9202" d="M1287.9,2355.1a5.052,5.052,0,0,1-1.278,3.668,4.685,4.685,0,0,1-3.53,1.32,4.968,4.968,0,0,1-2.47-.6,4.123,4.123,0,0,1-1.667-1.736,5.681,5.681,0,0,1-.587-2.647,5.048,5.048,0,0,1,1.268-3.66,4.672,4.672,0,0,1,3.521-1.311,4.561,4.561,0,0,1,3.459,1.341A5.038,5.038,0,0,1,1287.9,2355.1Zm-7.9,0a4.317,4.317,0,0,0,.794,2.805,3.327,3.327,0,0,0,4.68,0,4.289,4.289,0,0,0,.8-2.809,4.225,4.225,0,0,0-.8-2.784,2.91,2.91,0,0,0-2.361-.952,2.865,2.865,0,0,0-2.328.938A4.272,4.272,0,0,0,1279.993,2355.1Z" transform="translate(-1240.802 -2346.274)" fill="#00223d"/>
        <path id="Trazado_9203" data-name="Trazado 9203" d="M1296.411,2359.916V2353.7a2.389,2.389,0,0,0-.578-1.754,2.464,2.464,0,0,0-1.808-.579,3.115,3.115,0,0,0-2.384.816,3.9,3.9,0,0,0-.757,2.691v5.042h-1.571v-9.609h1.278l.255,1.315h.076a3.145,3.145,0,0,1,1.353-1.1,4.7,4.7,0,0,1,1.94-.389,4.147,4.147,0,0,1,2.82.837,3.4,3.4,0,0,1,.947,2.678v6.268Z" transform="translate(-1239.465 -2346.274)" fill="#00223d"/>
        <path id="Trazado_9204" data-name="Trazado 9204" d="M1306.379,2359.914l-.313-1.368h-.075a4.308,4.308,0,0,1-1.547,1.223,5.055,5.055,0,0,1-1.927.32,3.646,3.646,0,0,1-2.418-.736,2.588,2.588,0,0,1-.875-2.1q0-2.91,5.026-3.05l1.76-.052v-.6a2.314,2.314,0,0,0-.526-1.671,2.264,2.264,0,0,0-1.68-.539,7.285,7.285,0,0,0-2.933.736l-.483-1.113a7.709,7.709,0,0,1,1.68-.6,7.808,7.808,0,0,1,1.831-.22,4.167,4.167,0,0,1,2.749.763,3.05,3.05,0,0,1,.894,2.446v6.558Zm-3.549-1.026a3.34,3.34,0,0,0,2.3-.746,2.644,2.644,0,0,0,.838-2.086v-.868l-1.571.061a6.092,6.092,0,0,0-2.7.54,1.6,1.6,0,0,0-.828,1.486,1.443,1.443,0,0,0,.516,1.2A2.254,2.254,0,0,0,1302.829,2358.888Z" transform="translate(-1238.255 -2346.272)" fill="#00223d"/>
        <path id="Trazado_9205" data-name="Trazado 9205" d="M1311.093,2360.336h-1.572v-13.642h1.572Z" transform="translate(-1236.997 -2346.694)" fill="#00223d"/>
      </g>
    </g>
    <rect id="Rectángulo_6105" data-name="Rectángulo 6105" width="184.925" height="54.922" rx="5.6" transform="translate(1201.953 2405.838)" fill="#fff" stroke="#91c7ea" stroke-miterlimit="10" stroke-width="1"/>
    <g id="Grupo_9203" data-name="Grupo 9203" transform="translate(1258.26 2424.918)">
      <g id="Grupo_9202" data-name="Grupo 9202">
        <path id="Trazado_9206" data-name="Trazado 9206" d="M1255.187,2421.446h-1.836l-7.562-10.757h-.076q.151,1.894.151,3.471v7.286h-1.486v-12.817h1.817l7.544,10.713h.075q-.018-.238-.085-1.521t-.047-1.837v-7.355h1.5Z" transform="translate(-1244.379 -2407.804)" fill="#00223d"/>
        <path id="Trazado_9207" data-name="Trazado 9207" d="M1263.655,2421.114l-.313-1.368h-.075a4.312,4.312,0,0,1-1.547,1.223,5.059,5.059,0,0,1-1.927.32,3.65,3.65,0,0,1-2.418-.736,2.588,2.588,0,0,1-.875-2.1q0-2.91,5.026-3.05l1.761-.053v-.6a2.316,2.316,0,0,0-.525-1.67,2.267,2.267,0,0,0-1.681-.539,7.265,7.265,0,0,0-2.933.736l-.483-1.113a7.721,7.721,0,0,1,1.68-.6,7.835,7.835,0,0,1,1.831-.22,4.166,4.166,0,0,1,2.749.763,3.049,3.049,0,0,1,.894,2.446v6.558Zm-3.549-1.027a3.344,3.344,0,0,0,2.3-.745,2.646,2.646,0,0,0,.837-2.086v-.867l-1.571.061a6.1,6.1,0,0,0-2.7.54,1.6,1.6,0,0,0-.828,1.486,1.446,1.446,0,0,0,.515,1.2A2.261,2.261,0,0,0,1260.106,2420.087Z" transform="translate(-1242.899 -2407.472)" fill="#00223d"/>
        <path id="Trazado_9208" data-name="Trazado 9208" d="M1271.006,2421.291a4.608,4.608,0,0,1-3.487-1.285,5.027,5.027,0,0,1-1.236-3.633,5.181,5.181,0,0,1,1.255-3.726,4.7,4.7,0,0,1,3.572-1.315,7.572,7.572,0,0,1,1.5.149,5.161,5.161,0,0,1,1.174.35l-.483,1.236a7.859,7.859,0,0,0-1.135-.321,5.518,5.518,0,0,0-1.089-.127q-3.161,0-3.161,3.734a4.2,4.2,0,0,0,.771,2.718,2.773,2.773,0,0,0,2.286.947,7.463,7.463,0,0,0,2.659-.517v1.288A6.053,6.053,0,0,1,1271.006,2421.291Z" transform="translate(-1241.704 -2407.474)" fill="#00223d"/>
        <path id="Trazado_9209" data-name="Trazado 9209" d="M1274.9,2409.273a.931.931,0,0,1,.265-.733,1.04,1.04,0,0,1,1.315,0,.912.912,0,0,1,.275.728.922.922,0,0,1-.275.732.953.953,0,0,1-.653.241.876.876,0,0,1-.927-.973Zm1.7,12.212h-1.571v-9.609h1.571Z" transform="translate(-1240.651 -2407.844)" fill="#00223d"/>
        <path id="Trazado_9210" data-name="Trazado 9210" d="M1288.406,2416.3a5.055,5.055,0,0,1-1.278,3.669,4.685,4.685,0,0,1-3.53,1.32,4.97,4.97,0,0,1-2.47-.6,4.12,4.12,0,0,1-1.666-1.736,5.684,5.684,0,0,1-.587-2.648,5.043,5.043,0,0,1,1.269-3.659,4.668,4.668,0,0,1,3.52-1.311,4.563,4.563,0,0,1,3.46,1.341A5.034,5.034,0,0,1,1288.406,2416.3Zm-7.9,0a4.306,4.306,0,0,0,.8,2.805,3.323,3.323,0,0,0,4.679,0,4.29,4.29,0,0,0,.8-2.81,4.225,4.225,0,0,0-.8-2.783,2.911,2.911,0,0,0-2.361-.952,2.866,2.866,0,0,0-2.328.938A4.269,4.269,0,0,0,1280.5,2416.3Z" transform="translate(-1240.166 -2407.474)" fill="#00223d"/>
        <path id="Trazado_9211" data-name="Trazado 9211" d="M1296.922,2421.116V2414.9a2.387,2.387,0,0,0-.578-1.753,2.462,2.462,0,0,0-1.808-.579,3.116,3.116,0,0,0-2.385.816,3.9,3.9,0,0,0-.757,2.691v5.042h-1.571v-9.608h1.278l.255,1.315h.076a3.149,3.149,0,0,1,1.353-1.1,4.714,4.714,0,0,1,1.94-.389,4.151,4.151,0,0,1,2.821.837,3.406,3.406,0,0,1,.946,2.679v6.268Z" transform="translate(-1238.829 -2407.474)" fill="#00223d"/>
        <path id="Trazado_9212" data-name="Trazado 9212" d="M1306.889,2421.114l-.313-1.368h-.075a4.313,4.313,0,0,1-1.547,1.223,5.059,5.059,0,0,1-1.927.32,3.645,3.645,0,0,1-2.417-.736,2.585,2.585,0,0,1-.876-2.1q0-2.91,5.026-3.05l1.761-.053v-.6a2.315,2.315,0,0,0-.525-1.67,2.265,2.265,0,0,0-1.68-.539,7.265,7.265,0,0,0-2.934.736l-.483-1.113a7.722,7.722,0,0,1,1.68-.6,7.836,7.836,0,0,1,1.831-.22,4.166,4.166,0,0,1,2.749.763,3.046,3.046,0,0,1,.894,2.446v6.558Zm-3.549-1.027a3.344,3.344,0,0,0,2.3-.745,2.646,2.646,0,0,0,.837-2.086v-.867l-1.571.061a6.1,6.1,0,0,0-2.7.54,1.6,1.6,0,0,0-.828,1.486,1.443,1.443,0,0,0,.516,1.2A2.256,2.256,0,0,0,1303.339,2420.087Z" transform="translate(-1237.619 -2407.472)" fill="#00223d"/>
        <path id="Trazado_9213" data-name="Trazado 9213" d="M1311.6,2421.536h-1.571v-13.642h1.571Z" transform="translate(-1236.361 -2407.894)" fill="#00223d"/>
      </g>
    </g>
    <rect id="Rectángulo_6106" data-name="Rectángulo 6106" width="184.925" height="54.922" rx="5.6" transform="translate(1201.953 2474.512)" fill="#fff" stroke="#91c7ea" stroke-miterlimit="10" stroke-width="1"/>
    <g id="Grupo_9205" data-name="Grupo 9205" transform="translate(1251.247 2493.592)">
      <g id="Grupo_9204" data-name="Grupo 9204">
        <path id="Trazado_9214" data-name="Trazado 9214" d="M1244.12,2482.646h-1.609v-11.493h-4.382v-1.324H1248.5v1.324h-4.382Z" transform="translate(-1238.129 -2469.004)" fill="#00223d"/>
        <path id="Trazado_9215" data-name="Trazado 9215" d="M1253.463,2482.491a4.975,4.975,0,0,1-3.63-1.3,4.8,4.8,0,0,1-1.329-3.6,5.3,5.3,0,0,1,1.234-3.691,4.247,4.247,0,0,1,3.317-1.368,4.067,4.067,0,0,1,3.086,1.188,4.342,4.342,0,0,1,1.135,3.134v.92h-7.146a3.632,3.632,0,0,0,.923,2.568,3.329,3.329,0,0,0,2.465.876,8.916,8.916,0,0,0,3.313-.648v1.3a8.8,8.8,0,0,1-1.577.478A9.537,9.537,0,0,1,1253.463,2482.491Zm-.425-8.74a2.67,2.67,0,0,0-1.993.754,3.345,3.345,0,0,0-.875,2.086h5.423a3.038,3.038,0,0,0-.663-2.108A2.42,2.42,0,0,0,1253.037,2473.75Z" transform="translate(-1236.862 -2468.674)" fill="#00223d"/>
        <path id="Trazado_9216" data-name="Trazado 9216" d="M1263.441,2472.532a6.581,6.581,0,0,1,1.24.105l-.218,1.35a5.76,5.76,0,0,0-1.136-.132,2.857,2.857,0,0,0-2.153.946,3.306,3.306,0,0,0-.894,2.359v5.155h-1.571v-9.609h1.3l.181,1.78h.075a4.363,4.363,0,0,1,1.391-1.446A3.313,3.313,0,0,1,1263.441,2472.532Z" transform="translate(-1235.616 -2468.674)" fill="#00223d"/>
        <path id="Trazado_9217" data-name="Trazado 9217" d="M1270.492,2472.532a6.581,6.581,0,0,1,1.24.105l-.218,1.35a5.757,5.757,0,0,0-1.135-.132,2.857,2.857,0,0,0-2.153.946,3.306,3.306,0,0,0-.894,2.359v5.155h-1.571v-9.609h1.3l.181,1.78h.075a4.363,4.363,0,0,1,1.391-1.446A3.312,3.312,0,0,1,1270.492,2472.532Z" transform="translate(-1234.755 -2468.674)" fill="#00223d"/>
        <path id="Trazado_9218" data-name="Trazado 9218" d="M1272.693,2470.473a.925.925,0,0,1,.265-.731,1.043,1.043,0,0,1,1.316,0,.911.911,0,0,1,.274.728.922.922,0,0,1-.274.732.958.958,0,0,1-.654.241.876.876,0,0,1-.927-.973Zm1.7,12.212h-1.571v-9.609h1.571Z" transform="translate(-1233.908 -2469.043)" fill="#00223d"/>
        <path id="Trazado_9219" data-name="Trazado 9219" d="M1280.68,2481.513a5.97,5.97,0,0,0,1.42-.176v1.114a3.125,3.125,0,0,1-.753.188,6.119,6.119,0,0,1-.894.074q-3.01,0-3.01-2.937v-5.716h-1.486v-.7l1.486-.6.663-2.051h.908v2.226h3.01v1.131h-3.01v5.655a1.849,1.849,0,0,0,.446,1.333A1.61,1.61,0,0,0,1280.68,2481.513Z" transform="translate(-1233.509 -2468.897)" fill="#00223d"/>
        <path id="Trazado_9220" data-name="Trazado 9220" d="M1292.294,2477.5a5.052,5.052,0,0,1-1.278,3.668,4.685,4.685,0,0,1-3.53,1.32,4.969,4.969,0,0,1-2.47-.6,4.107,4.107,0,0,1-1.665-1.736,5.666,5.666,0,0,1-.587-2.647,5.043,5.043,0,0,1,1.268-3.66,4.667,4.667,0,0,1,3.52-1.311,4.559,4.559,0,0,1,3.459,1.341A5.034,5.034,0,0,1,1292.294,2477.5Zm-7.9,0a4.317,4.317,0,0,0,.8,2.805,3.328,3.328,0,0,0,4.68,0,4.3,4.3,0,0,0,.8-2.81,4.227,4.227,0,0,0-.8-2.784,2.913,2.913,0,0,0-2.362-.95,2.862,2.862,0,0,0-2.327.937A4.272,4.272,0,0,0,1284.391,2477.5Z" transform="translate(-1232.678 -2468.674)" fill="#00223d"/>
        <path id="Trazado_9221" data-name="Trazado 9221" d="M1298.443,2472.532a6.58,6.58,0,0,1,1.24.105l-.217,1.35a5.769,5.769,0,0,0-1.137-.132,2.861,2.861,0,0,0-2.153.946,3.305,3.305,0,0,0-.893,2.359v5.155h-1.572v-9.609h1.3l.18,1.78h.076a4.349,4.349,0,0,1,1.39-1.446A3.312,3.312,0,0,1,1298.443,2472.532Z" transform="translate(-1231.341 -2468.674)" fill="#00223d"/>
        <path id="Trazado_9222" data-name="Trazado 9222" d="M1300.644,2470.473a.921.921,0,0,1,.266-.731,1.041,1.041,0,0,1,1.315,0,.912.912,0,0,1,.275.728.923.923,0,0,1-.275.732.952.952,0,0,1-.653.241.877.877,0,0,1-.928-.973Zm1.7,12.212h-1.572v-9.609h1.572Z" transform="translate(-1230.495 -2469.043)" fill="#00223d"/>
        <path id="Trazado_9223" data-name="Trazado 9223" d="M1311.595,2482.314l-.312-1.368h-.076a4.287,4.287,0,0,1-1.547,1.223,5.048,5.048,0,0,1-1.926.32,3.645,3.645,0,0,1-2.418-.736,2.587,2.587,0,0,1-.875-2.095q0-2.91,5.025-3.051l1.761-.053v-.6a2.319,2.319,0,0,0-.525-1.671,2.265,2.265,0,0,0-1.68-.539,7.29,7.29,0,0,0-2.934.736l-.482-1.113a8.023,8.023,0,0,1,3.511-.823,4.171,4.171,0,0,1,2.75.762,3.048,3.048,0,0,1,.893,2.446v6.558Zm-3.549-1.026a3.35,3.35,0,0,0,2.3-.745,2.649,2.649,0,0,0,.838-2.087v-.867l-1.572.061a6.1,6.1,0,0,0-2.7.54,1.6,1.6,0,0,0-.828,1.486,1.443,1.443,0,0,0,.516,1.2A2.255,2.255,0,0,0,1308.045,2481.288Z" transform="translate(-1230.031 -2468.672)" fill="#00223d"/>
        <path id="Trazado_9224" data-name="Trazado 9224" d="M1316.309,2482.736h-1.571v-13.642h1.571Z" transform="translate(-1228.774 -2469.094)" fill="#00223d"/>
      </g>
    </g>
  </g>
</svg>
