<svg id="Grupo_9215" data-name="Grupo 9215" xmlns="http://www.w3.org/2000/svg" width="156.28" height="156.28" viewBox="0 0 156.28 156.28">
  <path id="Trazado_9231" data-name="Trazado 9231" d="M798.95,2813.36a78.139,78.139,0,0,1-78.14,78.14q-3.071,0-6.082-.233a78.142,78.142,0,1,1,84.222-77.907Z" transform="translate(-642.67 -2735.22)" fill="#66cc9a"/>
  <path id="Trazado_9232" data-name="Trazado 9232" d="M785.823,2944.815v8.927a78.065,78.065,0,0,1-76.991,0v-8.927a29.036,29.036,0,0,1,26.662-28.94q1.177-.1,2.376-.1h18.91a29,29,0,0,1,29.043,29.036Z" transform="translate(-669.188 -2807.59)" fill="#e5ded4"/>
  <path id="Trazado_9233" data-name="Trazado 9233" d="M795.745,2944.815v8.927a77.548,77.548,0,0,1-31.3,9.794q-3.555.33-7.2.332t-7.2-.33a77.851,77.851,0,0,1-16.467-3.319v-15.405a29.04,29.04,0,0,1,29.042-29.036H766.7A29.038,29.038,0,0,1,795.745,2944.815Z" transform="translate(-679.109 -2807.59)" fill="#fcf9f4"/>
  <path id="Trazado_9234" data-name="Trazado 9234" d="M712.756,2855.89a9.633,9.633,0,1,1-8.092-9.511A9.636,9.636,0,0,1,712.756,2855.89Z" transform="translate(-663.037 -2779.724)" fill="#b76e58"/>
  <path id="Trazado_9235" data-name="Trazado 9235" d="M775.657,2933.264l-7.795,12.5-7.8-12.5" transform="translate(-689.724 -2814.598)" fill="#fc5b5b"/>
  <path id="Trazado_9236" data-name="Trazado 9236" d="M775.459,2976.733q-3.555.33-7.2.332t-7.2-.33l7.2-28.033Z" transform="translate(-690.124 -2820.785)" fill="#fc5b5b"/>
  <path id="Trazado_9237" data-name="Trazado 9237" d="M719.378,2855.973a9.636,9.636,0,0,1-8.092,9.511,36.028,36.028,0,0,1,0-19.022A9.636,9.636,0,0,1,719.378,2855.973Z" transform="translate(-669.66 -2779.807)" fill="#934b36"/>
  <path id="Trazado_9238" data-name="Trazado 9238" d="M710.706,2860.032a3.444,3.444,0,1,1-3.444-3.444A3.443,3.443,0,0,1,710.706,2860.032Z" transform="translate(-667.179 -2783.865)" fill="#934b36"/>
  <path id="Trazado_9239" data-name="Trazado 9239" d="M761.668,2924.9l-13.073,7.264-3.978-18.5,8.123-4.785" transform="translate(-683.531 -2804.827)" fill="#e5ded4"/>
  <path id="Trazado_9240" data-name="Trazado 9240" d="M773.073,2924.9l13.074,7.264,3.976-18.5L782,2908.886" transform="translate(-694.936 -2804.827)" fill="#e5ded4"/>
  <path id="Trazado_9241" data-name="Trazado 9241" d="M820.505,2855.89a9.632,9.632,0,1,0,8.091-9.511A9.635,9.635,0,0,0,820.505,2855.89Z" transform="translate(-713.948 -2779.724)" fill="#b76e58"/>
  <g id="Grupo_9214" data-name="Grupo 9214" transform="translate(42.253 35.139)">
    <path id="Trazado_9242" data-name="Trazado 9242" d="M820.505,2855.973a9.635,9.635,0,0,0,8.091,9.511,35.98,35.98,0,0,0,0-19.022A9.635,9.635,0,0,0,820.505,2855.973Z" transform="translate(-756.201 -2814.945)" fill="#934b36"/>
    <path id="Trazado_9243" data-name="Trazado 9243" d="M837.726,2860.032a3.443,3.443,0,1,1-3.444-3.444A3.443,3.443,0,0,1,837.726,2860.032Z" transform="translate(-760.343 -2819.004)" fill="#934b36"/>
    <path id="Trazado_9244" data-name="Trazado 9244" d="M784.919,2829.77a35.85,35.85,0,0,1-30.094,35.384,35.452,35.452,0,0,1-5.753.463,35.846,35.846,0,0,1-35.849-35.847c0-9.368-.8-23.43,5.079-29.816,6.55-7.113,20.336-6.032,30.769-6.032a35.48,35.48,0,0,1,5.753.462A35.852,35.852,0,0,1,784.919,2829.77Z" transform="translate(-713.187 -2793.863)" fill="#934b36"/>
    <path id="Trazado_9245" data-name="Trazado 9245" d="M776.506,2897.11v12.715a10.361,10.361,0,0,1-20.721,0V2897.11Z" transform="translate(-730.261 -2835.245)" fill="#934b36"/>
  </g>
  <path id="Trazado_9246" data-name="Trazado 9246" d="M780.662,2916.985v.806a7.491,7.491,0,1,1-14.508,1.349q1.037.064,2.086.064a35.863,35.863,0,0,0,12.422-2.219Z" transform="translate(-692.163 -2808.073)" fill="#b76e58"/>
  <path id="Trazado_9247" data-name="Trazado 9247" d="M792.641,2830.119a35.85,35.85,0,0,1-30.094,35.384,35.85,35.85,0,0,1,0-70.77,35.86,35.86,0,0,1,29.918,31.811C792.582,2827.72,792.641,2828.915,792.641,2830.119Z" transform="translate(-678.656 -2759.073)" fill="#b76e58"/>
  <path id="Trazado_9248" data-name="Trazado 9248" d="M766.677,2879.743a18.112,18.112,0,0,1-8.74-2.257,1.594,1.594,0,1,1,1.536-2.795,14.878,14.878,0,0,0,14.406,0,1.594,1.594,0,1,1,1.536,2.795A18.105,18.105,0,0,1,766.677,2879.743Z" transform="translate(-688.539 -2791.042)" fill="#934b36"/>
  <path id="Trazado_9249" data-name="Trazado 9249" d="M754.9,2847.586a4.066,4.066,0,1,1-4.067-4.067A4.066,4.066,0,0,1,754.9,2847.586Z" transform="translate(-684.391 -2778.627)" fill="#31383b"/>
  <path id="Trazado_9250" data-name="Trazado 9250" d="M793.951,2847.586a4.066,4.066,0,1,1-4.067-4.067A4.066,4.066,0,0,1,793.951,2847.586Z" transform="translate(-700.045 -2778.627)" fill="#31383b"/>
  <path id="Trazado_9251" data-name="Trazado 9251" d="M756.62,2847.943a1.742,1.742,0,1,1-1.742-1.742A1.743,1.743,0,0,1,756.62,2847.943Z" transform="translate(-686.946 -2779.702)" fill="#fff"/>
  <path id="Trazado_9252" data-name="Trazado 9252" d="M796.009,2847.943a1.742,1.742,0,1,1-1.743-1.742A1.743,1.743,0,0,1,796.009,2847.943Z" transform="translate(-702.733 -2779.702)" fill="#fff"/>
  <path id="Trazado_9253" data-name="Trazado 9253" d="M773.249,2865.047h-8.133a1.754,1.754,0,0,1,0-3.508h8.133a1.754,1.754,0,0,1,0,3.508Z" transform="translate(-691.044 -2785.85)" fill="#934b36"/>
  <path id="Trazado_9254" data-name="Trazado 9254" d="M784.945,2800.419V2814.4h-6.672v-10.95l-48.16-8.949-10.19-1.895V2814.4h-6.672v-13.983a28.858,28.858,0,0,1,28.858-28.86h13.979c.379,0,.759.006,1.139.025A28.854,28.854,0,0,1,784.945,2800.419Z" transform="translate(-670.959 -2749.785)" fill="#151a1c"/>
  <path id="Trazado_9255" data-name="Trazado 9255" d="M796.224,2800.436v13.983h-6.672v-10.95l-48.16-8.95a27.632,27.632,0,0,1,54.832,5.917Z" transform="translate(-682.239 -2749.802)" fill="#31383b"/>
  <path id="Trazado_9256" data-name="Trazado 9256" d="M792.772,2962.647H808.4v4.785H792.772Z" transform="translate(-702.832 -2826.374)" fill="#e5ded4"/>
  <path id="Trazado_9257" data-name="Trazado 9257" d="M785.681,2780.4v4.034H709.552V2780.4a38.033,38.033,0,0,1,38.065-38.066c.235,0,.47,0,.7.011A38.061,38.061,0,0,1,785.681,2780.4Z" transform="translate(-669.477 -2738.072)" fill="#fd9b3d"/>
  <path id="Trazado_9258" data-name="Trazado 9258" d="M811.612,2780.409v2.631H774.249v-40.687A38.061,38.061,0,0,1,811.612,2780.409Z" transform="translate(-695.408 -2738.079)" fill="#fee887"/>
  <path id="Trazado_9259" data-name="Trazado 9259" d="M736.889,2745.148v28.839H710.8A38.119,38.119,0,0,1,736.889,2745.148Z" transform="translate(-669.976 -2739.199)" fill="#fee887"/>
  <path id="Trazado_9260" data-name="Trazado 9260" d="M779.584,2811.426l-2.1,9.871a5.7,5.7,0,0,1-5.576,4.513H747.963a5.7,5.7,0,0,1-5.575-4.513l-2.1-9.871Z" transform="translate(-681.797 -2765.764)" fill="#fd9b3d"/>
  <path id="Trazado_9261" data-name="Trazado 9261" d="M782.119,2822.982l-.628,2.947a5.7,5.7,0,0,1-5.575,4.513H755.921a5.7,5.7,0,0,1-5.575-4.513,2.441,2.441,0,0,1,2.388-2.947Z" transform="translate(-685.806 -2770.396)" fill="#fee887"/>
  <path id="Trazado_9262" data-name="Trazado 9262" d="M783.77,2801.473H704.42a3.653,3.653,0,0,0-3.653,3.653v3.92a3.653,3.653,0,0,0,3.653,3.653h79.35a3.654,3.654,0,0,0,3.653-3.653v-3.92A3.654,3.654,0,0,0,783.77,2801.473Z" transform="translate(-665.956 -2761.775)" fill="#fee887"/>
  <path id="Trazado_9263" data-name="Trazado 9263" d="M723.956,2812.7H704.421a3.653,3.653,0,0,1-3.652-3.652v-3.923a3.653,3.653,0,0,1,3.652-3.652h19.535a3.653,3.653,0,0,0-3.652,3.652v3.923A3.653,3.653,0,0,0,723.956,2812.7Z" transform="translate(-665.957 -2761.775)" fill="#fd9b3d"/>
  <path id="Trazado_9264" data-name="Trazado 9264" d="M736.889,2745.148v1.435c-7.9,4.88-13.819,15.062-15.557,27.4l-5.258,2.4-5.276-2.4A38.119,38.119,0,0,1,736.889,2745.148Z" transform="translate(-669.976 -2739.199)" fill="#fd9b3d"/>
  <path id="Trazado_9265" data-name="Trazado 9265" d="M772.251,2735.363h-6.8a2.917,2.917,0,0,0-2.917,2.918v43.36h12.63v-43.36A2.918,2.918,0,0,0,772.251,2735.363Z" transform="translate(-690.714 -2735.278)" fill="#fee887"/>
  <path id="Trazado_9266" data-name="Trazado 9266" d="M731.769,2931.911v35.438a77.83,77.83,0,0,1-46.581-20.182v-15.256a6.868,6.868,0,0,1,6.87-6.869H724.9A6.868,6.868,0,0,1,731.769,2931.911Z" transform="translate(-659.711 -2811.302)" fill="#2385ec"/>
  <path id="Trazado_9267" data-name="Trazado 9267" d="M705.777,2950.037v9.081a8.107,8.107,0,0,1-2.795,6.132c-1.419-.749-2.817-1.547-4.181-2.385a78.329,78.329,0,0,1-9.292-6.676v-6.152a8.133,8.133,0,0,1,16.267,0Z" transform="translate(-661.444 -2818.061)" fill="#e7aa91"/>
  <path id="Trazado_9268" data-name="Trazado 9268" d="M699.716,2950.427v9.081a8.1,8.1,0,0,1-.914,3.747,78.3,78.3,0,0,1-9.292-6.676v-6.153a5.5,5.5,0,1,1,10.206,0Z" transform="translate(-661.444 -2818.45)" fill="#f4c1a8"/>
  <path id="Trazado_9269" data-name="Trazado 9269" d="M807.734,2771.508a6.016,6.016,0,1,0,6.016,6.016A6.016,6.016,0,0,0,807.734,2771.508Z" transform="translate(-706.417 -2749.765)" fill="#fffbee"/>
  <path id="Trazado_9270" data-name="Trazado 9270" d="M842.618,2842.7l-4.556,4.556-16.605-16.6-1.69-6.245,6.245,1.689Z" transform="translate(-713.652 -2770.967)" fill="#fc5b5b"/>
  <path id="Trazado_9271" data-name="Trazado 9271" d="M839.628,2845.691l-1.566,1.567-16.605-16.6-1.69-6.245,3.256,4.678Z" transform="translate(-713.652 -2770.967)" fill="#d93d3d"/>
  <path id="Trazado_9272" data-name="Trazado 9272" d="M826.012,2826.1l-4.556,4.556-1.69-6.245,3.624.981Z" transform="translate(-713.652 -2770.967)" fill="#fcf9f4"/>
  <path id="Trazado_9273" data-name="Trazado 9273" d="M823.023,2829.086l-1.566,1.567-1.69-6.245Z" transform="translate(-713.652 -2770.967)" fill="#e5ded4"/>
  <path id="Trazado_9274" data-name="Trazado 9274" d="M823.392,2825.39l-2.643,2.643-.981-3.625Z" transform="translate(-713.652 -2770.967)" fill="#d93d3d"/>
  <path id="Trazado_9275" data-name="Trazado 9275" d="M834.008,2846.379a9.635,9.635,0,1,1,0,19.021l5.037-8.269.97-3.325-3.74-3.74Z" transform="translate(-719.36 -2779.724)" fill="#b76e58"/>
</svg>
