<svg id="Grupo_9217" data-name="Grupo 9217" xmlns="http://www.w3.org/2000/svg" width="156.28" height="156.28" viewBox="0 0 156.28 156.28">
  <path id="Trazado_9276" data-name="Trazado 9276" d="M1143.711,2815.114c0,43.154-28.474,57.176-71.628,57.176-27.761,0-38.138,4.732-52-17.086a78.144,78.144,0,0,1,117.665-100.467c16.235,14.318,5.963,37.03,5.963,60.377Z" transform="translate(-1007.945 -2735.22)" fill="#99e6fc"/>
  <path id="Trazado_9277" data-name="Trazado 9277" d="M1045.39,2807.074l-8.037,9.282-5.574-3.813a2.23,2.23,0,0,1-.318-3.418,2.232,2.232,0,0,0-.458-3.507l-5.314-3.092a2.238,2.238,0,0,0-2.567.229l-4.108,3.488a77.657,77.657,0,0,1,5.357-10.06,2.253,2.253,0,0,1,.906.131l18.915,6.917.793.559a2.231,2.231,0,0,1,.4,3.285Z" transform="translate(-1012.382 -2759.653)" fill="#66cc9a"/>
  <path id="Trazado_9278" data-name="Trazado 9278" d="M1172.1,2822.056a78.146,78.146,0,0,1-144.141,41.845l-.235-.891a3.844,3.844,0,0,1,2.091-4.457l9.3-4.344a3.992,3.992,0,0,0,.641-.381l21.58-15.787a3.837,3.837,0,0,0,1.355-1.822l24.269-68.894a3.839,3.839,0,0,1,1.871-2.14l8.818-4.518a3.838,3.838,0,0,1,4.905,1.233l.562.806a3.837,3.837,0,0,1,.229,4l-2.54,4.749a3.837,3.837,0,0,0,.522,4.368l1.138,1.275a3.836,3.836,0,0,0,5.25.452l1.5-1.191a3.841,3.841,0,0,0,.684-5.311l-1.932-2.576a3.841,3.841,0,0,1-.729-2.848l.232-1.611a3.834,3.834,0,0,1,3.183-3.248l23.3-3.8a3.839,3.839,0,0,1,4.032,2.033l1.358,2.644a3.841,3.841,0,0,0,3.837,2.06l2.442-.271a77.951,77.951,0,0,1,26.476,58.623Z" transform="translate(-1015.824 -2743.917)" fill="#66cc9a"/>
  <path id="Trazado_9279" data-name="Trazado 9279" d="M1157.743,2835.159l-2.028-3.936-.823-1.6a29.118,29.118,0,0,0-2.223-3.505,2.321,2.321,0,0,1,.549-3.234l3.09-2.195a2.318,2.318,0,0,0,.451-3.358l-7.057-8.625a2.321,2.321,0,0,1-.246-2.572l4.308-7.963a2.317,2.317,0,0,0-2.195-3.415l-16.843,1.146a2.31,2.31,0,0,1-1.687-.572l-5.687-5a2.313,2.313,0,0,0-1.486-.576l-19.262-.355a2.32,2.32,0,0,1-2.2-2.917l.734-2.756a2.311,2.311,0,0,0-.122-1.542l-3.537-7.918a2.322,2.322,0,0,0-2.118-1.372H1095.7a2.316,2.316,0,0,1-2.006-3.478l7.963-13.771a2.3,2.3,0,0,1,.747-.786l11.7-7.567a2.318,2.318,0,0,0,.411-3.554l-2.192-2.276a2.319,2.319,0,0,0-3.047-.257l-16.595,12.259a2.316,2.316,0,0,1-1.272.449l-6.843.313a2.316,2.316,0,0,0-2.177,1.908,2.317,2.317,0,0,1-3.85,1.3l-.522-.479a2.317,2.317,0,0,0-3.278.139l-6.525,7.132a2.319,2.319,0,0,0-.346,2.632l1.075,2.071a2.321,2.321,0,0,1-1.188,3.217l-1.158.469a2.279,2.279,0,0,0-.767.51l-5.674,5.672a2.32,2.32,0,0,0-.641,1.219l-.279,1.508a2.319,2.319,0,0,1-3.614,1.473l-.968-.683a2.32,2.32,0,0,0-3.193.512l-6,8.049a2.316,2.316,0,0,0,.508,3.268l5.567,4a2.321,2.321,0,0,1,.953,1.645l1.921,18.637a2.319,2.319,0,0,0,.966,1.653l2.779,1.968a2.317,2.317,0,0,1,.812,2.751l-3.478,8.7a2.315,2.315,0,0,1-2,1.452l-4.291.278a2.3,2.3,0,0,0-1.49.672l-6.522,6.522a2.319,2.319,0,0,0,.589,3.707l22.659,11.507a2.32,2.32,0,0,0,2.979-.781l1.873-2.81a2.317,2.317,0,0,1,3.172-.67l13.53,8.593a2.352,2.352,0,0,0,.784.317l14.6,2.955a2.319,2.319,0,0,1,1.858,2.271v5.79a2.316,2.316,0,0,0,2.354,2.317l20.455-.33a2.317,2.317,0,0,1,2.143,3.285l-3.362,7.325a2.316,2.316,0,0,0,1.385,3.169l7.088,2.323a2.317,2.317,0,0,0,3.034-2.047l1.885-27.892a2.329,2.329,0,0,0-.347-1.385l-5.833-9.332a2.319,2.319,0,0,1,.765-3.211l3.976-2.407a2.318,2.318,0,0,0,.694-3.321l-2.343-3.311a2.318,2.318,0,0,1,1.76-3.653l14-.794a.194.194,0,0,0,.038,0l1.895,3.679a2.776,2.776,0,1,0,4.936-2.544Z" transform="translate(-1020.993 -2737.439)" fill="#ace066"/>
  <path id="Trazado_9280" data-name="Trazado 9280" d="M1114.267,2879.5h-6.395v-37.41l6.395,1.512Z" transform="translate(-1047.997 -2778.052)" fill="#365e7d"/>
  <path id="Trazado_9281" data-name="Trazado 9281" d="M1114.267,2801.4l-6.395-2.075V2791.1l6.395,1.512Z" transform="translate(-1047.997 -2757.616)" fill="#365e7d"/>
  <path id="Trazado_9282" data-name="Trazado 9282" d="M1110.1,2879.5h-2.233v-37.41l2.233,1.512Z" transform="translate(-1047.997 -2778.052)" fill="#2b4d66"/>
  <path id="Trazado_9283" data-name="Trazado 9283" d="M1110.1,2801.4l-2.233-2.075V2791.1l2.233,1.512Z" transform="translate(-1047.997 -2757.616)" fill="#2b4d66"/>
  <g id="Grupo_9216" data-name="Grupo 9216" transform="translate(59.876 36.244)">
    <path id="Trazado_9284" data-name="Trazado 9284" d="M1152.869,2807.012l-21.676,3.354-23.321-3.354v-5.833a5.47,5.47,0,0,1,5.47-5.471H1147.4a5.47,5.47,0,0,1,5.47,5.471Z" transform="translate(-1107.872 -2795.708)" fill="#ffd064"/>
    <path id="Trazado_9285" data-name="Trazado 9285" d="M1147.4,2840.092h-34.057a5.47,5.47,0,0,1-5.47-5.471v-5.833l22.5-5.326,22.5,5.326v5.833a5.47,5.47,0,0,1-5.47,5.471Z" transform="translate(-1107.872 -2806.832)" fill="#da4a54"/>
    <path id="Trazado_9286" data-name="Trazado 9286" d="M1107.872,2814.573h45v10.652h-45Z" transform="translate(-1107.872 -2803.27)" fill="#30579d"/>
  </g>
  <path id="Trazado_9287" data-name="Trazado 9287" d="M1112.332,2780.439v-.393a2.547,2.547,0,0,0-2.325-2.571,2.491,2.491,0,0,0-2.656,2.485v.478a5.471,5.471,0,0,1-1.583,3.844,2.407,2.407,0,0,0-.693,1.82,2.483,2.483,0,0,0,2.512,2.3h4.511a2.483,2.483,0,0,0,2.512-2.3,2.406,2.406,0,0,0-.693-1.82,5.469,5.469,0,0,1-1.583-3.843Z" transform="translate(-1046.873 -2752.154)" fill="#365e7d"/>
  <path id="Trazado_9288" data-name="Trazado 9288" d="M1108.031,2784.283a4.414,4.414,0,0,0-.306,1.819c.027,1.3.534,2.3,1.115,2.3h-1.255a2.487,2.487,0,0,1-2.512-2.3,2.421,2.421,0,0,1,.693-1.819,5.472,5.472,0,0,0,1.584-3.843v-.479a2.489,2.489,0,0,1,2.49-2.491c-.61,0-1.1,1.114-1.1,2.491v.479a9.872,9.872,0,0,1-.7,3.843Z" transform="translate(-1046.874 -2752.154)" fill="#2b4d66"/>
</svg>
