<svg id="Grupo_9237" data-name="Grupo 9237" xmlns="http://www.w3.org/2000/svg" width="156.279" height="156.279" viewBox="0 0 156.279 156.279">
  <circle id="Elipse_151" data-name="Elipse 151" cx="78.14" cy="78.14" r="78.14" transform="translate(0)" fill="#99e6fc"/>
  <path id="Trazado_9313" data-name="Trazado 9313" d="M1059.8,3281.918a77.762,77.762,0,0,0,20.852,9.518v-22.5H1059.8Z" transform="translate(-1024.149 -3138.193)" fill="#fcf9f4"/>
  <path id="Trazado_9314" data-name="Trazado 9314" d="M1165.569,3291.645a77.731,77.731,0,0,0,20.851-9.248v-13.458h-20.851Z" transform="translate(-1066.542 -3138.193)" fill="#fcf9f4"/>
  <g id="Icons" transform="translate(21.85 21.846)">
    <g id="Grupo_9227" data-name="Grupo 9227" transform="translate(24.12)">
      <path id="Trazado_9315" data-name="Trazado 9315" d="M1109.188,3087.194l-9.293,4.646a32.152,32.152,0,0,1-14.385,3.4h-8.49v44.231a24.123,24.123,0,0,0,9.651,19.3l22.518,16.888,22.518-16.888a24.123,24.123,0,0,0,9.65-19.3v-44.231h-8.49a32.153,32.153,0,0,1-14.385-3.4Z" transform="translate(-1077.02 -3087.194)" fill="#66cc9a"/>
    </g>
    <g id="Grupo_9228" data-name="Grupo 9228" transform="translate(24.12 8.042)">
      <path id="Trazado_9316" data-name="Trazado 9316" d="M1094.712,3164.148a24.124,24.124,0,0,1-9.651-19.3v-44.23h-8.042v44.23a24.124,24.124,0,0,0,9.651,19.3l22.518,16.888,4.021-3.016Z" transform="translate(-1077.02 -3100.616)" fill="#1eaa96"/>
    </g>
    <g id="Grupo_9229" data-name="Grupo 9229" transform="translate(36.183 20.105)">
      <circle id="Elipse_152" data-name="Elipse 152" cx="20.105" cy="20.105" r="20.105" fill="#f0f0f0"/>
    </g>
    <g id="Grupo_9230" data-name="Grupo 9230" transform="translate(12.059 100.525)">
      <path id="Trazado_9317" data-name="Trazado 9317" d="M1056.891,3254.962h24.126v12.063h-24.126Z" transform="translate(-1056.891 -3254.962)" fill="#505050"/>
    </g>
    <g id="Grupo_9231" data-name="Grupo 9231" transform="translate(12.059 100.525)">
      <path id="Trazado_9318" data-name="Trazado 9318" d="M1056.891,3254.962h8.042v12.063h-8.042Z" transform="translate(-1056.891 -3254.962)" fill="#3c3c3c"/>
    </g>
    <g id="Grupo_9232" data-name="Grupo 9232" transform="translate(76.395 100.525)">
      <path id="Trazado_9319" data-name="Trazado 9319" d="M1164.263,3254.962h24.126v12.063h-24.126Z" transform="translate(-1164.263 -3254.962)" fill="#505050"/>
    </g>
    <g id="Grupo_9233" data-name="Grupo 9233" transform="translate(76.395 100.525)">
      <path id="Trazado_9320" data-name="Trazado 9320" d="M1164.263,3254.962h8.042v12.063h-8.042Z" transform="translate(-1164.263 -3254.962)" fill="#3c3c3c"/>
    </g>
    <g id="Grupo_9234" data-name="Grupo 9234" transform="translate(80.416 48.252)">
      <path id="Trazado_9321" data-name="Trazado 9321" d="M1203.129,3167.723h-.6a4.021,4.021,0,0,0-3.967,3.359l-2.614,15.682a16.071,16.071,0,0,1-4.492,8.728l-4.4,4.4,3.173-6.345a8.031,8.031,0,0,0,.849-3.6v-1.291a2.01,2.01,0,0,0-3.432-1.421l-11.962,11.962a16.085,16.085,0,0,0-4.711,11.373V3220h16.084v-3.879a10.053,10.053,0,0,1,2.943-7.107l8.427-8.426a16.051,16.051,0,0,0,4.71-11.365c0-8.323-.006-21.494-.008-21.5Z" transform="translate(-1170.973 -3167.723)" fill="#f0c8a0"/>
    </g>
    <g id="Grupo_9235" data-name="Grupo 9235" transform="translate(0 48.252)">
      <path id="Trazado_9322" data-name="Trazado 9322" d="M1036.776,3167.723h.6a4.022,4.022,0,0,1,3.967,3.359l2.614,15.682a16.067,16.067,0,0,0,4.492,8.728l4.4,4.4-3.173-6.345a8.032,8.032,0,0,1-.848-3.6v-1.291a2.01,2.01,0,0,1,3.432-1.421l11.962,11.962a16.085,16.085,0,0,1,4.711,11.373V3220h-16.084v-3.879a10.053,10.053,0,0,0-2.943-7.107l-8.427-8.426a16.052,16.052,0,0,1-4.71-11.365c0-8.323.008-21.494.01-21.5Z" transform="translate(-1036.766 -3167.723)" fill="#f0c8a0"/>
    </g>
    <g id="Grupo_9236" data-name="Grupo 9236" transform="translate(44.225 28.147)">
      <path id="Trazado_9323" data-name="Trazado 9323" d="M1134.7,3142.211h-8.042v-8.042h-8.042v8.042h-8.042v8.042h8.042v8.042h8.042v-8.042h8.042Z" transform="translate(-1110.574 -3134.169)" fill="#f45d6f"/>
    </g>
  </g>
</svg>
