<?xml version="1.0" encoding="utf-8"?>
<!-- Generator: Adobe Illustrator 25.0.1, SVG Export Plug-In . SVG Version: 6.00 Build 0)  -->
<svg version="1.1" id="Capa_1" xmlns="http://www.w3.org/2000/svg" xmlns:xlink="http://www.w3.org/1999/xlink" x="0px" y="0px"
	 viewBox="0 0 35.4 25.3" style="enable-background:new 0 0 35.4 25.3;" xml:space="preserve">
<style type="text/css">
	.st0{fill:#98DAFF;}
</style>
<g id="quote" transform="translate(35.392 67.947) rotate(180)">
	<g id="Grupo_11051" transform="translate(0 42.667)">
		<g id="Grupo_11050" transform="translate(0 0)">
			<path id="Trazado_9761" class="st0" d="M1,15.2h5c0.7,0,1.2,0.8,0.9,1.4l-1.6,7.2c-0.3,0.7,0.2,1.4,0.9,1.4h3.3
				c0.4,0,0.7-0.2,0.9-0.6l4.7-9.3c0.1-0.1,0.1-0.3,0.1-0.4V1c0-0.6-0.4-1-1-1H1C0.4,0,0,0.4,0,1v13.2C0,14.7,0.4,15.2,1,15.2z"/>
			<path id="Trazado_9762" class="st0" d="M20.2,1v13.2c0,0.6,0.4,1,1,1h5c0.7,0,1.2,0.8,0.9,1.4l-1.6,7.2c-0.3,0.7,0.2,1.4,0.9,1.4
				h3.3c0.4,0,0.7-0.2,0.9-0.6l4.7-9.3c0.1-0.1,0.1-0.3,0.1-0.4V1c0-0.6-0.4-1-1-1H21.2C20.7,0,20.2,0.4,20.2,1z"/>
		</g>
	</g>
</g>
</svg>
