<?xml version="1.0" encoding="utf-8"?>
<!-- Generator: Adobe Illustrator 25.0.1, SVG Export Plug-In . SVG Version: 6.00 Build 0)  -->
<svg version="1.1" id="Capa_1" xmlns="http://www.w3.org/2000/svg" xmlns:xlink="http://www.w3.org/1999/xlink" x="0px" y="0px"
	 viewBox="0 0 780.4 301" style="enable-background:new 0 0 780.4 301;" xml:space="preserve">
<style type="text/css">
	.st0{opacity:5.000000e-02;}
	.st1{fill:none;stroke:#6CCF8E;stroke-width:3.0001;stroke-miterlimit:10.0004;}
	.st2{fill:#FFFFFC;stroke:#2E2345;stroke-width:1.9999;stroke-miterlimit:9.9996;}
	.st3{fill:#FFFFFC;stroke:#2E2345;stroke-miterlimit:10;}
	.st4{fill:#FFFFFC;stroke:#2E2345;stroke-width:2;stroke-miterlimit:10;}
	.st5{fill:none;stroke:#2E2345;stroke-miterlimit:10;}
	.st6{fill:none;stroke:#55CDFD;stroke-width:7;stroke-miterlimit:10;}
	.st7{fill:none;stroke:#2E2345;stroke-width:2;stroke-miterlimit:10;}
	.st8{fill:none;stroke:#DD61C1;stroke-width:5;stroke-miterlimit:10;}
	.st9{fill:#2E2345;}
	.st10{fill:none;stroke:#2E2345;stroke-width:8;stroke-miterlimit:10;}
	.st11{fill:none;stroke:#2E2345;stroke-width:4;stroke-miterlimit:10;}
	.st12{fill:none;stroke:#2E2345;stroke-miterlimit:10.0004;}
	.st13{fill:none;stroke:#2E2345;stroke-width:0.9957;stroke-miterlimit:9.9554;}
	.st14{fill:none;stroke:#6CCF8E;stroke-width:3.0001;stroke-miterlimit:10.0003;}
	.st15{fill:none;stroke:#2E2345;stroke-width:0.9961;stroke-miterlimit:9.9574;}
	.st16{fill:#FFFFFC;stroke:#2E2345;stroke-miterlimit:9.9998;}
	.st17{fill:#FFFFFF;stroke:#2E2345;stroke-width:2;stroke-miterlimit:10;}
	.st18{fill:none;stroke:#2E2345;stroke-width:2;stroke-linecap:round;stroke-linejoin:round;stroke-miterlimit:10;}
	.st19{fill:none;stroke:#2E2345;stroke-linecap:round;stroke-linejoin:round;stroke-miterlimit:10;}
	.st20{fill:#FFFFFC;stroke:#2E2345;stroke-miterlimit:9.9999;}
	.st21{fill:none;stroke:#2E2345;stroke-width:3;stroke-miterlimit:10;}
	.st22{fill:none;stroke:#2E2345;stroke-width:4;stroke-miterlimit:10;stroke-dasharray:12.93,3.7;}
	.st23{fill:#FFFFFC;stroke:#2E2345;stroke-width:2;stroke-miterlimit:10.0002;}
	.st24{fill:none;}
	.st25{fill:none;stroke:#2E2345;stroke-miterlimit:9.9996;}
	.st26{fill:#FFFFFC;stroke:#2E2345;stroke-miterlimit:9.9997;}
	.st27{fill:#FFFFFC;stroke:#FFD669;stroke-width:2;stroke-miterlimit:10;}
	.st28{fill:#FFFFFC;stroke:#2E2345;stroke-linecap:round;stroke-linejoin:round;stroke-miterlimit:9.9998;}
	.st29{fill:none;stroke:#FFFFFF;stroke-width:5;stroke-miterlimit:10;}
	.st30{fill:none;stroke:#2E2345;stroke-linecap:round;stroke-linejoin:round;}
	.st31{fill:none;stroke:#2E2345;stroke-linecap:round;stroke-linejoin:round;stroke-dasharray:3.935,3.935;}
	.st32{fill:none;stroke:#2E2345;stroke-width:1;stroke-miterlimit:9.9999;}
</style>
<g class="st0">
	<ellipse class="st1" cx="154.3" cy="21.9" rx="16.6" ry="16.6"/>
	<ellipse class="st2" cx="154.3" cy="21.9" rx="11" ry="11"/>
	<circle class="st3" cx="437.4" cy="227.9" r="16"/>
	<circle class="st4" cx="437.4" cy="227.9" r="13.2"/>
	<circle class="st5" cx="229.8" cy="155.9" r="105.6"/>
	<path class="st6" d="M279.8,260.6c57.8-27.6,82.3-96.9,54.6-154.7c-19.3-40.3-60-66-104.7-66"/>
	<circle class="st7" cx="229.8" cy="155.9" r="93.7"/>
	<circle class="st8" cx="229.8" cy="155.9" r="85.3"/>
	<circle class="st7" cx="229.8" cy="155.9" r="73.3"/>
	<g>
		<path class="st9" d="M229.4,217.3c-2.5,0-4.5-2-4.5-4.5l0,0c0-2.5,2-4.5,4.5-4.5l0,0c2.5,0,4.5,2,4.5,4.5l0,0
			C233.9,215.3,231.9,217.3,229.4,217.3L229.4,217.3L229.4,217.3z M250.1,209.3c-1.1-2.3-0.1-4.9,2.1-6l0,0c2.2-1.1,4.9-0.1,6,2.1
			l0,0c1.1,2.3,0.1,4.9-2.1,6l0,0l0,0l0,0c-0.6,0.3-1.3,0.4-1.9,0.4l0,0C252.5,211.8,250.9,210.9,250.1,209.3z M202.7,211
			c-2.2-1.1-3.2-3.8-2.1-6l0,0c1.1-2.2,3.8-3.2,6-2l0,0c2.2,1.1,3.1,3.8,2,6l0,0c-0.8,1.6-2.4,2.5-4,2.5l0,0
			C204,211.5,203.4,211.3,202.7,211z M271.3,195.1c-1.9-1.6-2.2-4.4-0.7-6.3l0,0c1.6-1.9,4.4-2.2,6.3-0.7l0,0
			c1.9,1.6,2.2,4.4,0.7,6.3l0,0c-0.9,1.1-2.2,1.7-3.5,1.7l0,0C273.1,196.1,272.1,195.8,271.3,195.1z M181.5,193.8L181.5,193.8
			L181.5,193.8c-1.5-2-1.2-4.8,0.8-6.3l0,0c2-1.5,4.8-1.2,6.3,0.8l0,0c1.5,2,1.2,4.8-0.8,6.3l0,0c-0.8,0.6-1.8,1-2.8,1l0,0
			C183.7,195.5,182.4,194.9,181.5,193.8z M284.2,173.2c-2.4-0.6-3.9-3-3.4-5.4l0,0c0.6-2.4,3-3.9,5.4-3.4l0,0c2.4,0.6,3.9,3,3.4,5.4
			l0,0l0,0l0,0c-0.5,2.1-2.3,3.5-4.4,3.5l0,0C284.9,173.3,284.6,173.2,284.2,173.2z M169.8,169L169.8,169L169.8,169
			c-0.5-2.4,1-4.8,3.4-5.4l0,0c2.4-0.5,4.8,1,5.4,3.4l0,0c0.5,2.4-1,4.8-3.4,5.4l0,0c-0.3,0.1-0.6,0.1-1,0.1l0,0
			C172.1,172.5,170.3,171.1,169.8,169z M280.9,144.4c-0.5-2.4,1-4.8,3.4-5.4l0,0c2.4-0.5,4.8,1,5.4,3.4l0,0c0.5,2.4-1,4.8-3.4,5.4
			l0,0c-0.3,0.1-0.7,0.1-1,0.1l0,0C283.3,147.9,281.4,146.5,280.9,144.4z M173.4,147c-2.4-0.6-3.9-3-3.3-5.4l0,0
			c0.6-2.4,3-3.9,5.4-3.3l0,0c2.4,0.6,3.9,3,3.3,5.4l0,0c-0.5,2.1-2.3,3.5-4.4,3.5l0,0C174.1,147.2,173.8,147.1,173.4,147z
			 M270.8,123.3L270.8,123.3c-1.5-2-1.2-4.8,0.7-6.3l0,0c1.9-1.5,4.8-1.2,6.3,0.7l0,0l0,0l0,0c1.5,1.9,1.2,4.8-0.7,6.3l0,0
			c-0.8,0.7-1.8,1-2.8,1l0,0C273,125,271.7,124.4,270.8,123.3z M182.9,123.4c-1.9-1.6-2.2-4.4-0.6-6.3l0,0c1.6-1.9,4.4-2.2,6.3-0.6
			l0,0c1.9,1.6,2.2,4.4,0.6,6.3l0,0c-0.9,1.1-2.2,1.6-3.5,1.6l0,0C184.7,124.4,183.7,124.1,182.9,123.4z M252.6,108.7L252.6,108.7
			c-2.2-1.1-3.2-3.8-2.1-6l0,0c1.1-2.2,3.8-3.2,6-2.1l0,0l0,0l0,0c2.2,1.1,3.2,3.8,2.1,6l0,0c-0.8,1.6-2.4,2.5-4,2.5l0,0
			C253.9,109.2,253.2,109,252.6,108.7z M201.7,106.2c-1-2.3-0.1-4.9,2.2-6l0,0c2.3-1.1,4.9-0.1,6,2.2l0,0c1,2.3,0.1,4.9-2.2,6l0,0
			c-0.6,0.3-1.3,0.4-1.9,0.4l0,0C204,108.8,202.4,107.9,201.7,106.2z M225.3,99c0-2.5,2-4.5,4.5-4.5l0,0c2.5,0,4.5,2,4.5,4.5l0,0
			c0,2.5-2,4.5-4.5,4.5l0,0C227.3,103.5,225.3,101.5,225.3,99z"/>
	</g>
	<circle class="st7" cx="229.8" cy="155.9" r="50.6"/>
	<circle class="st5" cx="229.8" cy="155.9" r="63.7"/>
	<path class="st10" d="M229.8,113.2c-23.6,0-42.8,19.1-42.8,42.8s19.1,42.8,42.8,42.8s42.8-19.1,42.8-42.8l0,0"/>
	<path class="st11" d="M262.7,155.9c0-18.2-14.8-33-33-33s-33,14.8-33,33s14.8,33,33,33"/>
	<path class="st9" d="M271.2,58c0,0.8-0.6,1.4-1.5,1.4c-0.8,0-1.4-0.6-1.4-1.5c0-0.8,0.6-1.4,1.5-1.4
		C270.5,56.5,271.2,57.2,271.2,58L271.2,58z"/>
	<path class="st9" d="M304.2,79.5c0,0.8-0.6,1.5-1.4,1.5s-1.5-0.6-1.5-1.4s0.6-1.5,1.4-1.5l0,0C303.5,78.1,304.2,78.7,304.2,79.5z"
		/>
	<path class="st9" d="M347.3,92.8c0,0.8-0.6,1.4-1.5,1.4c-0.8,0-1.5-0.6-1.5-1.5c0-0.8,0.6-1.4,1.5-1.4l0,0
		C346.6,91.4,347.3,92,347.3,92.8L347.3,92.8z"/>
	<path class="st9" d="M322.2,61.4c0,0.8-0.6,1.5-1.4,1.5s-1.5-0.6-1.5-1.4s0.6-1.5,1.4-1.5l0,0C321.6,60,322.2,60.6,322.2,61.4z"/>
	<path class="st9" d="M373.3,104.7c0,0.8-0.6,1.5-1.5,1.5s-1.5-0.6-1.5-1.5c0-0.8,0.6-1.5,1.5-1.5l0,0
		C372.6,103.3,373.3,103.9,373.3,104.7L373.3,104.7z"/>
	<path class="st9" d="M375.4,64.4c0,0.8-0.6,1.5-1.5,1.5s-1.5-0.6-1.5-1.5s0.6-1.5,1.5-1.5S375.4,63.6,375.4,64.4
		C375.4,64.3,375.4,64.4,375.4,64.4z"/>
	<path class="st9" d="M375.4,15.6c0,0.8-0.6,1.5-1.5,1.5s-1.5-0.6-1.5-1.5c0-0.9,0.6-1.5,1.5-1.5l0,0
		C374.8,14.2,375.4,14.8,375.4,15.6L375.4,15.6z"/>
	<path class="st9" d="M313.6,15.6c0,0.8-0.6,1.4-1.5,1.4c-0.8,0-1.4-0.6-1.4-1.5c0-0.8,0.6-1.4,1.5-1.4l0,0
		C313,14.2,313.6,14.8,313.6,15.6L313.6,15.6z"/>
	<ellipse class="st12" cx="371.9" cy="104.7" rx="12.4" ry="12.4"/>
	<path class="st9" d="M369.5,198.2c0,0.8-0.6,1.5-1.4,1.5s-1.5-0.6-1.5-1.4s0.6-1.4,1.4-1.5C368.8,196.8,369.5,197.5,369.5,198.2
		L369.5,198.2z"/>
	<circle class="st3" cx="404.8" cy="198.2" r="8.9"/>
	<path class="st9" d="M406.2,198.2c0,0.8-0.6,1.5-1.4,1.5s-1.5-0.6-1.5-1.4s0.6-1.5,1.4-1.5c0,0,0,0,0.1,0
		C405.5,196.8,406.2,197.5,406.2,198.2z"/>
	<path class="st9" d="M412.6,228c0,0.8-0.6,1.5-1.4,1.5s-1.5-0.6-1.5-1.4s0.6-1.5,1.4-1.5l0,0C411.9,226.5,412.6,227.2,412.6,228z"
		/>
	<path class="st9" d="M369.5,213.5c0,0.8-0.6,1.5-1.4,1.5s-1.5-0.6-1.5-1.4s0.6-1.5,1.4-1.5l0,0
		C368.8,212.1,369.5,212.7,369.5,213.5z"/>
	<path class="st9" d="M312.5,263.6c0,0.8-0.6,1.5-1.4,1.5s-1.5-0.6-1.5-1.4s0.6-1.5,1.4-1.5l0,0
		C311.8,262.2,312.5,262.8,312.5,263.6z"/>
	<path class="st9" d="M227.3,277.2c0,0.8-0.6,1.5-1.5,1.4c-0.8,0-1.4-0.6-1.4-1.5c0-0.8,0.6-1.5,1.5-1.5l0,0
		C226.7,275.7,227.3,276.4,227.3,277.2L227.3,277.2z"/>
	<path class="st9" d="M383.1,257.2c0,0.8-0.6,1.5-1.4,1.5s-1.5-0.6-1.5-1.4s0.6-1.5,1.4-1.5l0,0C382.4,255.8,383,256.4,383.1,257.2z
		"/>
	<path class="st9" d="M377.6,251.7c0,0.8-0.6,1.5-1.5,1.5s-1.5-0.6-1.5-1.5s0.6-1.5,1.5-1.5l0,0
		C376.9,250.3,377.6,250.9,377.6,251.7L377.6,251.7z"/>
	<path class="st9" d="M388.5,262.6c0,0.8-0.6,1.5-1.4,1.5s-1.5-0.6-1.5-1.4s0.6-1.5,1.4-1.5l0,0
		C387.8,261.2,388.5,261.9,388.5,262.6z"/>
	<path class="st9" d="M355.2,199.1c0,0.8-0.6,1.5-1.5,1.5s-1.5-0.6-1.5-1.5s0.6-1.5,1.5-1.5C354.5,197.6,355.2,198.3,355.2,199.1
		C355.2,199,355.2,199.1,355.2,199.1z"/>
	<circle class="st5" cx="353.7" cy="199" r="5.6"/>
	<path class="st9" d="M373.3,136.1c0,0.8-0.6,1.5-1.5,1.5s-1.5-0.6-1.5-1.5c0-0.8,0.6-1.5,1.5-1.5S373.3,135.3,373.3,136.1
		L373.3,136.1z"/>
	<path class="st9" d="M444.3,64.5c0,0.8-0.6,1.4-1.5,1.4c-0.8,0-1.5-0.6-1.5-1.5c0-0.8,0.6-1.4,1.5-1.4l0,0
		C443.6,63.1,444.3,63.8,444.3,64.5L444.3,64.5z"/>
	<ellipse class="st13" cx="441" cy="65.5" rx="5" ry="5"/>
	<ellipse class="st14" cx="442.9" cy="64.5" rx="15.2" ry="15.2"/>
	<ellipse transform="matrix(0.9243 -0.3818 0.3818 0.9243 8.3983 173.3354)" class="st15" cx="441" cy="65.5" rx="18.8" ry="18.8"/>
	<circle class="st5" cx="442.9" cy="64.5" r="11.8"/>
	<path class="st9" d="M336,142.3c0,0.8-0.6,1.5-1.5,1.5s-1.5-0.6-1.5-1.5s0.6-1.5,1.5-1.5S336,141.5,336,142.3L336,142.3z"/>
	<circle class="st9" cx="326.3" cy="199" r="1.5"/>
	<circle class="st9" cx="300.1" cy="234.5" r="1.5"/>
	<path class="st9" d="M330.7,263.7c0,0.8-0.6,1.5-1.5,1.5s-1.5-0.6-1.5-1.5s0.6-1.5,1.5-1.5C330,262.2,330.7,262.9,330.7,263.7
		L330.7,263.7z"/>
	<circle class="st9" cx="207.8" cy="259.1" r="1.5"/>
	<circle class="st9" cx="151" cy="226.3" r="1.5"/>
	<path class="st9" d="M124.5,278c0,0.8-0.6,1.5-1.4,1.5s-1.5-0.6-1.5-1.4s0.6-1.5,1.4-1.5l0,0C123.8,276.6,124.5,277.2,124.5,278z"
		/>
	<path class="st9" d="M124.6,256.1c0,0.8-0.6,1.5-1.4,1.5s-1.5-0.6-1.5-1.4s0.6-1.5,1.4-1.5l0,0C124,254.7,124.6,255.3,124.6,256.1z
		"/>
	<path class="st9" d="M128,178.1c0,0.8-0.6,1.5-1.5,1.4c-0.8,0-1.5-0.6-1.4-1.5c0-0.8,0.6-1.5,1.5-1.5l0,0
		C127.3,176.7,128,177.4,128,178.1L128,178.1z"/>
	<path class="st9" d="M91.4,181c0,0.8-0.6,1.5-1.4,1.5s-1.5-0.6-1.5-1.4s0.6-1.5,1.4-1.5l0,0C90.8,179.6,91.4,180.2,91.4,181z"/>
	<path class="st9" d="M100.8,186.9c0,0.8-0.6,1.5-1.4,1.5s-1.5-0.6-1.5-1.4s0.6-1.5,1.4-1.5l0,0
		C100.1,185.5,100.8,186.1,100.8,186.9z"/>
	<path class="st9" d="M112.9,193.2c0,0.8-0.6,1.5-1.5,1.5c-0.8,0-1.5-0.6-1.5-1.5c0-0.8,0.6-1.5,1.5-1.5
		C112.2,191.8,112.9,192.4,112.9,193.2L112.9,193.2z"/>
	<path class="st9" d="M91.5,219.3c0,0.8-0.6,1.5-1.5,1.4c-0.8,0-1.5-0.6-1.4-1.5c0-0.8,0.6-1.5,1.5-1.5l0,0
		C90.8,217.8,91.5,218.4,91.5,219.3L91.5,219.3z"/>
	<path class="st9" d="M108.8,236.5c0,0.8-0.6,1.5-1.5,1.4c-0.8,0-1.5-0.6-1.4-1.5c0-0.8,0.6-1.5,1.5-1.5l0,0
		C108.1,235.1,108.8,235.7,108.8,236.5L108.8,236.5z"/>
	<path class="st9" d="M142.5,236.5c0,0.8-0.6,1.5-1.5,1.5s-1.5-0.6-1.5-1.5s0.6-1.5,1.5-1.5S142.5,235.7,142.5,236.5L142.5,236.5z"
		/>
	<path class="st9" d="M125.9,161.6c0,0.8-0.6,1.4-1.5,1.4c-0.8,0-1.5-0.6-1.5-1.4c0-0.8,0.6-1.5,1.5-1.5l0,0
		C125.3,160.2,125.9,160.9,125.9,161.6L125.9,161.6z"/>
	<ellipse class="st16" cx="93.3" cy="151.9" rx="14.5" ry="14.5"/>
	<path class="st9" d="M31.9,180.5c0,0.8-0.6,1.5-1.4,1.5s-1.5-0.6-1.5-1.4s0.6-1.5,1.4-1.5l0,0C31.3,179.1,31.9,179.8,31.9,180.5z"
		/>
	<path class="st9" d="M48.4,105.9c0,0.8-0.6,1.5-1.4,1.5s-1.5-0.6-1.5-1.4s0.6-1.5,1.4-1.5l0,0C47.8,104.4,48.4,105,48.4,105.9z"/>
	<path class="st9" d="M48.4,91.9c0,0.8-0.6,1.5-1.4,1.5s-1.5-0.6-1.5-1.4s0.6-1.5,1.4-1.5l0,0C47.8,90.5,48.4,91.1,48.4,91.9z"/>
	<path class="st9" d="M100.8,91.9c0,0.8-0.6,1.5-1.4,1.5s-1.5-0.6-1.5-1.4s0.6-1.5,1.4-1.5l0,0C100.1,90.5,100.8,91.1,100.8,91.9
		L100.8,91.9z"/>
	<circle class="st9" cx="172.3" cy="67.2" r="1.5"/>
	<path class="st9" d="M148.8,90c0,0.8-0.6,1.5-1.5,1.5c-0.8,0-1.5-0.6-1.5-1.5c0-0.8,0.6-1.5,1.5-1.5
		C148.1,88.6,148.8,89.3,148.8,90L148.8,90z"/>
	<path class="st9" d="M129.4,51.9c0,0.8-0.6,1.4-1.5,1.4c-0.8,0-1.4-0.6-1.4-1.5c0-0.8,0.6-1.4,1.5-1.4
		C128.8,50.4,129.5,51,129.4,51.9C129.5,51.8,129.5,51.9,129.4,51.9z"/>
	<path class="st9" d="M150.7,44.3c0,0.8-0.6,1.5-1.4,1.5c-0.8,0-1.5-0.6-1.5-1.4s0.6-1.5,1.4-1.5l0,0
		C150,42.9,150.6,43.5,150.7,44.3z"/>
	<path class="st9" d="M115,22.3c0,0.8-0.6,1.5-1.5,1.5c-0.8,0-1.5-0.6-1.5-1.5s0.6-1.5,1.5-1.5C114.3,20.8,115,21.5,115,22.3z"/>
	<path class="st9" d="M155.9,21.8c0,0.8-0.6,1.5-1.4,1.5c-0.8,0-1.5-0.6-1.5-1.4s0.6-1.5,1.4-1.5l0,0
		C155.2,20.4,155.9,21.1,155.9,21.8z"/>
	<path class="st9" d="M182.5,21.8c0,0.8-0.6,1.5-1.4,1.5s-1.5-0.6-1.5-1.4s0.6-1.5,1.4-1.5l0,0C181.8,20.4,182.5,21.1,182.5,21.8z"
		/>
	<path class="st9" d="M190.3,29.6c0,0.8-0.6,1.5-1.4,1.5s-1.5-0.6-1.5-1.4s0.6-1.5,1.4-1.5l0,0C189.6,28.2,190.3,28.8,190.3,29.6z"
		/>
	<path class="st9" d="M210.9,29.6c0,0.8-0.6,1.5-1.4,1.5s-1.5-0.6-1.5-1.4s0.6-1.5,1.4-1.5l0,0C210.2,28.2,210.9,28.8,210.9,29.6z"
		/>
	<circle class="st5" cx="209.4" cy="29.6" r="10.1"/>
	<circle class="st5" cx="263.4" cy="32.7" r="7.5"/>
	<circle class="st5" cx="300.1" cy="234.5" r="4.9"/>
	<circle class="st9" cx="245" cy="51.2" r="1.5"/>
	<path class="st9" d="M264.8,32.8c0,0.8-0.6,1.5-1.4,1.5s-1.5-0.6-1.5-1.4c0-0.8,0.6-1.5,1.4-1.5l0,0
		C264.2,31.4,264.8,32,264.8,32.8z"/>
	<polyline class="st5" points="269.8,58 312,15.7 374,15.7 374,64.5 	"/>
	<polyline class="st5" points="326.4,112.6 346,93.1 346,32 	"/>
	<polygon class="st9" points="347.9,32.5 346,29.2 344.1,32.5 	"/>
	<polyline class="st5" points="334.5,142.3 371.8,105 371.8,135.5 442.9,64.4 	"/>
	<polyline class="st5" points="326.3,199 353.7,199 353.7,174.8 438.5,174.8 	"/>
	<polygon class="st9" points="437.9,176.7 441.2,174.8 437.9,172.9 	"/>
	<polyline class="st5" points="300.2,234.7 329.2,263.6 311,263.6 	"/>
	<polyline class="st5" points="353.7,199 368,213.4 368,198.3 404.8,198.3 	"/>
	<polyline class="st5" points="207.8,259.1 225.8,277.1 361.5,277.1 410.7,227.9 437.4,227.9 	"/>
	<polyline class="st5" points="163.5,237.5 123.1,277.9 123.1,256.1 10.4,256.1 	"/>
	<polyline class="st5" points="151,226.3 141,236.3 107.2,236.3 90.1,219.1 90.1,180.7 30.4,180.7 	"/>
	<polyline class="st5" points="126.5,178.1 111.5,193.1 90.3,193.1 	"/>
	<polyline class="st5" points="124.5,161.6 99.4,186.8 90.1,186.8 	"/>
	<polyline class="st5" points="147.4,90 124.1,66.8 99.2,91.7 47,91.7 47,105.5 93.4,151.9 	"/>
	<polyline class="st5" points="172.3,67.2 149.3,44.2 0,44.2 	"/>
	<polyline class="st5" points="0,22.2 113.3,22.2 135.4,44.3 128,51.7 106.9,51.7 	"/>
	<path class="st9" d="M734.2,44.1c0,0.8-0.6,1.5-1.4,1.5s-1.5-0.6-1.5-1.4s0.6-1.5,1.4-1.5l0,0C733.5,42.7,734.2,43.4,734.2,44.1z"
		/>
	<path class="st9" d="M758.2,22.3c0,0.8-0.6,1.5-1.4,1.5s-1.5-0.6-1.5-1.4s0.6-1.5,1.4-1.5l0,0C757.5,20.9,758.2,21.5,758.2,22.3z"
		/>
	<line class="st5" x1="780.4" y1="44.2" x2="732.4" y2="44.2"/>
	<line class="st5" x1="756.5" y1="22.2" x2="780.4" y2="22.2"/>
	<polygon class="st9" points="107.4,49.8 104.1,51.7 107.4,53.6 	"/>
	<polyline class="st5" points="229.8,49.8 209.5,29.6 188.9,29.6 181.1,21.9 154.3,21.9 	"/>
	<line class="st5" x1="245" y1="51.2" x2="263.6" y2="32.6"/>
	<circle class="st17" cx="229.8" cy="49.8" r="4"/>
	<circle class="st17" cx="326.4" cy="112.6" r="4"/>
	<circle class="st7" cx="309.8" cy="72.1" r="6"/>
	<circle class="st5" cx="309.8" cy="72.1" r="15.5"/>
	<circle class="st5" cx="309.8" cy="72.1" r="10.1"/>
	<path class="st9" d="M564.6,8.2c0,2-1.5,3.7-3.4,3.7s-3.7-1.5-3.7-3.4s1.5-3.7,3.4-3.7l0,0C562.9,4.8,564.6,6.2,564.6,8.2z"/>
	<path class="st9" d="M608.9,264.7c0,2-1.5,3.7-3.4,3.7c-2,0-3.7-1.5-3.7-3.4s1.5-3.7,3.4-3.7l0,0
		C607.4,261.2,608.9,262.7,608.9,264.7z"/>
	<path class="st9" d="M679.2,239.3c0,2-1.5,3.7-3.4,3.7c-2,0-3.7-1.5-3.7-3.4s1.5-3.7,3.4-3.7l0,0
		C677.7,235.8,679.2,237.3,679.2,239.3z"/>
	<path class="st9" d="M693.3,224.5c0,2-1.5,3.7-3.4,3.7c-2,0-3.7-1.5-3.7-3.4s1.5-3.7,3.4-3.7l0,0
		C691.8,221,693.3,222.5,693.3,224.5z"/>
	<path class="st9" d="M707.5,209.7c0,2-1.5,3.7-3.4,3.7c-2,0-3.7-1.5-3.7-3.4s1.5-3.7,3.4-3.7l0,0
		C706,206.2,707.5,207.7,707.5,209.7z"/>
	<path class="st18" d="M589.3,0c-2.7,2.9-6.6,4.8-10.9,4.8c-4.3,0-8.2-1.8-10.9-4.8"/>
	<path class="st18" d="M567.5,301c-2.4-2.6-3.9-6.1-3.9-10c0-8.2,6.6-14.8,14.8-14.8s14.8,6.6,14.8,14.8c0,3.9-1.5,7.4-3.9,10"/>
	<path class="st19" d="M615.2,0c-4.4,16.2-19.2,28.2-36.8,28.2S546,16.3,541.6,0"/>
	<path class="st19" d="M541.6,301c-0.9-3.2-1.3-6.5-1.3-10c0-21.1,17.1-38.2,38.2-38.2c21.1,0,38.2,17.1,38.2,38.2
		c0,3.5-0.5,6.8-1.3,10"/>
	<path class="st19" d="M601.3-0.3c-3.8,8.9-12.6,15.2-22.9,15.2c-10.2,0-18.9-6.1-22.8-14.9"/>
	<path class="st19" d="M555.6,301c-1.3-3.1-2.1-6.4-2.1-10c0-13.7,11.1-24.9,24.9-24.9s24.9,11.1,24.9,24.9c0,3.4-0.7,6.7-2,9.7"/>
	<circle class="st17" cx="163.5" cy="237.5" r="4"/>
	<circle class="st3" cx="90.6" cy="205.3" r="5.4"/>
	<circle class="st3" cx="10.7" cy="255.8" r="5.4"/>
	<line class="st5" x1="81.4" y1="205.3" x2="99.9" y2="205.3"/>
	<circle class="st9" cx="81.4" cy="205.3" r="1.2"/>
	<circle class="st9" cx="99.9" cy="205.3" r="1.2"/>
	<circle class="st3" cx="292.5" cy="276.3" r="5.4"/>
	<line class="st5" x1="292.5" y1="267.1" x2="292.5" y2="285.6"/>
	<circle class="st9" cx="292.5" cy="267.1" r="1.2"/>
	<circle class="st9" cx="292.5" cy="285.6" r="1.2"/>
	<circle class="st3" cx="84.9" cy="91.3" r="5.4"/>
	<line class="st5" x1="85" y1="82.2" x2="85" y2="100.7"/>
	<path class="st9" d="M85,83.4c0.6,0,1.2-0.5,1.2-1.2S85.7,81,85,81s-1.2,0.5-1.2,1.2S84.4,83.4,85,83.4L85,83.4z"/>
	<path class="st9" d="M85,101.8c0.6,0,1.2-0.5,1.2-1.2s-0.5-1.2-1.2-1.2s-1.2,0.5-1.2,1.2S84.4,101.8,85,101.8L85,101.8z"/>
	<ellipse class="st20" cx="437.4" cy="227.9" rx="4.6" ry="4.6"/>
	<circle class="st3" cx="354.3" cy="174.4" r="4.6"/>
	<rect x="343.2" y="52.4" class="st3" width="5.5" height="5.5"/>
	<rect x="343.2" y="59.7" class="st3" width="5.5" height="5.5"/>
	<rect x="343.2" y="67" class="st3" width="5.5" height="5.5"/>
	<rect x="343.2" y="74.3" class="st3" width="5.5" height="5.5"/>
	<rect x="343.2" y="81.6" class="st3" width="5.5" height="5.5"/>
	<line class="st5" x1="343.2" y1="35.8" x2="348.7" y2="35.8"/>
	<polyline class="st5" points="373.1,65 392.8,45.5 392.8,-0.4 	"/>
	<rect x="390" y="4.8" class="st3" width="5.5" height="5.5"/>
	<rect x="390" y="12.1" class="st3" width="5.5" height="5.5"/>
	<rect x="390" y="19.4" class="st3" width="5.5" height="5.5"/>
	<rect x="390" y="26.7" class="st3" width="5.5" height="5.5"/>
	<line class="st5" x1="392.8" y1="301" x2="392.8" y2="290.5"/>
	<polygon class="st9" points="394.6,291 392.8,287.7 390.8,291 	"/>
	<line class="st5" x1="390" y1="294.3" x2="395.5" y2="294.3"/>
	<rect x="408.9" y="171.5" class="st3" width="5.5" height="5.5"/>
	<rect x="401.6" y="171.5" class="st3" width="5.5" height="5.5"/>
	<rect x="394.3" y="171.5" class="st3" width="5.5" height="5.5"/>
	<rect x="387" y="171.5" class="st3" width="5.5" height="5.5"/>
	<rect x="379.7" y="171.5" class="st3" width="5.5" height="5.5"/>
	<line class="st5" x1="430.9" y1="171.5" x2="430.9" y2="177"/>
	<rect x="223.9" y="150.1" class="st5" width="11.7" height="11.7"/>
	<circle class="st21" cx="229.8" cy="155.9" r="11.6"/>
	<rect x="408.8" y="86.6" class="st5" width="11.7" height="11.7"/>
	<circle class="st5" cx="414.6" cy="92.5" r="10.1"/>
	<polyline class="st11" points="397.4,269.1 397.4,273.6 393,273.6 	"/>
	<line class="st22" x1="390.6" y1="273.6" x2="370.7" y2="273.6"/>
	<polyline class="st11" points="369.5,273.6 365.1,273.6 365.1,269.1 	"/>
	<line class="st22" x1="365.1" y1="266.9" x2="365.1" y2="246.9"/>
	<polyline class="st11" points="365.1,245.8 365.1,241.3 369.5,241.3 	"/>
	<line class="st22" x1="371.9" y1="241.3" x2="391.8" y2="241.3"/>
	<polyline class="st11" points="393,241.3 397.4,241.3 397.4,245.8 	"/>
	<line class="st22" x1="397.4" y1="248.1" x2="397.4" y2="268"/>
	<circle class="st5" cx="381.3" cy="257.5" r="27.9"/>
	<line class="st11" x1="229.8" y1="153.1" x2="229.8" y2="158.7"/>
	<ellipse class="st23" cx="124.1" cy="66.8" rx="7" ry="7"/>
	<line class="st5" x1="373.2" y1="195.5" x2="373.2" y2="200.9"/>
	<line class="st5" x1="376.6" y1="252" x2="386.6" y2="262.1"/>
	<path class="st9" d="M75,279.8c1,0.2,2-0.5,2.2-1.5s-0.5-2-1.5-2.2s-2,0.4-2.2,1.5C73.3,278.6,73.9,279.7,75,279.8
		C74.9,279.8,74.9,279.8,75,279.8z"/>
	<path class="st9" d="M58.5,279.8c1,0.2,2-0.5,2.2-1.5s-0.5-2-1.5-2.2s-2,0.4-2.2,1.5C56.8,278.6,57.4,279.7,58.5,279.8L58.5,279.8z
		"/>
	<path class="st9" d="M51.1,279.8c1,0.2,2-0.5,2.2-1.5s-0.5-2-1.5-2.2s-2,0.4-2.2,1.5C49.4,278.6,50.1,279.7,51.1,279.8L51.1,279.8z
		"/>
	<path class="st9" d="M43.8,279.8c1,0.2,2-0.4,2.2-1.5c0.2-1-0.4-2-1.5-2.2c-1-0.2-2,0.4-2.2,1.5C42.1,278.6,42.8,279.7,43.8,279.8
		L43.8,279.8z"/>
	<path class="st9" d="M25.3,279.8c1,0.2,2-0.4,2.2-1.5c0.2-1-0.4-2-1.5-2.2c-1-0.2-2,0.4-2.2,1.5C23.6,278.6,24.3,279.7,25.3,279.8
		L25.3,279.8z"/>
	<line class="st5" x1="75.4" y1="277.9" x2="0" y2="277.9"/>
	<rect x="16" y="274.9" class="st3" width="5.5" height="5.5"/>
	<rect x="8.7" y="274.9" class="st3" width="5.5" height="5.5"/>
	<g>
		<line class="st5" x1="780.4" y1="252.3" x2="720.5" y2="252.3"/>
		<polygon class="st9" points="720.9,251.1 718.7,252.3 720.9,253.6 		"/>
		<rect x="771.6" y="249.7" class="st3" width="5.5" height="5.5"/>
		<rect x="764.4" y="249.7" class="st3" width="5.5" height="5.5"/>
		<rect x="757.1" y="249.7" class="st3" width="5.5" height="5.5"/>
		<rect x="749.8" y="249.7" class="st3" width="5.5" height="5.5"/>
		<rect x="742.5" y="249.7" class="st3" width="5.5" height="5.5"/>
	</g>
	<path class="st9" d="M769.7,189.9c1,0.2,2-0.5,2.2-1.5s-0.5-2-1.5-2.2s-2,0.4-2.2,1.5C768,188.7,768.6,189.7,769.7,189.9
		L769.7,189.9z"/>
	<path class="st9" d="M127,295.9c1,0.2,2-0.5,2.2-1.5s-0.5-2-1.5-2.2s-2,0.4-2.2,1.5C125.3,294.7,125.9,295.7,127,295.9L127,295.9z"
		/>
	<path class="st9" d="M734.2,189.9c1,0.2,2-0.5,2.2-1.5s-0.5-2-1.5-2.2s-2,0.4-2.2,1.5C732.5,188.7,733.1,189.7,734.2,189.9
		L734.2,189.9z"/>
	<path class="st9" d="M726.6,189.9c1,0.2,2-0.5,2.2-1.5s-0.5-2-1.5-2.2s-2,0.4-2.2,1.5C724.8,188.7,725.5,189.7,726.6,189.9
		L726.6,189.9z"/>
	<path class="st9" d="M718.9,189.9c1,0.2,2-0.4,2.2-1.5c0.2-1-0.4-2-1.5-2.2c-1-0.2-2,0.4-2.2,1.5
		C717.2,188.7,717.9,189.7,718.9,189.9L718.9,189.9z"/>
	<path class="st9" d="M711.3,189.9c1,0.2,2-0.5,2.2-1.5s-0.5-2-1.5-2.2s-2,0.4-2.2,1.5C709.6,188.7,710.2,189.7,711.3,189.9
		C711.2,189.9,711.3,189.9,711.3,189.9z"/>
	<path class="st9" d="M703.6,189.9c1,0.2,2-0.5,2.2-1.5s-0.5-2-1.5-2.2s-2,0.4-2.2,1.5C701.9,188.7,702.5,189.7,703.6,189.9
		L703.6,189.9z"/>
	<path class="st9" d="M695.9,189.9c1,0.2,2-0.5,2.2-1.5s-0.5-2-1.5-2.2s-2,0.5-2.2,1.5S694.9,189.7,695.9,189.9L695.9,189.9z"/>
	<path class="st9" d="M688.3,189.9c1,0.2,2-0.4,2.2-1.5c0.2-1-0.4-2-1.5-2.2c-1-0.2-2,0.4-2.2,1.5
		C686.6,188.7,687.3,189.7,688.3,189.9L688.3,189.9z"/>
	<path class="st9" d="M753.2,189.9c1,0.2,2-0.5,2.2-1.5s-0.5-2-1.5-2.2s-2,0.4-2.2,1.5C751.5,188.7,752.2,189.7,753.2,189.9
		L753.2,189.9z"/>
	<line class="st24" x1="770.1" y1="188" x2="671" y2="188"/>
	<line class="st5" x1="770.1" y1="188" x2="672.9" y2="188"/>
	<polygon class="st9" points="673.2,186.8 671,188 673.2,189.3 	"/>
	<ellipse class="st25" cx="154.3" cy="21.9" rx="7.5" ry="7.5"/>
	<ellipse class="st1" cx="469.3" cy="280.9" rx="16.6" ry="16.6"/>
	<ellipse class="st2" cx="469.3" cy="280.9" rx="11" ry="11"/>
	<path class="st9" d="M470.9,280.8c0,0.8-0.6,1.5-1.4,1.5s-1.5-0.6-1.5-1.4s0.6-1.5,1.4-1.5l0,0
		C470.2,279.4,470.9,280.1,470.9,280.8z"/>
	<path class="st9" d="M497.5,280.8c0,0.8-0.6,1.5-1.4,1.5s-1.5-0.6-1.5-1.4s0.6-1.5,1.4-1.5l0,0
		C496.8,279.4,497.5,280.1,497.5,280.8z"/>
	<path class="st9" d="M505.3,288.6c0,0.8-0.6,1.5-1.4,1.5s-1.5-0.6-1.5-1.4s0.6-1.5,1.4-1.5l0,0
		C504.6,287.3,505.3,287.8,505.3,288.6z"/>
	<path class="st9" d="M525.9,288.6c0,0.8-0.6,1.5-1.4,1.5s-1.5-0.6-1.5-1.4s0.6-1.5,1.4-1.5l0,0
		C525.2,287.3,525.9,287.8,525.9,288.6z"/>
	<circle class="st5" cx="524.4" cy="288.6" r="10.1"/>
	<polyline class="st19" points="536.9,301 524.5,288.6 503.9,288.6 496.1,280.9 469.3,280.9 	"/>
	<line class="st19" x1="544.8" y1="7.9" x2="536.9" y2="0"/>
	<circle class="st17" cx="544.8" cy="7.9" r="4"/>
	<ellipse class="st25" cx="469.3" cy="280.9" rx="7.5" ry="7.5"/>
	<rect x="320.8" y="13.8" class="st9" width="21.4" height="3.8"/>
	<rect x="79.1" y="42.1" class="st9" width="21.4" height="3.8"/>
	<rect x="324.2" y="275.1" class="st9" width="21.4" height="3.8"/>
	<path class="st9" d="M718.4,4.3c0,0.5-0.3,0.9-0.8,0.9s-0.9-0.3-0.9-0.8s0.3-0.9,0.8-0.9l0,0C718,3.4,718.4,3.8,718.4,4.3z"/>
	<path class="st9" d="M701.2,21.3c0,0.5-0.3,0.9-0.8,0.9s-0.9-0.3-0.9-0.8s0.3-0.9,0.8-0.9l0,0C700.8,20.5,701.2,20.8,701.2,21.3z"
		/>
	<path class="st9" d="M698,18.1c0,0.5-0.3,0.9-0.9,0.9c-0.5,0-0.9-0.3-0.9-0.9c0-0.5,0.3-0.9,0.9-0.9l0,0
		C697.6,17.3,698,17.6,698,18.1L698,18.1z"/>
	<path class="st9" d="M704.4,24.4c0,0.5-0.3,0.9-0.8,0.9s-0.9-0.3-0.9-0.8s0.3-0.9,0.8-0.9l0,0C704,23.6,704.4,24,704.4,24.4z"/>
	<polyline class="st5" points="599.1,22.4 609.6,32.9 688.6,32.9 717.3,4.2 732.9,4.2 	"/>
	<ellipse class="st20" cx="732.9" cy="4.2" rx="2.7" ry="2.7"/>
	<polyline class="st11" points="709.6,28.2 709.6,30.8 707,30.8 	"/>
	<line class="st22" x1="705.6" y1="30.8" x2="694" y2="30.8"/>
	<polyline class="st11" points="693.3,30.8 690.7,30.8 690.7,28.2 	"/>
	<line class="st22" x1="690.7" y1="26.9" x2="690.7" y2="15.3"/>
	<polyline class="st11" points="690.7,14.6 690.7,12 693.3,12 	"/>
	<line class="st22" x1="694.7" y1="12" x2="706.3" y2="12"/>
	<polyline class="st11" points="707,12 709.6,12 709.6,14.6 	"/>
	<line class="st22" x1="709.6" y1="16" x2="709.6" y2="27.6"/>
	<circle class="st5" cx="700.2" cy="21.4" r="16.2"/>
	<line class="st5" x1="697.4" y1="18.2" x2="703.3" y2="24.1"/>
	<rect x="666.9" y="31.7" class="st9" width="12.5" height="2.2"/>
	<rect x="47.4" y="178.6" class="st9" width="35.3" height="3.8"/>
	<rect x="121.2" y="42.1" class="st9" width="3.4" height="3.8"/>
	<rect x="269.4" y="275" class="st9" width="3.4" height="3.8"/>
	<rect x="278.2" y="275" class="st9" width="3.4" height="3.8"/>
	<rect x="103.7" y="292.2" class="st9" width="3.4" height="3.8"/>
	<rect x="96.9" y="292.2" class="st9" width="3.4" height="3.8"/>
	<rect x="80.3" y="292.2" class="st9" width="12.7" height="3.8"/>
	<rect x="112.9" y="42.1" class="st9" width="3.4" height="3.8"/>
	<rect x="104" y="20.4" class="st9" width="3.4" height="3.8"/>
	<rect x="88.6" y="20.4" class="st9" width="12.7" height="3.8"/>
	<rect x="62.4" y="20.4" class="st9" width="23.6" height="3.8"/>
	<rect x="348.5" y="13.8" class="st9" width="4.6" height="3.8"/>
	<path class="st9" d="M401.2,107.4c1,0.2,2-0.5,2.2-1.5s-0.5-2-1.5-2.2s-2,0.4-2.2,1.5C399.4,106.2,400.1,107.3,401.2,107.4
		L401.2,107.4z"/>
	<path class="st9" d="M363.2,115.4c1,0.2,2-0.5,2.2-1.5s-0.5-2-1.5-2.2s-2,0.4-2.2,1.5C361.4,114.2,362.1,115.2,363.2,115.4
		C363.1,115.4,363.2,115.4,363.2,115.4z"/>
	<path class="st9" d="M381.4,127.2c1,0.2,2-0.5,2.2-1.5s-0.5-2-1.5-2.2s-2,0.4-2.2,1.5C379.7,126,380.4,127,381.4,127.2L381.4,127.2
		z"/>
	<path class="st9" d="M519.2,154.1c0,0.8-0.6,1.5-1.4,1.5s-1.5-0.6-1.5-1.4c0-0.8,0.6-1.5,1.4-1.5l0,0
		C518.6,152.6,519.2,153.3,519.2,154.1z"/>
	<path class="st9" d="M420.4,154.1c0,0.8-0.6,1.5-1.4,1.5s-1.5-0.6-1.5-1.4c0-0.8,0.6-1.5,1.4-1.5l0,0
		C419.8,152.6,420.4,153.3,420.4,154.1z"/>
	<polyline class="st5" points="518,90.1 518,154 410,154 	"/>
	<polygon class="st9" points="516.1,90.6 518,87.4 519.9,90.6 	"/>
	<ellipse class="st26" cx="410.1" cy="153.9" rx="4.6" ry="4.6"/>
	<rect x="515.3" y="103.7" class="st3" width="5.5" height="5.5"/>
	<rect x="515.3" y="114.1" class="st3" width="5.5" height="5.5"/>
	<rect x="515.3" y="135" class="st3" width="5.5" height="5.5"/>
	<line class="st5" x1="515.3" y1="93.6" x2="520.8" y2="93.6"/>
	<path class="st9" d="M469.6,230.8c0,0.8,0.6,1.5,1.4,1.5s1.5-0.6,1.5-1.4s-0.6-1.5-1.4-1.5l0,0C470.3,229.3,469.6,230,469.6,230.8z
		"/>
	<path class="st9" d="M534.2,230.8c0,0.8,0.6,1.5,1.4,1.5s1.5-0.6,1.5-1.4s-0.6-1.5-1.4-1.5l0,0C534.9,229.3,534.2,230,534.2,230.8z
		"/>
	<polyline class="st5" points="470.8,113 470.8,230.7 544.7,230.7 	"/>
	<polygon class="st9" points="468.9,113.6 470.8,110.3 472.7,113.6 	"/>
	<circle class="st3" cx="544.5" cy="230.6" r="4.6"/>
	<rect x="468.1" y="189.8" class="st3" width="5.5" height="5.5"/>
	<rect x="468.1" y="197.1" class="st3" width="5.5" height="5.5"/>
	<rect x="468.1" y="204.4" class="st3" width="5.5" height="5.5"/>
	<rect x="468.1" y="211.7" class="st3" width="5.5" height="5.5"/>
	<rect x="468.1" y="218.9" class="st3" width="5.5" height="5.5"/>
	<line class="st5" x1="473.6" y1="116.8" x2="468.1" y2="116.8"/>
	<ellipse class="st16" cx="93.3" cy="151.9" rx="14.5" ry="14.5"/>
	<circle class="st27" cx="93.3" cy="151.9" r="9.8"/>
	<circle class="st5" cx="93.3" cy="151.9" r="7.5"/>
	<path class="st9" d="M94.8,151.9c0,0.8-0.6,1.4-1.5,1.4c-0.8,0-1.5-0.6-1.4-1.5c0.1-0.8,0.6-1.4,1.5-1.4l0,0
		C94.1,150.4,94.8,151.1,94.8,151.9L94.8,151.9z"/>
	<path class="st9" d="M698.9,266.3L698.9,266.3c0.8,0,1.4,0.7,1.4,1.5s-0.7,1.4-1.5,1.4s-1.4-0.7-1.4-1.5
		C697.4,266.8,698,266.2,698.9,266.3z"/>
	<path class="st9" d="M698.9,252.3L698.9,252.3c0.8,0,1.4,0.7,1.4,1.5s-0.7,1.4-1.5,1.4s-1.4-0.7-1.4-1.5S698,252.3,698.9,252.3z"/>
	<path class="st9" d="M645,253.7c0-0.8,0.7-1.4,1.5-1.4l0,0c0.8,0,1.4,0.7,1.4,1.5s-0.7,1.4-1.5,1.4
		C645.6,255.2,645,254.5,645,253.7L645,253.7z"/>
	<polyline class="st19" points="665.2,301 698.8,267.3 698.8,253.5 646.6,253.5 621.7,228.6 	"/>
	<line class="st19" x1="652.4" y1="12.7" x2="665.2" y2="0"/>
	<circle class="st3" cx="660.9" cy="253.1" r="5.4"/>
	<line class="st5" x1="660.8" y1="262.5" x2="660.8" y2="244"/>
	<path class="st9" d="M660.8,245.2c0.6,0,1.2-0.5,1.2-1.2s-0.5-1.2-1.2-1.2s-1.2,0.5-1.2,1.2S660.2,245.2,660.8,245.2L660.8,245.2z"
		/>
	<path class="st9" d="M660.8,263.6c0.6,0,1.2-0.5,1.2-1.2s-0.5-1.2-1.2-1.2s-1.2,0.5-1.2,1.2S660.2,263.6,660.8,263.6L660.8,263.6z"
		/>
	<ellipse class="st23" cx="621.7" cy="228.6" rx="7" ry="7"/>
	<path class="st28" d="M659.5,0c4.5,2.5,7.6,7.2,7.6,12.7c0,8-6.5,14.5-14.5,14.5s-14.5-6.5-14.5-14.5c0-5.5,3.1-10.3,7.6-12.7"/>
	<path class="st28" d="M645.6,301c2.1-1.1,4.4-1.8,6.9-1.8s4.9,0.6,6.9,1.8"/>
	<circle class="st27" cx="652.5" cy="12.7" r="9.8"/>
	<circle class="st5" cx="652.5" cy="12.7" r="7.5"/>
	<path class="st9" d="M651,12.7c0-0.8,0.7-1.5,1.4-1.5l0,0c0.9,0,1.4,0.6,1.5,1.4c0.1,0.9-0.6,1.5-1.4,1.5
		C651.6,14.1,651,13.5,651,12.7L651,12.7z"/>
	<polyline class="st5" points="160.2,261.2 127.3,294.1 46.8,294.1 	"/>
	<circle class="st3" cx="47.1" cy="294.1" r="3.6"/>
	<circle class="st3" cx="160.2" cy="261.1" r="3.6"/>
	<g>
		<line class="st5" x1="485.8" y1="50.9" x2="747.8" y2="50.9"/>
		<line class="st5" x1="485.8" y1="66.1" x2="747.8" y2="66.1"/>
		<line class="st5" x1="485.8" y1="81.3" x2="747.8" y2="81.3"/>
		<line class="st5" x1="485.8" y1="96.5" x2="747.8" y2="96.5"/>
		<line class="st5" x1="485.8" y1="111.7" x2="747.8" y2="111.7"/>
		<line class="st5" x1="485.8" y1="126.9" x2="747.8" y2="126.9"/>
		<line class="st5" x1="485.8" y1="142.1" x2="747.8" y2="142.1"/>
		<line class="st5" x1="485.8" y1="157.3" x2="747.8" y2="157.3"/>
		<line class="st5" x1="485.8" y1="172.5" x2="747.8" y2="172.5"/>
		<line class="st5" x1="491" y1="44.6" x2="491" y2="178.1"/>
		<line class="st5" x1="509" y1="44.6" x2="509" y2="178.1"/>
		<line class="st5" x1="527" y1="44.6" x2="527" y2="178.1"/>
		<line class="st5" x1="545" y1="44.6" x2="545" y2="178.1"/>
		<line class="st5" x1="563" y1="44.6" x2="563" y2="178.1"/>
		<line class="st5" x1="581" y1="44.6" x2="581" y2="178.1"/>
		<line class="st5" x1="599" y1="44.6" x2="599" y2="178.1"/>
		<line class="st5" x1="617" y1="44.6" x2="617" y2="178.1"/>
		<line class="st5" x1="635" y1="44.6" x2="635" y2="178.1"/>
		<line class="st5" x1="653" y1="44.6" x2="653" y2="178.1"/>
		<line class="st5" x1="671" y1="44.6" x2="671" y2="178.1"/>
		<line class="st5" x1="689" y1="44.6" x2="689" y2="178.1"/>
		<line class="st5" x1="707" y1="44.6" x2="707" y2="178.1"/>
		<line class="st5" x1="725" y1="44.6" x2="725" y2="178.1"/>
		<line class="st5" x1="743" y1="44.6" x2="743" y2="178.1"/>
		<path class="st29" d="M491,111.9c0,0,0-61,54-61s54,60.5,54,60.5s0,61.2,54,61.2s54-60.6,54-60.6s-3.2-61,36-61"/>
	</g>
	<rect x="515.3" y="124.6" class="st3" width="5.5" height="5.5"/>
	<line class="st5" x1="649" y1="209.9" x2="780.4" y2="209.9"/>
	<line class="st5" x1="649" y1="224.7" x2="780.4" y2="224.7"/>
	<line class="st5" x1="649" y1="239.5" x2="780.4" y2="239.5"/>
	<line class="st5" x1="0" y1="209.9" x2="35.4" y2="209.9"/>
	<line class="st5" x1="0" y1="224.7" x2="35.4" y2="224.7"/>
	<line class="st5" x1="0" y1="239.5" x2="35.4" y2="239.5"/>
	<line class="st19" x1="675.7" y1="241.6" x2="675.7" y2="264.8"/>
	<path class="st5" d="M689.8,224.7v12.5c0,0,3.6-0.5,3.6,2.3c0,2.7-3.6,2.1-3.6,2.1v23.2"/>
	<path class="st5" d="M704.1,209.9v12.5c0,0,3.5-0.5,3.5,2.3c0,2.7-3.5,2.1-3.5,2.1v38"/>
	<g>
		<g>
			<line class="st30" x1="675.7" y1="286.2" x2="675.7" y2="283.2"/>
			<line class="st31" x1="675.7" y1="279.3" x2="675.7" y2="273.4"/>
			<line class="st30" x1="675.7" y1="271.4" x2="675.7" y2="268.4"/>
		</g>
	</g>
	<g>
		<g>
			<line class="st30" x1="689.8" y1="286.2" x2="689.8" y2="283.2"/>
			<line class="st31" x1="689.8" y1="279.3" x2="689.8" y2="273.4"/>
			<line class="st30" x1="689.8" y1="271.4" x2="689.8" y2="268.4"/>
		</g>
	</g>
	<g>
		<g>
			<line class="st30" x1="703.9" y1="286.2" x2="703.9" y2="283.2"/>
			<line class="st31" x1="703.9" y1="279.3" x2="703.9" y2="273.4"/>
			<line class="st30" x1="703.9" y1="271.4" x2="703.9" y2="268.4"/>
		</g>
	</g>
	<g>
		<g>
			<line class="st30" x1="57.9" y1="209.9" x2="54.9" y2="209.9"/>
			<line class="st31" x1="50.9" y1="209.9" x2="45" y2="209.9"/>
			<line class="st30" x1="43" y1="209.9" x2="40" y2="209.9"/>
		</g>
	</g>
	<g>
		<g>
			<line class="st30" x1="57.9" y1="224.7" x2="54.9" y2="224.7"/>
			<line class="st31" x1="50.9" y1="224.7" x2="45" y2="224.7"/>
			<line class="st30" x1="43" y1="224.7" x2="40" y2="224.7"/>
		</g>
	</g>
	<g>
		<g>
			<line class="st30" x1="57.9" y1="239.5" x2="54.9" y2="239.5"/>
			<line class="st31" x1="50.9" y1="239.5" x2="45" y2="239.5"/>
			<line class="st30" x1="43" y1="239.5" x2="40" y2="239.5"/>
		</g>
	</g>
	<circle class="st7" cx="578.5" cy="220.2" r="35"/>
	<g>
		<path class="st9" d="M557.9,199.3c0.8-0.8,2.2-0.8,3,0l0,0c0.8,0.8,0.8,2.2,0,3l0,0c-0.8,0.8-2.2,0.8-3,0l0,0
			C557,201.5,557,200.2,557.9,199.3L557.9,199.3L557.9,199.3z M553.6,209c1.1,0.4,1.7,1.6,1.3,2.7l0,0c-0.4,1.1-1.6,1.7-2.7,1.3l0,0
			c-1.1-0.4-1.7-1.6-1.3-2.7l0,0l0,0l0,0c0.1-0.3,0.3-0.6,0.5-0.8l0,0C551.9,209,552.8,208.7,553.6,209z M569,192.4
			c1.1-0.4,2.4,0.2,2.7,1.3l0,0c0.4,1.1-0.2,2.4-1.4,2.7l0,0c-1.1,0.4-2.3-0.2-2.7-1.4l0,0c-0.3-0.8,0-1.7,0.5-2.2l0,0
			C568.4,192.7,568.7,192.6,569,192.4z M551.2,221c1.2-0.1,2.2,0.7,2.4,1.9l0,0c0.1,1.2-0.7,2.2-1.9,2.4l0,0
			c-1.2,0.1-2.2-0.7-2.4-1.9l0,0c-0.1-0.7,0.2-1.3,0.6-1.8l0,0C550.3,221.3,550.7,221,551.2,221z M582,191.1L582,191.1L582,191.1
			c1.2,0.2,2,1.2,1.9,2.4l0,0c-0.2,1.2-1.2,2-2.4,1.9l0,0c-1.2-0.2-2-1.2-1.9-2.4l0,0c0.1-0.5,0.3-0.9,0.6-1.3l0,0
			C580.7,191.2,581.3,191,582,191.1z M554.3,232.7c1-0.6,2.3-0.3,3,0.7l0,0c0.6,1,0.3,2.3-0.7,3l0,0c-1,0.6-2.3,0.3-3-0.7l0,0l0,0
			l0,0c-0.5-0.9-0.4-2,0.3-2.7l0,0C554,232.9,554.1,232.9,554.3,232.7z M594.4,195.5L594.4,195.5L594.4,195.5c1,0.6,1.3,2,0.7,3l0,0
			c-0.6,1-2,1.3-3,0.7l0,0c-1-0.6-1.3-2-0.7-3l0,0c0.1-0.1,0.2-0.2,0.3-0.4l0,0C592.4,195.1,593.5,195,594.4,195.5z M565.1,241.4
			c1,0.6,1.3,2,0.7,3l0,0c-0.6,1-2,1.3-3,0.7l0,0c-1-0.6-1.3-2-0.7-3l0,0c0.1-0.1,0.2-0.3,0.3-0.4l0,0
			C563.1,241,564.2,240.8,565.1,241.4z M600.6,204.2c1-0.6,2.3-0.3,2.9,0.7l0,0c0.6,1,0.3,2.3-0.7,2.9l0,0c-1,0.6-2.3,0.3-2.9-0.7
			l0,0c-0.5-0.9-0.4-2,0.3-2.7l0,0C600.3,204.3,600.4,204.3,600.6,204.2z M575.7,245.1L575.7,245.1c1.2,0.2,2,1.2,1.9,2.4l0,0
			c-0.1,1.1-1.2,2-2.4,1.9l0,0l0,0l0,0c-1.1-0.1-2-1.2-1.9-2.4l0,0c0-0.5,0.3-0.9,0.6-1.3l0,0C574.3,245.2,575,245,575.7,245.1z
			 M605.3,215.3c1.2-0.1,2.2,0.7,2.3,1.9l0,0c0.1,1.2-0.7,2.2-1.9,2.3l0,0c-1.2,0.1-2.2-0.7-2.3-1.9l0,0c-0.1-0.7,0.2-1.3,0.6-1.7
			l0,0C604.4,215.6,604.8,215.4,605.3,215.3z M586.7,243.9L586.7,243.9c1.1-0.4,2.4,0.2,2.7,1.3l0,0c0.4,1.1-0.2,2.4-1.3,2.7l0,0
			l0,0l0,0c-1.1,0.4-2.4-0.2-2.7-1.3l0,0c-0.3-0.8,0-1.7,0.5-2.2l0,0C586.1,244.1,586.4,244,586.7,243.9z M604.8,227.5
			c1.1,0.4,1.7,1.6,1.3,2.8l0,0c-0.4,1.1-1.6,1.7-2.8,1.3l0,0c-1.1-0.4-1.7-1.6-1.3-2.8l0,0c0.1-0.3,0.3-0.6,0.5-0.8l0,0
			C603.1,227.4,604,227.2,604.8,227.5z M599.3,237.9c0.8,0.8,0.8,2.2,0,3l0,0c-0.8,0.8-2.2,0.8-3,0l0,0c-0.8-0.8-0.8-2.2,0-3l0,0
			C597.1,237.1,598.4,237.1,599.3,237.9z"/>
	</g>
	<circle class="st7" cx="578.5" cy="220.2" r="24.2"/>
	<circle class="st5" cx="578.5" cy="220.2" r="30.4"/>
	<path class="st10" d="M592.9,234.6c8-8,8-20.9,0-28.9s-20.9-8-28.9,0s-8,20.9,0,28.9l0,0"/>
	<path class="st11" d="M567.4,231.3c6.2,6.2,16.2,6.2,22.3,0c6.2-6.2,6.2-16.2,0-22.3c-6.2-6.2-16.2-6.2-22.3,0"/>
	
		<rect x="575.7" y="217.4" transform="matrix(0.7071 -0.7071 0.7071 0.7071 13.7425 473.5653)" class="st32" width="5.6" height="5.6"/>
	<circle class="st21" cx="578.5" cy="220.2" r="5.5"/>
	<line class="st11" x1="579.4" y1="221.2" x2="577.6" y2="219.3"/>
</g>
</svg>
